<?xml version="1.0" encoding="UTF-8"?>
<svg id="Layer_1" data-name="Layer 1" xmlns="http://www.w3.org/2000/svg" version="1.1" xmlns:xlink="http://www.w3.org/1999/xlink" viewBox="0 0 600 250">
  <defs>
    <style>
      .cls-1 {
        fill: url(#linear-gradient);
      }

      .cls-1, .cls-2, .cls-3 {
        stroke-width: 0px;
      }

      .cls-2 {
        fill: url(#linear-gradient-2);
      }

      .cls-3 {
        fill: url(#linear-gradient-3);
      }
    </style>
    <linearGradient id="linear-gradient" x1="169.4" y1="286.1" x2="421.4" y2="34.1" gradientTransform="translate(0 252) scale(1 -1)" gradientUnits="userSpaceOnUse">
      <stop offset="0" stop-color="#00e1ff"/>
      <stop offset=".1" stop-color="#00dbfa"/>
      <stop offset=".3" stop-color="#00cced"/>
      <stop offset=".5" stop-color="#00b2d9"/>
      <stop offset=".7" stop-color="#008fbb"/>
      <stop offset=".9" stop-color="#006196"/>
      <stop offset="1" stop-color="#003c78"/>
    </linearGradient>
    <linearGradient id="linear-gradient-2" x1="230.2" y1="161.6" x2="368.4" y2="23.4" xlink:href="#linear-gradient"/>
    <linearGradient id="linear-gradient-3" x1="184.9" y1="-74.3" x2="415.1" y2="324.3" gradientUnits="userSpaceOnUse">
      <stop offset="0" stop-color="#00e0a7"/>
      <stop offset="0" stop-color="#00caa3"/>
      <stop offset=".2" stop-color="#009b99"/>
      <stop offset=".4" stop-color="#007492"/>
      <stop offset=".6" stop-color="#00568c"/>
      <stop offset=".7" stop-color="#004087"/>
      <stop offset=".9" stop-color="#003385"/>
      <stop offset="1" stop-color="#002f84"/>
    </linearGradient>
  </defs>
  <g>
    <path class="cls-1" d="M531.5,107.8v-17.8c0-2.3-.5-4.2-1.5-5.8-1-1.6-2.3-2.9-4-3.8-1.7-.9-3.6-1.3-5.7-1.3s-4,.5-5.7,1.4c-1.7.9-3.1,2.2-4.1,3.8-1,1.7-1.7,3.6-1.8,5.9l4.4,1c0-1.1.2-2,.7-2.8.5-.8,1.1-1.4,2-1.8.8-.4,1.7-.6,2.7-.6,1.5,0,2.8.5,3.8,1.4,1,.9,1.5,2.2,1.5,3.8v16.6h7.6ZM513.1,107.8v-18.1c0-2.2-.5-4.1-1.4-5.7-.9-1.6-2.2-2.8-3.8-3.7-1.6-.9-3.4-1.3-5.3-1.3s-3.9.4-5.5,1.3c-1.6.9-2.9,2.1-3.9,3.7-1,1.6-1.4,3.5-1.4,5.7l3,1.5c0-1.1.2-2,.7-2.8.5-.8,1.1-1.4,1.9-1.8.8-.4,1.7-.6,2.7-.6,1.5,0,2.8.5,3.8,1.4,1,.9,1.5,2.2,1.5,3.8v16.6h7.6ZM494.8,107.8v-28.2h-7.6v28.2s7.6,0,7.6,0ZM472.1,87.5c1-1,2.4-1.5,4-1.5s1.5.1,2.1.4,1.1.6,1.5,1l4.8-5.5c-.9-1-1.9-1.7-3-2.2-1.1-.4-2.3-.7-3.7-.7-3.2,0-5.6,1-7.2,3-1.7,2-2.7,4.7-3,8.2l3,2c0-2.1.5-3.7,1.5-4.7ZM470.5,107.8v-28.2h-7.6v28.2s7.6,0,7.6,0ZM455.3,76.1c.8-.8,1.2-1.8,1.2-3s-.4-2.2-1.2-3c-.8-.8-1.8-1.2-3-1.2s-2.2.4-3,1.2c-.8.8-1.2,1.8-1.2,3s.4,2.2,1.2,3c.8.8,1.8,1.2,3,1.2,1.2,0,2.3-.4,3-1.2ZM456.1,107.8v-28.2h-7.6v28.2s7.6,0,7.6,0ZM452.2,86.4v-6.7h-27.9v6.7h27.9ZM438.4,107.8v-32.4c0-1,.3-1.9.8-2.5.6-.6,1.4-.9,2.4-.9s1,0,1.4.2l1.1.6,4.4-5.4c-1-.8-2.1-1.4-3.2-1.9-1.1-.4-2.4-.6-3.8-.6-2.2,0-4.1.5-5.7,1.4-1.6.9-2.9,2.2-3.8,3.8-.9,1.6-1.3,3.4-1.3,5.5v32.1h7.6ZM402.2,107.8v-28.2h-7.6v28.2s7.6,0,7.6,0ZM421.2,107.8v-17.8c0-1.9-.5-3.7-1.4-5.3-.9-1.7-2.2-3-3.8-4s-3.5-1.5-5.5-1.5-4.1.5-5.7,1.4c-1.7.9-3,2.2-4,3.9-1,1.7-1.4,3.6-1.4,5.8l3,1.5c0-1.1.2-2.1.7-3,.5-.9,1.2-1.5,2-2,.9-.5,1.8-.7,2.9-.7,1.7,0,3,.5,4.1,1.6,1,1,1.6,2.4,1.6,4.1v16.2h7.6ZM370.8,100.3c-1.1-.6-1.9-1.5-2.6-2.7-.6-1.1-.9-2.5-.9-3.9s.3-2.8.9-3.9c.6-1.1,1.5-2,2.6-2.7,1.1-.6,2.3-1,3.7-1s2.7.3,3.8,1c1.1.6,1.9,1.5,2.6,2.7.6,1.1.9,2.4.9,3.9s-.3,2.8-.9,3.9c-.6,1.1-1.5,2-2.6,2.7-1.1.6-2.4,1-3.8,1s-2.6-.3-3.7-1ZM382.3,106.4c2.3-1.3,4.1-3.1,5.4-5.3s2-4.7,2-7.5-.7-5.2-2-7.4c-1.3-2.2-3.1-3.9-5.4-5.3-2.3-1.3-4.9-2-7.7-2s-5.3.7-7.6,2c-2.3,1.3-4.1,3.1-5.4,5.3-1.3,2.2-2,4.7-2,7.4s.7,5.3,2,7.5c1.3,2.2,3.2,4,5.4,5.3,2.3,1.3,4.8,2,7.7,2,2.8,0,5.4-.7,7.7-2ZM350.7,106.8c2.5-1,4.7-2.5,6.7-4.4l-5.4-5.4c-1.1,1.3-2.5,2.3-4.2,3-1.7.7-3.6,1.1-5.9,1.1s-3.6-.3-5.2-1c-1.6-.7-2.9-1.6-4.1-2.8-1.2-1.2-2.1-2.7-2.7-4.3-.6-1.7-.9-3.5-.9-5.6s.3-3.9.9-5.6c.6-1.7,1.5-3.1,2.7-4.4,1.2-1.2,2.5-2.2,4.1-2.8,1.6-.6,3.3-1,5.2-1s4.1.4,5.7,1c1.6.7,3,1.7,4.1,2.9l5.4-5.4c-1.9-1.9-4.1-3.3-6.6-4.4-2.5-1.1-5.4-1.6-8.6-1.6s-5.8.5-8.4,1.6c-2.5,1.1-4.8,2.6-6.7,4.5-1.9,1.9-3.4,4.1-4.4,6.7-1,2.6-1.5,5.3-1.5,8.3s.5,5.7,1.5,8.3c1,2.6,2.5,4.8,4.4,6.7,1.9,1.9,4.2,3.4,6.7,4.5s5.3,1.6,8.3,1.6c3.3,0,6.3-.5,8.8-1.6ZM300.6,119.6l5.1-11.6-4.7-6.6-8.6,18.1h8.1ZM305.7,108.1l12.5-28.4h-8.3l-8.1,21.7h2.8l-7.8-21.7h-8.3l11.8,28.4s5.4,0,5.4,0ZM263.3,107.8v-41h-7.9v41h7.9ZM272.2,107.8c2.9,0,5.4-.5,7.4-1.6s3.6-2.5,4.7-4.3c1.1-1.8,1.6-3.7,1.6-5.9s-.8-5.1-2.5-7.1-4-3.4-7-4.2l-.4,2.6c2.7-.8,4.8-2.1,6.2-3.8,1.4-1.7,2.1-3.7,2.1-6s-.5-3.7-1.4-5.3c-.9-1.6-2.3-2.9-4.2-3.9-1.8-1-4.1-1.5-6.9-1.5h-10.7v6.5h9.8c1.6,0,2.9.4,3.9,1.2,1,.8,1.5,2.1,1.5,3.7s-.5,2.9-1.5,3.7c-1,.8-2.3,1.2-3.9,1.2h-9.8v6.4h10.7c1.3,0,2.4.3,3.3.8.9.5,1.6,1.2,2.1,2.1.5.9.7,1.9.7,3,0,1.6-.5,3-1.6,4.1-1.1,1.2-2.6,1.8-4.5,1.8h-10.7v6.5h11ZM233.1,119.6l5.1-11.6-4.7-6.6-8.6,18.1h8.1ZM238.2,108.1l12.5-28.4h-8.3l-8.1,21.7h2.8l-7.8-21.7h-8.3l11.8,28.4s5.4,0,5.4,0ZM201,100.3c-1.1-.6-1.9-1.5-2.6-2.7-.6-1.1-.9-2.5-.9-3.9s.3-2.8.9-3.9c.6-1.1,1.5-2,2.6-2.7,1.1-.6,2.3-1,3.7-1s2.7.3,3.8,1c1.1.6,1.9,1.5,2.6,2.7.6,1.1.9,2.4.9,3.9s-.3,2.8-.9,3.9c-.6,1.1-1.5,2-2.6,2.7-1.1.6-2.4,1-3.8,1s-2.6-.3-3.7-1ZM212.4,106.4c2.3-1.3,4.1-3.1,5.4-5.3,1.3-2.2,2-4.7,2-7.5s-.7-5.2-2-7.4c-1.3-2.2-3.1-3.9-5.4-5.3-2.3-1.3-4.9-2-7.7-2s-5.3.7-7.6,2c-2.3,1.3-4.1,3.1-5.4,5.3-1.3,2.2-2,4.7-2,7.4s.7,5.3,2,7.5c1.3,2.2,3.1,4,5.4,5.3,2.3,1.3,4.8,2,7.7,2,2.8,0,5.4-.7,7.7-2ZM184.8,107.8v-42.2h-7.6v42.2h7.6ZM153.4,100.4c-1.1-.6-1.9-1.5-2.5-2.7s-.9-2.5-.9-4,.3-2.8.9-3.9,1.4-2,2.5-2.7c1.1-.6,2.3-1,3.7-1s2.6.3,3.7,1c1.1.6,1.9,1.5,2.5,2.7s.9,2.5.9,3.9-.3,2.8-.9,4-1.4,2-2.5,2.7c-1.1.6-2.3,1-3.7,1s-2.6-.3-3.7-1ZM150.4,119.6v-18.9l-1.2-6.8,1.3-6.8v-7.4h-7.6v40s7.6,0,7.6,0ZM165.4,106.5c2.1-1.3,3.7-3,4.9-5.3,1.2-2.2,1.8-4.7,1.8-7.5s-.6-5.3-1.8-7.5-2.8-4-4.9-5.2c-2.1-1.3-4.4-1.9-7-1.9s-3.8.4-5.5,1.3c-1.6.9-2.9,2-3.9,3.5-1,1.5-1.5,3.1-1.6,5v10c0,1.9.6,3.5,1.6,5,1,1.4,2.3,2.6,3.9,3.4,1.6.8,3.5,1.3,5.5,1.3,2.6,0,4.9-.6,7-1.9ZM131.1,107.2c2-.8,3.6-2,5-3.6l-4.5-4.5c-.9,1-1.9,1.7-3,2.2-1.2.5-2.5.7-3.9.7s-3-.3-4.2-1c-1.2-.7-2.1-1.7-2.8-2.9-.6-1.3-1-2.8-1-4.5s.3-3.1.9-4.3c.6-1.2,1.5-2.2,2.6-2.9,1.1-.7,2.5-1,4-1s2.7.3,3.6.9c1,.6,1.8,1.5,2.3,2.6.5,1.1.8,2.5.9,4.2l3.1-2.4h-20.1v5.8h23.7c.2-.7.3-1.3.3-1.8,0-.5,0-1,0-1.5,0-2.7-.6-5.1-1.8-7.2-1.2-2.1-2.8-3.8-4.9-5-2.1-1.2-4.5-1.8-7.2-1.8s-5.3.7-7.5,2c-2.3,1.3-4,3.1-5.3,5.3-1.3,2.2-2,4.7-2,7.5s.7,5.4,2,7.6c1.3,2.2,3.2,4,5.5,5.2,2.3,1.3,4.9,1.9,7.9,1.9,2.3,0,4.4-.4,6.4-1.2ZM76.4,107.8v-41h-7.9v41h7.9ZM84.6,107.8c3,0,5.8-.5,8.4-1.5,2.6-1,4.8-2.4,6.7-4.3,1.9-1.8,3.4-4,4.5-6.5,1.1-2.5,1.6-5.2,1.6-8.2s-.5-5.7-1.6-8.2c-1.1-2.5-2.6-4.7-4.5-6.5-1.9-1.8-4.2-3.3-6.8-4.3-2.6-1-5.4-1.5-8.4-1.5h-10.7v7.1h10.6c2.6,0,4.9.6,6.9,1.7,2,1.1,3.5,2.7,4.7,4.7,1.1,2,1.7,4.3,1.7,7s-.6,5.2-1.7,7.2c-1.1,2-2.7,3.6-4.6,4.7-2,1.1-4.3,1.7-6.9,1.7h-10.4v7.1s10.7,0,10.7,0Z"/>
    <path class="cls-2" d="M417.4,178.2c1.5-2.7,2.7-5.6,3.5-8.7.8-3.2,1.3-6.5,1.3-9.9s-.4-6.8-1.3-9.9c-.8-3.2-2-6.1-3.5-8.7s-3.3-4.9-5.5-6.8l-4.3,4c2.5,2.4,4.5,5.4,5.8,9.1,1.4,3.7,2,7.8,2,12.4s-.7,8.7-2,12.4c-1.4,3.7-3.3,6.7-5.8,9.1l4.3,4c2.1-1.9,4-4.1,5.5-6.8ZM369.1,177.8v-27.4l-1.6.5,11.6,18.6h5.4l11.6-18.6-1.5-.5v27.4h7.9v-41h-5.6l-16.6,26.6h3.2l-16.6-26.6h-5.6v41h7.9ZM348.9,176.8c2.5-1,4.7-2.5,6.7-4.4l-5.4-5.4c-1.1,1.3-2.5,2.3-4.2,3-1.7.7-3.6,1.1-5.9,1.1s-3.6-.3-5.2-1c-1.6-.7-2.9-1.6-4.1-2.8-1.2-1.2-2.1-2.7-2.7-4.3-.6-1.7-.9-3.5-.9-5.6s.3-3.9.9-5.6c.6-1.7,1.5-3.1,2.7-4.4,1.2-1.2,2.5-2.2,4.1-2.8,1.6-.6,3.3-1,5.2-1s4.1.4,5.7,1c1.6.7,3,1.7,4.1,2.9l5.4-5.4c-1.9-1.9-4.1-3.3-6.6-4.4-2.5-1.1-5.4-1.6-8.6-1.6s-5.8.5-8.4,1.6c-2.5,1.1-4.8,2.6-6.7,4.5-1.9,1.9-3.4,4.1-4.4,6.7-1,2.6-1.5,5.3-1.5,8.3s.5,5.7,1.5,8.3c1,2.6,2.5,4.8,4.4,6.7,1.9,1.9,4.2,3.4,6.7,4.5s5.3,1.6,8.3,1.6c3.3,0,6.3-.5,8.8-1.6ZM310.5,175.1c2.7-2.2,4-5.2,4-9s-.4-3.9-1.1-5.4c-.7-1.5-1.6-2.7-2.8-3.6-1.1-.9-2.4-1.7-3.8-2.3-1.4-.6-2.8-1.1-4.1-1.6-1.4-.5-2.6-1-3.8-1.5-1.1-.5-2.1-1.1-2.8-1.8-.7-.7-1.1-1.6-1.1-2.7s.5-2.3,1.6-3c1-.7,2.5-1,4.3-1s3,.3,4.3.9c1.3.6,2.5,1.6,3.7,2.9l5.3-5.3c-1.4-1.7-3.3-3-5.5-4.1-2.3-1-4.8-1.6-7.6-1.6s-5,.5-7.1,1.4c-2.1.9-3.8,2.3-5,4-1.2,1.8-1.8,3.9-1.8,6.4s.3,3.8,1,5.2c.7,1.4,1.6,2.5,2.8,3.4,1.1.9,2.4,1.6,3.8,2.2,1.4.6,2.8,1.1,4.1,1.5,1.4.5,2.6.9,3.8,1.5,1.1.5,2.1,1.2,2.8,2,.7.8,1.1,1.8,1.1,3s-.6,2.6-1.8,3.4-2.9,1.2-4.9,1.2-4.2-.4-5.8-1.3c-1.6-.9-3-2.1-4.2-3.7l-5.3,5.2c1.9,2.3,4,4,6.4,5.1,2.4,1.1,5.2,1.7,8.5,1.7,4.7,0,8.3-1.1,11-3.3ZM270.6,157.6c1-1,2.4-1.5,4-1.5s1.5.1,2.1.4,1.1.6,1.5,1l4.8-5.5c-.9-1-1.9-1.7-3-2.2-1.1-.4-2.3-.7-3.7-.7-3.1,0-5.6,1-7.2,3-1.7,2-2.7,4.7-3,8.2l3,2c0-2.1.5-3.7,1.5-4.7ZM269.1,177.8v-28.2h-7.6v28.2h7.6ZM237.7,170.3c-1.1-.6-1.9-1.5-2.6-2.7-.6-1.1-.9-2.5-.9-3.9s.3-2.8.9-3.9c.6-1.1,1.5-2,2.6-2.7,1.1-.6,2.3-1,3.7-1s2.7.3,3.8,1c1.1.6,1.9,1.5,2.6,2.7.6,1.1.9,2.4.9,3.9s-.3,2.8-.9,3.9c-.6,1.1-1.5,2-2.6,2.7-1.1.6-2.4,1-3.8,1-1.4,0-2.6-.3-3.7-1ZM249.2,176.5c2.3-1.3,4.1-3.1,5.4-5.3,1.3-2.2,2-4.7,2-7.5s-.7-5.2-2-7.4c-1.3-2.2-3.1-3.9-5.4-5.3-2.3-1.3-4.9-2-7.7-2s-5.3.7-7.6,2c-2.3,1.3-4.1,3.1-5.4,5.3-1.3,2.2-2,4.7-2,7.4s.7,5.3,2,7.5,3.2,4,5.4,5.3c2.3,1.3,4.8,2,7.7,2s5.4-.7,7.7-2ZM223.8,143.8v-7h-21.6v7h21.6ZM222.8,161v-7.1h-20.7v7.1h20.7ZM204.2,177.8v-41h-7.9v41h7.9ZM191,181c-2.5-2.4-4.5-5.4-5.9-9.1-1.4-3.7-2.1-7.8-2.1-12.4s.7-8.8,2.1-12.4c1.4-3.7,3.3-6.7,5.9-9.1l-4.3-4c-2.1,1.9-3.9,4.1-5.5,6.8-1.5,2.7-2.7,5.6-3.5,8.7-.8,3.2-1.2,6.5-1.2,9.9s.4,6.7,1.2,9.9c.8,3.2,2,6.1,3.5,8.7,1.5,2.7,3.4,4.9,5.5,6.8l4.3-4Z"/>
  </g>
  <path class="cls-3" d="M546,11c9.9,0,18,8.1,18,18v192c0,9.9-8.1,18-18,18H54c-9.9,0-18-8.1-18-18V29c0-9.9,8.1-18,18-18h492M546,5H54c-13.3,0-24,10.7-24,24v192c0,13.3,10.7,24,24,24h492c13.3,0,24-10.7,24-24V29c0-13.3-10.7-24-24-24h0Z"/>
</svg>