<?xml version="1.0" encoding="UTF-8"?>
<svg id="Layer_1" data-name="Layer 1" xmlns="http://www.w3.org/2000/svg" version="1.1" xmlns:xlink="http://www.w3.org/1999/xlink" viewBox="0 0 1080 1080">
  <defs>
    <style>
      .cls-1 {
        fill: #fccc6b;
      }

      .cls-1, .cls-2, .cls-3, .cls-4, .cls-5, .cls-6, .cls-7, .cls-8, .cls-9, .cls-10, .cls-11, .cls-12, .cls-13, .cls-14, .cls-15, .cls-16, .cls-17 {
        stroke-width: 0px;
      }

      .cls-2 {
        fill: #42e8e0;
      }

      .cls-3 {
        fill: url(#_Áåçûìÿííûé_ãðàäèåíò_107-2);
      }

      .cls-3, .cls-4, .cls-6, .cls-9, .cls-10, .cls-11, .cls-13, .cls-14, .cls-15, .cls-16 {
        opacity: .5;
      }

      .cls-4 {
        fill: url(#_Áåçûìÿííûé_ãðàäèåíò_107-3);
      }

      .cls-5 {
        fill: #312a91;
      }

      .cls-6 {
        fill: url(#_Áåçûìÿííûé_ãðàäèåíò_107);
      }

      .cls-7 {
        opacity: .1;
      }

      .cls-7, .cls-10 {
        fill: #0b0244;
      }

      .cls-8, .cls-13 {
        fill: #5cfff3;
      }

      .cls-9 {
        fill: url(#_Áåçûìÿííûé_ãðàäèåíò_107-8);
      }

      .cls-11 {
        fill: url(#_Áåçûìÿííûé_ãðàäèåíò_107-6);
      }

      .cls-12 {
        fill: url(#_Áåçûìÿííûé_ãðàäèåíò_59-2);
      }

      .cls-14 {
        fill: url(#_Áåçûìÿííûé_ãðàäèåíò_107-7);
      }

      .cls-15 {
        fill: url(#_Áåçûìÿííûé_ãðàäèåíò_107-4);
      }

      .cls-16 {
        fill: url(#_Áåçûìÿííûé_ãðàäèåíò_107-5);
      }

      .cls-17 {
        fill: url(#_Áåçûìÿííûé_ãðàäèåíò_59);
      }
    </style>
    <linearGradient id="_Áåçûìÿííûé_ãðàäèåíò_107" data-name="Áåçûìÿííûé ãðàäèåíò 107" x1="635" y1="404.32" x2="729.25" y2="404.32" gradientUnits="userSpaceOnUse">
      <stop offset="0" stop-color="#42e8e0"/>
      <stop offset=".1" stop-color="#3cc9cd"/>
      <stop offset=".34" stop-color="#2f87a5"/>
      <stop offset=".56" stop-color="#255285"/>
      <stop offset=".75" stop-color="#1e2c6e"/>
      <stop offset=".91" stop-color="#191560"/>
      <stop offset="1" stop-color="#180d5b"/>
    </linearGradient>
    <linearGradient id="_Áåçûìÿííûé_ãðàäèåíò_59" data-name="Áåçûìÿííûé ãðàäèåíò 59" x1="702.96" y1="404.32" x2="750.08" y2="404.32" gradientUnits="userSpaceOnUse">
      <stop offset="0" stop-color="#2b237c"/>
      <stop offset="1" stop-color="#180d5b"/>
    </linearGradient>
    <linearGradient id="_Áåçûìÿííûé_ãðàäèåíò_107-2" data-name="Áåçûìÿííûé ãðàäèåíò 107" x1="655.83" y1="393.91" x2="750.09" y2="393.91" xlink:href="#_Áåçûìÿííûé_ãðàäèåíò_107"/>
    <linearGradient id="_Áåçûìÿííûé_ãðàäèåíò_107-3" data-name="Áåçûìÿííûé ãðàäèåíò 107" x1="655.83" y1="393.91" x2="703.94" y2="393.91" xlink:href="#_Áåçûìÿííûé_ãðàäèåíò_107"/>
    <linearGradient id="_Áåçûìÿííûé_ãðàäèåíò_107-4" data-name="Áåçûìÿííûé ãðàäèåíò 107" x1="668.65" y1="421.34" x2="747.54" y2="369.77" xlink:href="#_Áåçûìÿííûé_ãðàäèåíò_107"/>
    <linearGradient id="_Áåçûìÿííûé_ãðàäèåíò_107-5" data-name="Áåçûìÿííûé ãðàäèåíò 107" y1="375.84" y2="375.84" xlink:href="#_Áåçûìÿííûé_ãðàäèåíò_107"/>
    <linearGradient id="_Áåçûìÿííûé_ãðàäèåíò_59-2" data-name="Áåçûìÿííûé ãðàäèåíò 59" y1="375.83" y2="375.83" xlink:href="#_Áåçûìÿííûé_ãðàäèåíò_59"/>
    <linearGradient id="_Áåçûìÿííûé_ãðàäèåíò_107-6" data-name="Áåçûìÿííûé ãðàäèåíò 107" x1="655.83" y1="365.42" x2="750.09" y2="365.42" xlink:href="#_Áåçûìÿííûé_ãðàäèåíò_107"/>
    <linearGradient id="_Áåçûìÿííûé_ãðàäèåíò_107-7" data-name="Áåçûìÿííûé ãðàäèåíò 107" x1="655.83" y1="365.43" x2="703.94" y2="365.43" xlink:href="#_Áåçûìÿííûé_ãðàäèåíò_107"/>
    <linearGradient id="_Áåçûìÿííûé_ãðàäèåíò_107-8" data-name="Áåçûìÿííûé ãðàäèåíò 107" x1="668.65" y1="392.85" x2="747.54" y2="341.28" xlink:href="#_Áåçûìÿííûé_ãðàäèåíò_107"/>
  </defs>
  <g>
    <path class="cls-7" d="M698.04,445.96l-35.79-20.66c-2.72-1.57-2.38-4.31.76-6.13l34.27-19.78c3.14-1.81,7.89-2.01,10.61-.44l35.79,20.66c2.72,1.57,2.38,4.31-.76,6.13l-34.27,19.78c-3.14,1.81-7.89,2.01-10.61.44Z"/>
    <path class="cls-5" d="M750.07,401.31v-7.4h-19.09l-22.57-13.03c-3.01-1.74-8.27-1.52-11.75.49l-21.73,12.54h-19.1v7.82h.02c-.09,1.18.57,2.31,2.02,3.15l39.64,22.89c3.01,1.74,8.27,1.52,11.75-.49l37.95-21.91c2.01-1.16,2.97-2.66,2.86-4.06Z"/>
    <path class="cls-6" d="M750.07,401.31v-7.4h-19.09l-22.57-13.03c-3.01-1.74-8.27-1.52-11.75.49l-21.73,12.54h-19.1v7.82h.02c-.09,1.18.57,2.31,2.02,3.15l39.64,22.89c3.01,1.74,8.27,1.52,11.75-.49l37.95-21.91c2.01-1.16,2.97-2.66,2.86-4.06Z"/>
    <path class="cls-17" d="M708.41,380.88c-1.45-.84-3.42-1.22-5.46-1.17v49.21c2.21-.05,4.49-.61,6.3-1.65l37.95-21.91c2.01-1.16,2.97-2.66,2.86-4.06v-7.4h-19.09l-22.57-13.03Z"/>
    <path class="cls-5" d="M697.51,419.95l-39.64-22.89c-3.01-1.74-2.63-4.78.84-6.78l37.95-21.91c3.48-2.01,8.74-2.23,11.75-.49l39.64,22.89c3.01,1.74,2.63,4.78-.84,6.78l-37.95,21.91c-3.48,2.01-8.74,2.23-11.75.49Z"/>
    <path class="cls-3" d="M697.51,419.95l-39.64-22.89c-3.01-1.74-2.63-4.78.84-6.78l37.95-21.91c3.48-2.01,8.74-2.23,11.75-.49l39.64,22.89c3.01,1.74,2.63,4.78-.84,6.78l-37.95,21.91c-3.48,2.01-8.74,2.23-11.75.49Z"/>
    <path class="cls-8" d="M698.57,414.89l-31.94-18.44c-2.43-1.4-2.12-3.85.68-5.47l30.58-17.65c2.8-1.62,7.04-1.79,9.47-.39l31.94,18.44c2.43,1.4,2.12,3.85-.68,5.47l-30.58,17.65c-2.8,1.62-7.04,1.79-9.47.39Z"/>
    <path class="cls-2" d="M667.31,393.37l30.58-17.65c2.8-1.62,7.04-1.79,9.47-.39l31.94,18.44c.6.35,1.03.76,1.3,1.2.7-1.29.3-2.67-1.3-3.59l-31.94-18.44c-2.43-1.4-6.67-1.23-9.47.39l-30.58,17.65c-2.11,1.22-2.8,2.91-1.98,4.27.37-.67,1.02-1.32,1.98-1.87Z"/>
    <path class="cls-4" d="M698.84,419.95l-39.64-22.89c-3.01-1.74-3.73-4.29.84-6.78l37.95-21.91c1.71-.99,3.85-1.54,5.95-1.64-2.49-.11-5.2.44-7.28,1.64l-37.95,21.91c-3.48,2.01-3.86,5.05-.84,6.78l39.64,22.89c1.53.88,3.64,1.26,5.81,1.15-1.68-.08-3.26-.45-4.48-1.15Z"/>
    <path class="cls-15" d="M747.21,400.85l-37.95,21.91c-3.48,2.01-8.74,2.23-11.75.49l-39.64-22.89c-1.45-.84-2.1-1.97-2.02-3.15h-.02v1.62h.02c-.09,1.18.57,2.31,2.02,3.15l39.64,22.89c3.01,1.74,8.27,1.52,11.75-.49l37.95-21.91c2.01-1.16,2.97-2.66,2.86-4.06v-1.62c.11,1.4-.86,2.9-2.86,4.06Z"/>
    <g>
      <path class="cls-1" d="M740.33,398.7c.43.25.43.65,0,.9-.43.25-1.13.25-1.57,0-.43-.25-.43-.65,0-.9.43-.25,1.13-.25,1.57,0Z"/>
      <path class="cls-1" d="M742.77,397.29c.43.25.43.65,0,.9-.43.25-1.13.25-1.57,0-.43-.25-.43-.65,0-.9.43-.25,1.13-.25,1.57,0Z"/>
      <path class="cls-1" d="M745.21,395.88c.43.25.43.65,0,.9s-1.13.25-1.57,0c-.43-.25-.43-.65,0-.9.43-.25,1.13-.25,1.57,0Z"/>
    </g>
  </g>
  <g>
    <path class="cls-10" d="M699.51,410.42l-25.05-14.46c-1.9-1.1-1.66-3.02.53-4.29l23.99-13.85c2.2-1.27,5.52-1.41,7.43-.31l25.05,14.46c1.9,1.1,1.66,3.02-.53,4.29l-23.99,13.85c-2.2,1.27-5.52,1.41-7.43.31Z"/>
    <path class="cls-13" d="M750.07,393.91c.01-.14.01-.28,0-.42v-20.67l-32.84.15-8.82-5.09c-3.01-1.74-8.27-1.52-11.75.49l-8.2,4.73-32.63.15v20.67h.02c-.09,1.18.57,2.31,2.02,3.15l39.64,22.89c3.01,1.74,8.27,1.52,11.75-.49l37.95-21.91c1.81-1.04,2.77-2.36,2.86-3.64h0Z"/>
    <path class="cls-5" d="M750.07,372.82v-7.4h-19.09l-22.57-13.03c-3.01-1.74-8.27-1.52-11.75.49l-21.73,12.54h-19.1v7.82h.02c-.09,1.18.57,2.31,2.02,3.15l39.64,22.89c3.01,1.74,8.27,1.52,11.75-.49l37.95-21.91c2.01-1.16,2.97-2.66,2.86-4.06Z"/>
    <path class="cls-16" d="M750.07,372.82v-7.4h-19.09l-22.57-13.03c-3.01-1.74-8.27-1.52-11.75.49l-21.73,12.54h-19.1v7.82h.02c-.09,1.18.57,2.31,2.02,3.15l39.64,22.89c3.01,1.74,8.27,1.52,11.75-.49l37.95-21.91c2.01-1.16,2.97-2.66,2.86-4.06Z"/>
    <path class="cls-12" d="M708.41,352.39c-1.45-.84-3.42-1.22-5.46-1.17v49.21c2.21-.05,4.49-.61,6.3-1.65l37.95-21.91c2.01-1.16,2.97-2.66,2.86-4.06v-7.4h-19.09l-22.57-13.03Z"/>
    <path class="cls-5" d="M697.51,391.46l-39.64-22.89c-3.01-1.74-2.63-4.78.84-6.78l37.95-21.91c3.48-2.01,8.74-2.23,11.75-.49l39.64,22.89c3.01,1.74,2.63,4.78-.84,6.78l-37.95,21.91c-3.48,2.01-8.74,2.23-11.75.49Z"/>
    <path class="cls-11" d="M697.51,391.46l-39.64-22.89c-3.01-1.74-2.63-4.78.84-6.78l37.95-21.91c3.48-2.01,8.74-2.23,11.75-.49l39.64,22.89c3.01,1.74,2.63,4.78-.84,6.78l-37.95,21.91c-3.48,2.01-8.74,2.23-11.75.49Z"/>
    <path class="cls-8" d="M698.57,386.4l-31.94-18.44c-2.43-1.4-2.12-3.85.68-5.47l30.58-17.65c2.8-1.62,7.04-1.79,9.47-.39l31.94,18.44c2.43,1.4,2.12,3.85-.68,5.47l-30.58,17.65c-2.8,1.62-7.04,1.79-9.47.39Z"/>
    <path class="cls-2" d="M667.31,364.89l30.58-17.65c2.8-1.62,7.04-1.79,9.47-.39l31.94,18.44c.6.35,1.03.76,1.3,1.2.7-1.29.3-2.67-1.3-3.59l-31.94-18.44c-2.43-1.4-6.67-1.23-9.47.39l-30.58,17.65c-2.11,1.22-2.8,2.91-1.98,4.27.37-.67,1.02-1.32,1.98-1.87Z"/>
    <path class="cls-14" d="M698.84,391.46l-39.64-22.89c-3.01-1.74-3.73-4.29.84-6.78l37.95-21.91c1.71-.99,3.85-1.54,5.95-1.64-2.49-.11-5.2.44-7.28,1.64l-37.95,21.91c-3.48,2.01-3.86,5.05-.84,6.78l39.64,22.89c1.53.88,3.64,1.26,5.81,1.15-1.68-.08-3.26-.45-4.48-1.15Z"/>
    <path class="cls-9" d="M747.21,372.37l-37.95,21.91c-3.48,2.01-8.74,2.23-11.75.49l-39.64-22.89c-1.45-.84-2.1-1.97-2.02-3.15h-.02v1.62h.02c-.09,1.18.57,2.31,2.02,3.15l39.64,22.89c3.01,1.74,8.27,1.52,11.75-.49l37.95-21.91c2.01-1.16,2.97-2.66,2.86-4.06v-1.62c.11,1.4-.86,2.9-2.86,4.06Z"/>
    <g>
      <path class="cls-1" d="M740.33,370.21c.43.25.43.65,0,.9-.43.25-1.13.25-1.57,0-.43-.25-.43-.65,0-.9.43-.25,1.13-.25,1.57,0Z"/>
      <path class="cls-1" d="M742.77,368.8c.43.25.43.65,0,.9-.43.25-1.13.25-1.57,0-.43-.25-.43-.65,0-.9.43-.25,1.13-.25,1.57,0Z"/>
      <path class="cls-1" d="M745.21,367.39c.43.25.43.65,0,.9s-1.13.25-1.57,0c-.43-.25-.43-.65,0-.9.43-.25,1.13-.25,1.57,0Z"/>
    </g>
  </g>
  <g>
    <polygon class="cls-2" points="725.42 368.6 698.94 353.31 700.84 352.21 727.32 367.5 725.42 368.6"/>
    <polygon class="cls-2" points="721.35 370.95 694.87 355.66 696.77 354.56 723.25 369.85 721.35 370.95"/>
    <polygon class="cls-2" points="717.28 373.3 690.8 358.01 692.7 356.91 719.18 372.2 717.28 373.3"/>
    <polygon class="cls-2" points="713.22 375.65 686.74 360.36 688.64 359.26 715.12 374.55 713.22 375.65"/>
    <polygon class="cls-2" points="709.15 377.99 682.67 362.7 684.57 361.61 711.05 376.9 709.15 377.99"/>
    <polygon class="cls-2" points="705.08 380.34 678.6 365.05 680.5 363.96 706.98 379.24 705.08 380.34"/>
  </g>
</svg>