<?xml version="1.0" encoding="UTF-8"?>
<svg id="Layer_1" data-name="Layer 1" xmlns="http://www.w3.org/2000/svg" version="1.1" xmlns:xlink="http://www.w3.org/1999/xlink" viewBox="0 0 1080 1080">
  <defs>
    <style>
      .cls-1 {
        fill: url(#linear-gradient);
      }

      .cls-1, .cls-2, .cls-3 {
        stroke-width: 0px;
      }

      .cls-4 {
        isolation: isolate;
      }

      .cls-2 {
        fill: url(#linear-gradient-2);
      }

      .cls-3 {
        fill: #fff;
      }
    </style>
    <linearGradient id="linear-gradient" x1="636.45" y1="513.16" x2="644.19" y2="599.96" gradientUnits="userSpaceOnUse">
      <stop offset="0" stop-color="#fff"/>
      <stop offset=".22" stop-color="#fafcfd"/>
      <stop offset=".46" stop-color="#edf4f8"/>
      <stop offset=".71" stop-color="#d7e6f1"/>
      <stop offset=".96" stop-color="#b8d4e6"/>
      <stop offset="1" stop-color="#b4d1e5"/>
    </linearGradient>
    <linearGradient id="linear-gradient-2" x1="607.36" y1="550.03" x2="702.92" y2="550.81" gradientUnits="userSpaceOnUse">
      <stop offset="0" stop-color="#176fae"/>
      <stop offset=".19" stop-color="#1f74b3"/>
      <stop offset=".45" stop-color="#3481c1"/>
      <stop offset=".56" stop-color="#5293d4"/>
      <stop offset=".6" stop-color="#629ddf"/>
      <stop offset=".73" stop-color="#6aa2e0"/>
      <stop offset=".92" stop-color="#82b1e5"/>
      <stop offset="1" stop-color="#8eb8e8"/>
    </linearGradient>
  </defs>
  <g class="cls-4">
    <path class="cls-3" d="M595.56,524.42c-2.8,1.62-2.81,4.24-.02,5.86l61.99,36.03c2.78,1.62,7.31,1.62,10.11,0l14.67-8.47c2.8-1.62,2.82-4.25.03-5.86l-61.99-36.03c-2.78-1.62-7.32-1.62-10.12,0l-14.67,8.47Z"/>
    <path class="cls-1" d="M662.59,565.92c-1.61,0-3.16-.36-4.25-1l-61.99-36.03c-.81-.47-1.29-1.04-1.29-1.54,0-.5.49-1.08,1.3-1.55l14.68-8.47c1.1-.64,2.65-1,4.27-1s3.16.36,4.25,1l62,36.03c.8.47,1.28,1.04,1.28,1.53,0,.5-.49,1.08-1.31,1.56l-14.67,8.47c-1.1.63-2.65,1-4.25,1h0Z"/>
    <path class="cls-2" d="M684.43,554.89s0,0,0,0h0c0,.8-.39,1.6-1.19,2.3-.26.23-.57.45-.93.65l-14.67,8.47c-.38.22-.79.4-1.22.56-.14.05-.29.09-.44.13-.3.09-.6.18-.91.25-.13.03-.26.04-.39.07-.59.1-1.2.17-1.81.18-.07,0-.14.01-.22.01-.22,0-.44-.02-.66-.03-.23-.01-.47-.01-.7-.04-.22-.02-.43-.07-.64-.1-.23-.04-.45-.07-.67-.12-.29-.07-.57-.16-.85-.25-.14-.05-.29-.08-.43-.13-.41-.15-.8-.33-1.16-.54l-61.99-36.03c-.31-.18-.58-.38-.83-.59-.12-.1-.22-.22-.32-.32-.12-.12-.25-.25-.34-.38-.08-.11-.14-.23-.21-.35-.07-.13-.15-.25-.2-.38-.11-.29-.19-.59-.19-.89l.03,5.52c0,.3.07.6.19.89.01.03,0,.06.02.08.04.1.12.2.18.3.07.12.12.23.21.35.1.13.22.25.34.38.11.11.2.22.32.32.03.02.04.05.07.07.22.18.48.36.76.52l61.99,36.03c.36.21.75.39,1.16.54.14.05.29.09.43.13.28.09.56.18.85.25.02,0,.04.02.07.02.2.04.41.06.62.1.21.03.42.08.63.1.23.02.47.03.7.04.22.01.44.03.66.03.02,0,.05,0,.07,0,.05,0,.1-.01.15-.02.61-.01,1.22-.08,1.81-.18.08-.01.16,0,.23-.02.05-.01.1-.03.16-.04.31-.07.61-.16.91-.25.15-.05.3-.08.44-.13.43-.16.84-.34,1.22-.56l14.67-8.47c1.41-.81,2.11-1.88,2.11-2.95l-.03-5.52Z"/>
  </g>
</svg>