<?xml version="1.0" encoding="UTF-8"?>
<svg id="Layer_1" data-name="Layer 1" xmlns="http://www.w3.org/2000/svg" version="1.1" xmlns:xlink="http://www.w3.org/1999/xlink" viewBox="0 0 1080 1080">
  <defs>
    <style>
      .cls-1 {
        fill: #fffffe;
      }

      .cls-1, .cls-2, .cls-3 {
        stroke-width: 0px;
      }

      .cls-2 {
        fill: url(#linear-gradient);
      }

      .cls-4 {
        isolation: isolate;
      }

      .cls-3 {
        fill: url(#linear-gradient-2);
      }
    </style>
    <linearGradient id="linear-gradient" x1="608.4" y1="470.52" x2="920.46" y2="472.1" gradientUnits="userSpaceOnUse">
      <stop offset="0" stop-color="#176fae"/>
      <stop offset=".2" stop-color="#1f74b3"/>
      <stop offset=".49" stop-color="#3481c1"/>
      <stop offset=".52" stop-color="#5293d4"/>
      <stop offset=".53" stop-color="#629ddf"/>
      <stop offset=".68" stop-color="#6aa2e0"/>
      <stop offset=".91" stop-color="#82b1e5"/>
      <stop offset="1" stop-color="#8eb8e8"/>
    </linearGradient>
    <linearGradient id="linear-gradient-2" x1="741.05" y1="305.51" x2="785.93" y2="499.96" gradientUnits="userSpaceOnUse">
      <stop offset="0" stop-color="#fff"/>
      <stop offset=".2" stop-color="#f8fbfc"/>
      <stop offset=".48" stop-color="#e6f0f6"/>
      <stop offset=".8" stop-color="#c9deec"/>
      <stop offset="1" stop-color="#b4d1e5"/>
    </linearGradient>
  </defs>
  <g class="cls-4">
    <path class="cls-2" d="M921.72,432.89c.06-.33.1-.66.1-.99,0,0,0,0,0,0l.07-9.45c0,.33-.04.66-.1,1-.02.1-.05.21-.08.31-.06.23-.13.46-.22.69-.05.13-.11.26-.17.39-.06.13-.13.27-.2.4-.08.14-.17.29-.26.43-.08.13-.17.26-.27.39-.1.14-.22.28-.33.42-.11.13-.22.25-.33.37-.13.14-.27.27-.41.4-.13.12-.26.24-.4.36-.11.09-.22.18-.34.27-.46.36-.95.71-1.51,1.03l-137.56,79.94c-.79.46-1.66.86-2.56,1.2-.3.11-.64.19-.95.29-.62.2-1.24.41-1.89.56-.5.11-1.01.18-1.52.26-.47.08-.93.17-1.4.22-.52.06-1.05.06-1.57.09-.48.02-.96.07-1.44.06-.92,0-1.85-.06-2.76-.15-.22-.02-.43-.07-.65-.1-.74-.1-1.47-.21-2.18-.37-.16-.03-.31-.07-.46-.11-.83-.2-1.64-.44-2.41-.73-.12-.04-.23-.09-.34-.14-.8-.32-1.57-.67-2.29-1.08l-138.44-79.93c-1.96-1.13-3.31-2.48-4.04-3.92-.44-.86-.66-1.75-.66-2.64h0s0,0,0,0l-.07,9.45c0,2.37,1.56,4.74,4.7,6.55l138.44,79.93c.71.41,1.49.76,2.29,1.08.11.05.22.09.34.14.77.29,1.58.53,2.41.73.15.04.31.07.46.11.19.04.38.1.57.13.53.1,1.07.17,1.61.24.22.03.43.07.65.1.86.09,1.74.15,2.61.16.05,0,.1,0,.15,0,.48,0,.96-.04,1.44-.06.53-.03,1.05-.03,1.57-.09.48-.05.93-.15,1.4-.22.46-.07.93-.12,1.37-.22.05-.01.1-.03.15-.04.65-.15,1.27-.35,1.89-.56.31-.1.65-.17.95-.29.91-.34,1.77-.74,2.56-1.2l137.56-79.94c.56-.33,1.05-.67,1.51-1.03.05-.04.12-.08.17-.12.06-.05.11-.1.16-.15.14-.12.27-.24.4-.36.14-.13.28-.26.41-.4.12-.12.23-.25.33-.37.12-.14.23-.28.33-.42.09-.13.18-.26.27-.39.09-.14.18-.29.26-.43.07-.13.14-.26.2-.4.03-.07.08-.15.11-.22.02-.06.03-.12.05-.17.09-.23.16-.46.22-.69.03-.1.06-.21.08-.31Z"/>
    <path class="cls-1" d="M917.21,415.91c6.21,3.59,6.25,9.4.07,12.99l-137.56,79.94c-6.17,3.59-16.21,3.59-22.42,0l-138.44-79.93c-6.23-3.6-6.27-9.41-.09-13l137.56-79.94c6.17-3.59,16.2-3.59,22.44.01l138.44,79.93Z"/>
    <path class="cls-3" d="M768.53,509.93c-3.96,0-7.66-.88-10.42-2.48l-138.44-79.93c-2.51-1.45-3.89-3.28-3.9-5.14,0-1.85,1.35-3.65,3.81-5.08l137.56-79.94c2.74-1.59,6.43-2.47,10.38-2.47s7.67.88,10.45,2.49l138.44,79.93c2.5,1.44,3.88,3.27,3.88,5.13,0,1.85-1.35,3.65-3.81,5.08l-137.56,79.94c-2.75,1.6-6.44,2.47-10.39,2.47Z"/>
  </g>
</svg>