<?xml version="1.0" encoding="UTF-8"?>
<svg id="Layer_1" data-name="Layer 1" xmlns="http://www.w3.org/2000/svg" version="1.1" xmlns:xlink="http://www.w3.org/1999/xlink" viewBox="0 0 1080 1080">
  <defs>
    <style>
      .cls-1 {
        fill: #fccc6b;
      }

      .cls-1, .cls-2, .cls-3, .cls-4, .cls-5, .cls-6, .cls-7, .cls-8, .cls-9, .cls-10, .cls-11, .cls-12, .cls-13, .cls-14, .cls-15, .cls-16, .cls-17, .cls-18 {
        stroke-width: 0px;
      }

      .cls-2 {
        fill: #42e8e0;
      }

      .cls-3 {
        opacity: .6;
      }

      .cls-3, .cls-8, .cls-13, .cls-18 {
        fill: #5cfff3;
      }

      .cls-4 {
        fill: url(#_Áåçûìÿííûé_ãðàäèåíò_107-2);
      }

      .cls-4, .cls-5, .cls-7, .cls-9, .cls-10, .cls-11, .cls-13, .cls-14, .cls-15, .cls-16 {
        opacity: .5;
      }

      .cls-5 {
        fill: url(#_Áåçûìÿííûé_ãðàäèåíò_107-3);
      }

      .cls-6 {
        fill: #312a91;
      }

      .cls-7 {
        fill: url(#_Áåçûìÿííûé_ãðàäèåíò_107);
      }

      .cls-9 {
        fill: url(#_Áåçûìÿííûé_ãðàäèåíò_107-8);
      }

      .cls-10 {
        fill: #0b0244;
      }

      .cls-11 {
        fill: url(#_Áåçûìÿííûé_ãðàäèåíò_107-6);
      }

      .cls-12 {
        fill: url(#_Áåçûìÿííûé_ãðàäèåíò_59-2);
      }

      .cls-14 {
        fill: url(#_Áåçûìÿííûé_ãðàäèåíò_107-7);
      }

      .cls-15 {
        fill: url(#_Áåçûìÿííûé_ãðàäèåíò_107-4);
      }

      .cls-16 {
        fill: url(#_Áåçûìÿííûé_ãðàäèåíò_107-5);
      }

      .cls-17 {
        fill: url(#_Áåçûìÿííûé_ãðàäèåíò_59);
      }

      .cls-18 {
        opacity: .2;
      }
    </style>
    <linearGradient id="_Áåçûìÿííûé_ãðàäèåíò_107" data-name="Áåçûìÿííûé ãðàäèåíò 107" x1="700.07" y1="366.71" x2="794.32" y2="366.71" gradientUnits="userSpaceOnUse">
      <stop offset="0" stop-color="#42e8e0"/>
      <stop offset=".1" stop-color="#3cc9cd"/>
      <stop offset=".34" stop-color="#2f87a5"/>
      <stop offset=".56" stop-color="#255285"/>
      <stop offset=".75" stop-color="#1e2c6e"/>
      <stop offset=".91" stop-color="#191560"/>
      <stop offset="1" stop-color="#180d5b"/>
    </linearGradient>
    <linearGradient id="_Áåçûìÿííûé_ãðàäèåíò_59" data-name="Áåçûìÿííûé ãðàäèåíò 59" x1="768.03" y1="366.7" x2="815.15" y2="366.7" gradientUnits="userSpaceOnUse">
      <stop offset="0" stop-color="#2b237c"/>
      <stop offset="1" stop-color="#180d5b"/>
    </linearGradient>
    <linearGradient id="_Áåçûìÿííûé_ãðàäèåíò_107-2" data-name="Áåçûìÿííûé ãðàäèåíò 107" x1="720.9" y1="356.29" x2="815.16" y2="356.29" xlink:href="#_Áåçûìÿííûé_ãðàäèåíò_107"/>
    <linearGradient id="_Áåçûìÿííûé_ãðàäèåíò_107-3" data-name="Áåçûìÿííûé ãðàäèåíò 107" x1="720.9" y1="356.29" x2="769.01" y2="356.29" xlink:href="#_Áåçûìÿííûé_ãðàäèåíò_107"/>
    <linearGradient id="_Áåçûìÿííûé_ãðàäèåíò_107-4" data-name="Áåçûìÿííûé ãðàäèåíò 107" x1="733.72" y1="383.72" x2="812.61" y2="332.15" xlink:href="#_Áåçûìÿííûé_ãðàäèåíò_107"/>
    <linearGradient id="_Áåçûìÿííûé_ãðàäèåíò_107-5" data-name="Áåçûìÿííûé ãðàäèåíò 107" y1="338.22" y2="338.22" xlink:href="#_Áåçûìÿííûé_ãðàäèåíò_107"/>
    <linearGradient id="_Áåçûìÿííûé_ãðàäèåíò_59-2" data-name="Áåçûìÿííûé ãðàäèåíò 59" y1="338.21" y2="338.21" xlink:href="#_Áåçûìÿííûé_ãðàäèåíò_59"/>
    <linearGradient id="_Áåçûìÿííûé_ãðàäèåíò_107-6" data-name="Áåçûìÿííûé ãðàäèåíò 107" x1="720.9" y1="327.8" x2="815.16" y2="327.8" xlink:href="#_Áåçûìÿííûé_ãðàäèåíò_107"/>
    <linearGradient id="_Áåçûìÿííûé_ãðàäèåíò_107-7" data-name="Áåçûìÿííûé ãðàäèåíò 107" x1="720.9" y1="327.81" x2="769.01" y2="327.81" xlink:href="#_Áåçûìÿííûé_ãðàäèåíò_107"/>
    <linearGradient id="_Áåçûìÿííûé_ãðàäèåíò_107-8" data-name="Áåçûìÿííûé ãðàäèåíò 107" x1="733.72" y1="355.23" x2="812.61" y2="303.67" xlink:href="#_Áåçûìÿííûé_ãðàäèåíò_107"/>
  </defs>
  <g>
    <path class="cls-10" d="M763.11,408.34l-35.79-20.66c-2.72-1.57-2.38-4.31.76-6.13l34.27-19.78c3.14-1.81,7.89-2.01,10.61-.44l35.79,20.66c2.72,1.57,2.38,4.31-.76,6.13l-34.27,19.78c-3.14,1.81-7.89,2.01-10.61.44Z"/>
    <path class="cls-6" d="M815.14,363.69v-7.4h-19.09l-22.57-13.03c-3.01-1.74-8.27-1.52-11.75.49l-21.73,12.54h-19.1v7.82h.02c-.09,1.18.57,2.31,2.02,3.15l39.64,22.89c3.01,1.74,8.27,1.52,11.75-.49l37.95-21.91c2.01-1.16,2.97-2.66,2.86-4.06Z"/>
    <path class="cls-7" d="M815.14,363.69v-7.4h-19.09l-22.57-13.03c-3.01-1.74-8.27-1.52-11.75.49l-21.73,12.54h-19.1v7.82h.02c-.09,1.18.57,2.31,2.02,3.15l39.64,22.89c3.01,1.74,8.27,1.52,11.75-.49l37.95-21.91c2.01-1.16,2.97-2.66,2.86-4.06Z"/>
    <path class="cls-17" d="M773.48,343.26c-1.45-.84-3.42-1.22-5.46-1.17v49.21c2.21-.05,4.49-.61,6.3-1.65l37.95-21.91c2.01-1.16,2.97-2.66,2.86-4.06v-7.4h-19.09l-22.57-13.03Z"/>
    <path class="cls-6" d="M762.58,382.33l-39.64-22.89c-3.01-1.74-2.63-4.78.84-6.78l37.95-21.91c3.48-2.01,8.74-2.23,11.75-.49l39.64,22.89c3.01,1.74,2.63,4.78-.84,6.78l-37.95,21.91c-3.48,2.01-8.74,2.23-11.75.49Z"/>
    <path class="cls-4" d="M762.58,382.33l-39.64-22.89c-3.01-1.74-2.63-4.78.84-6.78l37.95-21.91c3.48-2.01,8.74-2.23,11.75-.49l39.64,22.89c3.01,1.74,2.63,4.78-.84,6.78l-37.95,21.91c-3.48,2.01-8.74,2.23-11.75.49Z"/>
    <path class="cls-8" d="M763.64,377.27l-31.94-18.44c-2.43-1.4-2.12-3.85.68-5.47l30.58-17.65c2.8-1.62,7.04-1.79,9.47-.39l31.94,18.44c2.43,1.4,2.12,3.85-.68,5.47l-30.58,17.65c-2.8,1.62-7.04,1.79-9.47.39Z"/>
    <path class="cls-2" d="M732.38,355.76l30.58-17.65c2.8-1.62,7.04-1.79,9.47-.39l31.94,18.44c.6.35,1.03.76,1.3,1.2.7-1.29.3-2.67-1.3-3.59l-31.94-18.44c-2.43-1.4-6.67-1.23-9.47.39l-30.58,17.65c-2.11,1.22-2.8,2.91-1.98,4.27.37-.67,1.02-1.32,1.98-1.87Z"/>
    <path class="cls-5" d="M763.91,382.33l-39.64-22.89c-3.01-1.74-3.73-4.29.84-6.78l37.95-21.91c1.71-.99,3.85-1.54,5.95-1.64-2.49-.11-5.2.44-7.28,1.64l-37.95,21.91c-3.48,2.01-3.86,5.05-.84,6.78l39.64,22.89c1.53.88,3.64,1.26,5.81,1.15-1.68-.08-3.26-.45-4.48-1.15Z"/>
    <path class="cls-15" d="M812.28,363.23l-37.95,21.91c-3.48,2.01-8.74,2.23-11.75.49l-39.64-22.89c-1.45-.84-2.1-1.97-2.02-3.15h-.02v1.62h.02c-.09,1.18.57,2.31,2.02,3.15l39.64,22.89c3.01,1.74,8.27,1.52,11.75-.49l37.95-21.91c2.01-1.16,2.97-2.66,2.86-4.06v-1.62c.11,1.4-.86,2.9-2.86,4.06Z"/>
    <g>
      <path class="cls-1" d="M805.4,361.08c.43.25.43.65,0,.9-.43.25-1.13.25-1.57,0-.43-.25-.43-.65,0-.9.43-.25,1.13-.25,1.57,0Z"/>
      <path class="cls-1" d="M807.84,359.67c.43.25.43.65,0,.9-.43.25-1.13.25-1.57,0-.43-.25-.43-.65,0-.9.43-.25,1.13-.25,1.57,0Z"/>
      <path class="cls-1" d="M810.28,358.26c.43.25.43.65,0,.9-.43.25-1.13.25-1.57,0-.43-.25-.43-.65,0-.9.43-.25,1.13-.25,1.57,0Z"/>
    </g>
  </g>
  <g>
    <path class="cls-10" d="M764.58,372.8l-25.05-14.46c-1.9-1.1-1.66-3.02.53-4.29l23.99-13.85c2.2-1.27,5.52-1.41,7.43-.31l25.05,14.46c1.9,1.1,1.66,3.02-.53,4.29l-23.99,13.85c-2.2,1.27-5.52,1.41-7.43.31Z"/>
    <path class="cls-13" d="M815.15,356.28c.01-.14.01-.28,0-.42v-20.67l-32.84.15-8.82-5.09c-3.01-1.74-8.27-1.52-11.75.49l-8.2,4.73-32.63.15v20.67h.02c-.09,1.18.57,2.31,2.02,3.15l39.64,22.89c3.01,1.74,8.27,1.52,11.75-.49l37.95-21.91c1.81-1.04,2.77-2.36,2.86-3.64h0Z"/>
    <path class="cls-6" d="M815.14,335.2v-7.4h-19.09l-22.57-13.03c-3.01-1.74-8.27-1.52-11.75.49l-21.73,12.54h-19.1v7.82h.02c-.09,1.18.57,2.31,2.02,3.15l39.64,22.89c3.01,1.74,8.27,1.52,11.75-.49l37.95-21.91c2.01-1.16,2.97-2.66,2.86-4.06Z"/>
    <path class="cls-16" d="M815.14,335.2v-7.4h-19.09l-22.57-13.03c-3.01-1.74-8.27-1.52-11.75.49l-21.73,12.54h-19.1v7.82h.02c-.09,1.18.57,2.31,2.02,3.15l39.64,22.89c3.01,1.74,8.27,1.52,11.75-.49l37.95-21.91c2.01-1.16,2.97-2.66,2.86-4.06Z"/>
    <path class="cls-12" d="M773.48,314.77c-1.45-.84-3.42-1.22-5.46-1.17v49.21c2.21-.05,4.49-.61,6.3-1.65l37.95-21.91c2.01-1.16,2.97-2.66,2.86-4.06v-7.4h-19.09l-22.57-13.03Z"/>
    <path class="cls-6" d="M762.58,353.84l-39.64-22.89c-3.01-1.74-2.63-4.78.84-6.78l37.95-21.91c3.48-2.01,8.74-2.23,11.75-.49l39.64,22.89c3.01,1.74,2.63,4.78-.84,6.78l-37.95,21.91c-3.48,2.01-8.74,2.23-11.75.49Z"/>
    <path class="cls-11" d="M762.58,353.84l-39.64-22.89c-3.01-1.74-2.63-4.78.84-6.78l37.95-21.91c3.48-2.01,8.74-2.23,11.75-.49l39.64,22.89c3.01,1.74,2.63,4.78-.84,6.78l-37.95,21.91c-3.48,2.01-8.74,2.23-11.75.49Z"/>
    <path class="cls-14" d="M763.91,353.84l-39.64-22.89c-3.01-1.74-3.73-4.29.84-6.78l37.95-21.91c1.71-.99,3.85-1.54,5.95-1.64-2.49-.11-5.2.44-7.28,1.64l-37.95,21.91c-3.48,2.01-3.86,5.05-.84,6.78l39.64,22.89c1.53.88,3.64,1.26,5.81,1.15-1.68-.08-3.26-.45-4.48-1.15Z"/>
    <path class="cls-9" d="M812.28,334.75l-37.95,21.91c-3.48,2.01-8.74,2.23-11.75.49l-39.64-22.89c-1.45-.84-2.1-1.97-2.02-3.15h-.02v1.62h.02c-.09,1.18.57,2.31,2.02,3.15l39.64,22.89c3.01,1.74,8.27,1.52,11.75-.49l37.95-21.91c2.01-1.16,2.97-2.66,2.86-4.06v-1.62c.11,1.4-.86,2.9-2.86,4.06Z"/>
  </g>
  <path class="cls-10" d="M767.77,348.34c-1.49,0-2.92-.3-3.99-.92l-29.31-16.92c-1.11-.64-1.72-1.54-1.72-2.55,0-1.18.85-2.35,2.34-3.21l28.06-16.2c2.69-1.55,6.77-1.71,9.12-.36l29.31,16.92c1.11.64,1.72,1.54,1.72,2.55,0,1.18-.85,2.35-2.34,3.21l-28.06,16.2c-1.46.84-3.34,1.28-5.13,1.28ZM764.21,346.69c2.11,1.21,5.81,1.05,8.26-.36l28.06-16.2c1.22-.7,1.91-1.6,1.91-2.47,0-.69-.46-1.33-1.29-1.81l-29.31-16.92c-2.11-1.21-5.81-1.05-8.26.36l-28.06,16.2c-1.22.7-1.91,1.6-1.91,2.47,0,.69.46,1.33,1.29,1.81l29.31,16.92Z"/>
  <g>
    <path class="cls-18" d="M764.88,329.62c.82.48.82,1.25,0,1.72-.82.48-2.16.48-2.98,0-.82-.48-.82-1.25,0-1.72s2.16-.48,2.98,0Z"/>
    <path class="cls-3" d="M769.52,326.94c.82.48.82,1.25,0,1.72-.82.48-2.16.48-2.98,0-.82-.48-.82-1.25,0-1.72.82-.48,2.16-.48,2.98,0Z"/>
    <path class="cls-8" d="M774.16,324.26c.82.48.82,1.25,0,1.72s-2.16.48-2.98,0c-.82-.48-.82-1.25,0-1.72.82-.48,2.16-.48,2.98,0Z"/>
  </g>
</svg>