<?xml version="1.0" encoding="UTF-8"?>
<svg xmlns="http://www.w3.org/2000/svg" version="1.1" xmlns:xlink="http://www.w3.org/1999/xlink" viewBox="0 0 1080 1080">
  <defs>
    <style>
      .cls-1 {
        fill: #e3e5ef;
      }

      .cls-1, .cls-2, .cls-3, .cls-4, .cls-5, .cls-6, .cls-7, .cls-8, .cls-9, .cls-10, .cls-11, .cls-12, .cls-13, .cls-14, .cls-15, .cls-16, .cls-17, .cls-18, .cls-19, .cls-20, .cls-21, .cls-22, .cls-23, .cls-24, .cls-25, .cls-26, .cls-27, .cls-28, .cls-29, .cls-30, .cls-31, .cls-32, .cls-33, .cls-34, .cls-35, .cls-36, .cls-37, .cls-38, .cls-39, .cls-40, .cls-41, .cls-42, .cls-43, .cls-44, .cls-45 {
        stroke-width: 0px;
      }

      .cls-1, .cls-13, .cls-19, .cls-24, .cls-29, .cls-38, .cls-43 {
        mix-blend-mode: multiply;
      }

      .cls-2 {
        fill: url(#_Áåçûìÿííûé_ãðàäèåíò_9);
      }

      .cls-3 {
        fill: #8c92b0;
      }

      .cls-4 {
        fill: #606a6b;
      }

      .cls-5 {
        fill: #f7fbff;
      }

      .cls-46 {
        isolation: isolate;
      }

      .cls-6 {
        fill: #8e8e8e;
      }

      .cls-7 {
        fill: url(#_Áåçûìÿííûé_ãðàäèåíò_39);
      }

      .cls-8 {
        fill: #fb7f9e;
      }

      .cls-9 {
        fill: #773952;
      }

      .cls-10 {
        fill: #dea2b4;
      }

      .cls-11 {
        fill: url(#_Áåçûìÿííûé_ãðàäèåíò_39-2);
      }

      .cls-12 {
        fill: #485455;
      }

      .cls-13 {
        fill: #ced8e6;
      }

      .cls-14 {
        fill: #6a7273;
      }

      .cls-15 {
        fill: #754554;
      }

      .cls-16 {
        fill: #fc9ab2;
      }

      .cls-17 {
        fill: #3f4a4b;
      }

      .cls-18 {
        fill: #24221c;
      }

      .cls-19 {
        fill: #f2d8d8;
      }

      .cls-47 {
        mix-blend-mode: screen;
      }

      .cls-20 {
        fill: #4f5887;
      }

      .cls-21 {
        fill: #e6f1ff;
      }

      .cls-22 {
        fill: #201616;
      }

      .cls-23 {
        fill: url(#_Áåçûìÿííûé_ãðàäèåíò_43);
      }

      .cls-24 {
        fill: #9c8fb5;
        opacity: .38;
      }

      .cls-25 {
        fill: #c2d2ea;
      }

      .cls-26, .cls-43 {
        fill: #dde8f6;
      }

      .cls-27 {
        fill: #342600;
      }

      .cls-28 {
        fill: url(#_Áåçûìÿííûé_ãðàäèåíò_43-2);
      }

      .cls-29 {
        fill: #ccd1dc;
      }

      .cls-30 {
        fill: #ff8b9a;
      }

      .cls-31 {
        fill: #f8fbff;
      }

      .cls-32 {
        fill: #ccdefb;
      }

      .cls-33 {
        fill: #a76478;
      }

      .cls-34 {
        fill: #7c78f0;
      }

      .cls-35 {
        fill: #6865c9;
      }

      .cls-36 {
        fill: #fff;
      }

      .cls-37 {
        fill: #fa9698;
      }

      .cls-38 {
        fill: #a8b0c2;
      }

      .cls-39 {
        fill: #ffe4ea;
      }

      .cls-40 {
        fill: #fec7c6;
      }

      .cls-41 {
        fill: #504f60;
      }

      .cls-42 {
        fill: #ff6d67;
      }

      .cls-44 {
        fill: #676f97;
      }

      .cls-45 {
        fill: #5c8bff;
      }
    </style>
    <linearGradient id="_Áåçûìÿííûé_ãðàäèåíò_43" data-name="Áåçûìÿííûé ãðàäèåíò 43" x1="1461.87" y1="778.74" x2="1466.43" y2="776.68" gradientTransform="translate(2066.32 36.9) rotate(-169.54) scale(1 -1)" gradientUnits="userSpaceOnUse">
      <stop offset=".12" stop-color="#feb9b8"/>
      <stop offset="1" stop-color="#ffdede"/>
    </linearGradient>
    <linearGradient id="_Áåçûìÿííûé_ãðàäèåíò_39" data-name="Áåçûìÿííûé ãðàäèåíò 39" x1="2813.13" y1="539.22" x2="2812.72" y2="534.33" gradientTransform="translate(3308.37) rotate(-180) scale(1 -1)" gradientUnits="userSpaceOnUse">
      <stop offset=".12" stop-color="#fb7f9e"/>
      <stop offset="1" stop-color="#fca4b5"/>
    </linearGradient>
    <linearGradient id="_Áåçûìÿííûé_ãðàäèåíò_39-2" data-name="Áåçûìÿííûé ãðàäèåíò 39" x1="1482.45" y1="555.5" x2="1481.99" y2="549.98" gradientTransform="translate(-944.84)" xlink:href="#_Áåçûìÿííûé_ãðàäèåíò_39"/>
    <linearGradient id="_Áåçûìÿííûé_ãðàäèåíò_43-2" data-name="Áåçûìÿííûé ãðàäèåíò 43" x1="546.57" y1="553.74" x2="551.67" y2="551.44" gradientTransform="matrix(1,0,0,1,0,0)" xlink:href="#_Áåçûìÿííûé_ãðàäèåíò_43"/>
    <linearGradient id="_Áåçûìÿííûé_ãðàäèåíò_9" data-name="Áåçûìÿííûé ãðàäèåíò 9" x1="-1660.13" y1="531.73" x2="-1660.13" y2="536.27" gradientTransform="translate(2097.38 -136.45) rotate(-6.08)" gradientUnits="userSpaceOnUse">
      <stop offset="0" stop-color="#ffdede"/>
      <stop offset=".88" stop-color="#feb9b8"/>
    </linearGradient>
  </defs>
  <g class="cls-46">
    <g id="Layer_1" data-name="Layer 1">
      <g>
        <g>
          <g>
            <g>
              <path class="cls-24" d="M503.93,641.07c-6.77,3.91-17.79,3.89-24.6-.04-6.81-3.93-6.85-10.29-.08-14.2s17.79-3.89,24.6.04,6.85,10.29.08,14.2Z"/>
              <path class="cls-9" d="M486.42,629.23l.48,3.91s-5.3-1.48-5.4-2.57c-.09-1.1.11-3.56.11-3.56l4.81,2.22Z"/>
              <path class="cls-9" d="M496.47,625.25l.55,3.91s-6.09-1.48-6.2-2.57.13-3.56.13-3.56l5.52,2.22Z"/>
              <path class="cls-12" d="M487.46,631.23s-.34-.78-1.14-.81c-.8-.04-1.66.32-1.8.66-.14.34-.13.83-.13.83,0,0-2.14-.61-2.3-1.09-.16-.48,0-1.68,0-1.68,0,0-.82-.02-.95.76s-.08,3.77-.09,4.3,2.3,2.89,2.53,3.81c.23.92,1.9,3.78,4.7,4.06,2.79.28,2.37-2.58,2.38-3.04,0-.46-2.65-5.07-2.68-5.58-.03-.51-.51-2.12-.53-2.23Z"/>
              <path class="cls-41" d="M488.3,641.54c-2.79-.28-4.47-3.47-4.7-4.39-.23-.92-2.54-3.28-2.53-3.81,0-.19,0-.65,0-1.18,0,.68,0,1.82,0,2.05,0,.53,2.3,2.89,2.53,3.81.23.92,1.9,3.78,4.7,4.06,2.31.23,2.42-1.74,2.4-2.62-.03.93-.37,2.28-2.4,2.08Z"/>
              <g>
                <path class="cls-12" d="M497.47,542.77s.47,9.79,1.46,17.72c.65,5.07,1.5,9.37,2.58,9.89.08.05.18.07.28.05.95-.14,1.7-.75,2.26-1.53,1.2-1.65,1.62-4.04,1.54-4.48h0c-.13-.79-2.04-16.94-3.09-19.01-1.05-2.07-5.03-2.65-5.03-2.65Z"/>
                <path class="cls-39" d="M502.86,570.04c2.06.81,12.43,3.24,12.97,3.32.54.08,1.52.86,1.86,1.1.16.11.79.37,1.47.63.77.29,1.6.6,1.89.71.1.04.21.06.31.08t0,0c.23.03.46.01.66-.02.2-.04.37-.09.47-.11.24-.07.98-.79.98-.79,0,0,.08,0,.21,0,.48,0,1.69-.01,2.23-.13.46-.11.51-.39.49-.57,0-.08-.03-.14-.03-.14,0,0,.02,0,.07,0h0c.08,0,.22,0,.37-.03.26-.03.56-.13.62-.34.06-.19-.03-.35-.14-.47,0,0-.01-.01-.01-.01-.12-.12-.26-.19-.26-.19,0,0,.12-.03.29-.29.08-.12.11-.21.1-.29,0-.1-.08-.19-.21-.31-.24-.22-3.34-.58-3.34-.58,0,0-1.3-.19-1.54-.29-.24-.1-1.39-.59-1.39-.59,0,0-.1-.27.23-.32.33-.05,1.52.63,2.42.55.89-.08,1.34-.62,1.12-1.07-.22-.45-1.47-.33-2.1-.37-.62-.04-1.5-.31-1.5-.31,0,0-1.85.17-2.19.23-.34.06-1.45.65-2.53.9-1.09.25-10.42-5.41-11.13-5.36-.71.05-1.82,1.42-1.82,1.42,0,0-.81.86-1.18,1.77-.3.73-.32,1.5.6,1.86Z"/>
                <path class="cls-37" d="M525.91,573.11s.94.05,1.13.05c.07,0,.16.05.24.11-.12-.12-.26-.19-.26-.19,0,0,.12-.03.29-.29.08-.12.11-.21.1-.29-.07.19-.29.26-.4.37-.15.15-.97.05-.97.05l-2.92-.26.03.1,2.76.35Z"/>
                <path class="cls-37" d="M526.45,574.12h0c.08,0,.22,0,.37-.03-.11-.05-.18-.17-.21-.24-.07-.11-.48-.22-.48-.22l-2.27.2-1.76-.09,1.75.22s1.82-.24,2.12-.24c.29,0,.47.36.49.4Z"/>
                <path class="cls-37" d="M525.65,577.42c-.28,0-.55,0-.79.03.27.04.55.01.79-.03Z"/>
                <path class="cls-37" d="M521.84,574.55l-.81-.08.8.25,1.16-.62s.55.24.66.53c.03.07.04.19.04.33.48,0,1.69-.01,2.23-.13.46-.11.51-.39.49-.57-.04.09-.15.2-.41.3-.48.2-2.08.33-2.08.33l-.24-.47-.6-.39-.72.28-.52.25Z"/>
                <path class="cls-37" d="M502.86,570.04c2.06.81,12.43,3.24,12.97,3.32.54.08,1.52.86,1.86,1.1.16.11.79.37,1.47.63-.69-.35-1.26-.69-1.26-.69l-1.73-1.23s-12.04-2.72-12.6-3.43c-.17-.21-.68-.82-1.32-1.57-.3.73-.32,1.5.6,1.86Z"/>
                <path class="cls-12" d="M501.51,570.38s.01.03.01.03c0,0,12.59,3.33,13.44,3.36.32.01.57-.03.76-.09.34-.08.5-.22.5-.22l-.43-.09s-.11-.03-.21-.05l-.14-.03s-.01-.01-.03-.04c-.09-.14-.42-.83-.01-1.88.46-1.2.99-1,.99-1l-.29-.36-10.51-5.58c-.9.33-1.62.7-2.19,1.09-2.86,2-1.99,4.59-1.9,4.87Z"/>
                <path class="cls-38" d="M498.93,560.49c.65,5.07,1.5,9.37,2.58,9.89.01.01.01.03.01.03,0,0,12.59,3.33,13.44,3.36.32.01.57-.03.76-.09.04-.09.07-.2.09-.3,0,0-.01,0-.03-.01-.04,0-.11-.03-.21-.05-.05-.03-.11-.04-.17-.07-1.84-.54-9.47-2.82-10.72-3.15-.24-.07-.46-.5-.65-1.18-.25-.84-.46-2.04-.65-3.4-.58-4.13-.86-9.58-.86-9.58,0,0-2.17,1.84-3.62,4.57Z"/>
              </g>
              <polygon class="cls-12" points="501.36 587.34 500.44 608.43 500.43 608.76 500.4 608.91 497.57 626.35 490.26 625.33 492.29 607.78 492.25 608.25 492.25 587.15 501.36 587.34"/>
              <path class="cls-12" d="M500.11,578.08s2.46,2.47,1.13,15.79c-.09.86-1.29,9.59-1.29,9.59,0,0-7.93-10.05-8.59-10.6-.76-.62-3.19-14.8.86-15.99,4.05-1.19,7.89,1.22,7.89,1.22Z"/>
              <polygon class="cls-12" points="491.98 585.92 491.12 608.6 491.1 609.1 491.09 609.16 487.86 629.3 481.06 628.52 482.45 608.17 482.42 608.73 480.93 586.08 491.98 585.92"/>
              <path class="cls-12" d="M482.49,608.34l-.74,5.92-.69,14.25s.83,1.75,3.66,2.14c2.83.38,3.12-1.23,3.12-1.23l-5.35-21.08Z"/>
              <path class="cls-4" d="M482.5,629.83h-.31c0-.09.34-7.12.6-11.06.26-3.94.82-9.87.83-9.93,0-.09-.27-11.08-.47-12.74-.21-1.67-1.31-13.92-1.32-14.05l.3-.03c.01.12,1.11,12.37,1.32,14.04.21,1.68.46,12.34.48,12.79,0,.08-.57,6-.83,9.94-.26,3.94-.59,10.97-.6,11.04Z"/>
              <path class="cls-12" d="M480.68,577.84s-.28,10.53,2.62,14.25c2.9,3.72,7.28,2.6,9.24.24,1.95-2.36,4.5-1.03,2.25-14.2-1.05-6.12-14.11-.3-14.11-.3Z"/>
              <path class="cls-38" d="M490.35,584.58s.8,4.51-1.56,5.19c-2.35.68-6.02.95-6.02.95,0,0,.17,9.44.26,10.44.09.99.3,9.12.3,9.12l-1.76,19.02-.51-.78.69-14.25.74-5.92-1.25-20.15,9.1-3.62Z"/>
              <path class="cls-3" d="M483.61,588.58c-.1,0-.2,0-.3-.02l.03-.31c.09,0,.18.01.26.01,2.13,0,3.65-2.71,3.67-2.74l.27.15c-.07.12-1.63,2.9-3.93,2.9Z"/>
              <path class="cls-4" d="M494.09,589.02c-.09,0-.18-.03-.25-.08-.13-.09-.27-.29-.22-.73.21-1.91.04-4.93-.06-5.18l.11-.05v-.03s-.06-.14-.06-.14h.17c.26.19.32,3.85.15,5.43-.02.23,0,.39.09.45.06.04.14.03.25-.03.36-.18.91-.89.95-2.1.02-.71-.02-3.4-.05-3.68l.3-.04c.04.33.08,3.05.06,3.73-.04,1.26-.61,2.11-1.12,2.37-.11.05-.21.08-.31.08Z"/>
              <g>
                <path class="cls-17" d="M478.51,570.59c0,1.47-.3,8.41-.22,12.88.03,1.91.12,3.36.34,3.74.07.13.24.29.49.46,0,.01.01.01.01.01.07.04.14.09.22.14,1.01.63,2.96,1.45,5.48,1.9.5.09.97,0,1.42-.24,1.74-.92,3.21-3.98,5.48-6.83,1.99-2.53,4.59-4.9,8.5-5.5,0,0,1.03-7.52,2.34-15.63,1.33-8.1-.47-17.37-3.96-18.51-1.96-.65-7.61-.8-12.34.97-3.63,1.38-6.46,3.98-8.48,5.65-1.45,1.2-1.92,3.5-1.87,6.15.07,5.82,2.58,13.36,2.58,14.81Z"/>
                <path class="cls-26" d="M490.18,542.95h2.98s2.67,2.69,3.99,10.28c1.1,6.3.72,22.63.22,28.32-2.18,1.03-4.33,1.59-6.36,1.83-.11-2.32-.16-17.65-1.14-28.97-.35-4.06-5.33-8.97-5.23-9.69.53-.27,1.08-.51,1.65-.73,1.26-.48,2.59-.81,3.89-1.04Z"/>
                <rect class="cls-45" x="489.48" y="556.59" width=".71" height="2.61" transform="translate(1018.09 1079.56) rotate(175.92)"/>
                <rect class="cls-30" x="488.67" y="556.92" width=".71" height="2.61" transform="translate(1016.59 1080.18) rotate(175.91)"/>
                <polygon class="cls-21" points="491.17 557.7 491.5 563.44 489.29 565.09 486.34 564.54 486.08 558.9 491.17 557.7"/>
                <path class="cls-5" d="M495.17,582.82l-1.21-.19c.03-.16,2.51-16.41-2.33-35.83l1.19-.3c4.9,19.68,2.37,36.15,2.35,36.32Z"/>
                <path class="cls-12" d="M488.42,584.21c1.66.06,3.49-.03,5.51-.27,3.81-.45,5.61-2.12,6.39-3.4l.1-1.48s-2.14,3.13-6.68,3.66c-5.7.67-9.86.11-12.72-1.71l-.63,1.03c2.1,1.34,4.71,2.06,8.02,2.17Z"/>
              </g>
              <path class="cls-33" d="M488.42,584.65c1.66.06,3.49-.29,5.51-.53,3.81-.45,6.04-2.37,6.98-3.53-.08-1.49-.54-1.38-.54-1.38-.02.03-2.1,3.15-6.63,3.69-5.7.67-9.86.37-12.72-1.46l-.63,1.03c2.1,1.34,4.71,2.06,8.02,2.17Z"/>
              <path class="cls-44" d="M490.6,585.61c.29-.8.04-2.51.01-2.7l-.67.1c.07.48.22,1.83.02,2.36l.63.23Z"/>
              <path class="cls-43" d="M484.63,583.53c-1.1-.53-3.84-.67-3.86-1.71-.09-4.2.17-15.18-2.84-23.12-.17-.46-.33-.89-.47-1.3l5.53-3.32s-.4,9.09-1.01,14.1c-.45,3.68,2.11,10.81,2.65,15.35Z"/>
              <path class="cls-17" d="M489.82,553.77c1.68,3.92,3.35,32.88.6,34.65-2.18,1.41-9.54,1.89-9.74-1.23-.21-3.13-1.92-31.07-1.92-31.07,0,0,10.49-3.7,11.07-2.34Z"/>
              <path class="cls-38" d="M478.51,570.59c0,1.47-.3,8.41-.22,12.88.03,1.91.12,3.36.34,3.74.07.13.24.29.49.46,0-.37-.01-.75-.07-1.13-.2-4.17.18-8.06.18-8.06l.92.59.24.14s5.27,1.67,8.62,1.43c1.08-.08,2.05-.37,2.83-.75,1.65-.84,2.36-2.16,1.15-3-.26-.18-.66-.43-1.13-.72-2.79-1.71-8.54-4.96-8.54-4.96l.22-12.98c-1.42-1.28-2.73-2.03-3.9-2.42-1.43-.47-2.67-.39-3.71-.03.07,5.82,2.58,13.36,2.58,14.81Z"/>
              <path class="cls-14" d="M485.2,543.29s-2.61,1.43-1.32,4.67c1.29,3.24,4.61,9.52,4.61,9.52l-1.16,1.39s3.1,13.84,3.56,16c.45,2.16.75,9.05.75,9.05,0,0,.84-11.46.25-17.8-.59-6.34-1.48-11.82-2.41-14.57-.93-2.75-3.79-5.43-3.79-5.43l-.49-2.83Z"/>
              <path class="cls-44" d="M499.44,583.33c.29-.8.04-2.51.01-2.7l-.67.1c.07.48.22,1.83.02,2.36l.63.23Z"/>
              <path class="cls-12" d="M483.65,553.35c-.2,2.14-2,3.73-4.02,3.54-2.02-.19-3.51-2.07-3.31-4.21.2-2.14,2-3.73,4.02-3.54,2.02.19,3.51,2.07,3.31,4.21Z"/>
              <path class="cls-12" d="M497.02,625.84l2.6,2.29s4.8,2.78,4.95,3.15.37,1.49.21,1.7c-.16.21-1.81,1.34-4.21.48-2.4-.86-3.27-1.67-4.87-2.06-1.6-.38-4.75-1.01-5.17-1.88-.42-.87.03-3.29.03-3.29,0,0,.5-.2.7.16.2.36,1.14,1.37,2.22,1.71,1.08.34,2.4.08,2.4.08,0,0-.15-1.01-.04-1.35.11-.34,1.19-.98,1.19-.98Z"/>
              <path class="cls-41" d="M504.77,632.98c-.16.21-1.81,1.34-4.21.48-2.4-.86-3.27-1.67-4.87-2.06-1.6-.38-4.75-1.01-5.17-1.88-.12-.24-.16-.61-.17-1.01-.02.55.02,1.61.17,1.93.42.87,3.56.98,5.17,1.37,1.6.38,2.47,1.71,4.87,2.57,2.4.86,4.06-.27,4.21-.48.06-.08.06-.8.04-1.04,0,.05-.02.09-.04.12Z"/>
              <path class="cls-12" d="M493.97,602.68l-1.36,8.7-2.37,14.04s.72.92,3.47,1.7c3.35.95,3.9-.85,3.9-.85l-3.63-23.59Z"/>
              <path class="cls-32" d="M492.93,584.98c-.21-.17-.33-.43-.32-.72v-.58c.02-.61.53-1.21,1.17-1.37l1.51-.38c.35-.09.69-.03.93.16.21.17.33.43.32.72v.58c-.02.61-.53,1.21-1.17,1.37l-1.51.38c-.1.02-.19.04-.28.04-.24,0-.47-.06-.64-.2ZM495.39,582.56l-1.51.38c-.33.08-.63.41-.63.69v.58c0,.1.02.17.09.23.09.07.24.09.4.05l1.51-.38c.33-.08.63-.41.63-.69v-.58c0-.1-.02-.17-.09-.23-.06-.05-.15-.08-.25-.07-.05,0-.1,0-.15.02Z"/>
            </g>
            <path class="cls-38" d="M501.59,584.92s.02.87-.18,1.08c-.57.64-2.38,1.49-3.64,1.54-1.67.07-1.58-5.46-1.58-5.46,0,0,.36-19.71.12-24.38-.24-4.67-1.41-8.93-1.41-8.93l-2.3-1.53-1.11,3.06-4.59-3.09,1.56-.12,5.09-.61,2.75.61,1.54,20.42-.2,14.78,1.91,1.96s2.21-.85,2.01.66Z"/>
            <path class="cls-17" d="M497.37,581.55c.14-1.63.28-4.15.37-7.04.17-2.06.3-4.21.28-6.29-.01-1.35-.08-2.77-.18-4.22-.06-4.3-.26-8.31-.69-10.77-.43-2.47-1.01-4.41-1.58-5.92-.11-.58-.18-.91-.18-.91l-.94-1.54c-.19-.34-.36-.63-.52-.87h4.85s3.77,5.12,4.23,11.33l-.31,27.49s-.49,2.86-3.91,3.57c-1.65.34-1.87-1.27-1.66-4.72.08-.04.16-.07.24-.11Z"/>
            <path class="cls-14" d="M492.32,542.3s1.45-.48,3.83,1.68c2.37,2.16,2.32,9.69,2.32,9.69,0,0,1.79.69,1.85.95.06.26-2.17,26.52-2.96,28.1-1.6,3.18.62-14.49-.84-27.68-1.3-11.71-4.2-12.74-4.2-12.74Z"/>
            <g>
              <path class="cls-39" d="M485.7,537.81c.77,2.57.79,3.31.78,6.47,0,1.95,1.52,2.88,3.12,3.12.99.15,2.01.03,2.71-.26,1.84-.78,1.12-2.21.96-3-.07-.35.02-1.18.16-2.01.16-1.05.38-2.08.38-2.08l-4.51-5.08s-4.38.27-3.61,2.84Z"/>
              <path class="cls-40" d="M486.07,538.57s.63,3,2.65,4.32c2.01,1.32,3.39,1.83,3.39,1.83,0,0,.53.74.29,1.58-.2.67-1.2,1.22-2.79,1.1.99.15,2.01.03,2.71-.26,1.84-.78,1.12-2.21.96-3-.07-.35.02-1.18.16-2.01l-1.49-1.23-3.68-2.69-2.19.38Z"/>
              <path class="cls-35" d="M493.61,548.93s1.75,11.04,2.48,28.28l-1.02,2.61-1.51-1.72c.04-21.23-1.15-28.66-1.15-28.66l1.2-.52Z"/>
              <polygon class="cls-34" points="492.23 546.64 493.96 548.33 493.18 550.01 491.57 549.19 491.57 548.65 492.23 546.64"/>
              <g>
                <path class="cls-21" d="M486.48,541.59l.11,1.36s1.29,3.59,5.64,3.7c.06.68-.11,2.59-.81,3.13-2.73-1.17-6.13-3.26-6.7-5.14-.07-.22.69-2.75.69-2.75l1-.82.07.53Z"/>
                <path class="cls-21" d="M493.2,543.22s.21.79.15,1.22c-.07.43-.27,1.62-1.12,2.2.78,1.08,2.15,1.62,2.69,1.58-.37-1.63-.48-3.16-.62-4.43-.13-1.27-1.39-1.51-1.1-.58Z"/>
                <path class="cls-39" d="M491.33,524.41s4.43,1.13,5.45,4.59c1.02,3.47.83,3.61.7,4.98-.13,1.37.54,3.54-.07,5.74-.62,2.21-1.53,3.84-2.56,4.14-.81.23-4.68.41-7.18-1.93-.67-.63-1.12-2.36-1.53-3.22-1.94-4.03-3.77-7.73-2.01-11.32,1.23-2.52,4.97-3.64,7.2-2.99Z"/>
                <path class="cls-36" d="M497.13,535.45c-.02.43-.18.76-.36.76-.18,0-.31-.36-.3-.78.02-.43.18-.76.36-.76s.31.36.3.78Z"/>
                <path class="cls-39" d="M496.28,537.48c.21.15.59-.06.85-.47.26-.41.3-.86.09-1.01-.21-.15-.59.06-.85.47-.26.41-.3.86-.09,1.01Z"/>
                <path class="cls-39" d="M496.57,537.43c.22.16.56.02.76-.31.2-.32.18-.71-.03-.87-.22-.16-.56-.02-.76.31-.2.32-.18.71.03.87Z"/>
                <path class="cls-36" d="M492.6,536.78c0,.28.03.9.03.9,0,0,.29-.16.48-.15.3.01.55.1.47-.8-.03-.39-.21-.72-.51-.74-.3-.01-.49.39-.48.79Z"/>
                <path class="cls-39" d="M492.32,537.84s.56.57,1.04.51c.48-.06.86-.31.84-.57-.02-.26-.42-.42-.91-.36s-.97.42-.97.42Z"/>
                <path class="cls-15" d="M493.66,534.49c-.75.16-1.46.46-2.14.81-.29.15-.03.59.26.44.64-.32,1.31-.61,2.02-.75.32-.07.18-.56-.13-.49h0Z"/>
                <path class="cls-15" d="M496.32,534.12c.27-.22.77-.75,1.12-.79.32-.04.32-.55,0-.51-.55.07-1.06.6-1.48.94-.25.21.11.56.36.36h0Z"/>
                <path class="cls-22" d="M482.68,527.6c.94-2.2,3.59-2.62,3.59-2.62,0,0,1.67-1.06,4.62-.94,2.79.11,4.19,1.71,5.27,2.99,1.52,1.8.82,2.71.82,2.71v-.03c-.06-.12-.3-.58-.86-.38-.77.27-1.11.85-1.73,1.04-4.41,1.35-5.23.15-5.67,2.15-.45,2.01-.8,4.36-.8,4.36l-1.31-2.14s-1,.11-1.59.85c.23.94.52,1.98.86,2.89,0,0-1.99-.04-3.51-3.79-.58-1.54-1.46-3.05.3-7.08Z"/>
                <path class="cls-23" d="M487.03,535.46s-.38-1.42-1.86-1.3-1.51,1.79-.27,3.51c1.25,1.72,1.93.09,2.03,0,.09-.1-.45-1.27.1-2.2Z"/>
                <path class="cls-40" d="M486.48,535.56s-.49-.85-1.15-.64c-1.02.32.04,2.1.14,2.32.09.22.8.27.96-.19.16-.45-.53-.99.05-1.49Z"/>
                <path class="cls-8" d="M496.39,540.25c-.48.53-1.22.73-1.91.75-.24,0-.24.38,0,.37.79-.02,1.63-.26,2.17-.86.16-.18-.1-.44-.26-.26h0Z"/>
              </g>
              <path class="cls-15" d="M496.02,539.42s.81-.56,1.09-.52c.28.04.5.43.47.75-.03.32-2.63,1.56-3.79,1.49-1.15-.07,1.03-1.45,1.24-1.52s.99-.2.99-.2Z"/>
              <path class="cls-39" d="M495.85,538.9h0c.35-.05.58-.38.53-.72l-.48-2.81c-.05-.34-.38-.58-.72-.53h0c-.34.05-.58.38-.53.72l.48,2.81c.05.34.38.58.72.53Z"/>
              <path class="cls-39" d="M495.79,539.25l.73-.27c.32-.12.48-.47.37-.78h0c-.15-.42-.62-.64-1.04-.49l-.36.13c-.42.15-.64.62-.49,1.04h0c.12.32.47.48.78.37Z"/>
              <path class="cls-7" d="M494.64,535.56l.45,2.6c-.14.21-.18.47-.09.72.09.25.33.4.57.4.07,0,.14-.01.21-.04l.36-.13c-.13.04-.54.13-.76-.1-.1-.09-.14-.24-.15-.38-.03-.28.04-.58.04-.58l-.02-.08-.62-2.47s0,.04,0,.05Z"/>
              <path class="cls-39" d="M492.11,538.66c.09.31.64.43,1.23.26.59-.17.99-.56.9-.87-.09-.31-.64-.43-1.23-.26-.59.17-.99.56-.9.87Z"/>
            </g>
            <path class="cls-10" d="M488.42,576.84c-1.81.25-4.45.58-6.05-.48-.2-.13-.39.19-.19.32,1.7,1.13,4.41.78,6.33.51.24-.03.14-.39-.1-.36h0Z"/>
          </g>
          <path class="cls-38" d="M490.23,625.42s.64.82,3.02,1.57c-.04-.41-.08-.82-.11-1.25-.53-6.78.25-15.9.45-16.92.11-.57.23-2.95.33-5.8.08-2.21.15-4.7.21-6.86.08-3.02,1.66-4.96,1.66-4.96,0,0-1.51,2.75-3.69,1.95-.41-.15-.87-.85-1.16-1.38.16.61.31,1,.42,1.09s.44.46.9,1.01v14.24l-1.96,16.95-.06.36Z"/>
        </g>
        <g>
          <path class="cls-12" d="M478.48,549.49s3.48-.99,4.84,2.66c1.36,3.66-1.39,16.94-2.18,20.46-.68,3.02-6.07,4.61-6.19,2.34-.38-7.59-.36-25.1,3.53-25.46Z"/>
          <path class="cls-39" d="M491.04,578.91c-.15-.84-.26-1.69-.4-2.53,1,.2,1.91.29,2.58.2,3-.43,3.97-2.3,4.3-2.61.33-.31,2.57-1.5,2.57-1.5,0,0,.39-.75.75-.82.35-.07.81.32.8.79-.01.47-.18.84-.69,1.14-.51.29-.31.29-.31.29l-.51.67s1.27.16,1.72,0,3.69-2.7,3.99-2.9c.3-.2.7-.21.8.11.09.31.08.52.08.52,0,0,.06.04.12.13.08.1.16.26.16.48,0,.39-.33.74-.33.74l-.29.28s.05.07.09.17c.03.1.05.24-.02.38-.14.3-1.43,1.62-1.43,1.62,0,0,.17.1-.21.58-.39.48-3.94,2.53-5.27,3.08-1.33.55-1.86.35-5.92.53-.65.03-1.53.03-2.53,0,.06-.44.06-.89-.02-1.33Z"/>
          <path class="cls-37" d="M506.37,573.88l-2.15,2.05,1.91-1.57.32-.31c-.03-.1-.09-.17-.09-.17Z"/>
          <path class="cls-37" d="M505.72,573.63l1.11-1.25c-.06-.08-.12-.13-.12-.13l-3.44,3.48,2.45-2.11Z"/>
        </g>
        <path class="cls-12" d="M494.28,576.56l-.97-.11s-.7.77-.82,2.17c-.12,1.4.05,1.42.05,1.42l1.34.15s-.19.51-1.61.45c-1.42-.05-14.98-3.4-16.42-4.18-1.44-.78-1.01-4.98-1.01-4.98,0,0,2.01-.54,2.03.11.16,3.76,3.73-.38,3.73-.38l13.7,5.34Z"/>
      </g>
      <g>
        <g>
          <polygon class="cls-12" points="521.26 597.72 526.73 584.35 526.87 584.65 532.29 559.63 540.38 561.38 534.96 586.4 534.79 587.21 531.95 586.45 525.39 599.08 521.26 597.72"/>
          <path class="cls-40" d="M525.5,598.86s-1.35,2.8-1.78,3.35c-.43.54-3.01,2.59-3.12,2.68-.11.09-2.4,1.63-2.4,1.63,0,0-.79,0-.86-.16-.08-.16.06-.18-.08-.16-.13.02-.82.66-.93.65-.11-.01-.58-.26-.54-.38.04-.12-.31-.19-.38-.18-.07.01-.43-.4-.19-.76.23-.36.28-.56.28-.56,0,0-.55-.52-.32-.87.23-.35.53-1.12,1.61-2.74,1.08-1.62,2.03-2.64,3.32-3.27,1.29-.63,2.61-1.73,2.61-1.73,0,0,2.96.95,2.79,2.5Z"/>
          <path class="cls-39" d="M522.27,599.71c.1-.05.19-.12.24-.22.27-.56.03-1.66-.5-2.02-.59-.4-1.54-.16-2.18-.08-.74.09-1.51.62-2,1.15-.15.16-.29.33-.4.52-.35.59-.44,1.3-.69,1.94-.04.09-.08.19-.04.29.04.12.19.18.32.16s.23-.1.33-.18c.5-.39.97-.82,1.41-1.29.29-.31.66-.77,1.14-.65.43.11.65.68,1.19.74.42.05.81-.16,1.17-.35,0,0,.02-.01.03-.02Z"/>
          <g>
            <path class="cls-1" d="M556.03,666.6c-6.86,3.96-18.02,3.94-24.92-.04-6.9-3.99-6.94-10.43-.08-14.39,6.86-3.96,18.02-3.94,24.92.05,6.9,3.99,6.94,10.43.08,14.39Z"/>
            <path class="cls-6" d="M542.26,652.63s.69.27.67.8c-.02.53-.05,2.54-.05,2.54,0,0,.46.27.73.17.27-.11.67-.72.67-.72,0,0,.57-3.93.81-4.72.24-.79-2.82,1.93-2.82,1.93Z"/>
            <path class="cls-25" d="M544.67,655.99s1.05-3.68,1.95-4.33c.91-.65,4.85-1.89,4.98,1,.13,2.9-6.93,3.33-6.93,3.33Z"/>
            <path class="cls-6" d="M549.32,655.37s1.01-.35,1.02.18c.01.53,0,3.86,0,3.86,0,0,.25.22.51.09.26-.13.63-.76.63-.76,0,0,.3-3.31.49-4.11.19-.8-2.66.73-2.66.73Z"/>
            <path class="cls-12" d="M544.58,650.38c-.51.9-1.8,1.4-2.36,2.03-.8.89-2.54,5.2-3.12,5.83-.59.62-1.93.21-4.07.23-2.15.02-1.4.12-1.31-.5.09-.61,1.28-2.28,1.83-3.23.55-.96,2.96-3.3,3.55-5.16.06-.17.06-.5.02-.94-.35-4.43-4.67-20.89-4.67-20.89,0,0-4.75-17.81-4.73-25.79.02-5.87,1.56-10.7,1.56-10.7,0,0,7.22,2.26,9.61,5.47.4.54.67,1.11.74,1.7.31,2.53.05,11.41-.18,17.83-.15,3.98-.29,7.02-.29,7.02,0,0,.84,1.71,1.62,4.34.62,2.12,1.19,4.84,1.24,7.74,0,.48,0,.96-.02,1.45-.07,1.45.23,10.42.73,12.25.14.53.06.96-.15,1.32Z"/>
            <path class="cls-19" d="M540.55,625.07s1.62,6.71,1.71,10.4c.09,3.7.9,11.4.81,12.73-.09,1.33-1.34,2.43-2.23,3.97-.88,1.54-2.39,5.06-4.34,4.2-.67-.3-1.01-.78-1.16-1.28-.6.97-1.54,2.34-1.62,2.88-.09.61-.83.52,1.31.5,2.15-.02,3.49.4,4.07-.23.59-.62,2.33-4.93,3.12-5.83.8-.9,3.01-1.52,2.51-3.35-.5-1.83-.8-10.81-.73-12.26.34-7.09-2.84-13.53-2.84-13.53,0,0,.85-18.17.55-23.86l-1.91-3.84.75,29.49Z"/>
            <path class="cls-12" d="M551.01,623.81c-.25,3.41.84,4.86,1.34,11.43.15,1.97-1.28,16.09-1.28,16.09,0,0,.43,1.64.51,2.74.08,1.09-.82,2.18-2.12,5.04-.77,1.7-.37,1.35-.9,2.11-.52.75-1.9,2.76-3.66,2.62-1.33-.11-1.62-2.34-.62-5.68.31-1.04,1.71-5.32,1.77-5.77,0-.02,0-.05,0-.07.22-2.05-.8-11-1.45-13.96-.23-1.05-.43-2.09-.59-2.99-.3-1.67-.46-2.88-.46-2.88,0,0-.61-2.97-.77-4.74,0-.04,0-.08,0-.12-.13-1.3-.75-6.66-1.33-11.36-.43-3.47-.83-6.57-.98-7.42-.37-2.03-2.54-9.66-1-11.16.25-.24.75-.57,1.43-.95,3.56-2.01,11.91-5.36,12.69-3.58,2.29,5.2,2.22,8.68.87,16.2-1.42,7.9-3.2,11.05-3.45,14.47Z"/>
            <path class="cls-27" d="M545.48,541.83s.77-4.55,5.05-2.43c2.44,1.21,5.08,5.41,1.98,12.14-3.16,6.85.56,12.31.56,12.31,0,0-4.15-1.77-5.73-3.26-1.59-1.49-1.37-1.72-1.17-6.33.21-4.61-.7-12.44-.7-12.44Z"/>
            <path class="cls-36" d="M550.26,547.07c-1.56.9-3.76,0-4.91-2.01-1.16-2.01-.84-4.36.72-5.26,1.56-.9,3.76,0,4.91,2.01,1.16,2.01.84,4.36-.72,5.26Z"/>
            <path class="cls-12" d="M536.66,558.53s-4.97-1.23-6.62,6.87c-1.65,8.1-3.74,20.04-3.74,20.04,0,0,4.97,2.63,5.48.21.52-2.43,4.88-27.12,4.88-27.12Z"/>
            <path class="cls-43" d="M528.89,582.99l.84.55c-.4-.2-.78-.5-.84-.55Z"/>
            <path class="cls-38" d="M535.11,595.94s2.78,9.28,4.74,10.08c1.96.8,14.69-4.41,14.69-4.41l.87-.59-1.27-6.55-18.56,1.42-.47.05Z"/>
            <path class="cls-17" d="M555.71,572.01c-.43,2.26-1.09,4.97-1.57,8.04-.59,3.74-.92,8.01-.28,12.61.05.37-.1.88-.45,1.44-.36.58-.94,1.21-1.71,1.8-2.14,1.63-5.78,2.94-10.65,1.87-8.07-1.76-10.25-4.11-10.3-5.88,0-.35.07-.67.19-.96,0-.02.02-.04.03-.07.29-.6,1.53-4.12.41-7.99-.02-.09-.05-.18-.08-.26-.06-.19-.13-.39-.2-.57,0-.02-.01-.04-.02-.06-.06-.16-.12-.32-.18-.47-.03-.09-.07-.17-.1-.25l-.18-.44c-.06-.14-.12-.28-.18-.43-.06-.14-.12-.29-.18-.43l-.07-.17c-.07-.16-.13-.31-.19-.47-.03-.08-.06-.16-.09-.24-.13-.33-.25-.66-.35-1.01h0c-.5-1.62-.7-3.51-.05-6.21,1.23-5.06,2.79-12.84,6.63-13.29,3.84-.45,10.3,1.42,10.3,1.42,0,0,5.57,2.63,8.84,5.57,1.24,1.12,1.06,3.36.46,6.46Z"/>
            <path class="cls-17" d="M554.76,602.2c-.14.12-.28.24-.44.36-2.14,1.63-5.95,4.28-13.79,2.92-11.08-1.93-12.17-5.83-11.34-7.61.14-.29.92-2.91,1.56-5.99.07-.32.13-.64.19-.96.56-2.96.92-6.15.43-8.05-.02-.09-.05-.18-.08-.26-.06-.19-.13-.38-.2-.57,0-.02-.01-.04-.02-.06-.06-.16-.12-.32-.18-.47-.03-.09-.07-.17-.1-.25-.06-.15-.12-.29-.18-.44-.06-.14-.12-.28-.18-.43-.06-.14-.12-.29-.18-.43l-.07-.17c-.07-.16-.13-.31-.19-.47-.03-.08-.06-.16-.09-.24-.13-.33-.25-.66-.35-1.01,1.05,2.96,5.85,2.24,8.08,3.11.01,0,.03.01.06.02.01,0,.03,0,.05.01,0,0,0,0,.01,0,.23.09.59.23,1.05.39.08.03.15.06.23.09,4.6,1.64,7.9,2.04,7.9,2.04l3.33-1.05,3.9-2.65h0c-.58,3.64,1.57,14.07,2.28,18.88.02.13.04.26.06.4.09.69-.5,1.82-1.72,2.88Z"/>
            <path class="cls-26" d="M540.53,559.54c-.04.27-1.97,1.6-3.59,4.32-1.62,2.72-3,10.96-3,10.96l.87,10.63,2.45,3.09,3.86-6.55,3.5-10.67,4.24-7.45-2.3-2.36-6.03-1.96Z"/>
            <path class="cls-13" d="M554.76,602.2c-.46-2.36-.88-5.29-1.36-8.11-.88-5.24-1.93-10.05-3.7-9.9-2.77.24-8.07-1.53-10.69-2.49-.08-.03-.16-.06-.23-.09-.46-.17-.82-.3-1.05-.39-.02,0-.04-.02-.06-.02.01,0,.03,0,.05.01,1.21.43,6.35,2.19,8.44,2.15,2.37-.05,4.17-2.87,4.09-5.04-.09-2.16.47-5.86.47-5.86,0,0,2.47-.37,5-.45-.43,2.26-1.09,4.97-1.57,8.04h0c-.58,3.64,1.57,14.07,2.28,18.88.02.13.04.26.06.4.09.69-.5,1.82-1.72,2.88Z"/>
            <path class="cls-39" d="M548.23,554.48c-.98,2.84-1.04,3.66-1.18,7.19-.09,2.18-1.83,3.14-3.63,3.33-1.12.12-2.25-.06-3.02-.42-2.01-.96-1.15-2.52-.93-3.39.09-.38.03-1.32-.08-2.26-.13-1.18-.33-2.34-.33-2.34l5.27-5.46s4.88.5,3.9,3.34Z"/>
            <path class="cls-40" d="M547.78,555.32s-.85,3.32-3.16,4.7c-2.31,1.38-4.65,1.89-4.65,1.89,0,0-.63.8-.39,1.75.19.75,2.06,1.41,3.85,1.34-1.12.12-2.25-.06-3.02-.42-2.01-.96-1.15-2.52-.93-3.39.09-.38.03-1.32-.08-2.26l1.72-1.31,4.23-2.84,2.43.52Z"/>
            <path class="cls-5" d="M536.47,596.44c-.04-.76-.94-18.61-.57-20.97.37-2.35,3.82-11.3,3.97-11.68l1.32.51c-.04.09-3.54,9.19-3.89,11.39-.29,1.83.32,15.54.59,20.67l-1.42.07Z"/>
            <path class="cls-36" d="M547.19,558.68l-.19,1.51s-1.6,3.96-6.47,3.86c-.1.76,0,2.9.76,3.53,3.1-1.18,6.71-3.52,7.44-5.59.09-.24-.36-2.94-.36-2.94l-1.08-.96-.1.58Z"/>
            <path class="cls-36" d="M539.6,560.18s-.28.87-.22,1.36c.05.48.23,1.82,1.15,2.52-.92,1.17-2.48,1.71-3.08,1.64.49-1.8.68-3.51.89-4.92.21-1.41,1.63-1.63,1.25-.6Z"/>
            <path class="cls-14" d="M538.27,561.27s-2.44,1.39-3.62,3.77l-1.18,2.38,1.06,1.3-1.97,1.76s-1.59,4.67,3.71,21.48c0,0-2.13-15.72-1.56-18.67.58-2.95,3.2-9.71,3.2-9.71l.36-2.32Z"/>
            <path class="cls-39" d="M542.57,539.26s-5,1.05-6.31,4.88c-1.3,3.83-1.09,3.99-1.01,5.53.08,1.53-.41,3.68.18,6.17.59,2.49,1.17,4.61,2.3,4.99,1.13.38,7.61-.92,9.96-5.34,2.35-4.41,4.58-8.45,2.77-12.55-1.26-2.87-5.38-4.3-7.9-3.67Z"/>
            <path class="cls-36" d="M535.57,551.32c0,.48.16.86.37.86s.37-.39.37-.86-.16-.86-.37-.86-.37.39-.37.86Z"/>
            <path class="cls-39" d="M536.43,553.63c-.24.16-.66-.1-.93-.57-.27-.47-.3-.98-.06-1.14.24-.16.66.1.93.57s.3.98.06,1.14Z"/>
            <path class="cls-39" d="M536.09,553.8c-.23.16-.59.02-.8-.33s-.19-.76.04-.92c.23-.16.59-.02.8.33.21.34.19.76-.04.92Z"/>
            <path class="cls-39" d="M536.92,555.15h0c-.39-.06-.66-.43-.59-.82l.54-3.17c.06-.39.43-.66.82-.59h0c.39.06.66.43.59.82l-.54,3.17c-.06.39-.43.66-.82.59Z"/>
            <path class="cls-39" d="M536.99,555.55l-.83-.3c-.36-.13-.54-.53-.41-.88h0c.17-.47.7-.72,1.17-.55l.4.15c.47.17.72.7.55,1.17h0c-.13.36-.53.54-.88.41Z"/>
            <path class="cls-11" d="M538.28,551.37l-.5,2.94c.16.24.2.53.1.82-.1.28-.37.45-.65.45-.08,0-.16-.01-.24-.04l-.41-.15c.15.04.61.14.86-.11.11-.1.16-.27.17-.43.03-.32-.05-.66-.05-.66l.02-.09.7-2.79s0,.04,0,.06Z"/>
            <path class="cls-36" d="M540.57,553.02c-.02.31-.08,1-.08,1,0,0-.31-.19-.52-.19-.33,0-.62.09-.49-.91.06-.44.27-.8.6-.8s.53.46.5.9Z"/>
            <path class="cls-39" d="M540.83,554.21s-.65.61-1.18.52c-.54-.09-.95-.39-.91-.68.03-.29.49-.45,1.03-.36.54.09,1.07.51,1.07.51Z"/>
            <path class="cls-15" d="M538.85,550.74c.94-.06,1.9.25,2.49,1,.23.29.63-.12.4-.4-.68-.86-1.82-1.24-2.89-1.17-.36.02-.37.59,0,.57h0Z"/>
            <path class="cls-15" d="M536.95,549.48c-.4-.36-.98-1-1.53-1.1-.36-.06-.51.48-.15.55.45.08.95.66,1.28.96.27.24.68-.16.4-.4h0Z"/>
            <path class="cls-16" d="M538.7,557.9c-.92-.25-2.48-1.48-2.76-1.08-.46,1.08,1.78,1.85,2.58,1.32.06-.04.18-.23.18-.23Z"/>
            <path class="cls-8" d="M538.21,557.52c-.29-.18-.57-.31-.84-.43-.23-.1-.5-.13-.71-.23-.28-.13-.5-.33-.74-.53-.77,1.12,2.47,1.88,2.79,1.58.18,0-.49-.38-.49-.38Z"/>
            <path class="cls-27" d="M550.85,543.19c-.95-2.5-2.16-2.99-2.16-2.99,0,0-1.17-1.28-4.48-1.28-3.12,0-5.91,1.64-7.17,3.02-1.78,1.94-1.04,2.99-1.04,2.99v-.03c.08-.13.37-.63.98-.39.84.34,1.2,1,1.89,1.24,4.86,1.71,5.83.41,6.23,2.66.4,2.26.62,3.07,1.63,2.72,1.64-.57,1.56-.21,2.36.89-.3,1.04-.67,2.18-1.1,3.19,0,0,.04,1.02,1.91-3.09.72-1.7,2.53-3.98.96-8.93Z"/>
            <path class="cls-28" d="M547.34,551.7s.7-1.49,2.31-1.05c1.61.44,1.3,2.27-.42,3.91s-2.14-.29-2.23-.42c-.08-.13.76-1.3.34-2.44Z"/>
            <path class="cls-40" d="M547.93,551.92s.71-.84,1.4-.47c1.06.56-.47,2.3-.62,2.52-.15.22-.93.13-1.02-.4-.09-.53.78-.98.24-1.65Z"/>
            <path class="cls-42" d="M545.35,549.76s.43,1.77.23,3.33c-.19,1.56.37,3.23.37,3.23,0,0-.31-2.02,0-3.17s.92-1.77.83-2.41c-.09-.64-1.43-.98-1.43-.98Z"/>
            <path class="cls-39" d="M542.22,652.42c-.8.89-2.54,5.2-3.12,5.83-.59.62-1.93.21-4.07.23-2.15.02-1.4.12-1.31-.5.09-.61,1.28-2.28,1.83-3.23.55-.96,2.96-3.3,3.55-5.16.06-.17.06-.5.02-.94,1.96,1.86,5.16-.55,5.16-.55-.18.67-.05,1.51.29,2.3-.51.9-1.8,1.4-2.36,2.03Z"/>
            <path class="cls-25" d="M544.63,647.66s-3.21,3.94-4.22,6.19c-1.01,2.25-2.17,3.18-3.06,3.18-1.42,0-2.36-.83-2.08-1.56l.28-.73s-3.46,3.93-2.9,6.29c.56,2.36,6.75-1.17,7.66-2.44.35-.49.95-3.96,1.73-4.97s2.64-1.12,3.09-3.15c.45-2.02-.51-2.81-.51-2.81Z"/>
            <path class="cls-39" d="M549.46,659.1c-.77,1.7-.37,1.35-.9,2.11-.52.75-1.9,2.76-3.66,2.62-1.33-.11-1.62-2.34-.62-5.68.31-1.04,1.71-5.32,1.77-5.77,0-.02,0-.05,0-.07.61.46,1.32.74,2.08.66,2.39-.24,2.93-1.65,2.93-1.65,0,0,.43,1.64.51,2.74.08,1.09-.82,2.18-2.12,5.04Z"/>
            <path class="cls-25" d="M545.56,654.02s-1.38,2.88-1.96,4.83c-1.25,4.25-1.1,6.08-.75,7.06.36,1.03,3.34-.03,5.4-1.87,2.36-2.11,1.2-4.46,2.59-6.96.45-.81,1.36-.92,1.16-3.32-.05-1.6-.93-2.44-.93-2.44,0,0,.67,1.7.16,3.08-.26.69-.46,1.07-.85,1.94-.79,1.73-1,3.45-2.18,4.72-1.11,1.2-4.56.64-4.5-.04.12-1.26.53-2.78.92-3.97.46-1.42.93-3.03.93-3.03Z"/>
            <path class="cls-6" d="M542.2,653.14c-.79,1.01-1.72,4.67-2.06,5.15-.85,1.18-6.29,4.25-7.49,2.69,0,.01,0,.03,0,.04.56,2.36,6.75-1.17,7.66-2.44.35-.49.95-3.96,1.73-4.97.69-.88,2.18-1.08,2.85-2.45-.57.43-2.12,1.24-2.69,1.97Z"/>
            <path class="cls-6" d="M550.73,656.91c-1.4,2.49-.17,4.69-2.53,6.8-1.91,1.7-4.77,2.79-5.41,2.05.02.05.04.1.06.15.36,1.03,3.34-.03,5.4-1.87,2.36-2.11,1.2-4.46,2.59-6.96.3-.53.89-.65,1.02-1.47-.25.55-.91.9-1.13,1.3Z"/>
            <path class="cls-12" d="M564,589.35s-3.84-12.39-5.57-17.1c-1.74-4.71-2.46-6.98-4.8-7.2-2.34-.22-4.98,3.28-2.2,9.28,2.78,6.01,6.19,14.73,6.76,15.11.57.38,4.98,1.65,5.81-.09Z"/>
            <path class="cls-12" d="M544.8,595.58s9.01-3.37,12.6-7.56c.98-1.15,3.75-.97,6.23.16.1.35.3.79.34,1.19.14,1.5-.42,3.3-4.91,5.09-5.69,2.26-13.36,4.86-13.36,4.86,0,0,.35-2.25-.9-3.74Z"/>
            <circle class="cls-31" cx="547.95" cy="554.75" r=".35"/>
            <g class="cls-47">
              <path class="cls-20" d="M536.44,551.32c.24.97-.02,1.87-.58,2.01-.57.14-1.22-.53-1.47-1.5s.02-1.87.58-2.01,1.22.53,1.47,1.5Z"/>
              <path class="cls-20" d="M535.71,553.41c-.55,0-1.14-.65-1.37-1.56-.25-1,.03-1.93.62-2.08.28-.08.62.05.91.35.28.29.51.71.63,1.19.16.64.11,1.28-.13,1.69-.12.21-.29.34-.49.39-.06.01-.11.02-.17.02ZM535.13,549.87s-.1,0-.14.02c-.53.14-.78,1.01-.54,1.94.21.85.76,1.47,1.26,1.47.05,0,.1,0,.14-.02.17-.04.31-.16.42-.34.23-.38.27-.99.12-1.6h0c-.12-.46-.33-.86-.6-1.14-.21-.22-.44-.33-.66-.33Z"/>
            </g>
            <path class="cls-39" d="M540.82,555.11c-.1.33-.68.46-1.31.28-.63-.18-1.06-.59-.96-.93s.68-.46,1.31-.28c.63.18,1.06.59.96.93Z"/>
            <g class="cls-47">
              <path class="cls-20" d="M540.85,552.93c.27,1.06-.14,2.08-.92,2.28-.77.2-1.62-.51-1.89-1.57-.27-1.06.14-2.08.92-2.28.77-.2,1.62.51,1.89,1.57Z"/>
              <path class="cls-20" d="M539.67,555.3c-.72,0-1.44-.68-1.68-1.65-.27-1.09.16-2.15.96-2.35.8-.21,1.68.52,1.96,1.61h0c.16.63.09,1.28-.19,1.75-.19.32-.45.52-.77.6-.09.02-.18.03-.27.03ZM539.22,551.39c-.08,0-.16.01-.25.03-.74.19-1.13,1.18-.88,2.21.26,1.03,1.07,1.71,1.82,1.53.28-.07.53-.26.7-.55.26-.44.33-1.06.18-1.66h0c-.23-.92-.9-1.56-1.57-1.56Z"/>
            </g>
            <polygon class="cls-20" points="534.41 550.42 533.69 550.11 535.14 548.97 535.29 549.15 534.15 550.05 534.51 550.2 534.41 550.42"/>
            <polygon class="cls-20" points="541.89 553.61 540.83 553.15 540.92 552.93 541.89 553.35 548.38 550.58 548.48 550.8 541.89 553.61"/>
            <path class="cls-20" d="M538.01,552.24c-.58-1.05-1.42-.61-1.46-.59l-.11-.21s.43-.23.91-.09c.35.1.64.36.87.78l-.21.11Z"/>
            <path class="cls-14" d="M548.43,562.61s-.83.59-2.95,3.58c-2.12,3-5.86,12.92-6.26,15.29-.39,2.37-1.96,9.36-1.96,9.36,0,0,6.95-12.87,8.22-15.82l-1.09-1.14,2.44-1.5s1.97-4.26,2.56-6.5c.59-2.25.43-4.07.43-4.07l-1.4-2.33v3.13Z"/>
            <path class="cls-40" d="M540.37,595.17s-1.65-.41-2.43-.7c-.78-.29-2.63-.33-2.9-.21-.27.11-.21.86-.21.86,0,0-.59-.09-.69.02-.11.12,0,.96,0,.96l.58.48s-.97.55-.47.95c.5.4,1.22.63,1.22.63,0,0-.2.13.16.52.36.39,1.9,1.23,2.55,1.52.65.29,1.92.61,3.03.52,1.1-.09,3.9-1.36,4.72-1.59.82-.22.9-2.01.49-2.73-.3-.54-.62-.86-1.22-.99-.2-.04-.41-.1-.64-.16-.82-.22-2.67-1.25-3.59-1.26.21.51.04,1.13.04,1.13l-.62.05Z"/>
          </g>
        </g>
        <g>
          <path class="cls-1" d="M484.15,684.52c6.99,4.04,18.36,4.01,25.39-.05,7.03-4.06,7.07-10.62.08-14.66-6.99-4.04-18.36-4.02-25.39.05s-7.07,10.62-.08,14.66Z"/>
          <path class="cls-39" d="M525.04,601.1s.2.7.07,1.37c-.13.67-1.72,2.79-3.01,3.31-.09.03-2.91.72-3,.74-1.29.14-3.06-2.04-3.06-2.04,0,0,2.37-2.29,2.55-2.74.06-.15-.05-.35-.07-.51-.03-.2-.09-.39-.18-.57-.16-.32-.54-.64-.47-.99.02-.09.06-.18.15-.28.28-.3.7-.14,1,.04.34.2.45.54.64.88.14.26.3.53.56.67.12.07.33.06.47.08.16.02.32.02.49,0,.34-.03,2.19-.51,2.42-.78.38-.47.78-.74.78-.74,0,0,.74.16.73.37,0,.21-.06,1.18-.06,1.18Z"/>
          <path class="cls-18" d="M479.56,620.66l-2.68-18.12c-.26-1.82-.19-3.63.18-5.39l3.38-16.01,5.57,1.18-3.38,16.01c-.24,1.12-.28,2.27-.12,3.4l2.68,18.1-5.63.83Z"/>
          <path class="cls-18" d="M480.28,582.51c.24,2.58,3.13,4.42,6.46,4.12,3.33-.3,5.84-2.64,5.6-5.22-.24-2.58-3.13-4.42-6.46-4.12-3.33.3-5.84,2.64-5.6,5.22Z"/>
          <path class="cls-41" d="M499.82,676.33l4.47,1.45s4.64.79,5.5,1.36,1.08,1.54.38,2.36c-.69.82-3.95,1.88-8.18,2.04s-6.19,1.18-7.68.42c-1.48-.76-.95-3.69-.95-3.69,0,0-.37-.83.62-1.99.99-1.17,5.83-1.95,5.83-1.95Z"/>
          <path class="cls-41" d="M482.67,673.15c.11,1.28,0,1.28,0,1.28,0,0-.06,1.23.88,1.63.93.41,2.8.82,3.97-.29,1.17-1.11,1.28-1.87,3.09-3.09,1.81-1.23.99-4.32.7-5.08-.29-.76-4.49.23-4.84.53s-3.99,2.78-3.79,5.02Z"/>
          <path class="cls-36" d="M504.63,649.25l-.06.37-3.87,29.16-6.39-.75-1.23-.15,3.03-28.74-.15-1.35-.26-2.58s-.02-.02-.02-.03l-2.46-23.68,3.45-.31,5.75-.52.06.88,2.09,27.18.03.29.02.21Z"/>
          <path class="cls-36" d="M500.69,678.79s-1.12,1.49-4.72,1.49c-.84,0-1.44-.13-1.88-.32-1.43-.66-1.02-2.06-1.02-2.06l1.33-.62,2.46-1.15,3.83,2.66Z"/>
          <polygon class="cls-36" points="492.92 641.55 492.88 641.99 489.54 672.29 486.93 672.03 481.64 671.51 484.2 641.67 484.07 640.63 481.46 621.62 480.99 618.15 490.19 617 490.66 621.24 492.11 634.33 492.16 634.81 492.86 641.04 492.92 641.55"/>
          <path class="cls-36" d="M504.61,649.04c-.02.11-.03.23-.05.34-.23,1.26-2.01,1.82-3.86,1.75-1.52-.06-3.08-.55-3.83-1.41-.29-.34-.6-1.02-.92-1.91-1-2.84-2.04-7.85-2.76-10.8-.03-.13-.06-.23-.08-.32-.05-.18-.08-.34-.13-.5-.02-.02-.02-.03-.02-.03-.24-.99-.45-1.59-.57-1.54-.06.02-.15.08-.24.19-.29.32-.73,1.02-1.26,1.9-1.96,3.31-5.14,8.95-6.53,4.85-.03-.11-.08-.23-.11-.34v-.02c-.06-.18-.13-.37-.18-.57-2.53-8.01-3.32-18.96-3.32-18.96,0,0,.26-.02.71-.05,1.51-.08,5.19-.29,9.19-.37,1.99-.05,4.08-.06,6.01-.03,2.27.03,4.33.13,5.82.36,1.46.21,2.38.53,2.4,1,.15,2.43.5,21.14-.28,26.47Z"/>
          <path class="cls-36" d="M489.54,672.29s-.71.96-2.84,1.35c-.53.08-1.15.15-1.88.15-3.6,0-3.18-2.27-3.18-2.27l4.05-1.88,1.43.99,2.42,1.67Z"/>
          <path class="cls-29" d="M492.92,641.55l-.05.44-3.34,30.29s-.71.96-2.84,1.35c.08-.49.15-1.02.23-1.6.06-.44.13-.92.19-1.41,1.38-9.82,4.04-27.3,4.21-28.46.13-.81-.13-3.24-.44-5.45-.29-2.19-.62-4.17-.62-4.17l1.83,1.78.29.29c-.06.02-.15.08-.24.19l.7,6.22.06.52Z"/>
          <path class="cls-29" d="M501.94,650.62s-.55.26-1.23.52c-.83.31-1.85.6-2.35.39l-.91-.37s-2.07,17.39-3.05,26.13c-.03.26-.06.52-.1.76-.08.71-.15,1.36-.21,1.91-1.43-.66-1.02-2.06-1.02-2.06l3.03-28.74-.15-1.35c-1-2.84-2.04-7.85-2.76-10.8.44,1.61,1.44,5.17,2.48,8.19,0,.02.02.03.02.03.84,2.43,1.72,4.47,2.37,4.83,1.7.97,3.87.55,3.87.55Z"/>
          <path class="cls-18" d="M507.93,607.84c-.38,5.29-.7,11.42-.57,18.29-.2.62-.54,1.17-.97,1.64-.3.32-.64.61-1.04.87-4.4,2.97-14.33,2.25-21.41-1.26-3.4-1.7-4.19-3.53-4.19-3.53,0,0,2.35-18.59,1.21-31.4,0,0-1.18-12.21,2.85-14.34,3.38-1.79,7.05-.83,13.6,2.29,6.47,3.09,9.53,5.47,10.26,6.23.79.82,1.15,2.4,1.24,4.62.16,3.88-.47,9.48-.99,16.6Z"/>
          <path class="cls-29" d="M507.36,626.13c-.2.62-.54,1.17-.97,1.64-.3.32-.64.61-1.04.87.86-17.9-2.6-33.27-2.68-33.63l5.26,12.83c-.38,5.29-.7,11.42-.57,18.29Z"/>
          <path class="cls-18" d="M500.94,591.04c.4,2.62,2.61,4.46,4.94,4.1,2.33-.35,3.9-2.76,3.51-5.38-.4-2.62-2.61-4.46-4.94-4.1-2.33.35-3.9,2.76-3.51,5.38Z"/>
          <path class="cls-39" d="M499.44,580.22l.93-1.91s1.95.42,2.66.39c.71-.03,2.35-2.7,3.12-6.1.77-3.4.18-5.32.49-6.32s.59-4.38-.45-5.29c-1.04-.91-15.6.49-15.4,3.82.2,3.33,2.92,7.74,2.41,9.27-.52,1.53-1.87,3.17-1.87,3.17,0,0,2.57,3.21,8.11,2.97Z"/>
          <path class="cls-22" d="M507.11,565.05s-2.21,1.95-2.29,2.86c-.08.91.29,2.57-1.71.57-2-2.01-1.6,5.54-3.92,6.35s-5.48-.5-5.94-1.01-4.06-3.92-3.51-10.28c.28-3.2,5.08-6.15,8.22-6.69,3.14-.54,8.9,1.75,9.31,4.6.4,2.85-.17,3.59-.17,3.59Z"/>
          <path class="cls-2" d="M503.61,568.44s-1.58-.48-1.55,2.02c.02,2.5.69,2.72,1.23,2.71.54-.01.51-.61.51-.61,0,0-.34-1.12-.02-1.9.32-.78.75-1.9-.17-2.22Z"/>
          <path class="cls-18" d="M511.44,612.57c-.19,1.12-1.41.21-1.6.89-.41,1.48-.92,2.07-1.93,2.26-.31.06-.65-.18-1-.66-.79-1.07-.61-1.58-1.45-4.41-2.09-6.96-4.01-16.38-4.5-19.61-.77-5.12,8-2.86,8-2.86,0,0,1.93,12.88,2.44,20.26.13,1.91.16,3.39.04,4.12Z"/>
          <path class="cls-18" d="M520.31,607.06s-6.01,6.37-10.48,8.25c-1.62.68-2.82.63-3.07-.76,0,0,0-.01,0-.02-.59-3.5.54-5,1.53-5.71.36-.27.7-.43.93-.54.28-.14,1.2-.69,2.4-1.41,2.5-1.52,4.46-2.79,5.75-3.8.47-.37,2.26,1.12,2.26,1.12.81,1.03.68,2.88.68,2.88Z"/>
          <path class="cls-18" d="M489.08,577.35s.68-.5,2.23-.85c.89-.2,7.2,2.98,7.2,2.98,0,0,4.17,2.28,4.57,2.84.39.55.69,1.48.69,1.48,0,0-3.32-2.08-9.76-3.56-3.93-.91-5.97-1.7-4.92-2.89Z"/>
          <path class="cls-36" d="M486.31,628.46s1.25-9.25,1.25-12.85,0,13.29,0,13.29l-1.25-.44Z"/>
        </g>
      </g>
    </g>
  </g>
</svg>