<?xml version="1.0" encoding="UTF-8"?>
<svg id="Layer_2" data-name="Layer 2" xmlns="http://www.w3.org/2000/svg" version="1.1" xmlns:xlink="http://www.w3.org/1999/xlink" viewBox="0 0 2000 2000">
  <defs>
    <style>
      .cls-1 {
        fill: url(#Degradado_sin_nombre_14);
      }

      .cls-1, .cls-2, .cls-3 {
        stroke-width: 0px;
      }

      .cls-2 {
        fill: #eaf2ff;
      }

      .cls-3 {
        fill: url(#Degradado_sin_nombre_2);
      }
    </style>
    <linearGradient id="Degradado_sin_nombre_14" data-name="Degradado sin nombre 14" x1="1222.65" y1="1154.72" x2="1429.96" y2="1154.72" gradientUnits="userSpaceOnUse">
      <stop offset=".07" stop-color="#fff"/>
      <stop offset=".39" stop-color="#eef4ff"/>
      <stop offset="1" stop-color="#c4daff"/>
    </linearGradient>
    <linearGradient id="Degradado_sin_nombre_2" data-name="Degradado sin nombre 2" x1="-704" y1="1158.19" x2="-742.04" y2="1206.33" gradientTransform="translate(645.92) rotate(-180) scale(1 -1)" gradientUnits="userSpaceOnUse">
      <stop offset=".07" stop-color="#b8d0f6"/>
      <stop offset=".62" stop-color="#a7c1ea"/>
      <stop offset="1" stop-color="#99b6e0"/>
    </linearGradient>
  </defs>
  <path class="cls-1" d="M1425.64,1161.43l-87.71,50.64c-6.4,3.69-17.67,3.22-25.05-1.04l-84.11-48.56c-7.38-4.26-8.19-10.77-1.8-14.46l87.71-50.64c6.39-3.69,17.67-3.22,25.05,1.04l84.11,48.56c7.38,4.26,8.19,10.77,1.8,14.46Z"/>
  <g>
    <path class="cls-3" d="M1429.84,1170.85v-14.54h0c-.39,1.92-1.78,3.72-4.19,5.12l-87.71,50.64c-3.07,1.77-7.28,2.56-11.63,2.46v16.8c4.35.11,8.56-.68,11.63-2.46l87.71-50.64c3.34-1.93,4.7-4.63,4.19-7.38Z"/>
    <path class="cls-2" d="M1312.88,1211.03l-84.11-48.56c-3.52-2.03-5.53-4.58-5.99-7.09v14.54c-.65,3.17,1.4,6.7,5.99,9.35l84.11,48.56c3.84,2.21,8.71,3.38,13.42,3.5v-16.8c-4.71-.11-9.58-1.28-13.42-3.49Z"/>
  </g>
</svg>