<?xml version="1.0" encoding="UTF-8"?>
<svg id="Layer_2" data-name="Layer 2" xmlns="http://www.w3.org/2000/svg" version="1.1" viewBox="0 0 2000 2000">
  <defs>
    <style>
      .cls-1 {
        fill: #f6ba28;
      }

      .cls-1, .cls-2 {
        stroke-width: 0px;
      }

      .cls-2 {
        fill: #f2a305;
      }
    </style>
  </defs>
  <path class="cls-1" d="M836.36,899.67c.08-.02.17-.06.23-.1.04-.02.1-.06.15-.08.06-.04.1-.06.17-.1l3.95,16.3c.17.69.15,1.61-.46,1.96-4.03,2.32-8.11,4.66-12.14,7,.4-.31.59-.96.36-1.9l-4.37-18.04c-.19-.84-.1-1.84.69-2.05l11.43-2.99Z"/>
  <path class="cls-1" d="M836.88,899.3c.71-.94-.15-3.36-1.63-4.22l-14.13-8.15c-.77-.46-1.53-1.44-1.8-2.55l-4.37-18.06c-.27-1.07-1.32-2.59-2.36-2.78-.29-.06-.54-.02-.77.1,4.05-2.34,8.11-4.7,12.16-7.02.02-.02.04-.02.06-.04.21-.13.48-.17.77-.1,1.04.17,2.11,1.69,2.36,2.78l4.37,18.04c.27,1.13,1.05,2.11,1.82,2.55l14.13,8.17c1.65.96,2.53,3.87,1.34,4.49-3.97,2.3-7.96,4.6-11.93,6.88l-.02-.06v-.02Z"/>
  <path class="cls-1" d="M803.3,862.49l7.23,4.18-3.55,10.58c-.23.67-.88.98-1.8.46l-14.13-8.15c-.52-.29-.94-.33-1.28-.19,4.05-2.32,8.11-4.68,12.18-7.02.38-.21.88-.12,1.34.15Z"/>
  <path class="cls-2" d="M791.05,869.56l14.13,8.15c.92.52,1.57.21,1.8-.46l3.55-10.58.82-2.42c.1-.29.27-.5.48-.61.23-.12.48-.17.77-.1,1.05.19,2.09,1.71,2.36,2.78l4.37,18.06c.27,1.11,1.02,2.09,1.8,2.55l14.13,8.15c1.48.86,2.34,3.28,1.63,4.22v.02c-.04.06-.08.13-.15.17-.04.02-.1.06-.15.08-.06.04-.15.08-.23.1l-11.43,2.99c-.79.21-.88,1.21-.69,2.05l4.37,18.04c.23.94.04,1.59-.36,1.9-.04.02-.06.04-.1.06-.61.33-1.61,0-2.44-1.19l-11.43-16.2c-.15-.19-.27-.36-.44-.52-.42-.46-1.19-.92-1.8-.77l-11.43,2.99c-1.48.4-3.47-2.45-2.9-4.12l4.37-13c.29-.88-.15-2.07-.69-2.84l-11.43-16.2c-1.02-1.42-.98-3.03-.23-3.45.02-.02.04-.02.06-.04.33-.15.75-.1,1.28.19Z"/>
</svg>