<?xml version="1.0" encoding="UTF-8"?>
<svg id="Layer_2" data-name="Layer 2" xmlns="http://www.w3.org/2000/svg" version="1.1" viewBox="0 0 2000 2000">
  <defs>
    <style>
      .cls-1 {
        fill: #4ed4b2;
      }

      .cls-1, .cls-2, .cls-3 {
        stroke-width: 0px;
      }

      .cls-2 {
        fill: #009a78;
      }

      .cls-3 {
        fill: #196050;
      }
    </style>
  </defs>
  <path class="cls-1" d="M1311.68,1189.35l-38.77,22.39c-2.83,1.63-7.81,1.43-11.08-.46l-37.18-21.47c-3.26-1.88-3.62-4.76-.8-6.39l38.77-22.39c2.83-1.63,7.81-1.43,11.08.46l37.18,21.47c3.26,1.88,3.62,4.76.8,6.39Z"/>
  <g>
    <path class="cls-3" d="M1313.53,1208.79v-21.7h0c-.17.85-.79,1.65-1.85,2.26l-38.77,22.39c-1.36.78-3.22,1.13-5.14,1.09v22.7c1.92.05,3.78-.3,5.14-1.09l38.77-22.39c1.48-.85,2.08-2.05,1.85-3.26Z"/>
    <path class="cls-2" d="M1261.83,1211.27l-37.18-21.47c-1.56-.9-2.44-2.02-2.65-3.13v21.7c-.29,1.4.62,2.96,2.65,4.13l37.18,21.47c1.7.98,3.85,1.49,5.93,1.55v-22.7c-2.08-.05-4.24-.57-5.93-1.54Z"/>
  </g>
</svg>