<?xml version="1.0" encoding="UTF-8"?>
<svg xmlns="http://www.w3.org/2000/svg" version="1.1" viewBox="0 0 2000 2000">
  <defs>
    <style>
      .cls-1 {
        fill: #3a7800;
      }

      .cls-1, .cls-2, .cls-3, .cls-4, .cls-5, .cls-6, .cls-7, .cls-8, .cls-9, .cls-10, .cls-11, .cls-12, .cls-13, .cls-14, .cls-15, .cls-16, .cls-17, .cls-18, .cls-19, .cls-20, .cls-21, .cls-22, .cls-23, .cls-24, .cls-25, .cls-26, .cls-27, .cls-28, .cls-29, .cls-30, .cls-31, .cls-32, .cls-33, .cls-34, .cls-35, .cls-36, .cls-37, .cls-38, .cls-39, .cls-40, .cls-41, .cls-42, .cls-43, .cls-44, .cls-45, .cls-46, .cls-47 {
        stroke-width: 0px;
      }

      .cls-2 {
        fill: #d0bba3;
      }

      .cls-3 {
        fill: #b8ccdc;
      }

      .cls-4 {
        fill: #acbed0;
      }

      .cls-5 {
        fill: #e2ae4a;
      }

      .cls-6 {
        fill: #000;
      }

      .cls-7 {
        fill: #9a9ad8;
      }

      .cls-8 {
        fill: #a5b3bf;
      }

      .cls-9 {
        fill: #fee6cd;
      }

      .cls-10 {
        fill: #f6c54c;
      }

      .cls-11 {
        fill: #003e00;
      }

      .cls-48 {
        isolation: isolate;
      }

      .cls-12 {
        fill: #ebb795;
      }

      .cls-13 {
        fill: #717f90;
      }

      .cls-14 {
        fill: #891b3a;
      }

      .cls-15 {
        fill: #c44600;
      }

      .cls-16 {
        fill: #da926e;
      }

      .cls-17 {
        fill: #8a8ace;
      }

      .cls-18 {
        fill: #a5a5e5;
      }

      .cls-19 {
        fill: #688499;
      }

      .cls-20 {
        fill: #be5a54;
      }

      .cls-21 {
        fill: #fed6ac;
      }

      .cls-22 {
        fill: #d6936e;
      }

      .cls-23 {
        fill: #3a5589;
      }

      .cls-24 {
        fill: #95cc66;
      }

      .cls-25 {
        fill: #67152c;
      }

      .cls-26 {
        fill: #bb426a;
      }

      .cls-27 {
        fill: #b4a8c3;
      }

      .cls-28 {
        fill: #527184;
      }

      .cls-29 {
        fill: #a3bacc;
      }

      .cls-30 {
        fill: #283c48;
      }

      .cls-31 {
        fill: #4eaa00;
      }

      .cls-32 {
        fill: #e6a57a;
      }

      .cls-33 {
        fill: #339633;
      }

      .cls-34 {
        fill: #344e5d;
      }

      .cls-35 {
        fill: #8a3071;
      }

      .cls-36 {
        fill: #007c00;
      }

      .cls-37 {
        fill: #516c7a;
      }

      .cls-38 {
        fill: #596876;
      }

      .cls-39 {
        fill: #cfc6f5;
      }

      .cls-40 {
        fill: #f8eebc;
      }

      .cls-41 {
        fill: #a4b5bc;
      }

      .cls-42 {
        fill: #c9c8f7;
        opacity: .5;
      }

      .cls-43 {
        fill: #b3cde0;
      }

      .cls-44 {
        fill: #446172;
      }

      .cls-45 {
        fill: #8b3442;
      }

      .cls-46 {
        fill: #42609f;
      }

      .cls-47 {
        fill: #ffc147;
      }

      .cls-49 {
        mix-blend-mode: multiply;
      }
    </style>
  </defs>
  <g class="cls-48">
    <g id="Layer_2" data-name="Layer 2">
      <g>
        <path class="cls-19" d="M1514.39,1275.28c.48.19,1.01.31,1.56.37.31.03.63.04.94.02.08,0,.15,0,.22-.02.15-.01.3-.03.45-.05.09-.02.18-.03.26-.05.09-.02.18-.04.27-.05.11-.03.22-.06.32-.09.19-.06.37-.13.54-.21h.02c.86-.49,1.81-.7,2.59-.42.06.02.12.04.18.08.04.02.08.05.12.07.25.13.47.33.65.6,1.83,2.6,3.66,5.21,5.49,7.82.52.74,1.04,1.48,1.56,2.22.12.17.26.31.41.41.03.02.05.03.08.05.63.36,1.47.21,2.21-.22v1.12c-.96.56-2.07.77-2.9.29-.04-.02-.07-.04-.11-.06-.2-.13-.38-.31-.54-.54-2.35-3.34-4.7-6.69-7.05-10.03-.62-.89-1.75-.79-2.7-.24-1.07.62-2.65.73-3.9.37-.2-.31-.44-.6-.72-.84v-.56s.03-.02.04-.02Z"/>
        <path class="cls-32" d="M1561.16,1231.55c.11.06.24.12.36.17l1.19.69v9.96l-.12.06-13.23-7.64h0l-.11-.06v-10.06l11.91,6.88Z"/>
        <polygon class="cls-32" points="1563.15 1210.65 1563.15 1222.02 1548.47 1213.54 1548.47 1212.76 1548.47 1202.16 1563.15 1210.65"/>
        <polygon class="cls-21" points="1549.25 1224.67 1547.54 1223.68 1547.54 1215.37 1561.16 1223.24 1561.16 1231.51 1549.25 1224.64 1549.25 1224.67"/>
        <path class="cls-9" d="M1547.54,1213.29l.93-.53v.78l14.68,8.48,12.49-7.21v-3.11l2.76,1.59c.48.28.75.65.75,1.04h0c0,.37-.24.74-.75,1.04l-13.63,7.86c-1,.58-2.61.58-3.6,0l-13.62-7.86c-.51-.3-.75-.67-.75-1.03h0c0-.39.27-.77.75-1.05Z"/>
        <path class="cls-10" d="M1547.54,1215.37v8.31c-.55-.32-.75-.73-.75-1.04v-8.3c0,.37.23.74.75,1.03Z"/>
        <path class="cls-13" d="M1500.2,1237.33c-2.91-1.67-5.81-3.35-8.72-5.03-.23-.14-.44-.45-.44-.98,0-.58.24-1.16.56-1.66.25-.4.55-.75.99-.97.32-.17.73-.25,1.03-.09,2.9,1.67,5.79,3.35,8.69,5.02h0s-.1-.02-.16-.03c-.47-.08-1.01.3-1.34.64-.53.55-.95,1.4-.95,2.17,0,.44.14.75.36.93Z"/>
        <polygon class="cls-19" points="1535.41 1287.61 1535.41 1288.73 1532.27 1286.91 1532.27 1285.79 1535.41 1287.61"/>
        <path class="cls-31" d="M1529.36,1254.17v5.11s-.6-.35-1.22-.7c-.65-.37-1.32-.76-1.33-.77-1.28-.74-2.57-1.48-3.85-2.22h0c-.53-.31-1.06-.62-1.59-.92v-2.91c.44-.73.89-1.4,1.36-2.04.75.43,1.5.87,2.25,1.3h0c.02.48.22.76.43.88,1.32.76,2.63,1.52,3.93,2.27Z"/>
        <path class="cls-8" d="M1548.83,1278.04c-1.23.71-2.92.97-4.5.79-.97-.11-1.9-.39-2.66-.82l-10.81-6.25c-.19-.11-.38-.24-.56-.38-.36-.28-.69-.71-.84-1.16h-.01c-.9.53-1.8,1.04-2.7,1.56-.47.28-.94.55-1.41.82-1.25.73-2.5,1.45-3.75,2.16.05.03.1.06.15.09.04.02.08.05.12.07.25.13.47.33.65.6,1.83,2.6,3.66,5.21,5.49,7.82.52.74,1.04,1.48,1.56,2.22.12.17.26.31.41.41.03.02.05.03.08.05.63.36,1.47.21,2.21-.22l3.13,1.81,13.76-7.94c.02-.64.08-1.28.18-1.92l-.51.29Z"/>
        <path class="cls-36" d="M1562.6,1242.43l-16.16,9.33c-.64.37-1.7.35-2.36-.03l-10.81-6.24c-.66-.38-.7-1-.05-1.36l16.16-9.33h0l13.23,7.64Z"/>
        <path class="cls-33" d="M1531.51,1243.96c2.39-1.38,4.77-2.76,7.17-4.14,3.52-2.03,7.05-4.06,10.57-6.1v1.01l.11.06-16.16,9.33c-.64.37-.61.98.05,1.36l10.81,6.24c.65.38,1.72.41,2.36.03l16.16-9.33.12.07,10.34-5.98c1.28.8,2.28,2.59,2.28,4.09l-26.51,15.31c-2,1.15-5.2,1.09-7.16-.03l-10.81-6.25c-.79-.45-1.51-1.18-1.51-2.09,0-1.43.77-2.79,2.16-3.59Z"/>
        <path class="cls-31" d="M1530.87,1249.64l10.81,6.25c1.95,1.13,5.16,1.19,7.16.03v12.16c-.36.62-.7,1.24-1.02,1.86h0s.02.01.06.03c.02.02.04.03.06.04.01,0,.03.02.04.03.21.12.58.34.85.49v7.51c-1.23.71-2.92.97-4.5.79-.97-.11-1.9-.39-2.66-.82l-10.81-6.25c-.19-.11-.38-.24-.56-.38-.36-.28-.69-.71-.84-1.16-.06-.18-.1-.37-.1-.55v-15.49c1.62.94,3.25,1.87,4.87,2.81h0c.06.03.14.06.21.08.22.06.45,0,.65-.09,1.24-.52,2.06-2.51,1.58-3.36-.09-.15-.19-.25-.3-.33h0c-2.34-1.35-4.67-2.7-7-4.04v-1.69c0,.91.72,1.64,1.51,2.09Z"/>
        <path class="cls-34" d="M1526.81,1257.81s.68.4,1.33.77c-1.49,3.26-2.26,6.34-2.1,9.9.05,1.16.29,2.25.71,3.29-.47.28-.94.55-1.41.82-.08-.05-.16-.09-.24-.14-1.98-1.14-3.18-3.09-3.73-5.28v-6.7c.34-1.62.84-3.22,1.59-4.89,1.28.74,2.57,1.48,3.85,2.22Z"/>
        <g>
          <path class="cls-1" d="M1548.26,1236.78c.32,1.61,1.2,2.78,1.2,5.13,0,1.15-.21,2.32-.53,3.43-1.13-2.47-1.12-3.27-1.92-4.29.47-1.38.81-2.83,1.24-4.26Z"/>
          <path class="cls-31" d="M1543.06,1213.96c-.81,2.22-3.35,4.01-6.01,5.12,3.05-2.29,5.07-5.76,6.09-8.06.12.45.19.96.19,1.46s-.1,1.01-.27,1.49Z"/>
          <path class="cls-4" d="M1540.85,1247.83c-.76.3-1.62.55-2.59.75-.02.04-.04.08-.07.12.08-.37.12-.74.12-1.1,0-2.04-1.74-3.44-3.04-3.72,1.07-.71,3.15-2.02,4.74-2.84,1.49-11.21,1.52-10.92,2.58-13.15.05-3.34,3.47-5.87,6.86-5.87.36,0,.73.06,1.06.18.24,1.24.4,2.91.4,5.24,0,2.11-.67,4.59-1.47,6.75-.4.69-.79,1.39-1.02,2.09-.05.16-.1.32-.15.48-.44,1.43-.78,2.88-1.24,4.26-.94,2.83-2.38,5.35-6.17,6.8Z"/>
          <path class="cls-24" d="M1539.85,1202.16c.37.24.81.44,1.24.82-5.32.64-9.74,4.81-10.29,6.18-.47-.18-.91-.47-1.35-.72.36-1.25,2.6-5.13,7.44-6.51h0c.99,0,1.99.09,2.96.23Z"/>
          <path class="cls-23" d="M1536.12,1274.47c-.38,0-1.17.16-2.11-.17.18-.99,1.38-.91,1.43-1.19,0-.02,0-.03,0-.04,0-.33-.8-.53-.8-.84,0-.67,1.8-.04,1.8-1.85,0-2.56-.56-3.03-2.41-10.09-.07-.65-.1-1.19-.1-1.45,0-5.83,7.63-5.47,7.63-9.56,0-.61-.22-1.19-.73-1.45,3.79-1.45,5.23-3.97,6.17-6.8.8,1.02.8,1.82,1.92,4.29-.02.08-.04.15-.06.22.08.38.13.77.13,1.17,0,2.66-.54,5.19-2.15,6.86-2.55,1.72-6.74,3.88-9.01,4.88.4.78,1.13,2.39,1.13,4.04,0,.78-.14,1.56-.14,2.33,0,.95.42,1.51.42,2.28h0c0,.5-.22.95-.22,1.43,0,.62.64,1.6.69,3.27-.19.48-.46.96-.81,1.37-.48.56-1.1,1-1.94,1.18-.27.06-.55.09-.86.09Z"/>
          <path class="cls-1" d="M1535.66,1249.56c-.44-1.63-1.48-2.96-3.23-2.98h-.04c-.57,0-1.01.17-1.3.33.01-.02.02-.04.03-.06.51-.52,1.35-1.59,2.34-2.35.19-.14.38-.28.58-.4.16-.1.32-.18.49-.25.11-.01.21-.02.28-.02.14,0,.29.02.45.05,1.3.28,3.04,1.68,3.04,3.72,0,.36-.04.73-.12,1.1,0,0,0,0,0,0-.38.59-1.09.69-1.81.69-.22,0-.44-.01-.65-.02-.02.06-.04.12-.06.18Z"/>
          <path class="cls-1" d="M1534.04,1244.1c.16-1.41.48-3.03.48-6.67,0-.95-.58-4.19-.89-6.25,0-.09,0-.17,0-.26,0-2.71,1.46-5.88,1.61-10.7.64-.33,1.24-.71,1.81-1.14,2.66-1.12,5.2-2.9,6.01-5.12,4.19,2.57,6.09,4.87,7.42,8.13.01.04.02.08.02.12-.34-.11-.7-.18-1.06-.18-3.38,0-6.81,2.52-6.86,5.87-1.06,2.23-1.08,1.94-2.58,13.15-1.59.82-3.67,2.12-4.74,2.84-.16-.04-.31-.05-.45-.05-.08,0-.17.01-.28.02-.16.07-.32.15-.49.25Z"/>
          <path class="cls-16" d="M1534.01,1274.3c.94.32,1.73.17,2.11.17-.11,2.37-.3,8.28-2.66,8.28-.3,0-.68-.25-.68-.69,0-.4,1.27-3.51,1.27-5.67,0-.81-.21-1.47-.3-2.18h0c.09.03.18.07.27.1Z"/>
          <path class="cls-5" d="M1533.55,1239.24c0-2.82-.96-7.75-.96-9.72,0-.17,0-.33,0-.48.37-4.02,1.49-5.4,1.63-8.35h0c.35-.14.69-.29,1.01-.47-.15,4.82-1.61,7.98-1.61,10.7,0,.09,0,.17,0,.26.31,2.06.89,5.3.89,6.25,0,3.64-.32,5.26-.48,6.67-.2.12-.4.25-.58.4-.1-.21-.19-.42-.29-.62.29-1.61.38-4.47.38-4.63Z"/>
          <path class="cls-20" d="M1534.05,1276.39c0,2.17-1.27,5.28-1.27,5.67,0,.44.38.69.68.69,2.37,0,2.55-5.9,2.66-8.28.31,0,.59-.03.86-.09h0c.08,1.6.56,3.21.56,4.8,0,3.12-5.78,8.44-5.83,8.44-.02,0-.05,0-.08,0-.36-.02-.61-.14-.78-.32-.05-.27-.08-.54-.08-.81,0-2.37,1.91-5.02,2.37-8.78-.07-.69-.22-1.31-.22-2.46,0-.48.03-.95.11-1.43.24.17.49.31.72.41h0c.1.71.3,1.37.3,2.19Z"/>
          <path class="cls-46" d="M1526.35,1240.2c1.37,0,3.08.29,4.93.37.34.45.64.92.92,1.41-.35.06-.7.16-1.06.18-19.61,1.73-13.16,7.16-17.74,7.16-.3,0-.55-.1-.76-.26.62-7.11,9.93-8.87,13.71-8.87Z"/>
          <path class="cls-45" d="M1531.37,1288.49c-.27-.39-.43-.8-.52-1.21.18.18.43.3.78.32.03,0,.05,0,.08,0,.05,0,5.83-5.32,5.83-8.44,0-1.58-.49-3.2-.56-4.79h0c.83-.18,1.46-.63,1.94-1.19.04.51.1,1.02.1,1.53,0,.4-.09.8-.09,1.2,0,1.07.72,1.95.72,3.14,0,1.28-.5,1.78-.94,2.32-.99,3.62-2.29,7.29-6.15,7.29-.58,0-.93-.04-1.17-.19Z"/>
          <path class="cls-46" d="M1530.51,1255.39c.38-.49.48-1.7,1.42-4.02-.31,1.3-.69,2.63-.69,3.15,0,.46.14.79.66.79.06,0,.12,0,.19-.02.48-.74.93-2.71,1.47-3.96-.36,1.91-.62,2.09-.62,2.71,0,.41.21.86.59.86.03,0,.06,0,.08,0,1.03-1.22,1.02-2.33,1.5-3.93.14-.47.38-.94.55-1.41.02-.06.04-.12.06-.18.21.01.43.02.65.02.72,0,1.43-.1,1.81-.69,0,0,0,0,0,0,.03-.04.05-.08.07-.12.97-.2,1.82-.45,2.59-.75.51.27.73.84.73,1.45,0,4.09-7.63,3.72-7.63,9.56,0,.27.03.8.1,1.45,1.85,7.06,2.41,7.53,2.41,10.09,0,1.81-1.8,1.17-1.8,1.85,0,.31.8.51.8.84,0,.01,0,.03,0,.04-.05.28-1.25.2-1.43,1.19-.09-.03-.17-.06-.27-.1-.23-.1-.48-.23-.72-.41-.21-.15-.41-.32-.62-.53-.46-1.93-.58-5.26-.61-6.24-.23-.8-.56-1.59-.76-2.34-.01-.05-2.1-8.83-2.1-8.89,0-.51.16-1.05.59-1.81-.01.16-.02.31-.02.47,0,.62.38,1,.77,1,.08,0,.16-.02.24-.05Z"/>
          <path class="cls-31" d="M1536.89,1201.93c-4.84,1.39-7.08,5.26-7.44,6.51.44.25.88.54,1.35.72.56-1.37,4.97-5.54,10.29-6.18.37.32.75.77,1.09,1.48-4.7.64-7.25,6.27-10.35,6.27-.23,0-.47-.03-.67-.03-2.21,0-2.86-1.19-2.98-3.21h0s.03-.07.04-.1c.06-2.22,2.96-5.46,8.61-5.46h.05Z"/>
          <path class="cls-1" d="M1531.28,1240.57c-.07-.1-.15-.21-.23-.3-.97-2.37-.75-4.92-1.08-7.4-.78-2.11-2.24-6.96-2.24-8.43,0-.36.03-.7.07-1.03.19-1.52.74-2.77.94-4.18h0c.11.29.23.57.35.86.53.53,1.1.97,1.7,1.35,1.23-.05,2.38-.31,3.44-.74h0c-.14,2.96-1.27,4.34-1.63,8.35,0,.15,0,.31,0,.48,0,1.97.96,6.9.96,9.72,0,.16-.1,3.03-.38,4.63-.3-.64-.62-1.28-.97-1.89-.28-.49-.58-.96-.92-1.41Z"/>
          <path class="cls-4" d="M1506.36,1226.92s-.02-.01-.02-.02c1.69-1.77,6.42-2.32,8.62-2.96.54-.15,1.09-.47,1.65-.73,4.28-2.79,9.61-9.17,10.69-9.96.15,2.03.69,4.08,1.45,5.97h0c-.19,1.41-.75,2.67-.94,4.18-2.67,1.3-4.24,4.31-8.77,6.64-4.9.48-6.46,1.93-9.66,1.93-.61,0-1.19-.08-1.7-.28-.02,0-.04-.02-.06-.02.16-.45.23-.92.23-1.4,0-1.27-.53-2.54-1.48-3.37Z"/>
          <path class="cls-30" d="M1529.35,1219.32c-1.11-2.15-1.78-4.83-1.78-7.23,0-.38.01-.65.03-.87.69,1.37,1.54,2.04,3.76,2.04,5.07,0,6.44-3.19,7.9-3.19.66,0,1,.82,1,1.48,0,1.11-3.12,7.8-9.99,7.8-.31,0-.62-.01-.93-.03Z"/>
          <path class="cls-6" d="M1528.73,1219.22c-.75-1.89-1.3-3.94-1.45-5.97-.03-.36-.04-.71-.04-1.07,0-1.62.28-3.21.94-4.68.12,2.03.77,3.21,2.98,3.21.21,0,.44.03.67.03,3.1,0,5.65-5.63,10.35-6.27.54,1.1,1.01,2.83,1.32,5.69-.1.27-.22.55-.36.87-1.02,2.3-3.04,5.77-6.09,8.06-.57.43-1.17.81-1.81,1.14-.32.17-.67.32-1.01.46-1.06.43-2.2.69-3.44.74-.61-.38-1.17-.82-1.7-1.35-.12-.28-.24-.56-.35-.86ZM1527.57,1212.09c0,2.4.67,5.08,1.78,7.23.3.02.62.03.93.03,6.87,0,9.99-6.69,9.99-7.8,0-.65-.34-1.48-1-1.48-1.46,0-2.84,3.19-7.9,3.19-2.21,0-3.07-.67-3.76-2.04-.02.21-.03.49-.03.87Z"/>
          <path class="cls-23" d="M1520.96,1268.75c-.08.04-.15.08-.23.12-.81.43-1.16.47-2.36.47-.76,0-1.61-.14-2.37-.37-.41-.12-.79-.28-1.12-.44,0,0,0,0-.01,0-.28-.61-.55-1.22-.55-1.82,0-.37.08-.74.08-1.12,0-.5-.22-1.08-.41-1.67-.03-6.45-.91-6.65-.91-9.17,0-.56.04-1.12.04-1.68,0-1.48-.43-1.93-.51-3.53,0-.16.02-.31.03-.46.21.16.47.26.76.26,4.58,0-1.87-5.43,17.74-7.16.35-.03.71-.12,1.06-.18.35.61.67,1.25.97,1.89.1.21.19.42.29.62-.99.77-1.83,1.83-2.34,2.35,0,.02-.02.04-.03.06-.06.14-.15.28-.25.43,0,0,0,.01-.01.01-.34.24-.66.52-1.03.71-1.41.71-2.04,2.32-2.27,3.17-.57.21-1.27.27-2.02.27-1.11,0-2.31-.14-3.29-.14-.17,0-.34,0-.5.02h-.05c-.1,0-.21-.01-.31-.02.16,2.63,1.13,5.11,1.13,7.76v.05c-.01,2.26-.88,4.29-.88,6.44,0,.65-.35,1.69-.25,2.33-.12.27-.25.54-.41.8Z"/>
          <path class="cls-1" d="M1500.92,1233.09c-.19,0-.37,0-.54.03-.45.51-1.12,1.33-1.8,1.6-.1.02-.21.03-.3.03-.63,0-1-.38-1-.97,0-.04,0-.09,0-.12.85-.4,1.75-.9,1.94-1.79,0,0,1.66-.06,1.43-.36-1.48-1.92-3.17-1.71-3.87-1.51.03-.01.06-.03.1-.06.22-.16.59-.54.59-.78,0-.18-.21-.25-.39-.25-.16,0-.33.04-.47.06.13-.02.24-.06.33-.11.28-.15.41-.38.41-.5,0-.1-.07-.15-.17-.19.23-.04.41-.06.52-.06,1.28,0,3.29.48,4.7.48h.05c.97-.52,2.04-1.56,2.99-2.05.32.1.62.24.91.39.95.83,1.48,2.1,1.48,3.37,0,.48-.08.95-.23,1.4.02,0,.04.02.06.02-.81.39-1.75.58-2.68.58-.62,0-1.23-.09-1.78-.26-.72.68-1.08,1.07-2.09,1.07h-.18Z"/>
          <path class="cls-18" d="M1493.54,1233.98c.04-.55,1.02-2.06,1.57-2.86.56-.41,1.29-.89,1.67-1.12.7-.2,2.39-.41,3.87,1.51.22.29-1.43.36-1.43.36-.41-.3-.81-.42-1.23-.42-.54,0-1.08.2-1.65.48-.57.96-1.35,2.59-2.34,2.77-.25-.12-.46-.39-.46-.67,0-.01,0-.03,0-.04Z"/>
          <path class="cls-17" d="M1496.95,1228.85c-2.14.4-3.86,2.28-4.69,3.39-.24-.03-.49-.26-.49-.67,0-.32.15-.69.39-.91.81-1.34,3.73-2.25,5.02-2.5.1.04.17.09.17.19,0,.12-.12.36-.41.5Z"/>
          <path class="cls-7" d="M1492.25,1232.24c.83-1.1,2.55-2.99,4.69-3.39-.09.05-.2.09-.33.11.14-.02.31-.06.47-.06.18,0,.39.07.39.25,0,.24-.37.63-.59.78-.04.03-.07.05-.1.06-.38.23-1.11.71-1.67,1.12.02-.02.03-.04.04-.06-2.05,1.28-1.83,2.5-2.57,2.5-.21,0-.51-.24-.51-.64,0-.21.08-.44.18-.66h0Z"/>
        </g>
        <path class="cls-13" d="M1534.23,1256.98c-1.62-.94-3.25-1.87-4.87-2.81-1.31-.76-2.62-1.52-3.93-2.27-.22-.12-.41-.41-.43-.88,0-.03,0-.06,0-.1,0-.58.24-1.16.56-1.66.25-.4.55-.75.99-.97.02,0,.03-.02.04-.02.31-.15.7-.23.99-.06.6.35,1.2.69,1.8,1.04,2.33,1.35,4.67,2.69,7,4.04-.89-.53-2.53,1.07-2.57,2.72-.01.23.02.45.14.64.08.13.18.24.31.32h0Z"/>
        <path class="cls-31" d="M1568.53,1265.7c-3.34,1.93-6.98,5.67-9.49,10.72-.05-.03-4.04-2.33-4.08-2.35,3-5.89,7.25-10.19,11.1-12.42,2.89-1.67,6.34-2.63,9.28-1.46h0c.31.12.62.27.92.44,0,0,0,0,.01,0,.08.05.16.09.24.15,4.57,2.8,5.68,8.68,4.77,14.16,0,.03,0,.06-.01.09-.05.35-.44.56-.83.66,1.59-9.73-4.31-14.4-11.92-10Z"/>
        <path class="cls-11" d="M1576.77,1266.58c1.72,1.24,2.75,3.57,2.77,6.72h-.01c-.59-.34-1.17-.68-1.76-1.02.09-1.99-.18-3.97-1-5.7h0Z"/>
        <path class="cls-2" d="M1578.4,1215.37c.51-.3.75-.67.75-1.03v8.3c0,.44-.34.81-.75,1.04v-8.31Z"/>
        <polygon class="cls-2" points="1578.4 1215.37 1578.4 1223.68 1576.18 1224.96 1576.18 1224.97 1564.77 1231.55 1564.77 1223.24 1578.4 1215.37"/>
        <path class="cls-22" d="M1573.06,1236.53l-10.34,5.98v-10.09l.81-.47c.45-.05.89-.19,1.24-.4l11.41-6.58v9.76l-3.12,1.8Z"/>
        <polygon class="cls-22" points="1575.64 1211.7 1575.64 1214.81 1563.15 1222.02 1563.15 1210.65 1575.64 1203.44 1575.64 1211.7"/>
        <polygon class="cls-12" points="1575.64 1203.44 1563.15 1210.65 1548.47 1202.16 1560.95 1194.96 1575.64 1203.44"/>
        <path class="cls-36" d="M1575.34,1260.09v.09c-2.94-1.16-6.39-.21-9.28,1.46-3.85,2.22-8.1,6.52-11.1,12.42-1.28-.74-2.57-1.48-3.85-2.22-.65-.38-1.3-.75-1.96-1.13,3-5.89,7.25-10.19,11.1-12.42,3.16-1.82,7.05-2.83,10.22-1.01,1.62.94,3.25,1.87,4.88,2.81Z"/>
        <path class="cls-31" d="M1575.34,1240.61v19.48c-1.62-.94-3.25-1.88-4.88-2.81-3.01-1.74-7.26-1.94-12.03.81-3.91,2.26-7.25,5.99-9.61,9.99v-12.16l26.51-15.31Z"/>
        <path class="cls-14" d="M1567.6,1276.33h0s.02,0,.04.01l.03.02c.26.15.48.37.63.63.14.24.23.54.23.86,0,.86-.63,1.59-1.48,1.71-.36.05-.73-.02-1.04-.18h0c-.12-.07-.23-.17-.29-.28-.3-.47-.05-1.82.95-2.55.23-.17.51-.31.78-.27.05.01.1.03.15.05Z"/>
        <path class="cls-41" d="M1570.28,1273.43c0,4.62-3.96,9.72-7.31,10.32-1.74.31-2.99-.48-3.53-2.02.21-4.45,3.34-9.82,7.04-12.19h0c2.05-.4,3.79.86,3.79,3.9ZM1565.5,1275.1c-.1-.04-.2-.06-.3-.06-.52,0-1.53.81-1.7,2.05-.04.28-.04.57.12.8.06.08.14.16.22.21v.02c.66.38,1.33.77,2,1.16.04.02.08.05.12.07.02.01.04.02.05.03.31.17.68.23,1.04.18.85-.12,1.48-.85,1.48-1.71,0-.32-.09-.62-.23-.86-.15-.27-.37-.48-.63-.63l-.03-.02c-.67-.38-1.34-.77-2.01-1.16-.04-.03-.08-.05-.13-.08Z"/>
        <path class="cls-34" d="M1559.44,1281.72c.54,1.55,1.79,2.34,3.53,2.02,3.35-.6,7.31-5.7,7.31-10.32,0-3.04-1.75-4.29-3.79-3.9.12-.08.25-.16.38-.23,1.01-.58,2.57-1.19,3.58-.62.01,0,.02,0,.03.01.83.49,1.41,1.4,1.73,2.34.45,1.34.36,2.74.09,4.1-.68,3.46-2.48,6.54-5.1,8.83-1.04.91-2.21,1.69-3.59,1.97-.97.2-2.04.15-2.88-.32-.02-.01-.04-.03-.06-.04-1.07-.69-1.26-2.57-1.2-3.83h0Z"/>
        <path class="cls-14" d="M1565.84,1279.28c-.67-.39-1.34-.77-2.01-1.16v-.02c-.08-.05-.15-.13-.21-.21-.16-.22-.16-.52-.12-.8.17-1.24,1.19-2.05,1.7-2.05.1,0,.21.02.3.06.05.02.09.04.13.08.67.39,1.34.78,2.01,1.16-.02-.01-.03-.02-.04-.02h0s-.1-.03-.15-.04c-.27-.05-.55.09-.78.27-1,.73-1.25,2.09-.95,2.55.06.11.17.21.29.27h0s-.04-.01-.05-.02c-.04-.02-.08-.05-.12-.07Z"/>
        <path class="cls-21" d="M1561.16,1223.24c1,.58,2.6.58,3.6,0v8.31c-.36.21-.79.34-1.24.4-.68.09-1.4.02-2-.22l-.36-.21v-8.28Z"/>
        <path class="cls-47" d="M1562.72,1232.41l-1.19-.69c.6.24,1.32.31,2,.22l-.81.47Z"/>
        <path class="cls-31" d="M1559.04,1276.42c2.51-5.06,6.14-8.79,9.49-10.72,7.61-4.39,13.5.27,11.92,10-.38.1-.76.21-1.14.3.15-.96.22-1.86.22-2.7-.01-3.16-1.05-5.48-2.77-6.72-1.33-.96-3.06-1.27-5.02-.83-1.02.23-2.09.65-3.21,1.3-3.04,1.75-6.37,5.19-8.65,9.85-.17-.1-.33-.19-.5-.29-.11-.07-.23-.14-.34-.2Z"/>
        <path class="cls-37" d="M1566.48,1269.53c-3.69,2.37-6.83,7.73-7.04,12.19h0c-.06,1.27.14,3.15,1.2,3.84.02.02.04.03.06.04.84.47,1.91.52,2.88.32,1.39-.28,2.55-1.06,3.59-1.97,2.62-2.29,4.42-5.37,5.1-8.83.27-1.36.36-2.76-.09-4.1-.32-.94-.9-1.85-1.73-2.34-.01,0-.02-.01-.03-.01-1.02-.56-2.58.04-3.58.62-.13.08-.25.15-.38.23h0ZM1557.99,1286.05c-.66-3.03.17-6.59,1.4-9.43.17.09.33.19.5.29,2.28-4.67,5.61-8.1,8.65-9.85,1.12-.65,2.2-1.08,3.21-1.3,1,0,2.05.31,2.87.9.87.63,1.48,1.57,1.87,2.59,2.33,6.17-2.96,17.43-10.19,20.64-1.33.59-2.8.95-4.2.67-1.04-.21-2.05-.79-2.75-1.6-.71-.81-1.12-1.84-1.35-2.9Z"/>
        <path class="cls-34" d="M1559.38,1276.62c-1.23,2.84-2.06,6.4-1.4,9.43.23,1.06.64,2.09,1.35,2.9.7.81,1.71,1.39,2.75,1.6,1.4.29,2.87-.08,4.2-.67,7.23-3.21,12.52-14.47,10.19-20.64-.38-1.01-1-1.96-1.87-2.59-.82-.59-1.87-.89-2.87-.9,1.96-.44,3.7-.13,5.02.83h0c.82,1.74,1.09,3.72,1,5.7-.06,1.36-.29,2.72-.62,3.99-1.16,4.44-3.83,8.95-7.37,12.1-2.69,2.39-6.29,4.25-9.83,3.65-.86-.15-1.67-.43-2.43-.87-1.42-.82-2.84-1.63-4.25-2.45-2.78-1.61-3.97-4.7-4.08-7.92-.02-.26-.02-.53-.02-.78,0-.11,0-.22.01-.34.02-.64.08-1.28.18-1.92.3-2.04.94-4.07,1.76-5.9,1.28.74,2.57,1.48,3.85,2.22.04.02,4.03,2.33,4.08,2.35.11.06.23.13.34.2Z"/>
        <path class="cls-31" d="M1551.11,1271.84c-.82,1.83-1.46,3.86-1.76,5.9l-.51.29v-7.51c.17.1.3.17.31.18.65.38,1.3.75,1.96,1.13Z"/>
        <path class="cls-31" d="M1558.44,1258.09c4.76-2.75,9.02-2.55,12.03-.81-3.17-1.82-7.06-.81-10.22,1.01-3.85,2.22-8.1,6.52-11.1,12.42-.02-.01-.14-.08-.31-.18-.27-.16-.64-.37-.85-.49-.02-.01-.03-.02-.04-.03-.02-.02-.04-.03-.06-.04-.04-.02-.06-.03-.06-.03h0c.31-.62.65-1.24,1.02-1.86,2.35-3.99,5.69-7.73,9.61-9.99Z"/>
        <path class="cls-19" d="M1549.16,1280.79l-13.75,7.94v-1.12l13.76-7.94c0,.11-.01.22-.01.34,0,.26,0,.52.02.78h-.01Z"/>
        <path class="cls-38" d="M1536.67,1253.62c.49.85-.34,2.84-1.58,3.36-.21.09-.44.15-.65.09-.07-.02-.14-.05-.21-.09-.12-.08-.23-.19-.31-.32-.11-.19-.15-.42-.14-.64.04-1.66,1.68-3.25,2.57-2.72h0c.11.08.22.18.3.33Z"/>
        <path class="cls-34" d="M1529.46,1270.22h-.01c-.9.53-1.8,1.04-2.7,1.56-.42-1.04-.66-2.13-.71-3.29-.16-3.57.61-6.64,2.1-9.9.62.36,1.21.7,1.22.7v10.38c0,.18.04.37.1.55Z"/>
        <path class="cls-8" d="M1524.98,1250.92s0,.06,0,.1h0c-.75-.43-1.5-.87-2.25-1.3-.06-.04-.13-.08-.19-.11-.24-.14-.48-.28-.71-.41-.42-.24-.83-.48-1.24-.72-.17-.1-.33-.33-.33-.73,0-.68.54-1.65,1.15-1.96.24-.12.55-.19.77-.06.42.24.83.48,1.24.72.24.14.48.28.72.42.03.02.06.04.1.06.78.45,1.56.9,2.34,1.35-.02,0-.03.02-.04.02-.44.22-.74.57-.99.97-.31.5-.56,1.08-.56,1.66Z"/>
        <path class="cls-31" d="M1513.88,1254.54v-6.24c0-2.8,1.73-5.88,3.78-7.59.52.28,1.04.55,1.56.82h0c1.76.93,1.85.97,2.13,1.04.85.22,1.72-.16,2.2-1.15.05-.1.09-.19.11-.28,1.07,1.57,1.19,3.72.48,5.7-.24-.14-.48-.28-.72-.42.09-.53.1-1.25-.24-1.65-.27-.32-.76-.43-1.2-.35-1.06.19-2.69,2.01-2.69,3.87,0,.3.03.61.18.88.14.27.4.49.69.57.56.16,1.22-.2,1.67-.57.24.14.48.28.71.41-.38.45-.74.79-1.16,1.12v23.1l-.7.41-1.39.8c-.1.06-.21.11-.32.17h0c-.17.08-.35.15-.54.21-.11.03-.22.06-.32.09-.09.02-.17.04-.27.05-.08.02-.17.03-.26.05-.15.02-.3.04-.45.05-.08,0-.15.01-.22.02-.31.02-.63,0-.94-.02-.55-.05-1.08-.17-1.56-.37v-1.74c-.19-.09-.35-.18-.51-.28v-6.83c.35-.5.58-1.11.66-1.7.05-.34.07-.68.07-1.02,0-1.22-.27-2.46-.73-3.63v-5.54Z"/>
        <path class="cls-24" d="M1520.41,1239.37c.56-.06,1.16.02,1.65.29.06.03.11.06.17.11.32.19.61.43.86.68-.32,1.1-1.26,1.58-2.17,1.12-.87-.44-1.74-.89-2.6-1.35.69-.47,1.41-.77,2.09-.85Z"/>
        <path class="cls-28" d="M1529.27,1287.13c-4.5-2.59-9-5.19-13.49-7.79h0c.04-.94-.21-1.88-.7-2.65,1.25.36,2.83.25,3.9-.37.95-.55,2.08-.65,2.7.24,2.35,3.34,4.7,6.69,7.05,10.03.16.23.34.41.54.54Z"/>
        <path class="cls-35" d="M1519.28,1248.31c0-1.86,1.63-3.68,2.69-3.87.43-.08.93.03,1.2.35.34.4.34,1.13.24,1.65-.42-.24-.83-.48-1.24-.72-.22-.13-.53-.06-.77.06-.62.31-1.15,1.28-1.15,1.96,0,.4.16.63.33.73.42.24.83.48,1.24.72-.44.37-1.11.73-1.67.57-.29-.08-.55-.31-.69-.57-.15-.27-.18-.58-.18-.88Z"/>
        <path class="cls-39" d="M1519.22,1241.53c-.52-.27-1.04-.55-1.56-.82.22-.18.44-.35.66-.49.87.47,1.74.91,2.6,1.35.9.46,1.85-.02,2.17-1.12.22.22.41.45.57.7-.03.09-.06.18-.11.28-.48.99-1.35,1.36-2.2,1.15-.29-.08-.37-.12-2.13-1.03h0Z"/>
        <path class="cls-8" d="M1518.56,1295.18c.49-3.03.35-6.79-1.51-9.23-.64-.85-1.52-1.55-2.5-1.96.31-1.04.62-2.09.92-3.14,3.96,3.11,4.76,8.62,3.92,13.64,0,.01,0,.02,0,.03-.06.36-.47.56-.83.66Z"/>
        <path class="cls-8" d="M1521.56,1274.77c-.78-.28-1.73-.06-2.59.43h-.02c.11-.06.22-.12.32-.18l1.39-.8c.31.17.62.35.92.53-.01,0-.02.01-.03.02Z"/>
        <path class="cls-19" d="M1518.56,1295.18c-.38.1-.76.21-1.14.3.14-.86.22-1.78.21-2.7-.02-1.94-.41-3.9-1.46-5.37-.36-.5-.8-.96-1.29-1.33-.25-.19-.51-.35-.79-.49.16-.54.31-1.07.47-1.61.98.41,1.85,1.11,2.5,1.96,1.86,2.44,2,6.21,1.51,9.23Z"/>
        <path class="cls-39" d="M1518.32,1240.22c-.22.14-.44.31-.66.49-3.21-1.72-6.4-3.55-9.47-5.5.21-.17.41-.32.62-.46,3.09,1.94,6.29,3.77,9.51,5.47Z"/>
        <path class="cls-44" d="M1517.63,1292.78c-.58-.34-1.17-.68-1.76-1.02.09-1.98-.18-3.95-.99-5.68.5.36.94.82,1.29,1.33,1.04,1.48,1.44,3.44,1.46,5.37Z"/>
        <path class="cls-36" d="M1513.84,1275.49c.18.11.36.23.51.36.28.24.52.52.72.84.49.77.74,1.72.7,2.65-.01.37-.06.74-.17,1.09-.06.22-.58.19-.82.16-.45-.06-.8-.16-1.23-.36-.21-.1-.67-.36-.6-.58,0-.02.01-.03.01-.04.19-.72-.14-1.53-.5-1.73h0c-.24-.14-.3-.49-.28-.79.04-.51.42-1.16.83-1.45.25-.17.58-.3.82-.16h0Z"/>
        <path class="cls-43" d="M1514.78,1280.6c.23.03.75.05.82-.16-.04.14-.08.27-.12.41-.3,1.04-.61,2.09-.92,3.14-.15.54-.31,1.07-.47,1.61-.14.48-.28.96-.42,1.45-1.02,3.49-2.05,6.99-3.07,10.48h0s0,.01,0,.01c-.07.22-.58.19-.81.16-.45-.06-.8-.16-1.23-.36-.21-.1-.66-.35-.6-.57h0c.68-2.34,1.36-4.68,2.05-7.01.42-1.44.84-2.87,1.26-4.31.03-.12.07-.25.11-.38.15-.5.3-1.01.44-1.52.38-1.29.75-2.58,1.13-3.86-.06.22.39.48.6.58.43.2.77.3,1.23.36Z"/>
        <path class="cls-3" d="M1512.57,1234.18c3.17,1.82,6.33,3.65,9.49,5.48-.48-.28-1.08-.35-1.65-.29-.68.08-1.4.38-2.09.85-3.22-1.7-6.42-3.52-9.51-5.47.7-.48,1.42-.78,2.12-.86.51-.06,1.04,0,1.49.22.05.02.1.05.15.08Z"/>
        <path class="cls-31" d="M1512.18,1277.09c-.03.3.03.65.28.79h0c.36.21.69,1.01.5,1.73-.36.18-.81.3-1.2.21-.12-.03-.23-.08-.34-.15-.24-.16-.45-.4-.57-.65-.62-1.32.55-4.3,2.44-5.23.34-.17.73-.29,1.09-.25v1.74s-.03.02-.04.02v.56c-.16-.14-.33-.25-.51-.36h0c-.24-.14-.57-.02-.82.16-.42.29-.79.93-.83,1.45Z"/>
        <path class="cls-8" d="M1497.16,1295.9s-4.05-2.33-4.08-2.35c3-5.9,7.25-10.2,11.1-12.42,2.42-1.4,4.55-1.94,6.32-1.97.31.18.61.35.92.53v-.02c.11.07.23.12.35.15.39.1.83-.03,1.2-.21,0,.02,0,.03-.01.04-.38,1.29-.75,2.58-1.13,3.86-1.47.05-3.21.52-5.18,1.65-3.33,1.93-6.97,5.65-9.48,10.72Z"/>
        <path class="cls-19" d="M1504.69,1275.8c1.94,1.12,3.88,2.24,5.81,3.36-1.77.03-3.9.57-6.32,1.97-3.85,2.22-8.1,6.51-11.1,12.42-1.28-.74-2.57-1.48-3.85-2.22-.65-.38-1.3-.75-1.96-1.13,3-5.9,7.25-10.2,11.1-12.42,2.42-1.4,4.56-1.94,6.32-1.97Z"/>
        <path class="cls-24" d="M1507.74,1234.08c1.03-.49,2.18-.69,3.36-.45.47.1.92.26,1.32.48-.45-.22-.99-.28-1.49-.22-.69.08-1.41.38-2.12.86-.36-.22-.71-.45-1.07-.68Z"/>
        <path class="cls-39" d="M1507.03,1234.47c.23-.15.47-.28.71-.39.35.23.71.45,1.07.68-.21.14-.42.29-.62.46-.38-.24-.77-.49-1.15-.75Z"/>
        <path class="cls-36" d="M1507.39,1297.18s.06.02.09.04c0,0,0,0,.01,0h0s.06.03.08.03c.02,0,.03,0,.03,0,.04,0,.08-.03.11-.06.12-.11.2-.29.24-.44h0c-.06.22.39.48.6.57.43.2.77.3,1.23.36.23.03.74.06.81-.16-.38,1.35-1.37,2.22-2.47,2.44-.67.14-1.37.03-2.02-.36-.24-.14-.3-.49-.28-.79.04-.5.41-1.15.83-1.45.22-.15.5-.26.73-.19Z"/>
        <path class="cls-15" d="M1504.75,1298.7c-.09-.2-.08-.45-.04-.67.06-.31.21-.63.4-.89.22-.3.58-.62.93-.64.1-.02.19,0,.29.04.36.21.72.42,1.07.62,0,0,0,0,0,.01-.22-.06-.51.04-.73.19-.42.29-.79.94-.83,1.45-.02.3.04.65.28.79-.03-.02-.06-.04-.09-.05-.39-.23-.77-.47-1.16-.7-.04-.04-.07-.1-.1-.15Z"/>
        <path class="cls-41" d="M1501.97,1297.62c.7.4,1.4.81,2.09,1.21h.01c.22.12.49.13.68-.12.03.05.06.11.1.15.39.23.77.47,1.16.7-1,1.39-2.44,2.79-4.05,3.42-2.24.87-3.81-.03-4.41-1.76h0c.14-3.01,1.63-6.46,3.73-9.11,1-1.25,2.12-2.32,3.31-3.07.46-.09.95-.11,1.4,0,.71.16,1.35.63,1.76,1.24.5.76.64,1.76.64,2.66,0,1.19-.29,2.66-1,4.25-.35-.21-.71-.41-1.07-.62-.09-.04-.19-.06-.29-.04.12-.28-.03-.52-.25-.65h0c-.71-.42-1.43-.83-2.14-1.24h0c-.1-.03-.21-.05-.3-.05-.52,0-1.53.81-1.7,2.05-.04.28-.04.57.12.8.06.09.14.16.22.21h0Z"/>
        <path class="cls-34" d="M1505.99,1289.01c-.45-.11-.94-.09-1.4,0,.13-.09.26-.16.39-.24,1.01-.58,2.58-1.19,3.59-.62,0,0,.01,0,.02,0,.56.32,1.06.84,1.42,1.56h0c-.69,2.34-1.37,4.67-2.05,7.01h0s0,0,0,0c-.04.15-.12.34-.24.44-.03.03-.07.06-.11.06,0,0-.01,0-.03,0-.02,0-.04-.02-.08-.03h0s0,0-.01,0c-.03-.02-.05-.03-.08-.05.71-1.6,1-3.07,1-4.25,0-.9-.14-1.89-.64-2.66-.41-.61-1.05-1.08-1.76-1.24Z"/>
        <path class="cls-36" d="M1503.84,1298.6c-.3-.44-.11-1.76.9-2.55.23-.17.49-.32.77-.29.09.01.19.04.27.09.22.13.37.37.25.65-.34.03-.71.34-.93.64-.19.26-.34.58-.4.89-.04.22-.04.47.04.67-.18.25-.46.24-.68.11-.09-.05-.17-.13-.23-.22Z"/>
        <path class="cls-43" d="M1504.38,1242.82c0-2.81,1.74-5.89,3.8-7.61,3.07,1.95,6.26,3.78,9.47,5.5-2.06,1.72-3.78,4.79-3.78,7.59v11.77c-1.37-3.5-4.43-6.41-6.88-6.59-.6-.04-1.22.05-1.74.35-.04.03-.09.05-.14.08-.25.14-.49.28-.74.42h0v-11.52Z"/>
        <path class="cls-31" d="M1505.3,1235.99c.5-.59,1.08-1.1,1.72-1.51,0,0,.01,0,.02-.01.38.25.77.5,1.15.75-2.07,1.72-3.8,4.8-3.8,7.61v11.51h0c-.3.17-.6.35-.89.52-.03.02-.06.03-.09.05-.04.03-.09.05-.14.08v-13.72c0-.84.16-1.7.45-2.53.35-1,.9-1.94,1.59-2.75Z"/>
        <path class="cls-40" d="M1503.42,1256.46c.1-.03.21-.04.32-.05,1.37-.13,2.88.87,3.88,1.88,1.96,1.99,3,4.65,3,6.7,0,1.13-.3,1.98-.81,2.54h0c-3.45.98-7.57-3.11-7.67-7.45-.03-1.34.34-2.69,1.28-3.62Z"/>
        <path class="cls-31" d="M1502.16,1268.22c.33-.28.71-.51,1.1-.63.23-.08.46-.11.69-.08.13.09.27.17.43.27,3.16,1.82,6.33,3.65,9.49,5.48.16.1.32.18.51.28-.37-.04-.75.08-1.09.25-1.89.94-3.06,3.91-2.44,5.23.12.26.32.5.57.65v.02c-.32-.18-.62-.35-.93-.53-1.94-1.12-3.88-2.24-5.81-3.36-.18-.1-.36-.21-.55-.31-1-.58-2-1.16-3-1.73-.05-.03-.1-.06-.16-.09-.42-.24-.62-.73-.68-1.26-.03-.21-.03-.42-.02-.63.04-.89.48-1.88,1.06-2.66.26-.35.54-.65.83-.89Z"/>
        <path class="cls-36" d="M1501.63,1296.6c.17-1.24,1.18-2.06,1.7-2.05.1,0,.21.02.3.06h0c.71.4,1.43.81,2.14,1.22h0c-.08-.04-.18-.07-.27-.08-.28-.03-.54.12-.77.29-1.01.78-1.2,2.11-.9,2.55.06.09.14.16.23.22h-.01c-.7-.39-1.4-.8-2.09-1.2h0c-.09-.06-.16-.14-.22-.22-.16-.22-.16-.52-.12-.8Z"/>
        <path class="cls-29" d="M1503.95,1267.51c-.23-.03-.46,0-.69.08v-1.4c1,1.26,2.2,2.28,3.5,2.83,1.23.53,2.32.5,3.14.02h0c.44-.25.89-.51,1.33-.76.58-.34,1.17-.68,1.76-1.02.34-.19.63-.49.87-.83v6.83c-3.17-1.82-6.33-3.65-9.49-5.48-.16-.1-.3-.18-.43-.27Z"/>
        <path class="cls-14" d="M1502.88,1255.34c-.26.06-.5.16-.72.29.37-.22.74-.43,1.1-.64.04-.03.09-.05.14-.08.03-.02.06-.04.09-.05.3-.17.6-.35.89-.51.24-.15.49-.29.74-.42.04-.03.09-.05.14-.08.51-.3,1.14-.4,1.74-.35,2.46.18,5.51,3.09,6.88,6.59.46,1.17.73,2.41.73,3.63,0,.34-.02.68-.07,1.02-.08.58-.31,1.2-.66,1.7-.24.34-.53.64-.87.83-.59.34-1.18.68-1.76,1.02-.44.25-.89.51-1.33.77h0c1-.58,1.61-1.82,1.61-3.55,0-3.88-2.98-8.49-6.21-9.86-.93-.39-1.74-.47-2.42-.3Z"/>
        <path class="cls-26" d="M1504.44,1266.38c-1.24-1.26-2.23-2.93-2.71-4.68-.31-1.15-.45-2.58-.01-3.69.25-.63.63-1.06,1.1-1.32.19-.1.39-.18.61-.23-.94.93-1.32,2.27-1.28,3.62.1,4.34,4.22,8.43,7.67,7.45-.14.16-.31.3-.49.41-.01,0-.03.02-.04.02-1.2.7-3.05.24-4.84-1.57Z"/>
        <path class="cls-8" d="M1501.47,1234.18c.25-.11.47-.11.63-.04.03.01.05.03.08.04.23.13.45.26.68.4.81.47,1.62.94,2.44,1.41-.69.81-1.23,1.75-1.59,2.75-.81-.47-1.63-.94-2.44-1.41-.22-.12-.45-.25-.67-.38h0c-.22-.1-.37-.35-.37-.76,0-.77.61-1.72,1.24-2.01Z"/>
        <path class="cls-25" d="M1501.73,1261.7c.48,1.75,1.47,3.42,2.71,4.68,1.8,1.82,3.64,2.27,4.84,1.57.01,0,.03-.02.04-.02.18-.11.35-.25.49-.41h0c.51-.56.81-1.41.81-2.54,0-2.05-1.03-4.71-3-6.7-.99-1.01-2.5-2.01-3.88-1.88-.11.01-.22.03-.32.05-.22.05-.42.12-.61.23-.47.26-.85.69-1.1,1.32-.44,1.11-.3,2.54.01,3.69ZM1503.26,1266.19c-2.15-2.73-3.35-6.57-2.37-9.02.27-.68.7-1.22,1.27-1.55.22-.13.46-.23.72-.29.68-.17,1.5-.09,2.42.3,3.23,1.36,6.21,5.98,6.21,9.86,0,1.73-.61,2.97-1.61,3.55-.82.48-1.91.51-3.14-.02-1.29-.55-2.5-1.57-3.5-2.83Z"/>
        <path class="cls-36" d="M1499.6,1272.17c-.23-.1-.77-.38-.69-.62h0c.34-1.18,1.22-2.18,2.43-2.44-.57.78-1.01,1.77-1.06,2.66-.01.21,0,.42.02.63h-.02c-.23-.05-.47-.14-.68-.23Z"/>
        <path class="cls-38" d="M1500.23,1236.19c0,.41.16.65.37.75h0c.22.14.45.27.67.39-.42.21-.8.21-1.07,0-.22-.17-.36-.48-.36-.93,0-.77.42-1.62.95-2.17.33-.34.88-.72,1.34-.64.05.01.11.03.16.04.16.06.3.17.39.31.12.18.16.41.17.63-.23-.14-.45-.27-.68-.4-.03-.02-.05-.03-.08-.04-.16-.07-.37-.07-.63.04-.63.29-1.24,1.24-1.24,2.01Z"/>
        <path class="cls-43" d="M1499.6,1272.17c.21.09.45.18.68.23h.02c.06.52.27,1.02.68,1.26.05.03.1.06.16.09-.21.71-.42,1.43-.63,2.15-1.13.3-2.21.74-3.25,1.28h0c.55-1.88,1.1-3.76,1.65-5.63-.08.24.46.53.69.62Z"/>
        <path class="cls-19" d="M1500.86,1291.77c-1.06,1.35-2.04,2.9-2.87,4.61-.16-.1-.33-.19-.49-.29-.11-.06-.23-.14-.34-.2,2.52-5.07,6.15-8.8,9.48-10.72,1.96-1.13,3.71-1.6,5.18-1.65-.15.5-.3,1.01-.44,1.52-.47.01-.96.07-1.49.18-.99.22-2.07.63-3.25,1.31-1.93,1.11-3.97,2.89-5.78,5.24Z"/>
        <path class="cls-34" d="M1497.56,1301.2c.6,1.74,2.17,2.64,4.41,1.76,1.61-.63,3.05-2.02,4.05-3.42.03.02.06.04.09.05.65.38,1.36.49,2.02.36-1.11,1.75-2.65,3.44-4.43,4.47-1.95,1.13-4.29,1.43-5.7-.33-.4-.86-.48-1.94-.44-2.88h0s0-.01,0-.01Z"/>
        <path class="cls-37" d="M1513.67,1287.04c-1.02,3.49-2.05,6.99-3.07,10.48h0s0,.01,0,.01c-.38,1.35-1.37,2.22-2.47,2.44-1.11,1.75-2.65,3.44-4.43,4.47-1.95,1.13-4.29,1.43-5.7-.33-.4-.86-.48-1.94-.44-2.88h0c.14-3.03,1.63-6.47,3.73-9.12,1-1.25,2.12-2.32,3.31-3.07.13-.09.26-.16.39-.24,1.01-.58,2.58-1.19,3.59-.62,0,0,.01,0,.02,0,.56.32,1.06.84,1.42,1.56h0c.42-1.44.84-2.87,1.26-4.31.03-.12.07-.25.11-.38-.47.01-.96.07-1.49.18-.99.22-2.07.63-3.25,1.31-1.93,1.11-3.97,2.89-5.78,5.24-1.06,1.35-2.04,2.9-2.87,4.61-.16-.1-.33-.19-.49-.29-4.07,9.35-.13,16.51,7.04,13.2,4.97-2.29,9.8-9.04,10.52-15.7.24-2.23,0-4.8-1.39-6.56Z"/>
        <path class="cls-34" d="M1493.08,1293.54s4.04,2.34,4.08,2.35c.11.06.23.14.34.2-4.07,9.35-.13,16.51,7.04,13.2,4.97-2.29,9.8-9.04,10.52-15.7.24-2.23,0-4.8-1.39-6.56.14-.48.28-.96.42-1.45.28.14.54.3.79.49.81,1.73,1.08,3.71.99,5.68-.06,1.36-.29,2.72-.63,3.99-1.16,4.43-3.81,8.94-7.37,12.1-3.47,3.08-8.29,5.08-12.26,2.78l-4.25-2.45c-3-1.73-4.15-5.22-4.1-8.7.04-2.78.83-5.65,1.96-8.16,1.28.74,2.57,1.48,3.85,2.22Z"/>
        <path class="cls-8" d="M1498.36,1277.77c-3.85,2.22-8.1,6.51-11.1,12.42-.32-.18-.62-.35-.85-.49-.03-.02-.06-.04-.09-.05s-.05-.03-.08-.04c-.02-.01-.03-.02-.04-.03s-.02-.01-.03-.02c-.05-.03-.09-.05-.12-.07,0,0,0,0,0,0-.02,0-.03-.02-.04-.02h0s-.02-.02-.03-.02c-.02-.01-.03-.02-.03-.02h0c2.35-4.68,6.11-9.25,10.62-11.85.23-.14.47-.27.7-.38,1.03-.54,2.12-.99,3.25-1.28,1.18-.31,2.4-.47,3.63-.42.18.1.36.21.55.31-1.76.03-3.9.57-6.32,1.97Z"/>
        <g class="cls-49">
          <path class="cls-27" d="M1511.65,1281.72c-.69-1.24-1.68-1.99-2.77-2.63-1.88-1.1-3.78-2.19-5.7-3.3.55-.68,1.46.01,1.46.01,0,0,4.41,2.54,6.38,3.67-.91-1.74.28-4.16,1.75-5.47-2.65-1.15-5.41-1.95-7.18-4.4.57-.6,1.08-.52,1.56-.37,2.12.66,4.24-.54,4.34-3.33.04-1.19-.33-2.32-.45-3.65.85-.49,2.02-1.06,3-1.63.65,1.48,1.01,2.9,1.62,4.29.09-.01.18-.02.27-.03.04-.33.1-.65.1-.98,0-4.57.02-9.13,0-13.7,0-.87.17-1.56.81-2.25,1.07-1.15,1.88-2.56,2.96-3.69,1.08-1.13,3.21-1.63,3.81-3.11,1.13,1.83,1.17,3.88.48,5.7-1.99-.73-2.52-1.06-3-.16-.53.98.05,1.92,1.41,2.91-.32.54-1.16,1.12-1.16,1.12v23.1l-.7.41s.95.51,1.63,1.02c.18-.1.75.22.95.12,1.5-.79,2.87-.95,4.42.14,1.9,1.33,4.02,2.34,6,3.56,1.32.81,2.56,1.76,3.83,2.65.76.54,1.52.67,2.47.37,1.52-.48,3.12-.54,4.69-.28.57.09.99-.04,1.44-.31.91-.54,1.84-1.05,2.92-1.66.06.5.07.85.16,1.18.31,1.12.6,2.24.99,3.33.15.41.47.85.83,1.09,1.17.74,2.4,1.39,3.69,2.13,1.71-5.56,1.95-6.43,2.55-8.2.24-.71.21-1.25-.4-1.72-.26-.2-.46-.48-.73-.65-1.86-1.13-3.73-2.25-5.65-3.4-.83,1.68-.96,3.46-1.36,5.23h-4.28c-.23-2.34-.05,2.61-.14-20.96,0-.81.19-1.27,1.03-1.54.69-.22,1.29-.7,1.93-1.08,2.51-1.5,5.01-3.03,7.54-4.51,3.41-2,6.85-3.95,10.28-5.93.43-.25.84-.54,1.33-.86-1.03-1.35-4.06-1.44-4.06-1.44,0,0,.05-13.79.05-15.04,0-1.25-.03-3.81-.03-3.81,0,0,.82.11,1.74-.26.31-.12,1.09-.62,1.85-1.05,0,0,.11-.29.08-.42-1.02,0-3.26.1-3.26.1v-11.37l12.49-7.21v8.26l2.9,1.68s.66.32.63,1.32c-.08,2.42-.06,4.96,0,7.38.02,1.14-.51,1.53-.77,1.61-.26.07-2.22,1.28-2.22,1.28v9.76l-3.12,1.8s.56.34.72.63c1.19,1.18,1.57,2.41,1.56,4.08-.05,17.14,0,18.95,0,18.95,0,0-1.27-.86-1.94-1.23-1.87-1.06-3.61-2-5.83-2.16-2.97-.22-5.6.56-8,2.22-1.66,1.15-3.08,2.57-4.19,4.26-.92,1.42-2.14,2.43-3.66,3.12-1.61.72-2.91,1.8-3.82,3.32.69.8,7.53,4.87,10.22,6.08.26-.41.54-.82.8-1.24,2.36-3.85,5.2-7.26,9.01-9.77,2.21-1.46,4.57-2.48,7.24-2.69.23-.02.46-.02.7-.03,1.9-.08,3.36.56,4.15,2.4.14.34.36.64.59,1.03,1.98-.13,3.85.34,5.66,1.15.32.14.89-.07,1.26-.27,2.45-1.34,4.89-2.7,7.29-4.11.92-.54,1.86-.79,2.92-.77,1.54.03,3.08.05,4.61,0,1.16-.05,2.22.2,3.18.84.69.46,1.42.67,2.24.58.97-.11,1.8.2,2.63.69,4.33,2.54,8.69,5.03,13.17,7.62-.32.25-.53.47-.78.61-3.62,2.11-7.24,4.21-10.87,6.3-.34.2-.78.28-1.19.32-.55.05-1.12.06-1.67,0-1.35-.14-2.57.16-3.67.96-.82.6-1.77.77-2.78.74-1.12-.04-2.24-.01-3.35,0-.79,0-1.53.06-2.32.33-.76.26-1.66.19-2.49.12-1.33-.11-2.47.22-3.56,1.19.37.25.73.5,1.09.74.42.28.89.52,1.27.86,1.18,1.04,1.32,2.12.49,3.47-.77,1.26-1.88,2.17-3.05,3.03-2.83,2.07-5.95,3.64-9.18,4.98-2.19.91-4.47,1.6-6.66,2.49-1.31.53-2.47.36-3.57-.36-.75-.49-1.46-.64-2.36-.43-.99.23-2.02.26-3.04.35-2.6.23-4.99-.38-7.12-1.91-.11-.08-.25-.13-.36-.22-1.23-1.03-2.36-.82-3.46.32,11.11,6.37,10.94,6.23,11.39,6.66.74.69.79,1.43.11,2.2-.43.48-.93.9-1.54,1.48,1.52.69,2.66,1.91,4.35,2.11.31.04.6.24.88.41,2.54,1.47,5.07,2.94,7.6,4.42.19.11.35.26.54.39-1.29,1.48-2.98,1.82-4.48.95-1.77-1.03-3.55-2.03-5.31-3.08-1.01-.6-2.05-1.11-2.91-2.03-.82-.88-2.1-1.34-3.22-1.91-.28-.14-.73-.07-1.07.03-1.58.46-3.2.56-4.83.55-3.26-.02-6.52-.03-9.78.02-.66.01-1.45.13-1.96.51-1.59,1.17-3.26,1.17-5.04.72-.77-.19-1.53-.39-2.4-.61-.25,1.32-1.24,1.67-2.38,1.88-2.47.45-4.93.95-7.4,1.4-1.42.26-2.77.67-4.07,1.36-3.46,1.84-7.12,3.2-10.84,4.41-1.17.38-2.2.28-3.19-.35-.87-.55-1.72-.65-2.76-.49-1.64.25-3.33.31-4.99.29-.86,0-1.79-.21-2.55-.59-1.79-.89-3.52-1.9-5.22-2.95-.97-.6-1.1-1.32-.67-2.42.08-.21.33-.54.48-.89-1.94-1.06-4.52-2.24-5.36-4.79,1.27.7,2.82,1.53,4.18,2.28.15-.31.32-.57.41-.85.77-2.49,1.5-4.99,2.31-7.46.19-.59.12-.99-.32-1.36-1.87-1.55-.46-.67-6.42-4.21.24-.6.5-1.22.74-1.82,2.37,1.36,4.55,2.62,6.88,3.96,3.77-6.21,8.1-11.47,15.59-13.55ZM1515.44,1280.85c1.8,1.58,3,3.44,3.6,5.66.64,2.36.87,4.9.44,7.32-.09.51-.12.81-.12.81,0,0-.17.52-1.98.84.13-.84.21-1.87.21-2.7-.57-.31-1.23-.73-1.76-1.02-.14,2.68-.78,4.5-1.33,6.24,1.74-.05,3.4-.1,5.06-.16,1.75-.06,3.39.4,5.03,1.08.7-.82,1.89-1.06,2.39-2.18-.26-.38-.5-.77-.77-1.14-.62-.87-1.26-1.73-1.86-2.61-.54-.8-.5-1,.26-1.61,1.15-.92,2.24-1.43,5.36-3.25.25-.15.46-.36.61-.49-2.57-1.09.83.76-12.43-6.9-.79-.46-1.6-.89-2.46-1.36-.14.57-.13.97-.26,1.49ZM1511.27,1291.51c1.78-5.89,2.48-7.87,3.73-12.06.19-.64.24-1.37.17-2.04-.11-.92-.81-1.58-1.37-1.5-.68.1-1.25,1.08-1.16,1.98,0,.09.04.19.08.26.39.78.23,1.31.05,2-.46,1.79-1.12,3.64-1.6,5.43-.51,1.94-.78,3.97.09,5.92ZM1523.72,1276.96c-.07.06-.15.11-.22.17,1.41,2.01,2.79,4.05,4.25,6.02.21.29.81.4,1.24.41,1.91.04,3.82.02,5.73.01.23,0,.46-.09.99-.2-1.31-.74-2.3-1.53-3.42-1.84-.97-.27-1.8-.69-2.64-1.17-1.98-1.13-3.94-2.27-5.91-3.4ZM1518.58,1299.81c-.56-.34-.82-.59-1.13-.66-.67-.15-1.36-.26-2.05-.29-1.38-.05-1.39-.02-1.96,1.51,1.63-.18,3.21-.35,5.14-.56ZM1530.33,1307.97c-.43.39-.79.71-1.15,1.03.03.07.07.13.1.2.65-.14,1.3-.29,2.21-.49-.53-.34-.79-.51-1.16-.74Z"/>
          <path class="cls-27" d="M1522.64,1269.04c1.25.7,2.5,1.4,3.85,2.15.15-.32.31-.59.39-.87.57-1.91,1.12-3.84,1.7-5.75.15-.51.39-.99.59-1.49.09.02.18.04.27.06,0,2.16.15,7.08.15,7.08,0,0-2.99,1.74-4.11,2.37-1.36-.74-2.49-1.84-3.07-3.28l.23-.27Z"/>
          <path class="cls-27" d="M1529.43,1261.62c-2.4-1.49-4.67-2.9-6.97-4.33.09-.33.14-.59.24-.84.1-.25.24-.48.42-.81,1.98,1.15,6.37,3.64,6.37,3.64,0,0-.13.31-.08.63.08.54.02,1.1.02,1.71Z"/>
          <path class="cls-27" d="M1504.66,1265.59c2.19.53,4.42,0,5.97-1.6.39,1.35.02,2.97-.9,3.69-.81.73-1.98.81-3.11.15-.85-.49-1.51-1.17-1.97-2.24Z"/>
          <path class="cls-27" d="M1533.92,1255.93c0-1.03.83-2.33,1.7-2.66.59-.23,1-.02,1.14.59.23.97-.55,2.52-1.45,2.91-.83.36-1.39.02-1.39-.84Z"/>
          <path class="cls-27" d="M1502.48,1262.11c-1.33-1.57-1.06-4.39.35-5.37.71-.5,1.47-.37,2.36-.2-2.65.73-3.22,1.61-2.88,4.34.04.35.1.69.18,1.24Z"/>
          <path class="cls-27" d="M1500.65,1273.22s.66.56,1.12.8c-.18.06-.5-.26-.5-.26l-.63,2.15-.8.31c.28-1.03.52-1.93.81-2.99Z"/>
          <path class="cls-27" d="M1478.15,1235.02c-.08,1.61.63,2.38.63,2.38-.84.29-1.4-.12-1.36-.91.03-.56.19-1.14.44-1.66l.29.18Z"/>
          <path class="cls-27" d="M1500.48,1234.88c.72-1.13,1.35-1.5,2.2-1.1.23.1.42.72.32.75-.12.04-.85-.55-.98-.51-.44.15-.91.36-1.25.99,0,0-.29-.14-.29-.14Z"/>
        </g>
        <path class="cls-42" d="M1522.06,1239.66c-3.17-1.82-6.33-3.65-9.49-5.48-.05-.03-.1-.05-.15-.08-.4-.22-.85-.38-1.32-.48-1.17-.24-2.32-.04-3.36.45-.52-.34-1.04-.67-1.55-1.01-.78-.52-1.32-2.08-.95-3.46,2.02-7.62,4.69-15.15,7.82-22.42.22-.52.61-1.04,1.13-1.26.36-.15.75-.14,1.09.09,3.82,2.46,7.73,4.68,11.66,6.73.84.44,1.36,1.7,1,3.04-2.13,7.8-3.78,15.93-4.75,24.2-.02.17-.05.32-.1.47-.25-.25-.54-.49-.86-.68-.05-.04-.11-.08-.17-.11Z"/>
        <path class="cls-39" d="M1504.59,1229.16c2.05-7.69,4.73-15.23,7.82-22.42.65-1.72,1.97-2.12,2.94-1.53,3.24,2.08,6.62,4.04,10.11,5.9,1.65.88,1.7.86,2.03,1.15,1.02.88,1.41,2.47,1.1,3.83-1.72,6.29-3,12.36-3.9,18.11-.84,5.34-.75,6.2-1.03,6.95-.16-.25-.35-.48-.57-.7.04-.15.08-.3.1-.47.97-8.26,2.61-16.39,4.75-24.2.36-1.33-.16-2.6-1-3.04-3.93-2.05-7.85-4.27-11.66-6.73-.34-.22-.73-.24-1.09-.09-.52.22-.9.74-1.13,1.26-3.13,7.27-5.8,14.8-7.82,22.42-.37,1.38.17,2.94.95,3.46.51.34,1.03.68,1.55,1.01-.24.11-.48.24-.71.39,0,0-.01,0-.02.01-.37-.24-1.02-.66-1.14-.76-1.14-.93-1.69-2.97-1.29-4.56Z"/>
        <path class="cls-18" d="M1530.51,1255.39c-.08.03-.16.05-.24.05-.39,0-.77-.38-.77-1,0-.15,0-.31.02-.47.1-1.4.63-2.8,1.03-3.72-1.62,2.22-1.47,4.67-2.37,4.67-.26,0-.66-.25-.6-.77.06-.5.14-.96.24-1.38.7-3.04,2.29-4.37,3.02-5.43,0,0,0,0,.01-.01.1-.15.18-.29.25-.43.29-.16.73-.33,1.3-.33h.04c1.75.03,2.79,1.35,3.23,2.98-.17.47-.41.94-.55,1.41-.48,1.6-.47,2.71-1.5,3.93-.02,0-.05,0-.08,0-.38,0-.59-.44-.59-.86,0-.61.27-.8.62-2.71-.54,1.24-.99,3.21-1.47,3.96-.06.01-.12.02-.19.02-.52,0-.66-.33-.66-.79,0-.52.38-1.85.69-3.15-.94,2.31-1.04,3.52-1.42,4.02Z"/>
        <path class="cls-17" d="M1527.41,1251.77s.03-.23.12-.55c.23-.84.86-2.45,2.27-3.17.37-.19.69-.47,1.03-.71-.73,1.06-2.32,2.39-3.02,5.43-.17-.32-.38-.66-.41-.94v-.06Z"/>
      </g>
    </g>
  </g>
</svg>