<?xml version="1.0" encoding="UTF-8"?>
<svg id="Layer_2" data-name="Layer 2" xmlns="http://www.w3.org/2000/svg" version="1.1" xmlns:xlink="http://www.w3.org/1999/xlink" viewBox="0 0 2000 2000">
  <defs>
    <style>
      .cls-1 {
        fill: url(#Degradado_sin_nombre_4-4);
      }

      .cls-1, .cls-2, .cls-3, .cls-4, .cls-5, .cls-6, .cls-7, .cls-8, .cls-9, .cls-10, .cls-11, .cls-12, .cls-13 {
        stroke-width: 0px;
      }

      .cls-2 {
        fill: url(#Degradado_sin_nombre_15-2);
      }

      .cls-3 {
        fill: url(#Degradado_sin_nombre_4-2);
      }

      .cls-4 {
        fill: #00aaf2;
      }

      .cls-5 {
        fill: #00cef1;
      }

      .cls-6 {
        fill: #0796fa;
      }

      .cls-7 {
        fill: url(#Degradado_sin_nombre_15);
      }

      .cls-8 {
        fill: url(#Degradado_sin_nombre_4);
      }

      .cls-9 {
        fill: url(#Degradado_sin_nombre_4-3);
      }

      .cls-10 {
        fill: #f0f2ff;
      }

      .cls-11 {
        fill: #fff;
      }

      .cls-12 {
        fill: url(#Degradado_sin_nombre_4-5);
      }

      .cls-13 {
        fill: url(#Degradado_sin_nombre_15-3);
      }
    </style>
    <linearGradient id="Degradado_sin_nombre_4" data-name="Degradado sin nombre 4" x1="818.18" y1="687.04" x2="943.87" y2="687.04" gradientUnits="userSpaceOnUse">
      <stop offset=".31" stop-color="#2851cd"/>
      <stop offset=".8" stop-color="#1743be"/>
      <stop offset="1" stop-color="#0f3db7"/>
    </linearGradient>
    <linearGradient id="Degradado_sin_nombre_15" data-name="Degradado sin nombre 15" x1="841.38" y1="688.29" x2="934.42" y2="688.29" gradientUnits="userSpaceOnUse">
      <stop offset=".31" stop-color="#0796fa"/>
      <stop offset=".52" stop-color="#0f85ef"/>
      <stop offset=".93" stop-color="#2359d2"/>
      <stop offset="1" stop-color="#2851cd"/>
    </linearGradient>
    <linearGradient id="Degradado_sin_nombre_4-2" data-name="Degradado sin nombre 4" x1="881.19" y1="637.63" x2="885.09" y2="637.63" xlink:href="#Degradado_sin_nombre_4"/>
    <linearGradient id="Degradado_sin_nombre_15-2" data-name="Degradado sin nombre 15" x1="849.12" y1="666.63" x2="880.18" y2="666.63" xlink:href="#Degradado_sin_nombre_15"/>
    <linearGradient id="Degradado_sin_nombre_4-3" data-name="Degradado sin nombre 4" x1="874.3" y1="668.02" x2="882.6" y2="668.02" xlink:href="#Degradado_sin_nombre_4"/>
    <linearGradient id="Degradado_sin_nombre_4-4" data-name="Degradado sin nombre 4" x1="840.9" y1="684.81" x2="876.01" y2="684.81" xlink:href="#Degradado_sin_nombre_4"/>
    <linearGradient id="Degradado_sin_nombre_4-5" data-name="Degradado sin nombre 4" x1="839.96" y1="691.77" x2="842.32" y2="691.77" xlink:href="#Degradado_sin_nombre_4"/>
    <linearGradient id="Degradado_sin_nombre_15-3" data-name="Degradado sin nombre 15" x1="807.04" y1="674.25" x2="900.58" y2="674.25" xlink:href="#Degradado_sin_nombre_15"/>
  </defs>
  <path class="cls-8" d="M862.44,755.57c35.34-5.23,71.98-57.06,71.98-99.35.1-39.97-32.5-50.66-66.19-21.64-23.12,19.93-40.51,53.97-40.59,83.23-.06,24.07,12.48,41.05,34.8,37.75ZM940,627.88c-4.16-10.47-11.48-18.12-22.18-20.9-.32-.1-.66-.16-.98-.22-9.15-2.1-18.69-.05-27.35,3.47-23.25,9.44-44.77,34.77-55.97,56.8-11.1,20.44-18.95,49.73-13.62,72.28.02.1.06.2.08.3.51,1.53.59,2.75,2.09,6.6,3.03,7.64,8.06,14.4,15.3,18.21,1.81.91,3.68,1.81,5.7,2.35,3.95,1.27,9.72,1.88,16.1.94,19.29-2.85,39.39-17.89,55.17-38.41.02-.02.02-.04.04-.06,17.29-22.48,29.38-51.58,29.5-78.47,0-7.78-.98-15.64-3.87-22.88Z"/>
  <path class="cls-7" d="M841.38,751.23c6.5,3.01,13.79,3.07,20.82,1.38,34.45-8.3,68.32-57.97,68.32-98.64,0-12.64-3.5-26.18-13.76-33.36,13.05,6.06,17.69,21.1,17.66,35.62,0,42.29-36.64,94.12-71.98,99.35-7.42,1.1-14.9.02-21.06-4.34Z"/>
  <path class="cls-11" d="M916.02,682.49c-2.16,7.42-5.4,14.51-9.41,21.08l-1.69-1.15c6.64-10.89,11.48-24.26,11.36-37.12-.17-19.83-13.06-29.43-30.36-22.24-.14-.98-.28-1.9-.4-2.74,24.8-10.88,39.83,10.18,30.49,42.17Z"/>
  <path class="cls-5" d="M899.41,604.09c-19.3,2.72-37.66,17.33-50.39,32.05-12.18,14.08-22,31.08-28.11,48.71-6.37,18.37-9.82,41.55-2.53,59.6-4.65-6.05-7.1-13.71-8.14-21.37-4.19-30.71,13.93-76.49,46.62-103.14,11.72-9.56,27.63-17.84,42.55-15.85Z"/>
  <path class="cls-4" d="M891.43,691.84l-2.58,1.49-11.72,25.98v3.33l11.14-6.43v7.1l3.15-1.82v-7.1l3.47-2.01v-3.33l-3.47,2v-19.21ZM841.38,693.78l3.54.43c-2.33,10.04-2.83,22.94,2.64,31.63,1.93,3.06,4.65,5.73,7.87,7.29l1.69-3.1c-2.94-1.43-5.45-3.85-7.24-6.64-5.08-7.91-4.78-19.66-2.74-28.92l29.99,3.6c.19.12.77.45.97.57,5.1,2.98,13.88-6.36,13.88-14.65-.39-2.64-4.08-27.64-6.05-40.92,17.3-7.19,30.19,2.42,30.36,22.24.11,12.86-4.73,26.23-11.36,37.12l1.69,1.15c4.01-6.57,7.24-13.66,9.41-21.08,9.4-32.18-5.85-52.99-30.49-42.17-.17-1.16-.32-2.16-.44-2.99l-1.41-.82-2.48,1.43c-.2,1.65-.42,3.29-.62,4.93-13.6,8.04-27.43,24.9-33.93,45.14l-5.74,1.75-.94,3.19,1.43.83ZM916.76,620.61c10.27,7.19,13.76,20.72,13.76,33.36,0,40.66-33.87,90.34-68.32,98.64-7.03,1.7-14.32,1.63-20.82-1.38-4.44-3.12-8.03-7.78-10.46-13.9-10.42-26.27,4.58-74.53,37.3-102.74,8.81-7.59,19.93-14.37,31.39-16.07,6.34-.93,12.15-.22,17.15,2.09ZM874.79,731.1v-3.5c-4.2,2.42-8.4,4.84-12.59,7.27,2.76-6.81,12.55-17.41,12.55-25.29,0-4.38-2.78-6.61-8-3.61-4.85,2.8-7.89,7.5-8.33,13.4,1.08-.5,2.16-.99,3.24-1.49.02-3.88,2.11-7.16,5.03-8.85,3-1.73,4.83-.42,4.83,2.35,0,7.56-13.93,21.19-13.7,29.53,5.66-3.27,11.31-6.54,16.98-9.8Z"/>
  <polygon class="cls-4" points="888.27 699.5 888.27 712.88 880.24 717.51 888.27 699.5"/>
  <path class="cls-10" d="M888.27,699.5l-8.04,18.01,8.04-4.64v-13.37ZM877.13,719.31l11.72-25.98,2.58-1.49v19.21l3.47-2v3.33l-3.47,2.01v7.1l-3.15,1.82v-7.1l-11.14,6.43v-3.33Z"/>
  <path class="cls-6" d="M885.09,637.33c.3,1.99,6.57,44.49,6.89,46.65,0,5.74-4.42,12.6-9.22,14.62-4.18,1.76-7.05-.72-7.05-5.24,1.04-8.27,6.18-48.98,6.89-54.61l2.48-1.43Z"/>
  <polygon class="cls-3" points="883.68 636.51 885.09 637.33 882.6 638.75 881.19 637.94 883.68 636.51"/>
  <path class="cls-2" d="M880.18,646c-1.39,11.07-2.79,22.09-4.17,33.05l-26.89,8.21c6.09-18.44,18.7-33.8,31.06-41.26Z"/>
  <path class="cls-9" d="M882.6,638.75l-1.41-.81c-.14,1.13-6.85,54.25-6.89,54.61,0,2.85,1.17,4.58,2.38,5.27.53.3.35.23.69.28-1.06-1-1.66-2.64-1.66-4.73,1.04-8.28,6.18-48.98,6.89-54.61Z"/>
  <path class="cls-10" d="M858.41,719.36c.44-5.89,3.48-10.59,8.33-13.4,5.21-3,8-.78,8,3.61,0,7.88-9.79,18.48-12.55,25.29,4.19-2.43,8.39-4.84,12.59-7.27v3.5c-5.66,3.26-11.31,6.53-16.98,9.8-.23-8.34,13.7-21.97,13.7-29.53,0-2.77-1.83-4.09-4.83-2.35-2.92,1.69-5.01,4.96-5.03,8.85-1.08.5-2.15.99-3.24,1.49Z"/>
  <path class="cls-11" d="M857.12,730.02l-1.69,3.1c-3.22-1.56-5.95-4.23-7.87-7.29-5.46-8.68-4.96-21.58-2.64-31.63l2.21.26c-2.03,9.26-2.34,21.01,2.74,28.92,1.79,2.79,4.3,5.2,7.24,6.64Z"/>
  <path class="cls-11" d="M849.12,687.26l-2.47.75c6.5-20.24,20.33-37.1,33.93-45.14-.13,1.04-.26,2.08-.39,3.12-12.36,7.46-24.97,22.82-31.06,41.26Z"/>
  <path class="cls-1" d="M876.01,679.05c-.06.43-.11.87-.16,1.3l-33.53,10.23-1.42-.82c.2-.06,6.87-2.1,35.11-10.72Z"/>
  <polygon class="cls-12" points="842.32 690.58 841.38 693.78 839.96 692.95 840.9 689.76 842.32 690.58"/>
  <path class="cls-6" d="M841.38,693.78l.93-3.2,33.53-10.23c-.52,4.08-1.03,8.14-1.54,12.2,0,2.85,1.17,4.58,2.38,5.27.69.38,4.51.75-35.3-4.04Z"/>
  <path class="cls-6" d="M925.46,610.09c-6.38-3.69-14.07-4.94-22.56-3.69-40.74,6.02-84.59,65.96-84.72,116.87-.03,15.84,4.6,32.65,18.25,40.65-1.25-.72-2.5-1.43-3.74-2.16-7.55-4.37-14.05-12.58-16.93-25.91-3.52-16.45-.35-35.16,5.14-51,6.11-17.63,15.93-34.63,28.11-48.71,12.72-14.71,31.09-29.34,50.39-32.05,7.51-1.09,15.39-.16,22.15,3.74.22.15,1.03.6,3.9,2.25Z"/>
  <path class="cls-13" d="M818.38,744.45c.14.34.29.69.43,1.02-31.18-34.17,3.95-117.66,53.8-138.27,8.88-3.67,18.67-5.37,27.96-3.26-.39.04-.78.09-1.17.15-14.92-1.99-30.83,6.29-42.55,15.85-40.1,32.69-59.91,96.61-38.47,124.51Z"/>
</svg>