<?xml version="1.0" encoding="UTF-8"?>
<svg xmlns="http://www.w3.org/2000/svg" version="1.1" xmlns:xlink="http://www.w3.org/1999/xlink" viewBox="0 0 2000 2000">
  <defs>
    <style>
      .cls-1 {
        clip-path: url(#clippath-20);
      }

      .cls-2 {
        clip-path: url(#clippath-11);
      }

      .cls-3 {
        clip-path: url(#clippath-16);
      }

      .cls-4 {
        fill: #d78400;
      }

      .cls-4, .cls-5, .cls-6, .cls-7, .cls-8, .cls-9, .cls-10, .cls-11, .cls-12, .cls-13, .cls-14 {
        stroke-width: 0px;
      }

      .cls-15 {
        clip-path: url(#clippath-2);
      }

      .cls-16 {
        clip-path: url(#clippath-13);
      }

      .cls-5 {
        fill: #f5ebcb;
      }

      .cls-17 {
        isolation: isolate;
      }

      .cls-6 {
        fill: #ffd950;
      }

      .cls-18 {
        clip-path: url(#clippath-25);
      }

      .cls-19 {
        clip-path: url(#clippath-15);
      }

      .cls-20 {
        clip-path: url(#clippath-6);
      }

      .cls-21 {
        clip-path: url(#clippath-26);
      }

      .cls-7 {
        fill: #ffb300;
      }

      .cls-8 {
        fill: #fc0;
      }

      .cls-9 {
        fill: none;
      }

      .cls-22 {
        clip-path: url(#clippath-7);
      }

      .cls-23 {
        clip-path: url(#clippath-21);
      }

      .cls-10 {
        fill: #e49408;
      }

      .cls-24 {
        clip-path: url(#clippath-1);
      }

      .cls-25 {
        clip-path: url(#clippath-4);
      }

      .cls-11 {
        fill: #ffa200;
      }

      .cls-26 {
        clip-path: url(#clippath-12);
      }

      .cls-12 {
        fill: #ffc100;
      }

      .cls-27 {
        clip-path: url(#clippath-24);
      }

      .cls-28 {
        mix-blend-mode: multiply;
      }

      .cls-28, .cls-29 {
        opacity: .3;
      }

      .cls-30 {
        clip-path: url(#clippath-22);
      }

      .cls-13 {
        fill: #f69503;
      }

      .cls-31 {
        clip-path: url(#clippath-9);
      }

      .cls-32 {
        clip-path: url(#clippath);
      }

      .cls-29 {
        mix-blend-mode: screen;
      }

      .cls-33 {
        clip-path: url(#clippath-19);
      }

      .cls-34 {
        clip-path: url(#clippath-3);
      }

      .cls-35 {
        clip-path: url(#clippath-8);
      }

      .cls-36 {
        clip-path: url(#clippath-18);
      }

      .cls-37 {
        clip-path: url(#clippath-14);
      }

      .cls-38 {
        clip-path: url(#clippath-17);
      }

      .cls-14 {
        fill: #d2d2d2;
      }

      .cls-39 {
        clip-path: url(#clippath-5);
      }

      .cls-40 {
        clip-path: url(#clippath-10);
      }

      .cls-41 {
        clip-path: url(#clippath-23);
      }
    </style>
    <clipPath id="clippath">
      <path class="cls-9" d="M1340.47,1390.39v2.75c-.2-.11-.38-.22-.57-.33-2.45-1.42-4.32-1.95-7.1-.34v-2.75c2.78-1.61,4.65-1.07,7.1.34.18.11.37.22.56.33Z"/>
    </clipPath>
    <clipPath id="clippath-1">
      <path class="cls-9" d="M1329.58,1395.23v-2.75c0-.59.52-1.18,1.61-1.81v2.75c-1.11.64-1.61,1.23-1.61,1.81Z"/>
    </clipPath>
    <clipPath id="clippath-2">
      <path class="cls-9" d="M1350.26,1396.54v2.75c-2.49-1.63-8.14-5.19-9.8-6.15v-2.75c1.67.96,7.32,4.52,9.8,6.15Z"/>
    </clipPath>
    <clipPath id="clippath-3">
      <path class="cls-9" d="M1319.73,1395.33v-2.75c0,1.49,1.07,3.18,4.13,4.94v2.75c-3.06-1.77-4.13-3.45-4.13-4.94Z"/>
    </clipPath>
    <clipPath id="clippath-4">
      <path class="cls-9" d="M1329.64,1401.7v2.75c0-.54-.48-1.11-1.61-1.76v-2.75c1.13.65,1.61,1.22,1.61,1.76Z"/>
    </clipPath>
    <clipPath id="clippath-5">
      <path class="cls-9" d="M1310.65,1405.58v2.75c-3.35-2.13-4.88-3.46-6.68-5.31v-2.75c1.8,1.85,3.33,3.19,6.68,5.31Z"/>
    </clipPath>
    <clipPath id="clippath-6">
      <path class="cls-9" d="M1339.54,1401.54v2.75c-.01,2.12-2.3,3.99-4.52,5.28v-2.75c2.23-1.29,4.52-3.16,4.52-5.28Z"/>
    </clipPath>
    <clipPath id="clippath-7">
      <path class="cls-9" d="M1314.79,1408.07v2.75c-.12-.06-.23-.13-.33-.19v-2.75c.12.06.22.13.33.19Z"/>
    </clipPath>
    <clipPath id="clippath-8">
      <path class="cls-9" d="M1332.82,1408.1v2.75c-7.18,4.17-13.49,2.59-18.03-.03v-2.75c4.56,2.63,10.86,4.2,18.03.03Z"/>
    </clipPath>
    <clipPath id="clippath-9">
      <path class="cls-9" d="M1330.74,1384.81v2.75c-.2-.11-.38-.23-.57-.33-2.45-1.42-4.32-1.95-7.1-.34v-2.75c2.78-1.61,4.65-1.08,7.1.34.18.11.37.22.56.33Z"/>
    </clipPath>
    <clipPath id="clippath-10">
      <path class="cls-9" d="M1319.85,1389.65v-2.75c0-.59.52-1.18,1.61-1.81v2.75c-1.11.64-1.61,1.23-1.61,1.81Z"/>
    </clipPath>
    <clipPath id="clippath-11">
      <path class="cls-9" d="M1340.53,1390.96v2.75c-2.49-1.63-8.14-5.19-9.8-6.15v-2.75c1.67.96,7.32,4.52,9.8,6.15Z"/>
    </clipPath>
    <clipPath id="clippath-12">
      <path class="cls-9" d="M1310,1389.75v-2.75c0,1.49,1.07,3.18,4.13,4.95v2.75c-3.07-1.77-4.13-3.45-4.13-4.95Z"/>
    </clipPath>
    <clipPath id="clippath-13">
      <path class="cls-9" d="M1319.91,1396.12v2.75c0-.54-.48-1.11-1.61-1.76v-2.75c1.13.65,1.61,1.23,1.61,1.76Z"/>
    </clipPath>
    <clipPath id="clippath-14">
      <path class="cls-9" d="M1300.92,1400v2.75c-3.35-2.13-4.88-3.46-6.68-5.31v-2.75c1.8,1.85,3.33,3.19,6.68,5.31Z"/>
    </clipPath>
    <clipPath id="clippath-15">
      <path class="cls-9" d="M1329.81,1395.96v2.75c-.01,2.12-2.3,3.99-4.52,5.28v-2.75c2.23-1.29,4.52-3.16,4.52-5.28Z"/>
    </clipPath>
    <clipPath id="clippath-16">
      <path class="cls-9" d="M1305.06,1402.49v2.75c-.12-.06-.23-.13-.33-.19v-2.75c.12.06.22.13.33.19Z"/>
    </clipPath>
    <clipPath id="clippath-17">
      <path class="cls-9" d="M1323.08,1402.52v2.75c-7.18,4.17-13.49,2.59-18.03-.03v-2.75c4.56,2.63,10.86,4.2,18.03.03Z"/>
    </clipPath>
    <clipPath id="clippath-18">
      <path class="cls-9" d="M1343.04,1365.46v2.75c-.2-.11-.38-.22-.57-.33-2.45-1.42-4.32-1.95-7.1-.34v-2.75c2.78-1.61,4.65-1.07,7.1.34.18.11.37.22.56.33Z"/>
    </clipPath>
    <clipPath id="clippath-19">
      <path class="cls-9" d="M1332.14,1370.3v-2.75c0-.59.52-1.18,1.61-1.82v2.75c-1.11.64-1.61,1.23-1.61,1.81Z"/>
    </clipPath>
    <clipPath id="clippath-20">
      <path class="cls-9" d="M1352.83,1371.61v2.75c-2.49-1.63-8.14-5.19-9.8-6.15v-2.75c1.67.96,7.32,4.52,9.8,6.15Z"/>
    </clipPath>
    <clipPath id="clippath-21">
      <path class="cls-9" d="M1322.3,1370.4v-2.75c0,1.49,1.07,3.18,4.13,4.94v2.75c-3.07-1.76-4.13-3.45-4.13-4.94Z"/>
    </clipPath>
    <clipPath id="clippath-22">
      <path class="cls-9" d="M1332.2,1376.77v2.75c0-.54-.48-1.11-1.61-1.76v-2.75c1.13.65,1.61,1.22,1.61,1.76Z"/>
    </clipPath>
    <clipPath id="clippath-23">
      <path class="cls-9" d="M1313.21,1380.64v2.75c-3.35-2.13-4.88-3.46-6.68-5.31v-2.75c1.8,1.85,3.33,3.19,6.68,5.31Z"/>
    </clipPath>
    <clipPath id="clippath-24">
      <path class="cls-9" d="M1342.1,1376.61v2.75c-.01,2.12-2.3,3.99-4.52,5.28v-2.75c2.23-1.29,4.52-3.16,4.52-5.28Z"/>
    </clipPath>
    <clipPath id="clippath-25">
      <path class="cls-9" d="M1317.35,1383.14v2.75c-.12-.06-.23-.13-.33-.19v-2.75c.12.06.22.13.33.19Z"/>
    </clipPath>
    <clipPath id="clippath-26">
      <path class="cls-9" d="M1335.38,1383.17v2.75c-7.18,4.17-13.49,2.59-18.03-.03v-2.75c4.56,2.63,10.86,4.2,18.03.03Z"/>
    </clipPath>
  </defs>
  <g class="cls-17">
    <g id="Layer_2" data-name="Layer 2">
      <g>
        <ellipse class="cls-14" cx="1331.4" cy="1403.67" rx="53.7" ry="39.31"/>
        <g>
          <g>
            <g>
              <path class="cls-7" d="M1334.14,1379.29v51.59c-.56.03-1.13.06-1.69.08-.4.01-.81.02-1.21.03-1.19.02-2.37.01-3.56-.03-.4,0-.81-.02-1.22-.04-1.19-.05-2.38-.14-3.56-.26-.41-.03-.81-.07-1.21-.12-1.2-.14-2.39-.3-3.56-.5-.41-.06-.81-.13-1.21-.2-1.2-.22-2.39-.48-3.56-.76-.41-.1-.82-.2-1.22-.31-1.21-.32-2.39-.67-3.56-1.05-.41-.14-.82-.27-1.22-.42-.8-.29-1.58-.59-2.36-.9v-42.83c.77-.31,1.56-.61,2.36-.89.4-.14.81-.28,1.22-.41,1.16-.38,2.35-.73,3.56-1.03.4-.1.81-.2,1.22-.3,1.17-.27,2.36-.52,3.56-.73.4-.07.8-.14,1.21-.2,1.18-.19,2.37-.35,3.56-.47.4-.04.81-.08,1.21-.12,1.18-.11,2.37-.18,3.56-.22.41-.02.81-.03,1.22-.04,1.19-.03,2.37-.03,3.56,0,.4,0,.81.02,1.21.04.56.02,1.13.05,1.69.09Z"/>
              <path class="cls-13" d="M1372.2,1395.83v10.85h0c-.01,2.18-.53,4.36-1.54,6.47-.35.72-.75,1.44-1.22,2.15-.95,1.43-2.14,2.83-3.56,4.16-.38.36-.79.71-1.21,1.07-1.07.88-2.26,1.75-3.56,2.56-.39.25-.8.5-1.22.73-.02.01-.03.02-.05.03-1.12.65-2.29,1.25-3.5,1.8-.4.2-.81.37-1.22.54-1.16.5-2.35.96-3.56,1.37-.39.14-.8.27-1.21.4-1.16.37-2.35.71-3.56,1.01-.4.1-.8.2-1.21.29-1.17.28-2.36.52-3.56.71-.4.07-.81.14-1.22.2-1.18.18-2.37.33-3.56.45-.4.04-.8.08-1.21.11-.62.05-1.24.1-1.87.14v-51.59c.63.04,1.25.09,1.87.15.4.03.81.07,1.21.12,1.2.13,2.39.29,3.56.48.41.07.82.14,1.22.21,1.2.21,2.39.46,3.56.73.41.1.81.19,1.21.3,1.21.31,2.4.65,3.56,1.03.41.13.81.26,1.21.41,1.22.42,2.41.89,3.56,1.4.41.17.82.35,1.22.55,1.14.52,2.25,1.1,3.31,1.71.08.05.16.1.25.14.41.24.82.5,1.22.75,1.31.83,2.49,1.7,3.56,2.6.43.35.83.71,1.21,1.07,1.43,1.35,2.62,2.75,3.56,4.19.16.23.3.46.44.69h2.33Z"/>
              <path class="cls-8" d="M1305,1383.56v42.83c-.4-.17-.8-.34-1.2-.52-.19-.08-.38-.16-.57-.25-.22-.1-.43-.2-.64-.31-1.03-.48-2.03-1.01-2.99-1.56-.19-.11-.38-.22-.57-.34-.41-.24-.82-.5-1.22-.76-1.31-.84-2.49-1.73-3.56-2.65-.43-.37-.83-.74-1.22-1.12-1.45-1.41-2.64-2.88-3.56-4.39-.48-.78-.88-1.56-1.21-2.36-.76-1.8-1.16-3.62-1.22-5.45h-.02v-10.85h2.17c.09-.16.18-.31.28-.46.92-1.51,2.11-2.98,3.56-4.38.39-.38.79-.75,1.22-1.11,1.06-.91,2.25-1.8,3.56-2.63.39-.26.8-.51,1.22-.75.13-.08.25-.16.38-.23,1.02-.58,2.09-1.14,3.18-1.65.21-.1.43-.2.64-.3.19-.09.38-.17.57-.25.39-.18.8-.35,1.2-.51Z"/>
            </g>
            <g class="cls-28">
              <path class="cls-11" d="M1294.25,1389.88v30.11c-.43-.37-.83-.74-1.22-1.12v-27.89c.39-.38.79-.75,1.22-1.11Z"/>
              <path class="cls-11" d="M1289.47,1395.37v19.12c-.48-.78-.88-1.56-1.21-2.36v-16.3h.93c.09-.16.18-.31.28-.46Z"/>
              <path class="cls-11" d="M1299.03,1386.5v36.9c-.41-.24-.82-.5-1.22-.76v-35.4c.39-.26.8-.51,1.22-.75Z"/>
              <path class="cls-11" d="M1308.58,1382.26v45.45c-.41-.14-.82-.27-1.22-.42v-44.62c.4-.14.81-.28,1.22-.41Z"/>
              <path class="cls-11" d="M1303.8,1384.07v41.79c-.19-.08-.38-.16-.57-.25-.22-.1-.43-.2-.64-.31v-40.69c.21-.1.43-.2.64-.3.19-.09.38-.17.57-.25Z"/>
              <path class="cls-11" d="M1318.12,1380v50.04c-.41-.06-.81-.13-1.21-.2v-49.63c.4-.07.8-.14,1.21-.2Z"/>
              <path class="cls-11" d="M1313.35,1380.93v48.14c-.41-.1-.82-.2-1.22-.31v-47.54c.4-.1.81-.2,1.22-.3Z"/>
              <path class="cls-11" d="M1322.9,1379.42v51.24c-.41-.03-.81-.07-1.21-.12v-51.01c.4-.04.81-.08,1.21-.12Z"/>
              <path class="cls-11" d="M1327.68,1379.15v51.81c-.4,0-.81-.02-1.22-.04v-51.73c.41-.02.81-.03,1.22-.04Z"/>
              <path class="cls-11" d="M1332.45,1379.2v51.76c-.4.01-.81.02-1.21.03v-51.83c.4,0,.81.02,1.21.04Z"/>
              <path class="cls-11" d="M1337.22,1379.55v51.08c-.4.04-.8.08-1.21.11v-51.31c.4.03.81.07,1.21.12Z"/>
              <path class="cls-11" d="M1342,1380.24v49.74c-.4.07-.81.14-1.22.2v-50.15c.41.07.82.14,1.22.21Z"/>
              <path class="cls-11" d="M1356.33,1384.66v40.99c-.4.2-.81.37-1.22.54v-42.09c.41.17.82.35,1.22.55Z"/>
              <path class="cls-11" d="M1346.77,1381.27v47.71c-.4.1-.8.2-1.21.29v-48.29c.41.1.81.19,1.21.3Z"/>
              <path class="cls-11" d="M1351.55,1382.71v44.86c-.39.14-.8.27-1.21.4v-45.67c.41.13.81.26,1.21.41Z"/>
              <path class="cls-11" d="M1361.1,1387.27v35.82c-.39.25-.8.5-1.22.73v-37.3c.41.24.82.5,1.22.75Z"/>
              <path class="cls-11" d="M1365.87,1390.94v28.51c-.38.36-.79.71-1.21,1.07v-30.65c.43.35.83.71,1.21,1.07Z"/>
              <path class="cls-11" d="M1370.65,1395.83v17.32c-.35.72-.75,1.44-1.22,2.15v-20.16c.16.23.3.46.44.69h.78Z"/>
            </g>
            <g>
              <path class="cls-6" d="M1359.82,1413.95c-16.58,9.57-43.55,9.52-60.23-.11-16.68-9.63-16.77-25.2-.19-34.77,16.58-9.57,43.55-9.52,60.23.11,16.68,9.63,16.77,25.2.19,34.77Z"/>
              <path class="cls-12" d="M1369.11,1396.65c0,5.4-3.84,10.58-10.84,14.61-7.51,4.34-17.61,6.73-28.39,6.73s-21.1-2.42-28.75-6.84c-.71-.42-1.37-.83-2.01-1.26-5.83-3.88-9-8.64-9-13.56,0-2.49.83-4.97,2.44-7.29,1.82-2.68,4.66-5.16,8.38-7.32,7.53-4.33,17.61-6.73,28.41-6.73,8.26,0,16.13,1.4,22.78,4,2.11.83,4.1,1.78,5.95,2.86,6.82,3.93,10.72,8.95,10.99,14.14.03.23.03.43.03.66Z"/>
            </g>
            <g class="cls-17">
              <polygon class="cls-10" points="1352.29 1385.9 1352.28 1388.65 1348.3 1390.97 1348.3 1388.21 1352.29 1385.9"/>
              <g class="cls-17">
                <g class="cls-32">
                  <path class="cls-4" d="M1340.47,1390.39v2.75c-.2-.11-.38-.22-.57-.33-2.45-1.42-4.32-1.95-7.1-.34v-2.75c2.78-1.61,4.65-1.07,7.1.34.18.11.37.22.56.33h0Z"/>
                </g>
              </g>
              <polygon class="cls-4" points="1332.82 1389.72 1332.81 1392.47 1331.18 1393.42 1331.19 1390.67 1332.82 1389.72"/>
              <g class="cls-17">
                <g class="cls-24">
                  <path class="cls-4" d="M1331.19,1390.67v2.75c-1.11.64-1.61,1.23-1.61,1.81v-2.75c0-.59.52-1.18,1.61-1.81h0Z"/>
                </g>
              </g>
              <g class="cls-17">
                <g class="cls-15">
                  <path class="cls-4" d="M1350.26,1396.54v2.75c-2.49-1.63-8.14-5.19-9.8-6.15v-2.75c1.67.96,7.32,4.52,9.8,6.15h0Z"/>
                </g>
              </g>
              <polygon class="cls-10" points="1355.23 1393.65 1355.23 1396.41 1350.26 1399.29 1350.26 1396.54 1355.23 1393.65"/>
              <g class="cls-17">
                <g class="cls-34">
                  <path class="cls-10" d="M1323.86,1397.52v2.75c-3.06-1.77-4.13-3.45-4.13-4.94v-2.75c0,1.49,1.07,3.18,4.13,4.94h0Z"/>
                </g>
              </g>
              <polygon class="cls-10" points="1328.04 1399.94 1328.04 1402.69 1323.85 1400.28 1323.86 1397.52 1328.04 1399.94"/>
              <g class="cls-17">
                <g class="cls-25">
                  <path class="cls-10" d="M1329.64,1401.7v2.75c0-.54-.48-1.11-1.61-1.76v-2.75c1.13.65,1.61,1.22,1.61,1.76h0Z"/>
                </g>
              </g>
              <g class="cls-17">
                <g class="cls-39">
                  <path class="cls-10" d="M1310.65,1405.58v2.75c-3.35-2.13-4.88-3.46-6.68-5.31v-2.75c1.8,1.85,3.33,3.19,6.68,5.31h0Z"/>
                </g>
              </g>
              <g class="cls-17">
                <g class="cls-20">
                  <path class="cls-10" d="M1339.54,1401.54v2.75c-.01,2.12-2.3,3.99-4.52,5.28v-2.75c2.23-1.29,4.52-3.16,4.52-5.28h0Z"/>
                </g>
              </g>
              <polygon class="cls-10" points="1335.02 1406.82 1335.01 1409.57 1332.81 1410.86 1332.82 1408.1 1335.02 1406.82"/>
              <g class="cls-17">
                <g class="cls-22">
                  <path class="cls-10" d="M1314.79,1408.07v2.75c-.12-.06-.23-.13-.33-.19v-2.75c.12.06.22.13.33.19h0Z"/>
                </g>
              </g>
              <polygon class="cls-10" points="1314.46 1407.88 1314.46 1410.63 1310.71 1412.81 1310.72 1410.06 1314.46 1407.88"/>
              <polygon class="cls-4" points="1310.72 1410.06 1310.71 1412.81 1306.81 1410.56 1306.81 1407.81 1310.72 1410.06"/>
              <path class="cls-6" d="M1352.29,1385.9l-3.98,2.32c2.98,1.92,5.33,3.87,6.93,5.44l-4.97,2.89c-2.48-1.63-8.13-5.19-9.79-6.15-.19-.11-.38-.23-.56-.33-2.45-1.42-4.32-1.95-7.1-.34l-1.63.95c-2.42,1.41-1.96,2.59.43,3.97l4.29,2.48c6.66,3.85,2.79,7.57-.89,9.71l-2.21,1.28c-7.17,4.17-13.48,2.59-18.03-.03-.11-.06-.22-.13-.33-.19l-3.75,2.18-3.9-2.25,3.83-2.23c-3.34-2.13-4.88-3.46-6.67-5.31l4.9-2.85c1.73,1.12,6.04,3.96,10.29,6.41,1.92,1.11,4.57,2.14,7.01.72l1.8-1.05c1.88-1.1,2.5-2.15.07-3.56l-4.18-2.41c-7.8-4.51-2.63-8.49.18-10.12l2.87-1.67c6.51-3.76,12.41-2.61,17.56.19l3.92-2.28,3.9,2.25Z"/>
              <g class="cls-17">
                <g class="cls-35">
                  <path class="cls-10" d="M1332.82,1408.1v2.75c-7.18,4.17-13.49,2.59-18.03-.03v-2.75c4.56,2.63,10.86,4.2,18.03.03h0Z"/>
                </g>
              </g>
            </g>
            <g class="cls-29">
              <path class="cls-5" d="M1369.08,1396l-69.95,13.9c-5.83-3.88-9-8.64-9-13.56,0-2.49.83-4.97,2.44-7.29l59.57-10.06c2.11.83,4.1,1.78,5.95,2.86,6.82,3.93,10.72,8.95,10.99,14.14Z"/>
            </g>
            <g>
              <path class="cls-13" d="M1303.23,1380.53v3.45c-.78.39-1.54.8-2.28,1.22-6.23,3.6-9.97,8.12-10.69,12.88-.09-.57-.14-1.15-.14-1.72,0-5.39,3.85-10.58,10.83-14.61.73-.42,1.5-.82,2.28-1.21Z"/>
              <path class="cls-8" d="M1369.12,1396.66c0,.58-.05,1.16-.14,1.73-.73-4.83-4.54-9.41-10.89-13.08-6.51-3.76-14.88-6.08-23.95-6.68v-3.46c9.07.61,17.45,2.92,23.95,6.68,7.1,4.1,11.02,9.36,11.02,14.81Z"/>
              <path class="cls-7" d="M1334.14,1375.17v3.46c-1.58-.11-3.18-.16-4.79-.16-9.74,0-18.9,1.94-26.12,5.51v-3.45c7.22-3.57,16.39-5.53,26.12-5.53,1.62,0,3.22.06,4.79.16Z"/>
            </g>
          </g>
          <g>
            <g>
              <path class="cls-7" d="M1324.41,1373.7v51.59c-.56.03-1.13.06-1.69.08-.4.01-.81.02-1.21.03-1.19.02-2.37.01-3.56-.03-.4,0-.81-.02-1.22-.04-1.19-.05-2.38-.14-3.56-.26-.41-.03-.81-.07-1.21-.12-1.2-.14-2.39-.3-3.56-.5-.41-.06-.81-.13-1.21-.2-1.2-.22-2.39-.48-3.56-.76-.41-.1-.82-.2-1.22-.31-1.21-.32-2.39-.67-3.56-1.05-.41-.14-.82-.27-1.22-.42-.8-.29-1.58-.58-2.36-.9v-42.83c.77-.31,1.56-.61,2.36-.89.4-.14.81-.28,1.22-.41,1.16-.38,2.35-.73,3.56-1.03.4-.1.81-.2,1.22-.3,1.17-.27,2.36-.52,3.56-.73.4-.07.8-.14,1.21-.2,1.18-.19,2.37-.35,3.56-.47.4-.04.81-.08,1.21-.12,1.18-.11,2.37-.18,3.56-.22.41-.02.81-.03,1.22-.04,1.19-.03,2.37-.03,3.56,0,.4,0,.81.02,1.21.04.56.02,1.13.05,1.69.09Z"/>
              <path class="cls-13" d="M1362.47,1390.25v10.85h0c-.01,2.17-.53,4.36-1.54,6.47-.35.72-.75,1.44-1.22,2.15-.95,1.44-2.13,2.83-3.56,4.16-.38.36-.79.71-1.21,1.07-1.07.88-2.26,1.75-3.56,2.56-.39.25-.8.5-1.22.73-.02.01-.03.02-.05.03-1.12.65-2.29,1.25-3.5,1.8-.4.2-.81.37-1.22.54-1.16.5-2.35.96-3.56,1.37-.39.14-.8.27-1.21.4-1.16.37-2.35.71-3.56,1.01-.4.1-.8.2-1.21.29-1.17.28-2.36.52-3.56.71-.4.07-.81.14-1.22.2-1.18.18-2.37.33-3.56.46-.4.04-.8.08-1.21.11-.62.05-1.24.1-1.87.14v-51.59c.63.04,1.25.09,1.87.15.4.03.81.07,1.21.12,1.2.13,2.39.29,3.56.48.41.07.82.14,1.22.21,1.2.21,2.39.46,3.56.73.41.1.81.19,1.21.3,1.21.31,2.4.65,3.56,1.03.41.13.81.27,1.21.41,1.22.42,2.41.89,3.56,1.4.41.17.82.35,1.22.55,1.14.52,2.25,1.1,3.31,1.71.08.05.16.1.24.14.41.24.82.5,1.22.75,1.31.83,2.5,1.7,3.56,2.6.43.35.83.71,1.21,1.07,1.43,1.35,2.62,2.75,3.56,4.19.16.23.3.46.44.69h2.33Z"/>
              <path class="cls-8" d="M1295.27,1377.98v42.83c-.4-.17-.8-.34-1.2-.52-.19-.08-.38-.16-.57-.25-.22-.1-.43-.2-.64-.31-1.03-.48-2.03-1.01-2.99-1.56-.19-.11-.38-.22-.57-.34-.41-.24-.82-.5-1.22-.76-1.31-.84-2.49-1.73-3.56-2.65-.43-.37-.83-.74-1.22-1.12-1.45-1.41-2.64-2.88-3.56-4.39-.48-.78-.88-1.56-1.21-2.36-.76-1.8-1.16-3.62-1.22-5.45h-.02v-10.85h2.17c.09-.16.18-.31.28-.46.92-1.51,2.11-2.98,3.56-4.38.39-.38.79-.75,1.22-1.11,1.06-.91,2.25-1.8,3.56-2.63.39-.26.8-.51,1.22-.75.13-.08.25-.16.38-.23,1.02-.58,2.09-1.13,3.18-1.65.21-.1.43-.2.64-.3.19-.09.38-.17.57-.25.39-.18.79-.35,1.2-.51Z"/>
            </g>
            <g class="cls-28">
              <path class="cls-11" d="M1284.52,1384.3v30.11c-.43-.37-.83-.74-1.22-1.12v-27.89c.39-.38.79-.75,1.22-1.11Z"/>
              <path class="cls-11" d="M1279.74,1389.78v19.12c-.48-.78-.88-1.56-1.21-2.36v-16.3h.93c.09-.16.18-.31.28-.46Z"/>
              <path class="cls-11" d="M1289.29,1380.92v36.9c-.41-.24-.82-.5-1.22-.76v-35.4c.39-.26.8-.51,1.22-.75Z"/>
              <path class="cls-11" d="M1298.85,1376.68v45.45c-.41-.14-.82-.27-1.22-.42v-44.62c.4-.14.81-.28,1.22-.41Z"/>
              <path class="cls-11" d="M1294.07,1378.49v41.79c-.19-.08-.38-.16-.57-.25-.22-.1-.43-.2-.64-.31v-40.69c.21-.1.43-.2.64-.3.19-.09.38-.17.57-.25Z"/>
              <path class="cls-11" d="M1308.39,1374.42v50.04c-.41-.06-.81-.13-1.21-.2v-49.63c.4-.07.8-.14,1.21-.2Z"/>
              <path class="cls-11" d="M1303.62,1375.35v48.14c-.41-.1-.82-.2-1.22-.31v-47.54c.4-.1.81-.2,1.22-.3Z"/>
              <path class="cls-11" d="M1313.16,1373.83v51.24c-.41-.03-.81-.07-1.21-.12v-51.01c.4-.04.81-.08,1.21-.12Z"/>
              <path class="cls-11" d="M1317.94,1373.57v51.81c-.4,0-.81-.02-1.22-.04v-51.73c.41-.02.81-.03,1.22-.04Z"/>
              <path class="cls-11" d="M1322.72,1373.62v51.76c-.4.01-.81.02-1.21.03v-51.83c.4,0,.81.02,1.21.04Z"/>
              <path class="cls-11" d="M1327.49,1373.97v51.08c-.4.04-.8.08-1.21.11v-51.31c.4.03.81.07,1.21.12Z"/>
              <path class="cls-11" d="M1332.27,1374.66v49.74c-.4.07-.81.14-1.22.2v-50.15c.41.07.82.14,1.22.21Z"/>
              <path class="cls-11" d="M1346.6,1379.08v40.99c-.4.2-.81.37-1.22.54v-42.09c.41.17.82.35,1.22.55Z"/>
              <path class="cls-11" d="M1337.04,1375.69v47.71c-.4.1-.8.2-1.21.29v-48.29c.41.1.81.19,1.21.3Z"/>
              <path class="cls-11" d="M1341.82,1377.13v44.86c-.39.14-.8.27-1.21.4v-45.67c.41.13.81.27,1.21.41Z"/>
              <path class="cls-11" d="M1351.37,1381.69v35.82c-.39.25-.8.5-1.22.73v-37.3c.41.24.82.5,1.22.75Z"/>
              <path class="cls-11" d="M1356.14,1385.36v28.51c-.38.36-.79.71-1.21,1.07v-30.65c.43.35.83.71,1.21,1.07Z"/>
              <path class="cls-11" d="M1360.92,1390.25v17.32c-.35.72-.75,1.44-1.22,2.15v-20.16c.16.23.3.46.44.69h.78Z"/>
            </g>
            <g>
              <path class="cls-6" d="M1350.09,1408.36c-16.58,9.57-43.55,9.52-60.23-.11-16.68-9.63-16.77-25.2-.19-34.77,16.58-9.57,43.55-9.52,60.23.11,16.68,9.63,16.77,25.2.19,34.77Z"/>
              <path class="cls-12" d="M1359.38,1391.07c0,5.4-3.84,10.58-10.84,14.61-7.51,4.34-17.61,6.73-28.39,6.73s-21.1-2.42-28.75-6.84c-.71-.42-1.37-.83-2.01-1.26-5.83-3.88-9-8.64-9-13.56,0-2.49.83-4.97,2.44-7.29,1.82-2.68,4.66-5.16,8.38-7.32,7.53-4.33,17.61-6.73,28.41-6.73,8.26,0,16.13,1.4,22.78,4,2.11.83,4.1,1.78,5.96,2.86,6.82,3.93,10.72,8.95,10.99,14.14.03.23.03.43.03.66Z"/>
            </g>
            <g class="cls-17">
              <polygon class="cls-10" points="1342.56 1380.32 1342.55 1383.07 1338.57 1385.38 1338.57 1382.63 1342.56 1380.32"/>
              <g class="cls-17">
                <g class="cls-31">
                  <path class="cls-4" d="M1330.74,1384.81v2.75c-.2-.11-.38-.23-.57-.33-2.45-1.42-4.32-1.95-7.1-.34v-2.75c2.78-1.61,4.65-1.08,7.1.34.18.11.37.22.56.33h0Z"/>
                </g>
              </g>
              <polygon class="cls-4" points="1323.09 1384.14 1323.08 1386.89 1321.45 1387.84 1321.46 1385.08 1323.09 1384.14"/>
              <g class="cls-17">
                <g class="cls-40">
                  <path class="cls-4" d="M1321.46,1385.08v2.75c-1.11.64-1.61,1.23-1.61,1.81v-2.75c0-.59.52-1.18,1.61-1.81h0Z"/>
                </g>
              </g>
              <g class="cls-17">
                <g class="cls-2">
                  <path class="cls-4" d="M1340.53,1390.96v2.75c-2.49-1.63-8.14-5.19-9.8-6.15v-2.75c1.67.96,7.32,4.52,9.8,6.15h0Z"/>
                </g>
              </g>
              <polygon class="cls-10" points="1345.5 1388.07 1345.49 1390.82 1340.53 1393.71 1340.53 1390.96 1345.5 1388.07"/>
              <g class="cls-17">
                <g class="cls-26">
                  <path class="cls-10" d="M1314.13,1391.94v2.75c-3.07-1.77-4.13-3.45-4.13-4.95v-2.75c0,1.49,1.07,3.18,4.13,4.95h0Z"/>
                </g>
              </g>
              <polygon class="cls-10" points="1318.31 1394.36 1318.3 1397.11 1314.12 1394.69 1314.13 1391.94 1318.31 1394.36"/>
              <g class="cls-17">
                <g class="cls-16">
                  <path class="cls-10" d="M1319.91,1396.12v2.75c0-.54-.48-1.11-1.61-1.76v-2.75c1.13.65,1.61,1.23,1.61,1.76h0Z"/>
                </g>
              </g>
              <g class="cls-17">
                <g class="cls-37">
                  <path class="cls-10" d="M1300.92,1400v2.75c-3.35-2.13-4.88-3.46-6.68-5.31v-2.75c1.8,1.85,3.33,3.19,6.68,5.31h0Z"/>
                </g>
              </g>
              <g class="cls-17">
                <g class="cls-19">
                  <path class="cls-10" d="M1329.81,1395.96v2.75c-.01,2.12-2.3,3.99-4.52,5.28v-2.75c2.23-1.29,4.52-3.16,4.52-5.28h0Z"/>
                </g>
              </g>
              <polygon class="cls-10" points="1325.29 1401.24 1325.28 1403.99 1323.08 1405.27 1323.08 1402.52 1325.29 1401.24"/>
              <g class="cls-17">
                <g class="cls-3">
                  <path class="cls-10" d="M1305.06,1402.49v2.75c-.12-.06-.23-.13-.33-.19v-2.75c.12.06.22.13.33.19h0Z"/>
                </g>
              </g>
              <polygon class="cls-10" points="1304.73 1402.3 1304.72 1405.05 1300.98 1407.23 1300.98 1404.48 1304.73 1402.3"/>
              <polygon class="cls-4" points="1300.98 1404.48 1300.98 1407.23 1297.07 1404.98 1297.08 1402.22 1300.98 1404.48"/>
              <path class="cls-6" d="M1342.56,1380.32l-3.98,2.31c2.98,1.92,5.33,3.87,6.93,5.44l-4.97,2.89c-2.48-1.63-8.13-5.19-9.79-6.15-.19-.11-.38-.22-.56-.33-2.45-1.42-4.32-1.95-7.1-.34l-1.63.95c-2.42,1.41-1.96,2.59.43,3.97l4.29,2.48c6.66,3.85,2.79,7.57-.89,9.71l-2.21,1.28c-7.17,4.17-13.48,2.59-18.03-.03-.11-.06-.22-.13-.33-.19l-3.75,2.18-3.9-2.25,3.83-2.23c-3.34-2.13-4.88-3.46-6.67-5.31l4.9-2.85c1.73,1.12,6.04,3.96,10.29,6.41,1.92,1.11,4.57,2.14,7.01.72l1.8-1.05c1.88-1.1,2.5-2.15.07-3.56l-4.18-2.41c-7.8-4.51-2.63-8.49.18-10.12l2.87-1.67c6.51-3.76,12.41-2.61,17.56.19l3.92-2.28,3.9,2.25Z"/>
              <g class="cls-17">
                <g class="cls-38">
                  <path class="cls-10" d="M1323.08,1402.52v2.75c-7.18,4.17-13.49,2.59-18.03-.03v-2.75c4.56,2.63,10.86,4.2,18.03.03h0Z"/>
                </g>
              </g>
            </g>
            <g class="cls-29">
              <path class="cls-5" d="M1359.35,1390.41l-69.95,13.9c-5.83-3.88-9-8.64-9-13.56,0-2.49.83-4.97,2.44-7.29l59.57-10.06c2.11.83,4.1,1.78,5.96,2.86,6.82,3.93,10.72,8.95,10.99,14.14Z"/>
            </g>
            <g>
              <path class="cls-13" d="M1293.5,1374.95v3.45c-.78.39-1.54.8-2.28,1.22-6.23,3.6-9.97,8.12-10.69,12.88-.09-.57-.14-1.15-.14-1.72,0-5.39,3.85-10.58,10.83-14.61.73-.42,1.5-.82,2.28-1.21Z"/>
              <path class="cls-8" d="M1359.38,1391.08c0,.58-.05,1.16-.14,1.73-.73-4.83-4.54-9.41-10.89-13.08-6.51-3.76-14.88-6.08-23.95-6.68v-3.46c9.07.61,17.45,2.92,23.95,6.68,7.1,4.1,11.02,9.36,11.02,14.81Z"/>
              <path class="cls-7" d="M1324.41,1369.58v3.46c-1.58-.11-3.18-.16-4.79-.16-9.74,0-18.9,1.94-26.12,5.51v-3.45c7.22-3.57,16.39-5.53,26.12-5.53,1.62,0,3.22.06,4.79.16Z"/>
            </g>
          </g>
          <g>
            <g>
              <path class="cls-7" d="M1336.71,1354.35v51.59c-.56.03-1.13.06-1.69.08-.4.01-.81.02-1.21.03-1.19.02-2.37.01-3.56-.03-.4,0-.81-.02-1.22-.04-1.19-.05-2.38-.14-3.56-.26-.41-.03-.81-.08-1.21-.12-1.2-.14-2.39-.3-3.56-.5-.41-.06-.81-.13-1.21-.2-1.2-.22-2.39-.48-3.56-.76-.41-.1-.82-.2-1.22-.31-1.21-.32-2.39-.67-3.56-1.05-.41-.14-.82-.27-1.22-.42-.8-.29-1.58-.58-2.36-.9v-42.83c.77-.31,1.56-.61,2.36-.89.4-.14.81-.28,1.22-.41,1.16-.38,2.35-.73,3.56-1.03.4-.1.81-.2,1.22-.3,1.17-.27,2.36-.52,3.56-.73.4-.07.8-.14,1.21-.2,1.18-.19,2.37-.35,3.56-.47.4-.04.81-.08,1.21-.12,1.18-.11,2.37-.18,3.56-.22.41-.02.81-.03,1.22-.04,1.19-.03,2.37-.03,3.56,0,.4,0,.81.02,1.21.04.56.02,1.13.05,1.69.09Z"/>
              <path class="cls-13" d="M1374.77,1370.89v10.84h0c-.01,2.18-.53,4.36-1.54,6.47-.35.72-.75,1.44-1.22,2.15-.95,1.44-2.13,2.83-3.56,4.16-.38.36-.79.71-1.21,1.07-1.07.88-2.26,1.75-3.56,2.56-.39.25-.8.5-1.22.73-.02.01-.03.02-.05.03-1.12.65-2.29,1.25-3.5,1.8-.4.2-.81.37-1.22.54-1.16.5-2.35.96-3.56,1.37-.39.14-.8.27-1.21.4-1.16.37-2.35.71-3.56,1.01-.4.1-.8.2-1.21.29-1.17.28-2.36.52-3.56.71-.4.07-.81.14-1.22.2-1.18.18-2.37.33-3.56.46-.4.04-.8.08-1.21.11-.62.05-1.24.1-1.87.14v-51.59c.63.04,1.25.09,1.87.15.4.03.81.07,1.21.12,1.2.13,2.39.29,3.56.48.41.07.82.14,1.22.21,1.2.21,2.39.46,3.56.73.41.1.81.19,1.21.3,1.21.31,2.4.65,3.56,1.03.41.13.81.27,1.21.41,1.22.42,2.41.89,3.56,1.4.41.17.82.35,1.22.55,1.14.52,2.25,1.1,3.31,1.71.08.05.16.1.24.14.41.24.82.5,1.22.75,1.31.83,2.5,1.7,3.56,2.6.43.35.83.71,1.21,1.07,1.43,1.35,2.62,2.75,3.56,4.19.16.23.3.46.44.69h2.33Z"/>
              <path class="cls-8" d="M1307.56,1358.63v42.83c-.4-.17-.8-.34-1.2-.52-.19-.08-.38-.16-.57-.25-.22-.1-.43-.2-.64-.31-1.03-.48-2.03-1.01-2.99-1.56-.19-.11-.38-.23-.57-.34-.41-.24-.82-.5-1.22-.76-1.31-.84-2.49-1.73-3.56-2.65-.43-.37-.83-.74-1.22-1.12-1.45-1.41-2.64-2.88-3.56-4.39-.48-.78-.88-1.56-1.21-2.36-.76-1.8-1.16-3.62-1.22-5.45h-.02v-10.84h2.17c.09-.16.18-.31.28-.46.92-1.51,2.11-2.98,3.56-4.38.39-.38.79-.75,1.22-1.11,1.06-.91,2.25-1.8,3.56-2.63.39-.26.8-.51,1.22-.75.13-.08.25-.16.38-.23,1.02-.58,2.09-1.14,3.18-1.65.21-.1.43-.2.64-.3.19-.09.38-.17.57-.25.39-.18.8-.35,1.2-.51Z"/>
            </g>
            <g class="cls-28">
              <path class="cls-11" d="M1296.82,1364.95v30.11c-.43-.37-.83-.74-1.22-1.12v-27.89c.39-.38.79-.75,1.22-1.11Z"/>
              <path class="cls-11" d="M1292.04,1370.43v19.12c-.48-.78-.88-1.56-1.21-2.36v-16.3h.93c.09-.16.18-.31.28-.46Z"/>
              <path class="cls-11" d="M1301.59,1361.57v36.9c-.41-.24-.82-.5-1.22-.76v-35.4c.39-.26.8-.51,1.22-.75Z"/>
              <path class="cls-11" d="M1311.14,1357.33v45.45c-.41-.14-.82-.27-1.22-.42v-44.62c.4-.14.81-.28,1.22-.41Z"/>
              <path class="cls-11" d="M1306.36,1359.14v41.79c-.19-.08-.38-.16-.57-.25-.22-.1-.43-.2-.64-.31v-40.69c.21-.1.43-.2.64-.3.19-.09.38-.17.57-.25Z"/>
              <path class="cls-11" d="M1320.69,1355.07v50.04c-.41-.06-.81-.13-1.21-.2v-49.63c.4-.07.8-.14,1.21-.2Z"/>
              <path class="cls-11" d="M1315.91,1356v48.14c-.41-.1-.82-.2-1.22-.31v-47.54c.4-.1.81-.2,1.22-.3Z"/>
              <path class="cls-11" d="M1325.46,1354.48v51.24c-.41-.03-.81-.08-1.21-.12v-51.01c.4-.04.81-.08,1.21-.12Z"/>
              <path class="cls-11" d="M1330.24,1354.22v51.81c-.4,0-.81-.02-1.22-.04v-51.73c.41-.02.81-.03,1.22-.04Z"/>
              <path class="cls-11" d="M1335.01,1354.26v51.76c-.4.01-.81.02-1.21.03v-51.83c.4,0,.81.02,1.21.04Z"/>
              <path class="cls-11" d="M1339.78,1354.62v51.08c-.4.04-.8.08-1.21.11v-51.31c.4.03.81.07,1.21.12Z"/>
              <path class="cls-11" d="M1344.56,1355.3v49.74c-.4.07-.81.14-1.22.2v-50.15c.41.07.82.14,1.22.21Z"/>
              <path class="cls-11" d="M1358.89,1359.73v40.99c-.4.2-.81.37-1.22.54v-42.09c.41.17.82.35,1.22.55Z"/>
              <path class="cls-11" d="M1349.34,1356.34v47.71c-.4.1-.8.2-1.21.29v-48.29c.41.1.81.19,1.21.3Z"/>
              <path class="cls-11" d="M1354.11,1357.78v44.86c-.39.14-.8.27-1.21.4v-45.67c.41.13.81.27,1.21.41Z"/>
              <path class="cls-11" d="M1363.66,1362.33v35.82c-.39.25-.8.5-1.22.73v-37.3c.41.24.82.5,1.22.75Z"/>
              <path class="cls-11" d="M1368.44,1366.01v28.51c-.38.36-.79.71-1.21,1.07v-30.65c.43.35.83.71,1.21,1.07Z"/>
              <path class="cls-11" d="M1373.22,1370.89v17.32c-.35.72-.75,1.44-1.22,2.15v-20.16c.16.23.3.46.44.69h.78Z"/>
            </g>
            <g>
              <path class="cls-6" d="M1362.39,1389.01c-16.58,9.57-43.55,9.52-60.23-.11-16.68-9.63-16.77-25.2-.19-34.77,16.58-9.57,43.55-9.52,60.23.11,16.68,9.63,16.77,25.2.19,34.77Z"/>
              <path class="cls-12" d="M1371.68,1371.72c0,5.4-3.84,10.58-10.84,14.61-7.51,4.34-17.61,6.73-28.39,6.73s-21.1-2.42-28.75-6.84c-.71-.42-1.37-.83-2.01-1.26-5.83-3.88-9-8.64-9-13.55,0-2.49.83-4.97,2.44-7.29,1.82-2.68,4.66-5.16,8.38-7.32,7.53-4.33,17.61-6.73,28.41-6.73,8.26,0,16.13,1.4,22.78,4,2.11.83,4.1,1.78,5.96,2.86,6.82,3.93,10.72,8.95,10.99,14.14.03.23.03.43.03.66Z"/>
            </g>
            <g class="cls-17">
              <polygon class="cls-10" points="1354.85 1360.97 1354.84 1363.72 1350.86 1366.03 1350.87 1363.28 1354.85 1360.97"/>
              <g class="cls-17">
                <g class="cls-36">
                  <path class="cls-4" d="M1343.04,1365.46v2.75c-.2-.11-.38-.22-.57-.33-2.45-1.42-4.32-1.95-7.1-.34v-2.75c2.78-1.61,4.65-1.07,7.1.34.18.11.37.22.56.33h0Z"/>
                </g>
              </g>
              <polygon class="cls-4" points="1335.38 1364.79 1335.38 1367.54 1333.75 1368.49 1333.76 1365.73 1335.38 1364.79"/>
              <g class="cls-17">
                <g class="cls-33">
                  <path class="cls-4" d="M1333.76,1365.73v2.75c-1.11.64-1.61,1.23-1.61,1.81v-2.75c0-.59.52-1.18,1.61-1.82h0Z"/>
                </g>
              </g>
              <g class="cls-17">
                <g class="cls-1">
                  <path class="cls-4" d="M1352.83,1371.61v2.75c-2.49-1.63-8.14-5.19-9.8-6.15v-2.75c1.67.96,7.32,4.52,9.8,6.15h0Z"/>
                </g>
              </g>
              <polygon class="cls-10" points="1357.8 1368.72 1357.79 1371.47 1352.82 1374.36 1352.83 1371.61 1357.8 1368.72"/>
              <g class="cls-17">
                <g class="cls-23">
                  <path class="cls-10" d="M1326.42,1372.59v2.75c-3.07-1.76-4.13-3.45-4.13-4.94v-2.75c0,1.49,1.07,3.18,4.13,4.94h0Z"/>
                </g>
              </g>
              <polygon class="cls-10" points="1330.61 1375.01 1330.6 1377.76 1326.42 1375.34 1326.42 1372.59 1330.61 1375.01"/>
              <g class="cls-17">
                <g class="cls-30">
                  <path class="cls-10" d="M1332.2,1376.77v2.75c0-.54-.48-1.11-1.61-1.76v-2.75c1.13.65,1.61,1.22,1.61,1.76h0Z"/>
                </g>
              </g>
              <g class="cls-17">
                <g class="cls-41">
                  <path class="cls-10" d="M1313.21,1380.64v2.75c-3.35-2.13-4.88-3.46-6.68-5.31v-2.75c1.8,1.85,3.33,3.19,6.68,5.31h0Z"/>
                </g>
              </g>
              <g class="cls-17">
                <g class="cls-27">
                  <path class="cls-10" d="M1342.1,1376.61v2.75c-.01,2.12-2.3,3.99-4.52,5.28v-2.75c2.23-1.29,4.52-3.16,4.52-5.28h0Z"/>
                </g>
              </g>
              <polygon class="cls-10" points="1337.59 1381.89 1337.58 1384.64 1335.37 1385.92 1335.38 1383.17 1337.59 1381.89"/>
              <g class="cls-17">
                <g class="cls-18">
                  <path class="cls-10" d="M1317.35,1383.14v2.75c-.12-.06-.23-.13-.33-.19v-2.75c.12.06.22.13.33.19h0Z"/>
                </g>
              </g>
              <polygon class="cls-10" points="1317.03 1382.95 1317.02 1385.7 1313.27 1387.88 1313.28 1385.12 1317.03 1382.95"/>
              <polygon class="cls-4" points="1313.28 1385.12 1313.27 1387.88 1309.37 1385.62 1309.38 1382.87 1313.28 1385.12"/>
              <path class="cls-6" d="M1354.85,1360.97l-3.98,2.32c2.98,1.92,5.33,3.87,6.93,5.44l-4.97,2.89c-2.48-1.63-8.13-5.19-9.79-6.15-.19-.11-.38-.22-.56-.33-2.45-1.42-4.32-1.95-7.1-.34l-1.63.95c-2.42,1.41-1.96,2.59.43,3.97l4.29,2.48c6.66,3.85,2.79,7.57-.89,9.71l-2.21,1.28c-7.17,4.17-13.48,2.59-18.03-.03-.11-.06-.22-.13-.33-.19l-3.75,2.18-3.9-2.25,3.83-2.23c-3.34-2.13-4.88-3.46-6.67-5.31l4.9-2.85c1.73,1.12,6.04,3.96,10.29,6.41,1.92,1.11,4.57,2.14,7.01.72l1.8-1.05c1.88-1.1,2.5-2.15.07-3.56l-4.18-2.41c-7.8-4.51-2.63-8.49.18-10.12l2.87-1.67c6.51-3.76,12.41-2.61,17.56.19l3.92-2.28,3.9,2.25Z"/>
              <g class="cls-17">
                <g class="cls-21">
                  <path class="cls-10" d="M1335.38,1383.17v2.75c-7.18,4.17-13.49,2.59-18.03-.03v-2.75c4.56,2.63,10.86,4.2,18.03.03h0Z"/>
                </g>
              </g>
            </g>
            <g class="cls-29">
              <path class="cls-5" d="M1371.64,1371.06l-69.95,13.9c-5.83-3.88-9-8.64-9-13.55,0-2.49.83-4.97,2.44-7.29l59.57-10.06c2.11.83,4.1,1.78,5.96,2.86,6.82,3.93,10.72,8.95,10.99,14.14Z"/>
            </g>
            <g>
              <path class="cls-13" d="M1305.79,1355.6v3.45c-.78.39-1.54.8-2.28,1.22-6.23,3.6-9.97,8.12-10.69,12.88-.09-.57-.14-1.15-.14-1.72,0-5.39,3.85-10.58,10.83-14.61.73-.42,1.5-.82,2.28-1.21Z"/>
              <path class="cls-8" d="M1371.68,1371.72c0,.58-.05,1.16-.14,1.73-.73-4.83-4.54-9.41-10.89-13.08-6.51-3.76-14.88-6.08-23.95-6.68v-3.46c9.07.61,17.45,2.92,23.95,6.68,7.11,4.1,11.02,9.36,11.02,14.81Z"/>
              <path class="cls-7" d="M1336.71,1350.23v3.46c-1.58-.11-3.18-.16-4.79-.16-9.74,0-18.9,1.94-26.12,5.51v-3.45c7.22-3.57,16.39-5.53,26.12-5.53,1.62,0,3.22.06,4.79.16Z"/>
            </g>
          </g>
        </g>
      </g>
    </g>
  </g>
</svg>