<?xml version="1.0" encoding="UTF-8"?>
<svg xmlns="http://www.w3.org/2000/svg" version="1.1" xmlns:xlink="http://www.w3.org/1999/xlink" viewBox="0 0 2000 2000">
  <defs>
    <style>
      .cls-1 {
        fill: #383442;
      }

      .cls-1, .cls-2, .cls-3, .cls-4, .cls-5, .cls-6, .cls-7, .cls-8, .cls-9, .cls-10, .cls-11, .cls-12, .cls-13, .cls-14, .cls-15, .cls-16, .cls-17, .cls-18, .cls-19, .cls-20, .cls-21, .cls-22 {
        stroke-width: 0px;
      }

      .cls-2 {
        fill: #a26d42;
      }

      .cls-3 {
        fill: #d3dbe2;
      }

      .cls-4 {
        fill: #f4f5f6;
      }

      .cls-5 {
        fill: #b25055;
      }

      .cls-23 {
        isolation: isolate;
      }

      .cls-6 {
        fill: #00aaf2;
      }

      .cls-7 {
        fill: #d6936e;
      }

      .cls-8 {
        fill: #b0a7c2;
        mix-blend-mode: multiply;
        opacity: .6;
      }

      .cls-9 {
        fill: #0796fa;
      }

      .cls-10 {
        fill: #d49063;
      }

      .cls-11 {
        fill: url(#Degradado_sin_nombre_4);
      }

      .cls-12 {
        fill: #283c48;
      }

      .cls-13 {
        fill: #f0dfbe;
      }

      .cls-14 {
        fill: #e6a57a;
      }

      .cls-15 {
        fill: #f1bc98;
      }

      .cls-16 {
        fill: #596876;
      }

      .cls-17 {
        fill: #c48b5e;
      }

      .cls-18 {
        fill: #bfbfbf;
      }

      .cls-19 {
        fill: #504a5e;
      }

      .cls-20 {
        fill: #1a2738;
      }

      .cls-21 {
        fill: #c78154;
      }

      .cls-22 {
        fill: #7f542e;
      }
    </style>
    <linearGradient id="Degradado_sin_nombre_4" data-name="Degradado sin nombre 4" x1="726.95" y1="839.44" x2="798.64" y2="839.44" gradientUnits="userSpaceOnUse">
      <stop offset=".31" stop-color="#2851cd"/>
      <stop offset=".8" stop-color="#1743be"/>
      <stop offset="1" stop-color="#0f3db7"/>
    </linearGradient>
  </defs>
  <g class="cls-23">
    <g id="Layer_2" data-name="Layer 2">
      <g>
        <path class="cls-8" d="M669.69,1030.35h0c102.79-59.35,186.12-190.79,186.12-293.58v-172.28c0-102.79-83.33-138.01-186.12-78.67h0c-102.79,59.35-186.12,190.79-186.12,293.58v172.28c0,102.79,83.33,138.01,186.12,78.67Z"/>
        <g>
          <g>
            <g>
              <path class="cls-2" d="M638.56,760.04h0c.28,2.52.44,5.08.44,7.69,0,8.74-3.97,18.69-11.86,24.37-1.04.75-2.15,1.43-3.33,2.02-3.31,1.65-7.15,2.62-11.53,2.62-10.35,0-18.53-3.33-23.71-10.43-2.87-3.91-4.83-8.98-5.74-15.26-31.84-7.08-57.8-42.59-57.8-75.34,0-1.71.07-3.41.22-5.1,5.07,17.29,20.28,38.95,37.19,49.06,0,0,.01,0,.02,0,5.96,3.56,12.12,5.69,18.12,5.69,15.44,0,27.14-7.8,27.14-26.66,0-19.74-13.8-38.49-20.92-55.92-2.43-7.92-3.74-15.28-3.74-24.22,0-38.79,24.59-83.26,68.46-105.39,9.21,13.59,21.37,23.93,13.71,42.22-20.24,48.31-4.19,50.1,1.59,43.07-12.43,17.14-19.2,47.95-35.53,55.09-4.59,2.01-7.93,6.15-8.99,11.04-.71,3.29-1.02,6.5-1.02,9.66,0,20.95,14.57,41.46,17.3,65.79Z"/>
              <path class="cls-3" d="M790.26,843.5c0,11.09-2.66,30.9-6.23,51.62-6.06,35.55-31.6,64.71-66.12,75.21-26,7.89-53.12,11.3-73.47,11.3h-1.2c-26.12-.17-54.28-14.95-74.67-36.09-15.66-16.32-26.75-36.38-28.61-56.44-.58-6.35-.96-13.25-.96-20.89,0-35.88,21.18-64.21,49.59-81.9,2.62,3.53,5.94,6.15,9.93,7.85,3.99,1.74,8.6,2.58,13.79,2.58,4.36,0,8.22-1,11.5-2.62,4.9,18.69,25.29,29.86,44.65,29.86,27.12,0,38.21-18.23,42.57-44.44,3.65-1.12,7.02-3.07,9.8-5.81,7.02-6.77,12.75-16.03,17.4-26.29,37.79,2.2,52.04,58.43,52.04,96.06Z"/>
              <path class="cls-12" d="M764.62,590.15c6.99,12.12,12.18,23.64,12.18,37.51,0,12.77-5,33.33-17.73,33.33-.89,0-1.81-.1-2.77-.31,1.69-5.66,2.17-11.73,2.17-17.87,0-8.2-.87-16.52-.87-24.13,0-9.17,7.35-14.86,7.35-23.96,0-1.56-.11-3.08-.33-4.57Z"/>
              <path class="cls-22" d="M749.98,633.29c-.21.28-.43.57-.66.85-2.87,2.15-5.61,4.51-8.15,7.07-3.26,2.11-7.31,4.19-12.32,6.14-1.17.46-2.87-.5-2.87-1.82,0-10.95,14.95-19.58,22.59-28.91.23-.28.46-.56.67-.85.18-.23.35-.46.51-.68.91-1.27,2.87-.95,3.31.55,1.21,4.1,2.09,10.72-3.09,17.65Z"/>
              <path class="cls-10" d="M749.98,633.29c0,.12-.01.24-.02.37-.22.16-.43.31-.64.48.23-.28.45-.57.66-.85Z"/>
              <path class="cls-17" d="M749.24,615.77c-.22.29-.44.57-.67.85-7.19-14.23-20.06-16.97-30.26-18.59-6.58-1.05-13.3-.32-19.54,2-9.39,3.49-19.53,5.73-27.01,12.72-1.52,1.42-2.96,3.06-4.32,4.86,0,.01-.01.02-.03.03-.19.25-.38.52-.57.78,0,.01-.02.03-.03.03-5.78,7.03-54.58,26.57-34.34-21.75,7.67-18.29,28.25-49.96,19.04-63.55,10.56-5.34,22.25-9.37,34.97-11.72,5.51-.23,11.27-1.51,16.84-1.51,15.87,0,22.7,13.38,30.64,26.48,1.25,3.03,2.23,5.47,3.37,6.82,1.01,1.19,9.52,6.67,16.84,15.38,4.89,5.83,9.25,13.11,10.44,21.53.22,1.49.33,3.01.33,4.57,0,9.1-7.35,14.8-7.35,23.96,0,7.61.87,15.93.87,24.13,0,6.14-.48,12.21-2.17,17.87-.89,2.98-2.12,5.85-3.78,8.55h0c-1.14-8.12-3.01-11.24-3.01-22.18,0-4.48.28-8.93.46-13.39,0-.12.01-.24.02-.37,5.17-6.93,4.29-13.55,3.09-17.65-.44-1.49-2.4-1.81-3.31-.55-.16.23-.33.46-.51.68Z"/>
              <path class="cls-14" d="M718.3,598.03c10.2,1.62,23.07,4.36,30.26,18.59-7.65,9.33-22.59,17.96-22.59,28.91,0,1.32,1.7,2.28,2.87,1.82,5-1.96,9.05-4.03,12.32-6.14-7.94,7.94-14.04,17.67-16.39,28.31-.33,1.52-.59,3.05-.77,4.61-.2,1.64-.29,3.31-.29,4.99,0,28.81,14.3,24.61,14.3,36.52,0,3.86-2.75,12.15-9.37,12.15-4.93,0-10.41-3.82-14.01-3.82h-.05c-3.05.04-3.59,4.38-.69,5.28,4.68,1.43,9.57,3.71,9.57,8.87,0,.89-.14,1.87-.46,2.94-7.62,3.73-14.4,3.72-22.54,3.72-2.65,0-5.39-.35-8.27-1.14,6.63,4.68,16.64,8.17,25.98,8.17.57,0,1.14-.01,1.71-.04-3.8,1.44-8.76,4.05-14.93,10.15-4.42,4.37-14.29,8.84-25.38,8.84-10.97,0-23.9-3.18-34.9-7.73-2.05-.95-4.08-1.93-6.1-2.96h0c-2.73-24.33-17.3-44.85-17.3-65.8,0-3.15.31-6.36,1.02-9.66,1.06-4.9,4.4-9.03,8.99-11.04,16.34-7.14,23.1-37.94,35.53-55.09.01,0,.03-.02.03-.03.2-.25.4-.51.57-.78.01-.01.02-.02.03-.03,1.36-1.8,2.8-3.44,4.32-4.86,7.48-6.99,17.62-9.23,27.01-12.72,6.24-2.32,12.96-3.05,19.54-2ZM728.36,704.63c-1.21-1.06-2.73-1.55-4.27-1.55-3.89,0-7.7,2.97-7.7,6.98,0,1.5.57,2.75,1.04,4.23.65-4.38,6.95-8.57,10.93-9.66ZM699.45,661.08c0-4.61-2.88-7.78-9.08-7.78-28.89,0-49.72,21.15-54.75,26.76,13.86-6.75,41.42-11.82,41.48-11.83,6.52-1.14,22.36.82,22.36-7.16ZM678.2,692.21c.43-1.38-1.08-2.57-2.32-1.81-.59.36-1.19.71-1.79,1.04-3.64,2.02-12.52,5.15-20.49,7.38-2.95.83-5.77,1.53-8.17,2.01-1.65.33-2.26,2.37-1.06,3.55,4.12,4.05,9.34,7.55,14.51,8.25t.01,0c.61.08,1.21.12,1.82.12,10.35,0,15.13-13.01,17.49-20.54Z"/>
              <path class="cls-20" d="M745.03,656.59c.76-.7,1.97-.08,1.88.94-.73,8.09-3.28,18.09-16.15,18.09h-.07c-1.53-1.4-2.47-3.22-2.47-5.39,0-.78.12-1.61.39-2.49,7.55-3.72,12.97-7.98,16.41-11.16Z"/>
              <path class="cls-22" d="M741.16,641.2c2.54-2.55,5.28-4.92,8.15-7.07-1.92,2.36-4.57,4.74-8.15,7.07Z"/>
              <path class="cls-5" d="M732.83,736.26c-.11,3.91-3.09,6.56-6.76,7.12,1.18.21,2.35.28,3.53.42-.33,6.35-3.47,5.56-9.73,7.94-.57.03-1.14.04-1.71.04-9.34,0-19.35-3.48-25.98-8.17,2.88.79,5.62,1.14,8.27,1.14,8.14,0,14.92.01,22.54-3.72,3.28-1.83,6.71-2.49,9.84-4.78Z"/>
              <path class="cls-13" d="M728.22,670.23c0,2.17.95,3.99,2.47,5.39-2.29,0-4.59-.5-6.69-1.51.18-1.55.44-3.09.77-4.61,1.34-.57,2.62-1.15,3.84-1.76-.27.87-.39,1.7-.39,2.49Z"/>
              <path class="cls-15" d="M724.09,703.09c1.55,0,3.07.48,4.27,1.55-3.98,1.1-10.28,5.28-10.93,9.66-.48-1.48-1.04-2.73-1.04-4.23,0-4.01,3.81-6.98,7.7-6.98Z"/>
              <path class="cls-16" d="M540.11,665.47c-6.19,2.71-8.75,8.25-8.75,15.07,0,10.22,5.75,23.32,13.7,34.1,0,0,.01.02.02.03,1,1.67,2.14,3.08,3.35,4.25,7.8,9.25,17.05,15.91,24.95,15.91,6.55,0,13.86-4.57,13.86-15.82,0-23.99-29-53.81-44.86-53.81-.91,0-1.62.08-2.27.27ZM726.18,520.01c-9.95-4.69-20.57-7.61-34.33-7.61-72.89,0-119.44,81.76-122.4,125.48-1.96,28.95,27.48,55.41,27.48,82.76,0,12.03-4.98,23.62-17.39,23.62-5.26,0-11.19-1.89-17.09-4.58,0,0-.01,0-.02,0-16.9-10.12-32.12-31.77-37.19-49.06-1.16-3.95-1.79-7.67-1.79-10.97,0-11.81,5.97-21.29,13.58-30.39,2.79-3.35,5.8-6.63,8.81-9.98,9.13-26.07,31.32-95.69,80.38-127.92,12.2-8.02,26.06-13.72,41.8-15.87,4.52-.61,9.2-.94,14.04-.94,7.53,0,13.78,1.77,19.91,4.28,7.09,4.4,15.68,11.4,24.19,21.19Z"/>
              <path class="cls-18" d="M706.1,780.55c1.68-.17,3.33-.51,4.94-1-4.39,26.21-15.47,44.45-42.58,44.45-19.36,0-39.75-11.2-44.64-29.89,1.17-.59,2.28-1.26,3.33-2.02,4.63,15.08,21.42,24.35,38.41,24.35,18.13,0,36.49-10.56,40.54-35.89Z"/>
              <path class="cls-21" d="M698.45,780.15c2.54.53,5.12.65,7.65.4-4.06,25.33-22.42,35.89-40.54,35.89-16.99,0-33.78-9.27-38.41-24.35,7.89-5.68,11.86-15.62,11.86-24.37,0-2.6-.16-5.16-.44-7.68,2.02,1.03,4.05,2.02,6.1,2.96,19.79,9.15,40.92,14.47,53.79,17.14Z"/>
              <path class="cls-22" d="M690.37,653.31c6.2,0,9.08,3.17,9.08,7.78,0,7.97-15.84,6.01-22.36,7.16-.06,0-27.62,5.08-41.48,11.83,5.03-5.61,25.86-26.76,54.75-26.76Z"/>
              <path class="cls-20" d="M675.88,690.4c1.24-.76,2.75.43,2.32,1.81-2.36,7.53-7.14,20.54-17.49,20.54-.61,0-1.21-.05-1.82-.12t-.01,0c-3.43-1.12-6.31-4.44-6.31-9.52,0-1.58.31-3.14,1.02-4.29,7.97-2.22,16.85-5.36,20.49-7.38.61-.33,1.2-.69,1.79-1.04Z"/>
              <path class="cls-7" d="M644.66,763.01c11,4.55,23.93,7.73,34.9,7.73,11.08,0,20.96-4.47,25.38-8.84,6.17-6.1,11.13-8.71,14.93-10.15,6.26-2.37,9.4-1.59,9.73-7.94-1.18-.14-2.35-.22-3.53-.42,3.67-.57,6.65-3.21,6.76-7.12-3.13,2.28-6.56,2.94-9.84,4.78.32-1.07.46-2.05.46-2.94,0-5.17-4.89-7.44-9.57-8.87-2.91-.89-2.36-5.24.69-5.28h.05c3.6,0,9.08,3.82,14.01,3.82,6.63,0,9.37-8.29,9.37-12.15,0-11.91-14.3-7.7-14.3-36.52,0-1.68.1-3.35.29-4.99,2.11,1.01,4.4,1.5,6.69,1.51h.07c12.86,0,15.42-10,16.15-18.09.09-1.02-1.12-1.64-1.88-.94-3.44,3.18-8.87,7.44-16.41,11.16-1.23.61-2.5,1.19-3.84,1.76,2.36-10.64,8.45-20.37,16.39-28.31,3.59-2.33,6.23-4.71,8.15-7.07.21-.17.42-.33.64-.48-.18,4.46-.46,8.91-.46,13.39,0,10.94,1.87,14.06,3.01,22.18.5,3.54.85,8.03.85,14.54,0,4.59-.2,9.22-.52,13.78-2.88,15.65-7.48,34-14.64,49.87-4.64,10.28-10.36,19.52-17.38,26.32-2.81,2.71-6.16,4.67-9.79,5.8-1.6.5-3.26.84-4.94,1-2.52.25-5.1.12-7.65-.4-12.87-2.67-34-7.98-53.79-17.14Z"/>
              <path class="cls-13" d="M652.57,703.11c0,5.08,2.88,8.4,6.31,9.52-5.17-.69-10.39-4.19-14.51-8.25-1.2-1.18-.59-3.22,1.06-3.55,2.39-.48,5.22-1.18,8.17-2.01-.72,1.14-1.02,2.7-1.02,4.29Z"/>
              <path class="cls-17" d="M641.79,489.36c5.9,0,15.53,2.3,26.25,6.12-15.74,2.15-29.6,7.85-41.8,15.87-9.12-4.32-19.73-6.68-31.72-6.68-2.54,0-5.3.2-8,.27h0c16.74-10.12,35.8-15.58,55.28-15.58Z"/>
              <path class="cls-2" d="M594.52,504.66c11.99,0,22.6,2.36,31.72,6.68-49.06,32.23-71.25,101.84-80.38,127.92-3.01,3.34-6.03,6.63-8.81,9.98h0c-5.23-12.91-7.99-25.1-7.99-35.12,0-50.51,24.14-89.05,57.47-109.19h0c2.7-.07,5.46-.27,8-.27Z"/>
              <path class="cls-12" d="M579.55,744.25c12.41,0,17.39-11.59,17.39-23.62,0-27.35-29.45-53.81-27.48-82.76,2.95-43.72,49.51-125.48,122.4-125.48,13.76,0,24.37,2.92,34.33,7.61h0c10.39,11.95,20.66,28.05,27.99,48.61-7.31-8.71-15.83-14.18-16.84-15.38-1.14-1.35-2.13-3.8-3.37-6.82-7.94-13.1-14.77-26.48-30.64-26.48-5.57,0-11.34,1.28-16.84,1.51-12.73,2.35-24.41,6.39-34.97,11.72-43.87,22.13-68.46,66.6-68.46,105.39,0,8.94,1.31,16.3,3.74,24.22,7.12,17.43,20.92,36.18,20.92,55.92,0,18.85-11.7,26.66-27.14,26.66-6,0-12.17-2.13-18.12-5.69,5.9,2.69,11.83,4.58,17.09,4.58Z"/>
              <path class="cls-20" d="M569.45,712.63c0,6.29-3.65,11.49-10.16,11.49-.5,0-1.1-.07-1.79-.2-6.56-4.26-13.67-11.83-16.93-19.12-2.24-5.03-1-11.06,3.4-14.37,1.78-1.34,3.88-2.13,6.18-2.13,6.88,0,19.3,14.22,19.3,24.33Z"/>
              <path class="cls-6" d="M548.43,718.91c-1.15-1.37-2.28-2.79-3.35-4.25,0,0-.01-.02-.02-.03-7.95-10.78-13.7-23.88-13.7-34.1,0-6.82,2.56-12.36,8.75-15.07.65-.19,1.36-.27,2.27-.27,15.86,0,44.86,29.83,44.86,53.81,0,11.25-7.31,15.82-13.86,15.82-7.89,0-17.14-6.66-24.95-15.91ZM540.57,704.8c3.26,7.29,10.37,14.86,16.93,19.12.69.14,1.3.2,1.79.2,6.51,0,10.16-5.21,10.16-11.49,0-10.11-12.42-24.33-19.3-24.33-2.3,0-4.4.79-6.18,2.13-4.4,3.31-5.64,9.34-3.4,14.37Z"/>
            </g>
            <path class="cls-4" d="M790.26,843.5c0,11.09-2.66,30.9-6.23,51.62-6.06,35.55-31.6,64.71-66.12,75.21-26,7.89-53.12,11.3-73.47,11.3h-1.2c-26.12-.17-54.28-14.95-74.67-36.09,2.2.29,4.49.62,6.81,1,206.61,31.56,135.64-167,135.64-167,3.65-1.12,7.02-3.07,9.8-5.81,7.02-6.77,12.75-16.03,17.4-26.29,37.79,2.2,52.04,58.43,52.04,96.06Z"/>
            <g>
              <path class="cls-19" d="M685.43,758.03c-2.16,4.57-5.32,5.77-8.51,6.27-1.08.17-1.95.33-2.66.42-6.31,1.12-.21.62-16.82,1.87-5.69.37-2.91.42-9.84.12-11.84-.58-7.31-.08-19.64-2.16-3.24-.42-6.44-1.41-9.59-2.37-3.16-1-6.4-1.7-9.34-3.16-23.51-8.89-45.52-28.78-56.4-51.62-.5-1.04-.04-2.28,1-2.74.25-.17.54-.21.83-.21.66-.04,1.33.29,1.74.87,14.83,21.06,36.13,36.38,56.77,42.94,2.74,1.16,5.69,1.58,8.51,2.41,2.87.75,5.73,1.54,8.68,1.79,10.55,1.41,6.48,1.12,17.69,1.37,5.81.21,2.08.37,17.82-.96,8.56-.62,11.92-4.65,18.77,1.12,1.66,1.41,1.37,3.16,1,4.03Z"/>
              <path class="cls-1" d="M685.43,758.03c-2.16,4.57-5.32,5.77-8.51,6.27-1.08.17-1.95.33-2.66.42,1.12-.79,1.79-1.74,1.79-2.95,0-4.11-4.19-4.98-8.27-4.98-2.82,0-3.24.29-9.72.29-47.39,0-78.74-16.49-103.62-52.62.66-.04,1.33.29,1.74.87,14.83,21.06,36.13,36.38,56.77,42.94,2.74,1.16,5.69,1.58,8.51,2.41,2.87.75,5.73,1.54,8.68,1.79,10.55,1.41,6.48,1.12,17.69,1.37,5.81.21,2.08.37,17.82-.96,8.56-.62,11.92-4.65,18.77,1.12,1.66,1.41,1.37,3.16,1,4.03Z"/>
            </g>
          </g>
          <g>
            <path class="cls-11" d="M737.26,875.21l51.06-29.48c5.7-3.29,10.32-10.58,10.32-16.27v-21.43c0-5.7-4.62-7.65-10.32-4.36l-51.06,29.48c-5.7,3.29-10.32,10.58-10.32,16.27v21.43c0,5.7,4.62,7.65,10.32,4.36Z"/>
            <path class="cls-9" d="M737.46,852.07l50.66-29.25c2.77-1.6,5.02-5.15,5.02-7.92h0c0-2.77-2.25-3.72-5.02-2.12l-50.66,29.25c-2.77,1.6-5.02,5.14-5.02,7.92h0c0,2.77,2.25,3.72,5.02,2.12Z"/>
          </g>
        </g>
      </g>
    </g>
  </g>
</svg>