<?xml version="1.0" encoding="UTF-8"?>
<svg xmlns="http://www.w3.org/2000/svg" version="1.1" xmlns:xlink="http://www.w3.org/1999/xlink" viewBox="0 0 2000 2000">
  <defs>
    <style>
      .cls-1 {
        fill: url(#_Áåçûìÿííûé_ãðàäèåíò_34-8);
      }

      .cls-1, .cls-2, .cls-3, .cls-4, .cls-5, .cls-6, .cls-7, .cls-8, .cls-9, .cls-10, .cls-11, .cls-12, .cls-13, .cls-14, .cls-15, .cls-16, .cls-17, .cls-18, .cls-19, .cls-20, .cls-21, .cls-22, .cls-23, .cls-24, .cls-25, .cls-26 {
        stroke-width: 0px;
      }

      .cls-2 {
        fill: url(#_Áåçûìÿííûé_ãðàäèåíò_34-4);
      }

      .cls-3 {
        fill: url(#linear-gradient);
      }

      .cls-3, .cls-4, .cls-5, .cls-6, .cls-7, .cls-14, .cls-27, .cls-16, .cls-17, .cls-20, .cls-21, .cls-24 {
        mix-blend-mode: multiply;
      }

      .cls-3, .cls-4, .cls-5, .cls-6, .cls-7, .cls-14, .cls-16, .cls-17, .cls-20, .cls-21, .cls-24 {
        opacity: .2;
      }

      .cls-4 {
        fill: url(#linear-gradient-7);
      }

      .cls-5 {
        fill: url(#linear-gradient-11);
      }

      .cls-6 {
        fill: url(#linear-gradient-3);
      }

      .cls-7 {
        fill: url(#linear-gradient-8);
      }

      .cls-28 {
        isolation: isolate;
      }

      .cls-8 {
        fill: url(#_Áåçûìÿííûé_ãðàäèåíò_34-2);
      }

      .cls-9 {
        fill: #c4bea3;
      }

      .cls-10 {
        fill: #e0890b;
        opacity: .6;
      }

      .cls-11 {
        fill: url(#_Áåçûìÿííûé_ãðàäèåíò_34-11);
      }

      .cls-12 {
        fill: none;
      }

      .cls-13 {
        fill: #ffce45;
      }

      .cls-14 {
        fill: url(#linear-gradient-4);
      }

      .cls-15 {
        fill: url(#_Áåçûìÿííûé_ãðàäèåíò_34-7);
      }

      .cls-27 {
        opacity: .8;
      }

      .cls-16 {
        fill: url(#linear-gradient-2);
      }

      .cls-17 {
        fill: url(#linear-gradient-6);
      }

      .cls-18 {
        fill: url(#_Áåçûìÿííûé_ãðàäèåíò_34-3);
      }

      .cls-19 {
        fill: url(#_Áåçûìÿííûé_ãðàäèåíò_34-6);
      }

      .cls-29 {
        clip-path: url(#clippath);
      }

      .cls-20 {
        fill: url(#linear-gradient-9);
      }

      .cls-21 {
        fill: url(#linear-gradient-10);
      }

      .cls-22 {
        fill: url(#_Áåçûìÿííûé_ãðàäèåíò_34-9);
      }

      .cls-23 {
        fill: url(#_Áåçûìÿííûé_ãðàäèåíò_34-5);
      }

      .cls-24 {
        fill: url(#linear-gradient-5);
      }

      .cls-25 {
        fill: url(#_Áåçûìÿííûé_ãðàäèåíò_34);
      }

      .cls-26 {
        fill: url(#_Áåçûìÿííûé_ãðàäèåíò_34-10);
      }
    </style>
    <clipPath id="clippath">
      <polygon class="cls-12" points="1167.38 1038.97 1003.99 1133.3 923.27 1086.7 1086.66 992.37 1167.38 1038.97"/>
    </clipPath>
    <linearGradient id="_Áåçûìÿííûé_ãðàäèåíò_34" data-name="Áåçûìÿííûé ãðàäèåíò 34" x1="984.63" y1="1126.53" x2="1024.28" y2="1126.53" gradientUnits="userSpaceOnUse">
      <stop offset="0" stop-color="#d88000"/>
      <stop offset="1" stop-color="#ffac33"/>
    </linearGradient>
    <linearGradient id="linear-gradient" x1="985.12" y1="1133.41" x2="1023.87" y2="1133.41" gradientUnits="userSpaceOnUse">
      <stop offset="0" stop-color="#d88f25"/>
      <stop offset="1" stop-color="#eba136"/>
    </linearGradient>
    <linearGradient id="_Áåçûìÿííûé_ãðàäèåíò_34-2" data-name="Áåçûìÿííûé ãðàäèåíò 34" x1="984.56" y1="1119.94" x2="1024.21" y2="1119.94" xlink:href="#_Áåçûìÿííûé_ãðàäèåíò_34"/>
    <linearGradient id="linear-gradient-2" x1="985.05" y1="1126.83" x2="1023.79" y2="1126.83" xlink:href="#linear-gradient"/>
    <linearGradient id="_Áåçûìÿííûé_ãðàäèåíò_34-3" data-name="Áåçûìÿííûé ãðàäèåíò 34" x1="984.6" y1="1114.74" x2="1024.25" y2="1114.74" xlink:href="#_Áåçûìÿííûé_ãðàäèåíò_34"/>
    <linearGradient id="linear-gradient-3" x1="985.09" y1="1121.63" x2="1023.83" y2="1121.63" xlink:href="#linear-gradient"/>
    <linearGradient id="_Áåçûìÿííûé_ãðàäèåíò_34-4" data-name="Áåçûìÿííûé ãðàäèåíò 34" x1="984.63" y1="1109.54" y2="1109.54" xlink:href="#_Áåçûìÿííûé_ãðàäèåíò_34"/>
    <linearGradient id="linear-gradient-4" y1="1116.43" y2="1116.43" xlink:href="#linear-gradient"/>
    <linearGradient id="_Áåçûìÿííûé_ãðàäèåíò_34-5" data-name="Áåçûìÿííûé ãðàäèåíò 34" x1="986.32" y1="1104.4" x2="1025.97" y2="1104.4" xlink:href="#_Áåçûìÿííûé_ãðàäèåíò_34"/>
    <linearGradient id="linear-gradient-5" x1="986.81" y1="1111.29" x2="1025.55" y2="1111.29" xlink:href="#linear-gradient"/>
    <linearGradient id="_Áåçûìÿííûé_ãðàäèåíò_34-6" data-name="Áåçûìÿííûé ãðàäèåíò 34" x1="986.15" y1="1098.79" x2="1025.8" y2="1098.79" xlink:href="#_Áåçûìÿííûé_ãðàäèåíò_34"/>
    <linearGradient id="linear-gradient-6" x1="986.64" y1="1105.68" x2="1025.38" y2="1105.68" xlink:href="#linear-gradient"/>
    <linearGradient id="_Áåçûìÿííûé_ãðàäèåíò_34-7" data-name="Áåçûìÿííûé ãðàäèåíò 34" x1="1023.82" y1="1129.16" x2="1063.47" y2="1129.16" xlink:href="#_Áåçûìÿííûé_ãðàäèåíò_34"/>
    <linearGradient id="linear-gradient-7" x1="1024.31" y1="1136.04" x2="1063.05" y2="1136.04" xlink:href="#linear-gradient"/>
    <linearGradient id="_Áåçûìÿííûé_ãðàäèåíò_34-8" data-name="Áåçûìÿííûé ãðàäèåíò 34" x1="1022.02" y1="1122.57" x2="1061.67" y2="1122.57" xlink:href="#_Áåçûìÿííûé_ãðàäèåíò_34"/>
    <linearGradient id="linear-gradient-8" x1="1022.51" y1="1129.46" x2="1061.26" y2="1129.46" xlink:href="#linear-gradient"/>
    <linearGradient id="_Áåçûìÿííûé_ãðàäèåíò_34-9" data-name="Áåçûìÿííûé ãðàäèåíò 34" x1="1022.06" y1="1117.37" x2="1061.71" y2="1117.37" xlink:href="#_Áåçûìÿííûé_ãðàäèåíò_34"/>
    <linearGradient id="linear-gradient-9" x1="1022.55" y1="1124.26" x2="1061.29" y2="1124.26" xlink:href="#linear-gradient"/>
    <linearGradient id="_Áåçûìÿííûé_ãðàäèåíò_34-10" data-name="Áåçûìÿííûé ãðàäèåíò 34" x1="1002.6" y1="1144.64" x2="1042.25" y2="1144.64" xlink:href="#_Áåçûìÿííûé_ãðàäèåíò_34"/>
    <linearGradient id="linear-gradient-10" x1="1003.09" y1="1151.52" x2="1041.83" y2="1151.52" xlink:href="#linear-gradient"/>
    <linearGradient id="_Áåçûìÿííûé_ãðàäèåíò_34-11" data-name="Áåçûìÿííûé ãðàäèåíò 34" x1="1001.88" y1="1139.44" x2="1041.53" y2="1139.44" xlink:href="#_Áåçûìÿííûé_ãðàäèåíò_34"/>
    <linearGradient id="linear-gradient-11" x1="1002.37" y1="1146.32" x2="1041.11" y2="1146.32" xlink:href="#linear-gradient"/>
  </defs>
  <g class="cls-28">
    <g id="Layer_2" data-name="Layer 2">
      <g class="cls-29">
        <g class="cls-27">
          <path class="cls-9" d="M1011.29,1088.88c-5.13-2.93-12.34-3.86-18.88-2.88-6.61-.99-13.93-.02-19.1,2.99-7.72,4.5-7.69,11.74.07,16.17,3.84,2.2,8.85,3.27,13.88,3.25h10.05c5.09,0,10.17-1.11,14.05-3.37,7.72-4.5,7.69-11.74-.07-16.17Z"/>
          <path class="cls-9" d="M987.69,1070.46c-5.13-2.93-12.34-3.86-18.88-2.88-6.61-.99-13.93-.02-19.1,2.99-7.72,4.5-7.69,11.74.07,16.17,3.84,2.2,8.85,3.27,13.88,3.25h10.05c5.09,0,10.17-1.11,14.05-3.37,7.72-4.5,7.69-11.74-.07-16.17Z"/>
        </g>
      </g>
      <g>
        <g>
          <path class="cls-25" d="M1012.65,1113.91c-5.38-1.5-11.12-1.47-16.49.07-7.61,2.19-11.44,6.26-11.51,10.35-.03,1.52-.02,3.05.02,4.57.1,4.08,3.97,8.13,11.6,10.25,5.38,1.5,11.12,1.47,16.49-.07,7.61-2.19,11.44-6.26,11.51-10.35.03-1.52.02-3.05-.02-4.57-.1-4.08-3.97-8.13-11.6-10.25Z"/>
          <path class="cls-3" d="M986.52,1129.22l.02,4.35c-.64-.79-1.09-1.62-1.4-2.46l-.02-4.25c.3.81.79,1.6,1.4,2.36ZM996.64,1134.9l.02,4.35c.46.12.93.24,1.39.34l-.02-4.4c-.47-.09-.94-.17-1.39-.29ZM1002.39,1135.72l.02,4.47c.46.03.93.03,1.39.04l-.02-4.45c-.47,0-.93-.04-1.39-.07ZM999.52,1135.43l.02,4.42c.46.07.93.14,1.39.2l-.02-4.4c-.47-.05-.93-.14-1.39-.21ZM988.01,1130.8l.02,4.26c.43.37.88.73,1.4,1.08l-.02-4.36c-.48-.32-.99-.63-1.4-.98ZM993.77,1134.04l.02,4.3c.44.17.92.31,1.39.46l-.02-4.34c-.46-.14-.95-.25-1.39-.42ZM990.89,1132.73l.02,4.3c.44.24.91.46,1.4.67l-.02-4.32c-.47-.21-.95-.41-1.4-.65ZM1005.26,1135.78l.02,4.45c.46-.01.93-.02,1.39-.06l-.02-4.47c-.46.03-.93.07-1.39.08ZM1019.61,1131.62l.02,4.37c.51-.35.96-.72,1.39-1.1l-.02-4.25c-.4.35-.92.66-1.39.99ZM1008.13,1135.61l.02,4.4c.47-.06.93-.13,1.39-.21l-.02-4.42c-.47.07-.92.17-1.39.23ZM1022.47,1129.01l.02,4.35c.65-.82,1.09-1.68,1.38-2.55l-.02-4.21c-.29.83-.78,1.63-1.38,2.41ZM1016.74,1133.25l.02,4.32c.48-.22.95-.45,1.39-.69l-.02-4.29c-.44.24-.92.45-1.39.66ZM1013.87,1134.36l.02,4.34c.47-.15.95-.3,1.39-.47l-.02-4.29c-.44.17-.93.28-1.39.43ZM1011,1135.12l.02,4.39c.47-.1.93-.22,1.39-.35l-.02-4.35c-.46.12-.92.21-1.39.3Z"/>
          <path class="cls-13" d="M1018.42,1116.24c7.75,4.43,7.78,11.67.07,16.17-7.72,4.5-20.26,4.55-28.01.12-7.75-4.43-7.78-11.67-.07-16.17,7.72-4.5,20.26-4.55,28.01-.12Z"/>
          <path class="cls-13" d="M1017.17,1116.97c7.06,4.04,7.09,10.63.06,14.73-7.03,4.1-18.45,4.14-25.51.11-7.06-4.04-7.09-10.63-.06-14.73,7.03-4.1,18.45-4.14,25.51-.11Z"/>
          <path class="cls-10" d="M992.01,1118.03c6.84-3.99,17.95-4.03,24.82-.1,5,2.86,6.35,7.03,4.1,10.62,2.93-3.84,1.68-8.46-3.76-11.58-7.06-4.04-18.48-3.99-25.51.11-5.42,3.16-6.62,7.8-3.66,11.61-2.28-3.58-.96-7.76,4.01-10.66Z"/>
        </g>
        <g>
          <path class="cls-8" d="M1012.58,1107.33c-5.38-1.5-11.12-1.47-16.49.07-7.61,2.19-11.44,6.26-11.51,10.35-.03,1.52-.02,3.05.02,4.57.1,4.08,3.97,8.13,11.6,10.25,5.38,1.5,11.12,1.47,16.49-.07,7.61-2.19,11.44-6.26,11.51-10.35.03-1.52.02-3.05-.02-4.57-.1-4.08-3.97-8.13-11.6-10.25Z"/>
          <path class="cls-16" d="M986.45,1122.63l.02,4.35c-.64-.79-1.09-1.62-1.4-2.46l-.02-4.25c.3.81.79,1.6,1.4,2.36ZM996.57,1128.31l.02,4.35c.46.12.93.24,1.39.34l-.02-4.4c-.47-.09-.94-.17-1.39-.28ZM1002.32,1129.13l.02,4.47c.46.03.93.03,1.39.04l-.02-4.45c-.47,0-.93-.04-1.39-.07ZM999.45,1128.84l.02,4.42c.46.07.93.14,1.39.2l-.02-4.4c-.47-.05-.93-.14-1.39-.21ZM987.94,1124.22l.02,4.26c.43.37.88.73,1.4,1.08l-.02-4.36c-.48-.32-.99-.63-1.4-.98ZM993.7,1127.45l.02,4.3c.44.17.92.31,1.39.46l-.02-4.34c-.46-.14-.95-.25-1.39-.42ZM990.82,1126.14l.02,4.3c.44.24.91.46,1.4.67l-.02-4.32c-.47-.21-.95-.41-1.4-.65ZM1005.19,1129.19l.02,4.45c.46-.01.93-.02,1.39-.06l-.02-4.47c-.46.03-.93.07-1.39.08ZM1019.53,1125.03l.02,4.37c.51-.35.96-.72,1.39-1.1l-.02-4.25c-.4.35-.92.66-1.39.99ZM1008.06,1129.02l.02,4.4c.47-.06.93-.13,1.39-.21l-.02-4.42c-.47.07-.92.17-1.39.23ZM1022.39,1122.42l.02,4.35c.65-.82,1.09-1.68,1.38-2.55l-.02-4.21c-.29.83-.78,1.63-1.38,2.41ZM1016.67,1126.66l.02,4.32c.48-.22.95-.45,1.39-.69l-.02-4.29c-.44.24-.92.45-1.39.66ZM1013.8,1127.77l.02,4.34c.47-.15.95-.3,1.39-.47l-.02-4.29c-.44.17-.93.28-1.39.43ZM1010.93,1128.53l.02,4.39c.47-.1.93-.22,1.39-.35l-.02-4.35c-.46.12-.92.21-1.39.3Z"/>
          <path class="cls-13" d="M1018.35,1109.66c7.75,4.43,7.78,11.67.07,16.17-7.72,4.5-20.26,4.55-28.01.12-7.75-4.43-7.78-11.67-.07-16.17,7.72-4.5,20.26-4.55,28.01-.12Z"/>
          <path class="cls-13" d="M1017.1,1110.38c7.06,4.04,7.09,10.63.06,14.73-7.03,4.1-18.45,4.14-25.51.11-7.06-4.04-7.09-10.63-.06-14.73,7.03-4.1,18.45-4.14,25.51-.11Z"/>
          <path class="cls-10" d="M991.94,1111.44c6.84-3.99,17.95-4.03,24.82-.1,5,2.86,6.36,7.03,4.1,10.62,2.93-3.84,1.68-8.46-3.76-11.58-7.06-4.04-18.48-3.99-25.51.11-5.42,3.16-6.62,7.8-3.66,11.61-2.28-3.58-.96-7.76,4.01-10.66Z"/>
        </g>
        <g>
          <path class="cls-18" d="M1012.62,1102.13c-5.38-1.5-11.12-1.47-16.49.07-7.61,2.19-11.44,6.26-11.51,10.35-.03,1.52-.02,3.05.02,4.57.1,4.08,3.97,8.13,11.6,10.25,5.38,1.5,11.12,1.47,16.49-.07,7.61-2.19,11.44-6.26,11.51-10.35.03-1.52.02-3.05-.02-4.57-.1-4.08-3.97-8.13-11.6-10.25Z"/>
          <path class="cls-6" d="M986.49,1117.43l.02,4.35c-.64-.79-1.09-1.62-1.4-2.46l-.02-4.25c.3.81.79,1.6,1.4,2.36ZM996.61,1123.11l.02,4.35c.46.12.93.24,1.39.34l-.02-4.4c-.47-.09-.94-.17-1.39-.29ZM1002.35,1123.93l.02,4.47c.46.03.93.03,1.39.04l-.02-4.45c-.47,0-.93-.04-1.39-.07ZM999.48,1123.64l.02,4.42c.46.07.93.14,1.39.2l-.02-4.4c-.47-.05-.93-.14-1.39-.21ZM987.97,1119.02l.02,4.26c.43.37.88.73,1.4,1.08l-.02-4.36c-.48-.32-.99-.63-1.4-.98ZM993.73,1122.25l.02,4.3c.44.17.92.31,1.39.46l-.02-4.34c-.46-.14-.95-.25-1.39-.42ZM990.85,1120.94l.02,4.3c.44.24.91.46,1.4.67l-.02-4.32c-.47-.21-.95-.41-1.4-.65ZM1005.23,1123.99l.02,4.45c.46-.01.93-.02,1.39-.06l-.02-4.47c-.46.03-.93.07-1.39.08ZM1019.57,1119.83l.02,4.36c.51-.35.96-.72,1.39-1.1l-.02-4.25c-.4.35-.92.66-1.39.99ZM1008.1,1123.82l.02,4.4c.47-.06.93-.13,1.39-.21l-.02-4.42c-.47.07-.92.17-1.39.23ZM1022.43,1117.22l.02,4.35c.65-.82,1.09-1.68,1.38-2.55l-.02-4.21c-.29.83-.78,1.63-1.38,2.41ZM1016.7,1121.46l.02,4.32c.48-.22.95-.45,1.39-.69l-.02-4.29c-.44.24-.92.45-1.39.66ZM1013.84,1122.57l.02,4.34c.47-.15.95-.3,1.39-.47l-.02-4.29c-.44.17-.93.28-1.39.43ZM1010.97,1123.33l.02,4.39c.47-.1.93-.22,1.39-.35l-.02-4.35c-.46.12-.92.21-1.39.3Z"/>
          <path class="cls-13" d="M1018.38,1104.46c7.75,4.43,7.78,11.67.07,16.17-7.72,4.5-20.26,4.55-28.01.12-7.75-4.43-7.78-11.67-.07-16.17,7.72-4.5,20.26-4.55,28.01-.12Z"/>
          <path class="cls-13" d="M1017.14,1105.18c7.06,4.04,7.09,10.63.06,14.73s-18.45,4.14-25.51.11c-7.06-4.04-7.09-10.63-.06-14.73,7.03-4.1,18.45-4.14,25.51-.11Z"/>
          <path class="cls-10" d="M991.98,1106.24c6.84-3.99,17.95-4.03,24.82-.1,5,2.86,6.36,7.03,4.1,10.62,2.93-3.84,1.68-8.46-3.76-11.58-7.06-4.04-18.48-3.99-25.51.11-5.42,3.16-6.62,7.8-3.66,11.61-2.28-3.58-.96-7.76,4.01-10.66Z"/>
        </g>
        <g>
          <path class="cls-2" d="M1012.65,1096.92c-5.38-1.5-11.12-1.47-16.49.07-7.61,2.19-11.44,6.26-11.51,10.35-.03,1.52-.02,3.05.02,4.57.1,4.08,3.97,8.13,11.6,10.25,5.38,1.5,11.12,1.47,16.49-.07,7.61-2.19,11.44-6.26,11.51-10.35.03-1.52.02-3.05-.02-4.57-.1-4.08-3.97-8.13-11.6-10.25Z"/>
          <path class="cls-14" d="M986.52,1112.23l.02,4.35c-.64-.79-1.09-1.62-1.4-2.46l-.02-4.25c.3.81.79,1.59,1.4,2.36ZM996.64,1117.91l.02,4.35c.46.12.93.24,1.39.34l-.02-4.4c-.47-.09-.94-.17-1.39-.28ZM1002.39,1118.73l.02,4.47c.46.03.93.03,1.39.04l-.02-4.45c-.47,0-.93-.04-1.39-.07ZM999.52,1118.44l.02,4.42c.46.07.93.14,1.39.19l-.02-4.4c-.47-.05-.93-.14-1.39-.21ZM988.01,1113.82l.02,4.26c.43.37.88.73,1.4,1.08l-.02-4.36c-.48-.32-.99-.63-1.4-.98ZM993.77,1117.05l.02,4.3c.44.17.92.31,1.39.46l-.02-4.34c-.46-.14-.95-.25-1.39-.42ZM990.89,1115.74l.02,4.3c.44.24.91.46,1.4.67l-.02-4.32c-.47-.21-.95-.41-1.4-.65ZM1005.26,1118.79l.02,4.45c.46-.01.93-.02,1.39-.06l-.02-4.47c-.46.03-.93.07-1.39.08ZM1019.61,1114.63l.02,4.36c.51-.35.96-.72,1.39-1.1l-.02-4.25c-.4.35-.92.66-1.39.99ZM1008.13,1118.62l.02,4.4c.47-.06.93-.13,1.39-.21l-.02-4.42c-.47.07-.92.17-1.39.23ZM1022.47,1112.02l.02,4.35c.65-.82,1.09-1.68,1.38-2.55l-.02-4.21c-.29.83-.78,1.63-1.38,2.41ZM1016.74,1116.26l.02,4.32c.48-.22.95-.45,1.39-.69l-.02-4.29c-.44.24-.92.45-1.39.66ZM1013.87,1117.37l.02,4.34c.47-.15.95-.3,1.39-.47l-.02-4.29c-.44.17-.93.28-1.39.43ZM1011,1118.13l.02,4.39c.47-.1.93-.22,1.39-.35l-.02-4.35c-.46.12-.92.21-1.39.3Z"/>
          <path class="cls-13" d="M1018.42,1099.26c7.75,4.43,7.78,11.67.07,16.17-7.72,4.5-20.26,4.55-28.01.12-7.75-4.43-7.78-11.67-.07-16.17,7.72-4.5,20.26-4.55,28.01-.12Z"/>
          <path class="cls-13" d="M1017.17,1099.98c7.06,4.04,7.09,10.63.06,14.73-7.03,4.1-18.45,4.14-25.51.11-7.06-4.04-7.09-10.63-.06-14.73,7.03-4.1,18.45-4.14,25.51-.11Z"/>
          <path class="cls-10" d="M992.01,1101.04c6.84-3.99,17.95-4.03,24.82-.1,5,2.86,6.35,7.03,4.1,10.62,2.93-3.84,1.68-8.47-3.76-11.58-7.06-4.04-18.48-3.99-25.51.11-5.42,3.16-6.62,7.8-3.66,11.61-2.28-3.58-.96-7.76,4.01-10.66Z"/>
        </g>
        <g>
          <path class="cls-23" d="M1014.34,1091.79c-5.38-1.5-11.12-1.47-16.49.07-7.61,2.19-11.44,6.26-11.51,10.35-.03,1.52-.02,3.05.02,4.57.1,4.08,3.97,8.13,11.6,10.25,5.38,1.5,11.12,1.47,16.49-.07,7.61-2.19,11.44-6.26,11.51-10.35.03-1.52.02-3.05-.02-4.57-.1-4.08-3.97-8.13-11.6-10.25Z"/>
          <path class="cls-24" d="M988.21,1107.09l.02,4.35c-.64-.79-1.09-1.62-1.4-2.46l-.02-4.25c.3.81.79,1.6,1.4,2.36ZM998.33,1112.77l.02,4.35c.46.12.93.24,1.39.34l-.02-4.4c-.47-.09-.94-.17-1.39-.28ZM1004.08,1113.59l.02,4.47c.46.03.93.03,1.39.04l-.02-4.45c-.47,0-.93-.04-1.39-.07ZM1001.21,1113.3l.02,4.42c.46.07.93.14,1.39.19l-.02-4.4c-.47-.05-.93-.14-1.39-.21ZM989.7,1108.68l.02,4.26c.43.37.88.73,1.4,1.08l-.02-4.36c-.48-.32-.99-.63-1.4-.98ZM995.46,1111.91l.02,4.3c.44.17.92.31,1.39.46l-.02-4.34c-.46-.14-.95-.25-1.39-.42ZM992.58,1110.6l.02,4.3c.44.24.91.46,1.4.67l-.02-4.32c-.47-.21-.95-.41-1.4-.65ZM1006.95,1113.65l.02,4.45c.46-.01.93-.02,1.39-.06l-.02-4.47c-.46.03-.93.07-1.39.08ZM1021.29,1109.49l.02,4.37c.51-.35.96-.72,1.39-1.1l-.02-4.25c-.4.35-.92.66-1.39.99ZM1009.82,1113.48l.02,4.4c.47-.06.93-.13,1.39-.21l-.02-4.42c-.47.07-.92.17-1.39.23ZM1024.15,1106.88l.02,4.35c.65-.82,1.09-1.68,1.38-2.55l-.02-4.21c-.29.83-.78,1.63-1.38,2.41ZM1018.43,1111.12l.02,4.32c.48-.22.95-.45,1.39-.69l-.02-4.29c-.44.24-.92.45-1.39.66ZM1015.56,1112.23l.02,4.34c.47-.15.95-.3,1.39-.47l-.02-4.29c-.44.17-.93.28-1.39.43ZM1012.69,1112.99l.02,4.39c.47-.1.93-.22,1.39-.35l-.02-4.35c-.46.12-.92.21-1.39.3Z"/>
          <path class="cls-13" d="M1020.11,1094.12c7.75,4.43,7.78,11.67.07,16.17-7.72,4.5-20.26,4.55-28.01.12-7.75-4.43-7.78-11.67-.07-16.17,7.72-4.5,20.26-4.55,28.01-.12Z"/>
          <path class="cls-13" d="M1018.86,1094.84c7.06,4.04,7.09,10.63.06,14.73-7.03,4.1-18.45,4.14-25.51.11-7.06-4.04-7.09-10.63-.06-14.73,7.03-4.1,18.45-4.14,25.51-.11Z"/>
          <path class="cls-10" d="M993.7,1095.9c6.84-3.99,17.95-4.03,24.82-.1,5,2.86,6.35,7.03,4.1,10.62,2.93-3.84,1.68-8.47-3.76-11.58-7.06-4.04-18.48-3.99-25.51.11-5.42,3.16-6.62,7.8-3.66,11.61-2.28-3.58-.96-7.76,4.01-10.66Z"/>
        </g>
        <g>
          <path class="cls-19" d="M1014.17,1086.18c-5.38-1.5-11.12-1.47-16.49.07-7.61,2.19-11.44,6.26-11.51,10.35-.03,1.52-.02,3.05.02,4.57.1,4.08,3.97,8.13,11.6,10.25,5.38,1.5,11.12,1.47,16.49-.07,7.61-2.19,11.44-6.26,11.51-10.35.03-1.52.02-3.05-.02-4.57-.1-4.08-3.97-8.13-11.6-10.25Z"/>
          <path class="cls-17" d="M988.04,1101.48l.02,4.35c-.64-.79-1.09-1.62-1.4-2.46l-.02-4.25c.3.81.79,1.6,1.4,2.36ZM998.16,1107.16l.02,4.35c.46.12.93.24,1.39.34l-.02-4.4c-.47-.09-.94-.17-1.39-.28ZM1003.91,1107.98l.02,4.47c.46.03.93.03,1.39.04l-.02-4.45c-.47,0-.93-.04-1.39-.07ZM1001.04,1107.69l.02,4.42c.46.07.93.14,1.39.2l-.02-4.4c-.47-.05-.93-.14-1.39-.21ZM989.53,1103.07l.02,4.26c.43.37.88.73,1.4,1.08l-.02-4.36c-.48-.32-.99-.63-1.4-.98ZM995.29,1106.3l.02,4.3c.44.17.92.31,1.39.46l-.02-4.34c-.46-.14-.95-.25-1.39-.42ZM992.41,1104.99l.02,4.3c.44.24.91.46,1.4.67l-.02-4.32c-.47-.21-.95-.41-1.4-.65ZM1006.78,1108.04l.02,4.45c.46-.01.93-.02,1.39-.06l-.02-4.47c-.46.03-.93.07-1.39.08ZM1021.12,1103.88l.02,4.37c.51-.35.96-.72,1.39-1.1l-.02-4.25c-.4.35-.92.66-1.39.99ZM1009.65,1107.87l.02,4.4c.47-.06.93-.13,1.39-.21l-.02-4.42c-.47.07-.92.17-1.39.23ZM1023.98,1101.27l.02,4.35c.65-.82,1.09-1.68,1.38-2.55l-.02-4.21c-.29.83-.78,1.63-1.38,2.41ZM1018.26,1105.51l.02,4.32c.48-.22.95-.45,1.39-.69l-.02-4.29c-.44.24-.92.45-1.39.66ZM1015.39,1106.62l.02,4.34c.47-.15.95-.3,1.39-.47l-.02-4.29c-.44.17-.93.28-1.39.43ZM1012.52,1107.38l.02,4.39c.47-.1.93-.22,1.39-.35l-.02-4.35c-.46.12-.92.21-1.39.3Z"/>
          <path class="cls-13" d="M1019.94,1088.51c7.75,4.43,7.78,11.67.07,16.17-7.72,4.5-20.26,4.55-28.01.12-7.75-4.43-7.78-11.67-.07-16.17,7.72-4.5,20.26-4.55,28.01-.12Z"/>
          <path class="cls-13" d="M1018.69,1089.23c7.06,4.04,7.09,10.63.06,14.73-7.03,4.1-18.45,4.14-25.51.11-7.06-4.04-7.09-10.63-.06-14.73,7.03-4.1,18.45-4.14,25.51-.11Z"/>
          <path class="cls-10" d="M993.53,1090.29c6.84-3.99,17.95-4.03,24.82-.1,5,2.86,6.36,7.03,4.1,10.62,2.93-3.84,1.68-8.47-3.76-11.58-7.06-4.04-18.48-3.99-25.51.11-5.42,3.16-6.62,7.8-3.66,11.61-2.28-3.58-.96-7.76,4.01-10.66Z"/>
        </g>
        <g>
          <path class="cls-15" d="M1051.84,1116.54c-5.38-1.5-11.12-1.47-16.49.07-7.61,2.19-11.44,6.26-11.51,10.35-.03,1.52-.02,3.05.02,4.57.1,4.08,3.97,8.13,11.6,10.25,5.38,1.5,11.12,1.47,16.49-.07,7.61-2.19,11.44-6.26,11.51-10.35.03-1.52.02-3.05-.02-4.57-.1-4.08-3.97-8.13-11.6-10.25Z"/>
          <path class="cls-4" d="M1025.71,1131.85l.02,4.35c-.64-.79-1.09-1.62-1.4-2.46l-.02-4.25c.3.81.79,1.6,1.4,2.36ZM1035.83,1137.53l.02,4.35c.46.12.93.24,1.39.34l-.02-4.4c-.47-.09-.94-.17-1.39-.28ZM1041.58,1138.35l.02,4.47c.46.03.93.03,1.39.04l-.02-4.45c-.47,0-.93-.04-1.39-.07ZM1038.7,1138.06l.02,4.42c.46.07.93.14,1.39.2l-.02-4.4c-.47-.05-.93-.14-1.39-.21ZM1027.19,1133.43l.02,4.26c.43.37.88.73,1.4,1.08l-.02-4.36c-.48-.32-.99-.63-1.4-.98ZM1032.95,1136.67l.02,4.3c.44.17.92.31,1.39.46l-.02-4.34c-.46-.14-.95-.25-1.39-.42ZM1030.07,1135.35l.02,4.3c.44.24.91.46,1.4.67l-.02-4.32c-.47-.21-.95-.41-1.4-.65ZM1044.45,1138.41l.02,4.45c.46-.01.93-.02,1.39-.06l-.02-4.47c-.46.03-.93.07-1.39.08ZM1058.79,1134.25l.02,4.37c.51-.35.96-.72,1.39-1.1l-.02-4.25c-.4.35-.92.66-1.39.99ZM1047.32,1138.24l.02,4.4c.47-.06.93-.13,1.39-.21l-.02-4.42c-.47.07-.92.17-1.39.23ZM1061.65,1131.64l.02,4.35c.65-.82,1.09-1.68,1.38-2.55l-.02-4.21c-.29.83-.78,1.63-1.38,2.41ZM1055.93,1135.88l.02,4.32c.48-.22.95-.45,1.39-.69l-.02-4.29c-.44.24-.92.45-1.39.66ZM1053.06,1136.99l.02,4.34c.47-.15.95-.3,1.39-.47l-.02-4.29c-.44.17-.93.28-1.39.43ZM1050.19,1137.75l.02,4.39c.47-.1.93-.22,1.39-.35l-.02-4.35c-.46.12-.92.21-1.39.3Z"/>
          <path class="cls-13" d="M1057.6,1118.87c7.75,4.43,7.78,11.67.07,16.17-7.72,4.5-20.26,4.55-28.01.12-7.75-4.43-7.78-11.67-.07-16.17,7.72-4.5,20.26-4.55,28.01-.12Z"/>
          <path class="cls-13" d="M1056.36,1119.6c7.06,4.04,7.09,10.63.06,14.73-7.03,4.1-18.45,4.14-25.51.11s-7.09-10.63-.06-14.73c7.03-4.1,18.45-4.14,25.51-.11Z"/>
          <path class="cls-10" d="M1031.2,1120.66c6.84-3.99,17.95-4.03,24.82-.1,5,2.86,6.36,7.03,4.1,10.62,2.93-3.84,1.68-8.46-3.76-11.58-7.06-4.04-18.48-3.99-25.51.11-5.42,3.16-6.62,7.8-3.67,11.61-2.28-3.58-.96-7.76,4.01-10.66Z"/>
        </g>
        <g>
          <path class="cls-1" d="M1050.04,1109.96c-5.38-1.5-11.12-1.47-16.49.07-7.61,2.19-11.44,6.26-11.51,10.35-.03,1.52-.02,3.05.02,4.57.1,4.08,3.97,8.13,11.6,10.25,5.38,1.5,11.12,1.47,16.49-.07,7.61-2.19,11.44-6.26,11.51-10.35.03-1.52.02-3.05-.02-4.57-.1-4.08-3.97-8.13-11.6-10.25Z"/>
          <path class="cls-7" d="M1023.91,1125.26l.02,4.35c-.64-.79-1.09-1.62-1.4-2.46l-.02-4.25c.3.81.79,1.6,1.4,2.36ZM1034.03,1130.94l.02,4.35c.46.12.93.24,1.39.34l-.02-4.4c-.47-.09-.94-.17-1.39-.28ZM1039.78,1131.76l.02,4.47c.46.03.93.03,1.39.04l-.02-4.45c-.47,0-.93-.04-1.39-.07ZM1036.91,1131.47l.02,4.42c.46.07.93.14,1.39.2l-.02-4.4c-.47-.05-.93-.14-1.39-.21ZM1025.4,1126.85l.02,4.26c.43.37.88.73,1.4,1.08l-.02-4.36c-.48-.32-.99-.63-1.4-.98ZM1031.16,1130.08l.02,4.3c.44.17.92.31,1.39.46l-.02-4.34c-.46-.14-.95-.25-1.39-.42ZM1028.28,1128.77l.02,4.3c.44.24.91.46,1.4.67l-.02-4.32c-.47-.21-.95-.41-1.4-.65ZM1042.65,1131.82l.02,4.45c.46-.01.93-.02,1.39-.06l-.02-4.47c-.46.03-.93.07-1.39.08ZM1056.99,1127.66l.02,4.37c.51-.35.96-.72,1.39-1.1l-.02-4.25c-.4.35-.92.66-1.39.99ZM1045.52,1131.65l.02,4.4c.47-.06.93-.13,1.39-.21l-.02-4.42c-.47.07-.92.17-1.39.23ZM1059.86,1125.05l.02,4.35c.65-.82,1.09-1.68,1.38-2.55l-.02-4.21c-.29.83-.78,1.63-1.38,2.41ZM1054.13,1129.29l.02,4.32c.48-.22.95-.45,1.39-.69l-.02-4.29c-.44.24-.92.45-1.39.66ZM1051.26,1130.4l.02,4.34c.47-.15.95-.3,1.39-.47l-.02-4.29c-.44.17-.93.28-1.39.43ZM1048.39,1131.16l.02,4.39c.47-.1.93-.22,1.39-.35l-.02-4.35c-.46.12-.92.21-1.39.3Z"/>
          <path class="cls-13" d="M1055.81,1112.29c7.75,4.43,7.78,11.67.07,16.17-7.72,4.5-20.26,4.55-28.01.12-7.75-4.43-7.78-11.67-.07-16.17,7.72-4.5,20.26-4.55,28.01-.12Z"/>
          <path class="cls-13" d="M1054.56,1113.01c7.06,4.04,7.09,10.63.06,14.73-7.03,4.1-18.45,4.14-25.51.11-7.06-4.04-7.09-10.63-.06-14.73,7.03-4.1,18.45-4.14,25.51-.11Z"/>
          <path class="cls-10" d="M1029.4,1114.07c6.84-3.99,17.95-4.03,24.82-.1,5,2.86,6.35,7.03,4.1,10.62,2.93-3.84,1.68-8.47-3.76-11.58-7.06-4.04-18.48-3.99-25.51.11-5.42,3.16-6.62,7.8-3.67,11.61-2.28-3.58-.96-7.76,4.01-10.66Z"/>
        </g>
        <g>
          <path class="cls-22" d="M1050.08,1104.75c-5.38-1.5-11.12-1.47-16.49.07-7.61,2.19-11.44,6.26-11.51,10.35-.03,1.52-.02,3.05.02,4.57.1,4.08,3.97,8.13,11.6,10.25,5.38,1.5,11.12,1.47,16.49-.07,7.61-2.19,11.44-6.26,11.51-10.35.03-1.52.02-3.05-.02-4.57-.1-4.08-3.97-8.13-11.6-10.25Z"/>
          <path class="cls-20" d="M1023.95,1120.06l.02,4.35c-.64-.79-1.09-1.62-1.4-2.46l-.02-4.25c.3.81.79,1.6,1.4,2.36ZM1034.07,1125.74l.02,4.35c.46.12.93.24,1.39.34l-.02-4.4c-.47-.09-.94-.17-1.39-.29ZM1039.82,1126.56l.02,4.47c.46.03.93.03,1.39.04l-.02-4.45c-.47,0-.93-.04-1.39-.07ZM1036.94,1126.27l.02,4.42c.46.07.93.14,1.39.2l-.02-4.4c-.47-.05-.93-.14-1.39-.21ZM1025.43,1121.65l.02,4.26c.43.37.88.73,1.4,1.08l-.02-4.36c-.48-.32-.99-.63-1.4-.98ZM1031.19,1124.88l.02,4.3c.44.17.92.31,1.39.46l-.02-4.34c-.46-.14-.95-.25-1.39-.42ZM1028.31,1123.57l.02,4.3c.44.24.91.46,1.4.67l-.02-4.32c-.47-.21-.95-.41-1.4-.65ZM1042.69,1126.62l.02,4.45c.46-.01.93-.02,1.39-.06l-.02-4.47c-.46.03-.93.07-1.39.08ZM1057.03,1122.46l.02,4.37c.51-.35.96-.72,1.39-1.1l-.02-4.25c-.4.35-.92.66-1.39.99ZM1045.56,1126.45l.02,4.4c.47-.06.93-.13,1.39-.21l-.02-4.42c-.47.07-.92.17-1.39.23ZM1059.89,1119.85l.02,4.35c.65-.82,1.09-1.68,1.38-2.55l-.02-4.21c-.29.83-.78,1.63-1.38,2.41ZM1054.17,1124.09l.02,4.32c.48-.22.96-.45,1.39-.69l-.02-4.29c-.44.24-.92.45-1.39.66ZM1051.3,1125.2l.02,4.34c.47-.15.95-.3,1.39-.47l-.02-4.29c-.44.17-.93.28-1.39.43ZM1048.43,1125.96l.02,4.39c.47-.1.93-.22,1.39-.35l-.02-4.35c-.46.12-.92.21-1.39.3Z"/>
          <path class="cls-13" d="M1055.84,1107.09c7.75,4.43,7.78,11.67.07,16.17-7.72,4.5-20.26,4.55-28.01.12-7.75-4.43-7.78-11.67-.07-16.17,7.72-4.5,20.26-4.55,28.01-.12Z"/>
          <path class="cls-13" d="M1054.6,1107.81c7.06,4.04,7.09,10.63.06,14.73-7.03,4.1-18.45,4.14-25.51.11s-7.09-10.63-.06-14.73c7.03-4.1,18.45-4.14,25.51-.11Z"/>
          <path class="cls-10" d="M1029.44,1108.87c6.84-3.99,17.95-4.03,24.82-.1,5,2.86,6.36,7.03,4.1,10.62,2.93-3.84,1.68-8.46-3.76-11.58-7.06-4.04-18.48-3.99-25.51.11-5.42,3.16-6.62,7.8-3.66,11.61-2.28-3.58-.96-7.76,4.01-10.66Z"/>
        </g>
        <g>
          <path class="cls-26" d="M1030.62,1132.02c-5.38-1.5-11.12-1.47-16.49.07-7.61,2.19-11.44,6.26-11.51,10.35-.03,1.52-.02,3.05.02,4.57.1,4.08,3.97,8.13,11.6,10.25,5.38,1.5,11.12,1.47,16.49-.07,7.61-2.19,11.44-6.26,11.51-10.35.03-1.52.02-3.05-.02-4.57-.1-4.08-3.97-8.13-11.6-10.25Z"/>
          <path class="cls-21" d="M1004.49,1147.32l.02,4.35c-.64-.79-1.09-1.62-1.4-2.46l-.02-4.25c.3.81.79,1.59,1.4,2.36ZM1014.61,1153l.02,4.35c.46.12.93.24,1.39.34l-.02-4.4c-.47-.09-.94-.17-1.39-.28ZM1020.36,1153.82l.02,4.47c.46.03.93.03,1.39.04l-.02-4.45c-.47,0-.93-.04-1.39-.07ZM1017.48,1153.54l.02,4.42c.46.07.93.14,1.39.19l-.02-4.4c-.47-.05-.93-.14-1.39-.21ZM1005.98,1148.91l.02,4.26c.43.37.88.73,1.4,1.08l-.02-4.36c-.48-.32-.99-.63-1.4-.98ZM1011.73,1152.14l.02,4.3c.44.17.92.31,1.39.46l-.02-4.34c-.46-.14-.95-.25-1.39-.42ZM1008.86,1150.83l.02,4.3c.44.24.91.46,1.4.67l-.02-4.32c-.47-.21-.95-.41-1.4-.65ZM1023.23,1153.88l.02,4.45c.46-.01.93-.02,1.39-.06l-.02-4.47c-.46.03-.93.07-1.39.08ZM1037.57,1149.72l.02,4.36c.51-.35.96-.72,1.39-1.1l-.02-4.25c-.4.35-.92.66-1.39.99ZM1026.1,1153.71l.02,4.4c.47-.06.93-.13,1.39-.21l-.02-4.42c-.47.07-.92.17-1.39.23ZM1040.43,1147.11l.02,4.35c.65-.82,1.09-1.68,1.38-2.55l-.02-4.21c-.29.83-.78,1.63-1.38,2.41ZM1034.71,1151.35l.02,4.32c.48-.22.95-.45,1.39-.69l-.02-4.29c-.44.24-.92.45-1.39.66ZM1031.84,1152.47l.02,4.34c.47-.15.95-.3,1.39-.47l-.02-4.29c-.44.17-.93.28-1.39.43ZM1028.97,1153.23l.02,4.39c.47-.1.93-.22,1.39-.35l-.02-4.35c-.46.12-.92.21-1.39.3Z"/>
          <path class="cls-13" d="M1036.39,1134.35c7.75,4.43,7.78,11.67.07,16.17-7.72,4.5-20.26,4.55-28.01.12-7.75-4.43-7.78-11.67-.07-16.17,7.72-4.5,20.26-4.55,28.01-.12Z"/>
          <path class="cls-13" d="M1035.14,1135.08c7.06,4.04,7.09,10.63.06,14.73-7.03,4.1-18.45,4.14-25.51.11-7.06-4.04-7.09-10.63-.06-14.73,7.03-4.1,18.45-4.14,25.51-.11Z"/>
          <path class="cls-10" d="M1009.98,1136.14c6.84-3.99,17.95-4.03,24.82-.1,5,2.86,6.36,7.03,4.1,10.62,2.93-3.84,1.68-8.47-3.76-11.58-7.06-4.04-18.48-3.99-25.51.11-5.42,3.16-6.62,7.8-3.66,11.61-2.28-3.58-.96-7.76,4.01-10.66Z"/>
        </g>
        <g>
          <path class="cls-11" d="M1029.9,1126.82c-5.38-1.5-11.12-1.47-16.49.07-7.61,2.19-11.44,6.26-11.51,10.35-.03,1.52-.02,3.05.02,4.57.1,4.08,3.97,8.13,11.6,10.25,5.38,1.5,11.12,1.47,16.49-.07,7.61-2.19,11.44-6.26,11.51-10.35.03-1.52.02-3.05-.02-4.57-.1-4.08-3.97-8.13-11.6-10.25Z"/>
          <path class="cls-5" d="M1003.77,1142.12l.02,4.35c-.64-.79-1.09-1.62-1.4-2.46l-.02-4.25c.3.81.79,1.59,1.4,2.36ZM1013.89,1147.8l.02,4.35c.46.12.93.24,1.39.34l-.02-4.4c-.47-.09-.94-.17-1.39-.28ZM1019.64,1148.62l.02,4.47c.46.03.93.03,1.39.04l-.02-4.45c-.47,0-.93-.04-1.39-.07ZM1016.76,1148.34l.02,4.42c.46.07.93.14,1.39.19l-.02-4.4c-.47-.05-.93-.14-1.39-.21ZM1005.26,1143.71l.02,4.26c.43.37.88.73,1.4,1.08l-.02-4.36c-.48-.32-.99-.63-1.4-.98ZM1011.01,1146.94l.02,4.3c.44.17.92.31,1.39.46l-.02-4.34c-.46-.14-.95-.25-1.39-.42ZM1008.14,1145.63l.02,4.3c.44.24.91.46,1.4.67l-.02-4.32c-.47-.21-.95-.41-1.4-.65ZM1022.51,1148.68l.02,4.45c.46-.01.93-.02,1.39-.06l-.02-4.47c-.46.03-.93.07-1.39.08ZM1036.85,1144.52l.02,4.36c.51-.35.96-.72,1.39-1.1l-.02-4.25c-.4.35-.92.66-1.39.99ZM1025.38,1148.51l.02,4.4c.47-.06.93-.13,1.39-.21l-.02-4.42c-.47.07-.92.17-1.39.23ZM1039.71,1141.91l.02,4.35c.65-.82,1.09-1.68,1.38-2.55l-.02-4.21c-.29.83-.78,1.63-1.38,2.41ZM1033.99,1146.15l.02,4.32c.48-.22.95-.45,1.39-.69l-.02-4.29c-.44.24-.92.45-1.39.66ZM1031.12,1147.27l.02,4.34c.47-.15.95-.3,1.39-.47l-.02-4.29c-.44.17-.93.28-1.39.43ZM1028.25,1148.03l.02,4.39c.47-.1.93-.22,1.39-.35l-.02-4.35c-.46.12-.92.21-1.39.3Z"/>
          <path class="cls-13" d="M1035.67,1129.15c7.75,4.43,7.78,11.67.07,16.17-7.72,4.5-20.26,4.55-28.01.12-7.75-4.43-7.78-11.67-.07-16.17,7.72-4.5,20.26-4.55,28.01-.12Z"/>
          <path class="cls-13" d="M1034.42,1129.88c7.06,4.04,7.09,10.63.06,14.73-7.03,4.1-18.45,4.14-25.51.11s-7.09-10.63-.06-14.73c7.03-4.1,18.45-4.14,25.51-.11Z"/>
          <path class="cls-10" d="M1009.26,1130.93c6.84-3.99,17.95-4.03,24.82-.1,5,2.86,6.35,7.03,4.1,10.62,2.93-3.84,1.68-8.47-3.76-11.58-7.06-4.04-18.48-3.99-25.51.11-5.42,3.16-6.62,7.8-3.66,11.61-2.28-3.58-.96-7.76,4.01-10.66Z"/>
        </g>
      </g>
    </g>
  </g>
</svg>