<svg id="Layer_1" data-name="Layer 1"
  xmlns="http://www.w3.org/2000/svg" version="1.1" viewBox="40 37.222" width="40" height="37.222">
  <defs>
    <style>.cls-1 {
        fill: #3c5ca9;
      }

      .cls-1, .cls-2, .cls-4 {
        stroke-width: 0px;
      }

      .cls-2 {
        fill: #0faaa8;
      }
  
      .cls-4 {
        fill: #5fbe80;
      }</style>
  </defs>
  <g>
    <path class="cls-1" d="M12.814 4.715a15.121 15.121 0 0 1 6.066 -1.261c4.191 0 7.969 1.695 10.719 4.439 2.744 2.75 4.439 6.528 4.439 10.719s-1.695 7.969 -4.439 10.719c-2.75 2.744 -6.528 4.439 -10.719 4.439s-7.969 -1.695 -10.719 -4.439a15.121 15.121 0 0 1 -4.438 -10.719c0 -4.501 1.951 -8.527 5.066 -11.311a1.549 1.549 0 0 0 0.124 -2.192 1.549 1.549 0 0 0 -2.192 -0.124A18.231 18.231 0 0 0 0.613 18.611c0 10.092 8.175 18.267 18.267 18.267s18.267 -8.175 18.267 -18.267S28.971 0.344 18.88 0.344c-2.599 0 -5.074 0.545 -7.313 1.523a1.554 1.554 0 0 0 1.248 2.847"/>
    <path class="cls-2" d="M18.88 28.854h-0.021a10.154 10.154 0 0 1 -7.197 -2.991 10.179 10.179 0 0 1 -2.991 -7.218c0 -2.62 0.992 -5.217 2.991 -7.218s4.598 -2.985 7.218 -2.991c2.62 0 5.217 0.992 7.218 2.991a10.204 10.204 0 0 1 2.991 7.182 1.555 1.555 0 0 0 3.109 -0.007 13.277 13.277 0 0 0 -3.902 -9.375 13.277 13.277 0 0 0 -9.416 -3.902c-3.405 0 -6.817 1.303 -9.416 3.902a13.277 13.277 0 0 0 -3.902 9.416c0 3.405 1.303 6.817 3.902 9.416a13.24 13.24 0 0 0 9.389 3.902h0.021c0.862 0 1.551 -0.696 1.551 -1.551s-0.696 -1.551 -1.551 -1.551Z"/>
    <path class="cls-4" d="M23.953 18.611a5.249 5.249 0 0 1 -1.544 3.736 5.249 5.249 0 0 1 -3.736 1.544 5.249 5.249 0 0 1 -3.736 -1.544 5.249 5.249 0 0 1 -1.544 -3.736c0 -1.358 0.51 -2.702 1.544 -3.736a5.237 5.237 0 0 1 3.715 -1.544 1.555 1.555 0 0 0 -0.007 -3.109 8.36 8.36 0 0 0 -5.907 2.454 8.36 8.36 0 0 0 -2.453 5.935c0 2.144 0.82 4.302 2.454 5.935a8.36 8.36 0 0 0 5.935 2.454 8.384 8.384 0 0 0 5.935 -2.454 8.36 8.36 0 0 0 2.453 -5.935c0 -0.862 -0.696 -1.551 -1.551 -1.551s-1.551 0.696 -1.551 1.551Z"/>
  </g>
</svg>