<?xml version="1.0" encoding="UTF-8"?>
<svg id="Layer_1" data-name="Layer 1" xmlns="http://www.w3.org/2000/svg" version="1.1" viewBox="0 0 194.4 54">
  <defs>
    <style>
      .cls-1 {
        fill: #3c5ca9;
      }

      .cls-1, .cls-2, .cls-3, .cls-4 {
        stroke-width: 0px;
      }

      .cls-2 {
        fill: #0faaa8;
      }

      .cls-3 {
        fill: #fff;
      }

      .cls-4 {
        fill: #5fbe80;
      }
    </style>
  </defs>
  <path class="cls-3" d="M191.71,40.16c1.2-.99,1.8-2.31,1.8-3.97,0-1.19-.24-2.13-.73-2.82-.49-.7-1.13-1.25-1.92-1.66-.79-.41-1.62-.74-2.49-.99s-1.69-.5-2.47-.75c-.78-.25-1.42-.58-1.92-.99-.5-.41-.75-.97-.75-1.68s.31-1.34.93-1.8c.62-.46,1.52-.69,2.71-.69,1.03,0,1.96.19,2.79.57.83.38,1.52.93,2.07,1.64l1.78-1.78c-.69-.97-1.59-1.71-2.73-2.21-1.13-.5-2.4-.75-3.79-.75-1.32,0-2.46.22-3.42.65-.96.43-1.7,1.04-2.21,1.82-.51.78-.77,1.69-.77,2.75,0,1.11.24,2,.73,2.69.49.68,1.13,1.22,1.92,1.6.79.38,1.62.7,2.49.95.87.25,1.69.51,2.47.77.78.26,1.42.62,1.92,1.07.5.45.75,1.07.75,1.86,0,.84-.35,1.5-1.05,1.98-.7.47-1.67.71-2.9.71-1.16,0-2.21-.22-3.14-.65-.94-.43-1.77-1.1-2.51-2l-1.78,1.82c.55.69,1.21,1.28,1.96,1.78.75.5,1.59.89,2.51,1.17.92.28,1.88.41,2.88.41,2.05,0,3.68-.49,4.88-1.48ZM163.75,38.11c-.97-.59-1.74-1.42-2.29-2.49s-.83-2.28-.83-3.65.28-2.62.83-3.67,1.32-1.88,2.31-2.49c.99-.61,2.13-.91,3.42-.91s2.44.3,3.44.91c1,.61,1.78,1.44,2.35,2.49.57,1.05.85,2.28.85,3.67s-.28,2.59-.85,3.65c-.57,1.07-1.35,1.9-2.35,2.49-1,.59-2.16.89-3.48.89s-2.42-.3-3.4-.89ZM160.79,41.25v-4.98l-.55-4.58.55-4.46v-13.95h-2.77v27.97h2.77ZM172.27,40.36c1.38-.86,2.47-2.01,3.26-3.46.79-1.45,1.19-3.08,1.19-4.9s-.4-3.5-1.21-4.96c-.8-1.46-1.89-2.62-3.26-3.48-1.37-.86-2.91-1.28-4.62-1.28-1.37,0-2.63.28-3.77.83-1.15.55-2.09,1.34-2.83,2.35-.74,1.01-1.19,2.21-1.34,3.58v5.81c.16,1.34.6,2.52,1.32,3.54.72,1.01,1.65,1.81,2.79,2.39,1.13.58,2.41.87,3.83.87,1.71,0,3.26-.43,4.64-1.28ZM152.42,41.25v-18.57h-2.77v4.54l.55,4.46-.55,4.58v4.98h2.77ZM139.89,38.09c-1.03-.61-1.84-1.44-2.43-2.49-.59-1.05-.89-2.26-.89-3.63s.3-2.59.89-3.65,1.4-1.9,2.41-2.51c1.01-.61,2.18-.91,3.5-.91s2.42.3,3.38.89c.96.59,1.71,1.42,2.25,2.49.54,1.07.81,2.3.81,3.69,0,2.11-.59,3.81-1.76,5.1-1.17,1.29-2.72,1.94-4.64,1.94-1.32,0-2.49-.3-3.52-.91ZM146.75,40.79c1.12-.57,2.03-1.36,2.73-2.39.7-1.03,1.13-2.21,1.28-3.56v-5.81c-.16-1.34-.59-2.52-1.28-3.54s-1.61-1.8-2.73-2.37c-1.12-.57-2.39-.85-3.81-.85-1.74,0-3.31.43-4.7,1.28-1.4.86-2.5,2.01-3.3,3.48-.8,1.46-1.21,3.12-1.21,4.96s.4,3.45,1.21,4.9c.8,1.45,1.9,2.6,3.3,3.46,1.4.86,2.98,1.28,4.74,1.28,1.4,0,2.65-.28,3.77-.85ZM129.3,41.25V13.28h-2.77v27.97h2.77ZM120.91,18.08c.36-.38.53-.84.53-1.36s-.18-1.01-.53-1.38c-.36-.37-.82-.55-1.4-.55-.53,0-.97.18-1.34.55-.37.37-.55.83-.55,1.38s.18.98.55,1.36c.37.38.82.57,1.34.57.58,0,1.05-.19,1.4-.57ZM120.93,41.25v-18.57h-2.8v18.57h2.8ZM99.4,41.25v-18.57h-2.77v18.57h2.77ZM112.95,41.25v-11.38c0-1.37-.31-2.63-.93-3.79-.62-1.16-1.48-2.08-2.59-2.77-1.11-.68-2.37-1.03-3.79-1.03s-2.73.32-3.85.95c-1.12.63-2.01,1.5-2.67,2.61-.66,1.11-.99,2.36-.99,3.75l1.26.71c0-1.05.24-1.99.71-2.81.47-.82,1.12-1.46,1.94-1.94.82-.47,1.76-.71,2.84-.71,1.58,0,2.85.51,3.81,1.52.96,1.01,1.44,2.34,1.44,3.97v10.9h2.8ZM77.9,41.25v-18.57h-2.77v18.57h2.77ZM91.46,41.25v-11.38c0-1.37-.31-2.63-.93-3.79-.62-1.16-1.48-2.08-2.59-2.77-1.11-.68-2.37-1.03-3.79-1.03s-2.73.32-3.85.95c-1.12.63-2.01,1.5-2.67,2.61-.66,1.11-.99,2.36-.99,3.75l1.26.71c0-1.05.24-1.99.71-2.81.47-.82,1.12-1.46,1.94-1.94.82-.47,1.76-.71,2.84-.71,1.58,0,2.85.51,3.81,1.52.96,1.01,1.44,2.34,1.44,3.97v10.9h2.8ZM69.51,18.08c.36-.38.53-.84.53-1.36s-.18-1.01-.53-1.38c-.36-.37-.82-.55-1.4-.55-.53,0-.97.18-1.34.55-.37.37-.55.83-.55,1.38s.18.98.55,1.36c.37.38.82.57,1.34.57.58,0,1.05-.19,1.4-.57ZM69.53,41.25v-18.57h-2.8v18.57h2.8Z"/>
  <g>
    <path class="cls-1" d="M18.59,6.84c2.69-1.18,5.67-1.83,8.8-1.83,6.08,0,11.56,2.46,15.55,6.44,3.98,3.99,6.44,9.47,6.44,15.55,0,6.08-2.46,11.56-6.44,15.55-3.99,3.98-9.47,6.44-15.55,6.44-6.08,0-11.56-2.46-15.55-6.44-3.98-3.99-6.44-9.47-6.44-15.55,0-6.53,2.83-12.37,7.35-16.41.93-.83,1.01-2.25.18-3.18-.83-.93-2.25-1.01-3.18-.18C4.32,12.08.89,19.15.89,27c0,14.64,11.86,26.5,26.5,26.5,14.64,0,26.5-11.86,26.5-26.5,0-14.64-11.86-26.5-26.5-26.5-3.77,0-7.36.79-10.61,2.21-1.14.5-1.66,1.83-1.16,2.97.5,1.14,1.83,1.66,2.97,1.16h0Z"/>
    <path class="cls-2" d="M27.39,41.86h-.03c-3.78,0-7.54-1.45-10.44-4.34-2.9-2.9-4.33-6.67-4.34-10.47,0-3.8,1.44-7.57,4.34-10.47,2.9-2.9,6.67-4.33,10.47-4.34,3.8,0,7.57,1.44,10.47,4.34,2.88,2.89,4.32,6.64,4.34,10.42,0,1.25,1.02,2.25,2.26,2.25,1.25,0,2.25-1.02,2.25-2.26-.01-4.92-1.91-9.85-5.66-13.6-3.77-3.77-8.72-5.66-13.66-5.66-4.94,0-9.89,1.89-13.66,5.66-3.77,3.77-5.66,8.72-5.66,13.66,0,4.94,1.89,9.89,5.66,13.66,3.75,3.76,8.69,5.66,13.62,5.66h.03c1.25,0,2.25-1.01,2.25-2.25s-1.01-2.25-2.25-2.25h0Z"/>
    <path class="cls-4" d="M34.75,27c0,1.97-.74,3.92-2.24,5.42-1.5,1.5-3.45,2.24-5.42,2.24-1.97,0-3.92-.74-5.42-2.24-1.5-1.5-2.24-3.45-2.24-5.42,0-1.97.74-3.92,2.24-5.42,1.5-1.49,3.43-2.24,5.39-2.24,1.25,0,2.25-1.02,2.25-2.26,0-1.25-1.02-2.25-2.26-2.25-3.09,0-6.21,1.2-8.57,3.56-2.37,2.37-3.57,5.5-3.56,8.61,0,3.11,1.19,6.24,3.56,8.61,2.37,2.37,5.5,3.57,8.61,3.56,3.11,0,6.24-1.19,8.61-3.56,2.37-2.37,3.57-5.5,3.56-8.61,0-1.25-1.01-2.25-2.25-2.25s-2.25,1.01-2.25,2.25h0Z"/>
  </g>
</svg>