<?xml version="1.0" encoding="utf-8"?>
<!-- Generator: Adobe Illustrator 27.8.1, SVG Export Plug-In . SVG Version: 6.00 Build 0)  -->
<svg version="1.1" id="Layer_1" xmlns="http://www.w3.org/2000/svg" xmlns:xlink="http://www.w3.org/1999/xlink" x="0px" y="0px"
	 viewBox="0 0 100 100" style="enable-background:new 0 0 100 100;" xml:space="preserve">
<style type="text/css">
	.st0{fill:url(#SVGID_1_);}
	.st1{enable-background:new    ;}
	.st2{fill:#FFFFFF;}
</style>
<linearGradient id="SVGID_1_" gradientUnits="userSpaceOnUse" x1="-252.7228" y1="81.1408" x2="-218.9846" y2="81.1408">
	<stop  offset="0" style="stop-color:#78FFFF"/>
	<stop  offset="1" style="stop-color:#0000A7"/>
</linearGradient>
<circle class="st0" cx="-235.85" cy="81.14" r="16.87"/>
<g>
	<g class="st1">
		<g>
			<path class="st2" d="M71.62,73.45c-3.31-0.72-6.62,1.44-7.34,4.75c0,0.43-0.14,0.86-0.14,1.29H44.72c0-1.73-0.86-3.45-2.37-4.53
				c-0.72-0.5-1.44-0.72-2.23-0.86V53.17c0.58-0.29,1.15-0.72,1.58-1.37c1.22-1.8,0.79-4.32-1.08-5.54
				c-1.8-1.22-4.32-0.79-5.54,1.08c-1.22,1.8-0.79,4.32,1.08,5.54c0.72,0.5,1.44,0.72,2.23,0.72v20.5c-1.44,0.22-2.81,1.01-3.67,2.3
				c-1.73,2.52-1.08,5.9,1.44,7.62c2.52,1.73,5.9,1.01,7.55-1.44c0.29-0.43,0.5-0.86,0.65-1.37h19.92c0.65,2.08,2.3,3.81,4.6,4.32
				c3.31,0.72,6.62-1.44,7.34-4.75c0.72-3.31-1.44-6.62-4.75-7.34H71.62z"/>
		</g>
	</g>
	<g class="st1">
		<g>
			<path class="st2" d="M35.58,26.05c3.31,0.72,6.62-1.44,7.34-4.75c0-0.43,0.14-0.86,0.14-1.29h19.57
				c-0.43,2.09,0.36,4.39,2.3,5.68c0.65,0.5,1.44,0.72,2.23,0.86v19.78c-0.57,0.29-1.15,0.72-1.58,1.37
				c-1.22,1.8-0.79,4.32,1.08,5.54c1.8,1.22,4.32,0.79,5.54-1.08c1.22-1.8,0.79-4.32-1.08-5.54c-0.65-0.5-1.44-0.72-2.23-0.72V26.48
				c1.44-0.22,2.81-1.01,3.67-2.3c1.73-2.52,1.01-5.9-1.44-7.55c-2.52-1.73-5.9-1.08-7.62,1.44c0,0,0,0.14-0.14,0.22h-20.5
				c-0.65-2.08-2.3-3.81-4.68-4.32c-3.31-0.72-6.62,1.44-7.34,4.75C30.12,22.02,32.27,25.33,35.58,26.05"/>
		</g>
	</g>
	<g class="st1">
		<g>
			<path class="st2" d="M52.98,13.82c1.17,0.07,2.13-0.86,2.2-2.01c0.07-1.15-0.82-2.23-1.92-2.3c-1.1-0.07-2.13,0.86-2.2,2.01
				S51.88,13.75,52.98,13.82"/>
		</g>
	</g>
	<g class="st1">
		<g>
			<path class="st2" d="M54.35,90.5c1.22,0,2.23-0.86,2.3-2.01c0.07-1.15-0.86-2.23-2.01-2.3c-1.15-0.07-2.23,0.86-2.3,2.01
				S53.2,90.43,54.35,90.5"/>
		</g>
	</g>
	<g>
		<defs>
			<path id="SVGID_00000078758295630255708210000012252166175875569540_" d="M6.85,50.29c0,1.29,1.08,2.38,2.37,2.38
				c1.3,0,2.37-1.08,2.37-2.38c0-1.29-1.08-2.37-2.37-2.37C7.93,47.92,6.85,49,6.85,50.29 M89.43,48.57
				c-0.79,0.86-0.72,2.23,0.14,3.02c0.87,0.79,2.23,0.72,3.02-0.14c0.79-0.86,0.72-2.23-0.14-3.02c-0.4-0.37-0.92-0.55-1.43-0.55
				C90.44,47.87,89.85,48.1,89.43,48.57 M16.63,31.37c-1.72,2.44-1.08,5.83,1.44,7.55c0.43,0.29,0.93,0.5,1.37,0.65V59.5
				c-2.09,0.58-3.81,2.3-4.32,4.6c-0.72,3.31,1.44,6.62,4.75,7.34c3.31,0.72,6.62-1.44,7.34-4.75v0.14
				c0.72-3.31-1.44-6.62-4.75-7.34c-0.43-0.14-0.86-0.14-1.29-0.14V39.93c1.73,0,3.45-0.79,4.53-2.37c0.43-0.72,0.72-1.44,0.86-2.23
				H46.7c0.29,0.86,0.79,1.65,1.58,2.16c1.8,1.22,4.32,0.72,5.54-1.08c1.22-1.8,0.72-4.32-1.08-5.54c-1.8-1.22-4.31-0.72-5.54,1.08
				c-0.36,0.5-0.65,1.08-0.65,1.66h-20c-0.22-1.44-1.01-2.81-2.3-3.67c-0.95-0.65-2.03-0.97-3.1-0.97
				C19.42,28.97,17.71,29.81,16.63,31.37 M72.81,33.31c-0.72,3.31,1.44,6.62,4.75,7.34c0.43,0,0.86,0.14,1.29,0.14v19.56
				c-1.15-0.21-2.3-0.14-3.45,0.36c-1.73,0.79-2.81,2.37-3.09,4.1H52.53c-0.29-0.57-0.72-1.15-1.37-1.58
				c-1.8-1.22-4.32-0.79-5.54,1.08c-1.22,1.8-0.79,4.32,1.08,5.54c1.8,1.22,4.32,0.79,5.54-1.08c0.5-0.65,0.72-1.44,0.72-2.23h19.35
				c0,0.5,0.22,0.94,0.43,1.44c1.3,2.73,4.53,3.89,7.27,2.66c2.73-1.3,3.88-4.53,2.66-7.27c-0.5-1.01-1.22-1.8-2.09-2.3v-20.5
				c2.09-0.65,3.81-2.3,4.32-4.68c0.72-3.31-1.44-6.62-4.75-7.34c-0.43-0.09-0.86-0.14-1.29-0.14
				C76.03,28.43,73.44,30.44,72.81,33.31"/>
		</defs>
		
			<linearGradient id="SVGID_00000066509389026889049910000013799302845487673775_" gradientUnits="userSpaceOnUse" x1="33.3263" y1="21.1014" x2="66.4597" y2="78.49">
			<stop  offset="0" style="stop-color:#78FFFF"/>
			<stop  offset="1" style="stop-color:#0000A7"/>
		</linearGradient>
		
			<use xlink:href="#SVGID_00000078758295630255708210000012252166175875569540_"  style="overflow:visible;fill:url(#SVGID_00000066509389026889049910000013799302845487673775_);"/>
		<clipPath id="SVGID_00000108997827754877683350000000244336025026133937_">
			<use xlink:href="#SVGID_00000078758295630255708210000012252166175875569540_"  style="overflow:visible;"/>
		</clipPath>
	</g>
</g>
</svg>
