<svg width="31" height="18" viewBox="0 0 31 18" fill="none" xmlns="http://www.w3.org/2000/svg">
<path d="M28.4747 1.12371C27.2647 1.77202 26.0534 2.42033 24.8421 3.06861C23.6193 3.72328 22.3979 4.37668 21.1752 5.03134C19.9461 5.68983 18.7157 6.34834 17.4878 7.00683C16.2574 7.66531 15.027 8.32383 13.7968 8.98231C12.8237 9.50453 11.8493 10.028 10.875 10.5489C11.1259 10.7948 11.3768 11.0406 11.629 11.2877C12.4072 12.0506 13.1854 12.8123 13.9624 13.5752C14.0222 13.6338 15.6882 15.2679 16.3097 15.8767C16.9733 16.5276 17.6382 17.1797 18.303 17.8306C18.4342 17.6383 19.9932 15.3711 20.6428 14.4284C21.2885 13.491 21.933 12.5523 22.5788 11.6136C23.213 10.6927 23.8461 9.7706 24.4803 8.85097C25.1121 7.93265 25.7426 7.01433 26.3756 6.096C27.0149 5.16747 27.6531 4.23644 28.2924 3.30791C28.9255 2.38577 30.4424 0.182302 30.5685 0C29.8705 0.373179 29.1726 0.747662 28.4746 1.12084L28.4747 1.12371Z" fill="white"/>
<path d="M15.0761 5.40664C16.5918 4.81056 18.1074 4.21449 19.623 3.61711C21.0865 3.04014 22.5525 2.46441 24.0173 1.88744C25.5177 1.29518 28.6803 0.0533407 28.7592 0.0214844C27.6104 0.218906 26.4628 0.417585 25.3141 0.61756C23.7309 0.89395 22.1451 1.16398 20.5608 1.4378C18.9534 1.71674 17.3473 1.99439 15.7387 2.27079C14.1122 2.55101 12.4857 2.82993 10.8605 3.11396C9.2378 3.39799 7.61262 3.67309 5.98881 3.95585C4.38143 4.23479 2.77405 4.51244 1.1654 4.78885C0.776936 4.85635 0.389739 4.92259 0 4.99009C0.453419 5.23082 0.908142 5.47155 1.36029 5.71356C2.33084 6.22939 3.30009 6.74268 4.27064 7.25854C5.07049 7.68395 5.87293 8.10937 6.67406 8.53478V8.53351C6.73774 8.5679 6.80142 8.60229 6.86511 8.6354C6.90332 8.62139 6.94026 8.60611 6.97847 8.5921C7.01668 8.57681 7.05361 8.5628 7.09182 8.54752C8.26871 8.08516 9.44301 7.62284 10.6172 7.16048C12.1036 6.57585 13.5899 5.99125 15.0777 5.40662L15.0761 5.40664Z" fill="white"/>
<path d="M9.27819 13.049C9.54439 12.3586 9.81185 11.6683 10.0793 10.9779C10.1379 10.8264 10.3009 10.4048 10.3098 10.3806H10.3111C10.3621 10.3526 12.4089 9.2572 13.1743 8.84581C14.3881 8.19496 15.6007 7.54537 16.8145 6.89706C18.055 6.23346 19.2956 5.56989 20.5361 4.90502C21.7384 4.26052 22.9395 3.61606 24.142 2.97283C25.3762 2.31435 26.6091 1.65202 27.8421 0.992264C28.2128 0.793568 28.5834 0.596164 28.9553 0.397461C28.4433 0.598704 27.9326 0.799952 27.4218 1.0012C25.9291 1.58964 24.4351 2.17555 22.9424 2.76396C21.4752 3.34093 20.0079 3.9192 18.5406 4.49617C17.0428 5.08461 15.5449 5.67433 14.0472 6.26405C12.5239 6.86524 10.9993 7.46259 9.47713 8.06248C8.77023 8.34141 8.06336 8.61907 7.35647 8.89674C7.27368 8.92986 7.19216 8.9617 7.10938 8.99354C7.11702 9.24828 7.12339 9.50301 7.13103 9.75646C7.15268 10.5207 7.28387 15.1492 7.31444 16.2154C7.33227 16.8102 7.34883 17.405 7.36538 17.9999C7.60356 17.3834 7.843 16.7644 8.08245 16.1479C8.4824 15.115 8.87977 14.0833 9.27971 13.0516L9.27819 13.049Z" fill="white"/>
<path d="M10.5763 10.8408C10.2961 11.5656 10.0172 12.2903 9.737 13.0137C9.33452 14.0518 8.93333 15.0911 8.53211 16.1304C8.29266 16.7507 8.0532 17.371 7.8125 17.99C7.91949 17.9187 9.98155 16.5393 10.9063 15.9215C11.822 15.3076 13.7465 14.0225 13.7899 13.9919C13.1543 13.369 12.5175 12.7475 11.8832 12.1234C11.4489 11.6954 11.0132 11.2675 10.5764 10.8421L10.5763 10.8408Z" fill="white"/>
</svg>
