<?xml version="1.0" encoding="UTF-8"?>
<svg id="Layer_1" data-name="Layer 1" xmlns="http://www.w3.org/2000/svg" version="1.1" xmlns:xlink="http://www.w3.org/1999/xlink" viewBox="0 0 128 128">
  <defs>
    <style>
      .cls-1 {
        fill: url(#linear-gradient);
      }

      .cls-1, .cls-2, .cls-3 {
        stroke-width: 0px;
      }

      .cls-2 {
        fill: #0078ff;
      }

      .cls-2, .cls-3 {
        isolation: isolate;
        opacity: .3;
      }

      .cls-3 {
        fill: #fff;
      }
    </style>
    <linearGradient id="linear-gradient" x1="5.6" y1="97" x2="92.7" y2="9.8" gradientTransform="translate(0 130) scale(1 -1)" gradientUnits="userSpaceOnUse">
      <stop offset="0" stop-color="#78ffff"/>
      <stop offset="1" stop-color="#0000a7"/>
    </linearGradient>
  </defs>
  <g id="B226_Data_Network_Secure_Security" data-name="B226 Data Network Secure Security">
    <g>
      <path class="cls-3" d="M120.8,12.4c0-1.5-1.3-2.5-2.7-2.3-6.2.9-13.1.8-17.8-3.4-.8-.8-1.9-.8-2.8-.2-5.5,3.6-11.6,4.7-18,3.6-1.5-.2-2.8.8-2.8,2.3v.2H9.6c-1.3,0-2.5,1.1-2.5,2.5v28.4c0,1.3,1.1,2.5,2.5,2.5h42.8v5.3H9.6c-1.3,0-2.5,1.1-2.5,2.5v27.1c0,1.3,1.1,2.3,2.5,2.3h42.8v6.6H9.6c-1.3,0-2.5,1.1-2.5,2.5v27.3c0,1.3,1.1,2.5,2.5,2.5h101.7c1.3,0,2.5-1.1,2.5-2.5v-27.5c0-1.3-1.1-2.5-2.5-2.5h-45.8v-6.6h45.8c1.3,0,2.5-.9,2.5-2.3v-27.1c0-1.3-1.1-2.5-2.5-2.5h-.2c5.1-5.3,7.6-8.3,8.7-13.8,1.1-5.1.9-11.8.9-24.8h0ZM81.6,45.7c1.1,1.7,2.7,3.2,4.6,5.3h-20.8v-5.3h16.3,0ZM11.9,17.3h64.8c0,11.8,0,18.4,2.1,23.7H11.9v-23.7ZM57.2,45.7h3.6v5.3h-3.6v-5.3ZM109.1,116.8H11.9v-22.6h97.2v22.6h0ZM60.8,89.5h-3.6v-6.6h3.6v6.6ZM109.1,78.1H11.9v-22.4h42.2c.4.2,1,.2,1.3,0h6.8c.4.2,1,.2,1.3,0h27.1c.4.4.8.8,1.1,1.1s1.1.8,1.7.8h10.2c.6,0,1.3-.2,1.7-.8.4-.4.8-.8,1.1-1.1h2.3v22.4h.4ZM115.3,36.1c-1.1,5.3-4,7.8-11.2,15.3-.4.4-.8.8-1.3,1.3h-8.2c-.6-.6-.9-1.1-1.3-1.5-3-3-6.2-6.2-8.2-8.9-.2-.4-.4-.6-.6-.8-1.1-1.7-1.7-3.2-2.3-5.5-.9-4.5-.8-12.3-.8-21,6.2.6,11.9-.6,17.2-3.8,5.1,3.6,11.4,4.2,17.4,3.6-.2,10.4,0,17-.9,21.2h.2Z"/>
      <path class="cls-2" d="M107.2,22.2c-1.1.4-1.9,1.9-1.3,3,0,0,3.6,9.5-4.2,16.3-.9,1-.9,2.5-.2,3.4.9,1,2.5,1,3.4.2,4.2-3.8,6.4-8.7,6.4-14.2s-1.1-7.2-1.1-7.4c-.6-1.1-1.9-1.9-3-1.3Z"/>
      <path class="cls-1" d="M97.7,60.1c-3.8,0-6.8,3-6.8,6.8s3,6.8,6.8,6.8,6.8-3,6.8-6.8-3-6.8-6.8-6.8ZM97.7,69.2c-1.1,0-2.1-.9-2.1-2.1s.9-2.1,2.1-2.1,2.1.9,2.1,2.1c.2,1.1-.8,2.1-2.1,2.1ZM82,60.1c-3.8,0-6.8,3-6.8,6.8s3,6.8,6.8,6.8,6.8-3,6.8-6.8-3-6.8-6.8-6.8ZM82,69.2c-1.1,0-2.1-.9-2.1-2.1s.9-2.1,2.1-2.1,2.1.9,2.1,2.1-.9,2.1-2.1,2.1ZM97.7,112.4c3.8,0,6.8-3,6.8-6.8s-3-6.8-6.8-6.8-6.8,3-6.8,6.8,3,6.8,6.8,6.8ZM97.7,103.3c1.1,0,2.1.9,2.1,2.1s-.9,2.1-2.1,2.1-2.1-.9-2.1-2.1.9-2.1,2.1-2.1ZM82,112.4c3.8,0,6.8-3,6.8-6.8s-3-6.8-6.8-6.8-6.8,3-6.8,6.8c-.2,3.6,3,6.8,6.8,6.8ZM82,103.3c1.1,0,2.1.9,2.1,2.1s-.9,2.1-2.1,2.1-2.1-.9-2.1-2.1c-.2-1.1.8-2.1,2.1-2.1ZM16.6,22h4.7v14.2h-4.7s0-14.2,0-14.2ZM23.8,36.3h4.7v-14.2h-4.7v14.2ZM30.8,36.3h4.7v-14.2h-4.7v14.2ZM38,36.3h4.7v-14.2h-4.7v14.2ZM45,36.3h4.7v-14.2h-4.7v14.2ZM52.2,36.3h4.7v-14.2h-4.7v14.2ZM16.6,74.2h4.7v-14.2h-4.7s0,14.2,0,14.2ZM23.8,74.2h4.7v-14.2h-4.7v14.2ZM30.8,74.2h4.7v-14.2h-4.7v14.2ZM38,74.2h4.7v-14.2h-4.7v14.2ZM45,74.2h4.7v-14.2h-4.7v14.2ZM52.2,74.2h4.7v-14.2h-4.7v14.2ZM16.6,112h4.7v-14.2h-4.7s0,14.2,0,14.2ZM23.8,112h4.7v-14.2h-4.7v14.2ZM30.8,112h4.7v-14.2h-4.7v14.2ZM38,112h4.7v-14.2h-4.7v14.2ZM45,112h4.7v-14.2h-4.7v14.2ZM52.2,112h4.7v-14.2h-4.7v14.2Z"/>
    </g>
  </g>
</svg>