<?xml version="1.0" encoding="UTF-8"?>
<svg id="Layer_1" data-name="Layer 1" xmlns="http://www.w3.org/2000/svg" version="1.1" xmlns:xlink="http://www.w3.org/1999/xlink" viewBox="0 0 128 128">
  <defs>
    <style>
      .cls-1 {
        fill: url(#linear-gradient);
      }

      .cls-1, .cls-2, .cls-3 {
        stroke-width: 0px;
      }

      .cls-2 {
        fill: url(#linear-gradient-2);
      }

      .cls-3 {
        fill: #fff;
        isolation: isolate;
        opacity: .3;
      }
    </style>
    <linearGradient id="linear-gradient" x1="96.3" y1="109.8" x2="108.1" y2="89.3" gradientUnits="userSpaceOnUse">
      <stop offset="0" stop-color="#78ffff"/>
      <stop offset="1" stop-color="#0000a7"/>
    </linearGradient>
    <linearGradient id="linear-gradient-2" x1="22.5" y1="88.4" x2="34.3" y2="108.8" xlink:href="#linear-gradient"/>
  </defs>
  <g id="B230_Cloud_Hosting_Cloud_Network_Hosting_Network" data-name="B230 Cloud Hosting Cloud Network Hosting Network">
    <g>
      <path class="cls-3" d="M94.5,27.2c-1.2-12.1-11.3-21.1-23.8-21.1s-18.6,6.1-22.2,14.8c-11.5-2.5-22.4,5.8-23.4,17.3-7.9,2.5-13.2,10-13.2,18.2s8.6,19.2,19.2,19.2h9v35.1c.6,10.7,26.7,14.4,41,8.4,5-2.1,7.9-5,8.1-8.4v-34.5c8.2-.4,7.9-.4,8.2-.6,10.7-2.5,18.8-12.7,18.8-24.2s-9.6-22.8-21.7-24.2h0ZM84.5,96.4c-1,2.7-8.4,6.3-19.8,6.3s-18.8-3.6-19.8-6.3v-5.4c9.6,5.9,29.7,5.9,39.3,0v5.4s.2,0,.2,0ZM84.5,84.5c-1,2.7-8.4,6.3-19.8,6.3s-18.8-3.6-19.8-6.3v-6.1c9.4,5.9,29.7,5.9,39.3,0v6.1s.2,0,.2,0ZM84.5,65v6.7c-1,2.7-8.4,6.3-19.8,6.3s-18.8-3.6-19.8-6.3v-6.7c9.6,5.9,29.9,5.9,39.5,0ZM64.8,64.6c-12.1,0-19.8-4-19.8-6.9v-.2c.4-2.7,7.9-6.5,19.8-6.5s19.8,4,19.8,6.9-7.7,6.7-19.8,6.7ZM64.8,117.1c-11.9,0-19.6-4-19.8-6.7h0v-7.3c9.4,5.9,29.7,5.9,39.3,0v7.3h0c0,2.7-7.7,6.7-19.6,6.7ZM96.6,71.1l-7.3.4v-13.8c0-3.5-2.9-6.5-8.1-8.8-9.2-3.8-24-3.8-33.2,0-5.2,2.1-8,5.2-8,8.8v13.2h-8.8c-7.9,0-14.4-6.5-14.4-14.4s4.8-12.7,11.3-14c1.1-.2,1.9-1.3,1.9-2.3-.4-9.6,9.2-17.3,19.4-13.8.2,0,.4.2.6.2,0,0,3.3.4,3.8,5,.2,1.3,1.5,2.1,2.7,1.9,1.3-.2,2.1-1.5,1.9-2.7-.8-4.4-3.1-6.9-5.4-8.1,3.1-6.9,10-11.5,17.6-11.5s17.8,7.1,19,16.3c-3.6.4-7.1,1.5-10.2,3.5-1.2.8-1.5,2.1-.8,3.3.8,1.2,2.1,1.5,3.3.8,2.9-1.7,6.3-2.7,9.8-2.7h.4c10.3,0,19.2,9,19.2,19.8s-6.3,16.9-14.8,19h0Z"/>
      <path class="cls-1" d="M104.8,103.5l-.8.6v-15.7c0-1.3-1.2-2.5-2.5-2.5s-2.5,1.2-2.5,2.5v15.7l-.8-.8c-1-1-2.5-1-3.4,0s-1,2.5,0,3.4c5.2,5.2,4.8,5,5.2,5.2.8.6,1.9.6,2.7,0,.4-.2,0,0,5.2-5.2s1-2.5,0-3.4-2.1-.8-3.1.2h0Z"/>
      <path class="cls-2" d="M28,86.1h-1.3c-.8.2-.4.2-5.8,5.4-1,1-1,2.5,0,3.4s2.5,1,3.5,0l.8-.8v15.7c0,1.3,1.1,2.5,2.5,2.5s2.5-1.2,2.5-2.5v-15.7l.8.8c1,1,2.5,1,3.5,0s1-2.5,0-3.4c-5.6-5.2-5.4-5.2-6.3-5.4Z"/>
    </g>
  </g>
</svg>