<?xml version="1.0" encoding="utf-8"?>
<!-- Generator: Adobe Illustrator 16.0.3, SVG Export Plug-In . SVG Version: 6.00 Build 0)  -->
<!DOCTYPE svg PUBLIC "-//W3C//DTD SVG 1.1//EN" "http://www.w3.org/Graphics/SVG/1.1/DTD/svg11.dtd">
<svg version="1.1" id="Layer_1" xmlns="http://www.w3.org/2000/svg" xmlns:xlink="http://www.w3.org/1999/xlink" x="0px" y="0px"
	 width="600px" height="250px" viewBox="0 0 600 250" enable-background="new 0 0 600 250" xml:space="preserve">
<g>
	<linearGradient id="SVGID_1_" gradientUnits="userSpaceOnUse" x1="234.6123" y1="63.2988" x2="358.2455" y2="186.932">
		<stop  offset="0" style="stop-color:#00E0A7"/>
		<stop  offset="0.0695" style="stop-color:#00CAA3"/>
		<stop  offset="0.2315" style="stop-color:#009B99"/>
		<stop  offset="0.3936" style="stop-color:#007492"/>
		<stop  offset="0.553" style="stop-color:#00568C"/>
		<stop  offset="0.709" style="stop-color:#004087"/>
		<stop  offset="0.8599" style="stop-color:#003385"/>
		<stop  offset="1" style="stop-color:#002F84"/>
	</linearGradient>
	<path fill="url(#SVGID_1_)" d="M393.406,151.613c4.141-3.307,6.211-7.869,6.211-13.674c0-3.158-0.52-5.818-1.551-7.98
		c-1.039-2.154-2.408-3.938-4.1-5.348c-1.699-1.404-3.551-2.569-5.566-3.489c-2.014-0.919-4.035-1.727-6.078-2.414
		c-2.043-0.695-3.91-1.383-5.607-2.07c-1.699-0.688-3.061-1.51-4.094-2.457c-1.037-0.955-1.557-2.204-1.557-3.755
		c0-1.664,0.693-2.948,2.07-3.84c1.383-0.891,3.25-1.333,5.607-1.333c2.359,0,4.471,0.457,6.338,1.375
		c1.867,0.927,3.721,2.33,5.566,4.232l8.795-8.717c-2.303-2.583-5.215-4.625-8.752-6.121c-3.539-1.495-7.434-2.239-11.688-2.239
		c-4.197,0-7.91,0.702-11.125,2.113c-3.221,1.404-5.734,3.46-7.545,6.163c-1.818,2.703-2.725,5.924-2.725,9.658
		c0,3.109,0.52,5.679,1.559,7.721c1.033,2.043,2.4,3.741,4.092,5.089c1.699,1.355,3.553,2.47,5.566,3.363
		c2.016,0.898,4.037,1.684,6.078,2.371c2.043,0.695,3.91,1.412,5.609,2.162c1.691,0.744,3.061,1.637,4.1,2.668
		c1.031,1.039,1.551,2.387,1.551,4.057c0,1.84-0.793,3.277-2.373,4.311c-1.586,1.039-3.811,1.557-6.682,1.557
		c-3.166,0-5.938-0.617-8.324-1.859c-2.387-1.234-4.563-2.977-6.514-5.215l-8.795,8.711c2.982,3.334,6.281,5.818,9.875,7.461
		c3.588,1.635,7.889,2.457,12.895,2.457C383.543,156.568,389.264,154.918,393.406,151.613z M298.621,155.621v-38.037l-2.33,0.604
		l15.526,24.322h8.971l15.609-24.322l-2.414-0.604v38.037h13.539V94.73h-9.748l-23.893,37.342h4.92L294.824,94.73h-9.658v60.891
		H298.621z M262.308,153.381c3.793-2.127,6.756-5.061,8.882-8.801c2.126-3.734,3.194-8.023,3.194-12.852V94.73h-13.628v37.775
		c0,2.416-0.505,4.5-1.512,6.254c-1.004,1.756-2.369,3.104-4.096,4.051c-1.723,0.947-3.738,1.426-6.037,1.426
		c-2.186,0-4.183-0.479-5.994-1.426c-1.811-0.947-3.235-2.309-4.271-4.092c-1.035-1.783-1.551-3.881-1.551-6.297V94.73h-13.627
		v36.912c0,4.83,1.077,9.133,3.232,12.895c2.159,3.77,5.148,6.717,8.97,8.844c3.825,2.127,8.237,3.188,13.241,3.188
		C254.113,156.568,258.514,155.508,262.308,153.381z M212.627,105.813c1.323-1.411,1.986-3.124,1.986-5.131
		c0-2.071-0.663-3.797-1.986-5.18c-1.323-1.375-3.019-2.07-5.089-2.07c-2.067,0-3.78,0.695-5.131,2.07
		c-1.352,1.383-2.025,3.109-2.025,5.18c0,2.007,0.674,3.72,2.025,5.131c1.351,1.411,3.063,2.113,5.131,2.113
		C209.609,107.926,211.304,107.224,212.627,105.813z M214.094,155.621v-41.918h-13.196v41.918H214.094z"/>
</g>
</svg>
