<?xml version="1.0" encoding="UTF-8"?>
<svg id="Layer_1" data-name="Layer 1" xmlns="http://www.w3.org/2000/svg" version="1.1" xmlns:xlink="http://www.w3.org/1999/xlink" viewBox="0 0 600 250">
  <defs>
    <style>
      .cls-1 {
        fill: url(#linear-gradient);
      }

      .cls-1, .cls-2, .cls-3 {
        stroke-width: 0px;
      }

      .cls-2 {
        fill: url(#linear-gradient-2);
      }

      .cls-3 {
        fill: url(#linear-gradient-3);
      }
    </style>
    <linearGradient id="linear-gradient" x1="184.9" y1="-74.3" x2="415.1" y2="324.3" gradientUnits="userSpaceOnUse">
      <stop offset="0" stop-color="#00e0a7"/>
      <stop offset="0" stop-color="#00caa3"/>
      <stop offset=".2" stop-color="#009b99"/>
      <stop offset=".4" stop-color="#007492"/>
      <stop offset=".6" stop-color="#00568c"/>
      <stop offset=".7" stop-color="#004087"/>
      <stop offset=".9" stop-color="#003385"/>
      <stop offset="1" stop-color="#002f84"/>
    </linearGradient>
    <linearGradient id="linear-gradient-2" x1="246.6" y1="-9.9" x2="354.5" y2="177.1" gradientUnits="userSpaceOnUse">
      <stop offset="0" stop-color="#00e1ff"/>
      <stop offset=".1" stop-color="#00dbfa"/>
      <stop offset=".3" stop-color="#00cced"/>
      <stop offset=".5" stop-color="#00b2d9"/>
      <stop offset=".7" stop-color="#008fbb"/>
      <stop offset=".9" stop-color="#006196"/>
      <stop offset="1" stop-color="#003c78"/>
    </linearGradient>
    <linearGradient id="linear-gradient-3" x1="254.9" y1="86.6" x2="348.5" y2="248.8" xlink:href="#linear-gradient-2"/>
  </defs>
  <path class="cls-1" d="M546,11c9.9,0,18,8.1,18,18v192c0,9.9-8.1,18-18,18H54c-9.9,0-18-8.1-18-18V29c0-9.9,8.1-18,18-18h492M546,5H54c-13.3,0-24,10.7-24,24v192c0,13.3,10.7,24,24,24h492c13.3,0,24-10.7,24-24V29c0-13.3-10.7-24-24-24h0Z"/>
  <g>
    <path class="cls-2" d="M474.5,107.9v-49.5h-9.6v49.5h9.6ZM431.7,107.9v-49.5h-9.6v49.5h9.6ZM441.6,89.5c3.1,0,6-.6,8.5-1.9,2.5-1.3,4.5-3.1,5.9-5.4,1.5-2.3,2.2-5.1,2.2-8.3s-.7-5.9-2.2-8.3c-1.5-2.3-3.4-4.1-5.9-5.4-2.5-1.3-5.3-1.9-8.5-1.9h-12.5v7.8h11.5c1.5,0,2.9.3,4.1.9,1.2.6,2.2,1.5,2.9,2.7.7,1.2,1.1,2.6,1.1,4.2s-.4,3-1.1,4.2c-.7,1.2-1.7,2-2.9,2.6-1.2.6-2.6.9-4.1.9h-11.5v7.8h12.5ZM405.8,98.6v-8h-26.6v8h26.6ZM378.7,107.9l15.6-40.6h-3.5l15.3,40.6h10.2l-19.8-49.5h-7.8l-19.9,49.5h10ZM361.6,105.7c2.4-1.9,3.6-4.6,3.6-7.9s-.4-3.8-1.2-5.1c-.8-1.3-1.9-2.4-3.2-3.2-1.3-.8-2.6-1.4-4.1-1.9-1.4-.4-2.8-.8-4.1-1.2-1.3-.4-2.4-.8-3.2-1.2-.8-.5-1.2-1.1-1.2-2s.4-1.3,1.1-1.8c.7-.4,1.8-.6,3.1-.6s2.9.3,4.2.8c1.3.6,2.5,1.5,3.5,2.7l5.6-5.6c-1.5-2-3.4-3.4-5.7-4.4-2.3-1-4.8-1.5-7.6-1.5s-5,.4-7,1.3c-2,.9-3.5,2.1-4.5,3.7-1.1,1.6-1.6,3.5-1.6,5.6s.4,3.7,1.2,5c.8,1.3,1.9,2.3,3.2,3,1.3.7,2.7,1.3,4.1,1.8,1.4.4,2.8.8,4.1,1.2,1.3.4,2.4.8,3.2,1.3.8.5,1.2,1.2,1.2,2.2s-.4,1.5-1.2,1.9c-.8.4-1.9.6-3.4.6s-3.6-.3-5.1-1c-1.5-.7-2.9-1.6-4.1-3l-5.5,5.6c1.1,1.3,2.5,2.4,4,3.3,1.6.9,3.2,1.6,5.1,2.1,1.9.5,3.7.8,5.7.8,4.1,0,7.4-1,9.8-2.9ZM311.6,98.9c-1.3-.8-2.3-1.8-3.1-3.2-.7-1.4-1.1-3-1.1-4.8s.4-3.4,1.1-4.7c.7-1.4,1.7-2.5,3-3.2,1.3-.8,2.8-1.2,4.5-1.2s3.2.4,4.5,1.2c1.3.8,2.3,1.8,3.1,3.2.7,1.4,1.1,3,1.1,4.7s-.4,3.4-1.1,4.8c-.7,1.4-1.7,2.5-3,3.2-1.3.8-2.8,1.2-4.5,1.2s-3.2-.4-4.5-1.2ZM307.9,107.9v-9.1l-1.5-8.3,1.5-8.2v-25.3h-9.2v50.9h9.1ZM326.1,106.2c2.5-1.5,4.4-3.7,5.9-6.3,1.4-2.7,2.1-5.7,2.1-9s-.7-6.4-2.1-9.1c-1.4-2.7-3.4-4.8-5.9-6.3-2.5-1.6-5.3-2.3-8.4-2.3s-4.6.5-6.5,1.5c-2,1-3.6,2.4-4.7,4.1-1.2,1.8-1.8,3.7-1.9,5.9v12.1c0,2.2.7,4.2,1.9,6,1.2,1.8,2.7,3.2,4.7,4.2,2,1,4.2,1.5,6.6,1.5,3.1,0,6-.8,8.4-2.3ZM290.6,107.9v-34h-9.1v8.4l1.5,8.2-1.5,8.3v9.1h9.1ZM268.8,98.9c-1.3-.8-2.3-1.8-3-3.2-.7-1.4-1.1-3-1.1-4.8s.4-3.4,1.1-4.7c.7-1.4,1.7-2.5,3-3.2,1.3-.8,2.8-1.2,4.5-1.2s3.2.4,4.5,1.2c1.3.8,2.3,1.8,3,3.2.7,1.4,1.1,3,1.1,4.7,0,2.7-.8,4.9-2.4,6.7-1.6,1.7-3.7,2.6-6.3,2.6s-3.2-.4-4.5-1.2ZM278.2,107.1c1.9-1,3.5-2.4,4.6-4.1,1.1-1.7,1.8-3.7,1.9-6v-12.2c0-2.2-.7-4.2-1.9-5.9-1.2-1.8-2.7-3.1-4.6-4.1-1.9-1-4.1-1.5-6.5-1.5s-5.9.8-8.4,2.3c-2.5,1.5-4.4,3.7-5.8,6.3-1.4,2.7-2.1,5.7-2.1,9.1s.7,6.3,2.1,9c1.4,2.7,3.4,4.8,5.8,6.3,2.5,1.6,5.3,2.3,8.4,2.3,2.4,0,4.6-.5,6.5-1.5ZM249.2,107.9v-50.9h-9.2v50.9h9.2ZM231,66.9c1-1,1.4-2.3,1.4-3.8s-.5-2.7-1.4-3.7c-1-1-2.2-1.6-3.8-1.6s-2.7.5-3.7,1.6c-1,1-1.5,2.3-1.5,3.7s.5,2.8,1.5,3.8c1,1,2.2,1.5,3.7,1.5,1.5,0,2.8-.5,3.8-1.5ZM231.9,107.9v-34h-9.3v34h9.3ZM192.3,107.9v-34h-9.2v34h9.2ZM215.1,107.9v-21.5c0-2.3-.6-4.4-1.7-6.4-1.1-2-2.7-3.6-4.6-4.9-2-1.2-4.2-1.9-6.7-1.9s-4.9.6-6.9,1.7c-2,1.1-3.6,2.7-4.8,4.7-1.2,2-1.7,4.3-1.7,7l3.6,1.8c0-1.4.3-2.6.9-3.6.6-1,1.4-1.8,2.4-2.4,1-.6,2.2-.8,3.5-.8,2,0,3.7.6,4.9,1.9,1.3,1.3,1.9,2.9,1.9,4.9v19.5h9.2ZM152.7,107.9v-34h-9.2v34h9.2ZM175.6,107.9v-21.5c0-2.3-.6-4.4-1.7-6.4-1.1-2-2.7-3.6-4.6-4.9-2-1.2-4.2-1.9-6.7-1.9s-4.9.6-6.9,1.7c-2,1.1-3.6,2.7-4.8,4.7-1.2,2-1.7,4.3-1.7,7l3.6,1.8c0-1.4.3-2.6.9-3.6.6-1,1.4-1.8,2.4-2.4,1-.6,2.2-.8,3.5-.8,2,0,3.7.6,4.9,1.9,1.3,1.3,1.9,2.9,1.9,4.9v19.5h9.2ZM134.5,66.9c1-1,1.4-2.3,1.4-3.8s-.5-2.7-1.4-3.7c-1-1-2.2-1.6-3.8-1.6s-2.7.5-3.7,1.6c-1,1-1.5,2.3-1.5,3.7s.5,2.8,1.5,3.8c1,1,2.2,1.5,3.7,1.5,1.5,0,2.8-.5,3.8-1.5ZM135.3,107.9v-34h-9.3v34h9.3Z"/>
    <path class="cls-3" d="M448.2,167.8c1.2-1.2,2.8-1.9,4.8-1.9s1.8.1,2.5.4c.7.3,1.3.7,1.9,1.3l5.8-6.6c-1.1-1.2-2.3-2.1-3.6-2.6-1.3-.5-2.8-.8-4.4-.8-3.8,0-6.7,1.2-8.7,3.6-2,2.4-3.2,5.7-3.7,9.9l3.6,2.4c0-2.5.6-4.4,1.9-5.7ZM446.4,192.3v-34h-9.2v34h9.2ZM423.1,191.5c2.4-1,4.4-2.4,6-4.4l-5.4-5.4c-1,1.2-2.3,2-3.7,2.6-1.4.6-3,.9-4.7.9s-3.6-.4-5.1-1.2c-1.5-.8-2.6-2-3.3-3.5-.8-1.5-1.2-3.3-1.2-5.4s.4-3.8,1.1-5.2c.7-1.5,1.8-2.6,3.1-3.4,1.4-.8,3-1.2,4.8-1.2s3.2.4,4.4,1.1,2.1,1.8,2.7,3.1c.6,1.4,1,3.1,1.1,5.1l3.7-2.9h-24.3v7h28.6c.2-.9.3-1.6.4-2.2,0-.6.1-1.3.1-1.9,0-3.2-.7-6.1-2.1-8.7-1.4-2.6-3.4-4.6-5.9-6.1-2.5-1.5-5.4-2.2-8.7-2.2s-6.4.8-9.1,2.4c-2.7,1.6-4.9,3.7-6.4,6.3-1.6,2.7-2.4,5.7-2.4,9s.8,6.5,2.4,9.1c1.6,2.7,3.8,4.8,6.6,6.3,2.8,1.5,5.9,2.3,9.5,2.3,2.8,0,5.3-.5,7.7-1.5ZM390.9,192.3v-50.9h-9.2v50.9h9.2ZM373.6,192.3v-50.9h-9.2v50.9h9.2ZM335.7,183.3c-1.3-.8-2.3-1.9-3.1-3.2-.7-1.4-1.1-3-1.1-4.8s.4-3.3,1.1-4.7c.7-1.4,1.8-2.4,3.1-3.2,1.3-.8,2.8-1.2,4.5-1.2s3.3.4,4.6,1.2c1.3.8,2.3,1.8,3.1,3.2.7,1.4,1.1,2.9,1.1,4.7s-.4,3.4-1.1,4.8c-.7,1.4-1.8,2.5-3.1,3.2-1.3.8-2.9,1.2-4.6,1.2-1.7,0-3.2-.4-4.5-1.2ZM349.5,190.6c2.7-1.6,4.9-3.7,6.5-6.4,1.6-2.7,2.4-5.7,2.4-9s-.8-6.3-2.4-9c-1.6-2.6-3.8-4.8-6.5-6.3-2.7-1.6-5.9-2.4-9.3-2.4s-6.4.8-9.2,2.4c-2.8,1.6-5,3.7-6.5,6.3-1.6,2.7-2.4,5.6-2.4,9s.8,6.3,2.4,9c1.6,2.7,3.8,4.8,6.5,6.4,2.7,1.6,5.8,2.4,9.3,2.4s6.5-.8,9.3-2.4ZM307,167.8c1.2-1.2,2.8-1.9,4.8-1.9s1.8.1,2.5.4c.7.3,1.3.7,1.9,1.3l5.8-6.6c-1.1-1.2-2.3-2.1-3.6-2.6-1.3-.5-2.8-.8-4.4-.8-3.8,0-6.7,1.2-8.7,3.6-2,2.4-3.2,5.7-3.7,9.9l3.6,2.4c0-2.5.6-4.4,1.9-5.7ZM305.2,192.3v-34h-9.2v34h9.2ZM290.8,166.4v-8.1h-25.1v8.1h25.1ZM282.8,192.3v-48.1h-9.2v48.1h9.2ZM238.7,192.3v-34h-9.2v34h9.2ZM261.6,192.3v-21.5c0-2.3-.6-4.4-1.7-6.4-1.1-2-2.7-3.6-4.6-4.9s-4.2-1.9-6.7-1.9-4.9.6-6.9,1.7c-2,1.1-3.6,2.7-4.8,4.7-1.2,2-1.7,4.3-1.7,7l3.6,1.8c0-1.4.3-2.6.9-3.6.6-1,1.4-1.8,2.4-2.4,1-.6,2.2-.8,3.5-.8,2,0,3.7.6,4.9,1.9s1.9,2.9,1.9,4.9v19.5h9.2ZM200.8,183.3c-1.3-.8-2.3-1.9-3.1-3.2-.7-1.4-1.1-3-1.1-4.8s.4-3.3,1.1-4.7c.7-1.4,1.8-2.4,3.1-3.2,1.3-.8,2.8-1.2,4.5-1.2s3.3.4,4.6,1.2c1.3.8,2.3,1.8,3.1,3.2.8,1.4,1.1,2.9,1.1,4.7s-.4,3.4-1.1,4.8c-.7,1.4-1.8,2.5-3.1,3.2-1.3.8-2.9,1.2-4.6,1.2-1.7,0-3.2-.4-4.5-1.2ZM214.7,190.6c2.7-1.6,4.9-3.7,6.5-6.4,1.6-2.7,2.4-5.7,2.4-9s-.8-6.3-2.4-9c-1.6-2.6-3.8-4.8-6.5-6.3-2.7-1.6-5.9-2.4-9.3-2.4s-6.5.8-9.2,2.4c-2.8,1.6-4.9,3.7-6.5,6.3-1.6,2.7-2.4,5.6-2.4,9s.8,6.3,2.4,9c1.6,2.7,3.8,4.8,6.5,6.4,2.7,1.6,5.8,2.4,9.3,2.4,3.4,0,6.5-.8,9.3-2.4ZM176.6,191.1c3-1.3,5.7-3,8-5.3l-6.5-6.5c-1.4,1.5-3,2.7-5,3.6-2,.8-4.4,1.3-7.1,1.3s-4.4-.4-6.3-1.2c-1.9-.8-3.6-1.9-5-3.4-1.4-1.5-2.5-3.2-3.2-5.2-.8-2-1.1-4.3-1.1-6.8s.4-4.7,1.1-6.7c.7-2,1.8-3.8,3.2-5.3,1.4-1.5,3.1-2.6,5-3.4,1.9-.8,4-1.2,6.3-1.2s4.9.4,6.9,1.3c2,.8,3.6,2,5,3.5l6.5-6.5c-2.3-2.2-4.9-4-8-5.3-3-1.3-6.5-1.9-10.4-1.9s-7,.7-10.1,2c-3.1,1.3-5.8,3.1-8.1,5.4-2.3,2.3-4.1,5-5.3,8.1-1.2,3.1-1.9,6.4-1.9,10s.6,6.9,1.9,10c1.2,3.1,3,5.8,5.3,8.1,2.3,2.3,5,4.1,8.1,5.4,3.1,1.3,6.4,1.9,10.1,1.9,4,0,7.6-.6,10.6-1.9Z"/>
  </g>
</svg>