<?xml version="1.0" encoding="utf-8"?>
<!-- Generator: Adobe Illustrator 27.8.1, SVG Export Plug-In . SVG Version: 6.00 Build 0)  -->
<svg version="1.1" id="Layer_1" xmlns="http://www.w3.org/2000/svg" xmlns:xlink="http://www.w3.org/1999/xlink" x="0px" y="0px"
	 viewBox="0 0 100 100" style="enable-background:new 0 0 100 100;" xml:space="preserve">
<style type="text/css">
	.st0{fill:#FFFFFF;}
	.st1{fill:url(#SVGID_00000026131041044227934580000000743319578240191123_);}
</style>
<g>
	<path class="st0" d="M89.69,13.92c0-1.05-0.91-1.74-1.89-1.6c-4.33,0.63-9.14,0.56-12.43-2.37c-0.56-0.56-1.33-0.56-1.95-0.14
		c-3.84,2.51-8.1,3.28-12.57,2.51c-1.05-0.14-1.96,0.56-1.96,1.6v0.14H12.06c-0.91,0-1.74,0.77-1.74,1.75v19.83
		c0,0.91,0.77,1.75,1.74,1.75h29.88v3.7H12.06c-0.91,0-1.74,0.77-1.74,1.75v18.92c0,0.91,0.77,1.61,1.74,1.61h29.88v4.61H12.06
		c-0.91,0-1.74,0.77-1.74,1.75v19.06c0,0.91,0.77,1.74,1.74,1.74h71c0.91,0,1.74-0.77,1.74-1.74v-19.2c0-0.91-0.77-1.75-1.74-1.75
		H51.08V63.2h31.97c0.91,0,1.74-0.63,1.74-1.61V42.68c0-0.91-0.77-1.75-1.74-1.75h-0.14c3.56-3.7,5.31-5.79,6.07-9.63
		c0.77-3.56,0.63-8.24,0.63-17.31L89.69,13.92z M62.32,37.16c0.77,1.19,1.88,2.24,3.21,3.7H51.01v-3.7h11.38H62.32z M13.66,17.34
		H58.9c0,8.24,0,12.85,1.47,16.54h-46.7V17.34z M45.29,37.16h2.51v3.7h-2.51V37.16z M81.52,86.8H13.66V71.02h67.86V86.8z
		 M47.8,67.74h-2.51v-4.61h2.51V67.74z M81.52,59.78H13.66V44.15h29.46c0.28,0.14,0.7,0.14,0.91,0h4.75c0.28,0.14,0.7,0.14,0.91,0
		H68.6c0.28,0.28,0.56,0.56,0.77,0.77c0.21,0.21,0.77,0.56,1.19,0.56h7.12c0.42,0,0.91-0.14,1.19-0.56
		c0.28-0.28,0.56-0.56,0.77-0.77h1.6v15.64H81.52z M85.85,30.46c-0.77,3.7-2.79,5.45-7.82,10.68c-0.28,0.28-0.56,0.56-0.91,0.91
		H71.4c-0.42-0.42-0.63-0.77-0.91-1.05c-2.09-2.1-4.33-4.33-5.72-6.21c-0.14-0.28-0.28-0.42-0.42-0.56
		c-0.77-1.19-1.19-2.24-1.61-3.84c-0.63-3.14-0.56-8.59-0.56-14.66c4.33,0.42,8.31-0.42,12.01-2.65c3.56,2.51,7.96,2.93,12.15,2.51
		c-0.14,7.26,0,11.87-0.63,14.8h0.14V30.46z"/>
	<g>
		<defs>
			<path id="SVGID_1_" d="M61.85,78.63c-0.14-0.77,0.56-1.47,1.47-1.47c0.77,0,1.47,0.63,1.47,1.47s-0.63,1.46-1.47,1.46
				C62.47,80.1,61.85,79.47,61.85,78.63 M58.56,78.77c-0.14,2.51,2.09,4.75,4.75,4.75c2.65,0,4.75-2.09,4.75-4.75
				c0-2.65-2.09-4.75-4.75-4.75C60.66,74.02,58.56,76.12,58.56,78.77 M72.81,78.63c0-0.84,0.63-1.47,1.47-1.47
				c0.77,0,1.46,0.63,1.46,1.47s-0.63,1.46-1.46,1.46C73.44,80.1,72.81,79.47,72.81,78.63 M69.52,78.77c0,2.65,2.09,4.75,4.75,4.75
				c2.65,0,4.75-2.09,4.75-4.75c0-2.65-2.09-4.75-4.75-4.75C71.62,74.02,69.52,76.12,69.52,78.77 M17.66,83.24h3.28v-9.91h-3.28
				V83.24z M22.68,83.24h3.28v-9.91h-3.28V83.24z M27.57,83.24h3.28v-9.91h-3.28V83.24z M32.59,83.24h3.28v-9.91h-3.28V83.24z
				 M37.48,83.24h3.28v-9.91h-3.28V83.24z M42.51,83.24h3.28v-9.91h-3.28V83.24z M61.85,51.89c0-0.84,0.63-1.46,1.47-1.46
				c0.84,0,1.47,0.63,1.47,1.46c0,0.84-0.63,1.46-1.47,1.46C62.54,53.36,61.85,52.73,61.85,51.89 M58.56,51.75
				c0,2.65,2.09,4.75,4.75,4.75c2.65,0,4.75-2.09,4.75-4.75c0-2.65-2.09-4.75-4.75-4.75C60.66,47.01,58.56,49.1,58.56,51.75
				 M72.81,51.89c0-0.84,0.63-1.46,1.47-1.46c0.84,0,1.46,0.63,1.46,1.46c0.14,0.77-0.56,1.46-1.46,1.46
				C73.5,53.36,72.81,52.73,72.81,51.89 M69.52,51.75c0,2.65,2.09,4.75,4.75,4.75c2.65,0,4.75-2.09,4.75-4.75
				c0-2.65-2.09-4.75-4.75-4.75C71.62,47.01,69.52,49.1,69.52,51.75 M17.66,56.85h3.28v-9.91h-3.28V56.85z M22.68,56.85h3.28v-9.91
				h-3.28V56.85z M27.57,56.85h3.28v-9.91h-3.28V56.85z M32.59,56.85h3.28v-9.91h-3.28V56.85z M37.48,56.85h3.28v-9.91h-3.28V56.85z
				 M42.51,56.85h3.28v-9.91h-3.28V56.85z M22.68,30.39h3.28v-9.91h-3.28V30.39z M27.57,30.39h3.28v-9.91h-3.28V30.39z M32.59,30.39
				h3.28v-9.91h-3.28V30.39z M37.48,30.39h3.28v-9.91h-3.28V30.39z M42.51,30.39h3.28v-9.91h-3.28V30.39z M17.66,30.32h3.28v-9.91
				h-3.28V30.32z"/>
		</defs>
		
			<linearGradient id="SVGID_00000024715248394437557860000017312828300068885131_" gradientUnits="userSpaceOnUse" x1="20.5579" y1="18.7333" x2="62.3643" y2="91.1441">
			<stop  offset="0" style="stop-color:#78FFFF"/>
			<stop  offset="1" style="stop-color:#0000A7"/>
		</linearGradient>
		<use xlink:href="#SVGID_1_"  style="overflow:visible;fill:url(#SVGID_00000024715248394437557860000017312828300068885131_);"/>
		<clipPath id="SVGID_00000005259180774721175530000010166347674112659857_">
			<use xlink:href="#SVGID_1_"  style="overflow:visible;"/>
		</clipPath>
	</g>
</g>
<linearGradient id="SVGID_00000158732435960218063600000012737275672393324178_" gradientUnits="userSpaceOnUse" x1="-252.7228" y1="81.1408" x2="-218.9846" y2="81.1408">
	<stop  offset="0" style="stop-color:#78FFFF"/>
	<stop  offset="1" style="stop-color:#0000A7"/>
</linearGradient>
<circle style="fill:url(#SVGID_00000158732435960218063600000012737275672393324178_);" cx="-235.85" cy="81.14" r="16.87"/>
</svg>
