<?xml version="1.0" encoding="utf-8"?>
<!-- Generator: Adobe Illustrator 27.8.1, SVG Export Plug-In . SVG Version: 6.00 Build 0)  -->
<svg version="1.1" id="Layer_1" xmlns="http://www.w3.org/2000/svg" xmlns:xlink="http://www.w3.org/1999/xlink" x="0px" y="0px"
	 viewBox="0 0 100 100" style="enable-background:new 0 0 100 100;" xml:space="preserve">
<style type="text/css">
	.st0{enable-background:new    ;}
	.st1{fill:#FFFFFF;}
</style>
<g>
	<g>
		<g class="st0">
			<g>
				<path class="st1" d="M30.4,81.33c-2.5,0-4.59,2.02-4.59,4.59c0,2.56,2.02,4.59,4.59,4.59c2.56,0,4.59-2.02,4.59-4.59
					C34.99,83.35,32.97,81.33,30.4,81.33"/>
			</g>
		</g>
		<g class="st0">
			<g>
				<path class="st1" d="M18.74,59.81c-2.5,0-4.59,2.02-4.59,4.59c0,2.56,2.02,4.59,4.59,4.59c2.56,0,4.59-2.02,4.59-4.59
					C23.32,61.84,21.3,59.81,18.74,59.81"/>
			</g>
		</g>
		<g class="st0">
			<g>
				<path class="st1" d="M53.94,76.34c2.5,0,4.52,2.02,4.52,4.52s-2.02,4.52-4.52,4.52c-2.5,0-4.52-2.02-4.52-4.52
					S51.45,76.34,53.94,76.34"/>
			</g>
		</g>
		<g class="st0">
			<g>
				<path class="st1" d="M24.87,40.46c3.2,0,5.8,2.6,5.8,5.8s-2.6,5.8-5.8,5.8c-3.2,0-5.8-2.6-5.8-5.8S21.67,40.46,24.87,40.46"/>
			</g>
		</g>
		<g class="st0">
			<g>
				<path class="st1" d="M63.99,61.3c3.2,0,5.8,2.6,5.8,5.8c0,3.2-2.6,5.8-5.8,5.8c-3.2,0-5.8-2.6-5.8-5.8
					C58.19,63.89,60.79,61.3,63.99,61.3"/>
			</g>
		</g>
		<g class="st0">
			<g>
				<path class="st1" d="M38.23,63.39c3.2,0,5.8,2.6,5.8,5.8c0,3.2-2.6,5.8-5.8,5.8c-3.2,0-5.8-2.6-5.8-5.8
					C32.43,65.98,35.03,63.39,38.23,63.39"/>
			</g>
		</g>
	</g>
	<g>
		<defs>
			<path id="SVGID_1_" d="M41.06,47.27c0,5.06,4.18,9.24,9.24,9.24c5.13,0,9.24-4.18,9.24-9.24c0-5.06-4.18-9.24-9.24-9.24
				C45.24,38.03,41.06,42.21,41.06,47.27 M67.77,44.43c0,5.06,4.18,9.24,9.24,9.24s9.24-4.18,9.24-9.24c0-5.06-4.18-9.24-9.24-9.24
				C71.88,35.2,67.77,39.38,67.77,44.43 M24.54,24.61c0,5.06,4.18,9.24,9.24,9.24c5.06,0,9.24-4.11,9.24-9.24
				c0-5.12-4.18-9.24-9.24-9.24C28.72,15.37,24.54,19.48,24.54,24.61 M49.56,21.5c0,6.61,5.4,12.01,12,12.01
				c6.61,0,12.01-5.4,12.01-12.01c0-6.61-5.4-12-12.01-12C54.95,9.5,49.56,14.9,49.56,21.5"/>
		</defs>
		
			<linearGradient id="SVGID_00000178201488726082331130000006969372159666616985_" gradientUnits="userSpaceOnUse" x1="41.4537" y1="9.5118" x2="70.0762" y2="59.0875">
			<stop  offset="0" style="stop-color:#78FFFF"/>
			<stop  offset="1" style="stop-color:#0000A7"/>
		</linearGradient>
		<use xlink:href="#SVGID_1_"  style="overflow:visible;fill:url(#SVGID_00000178201488726082331130000006969372159666616985_);"/>
		<clipPath id="SVGID_00000047750448950114406380000011184727067489442698_">
			<use xlink:href="#SVGID_1_"  style="overflow:visible;"/>
		</clipPath>
	</g>
</g>
</svg>
