<?xml version="1.0" encoding="utf-8"?>
<!-- Generator: Adobe Illustrator 16.0.3, SVG Export Plug-In . SVG Version: 6.00 Build 0)  -->
<!DOCTYPE svg PUBLIC "-//W3C//DTD SVG 1.1//EN" "http://www.w3.org/Graphics/SVG/1.1/DTD/svg11.dtd">
<svg version="1.1" id="Layer_1" xmlns="http://www.w3.org/2000/svg" xmlns:xlink="http://www.w3.org/1999/xlink" x="0px" y="0px"
	 width="600px" height="250px" viewBox="0 0 600 250" enable-background="new 0 0 600 250" xml:space="preserve">
<g>
	<linearGradient id="SVGID_1_" gradientUnits="userSpaceOnUse" x1="164.6206" y1="-39.9438" x2="425.8772" y2="221.3128">
		<stop  offset="0" style="stop-color:#00E0A7"/>
		<stop  offset="0.0695" style="stop-color:#00CAA3"/>
		<stop  offset="0.2315" style="stop-color:#009B99"/>
		<stop  offset="0.3936" style="stop-color:#007492"/>
		<stop  offset="0.553" style="stop-color:#00568C"/>
		<stop  offset="0.709" style="stop-color:#004087"/>
		<stop  offset="0.8599" style="stop-color:#003385"/>
		<stop  offset="1" style="stop-color:#002F84"/>
	</linearGradient>
	<path fill="url(#SVGID_1_)" d="M540,107.188V88.684c0-2.338-0.505-4.356-1.514-6.049c-1.007-1.693-2.38-2.992-4.112-3.903
		c-1.732-0.906-3.688-1.358-5.866-1.358c-2.176,0-4.151,0.473-5.926,1.422c-1.774,0.945-3.207,2.279-4.294,3.991
		c-1.088,1.713-1.716,3.741-1.876,6.079l4.536,1.087c0-1.127,0.243-2.097,0.726-2.904c0.484-0.807,1.159-1.422,2.027-1.845
		c0.866-0.423,1.805-0.635,2.811-0.635c1.572,0,2.895,0.478,3.962,1.422c1.068,0.95,1.603,2.269,1.603,3.962v17.235H540z
		 M520.948,107.188V88.442c0-2.298-0.482-4.267-1.452-5.896c-0.967-1.634-2.276-2.904-3.93-3.814
		c-1.654-0.906-3.487-1.358-5.503-1.358c-2.138,0-4.053,0.453-5.746,1.358c-1.692,0.911-3.034,2.19-4.021,3.844
		c-0.989,1.654-1.484,3.607-1.484,5.867l3.086,1.511c0-1.127,0.241-2.097,0.727-2.904c0.482-0.807,1.148-1.422,1.995-1.845
		c0.847-0.423,1.794-0.635,2.843-0.635c1.572,0,2.892,0.478,3.962,1.422c1.067,0.95,1.602,2.269,1.602,3.962v17.235H520.948z
		 M501.898,107.188V77.979h-7.924v29.209H501.898z M478.403,86.173c1.067-1.068,2.448-1.604,4.144-1.604
		c0.805,0,1.521,0.123,2.146,0.364c0.625,0.241,1.158,0.605,1.602,1.088l4.961-5.685c-0.93-1.048-1.956-1.801-3.086-2.269
		c-1.13-0.462-2.399-0.694-3.81-0.694c-3.266,0-5.766,1.039-7.5,3.115c-1.732,2.077-2.781,4.907-3.146,8.495l3.086,2.058
		C476.801,88.866,477.335,87.241,478.403,86.173z M476.801,107.188V77.979h-7.924v29.209H476.801z M461.018,74.352
		c0.805-0.846,1.208-1.895,1.208-3.145c0-1.25-0.403-2.299-1.208-3.145c-0.808-0.847-1.855-1.27-3.145-1.27
		c-1.251,0-2.289,0.423-3.116,1.27c-0.826,0.846-1.24,1.895-1.24,3.145c0,1.25,0.414,2.298,1.24,3.145
		c0.827,0.847,1.865,1.27,3.116,1.27C459.162,75.622,460.21,75.198,461.018,74.352z M461.864,107.188V77.979h-7.924v29.209H461.864z
		 M457.752,84.933v-6.954h-28.969v6.954H457.752z M443.479,107.188V73.623c0-1.087,0.29-1.944,0.876-2.569
		c0.583-0.625,1.4-0.94,2.448-0.94c0.566,0,1.059,0.074,1.484,0.211l1.179,0.635l4.535-5.562c-1.049-0.847-2.146-1.491-3.295-1.935
		c-1.149-0.443-2.451-0.664-3.903-0.664c-2.296,0-4.284,0.492-5.955,1.481c-1.673,0.984-2.976,2.318-3.9,3.991
		c-0.931,1.673-1.393,3.559-1.393,5.655v33.26H443.479z M405.984,107.188V77.979h-7.924v29.209H405.984z M425.639,107.188V88.684
		c0-1.974-0.485-3.819-1.452-5.532c-0.967-1.717-2.298-3.105-3.991-4.173s-3.607-1.604-5.744-1.604
		c-2.219,0-4.205,0.482-5.957,1.452c-1.755,0.97-3.125,2.309-4.112,4.021c-0.989,1.712-1.483,3.721-1.483,6.019l3.086,1.57
		c0-1.167,0.251-2.195,0.755-3.081c0.505-0.891,1.198-1.575,2.087-2.057c0.886-0.487,1.895-0.729,3.024-0.729
		c1.732,0,3.145,0.546,4.232,1.634c1.088,1.087,1.634,2.5,1.634,4.232v16.753H425.639z M373.447,99.418
		c-1.13-0.665-2.018-1.595-2.662-2.781c-0.646-1.191-0.968-2.549-0.968-4.085c0-1.531,0.322-2.879,0.968-4.05
		c0.645-1.167,1.532-2.087,2.662-2.751c1.127-0.664,2.419-0.999,3.871-0.999c1.491,0,2.8,0.335,3.93,0.999
		c1.129,0.665,2.016,1.585,2.66,2.751c0.645,1.171,0.97,2.52,0.97,4.05c0,1.536-0.315,2.894-0.938,4.085
		c-0.628,1.186-1.514,2.116-2.663,2.781c-1.149,0.664-2.468,0.999-3.959,0.999C375.866,100.417,374.574,100.082,373.447,99.418z
		 M385.33,105.767c2.357-1.349,4.223-3.185,5.594-5.503c1.371-2.318,2.058-4.906,2.058-7.771c0-2.864-0.687-5.433-2.058-7.712
		c-1.371-2.274-3.236-4.09-5.594-5.443c-2.359-1.349-5.029-2.023-8.012-2.023c-2.904,0-5.544,0.674-7.924,2.023
		c-2.38,1.354-4.255,3.169-5.623,5.443c-1.373,2.279-2.058,4.848-2.058,7.712c0,2.865,0.696,5.453,2.087,7.771
		c1.391,2.318,3.266,4.154,5.623,5.503c2.36,1.354,5.011,2.027,7.953,2.027C380.32,107.794,382.971,107.12,385.33,105.767z
		 M352.582,106.16c2.621-1.088,4.919-2.618,6.896-4.597l-5.564-5.562c-1.169,1.329-2.61,2.357-4.323,3.081
		c-1.715,0.729-3.76,1.093-6.14,1.093c-1.977,0-3.78-0.345-5.411-1.029c-1.634-0.688-3.054-1.663-4.265-2.933
		c-1.208-1.27-2.139-2.771-2.781-4.508c-0.646-1.732-0.969-3.667-0.969-5.802c0-2.097,0.322-4.026,0.969-5.778
		c0.643-1.752,1.573-3.263,2.781-4.533c1.211-1.274,2.631-2.239,4.265-2.904c1.631-0.664,3.435-0.999,5.411-0.999
		c2.259,0,4.235,0.364,5.928,1.088c1.693,0.729,3.123,1.732,4.294,3.027l5.564-5.566c-1.977-1.934-4.255-3.455-6.836-4.567
		c-2.579-1.107-5.562-1.664-8.95-1.664c-3.145,0-6.039,0.566-8.677,1.693c-2.643,1.132-4.961,2.682-6.957,4.661
		c-1.995,1.974-3.528,4.292-4.594,6.954c-1.071,2.658-1.604,5.522-1.604,8.588c0,3.061,0.533,5.925,1.604,8.588
		c1.065,2.657,2.599,4.985,4.594,6.983c1.996,1.993,4.326,3.549,6.986,4.656s5.542,1.663,8.647,1.663
		C346.917,107.794,349.961,107.248,352.582,106.16z M300.575,119.404l5.323-11.975l-4.841-6.831l-8.889,18.806H300.575z
		 M305.898,107.43l13-29.451h-8.647l-8.405,22.497h2.903l-8.105-22.497h-8.586l12.215,29.451H305.898z M261.929,107.188V64.676
		h-8.165v42.513H261.929z M271.181,107.188c3.024,0,5.597-0.556,7.713-1.663s3.728-2.579,4.838-4.415
		c1.107-1.836,1.663-3.878,1.663-6.137c0-2.864-0.858-5.31-2.571-7.348s-4.142-3.5-7.286-4.385l-0.364,2.663
		c2.822-0.847,4.968-2.151,6.442-3.903c1.472-1.752,2.207-3.839,2.207-6.26c0-1.974-0.484-3.8-1.452-5.473
		c-0.967-1.673-2.409-3.021-4.323-4.05c-1.917-1.029-4.284-1.541-7.106-1.541h-11.128v6.713h10.16c1.693,0,3.054,0.423,4.083,1.27
		c1.028,0.847,1.54,2.136,1.54,3.868c0,1.693-0.512,2.963-1.54,3.81c-1.029,0.847-2.39,1.27-4.083,1.27h-10.16v6.654h11.066
		c1.331,0,2.47,0.271,3.418,0.817c0.947,0.542,1.663,1.28,2.146,2.205c0.484,0.93,0.726,1.958,0.726,3.086
		c0,1.653-0.554,3.085-1.661,4.291c-1.109,1.211-2.652,1.816-4.628,1.816h-11.066v6.713H271.181z M230.604,119.404l5.323-11.975
		l-4.841-6.831l-8.888,18.806H230.604z M235.928,107.43l13-29.451h-8.646l-8.406,22.497h2.903l-8.105-22.497h-8.586l12.215,29.451
		H235.928z M197.342,99.418c-1.129-0.665-2.018-1.595-2.662-2.781c-0.645-1.191-0.967-2.549-0.967-4.085
		c0-1.531,0.322-2.879,0.967-4.05c0.645-1.167,1.533-2.087,2.662-2.751c1.128-0.664,2.419-0.999,3.871-0.999
		c1.491,0,2.801,0.335,3.93,0.999c1.13,0.665,2.016,1.585,2.66,2.751c0.646,1.171,0.97,2.52,0.97,4.05
		c0,1.536-0.314,2.894-0.938,4.085c-0.627,1.186-1.514,2.116-2.662,2.781c-1.149,0.664-2.469,0.999-3.96,0.999
		C199.761,100.417,198.47,100.082,197.342,99.418z M209.226,105.767c2.357-1.349,4.223-3.185,5.593-5.503
		c1.371-2.318,2.058-4.906,2.058-7.771c0-2.864-0.687-5.433-2.058-7.712c-1.37-2.274-3.235-4.09-5.593-5.443
		c-2.36-1.349-5.03-2.023-8.013-2.023c-2.903,0-5.544,0.674-7.924,2.023c-2.38,1.354-4.255,3.169-5.623,5.443
		c-1.373,2.279-2.057,4.848-2.057,7.712c0,2.865,0.696,5.453,2.087,7.771c1.39,2.318,3.265,4.154,5.622,5.503
		c2.36,1.354,5.011,2.027,7.954,2.027C204.215,107.794,206.865,107.12,209.226,105.767z M180.53,107.188V63.465h-7.924v43.724
		H180.53z M148.022,99.477c-1.109-0.664-1.976-1.59-2.601-2.781s-0.938-2.569-0.938-4.144c0-1.531,0.313-2.889,0.938-4.08
		c0.625-1.191,1.501-2.116,2.631-2.781c1.129-0.669,2.398-0.999,3.812-0.999c1.449,0,2.741,0.33,3.868,0.999
		c1.13,0.665,2.006,1.59,2.631,2.781c0.625,1.191,0.938,2.549,0.938,4.08c0,1.575-0.313,2.953-0.938,4.144s-1.501,2.117-2.631,2.781
		c-1.127,0.664-2.419,0.999-3.868,0.999C150.412,100.476,149.13,100.141,148.022,99.477z M144.907,119.404V99.812l-1.27-7.078
		l1.331-7.077v-7.678h-7.924v41.425H144.907z M160.512,105.796c2.136-1.329,3.818-3.145,5.049-5.443
		c1.23-2.293,1.846-4.877,1.846-7.737c0-2.904-0.615-5.507-1.846-7.806s-2.913-4.109-5.049-5.438
		c-2.139-1.333-4.558-1.998-7.257-1.998c-2.097,0-3.982,0.443-5.655,1.329c-1.674,0.891-3.024,2.087-4.053,3.598
		c-1.026,1.516-1.583,3.238-1.664,5.172v10.34c0.081,1.939,0.625,3.652,1.634,5.143c1.007,1.491,2.36,2.673,4.054,3.539
		c1.692,0.866,3.588,1.299,5.685,1.299C155.954,107.794,158.373,107.13,160.512,105.796z M124.923,106.524
		c2.035-0.847,3.758-2.097,5.171-3.75l-4.659-4.656c-0.886,1.009-1.934,1.762-3.145,2.269c-1.208,0.502-2.56,0.753-4.051,0.753
		c-1.653,0-3.105-0.349-4.355-1.058c-1.25-0.704-2.207-1.713-2.872-3.022c-0.664-1.309-0.996-2.854-0.996-4.626
		c0-1.732,0.31-3.238,0.935-4.508c0.626-1.27,1.523-2.254,2.692-2.963c1.169-0.704,2.54-1.059,4.112-1.059
		c1.491,0,2.751,0.315,3.779,0.94c1.029,0.625,1.816,1.521,2.36,2.687c0.544,1.171,0.856,2.624,0.938,4.355l3.204-2.48
		l-20.865,0.064v5.926l24.554-0.059c0.163-0.689,0.273-1.304,0.335-1.846c0.059-0.546,0.089-1.078,0.089-1.604
		c0-2.781-0.615-5.271-1.844-7.466c-1.23-2.2-2.923-3.933-5.081-5.202c-2.156-1.27-4.646-1.905-7.469-1.905
		c-2.862,0-5.463,0.674-7.801,2.023c-2.338,1.354-4.184,3.169-5.534,5.443c-1.352,2.279-2.025,4.867-2.025,7.771
		c0,2.943,0.696,5.566,2.087,7.865c1.39,2.298,3.275,4.1,5.654,5.413c2.378,1.31,5.1,1.964,8.163,1.964
		C120.679,107.794,122.886,107.371,124.923,106.524z M68.227,107.188V64.676H60v42.513H68.227z M76.691,107.188
		c3.105,0,5.997-0.521,8.679-1.569c2.683-1.049,5.011-2.53,6.986-4.449c1.974-1.915,3.517-4.174,4.627-6.772
		c1.107-2.599,1.663-5.434,1.663-8.495c0-3.066-0.556-5.886-1.663-8.47c-1.11-2.579-2.663-4.828-4.658-6.743
		c-1.996-1.915-4.334-3.396-7.014-4.444c-2.683-1.048-5.596-1.57-8.741-1.57H65.443v7.313H76.45c2.702,0,5.081,0.576,7.137,1.728
		c2.057,1.146,3.669,2.761,4.838,4.838c1.169,2.077,1.754,4.503,1.754,7.284c0,2.864-0.575,5.345-1.725,7.441
		c-1.146,2.097-2.751,3.716-4.806,4.867c-2.058,1.147-4.457,1.723-7.198,1.723H65.625v7.318H76.691z"/>
	<linearGradient id="SVGID_2_" gradientUnits="userSpaceOnUse" x1="227.6606" y1="89.1792" x2="370.9078" y2="232.4263">
		<stop  offset="0" style="stop-color:#00E0A7"/>
		<stop  offset="0.0695" style="stop-color:#00CAA3"/>
		<stop  offset="0.2315" style="stop-color:#009B99"/>
		<stop  offset="0.3936" style="stop-color:#007492"/>
		<stop  offset="0.553" style="stop-color:#00568C"/>
		<stop  offset="0.709" style="stop-color:#004087"/>
		<stop  offset="0.8599" style="stop-color:#003385"/>
		<stop  offset="1" style="stop-color:#002F84"/>
	</linearGradient>
	<path fill="url(#SVGID_2_)" d="M421.738,180.156c1.572-2.761,2.79-5.787,3.659-9.07c0.866-3.287,1.299-6.703,1.299-10.252
		c0-3.588-0.433-7.022-1.299-10.311c-0.869-3.287-2.087-6.31-3.659-9.07s-3.47-5.113-5.685-7.048l-4.415,4.114
		c2.618,2.5,4.634,5.646,6.047,9.435c1.409,3.79,2.116,8.082,2.116,12.88c0,4.76-0.707,9.031-2.116,12.821
		c-1.413,3.789-3.429,6.935-6.047,9.435l4.415,4.109C418.269,185.266,420.166,182.918,421.738,180.156z M371.602,179.763v-28.422
		l-1.634,0.482l11.974,19.233h5.564l11.975-19.233l-1.573-0.482v28.422h8.165V137.25h-5.805l-17.177,27.576h3.327l-17.235-27.576
		h-5.808v42.513H371.602z M350.736,178.734c2.621-1.088,4.919-2.618,6.896-4.597l-5.564-5.562c-1.168,1.329-2.61,2.357-4.323,3.081
		c-1.715,0.729-3.76,1.093-6.14,1.093c-1.976,0-3.779-0.345-5.411-1.029c-1.634-0.688-3.054-1.663-4.265-2.934
		c-1.208-1.27-2.139-2.771-2.781-4.508c-0.646-1.732-0.969-3.666-0.969-5.803c0-2.097,0.322-4.025,0.969-5.777
		c0.643-1.752,1.573-3.264,2.781-4.533c1.211-1.274,2.631-2.239,4.265-2.903c1.632-0.665,3.436-0.999,5.411-0.999
		c2.259,0,4.235,0.363,5.928,1.087c1.693,0.729,3.123,1.732,4.295,3.027l5.563-5.566c-1.976-1.935-4.255-3.455-6.836-4.567
		c-2.579-1.107-5.562-1.664-8.95-1.664c-3.145,0-6.039,0.566-8.677,1.693c-2.643,1.132-4.961,2.683-6.957,4.661
		c-1.995,1.974-3.528,4.291-4.594,6.954c-1.07,2.657-1.604,5.521-1.604,8.588c0,3.062,0.534,5.926,1.604,8.589
		c1.065,2.657,2.599,4.985,4.594,6.983c1.996,1.993,4.326,3.549,6.986,4.656s5.542,1.663,8.647,1.663
		C345.072,180.368,348.116,179.822,350.736,178.734z M310.884,176.982c2.78-2.26,4.174-5.365,4.174-9.317
		c0-2.214-0.364-4.079-1.091-5.591c-0.726-1.511-1.683-2.751-2.871-3.721c-1.191-0.97-2.5-1.752-3.933-2.357
		c-1.43-0.605-2.862-1.151-4.292-1.634c-1.432-0.482-2.743-0.989-3.932-1.511c-1.189-0.526-2.146-1.151-2.872-1.875
		c-0.726-0.729-1.09-1.674-1.09-2.845c0-1.368,0.546-2.417,1.634-3.146c1.088-0.723,2.579-1.087,4.476-1.087
		c1.651,0,3.133,0.324,4.444,0.969c1.31,0.646,2.589,1.654,3.839,3.022l5.443-5.443c-1.491-1.732-3.405-3.145-5.743-4.232
		c-2.341-1.088-4.961-1.635-7.862-1.635c-2.744,0-5.202,0.487-7.38,1.452c-2.176,0.97-3.891,2.362-5.141,4.174
		c-1.25,1.816-1.873,4.011-1.873,6.595c0,2.176,0.362,3.981,1.088,5.409c0.726,1.432,1.684,2.604,2.872,3.509
		c1.188,0.906,2.5,1.664,3.932,2.27c1.43,0.604,2.862,1.137,4.295,1.599c1.43,0.468,2.741,0.979,3.93,1.546
		c1.188,0.565,2.148,1.25,2.871,2.057c0.727,0.808,1.091,1.851,1.091,3.146c0,1.491-0.635,2.657-1.905,3.504
		c-1.27,0.847-2.975,1.27-5.11,1.27c-2.38,0-4.396-0.452-6.049-1.358c-1.654-0.905-3.104-2.185-4.354-3.839l-5.443,5.438
		c1.977,2.343,4.184,4.095,6.622,5.267c2.438,1.166,5.372,1.752,8.8,1.752C304.291,180.368,308.101,179.241,310.884,176.982z
		 M269.55,158.748c1.067-1.068,2.448-1.605,4.144-1.605c0.805,0,1.521,0.123,2.146,0.364s1.158,0.605,1.602,1.088l4.961-5.685
		c-0.93-1.048-1.956-1.801-3.086-2.269c-1.129-0.463-2.399-0.694-3.81-0.694c-3.265,0-5.766,1.039-7.5,3.116
		c-1.732,2.076-2.781,4.906-3.146,8.494l3.086,2.058C267.947,161.439,268.481,159.815,269.55,158.748z M267.947,179.763v-29.21
		h-7.924v29.21H267.947z M235.411,171.991c-1.13-0.664-2.019-1.595-2.663-2.78c-0.645-1.191-0.967-2.55-0.967-4.085
		c0-1.53,0.322-2.879,0.967-4.051c0.645-1.166,1.533-2.087,2.663-2.751c1.127-0.664,2.419-0.999,3.87-0.999
		c1.492,0,2.801,0.335,3.931,0.999c1.129,0.664,2.015,1.585,2.66,2.751c0.645,1.172,0.97,2.521,0.97,4.051
		c0,1.535-0.315,2.894-0.938,4.085c-0.627,1.186-1.513,2.116-2.662,2.78c-1.149,0.665-2.468,0.999-3.96,0.999
		C237.83,172.99,236.538,172.656,235.411,171.991z M247.294,178.341c2.357-1.349,4.223-3.185,5.594-5.503
		c1.37-2.318,2.057-4.906,2.057-7.771c0-2.864-0.687-5.433-2.057-7.712c-1.371-2.273-3.236-4.09-5.594-5.443
		c-2.359-1.349-5.029-2.022-8.013-2.022c-2.903,0-5.544,0.674-7.923,2.022c-2.38,1.354-4.255,3.17-5.623,5.443
		c-1.373,2.279-2.058,4.848-2.058,7.712c0,2.865,0.696,5.453,2.087,7.771s3.266,4.154,5.623,5.503
		c2.359,1.354,5.01,2.027,7.953,2.027S244.935,179.694,247.294,178.341z M220.959,144.504v-7.254h-22.438v7.254H220.959z
		 M219.93,162.346v-7.319h-21.409v7.319H219.93z M200.698,179.763V137.25h-8.226v42.513H200.698z M186.97,183.09
		c-2.62-2.5-4.646-5.646-6.078-9.435c-1.43-3.79-2.146-8.062-2.146-12.821c0-4.798,0.716-9.09,2.146-12.88
		c1.433-3.789,3.458-6.935,6.078-9.435l-4.474-4.114c-2.178,1.935-4.063,4.287-5.655,7.048c-1.594,2.761-2.813,5.783-3.659,9.07
		c-0.846,3.288-1.27,6.723-1.27,10.311c0,3.549,0.424,6.965,1.27,10.252c0.847,3.283,2.065,6.31,3.659,9.07
		c1.593,2.762,3.478,5.109,5.655,7.043L186.97,183.09z"/>
</g>
</svg>
