<?xml version="1.0" encoding="utf-8"?>
<!-- Generator: Adobe Illustrator 27.8.1, SVG Export Plug-In . SVG Version: 6.00 Build 0)  -->
<svg version="1.1" id="Layer_1" xmlns="http://www.w3.org/2000/svg" xmlns:xlink="http://www.w3.org/1999/xlink" x="0px" y="0px"
	 viewBox="0 0 1000 120" style="enable-background:new 0 0 1000 120;" xml:space="preserve">
<style type="text/css">
	.st0{fill:#FFFFFF;}
</style>
<g>
	<g>
		<defs>
			<polygon id="SVGID_1_" points="476.22,2.98 476.22,25.79 507.99,25.79 507.99,117.02 534.05,117.02 534.05,25.79 565.82,25.79 
				565.82,2.98 			"/>
		</defs>
		<use xlink:href="#SVGID_1_"  style="overflow:visible;fill:#FFFFFF;"/>
		<clipPath id="SVGID_00000080201872317720986220000002457043422585151664_">
			<use xlink:href="#SVGID_1_"  style="overflow:visible;"/>
		</clipPath>
	</g>
	<g>
		<defs>
			<polygon id="SVGID_00000046305093434295608890000012481577089414381745_" points="386.63,2.98 386.63,117.02 468.08,117.02 
				468.08,94.21 412.69,94.21 412.69,71.4 459.93,71.4 459.93,48.6 412.69,48.6 412.69,25.79 468.08,25.79 468.08,2.98 			"/>
		</defs>
		<use xlink:href="#SVGID_00000046305093434295608890000012481577089414381745_"  style="overflow:visible;fill:#FFFFFF;"/>
		<clipPath id="SVGID_00000180356614271708341160000007374025121483953568_">
			<use xlink:href="#SVGID_00000046305093434295608890000012481577089414381745_"  style="overflow:visible;"/>
		</clipPath>
	</g>
	<g>
		<defs>
			<polygon id="SVGID_00000008856762497052746530000007212447929299428508_" points="354.2,2.98 319.18,53.24 319.18,2.98 
				293.12,2.98 293.12,117.02 319.18,117.02 319.18,66.76 354.2,117.02 384.91,117.02 345.08,60 384.91,2.98 			"/>
		</defs>
		<use xlink:href="#SVGID_00000008856762497052746530000007212447929299428508_"  style="overflow:visible;fill:#FFFFFF;"/>
		<clipPath id="SVGID_00000084523305570909364830000014364430902077284225_">
			<use xlink:href="#SVGID_00000008856762497052746530000007212447929299428508_"  style="overflow:visible;"/>
		</clipPath>
	</g>
	<g>
		<defs>
			<path id="SVGID_00000130632214788269932920000018176007973290333830_" d="M227.95,2.98c-21.72,0-32.58,10.86-32.58,32.58v48.87
				c0,21.72,10.86,32.58,32.58,32.58h24.44c21.72,0,32.58-10.86,32.58-32.58v-8.14l-26.06-1.63v9.77c0,6.52-2.17,9.78-6.52,9.78
				h-24.44c-4.35,0-6.52-3.26-6.52-9.78V35.56c0-6.52,2.17-9.77,6.52-9.77h24.44c4.35,0,6.52,3.26,6.52,9.77v9.77l26.06-1.63v-8.15
				c0-21.72-10.86-32.58-32.58-32.58H227.95z"/>
		</defs>
		<use xlink:href="#SVGID_00000130632214788269932920000018176007973290333830_"  style="overflow:visible;fill:#FFFFFF;"/>
		<clipPath id="SVGID_00000124865984101851818030000015959635393128344998_">
			<use xlink:href="#SVGID_00000130632214788269932920000018176007973290333830_"  style="overflow:visible;"/>
		</clipPath>
	</g>
	<g>
		<defs>
			<path id="SVGID_00000053505172018349498460000008846979893908989586_" d="M123.69,84.44V35.56c0-6.52,2.17-9.77,6.51-9.77h24.44
				c4.34,0,6.52,3.26,6.52,9.77v48.87c0,6.52-2.17,9.78-6.52,9.78h-24.44C125.86,94.21,123.69,90.95,123.69,84.44 M130.21,2.98
				c-21.72,0-32.58,10.86-32.58,32.58v48.87c0,21.72,10.86,32.58,32.58,32.58h24.44c21.72,0,32.58-10.86,32.58-32.58V35.56
				c0-21.72-10.86-32.58-32.58-32.58H130.21z"/>
		</defs>
		<use xlink:href="#SVGID_00000053505172018349498460000008846979893908989586_"  style="overflow:visible;fill:#FFFFFF;"/>
		<clipPath id="SVGID_00000086685985153902646660000018415678506253997957_">
			<use xlink:href="#SVGID_00000053505172018349498460000008846979893908989586_"  style="overflow:visible;"/>
		</clipPath>
	</g>
	<g>
		<defs>
			<path id="SVGID_00000150812019382189878500000014402768275776324501_" d="M28.07,25.79h30.95c4.34,0,6.52,3.26,6.52,9.77v8.15
				c0,6.52-2.17,9.78-6.52,9.78H28.07V25.79z M2,2.98v114.04h26.07V76.29h14.01l23.54,40.73H93.8L69.69,75.23
				C84.3,72.03,91.6,61.52,91.6,43.71v-8.15c0-21.72-10.86-32.58-32.58-32.58H2z"/>
		</defs>
		<use xlink:href="#SVGID_00000150812019382189878500000014402768275776324501_"  style="overflow:visible;fill:#FFFFFF;"/>
		<clipPath id="SVGID_00000176010261706740140640000005535336703413291706_">
			<use xlink:href="#SVGID_00000150812019382189878500000014402768275776324501_"  style="overflow:visible;"/>
		</clipPath>
	</g>
	<path class="st0" d="M965.42,25.79c4.34,0,6.52,3.26,6.52,9.77v8.15c0,6.52-2.17,9.78-6.52,9.78h-30.95V25.79H965.42z
		 M908.4,117.02h26.06V76.29h30.95c21.72,0,32.58-10.86,32.58-32.58v-8.15c0-21.72-10.86-32.58-32.58-32.58H908.4V117.02z
		 M851.38,91.44l22.81-39.51v65.08h26.06V2.98h-25.98l-22.89,39.67L828.49,2.98h-25.98v114.04h26.06V51.94L851.38,91.44z
		 M737.35,117.02h24.44c21.72,0,32.58-10.86,32.58-32.58V2.98H768.3v81.45c0,6.52-2.17,9.78-6.52,9.78h-24.44
		c-4.34,0-6.52-3.26-6.52-9.78V2.98h-26.07v81.45C704.77,106.16,715.63,117.02,737.35,117.02 M664.04,94.21H639.6
		c-4.35,0-6.52-3.26-6.52-9.78v-9.77l-26.06,1.63v8.14c0,21.72,10.86,32.58,32.58,32.58h24.44c21.72,0,32.58-10.86,32.58-32.58V2.98
		h-26.07v81.45C670.56,90.95,668.38,94.21,664.04,94.21"/>
</g>
</svg>
