<?xml version="1.0" encoding="utf-8"?>
<!-- Generator: Adobe Illustrator 27.8.1, SVG Export Plug-In . SVG Version: 6.00 Build 0)  -->
<svg version="1.1" id="Layer_1" xmlns="http://www.w3.org/2000/svg" xmlns:xlink="http://www.w3.org/1999/xlink" x="0px" y="0px"
	 viewBox="0 0 100 100" style="enable-background:new 0 0 100 100;" xml:space="preserve">
<style type="text/css">
	.st0{enable-background:new    ;}
	.st1{fill:#FFFFFF;}
</style>
<g>
	<g class="st0">
		<g>
			<path class="st1" d="M77.27,22.24H48.28v9.1c0,1.54-1.26,2.8-2.8,2.8h-9.52v15.05h18.62c2.52,0,4.62,2.03,4.62,4.62v14.7h18.06
				c2.66,0,4.83-2.17,4.83-4.83V27.07C82.1,24.41,79.93,22.24,77.27,22.24"/>
		</g>
	</g>
	<g>
		<defs>
			<path id="SVGID_1_" d="M22.03,51.02c-2.24,0-4.13,1.82-4.13,4.13v31.23c0,2.24,1.82,4.13,4.13,4.13h31.22
				c2.24,0,4.13-1.82,4.13-4.13V55.15c0-2.24-1.82-4.13-4.13-4.13H22.03z M26.44,9.5c-1.33,0-2.38,1.05-2.38,2.38v17.85
				c0,1.33,1.05,2.38,2.38,2.38h17.85c1.33,0,2.38-1.05,2.38-2.38V11.88c0-1.33-1.05-2.38-2.38-2.38H26.44z"/>
		</defs>
		
			<linearGradient id="SVGID_00000065059197718650553670000005434732512270534053_" gradientUnits="userSpaceOnUse" x1="13.4077" y1="16.6489" x2="55.6236" y2="89.769">
			<stop  offset="0" style="stop-color:#78FFFF"/>
			<stop  offset="1" style="stop-color:#0000A7"/>
		</linearGradient>
		<use xlink:href="#SVGID_1_"  style="overflow:visible;fill:url(#SVGID_00000065059197718650553670000005434732512270534053_);"/>
		<clipPath id="SVGID_00000007422885137502909010000012275871256789613697_">
			<use xlink:href="#SVGID_1_"  style="overflow:visible;"/>
		</clipPath>
	</g>
</g>
</svg>
