<?xml version="1.0" encoding="utf-8"?>
<!-- Generator: Adobe Illustrator 27.8.1, SVG Export Plug-In . SVG Version: 6.00 Build 0)  -->
<svg version="1.1" id="Layer_1" xmlns="http://www.w3.org/2000/svg" xmlns:xlink="http://www.w3.org/1999/xlink" x="0px" y="0px"
	 viewBox="0 0 100 100" style="enable-background:new 0 0 100 100;" xml:space="preserve">
<style type="text/css">
	.st0{fill:url(#SVGID_1_);}
	.st1{fill:#FFFFFF;}
</style>
<linearGradient id="SVGID_1_" gradientUnits="userSpaceOnUse" x1="-252.7228" y1="81.1408" x2="-218.9846" y2="81.1408">
	<stop  offset="0" style="stop-color:#78FFFF"/>
	<stop  offset="1" style="stop-color:#0000A7"/>
</linearGradient>
<circle class="st0" cx="-235.85" cy="81.14" r="16.87"/>
<g>
	<g>
		<defs>
			<path id="SVGID_00000115494634547236843790000012822514141679701399_" d="M27.58,57.33c0,3.12,2.48,5.6,5.6,5.6
				c3.12,0,5.61-2.48,5.61-5.6c0-3.12-2.48-5.6-5.61-5.6C30.07,51.72,27.58,54.2,27.58,57.33 M44.4,57.33c0,3.12,2.48,5.6,5.61,5.6
				c3.12,0,5.6-2.48,5.6-5.6c0-3.12-2.48-5.6-5.6-5.6C46.88,51.72,44.4,54.2,44.4,57.33 M61.21,57.33c0,3.12,2.48,5.6,5.61,5.6
				c3.12,0,5.6-2.48,5.6-5.6c0-3.12-2.48-5.6-5.6-5.6C63.69,51.72,61.21,54.2,61.21,57.33 M34.95,35.07h7.29V27.7h-7.29V35.07z
				 M48.96,24.82h11.21V13.45H48.96V24.82z"/>
		</defs>
		
			<linearGradient id="SVGID_00000134243178417318432350000000625971288081525694_" gradientUnits="userSpaceOnUse" x1="35.3167" y1="21.3266" x2="61.5873" y2="66.8286">
			<stop  offset="0" style="stop-color:#78FFFF"/>
			<stop  offset="1" style="stop-color:#0000A7"/>
		</linearGradient>
		
			<use xlink:href="#SVGID_00000115494634547236843790000012822514141679701399_"  style="overflow:visible;fill:url(#SVGID_00000134243178417318432350000000625971288081525694_);"/>
		<clipPath id="SVGID_00000071540883547556819850000000801392976698352047_">
			<use xlink:href="#SVGID_00000115494634547236843790000012822514141679701399_"  style="overflow:visible;"/>
		</clipPath>
	</g>
	<path class="st1" d="M22.42,35.47L22.42,35.47c-2,0-3.28,0.4-4,1.2c-0.72,0.72-1.12,1.84-1.12,3.36v9.77
		c-0.08,4.08-2.4,6.49-6.89,7.29v0.4c2.24,0.4,4,1.12,5.12,2.32c1.2,1.2,1.76,2.64,1.76,4.56v10.17c0,1.52,0.4,2.72,1.12,3.44
		c0.72,0.72,2.08,1.12,4,1.2h8.65v7.37h-8.65c-3.28,0-5.84-0.32-7.69-0.88c-1.84-0.56-3.2-1.52-4-2.72c-0.8-1.2-1.2-3.04-1.2-5.52
		V67.09c0-2.08-0.64-3.6-1.92-4.48C6.32,61.73,4.48,61.25,2,61.25V53.4c2.64,0,4.48-0.48,5.68-1.36c1.2-0.88,1.84-2.32,1.84-4.16
		V37.15c0-2.4,0.4-4.24,1.2-5.44c0.8-1.28,2.08-2.16,4-2.72c1.92-0.56,4.4-0.88,7.69-0.88h8.65v7.37H22.42z M92.32,52.04
		c-1.2-0.88-1.84-2.32-1.84-4.16V37.15c0-2.4-0.4-4.24-1.2-5.44c-0.8-1.28-2.16-2.16-4-2.72c-1.84-0.56-4.4-0.88-7.69-0.88h-8.65
		v7.37h8.65c1.92,0,3.28,0.4,4,1.2c0.72,0.72,1.12,1.84,1.12,3.36v9.77c0.16,4.08,2.4,6.49,6.89,7.29v0.4
		c-2.24,0.4-3.92,1.12-5.12,2.32c-1.12,1.2-1.76,2.64-1.76,4.56v10.17c0,1.52-0.4,2.72-1.12,3.44c-0.72,0.72-2.08,1.12-4,1.2h-8.65
		v7.37h8.65c3.28,0,5.84-0.32,7.69-0.88c1.84-0.56,3.2-1.52,4-2.72c0.8-1.2,1.2-3.04,1.2-5.52V67.09c0-2.08,0.64-3.6,1.92-4.48
		c1.28-0.88,3.12-1.36,5.61-1.36V53.4c-2.64,0-4.48-0.48-5.76-1.36H92.32z"/>
</g>
</svg>
