<?xml version="1.0" encoding="utf-8"?>
<!-- Generator: Adobe Illustrator 27.8.1, SVG Export Plug-In . SVG Version: 6.00 Build 0)  -->
<svg version="1.1" id="Layer_1" xmlns="http://www.w3.org/2000/svg" xmlns:xlink="http://www.w3.org/1999/xlink" x="0px" y="0px"
	 viewBox="0 0 100 100" style="enable-background:new 0 0 100 100;" xml:space="preserve">
<style type="text/css">
	.st0{fill:url(#SVGID_1_);}
	.st1{fill:#FFFFFF;}
</style>
<linearGradient id="SVGID_1_" gradientUnits="userSpaceOnUse" x1="-252.7228" y1="81.1408" x2="-218.9846" y2="81.1408">
	<stop  offset="0" style="stop-color:#78FFFF"/>
	<stop  offset="1" style="stop-color:#0000A7"/>
</linearGradient>
<circle class="st0" cx="-235.85" cy="81.14" r="16.87"/>
<g>
	<path class="st1" d="M83.43,36.34l-5.75-6.09c-0.41-0.47-1.15-0.47-1.62,0l-5.01,4.74c-0.47,0.41-1.01,0.68-1.62,0.61h-1.89
		c-0.61,0-1.22-0.34-1.69-0.81l-6.49-6.76c-0.54-0.54-1.42-0.61-1.96,0l-7.51,7.17c-0.54,0.54-0.61,1.42,0,2.03l7.17,7.51
		c0.54,0.54,1.42,0.61,1.96,0l6.76-6.43c0.41-0.41,1.01-0.61,1.56-0.61h1.89c0.61,0,1.15,0.34,1.56,0.74l5.01,5.28
		c0.41,0.47,1.15,0.47,1.62,0l6.09-5.75c0.47-0.41,0.47-1.15,0-1.62H83.43z"/>
	<path class="st1" d="M82.42,77.67l-5.75-6.09c-0.41-0.47-1.15-0.47-1.62,0l-5.01,4.73c-0.47,0.41-1.01,0.68-1.62,0.61h-1.89
		c-0.61,0-1.22-0.34-1.69-0.81l-6.49-6.76c-0.54-0.54-1.42-0.61-1.96,0l-7.51,7.17c-0.54,0.54-0.61,1.42,0,1.96l7.17,7.51
		c0.54,0.54,1.42,0.61,1.96,0l6.76-6.43c0.41-0.41,1.01-0.61,1.56-0.61h1.89c0.61,0,1.15,0.34,1.56,0.74l5.01,5.28
		c0.41,0.47,1.15,0.47,1.62,0l6.09-5.75c0.47-0.41,0.47-1.15,0-1.62h-0.07V77.67z"/>
	<path class="st1" d="M29.92,21.97l8.38-7.98c0.59-0.57,1.54-0.54,2.1,0.05l7.98,8.38c0.57,0.6,0.54,1.54-0.05,2.1l-8.38,7.98
		c-0.6,0.57-1.54,0.54-2.1-0.05l-7.98-8.38C29.3,23.48,29.32,22.53,29.92,21.97"/>
	<path class="st1" d="M20.98,31.76l3.67-3.5c0.27-0.26,0.7-0.25,0.96,0.02l3.5,3.67c0.26,0.27,0.25,0.7-0.02,0.96l-3.67,3.5
		c-0.27,0.26-0.7,0.25-0.96-0.02l-3.5-3.67C20.7,32.45,20.71,32.02,20.98,31.76"/>
	<path class="st1" d="M9.63,71.83l2.25-2.15c0.16-0.15,0.42-0.15,0.57,0.01l2.15,2.25c0.15,0.16,0.15,0.42-0.01,0.57l-2.25,2.15
		c-0.16,0.15-0.42,0.15-0.57-0.01L9.61,72.4C9.46,72.24,9.46,71.98,9.63,71.83"/>
	<path class="st1" d="M88.23,46.28l2.16,2.23c0.14,0.13,0.14,0.41,0,0.54l-2.23,2.16c-0.13,0.14-0.4,0.14-0.54,0l-2.16-2.23
		c-0.13-0.14-0.13-0.41,0-0.54l2.23-2.17C87.83,46.15,88.1,46.15,88.23,46.28"/>
	<path class="st1" d="M19.3,75.08l5.04-4.8c0.38-0.36,0.98-0.35,1.34,0.03l4.8,5.04c0.36,0.38,0.35,0.98-0.03,1.34l-5.04,4.81
		c-0.38,0.36-0.98,0.35-1.34-0.03l-4.81-5.04C18.91,76.04,18.92,75.44,19.3,75.08"/>
</g>
<g>
	<defs>
		<path id="SVGID_00000183218938430948565760000008654622460974292370_" d="M79.64,56.97l0.06,0.07v-0.07H79.64z M35,42.9
			L22.15,55.14c-0.95,0.95-1.01,2.43-0.07,3.45l12.24,12.85c0.95,0.95,2.43,1.01,3.38,0l11.56-11.02c0.74-0.68,1.69-1.08,2.71-1.08
			h3.18c1.01,0.14,1.96,0.54,2.64,1.29l8.59,9c0.74,0.81,1.96,0.81,2.77,0l10.35-9.88c0.81-0.74,0.81-1.96,0-2.77h0.14l-9.81-10.28
			c-0.74-0.81-1.96-0.81-2.77,0l-8.52,8.12c-0.74,0.74-1.76,1.08-2.84,1.08h-3.32c-1.08-0.14-2.16-0.54-2.91-1.35L38.38,42.9
			c-0.48-0.48-1.1-0.74-1.72-0.74C36.06,42.16,35.46,42.4,35,42.9"/>
	</defs>
	
		<linearGradient id="SVGID_00000134964045352608640710000014771735863563625130_" gradientUnits="userSpaceOnUse" x1="40.3928" y1="39.6617" x2="60.5919" y2="74.6477">
		<stop  offset="0" style="stop-color:#78FFFF"/>
		<stop  offset="1" style="stop-color:#0000A7"/>
	</linearGradient>
	
		<use xlink:href="#SVGID_00000183218938430948565760000008654622460974292370_"  style="overflow:visible;fill:url(#SVGID_00000134964045352608640710000014771735863563625130_);"/>
	<clipPath id="SVGID_00000048466273839109116380000006159059202109704593_">
		<use xlink:href="#SVGID_00000183218938430948565760000008654622460974292370_"  style="overflow:visible;"/>
	</clipPath>
</g>
</svg>
