<?xml version="1.0" encoding="utf-8"?>
<!-- Generator: Adobe Illustrator 27.8.1, SVG Export Plug-In . SVG Version: 6.00 Build 0)  -->
<svg version="1.1" id="Layer_1" xmlns="http://www.w3.org/2000/svg" xmlns:xlink="http://www.w3.org/1999/xlink" x="0px" y="0px"
	 viewBox="0 0 1000 120" style="enable-background:new 0 0 1000 120;" xml:space="preserve">
<style type="text/css">
	.st0{fill:url(#SVGID_00000088854469113127294260000008861078031070937278_);}
</style>
<linearGradient id="SVGID_00000040547533260512884180000010330618399005594253_" gradientUnits="userSpaceOnUse" x1="346.334" y1="-195.8213" x2="628.8298" y2="293.4757">
	<stop  offset="0" style="stop-color:#00ABFF"/>
	<stop  offset="1" style="stop-color:#003D68"/>
</linearGradient>
<path style="fill:url(#SVGID_00000040547533260512884180000010330618399005594253_);" d="M476.2,3v22.8H508V117H534V25.8h31.8V3
	H476.2z M386.6,3v114h81.4V94.2h-55.4V71.4h47.2V48.6h-47.2V25.8h55.4V3H386.6z M354.2,3l-35,50.3V3h-26.1v114h26.1V66.8l35,50.3
	h30.7l-39.8-57l39.8-57H354.2z M227.9,3c-21.7,0-32.6,10.9-32.6,32.6v48.9c0,21.7,10.9,32.6,32.6,32.6h24.4
	c21.7,0,32.6-10.9,32.6-32.6v-8.1l-26.1-1.6v9.8c0,6.5-2.2,9.8-6.5,9.8h-24.4c-4.4,0-6.5-3.3-6.5-9.8V35.6c0-6.5,2.2-9.8,6.5-9.8
	h24.4c4.3,0,6.5,3.3,6.5,9.8v9.8l26.1-1.6v-8.1C285,13.8,274.1,3,252.4,3L227.9,3L227.9,3z M123.7,84.4V35.6c0-6.5,2.2-9.8,6.5-9.8
	h24.4c4.3,0,6.5,3.3,6.5,9.8v48.9c0,6.5-2.2,9.8-6.5,9.8h-24.4C125.9,94.2,123.7,90.9,123.7,84.4 M130.2,3
	c-21.7,0-32.6,10.9-32.6,32.6v48.9c0,21.7,10.9,32.6,32.6,32.6h24.4c21.7,0,32.6-10.9,32.6-32.6V35.6c0-21.7-10.9-32.6-32.6-32.6
	C154.7,3,130.2,3,130.2,3z M28.1,25.8h31c4.3,0,6.5,3.3,6.5,9.8v8.1c0,6.5-2.2,9.8-6.5,9.8h-31V25.8z M2,3v114h26.1V76.3h14
	L65.6,117h28.2L69.7,75.2C84.3,72,91.6,61.5,91.6,43.7v-8.2C91.6,13.8,80.7,3,59,3C59,3,2,3,2,3z M965.4,25.8c4.3,0,6.5,3.3,6.5,9.8
	v8.1c0,6.5-2.2,9.8-6.5,9.8h-31V25.8H965.4z M908.4,117h26.1V76.3h31c21.7,0,32.6-10.9,32.6-32.6v-8.2C998,13.8,987.1,3,965.4,3h-57
	V117z M851.4,91.4l22.8-39.5V117h26.1V3h-26l-22.9,39.7L828.5,3h-26v114h26.1V51.9L851.4,91.4z M737.3,117h24.4
	c21.7,0,32.6-10.9,32.6-32.6V3h-26.1v81.4c0,6.5-2.2,9.8-6.5,9.8h-24.4c-4.3,0-6.5-3.3-6.5-9.8V3h-26.1v81.4
	C704.8,106.2,715.6,117,737.3,117 M664,94.2h-24.4c-4.3,0-6.5-3.3-6.5-9.8v-9.8L607,76.3v8.1c0,21.7,10.9,32.6,32.6,32.6H664
	c21.7,0,32.6-10.9,32.6-32.6V3h-26.1v81.4C670.6,90.9,668.4,94.2,664,94.2"/>
</svg>
