<?xml version="1.0" encoding="utf-8"?>
<!-- Generator: Adobe Illustrator 27.8.1, SVG Export Plug-In . SVG Version: 6.00 Build 0)  -->
<svg version="1.1" id="Layer_1" xmlns="http://www.w3.org/2000/svg" xmlns:xlink="http://www.w3.org/1999/xlink" x="0px" y="0px"
	 viewBox="0 0 100 100" style="enable-background:new 0 0 100 100;" xml:space="preserve">
<style type="text/css">
	.st0{fill:#FFFFFF;}
</style>
<path class="st0" d="M71.29,24.25C70.45,15.79,63.39,9.5,54.65,9.5c-8.74,0-13,4.26-15.52,10.35c-8.04-1.75-15.66,4.05-16.36,12.09
	c-5.52,1.75-9.23,6.99-9.23,12.72c0,5.73,6.01,13.42,13.42,13.42h6.29v24.54c0.42,7.48,18.67,10.07,28.66,5.87
	c3.49-1.47,5.52-3.5,5.66-5.87V58.5c5.73-0.28,5.52-0.28,5.73-0.42c7.48-1.75,13.14-8.88,13.14-16.92
	C86.46,33.13,79.75,25.23,71.29,24.25 M64.3,72.63c-0.7,1.89-5.87,4.4-13.84,4.4c-7.97,0-13.14-2.52-13.84-4.4v-3.78
	c6.71,4.12,20.76,4.12,27.47,0v3.78h0.14H64.3z M64.3,64.31c-0.7,1.89-5.87,4.4-13.84,4.4c-7.97,0-13.14-2.52-13.84-4.4v-4.26
	c6.57,4.12,20.76,4.12,27.47,0v4.26h0.14H64.3z M64.3,50.67v4.68c-0.7,1.89-5.87,4.4-13.84,4.4c-7.97,0-13.14-2.52-13.84-4.4v-4.68
	c6.71,4.12,20.9,4.12,27.61,0H64.3z M50.52,50.39c-8.46,0-13.84-2.8-13.84-4.82v-0.14c0.28-1.89,5.52-4.54,13.84-4.54
	c8.32,0,13.84,2.8,13.84,4.82C64.37,47.74,58.98,50.39,50.52,50.39 M50.52,87.1c-8.32,0-13.7-2.8-13.84-4.68v-5.1
	c6.57,4.12,20.76,4.12,27.47,0v5.1c0,1.89-5.38,4.68-13.7,4.68H50.52z M72.75,54.94l-5.1,0.28v-9.65c0-2.45-2.03-4.54-5.66-6.15
	c-6.43-2.66-16.78-2.66-23.21,0c-3.64,1.47-5.59,3.64-5.59,6.15v9.23h-6.15c-5.52,0-10.07-4.54-10.07-10.07
	c0-5.52,3.35-8.88,7.9-9.79c0.77-0.14,1.33-0.91,1.33-1.61c-0.28-6.71,6.43-12.09,13.56-9.65c0.14,0,0.28,0.14,0.42,0.14
	c0,0,2.31,0.28,2.66,3.5c0.14,0.91,1.05,1.47,1.89,1.33c0.91-0.14,1.47-1.05,1.33-1.89c-0.56-3.07-2.17-4.82-3.77-5.66
	c2.17-4.82,6.99-8.04,12.3-8.04s12.44,4.96,13.28,11.39c-2.52,0.28-4.96,1.05-7.13,2.45c-0.84,0.56-1.05,1.47-0.56,2.31
	c0.56,0.84,1.47,1.05,2.31,0.56c2.03-1.19,4.4-1.89,6.85-1.89h0.28c7.2,0,13.42,6.29,13.42,13.84c0,7.55-4.4,11.82-10.35,13.28
	L72.75,54.94z"/>
<g>
	<defs>
		<path id="SVGID_1_" d="M23.03,65.6h-0.91c-0.56,0.14-0.28,0.14-4.05,3.78c-0.7,0.7-0.7,1.75,0,2.38c0.7,0.63,1.75,0.7,2.45,0
			l0.56-0.56v10.98c0,0.91,0.77,1.75,1.75,1.75c0.98,0,1.75-0.84,1.75-1.75V71.19l0.56,0.56c0.7,0.7,1.75,0.7,2.44,0
			c0.7-0.7,0.7-1.75,0-2.38c-3.91-3.63-3.77-3.63-4.4-3.78H23.03z"/>
	</defs>
	
		<linearGradient id="SVGID_00000009592642291073260140000004129096945274948480_" gradientUnits="userSpaceOnUse" x1="19.2764" y1="67.1773" x2="27.5226" y2="81.4602">
		<stop  offset="0" style="stop-color:#78FFFF"/>
		<stop  offset="1" style="stop-color:#0000A7"/>
	</linearGradient>
	<use xlink:href="#SVGID_1_"  style="overflow:visible;fill:url(#SVGID_00000009592642291073260140000004129096945274948480_);"/>
	<clipPath id="SVGID_00000160905057407854299280000015613079648937137833_">
		<use xlink:href="#SVGID_1_"  style="overflow:visible;"/>
	</clipPath>
</g>
<g>
	<defs>
		<path id="SVGID_00000152950163902571932300000002970781264680533693_" d="M76.89,83.91h0.91c0.56-0.14,0.28-0.14,4.05-3.78
			c0.7-0.7,0.7-1.75,0-2.38c-0.7-0.63-1.75-0.7-2.45,0l-0.56,0.56V67.34c0-0.91-0.77-1.75-1.75-1.75c-0.98,0-1.75,0.84-1.75,1.75
			v10.98l-0.56-0.56c-0.7-0.7-1.75-0.7-2.44,0c-0.7,0.7-0.7,1.75,0,2.38c3.91,3.63,3.77,3.63,4.4,3.78H76.89z"/>
	</defs>
	
		<linearGradient id="SVGID_00000088111124780540384950000006778005306935862702_" gradientUnits="userSpaceOnUse" x1="73.5576" y1="67.1773" x2="81.8038" y2="81.4602" gradientTransform="matrix(-1 0 0 -1 154.1969 149.5111)">
		<stop  offset="0" style="stop-color:#78FFFF"/>
		<stop  offset="1" style="stop-color:#0000A7"/>
	</linearGradient>
	
		<use xlink:href="#SVGID_00000152950163902571932300000002970781264680533693_"  style="overflow:visible;fill:url(#SVGID_00000088111124780540384950000006778005306935862702_);"/>
	<clipPath id="SVGID_00000182513420404238311860000016907271479262850188_">
		<use xlink:href="#SVGID_00000152950163902571932300000002970781264680533693_"  style="overflow:visible;"/>
	</clipPath>
</g>
</svg>
