<?xml version="1.0" encoding="utf-8"?>
<!-- Generator: Adobe Illustrator 27.8.1, SVG Export Plug-In . SVG Version: 6.00 Build 0)  -->
<svg version="1.1" id="Layer_1" xmlns="http://www.w3.org/2000/svg" xmlns:xlink="http://www.w3.org/1999/xlink" x="0px" y="0px"
	 viewBox="0 0 100 100" style="enable-background:new 0 0 100 100;" xml:space="preserve">
<style type="text/css">
	.st0{fill:url(#SVGID_1_);}
	.st1{fill:url(#SVGID_00000078042597836992405410000009394714629044563107_);}
	.st2{fill:#FFFFFF;}
</style>
<linearGradient id="SVGID_1_" gradientUnits="userSpaceOnUse" x1="-252.7228" y1="81.1408" x2="-218.9846" y2="81.1408">
	<stop  offset="0" style="stop-color:#78FFFF"/>
	<stop  offset="1" style="stop-color:#0000A7"/>
</linearGradient>
<circle class="st0" cx="-235.85" cy="81.14" r="16.87"/>
<linearGradient id="SVGID_00000034053411868425447460000005278154316754454672_" gradientUnits="userSpaceOnUse" x1="42.2229" y1="20.043" x2="57.7771" y2="46.9838">
	<stop  offset="0" style="stop-color:#78FFFF"/>
	<stop  offset="1" style="stop-color:#0000A7"/>
</linearGradient>
<path style="fill:url(#SVGID_00000034053411868425447460000005278154316754454672_);" d="M44.26,45.91c-0.56,0-1.05,0.49-1.05,1.05
	c0,0.56,0.49,1.05,1.05,1.05h11.48c0.56,0,1.05-0.49,1.05-1.05c0-0.56-0.49-1.05-1.05-1.05H44.26z M44.26,40.51
	c-0.56,0-1.05,0.49-1.05,1.05s0.49,1.05,1.05,1.05h11.48c0.56,0,1.05-0.49,1.05-1.05s-0.49-1.05-1.05-1.05H44.26z M44.26,35.12
	c-0.56,0-1.05,0.49-1.05,1.05s0.49,1.05,1.05,1.05h11.48c0.56,0,1.05-0.49,1.05-1.05s-0.49-1.05-1.05-1.05H44.26z M44.26,29.73
	c-0.56,0-1.05,0.49-1.05,1.05s0.49,1.05,1.05,1.05h11.48c0.56,0,1.05-0.49,1.05-1.05s-0.49-1.05-1.05-1.05H44.26z M44.26,24.41
	c-0.56,0-1.05,0.49-1.05,1.05s0.49,1.05,1.05,1.05h11.48c0.56,0,1.05-0.49,1.05-1.05s-0.49-1.05-1.05-1.05H44.26z M44.26,19.02
	c-0.56,0-1.05,0.49-1.05,1.05c0,0.56,0.49,1.05,1.05,1.05h11.48c0.56,0,1.05-0.49,1.05-1.05c0-0.56-0.49-1.05-1.05-1.05H44.26z"/>
<path class="st2" d="M76.53,15.24H64.77C64,12.09,61.13,9.5,57.7,9.5H42.37c-3.43,0-6.3,2.38-7.07,5.74H23.54
	c-4.06,0-7.35,3.29-7.35,7.35v41.79c0,4.06,3.29,7.35,7.35,7.35h1.19c-2.1,1.96-3.43,4.83-3.43,7.84c0,5.88,4.69,10.5,10.5,10.5
	c20.16,0.42,17.85,0.42,18.06,0.42h13.37c14.14,0,15.82-9.94,11.9-18.76h1.33c4.06,0,7.35-3.29,7.35-7.35V22.59
	c0-4.06-3.29-7.35-7.35-7.35H76.53z M38.8,16.85c0-1.96,1.68-3.57,3.64-3.57h15.47c1.96,0,3.64,1.68,3.64,3.57v39.56
	c-2.38-2.24-5.74-3.64-9.17-3.64c-5.11,0-9.8,3.01-11.9,7.49c-0.28,0-1.05-0.14-1.19-0.14c-0.28-0.42-0.42-1.05-0.42-1.68V16.85
	H38.8z M19.97,64.25V22.59c0-1.96,1.68-3.57,3.57-3.57h11.41v3.78H25.5c-1.05,0-1.96,0.91-1.96,1.96c0,1.05,0.91,1.96,1.96,1.96
	h9.45v1.96H25.5c-1.05,0-1.96,0.91-1.96,1.96c0,1.05,0.91,1.96,1.96,1.96h9.45v1.54H25.5c-1.05,0-1.96,0.91-1.96,1.96
	c0,1.05,0.91,1.96,1.96,1.96h9.45v1.96H25.5c-1.05,0-1.96,0.91-1.96,1.96c0,1.05,0.91,1.96,1.96,1.96h9.45v1.96H25.5
	c-1.05,0-1.96,0.91-1.96,1.96c0,1.05,0.91,1.96,1.96,1.96h9.45v1.96H25.5c-1.05,0-1.96,0.91-1.96,1.96c0,1.05,0.91,1.96,1.96,1.96
	h9.45c0,3.78-0.14,4.69,0.28,6.02c-3.29,1.05-5.88,3.78-6.93,7.07h-4.97c-1.82-0.77-3.43-2.38-3.43-4.34v-0.21H19.97z M63.3,86.65
	h-0.77c5.11-4.48,4.97-9.94,4.97-10.22c0-1.05-0.91-1.82-1.96-1.82s-1.82,0.91-1.82,1.96c0,0,0.14,6.58-8.12,10.08h-5.74
	l-17.85-0.42h-0.14c-3.78,0-6.79-3.01-6.79-6.79c0-3.78,2.24-6.02,5.25-6.58c1.82-0.14,3.64,0.28,5.11,1.54
	c0.77,0.77,1.96,0.63,2.73-0.14c0.63-0.77,0.63-1.96-0.14-2.73c-1.68-1.33-3.64-2.24-5.74-2.38c0.77-2.59,2.87-4.69,5.53-4.97
	c1.96-0.28,3.15,0.28,3.64,0.42h0.42c0.77,0,1.54-0.63,1.82-1.33c1.19-4.06,5.11-6.93,9.8-6.58c4.06,0.28,7.49,3.15,8.26,7.21
	c-6.16,0.91-10.85,6.16-10.85,12.6c0,6.44,0.91,1.96,1.96,1.96c1.05,0,1.96-0.91,1.96-1.96c0-5.39,4.83-9.8,10.5-8.89
	c4.34,0.63,7.98,4.69,7.98,9.45c-0.77,5.25-4.97,9.59-10.08,9.59H63.3z M80.1,64.25c0,1.96-1.68,3.64-3.64,3.64h-3.78
	c-1.96-2.1-4.69-3.64-7.63-4.06c-0.14-0.77-0.28-1.68-0.63-2.38c0.77-1.96,0.42-2.24,0.63-6.79h9.45c1.05,0,1.96-0.91,1.96-1.96
	c0-1.05-0.91-1.96-1.96-1.96h-9.45v-1.68h9.45c1.05,0,1.96-0.91,1.96-1.96c0-1.05-0.91-1.96-1.96-1.96h-9.45v-1.96h9.45
	c1.05,0,1.96-0.91,1.96-1.96s-0.91-1.96-1.96-1.96h-9.45v-1.96h9.45c1.05,0,1.96-0.91,1.96-1.96c0-1.05-0.91-1.96-1.96-1.96h-9.45
	v-1.96h9.45c1.05,0,1.96-0.91,1.96-1.96c0-1.05-0.91-1.96-1.96-1.96h-9.45v-1.05h9.45c1.05,0,1.96-0.91,1.96-1.96
	c0-1.05-0.91-1.96-1.96-1.96h-9.45v-3.57h11.41c1.96,0,3.64,1.68,3.64,3.57v41.65V64.25z"/>
</svg>
