<?xml version="1.0" encoding="UTF-8"?>
<svg id="Layer_1" data-name="Layer 1" xmlns="http://www.w3.org/2000/svg" version="1.1" viewBox="0 0 128 128">
  <defs>
    <style>
      .cls-1 {
        opacity: .33;
      }

      .cls-2 {
        fill: #000;
        stroke-width: 0px;
      }
    </style>
  </defs>
  <g class="cls-1">
    <g>
      <g>
        <path class="cls-2" d="M18.24,32.07c0-1.18.67-2.21,1.65-2.72.82-.43,1.41-1.2,1.41-2.12v-5.96c0-1.58-1.45-2.79-2.99-2.45-6.05,1.37-10.59,6.79-10.59,13.25v26.53c0,1.03-.57,1.72-1.26,2.18-1.51,1.01-2.47,2.66-2.47,4.47v3.32c0,1.75.99,3.29,2.47,4.24.69.44,1.25,1.18,1.25,2.43v26.53c0,6.46,4.53,11.88,10.59,13.25,1.54.35,2.99-.87,2.99-2.45v-5.96c0-.93-.58-1.7-1.41-2.12-.98-.51-1.65-1.54-1.65-2.72v-26.53c0-3.14-1.08-6.02-2.87-8.32,1.79-2.3,2.87-5.18,2.87-8.32v-26.53Z"/>
        <path class="cls-2" d="M19.9,104.48c-.98-.51-1.65-1.54-1.65-2.72v-26.53c0-3.06-1.03-5.88-2.75-8.15H4v1.49c0,1.75.99,3.29,2.47,4.24.69.44,1.25,1.18,1.25,2.43v26.53c0,6.46,4.53,11.88,10.59,13.25,1.54.35,2.99-.87,2.99-2.45v-5.96c0-.93-.58-1.7-1.41-2.12Z"/>
      </g>
      <g>
        <path class="cls-2" d="M109.76,32.07c0-1.18-.67-2.21-1.65-2.72-.82-.43-1.41-1.2-1.41-2.12v-5.96c0-1.58,1.45-2.79,2.99-2.45,6.05,1.37,10.59,6.79,10.59,13.25v26.53c0,1.03.57,1.72,1.26,2.18,1.51,1.01,2.47,2.66,2.47,4.47v3.32c0,1.75-.99,3.29-2.47,4.24-.69.44-1.25,1.18-1.25,2.43v26.53c0,6.46-4.53,11.88-10.59,13.25-1.54.35-2.99-.87-2.99-2.45v-5.96c0-.93.58-1.7,1.41-2.12.98-.51,1.65-1.54,1.65-2.72v-26.53c0-3.14,1.08-6.02,2.87-8.32-1.79-2.3-2.87-5.18-2.87-8.32v-26.53Z"/>
        <path class="cls-2" d="M108.1,104.48c.98-.51,1.65-1.54,1.65-2.72v-26.53c0-3.06,1.03-5.88,2.75-8.15h11.49v1.49c0,1.75-.99,3.29-2.47,4.24-.69.44-1.25,1.18-1.25,2.43v26.53c0,6.46-4.53,11.88-10.59,13.25-1.54.35-2.99-.87-2.99-2.45v-5.96c0-.93.58-1.7,1.41-2.12Z"/>
      </g>
    </g>
  </g>
  <path class="cls-2" d="M63.08,55.79v23.31c0,1.58-1.28,2.85-2.85,2.85h-23.31c-1.58,0-2.85-1.28-2.85-2.85v-23.31c0-1.58,1.28-2.85,2.85-2.85h23.31c1.58,0,2.85,1.28,2.85,2.85ZM79.16,86.89h-9.57c-.65,0-1.17.52-1.17,1.17v9.57c0,.65.52,1.17,1.17,1.17h9.56c.65,0,1.17-.52,1.17-1.17v-9.57c0-.65-.52-1.17-1.17-1.17ZM90.54,12.93h-27.78c-1.88,0-3.4,1.52-3.4,3.4v27.78c0,1.88,1.52,3.4,3.4,3.4h27.78c1.88,0,3.4-1.52,3.4-3.4v-27.78c0-1.88-1.52-3.4-3.4-3.4Z"/>
</svg>