<?xml version="1.0" encoding="UTF-8"?>
<svg id="Layer_1" data-name="Layer 1" xmlns="http://www.w3.org/2000/svg" version="1.1" viewBox="0 0 128 128">
  <defs>
    <style>
      .cls-1, .cls-2 {
        fill: #000;
        stroke-width: 0px;
      }

      .cls-2 {
        opacity: .33;
      }
    </style>
  </defs>
  <g id="B230_Cloud_Hosting_Cloud_Network_Hosting_Network" data-name="B230 ,Cloud Hosting ,Cloud Network ,Hosting Network">
    <g>
      <path class="cls-2" d="M94.49,27.2c-1.15-12.08-11.31-21.09-23.78-21.09-10.16,0-18.6,6.14-22.24,14.77-11.51-2.49-22.44,5.75-23.39,17.26-7.86,2.49-13.23,9.97-13.23,18.22,0,10.55,8.63,19.17,19.18,19.17h9.01v35.09c.57,10.74,26.65,14.38,41.03,8.44,4.99-2.11,7.86-4.99,8.05-8.44v-34.52c8.24-.38,7.86-.38,8.24-.57,10.74-2.49,18.79-12.66,18.79-24.16,0-12.27-9.59-22.82-21.67-24.16ZM84.52,96.42c-.96,2.68-8.44,6.33-19.75,6.33s-18.79-3.64-19.75-6.33v-5.37c9.59,5.95,29.72,5.95,39.31,0v5.37h.19ZM84.52,84.53c-.96,2.69-8.44,6.33-19.75,6.33s-18.79-3.64-19.75-6.33v-6.14c9.4,5.95,29.72,5.95,39.31,0v6.14h.19ZM84.52,64.97v6.71c-.96,2.68-8.44,6.33-19.75,6.33s-18.79-3.64-19.75-6.33v-6.71c9.59,5.95,29.91,5.95,39.5,0ZM64.77,64.59c-12.08,0-19.75-4.03-19.75-6.9v-.19c.38-2.68,7.86-6.52,19.75-6.52s19.75,4.03,19.75,6.9c0,2.68-7.67,6.71-19.75,6.71ZM64.77,117.13c-11.89,0-19.56-4.03-19.75-6.71h0v-7.29c9.4,5.94,29.72,5.94,39.31,0v7.29h0c0,2.68-7.67,6.71-19.56,6.71ZM96.6,71.11l-7.29.38v-13.81c0-3.45-2.88-6.52-8.05-8.82-9.2-3.84-23.97-3.84-33.17,0-5.18,2.11-8.05,5.18-8.05,8.82v13.23h-8.82c-7.86,0-14.38-6.52-14.38-14.38,0-6.71,4.79-12.66,11.31-14,1.15-.19,1.92-1.34,1.92-2.3-.38-9.59,9.2-17.26,19.37-13.81.19,0,.38.19.58.19,0,0,3.26.38,3.84,4.99.19,1.34,1.53,2.11,2.68,1.92,1.34-.19,2.11-1.53,1.92-2.69-.77-4.41-3.07-6.9-5.37-8.05,3.07-6.9,9.97-11.5,17.64-11.5,9.97,0,17.83,7.09,18.98,16.3-3.64.38-7.09,1.53-10.16,3.45-1.15.77-1.53,2.11-.77,3.26.77,1.15,2.11,1.53,3.26.77,2.88-1.73,6.33-2.69,9.78-2.69h.38c10.35,0,19.18,9.01,19.18,19.75,0,8.44-6.33,16.88-14.77,18.98Z"/>
      <path class="cls-1" d="M104.84,103.52l-.77.58v-15.72c0-1.34-1.15-2.49-2.49-2.49s-2.49,1.15-2.49,2.49v15.72l-.77-.77c-.96-.96-2.49-.96-3.45,0-.96.96-.96,2.49,0,3.45,5.18,5.18,4.79,4.99,5.18,5.18.77.57,1.92.57,2.68,0,.38-.19,0,0,5.18-5.18.96-.96.96-2.49,0-3.45-.77-.77-2.11-.77-3.07.19Z"/>
      <path class="cls-1" d="M27.95,86.07h-1.34c-.77.19-.38.19-5.75,5.37-.96.96-.96,2.49,0,3.45.96.96,2.49.96,3.45,0l.77-.77v15.72c0,1.34,1.15,2.49,2.49,2.49s2.49-1.15,2.49-2.49v-15.72l.77.77c.96.96,2.49.96,3.45,0,.96-.96.96-2.49,0-3.45-5.56-5.18-5.37-5.18-6.33-5.37Z"/>
    </g>
  </g>
</svg>