<?xml version="1.0" encoding="UTF-8"?>
<svg xmlns="http://www.w3.org/2000/svg" version="1.1" xmlns:xlink="http://www.w3.org/1999/xlink" viewBox="0 0 2000 2000">
  <defs>
    <style>
      .cls-1 {
        fill: url(#radial-gradient-79);
      }

      .cls-1, .cls-2, .cls-3, .cls-4, .cls-5, .cls-6, .cls-7, .cls-8, .cls-9, .cls-10, .cls-11, .cls-12, .cls-13, .cls-14, .cls-15, .cls-16, .cls-17, .cls-18, .cls-19, .cls-20, .cls-21, .cls-22, .cls-23, .cls-24, .cls-25, .cls-26, .cls-27, .cls-28, .cls-29, .cls-30, .cls-31, .cls-32, .cls-33, .cls-34, .cls-35, .cls-36, .cls-37, .cls-38, .cls-39, .cls-40, .cls-41, .cls-42, .cls-43, .cls-44, .cls-45, .cls-46, .cls-47, .cls-48, .cls-49, .cls-50, .cls-51, .cls-52, .cls-53, .cls-54, .cls-55, .cls-56, .cls-57, .cls-58, .cls-59, .cls-60, .cls-61, .cls-62, .cls-63, .cls-64, .cls-65, .cls-66, .cls-67, .cls-68, .cls-69, .cls-70, .cls-71, .cls-72, .cls-73, .cls-74, .cls-75, .cls-76, .cls-77, .cls-78, .cls-79, .cls-80, .cls-81, .cls-82, .cls-83, .cls-84, .cls-85, .cls-86, .cls-87, .cls-88, .cls-89, .cls-90, .cls-91, .cls-92, .cls-93, .cls-94, .cls-95, .cls-96, .cls-97, .cls-98, .cls-99, .cls-100, .cls-101, .cls-102, .cls-103, .cls-104, .cls-105, .cls-106, .cls-107, .cls-108, .cls-109, .cls-110, .cls-111, .cls-112, .cls-113, .cls-114, .cls-115, .cls-116, .cls-117, .cls-118, .cls-119, .cls-120 {
        mix-blend-mode: screen;
        stroke-width: 0px;
      }

      .cls-2 {
        fill: url(#radial-gradient-76);
      }

      .cls-3 {
        fill: url(#radial-gradient-20);
      }

      .cls-4 {
        fill: url(#radial-gradient-45);
      }

      .cls-5 {
        fill: url(#radial-gradient-92);
      }

      .cls-6 {
        fill: url(#radial-gradient-67);
      }

      .cls-7 {
        fill: url(#radial-gradient-66);
      }

      .cls-8 {
        fill: url(#radial-gradient-72);
      }

      .cls-9 {
        fill: url(#radial-gradient-42);
      }

      .cls-10 {
        fill: url(#radial-gradient-65);
      }

      .cls-11 {
        fill: url(#radial-gradient-11);
      }

      .cls-12 {
        fill: url(#radial-gradient-27);
      }

      .cls-13 {
        fill: url(#radial-gradient-103);
      }

      .cls-14 {
        fill: url(#radial-gradient-91);
      }

      .cls-15 {
        fill: url(#radial-gradient-48);
      }

      .cls-16 {
        fill: url(#radial-gradient-56);
      }

      .cls-17 {
        fill: url(#radial-gradient-109);
      }

      .cls-18 {
        fill: url(#radial-gradient-111);
      }

      .cls-19 {
        fill: url(#radial-gradient-95);
      }

      .cls-20 {
        fill: url(#radial-gradient-28);
      }

      .cls-21 {
        fill: url(#radial-gradient-68);
      }

      .cls-22 {
        fill: url(#radial-gradient-40);
      }

      .cls-23 {
        fill: url(#radial-gradient-110);
      }

      .cls-24 {
        fill: url(#radial-gradient-82);
      }

      .cls-25 {
        fill: url(#radial-gradient-25);
      }

      .cls-26 {
        fill: url(#radial-gradient-114);
      }

      .cls-27 {
        fill: url(#radial-gradient-77);
      }

      .cls-28 {
        fill: url(#radial-gradient-88);
      }

      .cls-29 {
        fill: url(#radial-gradient-49);
      }

      .cls-30 {
        fill: url(#radial-gradient-51);
      }

      .cls-31 {
        fill: url(#radial-gradient-52);
      }

      .cls-32 {
        fill: url(#radial-gradient-99);
      }

      .cls-33 {
        fill: url(#radial-gradient-105);
      }

      .cls-34 {
        fill: url(#radial-gradient-96);
      }

      .cls-35 {
        fill: url(#radial-gradient-7);
      }

      .cls-36 {
        fill: url(#radial-gradient-100);
      }

      .cls-121 {
        isolation: isolate;
      }

      .cls-37 {
        fill: url(#radial-gradient-6);
      }

      .cls-38 {
        fill: url(#radial-gradient-87);
      }

      .cls-39 {
        fill: url(#radial-gradient-3);
      }

      .cls-40 {
        fill: url(#radial-gradient-84);
      }

      .cls-41 {
        fill: url(#radial-gradient-32);
      }

      .cls-42 {
        fill: url(#radial-gradient-18);
      }

      .cls-43 {
        fill: url(#radial-gradient-5);
      }

      .cls-44 {
        fill: url(#radial-gradient-61);
      }

      .cls-45 {
        fill: url(#radial-gradient-53);
      }

      .cls-46 {
        fill: url(#radial-gradient-31);
      }

      .cls-47 {
        fill: url(#radial-gradient-33);
      }

      .cls-48 {
        fill: url(#radial-gradient-64);
      }

      .cls-49 {
        fill: url(#radial-gradient-116);
      }

      .cls-50 {
        fill: url(#radial-gradient-69);
      }

      .cls-51 {
        fill: url(#radial-gradient-4);
      }

      .cls-52 {
        fill: url(#radial-gradient-57);
      }

      .cls-53 {
        fill: url(#radial-gradient);
      }

      .cls-54 {
        fill: url(#radial-gradient-38);
      }

      .cls-55 {
        fill: url(#radial-gradient-104);
      }

      .cls-56 {
        fill: url(#radial-gradient-35);
      }

      .cls-57 {
        fill: url(#radial-gradient-43);
      }

      .cls-58 {
        fill: url(#radial-gradient-62);
      }

      .cls-59 {
        fill: url(#radial-gradient-85);
      }

      .cls-60 {
        fill: url(#radial-gradient-34);
      }

      .cls-61 {
        fill: url(#radial-gradient-119);
      }

      .cls-62 {
        fill: url(#radial-gradient-54);
      }

      .cls-63 {
        fill: url(#radial-gradient-29);
      }

      .cls-64 {
        fill: url(#radial-gradient-22);
      }

      .cls-65 {
        fill: url(#radial-gradient-30);
      }

      .cls-66 {
        fill: url(#radial-gradient-118);
      }

      .cls-67 {
        fill: url(#radial-gradient-81);
      }

      .cls-68 {
        fill: url(#radial-gradient-71);
      }

      .cls-69 {
        fill: url(#radial-gradient-97);
      }

      .cls-70 {
        fill: url(#radial-gradient-90);
      }

      .cls-71 {
        fill: url(#radial-gradient-117);
      }

      .cls-72 {
        fill: url(#radial-gradient-14);
      }

      .cls-73 {
        fill: url(#radial-gradient-23);
      }

      .cls-74 {
        fill: url(#radial-gradient-9);
      }

      .cls-75 {
        fill: url(#radial-gradient-39);
      }

      .cls-76 {
        fill: url(#radial-gradient-58);
      }

      .cls-77 {
        fill: url(#radial-gradient-37);
      }

      .cls-78 {
        fill: url(#radial-gradient-89);
      }

      .cls-79 {
        fill: url(#radial-gradient-19);
      }

      .cls-80 {
        fill: url(#radial-gradient-120);
      }

      .cls-81 {
        fill: url(#radial-gradient-74);
      }

      .cls-82 {
        fill: url(#radial-gradient-107);
      }

      .cls-83 {
        fill: url(#radial-gradient-2);
      }

      .cls-84 {
        fill: url(#radial-gradient-10);
      }

      .cls-85 {
        fill: url(#radial-gradient-44);
      }

      .cls-86 {
        fill: url(#radial-gradient-73);
      }

      .cls-87 {
        fill: url(#radial-gradient-50);
      }

      .cls-88 {
        fill: url(#radial-gradient-83);
      }

      .cls-89 {
        fill: url(#radial-gradient-26);
      }

      .cls-90 {
        fill: url(#radial-gradient-78);
      }

      .cls-91 {
        fill: url(#radial-gradient-59);
      }

      .cls-92 {
        fill: url(#radial-gradient-17);
      }

      .cls-93 {
        fill: url(#radial-gradient-106);
      }

      .cls-94 {
        fill: url(#radial-gradient-113);
      }

      .cls-95 {
        fill: url(#radial-gradient-8);
      }

      .cls-96 {
        fill: url(#radial-gradient-93);
      }

      .cls-97 {
        fill: url(#radial-gradient-24);
      }

      .cls-98 {
        fill: url(#radial-gradient-21);
      }

      .cls-99 {
        fill: url(#radial-gradient-36);
      }

      .cls-100 {
        fill: url(#radial-gradient-60);
      }

      .cls-101 {
        fill: url(#radial-gradient-70);
      }

      .cls-102 {
        fill: url(#radial-gradient-101);
      }

      .cls-103 {
        fill: url(#radial-gradient-75);
      }

      .cls-104 {
        fill: url(#radial-gradient-41);
      }

      .cls-105 {
        fill: url(#radial-gradient-108);
      }

      .cls-106 {
        fill: url(#radial-gradient-112);
      }

      .cls-107 {
        fill: url(#radial-gradient-63);
      }

      .cls-108 {
        fill: url(#radial-gradient-80);
      }

      .cls-109 {
        fill: url(#radial-gradient-86);
      }

      .cls-110 {
        fill: url(#radial-gradient-16);
      }

      .cls-111 {
        fill: url(#radial-gradient-15);
      }

      .cls-112 {
        fill: url(#radial-gradient-115);
      }

      .cls-113 {
        fill: url(#radial-gradient-12);
      }

      .cls-114 {
        fill: url(#radial-gradient-98);
      }

      .cls-115 {
        fill: url(#radial-gradient-47);
      }

      .cls-116 {
        fill: url(#radial-gradient-94);
      }

      .cls-117 {
        fill: url(#radial-gradient-55);
      }

      .cls-118 {
        fill: url(#radial-gradient-102);
      }

      .cls-119 {
        fill: url(#radial-gradient-46);
      }

      .cls-120 {
        fill: url(#radial-gradient-13);
      }
    </style>
    <radialGradient id="radial-gradient" cx="1412.54" cy="805.89" fx="1412.54" fy="805.89" r="19.62" gradientUnits="userSpaceOnUse">
      <stop offset="0" stop-color="#84ffff"/>
      <stop offset=".02" stop-color="rgba(127, 246, 246, .97)" stop-opacity=".97"/>
      <stop offset=".2" stop-color="rgba(83, 160, 160, .63)" stop-opacity=".63"/>
      <stop offset=".36" stop-color="rgba(47, 91, 91, .36)" stop-opacity=".36"/>
      <stop offset=".49" stop-color="rgba(21, 42, 42, .16)" stop-opacity=".16"/>
      <stop offset=".59" stop-color="rgba(5, 11, 11, .04)" stop-opacity=".04"/>
      <stop offset=".65" stop-color="#000" stop-opacity="0"/>
    </radialGradient>
    <radialGradient id="radial-gradient-2" cx="1413.71" cy="861.36" fx="1413.71" fy="861.36" r="19.62" xlink:href="#radial-gradient"/>
    <radialGradient id="radial-gradient-3" cx="1413.72" cy="785.47" fx="1413.72" fy="785.47" r="19.62" xlink:href="#radial-gradient"/>
    <radialGradient id="radial-gradient-4" cx="1407.28" cy="884.52" fx="1407.28" fy="884.52" r="19.62" xlink:href="#radial-gradient"/>
    <radialGradient id="radial-gradient-5" cx="1399.91" cy="836.62" fx="1399.91" fy="836.62" r="19.62" xlink:href="#radial-gradient"/>
    <radialGradient id="radial-gradient-6" cx="1458.93" cy="907.55" fx="1458.93" fy="907.55" r="19.62" xlink:href="#radial-gradient"/>
    <radialGradient id="radial-gradient-7" cx="1431.74" cy="862.29" fx="1431.74" fy="862.29" r="19.62" xlink:href="#radial-gradient"/>
    <radialGradient id="radial-gradient-8" cx="1441.32" cy="838.51" fx="1441.32" fy="838.51" r="19.62" xlink:href="#radial-gradient"/>
    <radialGradient id="radial-gradient-9" cx="1491.01" cy="901.13" fx="1491.01" fy="901.13" r="19.62" xlink:href="#radial-gradient"/>
    <radialGradient id="radial-gradient-10" cx="1397.29" cy="818.89" fx="1397.29" fy="818.89" r="19.62" xlink:href="#radial-gradient"/>
    <radialGradient id="radial-gradient-11" cx="1380.28" cy="775.38" fx="1380.28" fy="775.38" r="19.62" xlink:href="#radial-gradient"/>
    <radialGradient id="radial-gradient-12" cx="1426.87" cy="834.88" fx="1426.87" fy="834.88" r="19.62" xlink:href="#radial-gradient"/>
    <radialGradient id="radial-gradient-13" cx="1388.13" cy="716.72" fx="1388.13" fy="716.72" r="19.62" xlink:href="#radial-gradient"/>
    <radialGradient id="radial-gradient-14" cx="1374.06" cy="666.61" fx="1374.06" fy="666.61" r="19.62" xlink:href="#radial-gradient"/>
    <radialGradient id="radial-gradient-15" cx="1390.97" cy="695.57" fx="1390.97" fy="695.57" r="19.62" xlink:href="#radial-gradient"/>
    <radialGradient id="radial-gradient-16" cx="1414.42" cy="641.12" fx="1414.42" fy="641.12" r="19.62" xlink:href="#radial-gradient"/>
    <radialGradient id="radial-gradient-17" cx="1418.18" cy="662.81" fx="1418.18" fy="662.81" r="19.62" xlink:href="#radial-gradient"/>
    <radialGradient id="radial-gradient-18" cx="1362.32" cy="554.78" fx="1362.32" fy="554.78" r="19.62" xlink:href="#radial-gradient"/>
    <radialGradient id="radial-gradient-19" cx="1299.69" cy="459.02" fx="1299.69" fy="459.02" r="19.62" xlink:href="#radial-gradient"/>
    <radialGradient id="radial-gradient-20" cx="1290.46" cy="440.56" fx="1290.46" fy="440.56" r="19.62" xlink:href="#radial-gradient"/>
    <radialGradient id="radial-gradient-21" cx="1320.06" cy="506.88" fx="1320.06" fy="506.88" r="19.62" xlink:href="#radial-gradient"/>
    <radialGradient id="radial-gradient-22" cx="1319.46" cy="455.32" fx="1319.46" fy="455.32" r="19.62" xlink:href="#radial-gradient"/>
    <radialGradient id="radial-gradient-23" cx="1295.79" cy="397" fx="1295.79" fy="397" r="19.62" xlink:href="#radial-gradient"/>
    <radialGradient id="radial-gradient-24" cx="1348.85" cy="464.59" fx="1348.85" fy="464.59" xlink:href="#radial-gradient"/>
    <radialGradient id="radial-gradient-25" cx="1343.73" cy="478.2" fx="1343.73" fy="478.2" r="19.62" xlink:href="#radial-gradient"/>
    <radialGradient id="radial-gradient-26" cx="1341.88" cy="567.91" fx="1341.88" fy="567.91" r="19.62" xlink:href="#radial-gradient"/>
    <radialGradient id="radial-gradient-27" cx="1356.77" cy="625.67" fx="1356.77" fy="625.67" r="19.62" xlink:href="#radial-gradient"/>
    <radialGradient id="radial-gradient-28" cx="1339.39" cy="651.13" fx="1339.39" fy="651.13" r="19.62" xlink:href="#radial-gradient"/>
    <radialGradient id="radial-gradient-29" cx="1314.53" cy="661.83" fx="1314.53" fy="661.83" r="19.62" xlink:href="#radial-gradient"/>
    <radialGradient id="radial-gradient-30" cx="1306.77" cy="701.34" fx="1306.77" fy="701.34" r="19.62" xlink:href="#radial-gradient"/>
    <radialGradient id="radial-gradient-31" cx="1299.53" cy="596.29" fx="1299.53" fy="596.29" r="19.62" xlink:href="#radial-gradient"/>
    <radialGradient id="radial-gradient-32" cx="1288.73" cy="616.43" fx="1288.73" fy="616.43" r="19.62" xlink:href="#radial-gradient"/>
    <radialGradient id="radial-gradient-33" cx="1285.26" cy="488.87" fx="1285.26" fy="488.87" r="19.62" xlink:href="#radial-gradient"/>
    <radialGradient id="radial-gradient-34" cx="1218.79" cy="354.76" fx="1218.79" fy="354.76" r="19.62" xlink:href="#radial-gradient"/>
    <radialGradient id="radial-gradient-35" cx="1198.08" cy="330.94" fx="1198.08" fy="330.94" r="19.62" xlink:href="#radial-gradient"/>
    <radialGradient id="radial-gradient-36" cx="1249.86" cy="372.44" fx="1249.86" fy="372.44" r="19.62" xlink:href="#radial-gradient"/>
    <radialGradient id="radial-gradient-37" cx="1238.8" cy="380.98" fx="1238.8" fy="380.98" r="19.62" xlink:href="#radial-gradient"/>
    <radialGradient id="radial-gradient-38" cx="1233.43" cy="308.47" fx="1233.43" fy="308.47" r="19.62" xlink:href="#radial-gradient"/>
    <radialGradient id="radial-gradient-39" cx="1227.01" cy="283.92" fx="1227.01" fy="283.92" r="19.62" xlink:href="#radial-gradient"/>
    <radialGradient id="radial-gradient-40" cx="1282.43" cy="348.3" fx="1282.43" fy="348.3" r="19.62" xlink:href="#radial-gradient"/>
    <radialGradient id="radial-gradient-41" cx="1241.81" cy="324.49" fx="1241.81" fy="324.49" r="19.62" xlink:href="#radial-gradient"/>
    <radialGradient id="radial-gradient-42" cx="1053.94" cy="239.31" fx="1053.94" fy="239.31" r="19.62" xlink:href="#radial-gradient"/>
    <radialGradient id="radial-gradient-43" cx="996.8" cy="231.45" fx="996.8" fy="231.45" r="19.62" xlink:href="#radial-gradient"/>
    <radialGradient id="radial-gradient-44" cx="975.05" cy="224.94" fx="975.05" fy="224.94" r="19.62" xlink:href="#radial-gradient"/>
    <radialGradient id="radial-gradient-45" cx="975.07" cy="239.27" fx="975.07" fy="239.27" r="19.62" xlink:href="#radial-gradient"/>
    <radialGradient id="radial-gradient-46" cx="814.92" cy="251.13" fx="814.92" fy="251.13" r="19.62" xlink:href="#radial-gradient"/>
    <radialGradient id="radial-gradient-47" cx="727.02" cy="306.13" fx="727.02" fy="306.13" r="19.62" xlink:href="#radial-gradient"/>
    <radialGradient id="radial-gradient-48" cx="641.61" cy="384.69" fx="641.61" fy="384.69" r="19.62" xlink:href="#radial-gradient"/>
    <radialGradient id="radial-gradient-49" cx="560.22" cy="466.71" fx="560.22" fy="466.71" r="19.62" xlink:href="#radial-gradient"/>
    <radialGradient id="radial-gradient-50" cx="501.19" cy="559.25" fx="501.19" fy="559.25" r="19.62" xlink:href="#radial-gradient"/>
    <radialGradient id="radial-gradient-51" cx="464.79" cy="676.72" fx="464.79" fy="676.72" r="19.62" xlink:href="#radial-gradient"/>
    <radialGradient id="radial-gradient-52" cx="440.33" cy="623.31" fx="440.33" fy="623.31" r="19.62" xlink:href="#radial-gradient"/>
    <radialGradient id="radial-gradient-53" cx="429.79" cy="507.5" fx="429.79" fy="507.5" r="19.62" xlink:href="#radial-gradient"/>
    <radialGradient id="radial-gradient-54" cx="396.25" cy="721.23" fx="396.25" fy="721.23" r="19.62" xlink:href="#radial-gradient"/>
    <radialGradient id="radial-gradient-55" cx="406.68" cy="623.67" fx="406.68" fy="623.67" r="19.62" xlink:href="#radial-gradient"/>
    <radialGradient id="radial-gradient-56" cx="407.94" cy="795.41" fx="407.94" fy="795.41" r="19.62" xlink:href="#radial-gradient"/>
    <radialGradient id="radial-gradient-57" cx="471.67" cy="709.14" fx="471.67" fy="709.14" r="19.62" xlink:href="#radial-gradient"/>
    <radialGradient id="radial-gradient-58" cx="507.78" cy="855.81" fx="507.78" fy="855.81" r="19.62" xlink:href="#radial-gradient"/>
    <radialGradient id="radial-gradient-59" cx="571.81" cy="817.54" fx="571.81" fy="817.54" r="19.62" xlink:href="#radial-gradient"/>
    <radialGradient id="radial-gradient-60" cx="632.66" cy="869.13" fx="632.66" fy="869.13" r="19.62" xlink:href="#radial-gradient"/>
    <radialGradient id="radial-gradient-61" cx="1412.54" cy="805.89" fx="1412.54" fy="805.89" r="19.62" gradientUnits="userSpaceOnUse">
      <stop offset=".03" stop-color="#18ecff"/>
      <stop offset=".16" stop-color="#000" stop-opacity="0"/>
    </radialGradient>
    <radialGradient id="radial-gradient-62" cx="1413.71" cy="861.36" fx="1413.71" fy="861.36" r="19.62" xlink:href="#radial-gradient-61"/>
    <radialGradient id="radial-gradient-63" cx="1413.72" cy="785.47" fx="1413.72" fy="785.47" r="19.62" xlink:href="#radial-gradient-61"/>
    <radialGradient id="radial-gradient-64" cx="1407.28" cy="884.52" fx="1407.28" fy="884.52" r="19.62" xlink:href="#radial-gradient-61"/>
    <radialGradient id="radial-gradient-65" cx="1399.91" cy="836.62" fx="1399.91" fy="836.62" r="19.62" xlink:href="#radial-gradient-61"/>
    <radialGradient id="radial-gradient-66" cx="1458.93" cy="907.55" fx="1458.93" fy="907.55" r="19.62" xlink:href="#radial-gradient-61"/>
    <radialGradient id="radial-gradient-67" cx="1431.74" cy="862.29" fx="1431.74" fy="862.29" r="19.62" xlink:href="#radial-gradient-61"/>
    <radialGradient id="radial-gradient-68" cx="1441.32" cy="838.51" fx="1441.32" fy="838.51" r="19.62" xlink:href="#radial-gradient-61"/>
    <radialGradient id="radial-gradient-69" cx="1491.01" cy="901.13" fx="1491.01" fy="901.13" r="19.62" xlink:href="#radial-gradient-61"/>
    <radialGradient id="radial-gradient-70" cx="1397.29" cy="818.89" fx="1397.29" fy="818.89" r="19.62" xlink:href="#radial-gradient-61"/>
    <radialGradient id="radial-gradient-71" cx="1380.28" cy="775.38" fx="1380.28" fy="775.38" r="19.62" xlink:href="#radial-gradient-61"/>
    <radialGradient id="radial-gradient-72" cx="1426.87" cy="834.88" fx="1426.87" fy="834.88" r="19.62" xlink:href="#radial-gradient-61"/>
    <radialGradient id="radial-gradient-73" cx="1388.13" cy="716.72" fx="1388.13" fy="716.72" r="19.62" xlink:href="#radial-gradient-61"/>
    <radialGradient id="radial-gradient-74" cx="1374.06" cy="666.61" fx="1374.06" fy="666.61" r="19.62" xlink:href="#radial-gradient-61"/>
    <radialGradient id="radial-gradient-75" cx="1390.97" cy="695.57" fx="1390.97" fy="695.57" r="19.62" xlink:href="#radial-gradient-61"/>
    <radialGradient id="radial-gradient-76" cx="1414.42" cy="641.12" fx="1414.42" fy="641.12" r="19.62" xlink:href="#radial-gradient-61"/>
    <radialGradient id="radial-gradient-77" cx="1418.18" cy="662.81" fx="1418.18" fy="662.81" r="19.62" xlink:href="#radial-gradient-61"/>
    <radialGradient id="radial-gradient-78" cx="1362.32" cy="554.78" fx="1362.32" fy="554.78" r="19.62" xlink:href="#radial-gradient-61"/>
    <radialGradient id="radial-gradient-79" cx="1299.69" cy="459.02" fx="1299.69" fy="459.02" r="19.62" xlink:href="#radial-gradient-61"/>
    <radialGradient id="radial-gradient-80" cx="1290.46" cy="440.56" fx="1290.46" fy="440.56" r="19.62" xlink:href="#radial-gradient-61"/>
    <radialGradient id="radial-gradient-81" cx="1320.06" cy="506.88" fx="1320.06" fy="506.88" r="19.62" xlink:href="#radial-gradient-61"/>
    <radialGradient id="radial-gradient-82" cx="1319.46" cy="455.32" fx="1319.46" fy="455.32" r="19.62" xlink:href="#radial-gradient-61"/>
    <radialGradient id="radial-gradient-83" cx="1295.79" cy="397" fx="1295.79" fy="397" r="19.62" xlink:href="#radial-gradient-61"/>
    <radialGradient id="radial-gradient-84" cx="1348.85" cy="464.59" fx="1348.85" fy="464.59" xlink:href="#radial-gradient-61"/>
    <radialGradient id="radial-gradient-85" cx="1343.73" cy="478.2" fx="1343.73" fy="478.2" r="19.62" xlink:href="#radial-gradient-61"/>
    <radialGradient id="radial-gradient-86" cx="1341.88" cy="567.91" fx="1341.88" fy="567.91" r="19.62" xlink:href="#radial-gradient-61"/>
    <radialGradient id="radial-gradient-87" cx="1356.77" cy="625.67" fx="1356.77" fy="625.67" r="19.62" xlink:href="#radial-gradient-61"/>
    <radialGradient id="radial-gradient-88" cx="1339.39" cy="651.13" fx="1339.39" fy="651.13" r="19.62" xlink:href="#radial-gradient-61"/>
    <radialGradient id="radial-gradient-89" cx="1314.53" cy="661.83" fx="1314.53" fy="661.83" r="19.62" xlink:href="#radial-gradient-61"/>
    <radialGradient id="radial-gradient-90" cx="1306.77" cy="701.34" fx="1306.77" fy="701.34" r="19.62" xlink:href="#radial-gradient-61"/>
    <radialGradient id="radial-gradient-91" cx="1299.53" cy="596.29" fx="1299.53" fy="596.29" r="19.62" xlink:href="#radial-gradient-61"/>
    <radialGradient id="radial-gradient-92" cx="1288.73" cy="616.43" fx="1288.73" fy="616.43" r="19.62" xlink:href="#radial-gradient-61"/>
    <radialGradient id="radial-gradient-93" cx="1285.26" cy="488.87" fx="1285.26" fy="488.87" r="19.62" xlink:href="#radial-gradient-61"/>
    <radialGradient id="radial-gradient-94" cx="1218.79" cy="354.76" fx="1218.79" fy="354.76" r="19.62" xlink:href="#radial-gradient-61"/>
    <radialGradient id="radial-gradient-95" cx="1198.08" cy="330.94" fx="1198.08" fy="330.94" r="19.62" xlink:href="#radial-gradient-61"/>
    <radialGradient id="radial-gradient-96" cx="1249.86" cy="372.44" fx="1249.86" fy="372.44" r="19.62" xlink:href="#radial-gradient-61"/>
    <radialGradient id="radial-gradient-97" cx="1238.8" cy="380.98" fx="1238.8" fy="380.98" r="19.62" xlink:href="#radial-gradient-61"/>
    <radialGradient id="radial-gradient-98" cx="1233.43" cy="308.47" fx="1233.43" fy="308.47" r="19.62" xlink:href="#radial-gradient-61"/>
    <radialGradient id="radial-gradient-99" cx="1227.01" cy="283.92" fx="1227.01" fy="283.92" r="19.62" xlink:href="#radial-gradient-61"/>
    <radialGradient id="radial-gradient-100" cx="1282.43" cy="348.3" fx="1282.43" fy="348.3" r="19.62" xlink:href="#radial-gradient-61"/>
    <radialGradient id="radial-gradient-101" cx="1241.81" cy="324.49" fx="1241.81" fy="324.49" r="19.62" xlink:href="#radial-gradient-61"/>
    <radialGradient id="radial-gradient-102" cx="1053.94" cy="239.31" fx="1053.94" fy="239.31" r="19.62" xlink:href="#radial-gradient-61"/>
    <radialGradient id="radial-gradient-103" cx="996.8" cy="231.45" fx="996.8" fy="231.45" r="19.62" xlink:href="#radial-gradient-61"/>
    <radialGradient id="radial-gradient-104" cx="975.05" cy="224.94" fx="975.05" fy="224.94" r="19.62" xlink:href="#radial-gradient-61"/>
    <radialGradient id="radial-gradient-105" cx="975.07" cy="239.27" fx="975.07" fy="239.27" r="19.62" xlink:href="#radial-gradient-61"/>
    <radialGradient id="radial-gradient-106" cx="814.92" cy="251.13" fx="814.92" fy="251.13" r="19.62" xlink:href="#radial-gradient-61"/>
    <radialGradient id="radial-gradient-107" cx="727.02" cy="306.13" fx="727.02" fy="306.13" r="19.62" xlink:href="#radial-gradient-61"/>
    <radialGradient id="radial-gradient-108" cx="641.61" cy="384.69" fx="641.61" fy="384.69" r="19.62" xlink:href="#radial-gradient-61"/>
    <radialGradient id="radial-gradient-109" cx="560.22" cy="466.71" fx="560.22" fy="466.71" r="19.62" xlink:href="#radial-gradient-61"/>
    <radialGradient id="radial-gradient-110" cx="501.19" cy="559.25" fx="501.19" fy="559.25" r="19.62" xlink:href="#radial-gradient-61"/>
    <radialGradient id="radial-gradient-111" cx="464.79" cy="676.72" fx="464.79" fy="676.72" r="19.62" xlink:href="#radial-gradient-61"/>
    <radialGradient id="radial-gradient-112" cx="440.33" cy="623.31" fx="440.33" fy="623.31" r="19.62" xlink:href="#radial-gradient-61"/>
    <radialGradient id="radial-gradient-113" cx="429.79" cy="507.5" fx="429.79" fy="507.5" r="19.62" xlink:href="#radial-gradient-61"/>
    <radialGradient id="radial-gradient-114" cx="396.25" cy="721.23" fx="396.25" fy="721.23" r="19.62" xlink:href="#radial-gradient-61"/>
    <radialGradient id="radial-gradient-115" cx="406.68" cy="623.67" fx="406.68" fy="623.67" r="19.62" xlink:href="#radial-gradient-61"/>
    <radialGradient id="radial-gradient-116" cx="407.94" cy="795.41" fx="407.94" fy="795.41" r="19.62" xlink:href="#radial-gradient-61"/>
    <radialGradient id="radial-gradient-117" cx="471.67" cy="709.14" fx="471.67" fy="709.14" r="19.62" xlink:href="#radial-gradient-61"/>
    <radialGradient id="radial-gradient-118" cx="507.78" cy="855.81" fx="507.78" fy="855.81" r="19.62" xlink:href="#radial-gradient-61"/>
    <radialGradient id="radial-gradient-119" cx="571.81" cy="817.54" fx="571.81" fy="817.54" r="19.62" xlink:href="#radial-gradient-61"/>
    <radialGradient id="radial-gradient-120" cx="632.66" cy="869.13" fx="632.66" fy="869.13" r="19.62" xlink:href="#radial-gradient-61"/>
  </defs>
  <g class="cls-121">
    <g id="Layer_1" data-name="Layer 1">
      <g>
        <g>
          <circle class="cls-53" cx="1412.54" cy="805.89" r="19.62"/>
          <circle class="cls-83" cx="1413.71" cy="861.36" r="19.62"/>
          <circle class="cls-39" cx="1413.72" cy="785.47" r="19.62"/>
          <path class="cls-51" d="M1426.89,884.52c0,10.83-8.78,19.62-19.62,19.62s-19.62-8.78-19.62-19.62,8.78-19.62,19.62-19.62,19.62,8.78,19.62,19.62Z"/>
          <circle class="cls-43" cx="1399.91" cy="836.62" r="19.62"/>
          <circle class="cls-37" cx="1458.93" cy="907.55" r="19.62"/>
          <circle class="cls-35" cx="1431.74" cy="862.29" r="19.62"/>
          <circle class="cls-95" cx="1441.32" cy="838.51" r="19.62"/>
          <circle class="cls-74" cx="1491.01" cy="901.13" r="19.62"/>
          <path class="cls-84" d="M1416.91,818.89c0,10.83-8.78,19.62-19.62,19.62s-19.62-8.78-19.62-19.62,8.78-19.62,19.62-19.62,19.62,8.78,19.62,19.62Z"/>
          <circle class="cls-11" cx="1380.28" cy="775.38" r="19.62"/>
          <circle class="cls-113" cx="1426.87" cy="834.88" r="19.62"/>
          <circle class="cls-120" cx="1388.13" cy="716.72" r="19.62"/>
          <circle class="cls-72" cx="1374.06" cy="666.61" r="19.62"/>
          <circle class="cls-111" cx="1390.97" cy="695.57" r="19.62"/>
          <circle class="cls-110" cx="1414.42" cy="641.12" r="19.62"/>
          <path class="cls-92" d="M1437.79,662.81c0,10.83-8.78,19.62-19.62,19.62s-19.62-8.78-19.62-19.62,8.78-19.62,19.62-19.62,19.62,8.78,19.62,19.62Z"/>
          <circle class="cls-42" cx="1362.32" cy="554.78" r="19.62"/>
          <path class="cls-79" d="M1319.3,459.02c0,10.83-8.78,19.62-19.62,19.62s-19.62-8.78-19.62-19.62,8.78-19.62,19.62-19.62,19.62,8.78,19.62,19.62Z"/>
          <path class="cls-3" d="M1310.07,440.56c0,10.83-8.78,19.62-19.62,19.62s-19.62-8.78-19.62-19.62,8.78-19.62,19.62-19.62,19.62,8.78,19.62,19.62Z"/>
          <circle class="cls-98" cx="1320.06" cy="506.88" r="19.62"/>
          <circle class="cls-64" cx="1319.46" cy="455.32" r="19.62"/>
          <circle class="cls-73" cx="1295.79" cy="397" r="19.62"/>
          <circle class="cls-97" cx="1348.85" cy="464.59" r="19.62"/>
          <circle class="cls-25" cx="1343.73" cy="478.2" r="19.62"/>
          <circle class="cls-89" cx="1341.88" cy="567.91" r="19.62"/>
          <circle class="cls-12" cx="1356.77" cy="625.67" r="19.62"/>
          <circle class="cls-20" cx="1339.39" cy="651.13" r="19.62"/>
          <circle class="cls-63" cx="1314.53" cy="661.83" r="19.62"/>
          <circle class="cls-65" cx="1306.77" cy="701.34" r="19.62"/>
          <circle class="cls-46" cx="1299.53" cy="596.29" r="19.62"/>
          <circle class="cls-41" cx="1288.73" cy="616.43" r="19.62"/>
          <circle class="cls-47" cx="1285.26" cy="488.87" r="19.62"/>
          <path class="cls-60" d="M1238.41,354.76c0,10.83-8.78,19.62-19.62,19.62s-19.62-8.78-19.62-19.62,8.78-19.62,19.62-19.62,19.62,8.78,19.62,19.62Z"/>
          <circle class="cls-56" cx="1198.08" cy="330.94" r="19.62"/>
          <circle class="cls-99" cx="1249.86" cy="372.44" r="19.62"/>
          <circle class="cls-77" cx="1238.8" cy="380.98" r="19.62"/>
          <circle class="cls-54" cx="1233.43" cy="308.47" r="19.62"/>
          <circle class="cls-75" cx="1227.01" cy="283.92" r="19.62"/>
          <path class="cls-22" d="M1302.05,348.3c0,10.83-8.78,19.62-19.62,19.62s-19.62-8.78-19.62-19.62,8.78-19.62,19.62-19.62,19.62,8.78,19.62,19.62Z"/>
          <circle class="cls-104" cx="1241.81" cy="324.49" r="19.62"/>
          <path class="cls-9" d="M1073.56,239.31c0,10.83-8.78,19.62-19.62,19.62s-19.62-8.78-19.62-19.62,8.78-19.62,19.62-19.62,19.62,8.78,19.62,19.62Z"/>
          <path class="cls-57" d="M1016.42,231.45c0,10.83-8.78,19.62-19.62,19.62s-19.62-8.78-19.62-19.62,8.78-19.62,19.62-19.62,19.62,8.78,19.62,19.62Z"/>
          <circle class="cls-85" cx="975.05" cy="224.94" r="19.62"/>
          <circle class="cls-4" cx="975.07" cy="239.27" r="19.62"/>
          <circle class="cls-119" cx="814.92" cy="251.13" r="19.62"/>
          <path class="cls-115" d="M746.64,306.13c0,10.83-8.78,19.62-19.62,19.62s-19.62-8.78-19.62-19.62,8.78-19.62,19.62-19.62,19.62,8.78,19.62,19.62Z"/>
          <circle class="cls-15" cx="641.61" cy="384.69" r="19.62"/>
          <circle class="cls-29" cx="560.22" cy="466.71" r="19.62"/>
          <circle class="cls-87" cx="501.19" cy="559.25" r="19.62"/>
          <circle class="cls-30" cx="464.79" cy="676.72" r="19.62"/>
          <circle class="cls-31" cx="440.33" cy="623.31" r="19.62"/>
          <circle class="cls-45" cx="429.79" cy="507.5" r="19.62"/>
          <path class="cls-62" d="M415.87,721.23c0,10.83-8.78,19.62-19.62,19.62s-19.62-8.78-19.62-19.62,8.78-19.62,19.62-19.62,19.62,8.78,19.62,19.62Z"/>
          <circle class="cls-117" cx="406.68" cy="623.67" r="19.62"/>
          <path class="cls-16" d="M427.56,795.41c0,10.83-8.78,19.62-19.62,19.62s-19.62-8.78-19.62-19.62,8.78-19.62,19.62-19.62,19.62,8.78,19.62,19.62Z"/>
          <circle class="cls-52" cx="471.67" cy="709.14" r="19.62"/>
          <circle class="cls-76" cx="507.78" cy="855.81" r="19.62"/>
          <circle class="cls-91" cx="571.81" cy="817.54" r="19.62"/>
          <circle class="cls-100" cx="632.66" cy="869.13" r="19.62"/>
        </g>
        <g>
          <circle class="cls-44" cx="1412.54" cy="805.89" r="19.62"/>
          <circle class="cls-58" cx="1413.71" cy="861.36" r="19.62"/>
          <circle class="cls-107" cx="1413.72" cy="785.47" r="19.62"/>
          <path class="cls-48" d="M1426.89,884.52c0,10.83-8.78,19.62-19.62,19.62s-19.62-8.78-19.62-19.62,8.78-19.62,19.62-19.62,19.62,8.78,19.62,19.62Z"/>
          <circle class="cls-10" cx="1399.91" cy="836.62" r="19.62"/>
          <circle class="cls-7" cx="1458.93" cy="907.55" r="19.62"/>
          <circle class="cls-6" cx="1431.74" cy="862.29" r="19.62"/>
          <circle class="cls-21" cx="1441.32" cy="838.51" r="19.62"/>
          <circle class="cls-50" cx="1491.01" cy="901.13" r="19.62"/>
          <path class="cls-101" d="M1416.91,818.89c0,10.83-8.78,19.62-19.62,19.62s-19.62-8.78-19.62-19.62,8.78-19.62,19.62-19.62,19.62,8.78,19.62,19.62Z"/>
          <circle class="cls-68" cx="1380.28" cy="775.38" r="19.62"/>
          <circle class="cls-8" cx="1426.87" cy="834.88" r="19.62"/>
          <circle class="cls-86" cx="1388.13" cy="716.72" r="19.62"/>
          <circle class="cls-81" cx="1374.06" cy="666.61" r="19.62"/>
          <circle class="cls-103" cx="1390.97" cy="695.57" r="19.62"/>
          <circle class="cls-2" cx="1414.42" cy="641.12" r="19.62"/>
          <path class="cls-27" d="M1437.79,662.81c0,10.83-8.78,19.62-19.62,19.62s-19.62-8.78-19.62-19.62,8.78-19.62,19.62-19.62,19.62,8.78,19.62,19.62Z"/>
          <circle class="cls-90" cx="1362.32" cy="554.78" r="19.62"/>
          <path class="cls-1" d="M1319.3,459.02c0,10.83-8.78,19.62-19.62,19.62s-19.62-8.78-19.62-19.62,8.78-19.62,19.62-19.62,19.62,8.78,19.62,19.62Z"/>
          <path class="cls-108" d="M1310.07,440.56c0,10.83-8.78,19.62-19.62,19.62s-19.62-8.78-19.62-19.62,8.78-19.62,19.62-19.62,19.62,8.78,19.62,19.62Z"/>
          <circle class="cls-67" cx="1320.06" cy="506.88" r="19.62"/>
          <circle class="cls-24" cx="1319.46" cy="455.32" r="19.62"/>
          <circle class="cls-88" cx="1295.79" cy="397" r="19.62"/>
          <circle class="cls-40" cx="1348.85" cy="464.59" r="19.62"/>
          <circle class="cls-59" cx="1343.73" cy="478.2" r="19.62"/>
          <circle class="cls-109" cx="1341.88" cy="567.91" r="19.62"/>
          <circle class="cls-38" cx="1356.77" cy="625.67" r="19.62"/>
          <circle class="cls-28" cx="1339.39" cy="651.13" r="19.62"/>
          <circle class="cls-78" cx="1314.53" cy="661.83" r="19.62"/>
          <circle class="cls-70" cx="1306.77" cy="701.34" r="19.62"/>
          <circle class="cls-14" cx="1299.53" cy="596.29" r="19.62"/>
          <circle class="cls-5" cx="1288.73" cy="616.43" r="19.62"/>
          <circle class="cls-96" cx="1285.26" cy="488.87" r="19.62"/>
          <path class="cls-116" d="M1238.41,354.76c0,10.83-8.78,19.62-19.62,19.62s-19.62-8.78-19.62-19.62,8.78-19.62,19.62-19.62,19.62,8.78,19.62,19.62Z"/>
          <circle class="cls-19" cx="1198.08" cy="330.94" r="19.62"/>
          <circle class="cls-34" cx="1249.86" cy="372.44" r="19.62"/>
          <circle class="cls-69" cx="1238.8" cy="380.98" r="19.62"/>
          <circle class="cls-114" cx="1233.43" cy="308.47" r="19.62"/>
          <circle class="cls-32" cx="1227.01" cy="283.92" r="19.62"/>
          <path class="cls-36" d="M1302.05,348.3c0,10.83-8.78,19.62-19.62,19.62s-19.62-8.78-19.62-19.62,8.78-19.62,19.62-19.62,19.62,8.78,19.62,19.62Z"/>
          <circle class="cls-102" cx="1241.81" cy="324.49" r="19.62"/>
          <path class="cls-118" d="M1073.56,239.31c0,10.83-8.78,19.62-19.62,19.62s-19.62-8.78-19.62-19.62,8.78-19.62,19.62-19.62,19.62,8.78,19.62,19.62Z"/>
          <path class="cls-13" d="M1016.42,231.45c0,10.83-8.78,19.62-19.62,19.62s-19.62-8.78-19.62-19.62,8.78-19.62,19.62-19.62,19.62,8.78,19.62,19.62Z"/>
          <circle class="cls-55" cx="975.05" cy="224.94" r="19.62"/>
          <circle class="cls-33" cx="975.07" cy="239.27" r="19.62"/>
          <circle class="cls-93" cx="814.92" cy="251.13" r="19.62"/>
          <path class="cls-82" d="M746.64,306.13c0,10.83-8.78,19.62-19.62,19.62s-19.62-8.78-19.62-19.62,8.78-19.62,19.62-19.62,19.62,8.78,19.62,19.62Z"/>
          <circle class="cls-105" cx="641.61" cy="384.69" r="19.62"/>
          <circle class="cls-17" cx="560.22" cy="466.71" r="19.62"/>
          <circle class="cls-23" cx="501.19" cy="559.25" r="19.62"/>
          <circle class="cls-18" cx="464.79" cy="676.72" r="19.62"/>
          <circle class="cls-106" cx="440.33" cy="623.31" r="19.62"/>
          <circle class="cls-94" cx="429.79" cy="507.5" r="19.62"/>
          <path class="cls-26" d="M415.87,721.23c0,10.83-8.78,19.62-19.62,19.62s-19.62-8.78-19.62-19.62,8.78-19.62,19.62-19.62,19.62,8.78,19.62,19.62Z"/>
          <circle class="cls-112" cx="406.68" cy="623.67" r="19.62"/>
          <path class="cls-49" d="M427.56,795.41c0,10.83-8.78,19.62-19.62,19.62s-19.62-8.78-19.62-19.62,8.78-19.62,19.62-19.62,19.62,8.78,19.62,19.62Z"/>
          <circle class="cls-71" cx="471.67" cy="709.14" r="19.62"/>
          <circle class="cls-66" cx="507.78" cy="855.81" r="19.62"/>
          <circle class="cls-61" cx="571.81" cy="817.54" r="19.62"/>
          <circle class="cls-80" cx="632.66" cy="869.13" r="19.62"/>
        </g>
      </g>
    </g>
  </g>
</svg>