<?xml version="1.0" encoding="UTF-8"?>
<svg id="Layer_1" data-name="Layer 1" xmlns="http://www.w3.org/2000/svg" version="1.1" xmlns:xlink="http://www.w3.org/1999/xlink" viewBox="0 0 1080 1080">
  <defs>
    <style>
      .cls-1 {
        fill: url(#linear-gradient);
      }

      .cls-1, .cls-2, .cls-3 {
        stroke-width: 0px;
      }

      .cls-4 {
        isolation: isolate;
      }

      .cls-2 {
        fill: url(#linear-gradient-2);
      }

      .cls-3 {
        fill: #fff;
      }
    </style>
    <linearGradient id="linear-gradient" x1="494.19" y1="562.42" x2="532.61" y2="775.25" gradientUnits="userSpaceOnUse">
      <stop offset="0" stop-color="#fff"/>
      <stop offset=".22" stop-color="#fafcfd"/>
      <stop offset=".46" stop-color="#edf4f8"/>
      <stop offset=".71" stop-color="#d7e6f1"/>
      <stop offset=".96" stop-color="#b8d4e6"/>
      <stop offset="1" stop-color="#b4d1e5"/>
    </linearGradient>
    <linearGradient id="linear-gradient-2" x1="976.13" y1="709.36" x2="1142.1" y2="711.3" gradientUnits="userSpaceOnUse">
      <stop offset="0" stop-color="#176fae"/>
      <stop offset=".2" stop-color="#1f74b3"/>
      <stop offset=".49" stop-color="#3481c1"/>
      <stop offset=".52" stop-color="#5293d4"/>
      <stop offset=".53" stop-color="#629ddf"/>
      <stop offset=".68" stop-color="#6aa2e0"/>
      <stop offset=".91" stop-color="#82b1e5"/>
      <stop offset="1" stop-color="#8eb8e8"/>
    </linearGradient>
  </defs>
  <g class="cls-4">
    <path class="cls-3" d="M660.18,649.04c6.21,3.59,6.25,9.4.07,12.99l-137.56,79.94c-6.17,3.59-16.21,3.59-22.42,0l-138.44-79.93c-6.23-3.6-6.27-9.41-.09-13l137.56-79.94c6.17-3.59,16.2-3.59,22.44.01l138.44,79.93Z"/>
    <path class="cls-1" d="M511.5,743.05c-3.96,0-7.66-.88-10.42-2.48l-138.44-79.93c-2.51-1.45-3.9-3.28-3.9-5.15,0-1.85,1.35-3.65,3.81-5.08l137.56-79.94c2.74-1.59,6.43-2.47,10.38-2.47s7.67.88,10.45,2.49l138.44,79.93c2.5,1.44,3.88,3.26,3.88,5.13,0,1.85-1.35,3.65-3.81,5.09l-137.56,79.94c-2.75,1.6-6.44,2.47-10.39,2.47Z"/>
    <path class="cls-2" d="M664.69,666.02c.06-.33.1-.66.1-1l.07-9.45c0,.33-.04.66-.1,1-.02.1-.05.21-.08.31-.06.23-.13.46-.22.69-.05.13-.11.26-.17.39-.06.13-.13.27-.2.4-.08.14-.17.29-.26.43-.08.13-.17.26-.27.39-.1.14-.22.28-.33.42-.11.13-.22.25-.33.37-.13.14-.27.27-.41.4-.13.12-.26.24-.4.36-.11.09-.22.18-.34.27-.46.36-.95.71-1.51,1.03l-137.56,79.94c-.79.46-1.66.86-2.56,1.2-.31.12-.64.19-.96.29-.62.2-1.24.41-1.89.55-.5.11-1.01.18-1.52.26-.47.08-.92.17-1.4.22-.52.06-1.04.06-1.57.09-.48.02-.96.07-1.44.06-.92,0-1.85-.06-2.76-.15-.22-.02-.43-.07-.65-.1-.74-.1-1.47-.21-2.18-.37-.16-.03-.31-.07-.47-.11-.83-.2-1.63-.44-2.41-.73-.12-.04-.23-.09-.34-.14-.8-.32-1.58-.67-2.29-1.08l-138.44-79.93c-3.14-1.81-4.7-4.19-4.7-6.55l-.07,9.45c0,2.37,1.56,4.74,4.7,6.55l138.44,79.93c.71.41,1.49.76,2.29,1.08.11.05.22.09.34.14.77.29,1.58.53,2.41.73.15.04.31.07.47.11.19.04.38.1.57.13.53.1,1.07.17,1.61.24.22.03.43.07.65.1.86.09,1.74.15,2.61.16.05,0,.1,0,.14,0,.48,0,.96-.04,1.44-.06.52-.02,1.05-.03,1.57-.09.47-.05.93-.15,1.4-.22.46-.07.93-.12,1.37-.22.05-.01.1-.03.15-.04.65-.15,1.27-.35,1.89-.55.32-.1.65-.18.96-.29.91-.34,1.77-.74,2.56-1.2l137.56-79.94c.56-.32,1.05-.67,1.51-1.03.05-.04.12-.08.17-.12.06-.05.11-.1.16-.15.14-.12.27-.24.4-.36.14-.13.28-.26.41-.4.12-.12.23-.25.33-.37.12-.14.23-.28.33-.42.09-.13.18-.26.27-.39.09-.14.18-.29.26-.43.07-.13.14-.26.2-.4.03-.07.08-.15.11-.22.02-.06.03-.12.05-.17.09-.23.16-.46.22-.69.03-.1.06-.21.08-.31Z"/>
  </g>
</svg>