<?xml version="1.0" encoding="UTF-8"?>
<svg id="Layer_2" data-name="Layer 2" xmlns="http://www.w3.org/2000/svg" version="1.1" xmlns:xlink="http://www.w3.org/1999/xlink" viewBox="0 0 2000 2000">
  <defs>
    <style>
      .cls-1 {
        fill: url(#linear-gradient);
        stroke-width: 0px;
      }
    </style>
    <linearGradient id="linear-gradient" x1="275.1" y1="541.3" x2="1515" y2="1738" gradientTransform="translate(19.7 -16.6) rotate(1)" gradientUnits="userSpaceOnUse">
      <stop offset="0" stop-color="#00dcff"/>
      <stop offset=".2" stop-color="#0bc1ed"/>
      <stop offset=".5" stop-color="#15a9de"/>
      <stop offset=".8" stop-color="#1b9bd5"/>
      <stop offset="1" stop-color="#1e96d2"/>
    </linearGradient>
  </defs>
  <path class="cls-1" d="M674.3,404.5c-.5-3,2.4-5.8,6.6-6.4,4.2-.6,8.1,1.4,8.6,4.3s-2.4,5.9-6.7,6.4c-4.2.6-8.1-1.4-8.6-4.3h0ZM713.9,404.7c4.3-.6,7.2-3.5,6.7-6.5-.6-3-4.5-4.9-8.7-4.3-4.2.6-7.2,3.5-6.7,6.5s4.4,4.9,8.7,4.4h0ZM745.1,400.4c4.3-.6,7.3-3.5,6.7-6.5s-4.5-4.9-8.8-4.4c-4.3.6-7.3,3.5-6.7,6.5.6,3,4.5,5,8.7,4.4h0ZM686.9,430.7c4.2-.6,7.2-3.5,6.7-6.4s-4.4-4.9-8.6-4.4c-4.2.6-7.2,3.5-6.7,6.4s4.4,4.9,8.6,4.4h0ZM718,426.6c4.3-.6,7.3-3.5,6.7-6.5s-4.5-5-8.7-4.4-7.2,3.5-6.7,6.5,4.4,5,8.7,4.4h0ZM749.2,422.4c4.3-.6,7.3-3.5,6.7-6.5s-4.5-5-8.8-4.4-7.3,3.5-6.7,6.5,4.5,5,8.8,4.4h0ZM629.3,460.8c4.2-.6,7.2-3.4,6.6-6.4s-4.4-4.9-8.5-4.4-7.1,3.4-6.6,6.4,4.3,5,8.5,4.4h0ZM660,456.7c4.2-.6,7.2-3.4,6.7-6.4-.5-3-4.4-5-8.6-4.4-4.2.6-7.2,3.4-6.6,6.4s4.4,5,8.6,4.4h0ZM690.9,452.7c4.2-.6,7.2-3.5,6.7-6.5-.5-3-4.4-5-8.7-4.4s-7.2,3.4-6.7,6.4,4.4,5,8.7,4.4h0ZM722,448.6c4.3-.6,7.3-3.5,6.7-6.5s-4.5-5-8.7-4.4-7.3,3.5-6.7,6.5,4.5,5,8.7,4.4h0ZM753.4,444.4c4.3-.6,7.3-3.5,6.8-6.5s-4.5-5-8.8-4.4c-4.3.6-7.3,3.5-6.7,6.5s4.5,5,8.8,4.4h0ZM423,509.8c4-.5,6.9-3.3,6.4-6.3s-4.1-4.9-8.1-4.4c-4,.5-6.9,3.3-6.4,6.3.5,2.9,4.1,4.9,8.1,4.4ZM452.5,506c4-.5,6.9-3.3,6.5-6.3s-4.1-4.9-8.2-4.4-6.9,3.3-6.5,6.3c.5,2.9,4.1,4.9,8.1,4.4h0ZM482.1,502.2c4.1-.5,7-3.3,6.5-6.3s-4.2-4.9-8.2-4.4-7,3.3-6.5,6.3,4.2,4.9,8.2,4.4ZM511.9,498.3c4.1-.5,7-3.4,6.5-6.3-.5-3-4.2-4.9-8.3-4.4-4.1.5-7,3.4-6.5,6.3s4.2,4.9,8.3,4.4h0ZM541.9,494.5c4.1-.5,7.1-3.4,6.6-6.3s-4.2-4.9-8.4-4.4-7,3.4-6.5,6.3c.5,3,4.2,4.9,8.3,4.4ZM572.1,490.5c4.1-.5,7.1-3.4,6.6-6.4s-4.3-5-8.4-4.4c-4.1.5-7.1,3.4-6.6,6.4.5,3,4.3,5,8.4,4.4h0ZM602.5,486.6c4.2-.5,7.1-3.4,6.6-6.4s-4.3-5-8.5-4.4c-4.2.5-7.1,3.4-6.6,6.4s4.3,5,8.5,4.4ZM633.1,482.7c4.2-.5,7.2-3.4,6.6-6.4s-4.4-5-8.6-4.4-7.2,3.4-6.6,6.4,4.3,5,8.5,4.4ZM663.9,478.7c4.2-.5,7.2-3.4,6.7-6.4-.5-3-4.4-5-8.6-4.4s-7.2,3.4-6.7,6.4c.5,3,4.4,5,8.6,4.5h0ZM694.9,474.7c4.3-.6,7.3-3.4,6.7-6.5s-4.4-5-8.7-4.5-7.2,3.4-6.7,6.5,4.4,5,8.7,4.5h0ZM726.1,470.6c4.3-.6,7.3-3.5,6.7-6.5-.6-3-4.5-5-8.8-4.5s-7.3,3.5-6.7,6.5,4.5,5,8.7,4.5h0ZM757.5,466.6c4.3-.6,7.3-3.5,6.8-6.5s-4.5-5-8.8-4.5-7.3,3.5-6.8,6.5,4.5,5,8.8,4.5h0ZM789.1,462.5c4.3-.6,7.4-3.5,6.8-6.5s-4.6-5-8.9-4.5c-4.3.6-7.4,3.5-6.8,6.5.6,3,4.6,5.1,8.9,4.5h0ZM397.1,535.1c4-.5,6.9-3.3,6.4-6.2s-4.1-4.9-8.1-4.4-6.8,3.3-6.4,6.2c.4,2.9,4,4.9,8,4.4h0ZM426.4,531.4c4-.5,6.9-3.3,6.4-6.3s-4.1-4.9-8.1-4.4c-4,.5-6.9,3.3-6.4,6.3s4.1,4.9,8.1,4.4ZM455.9,527.6c4-.5,7-3.3,6.5-6.3-.5-3-4.1-4.9-8.2-4.4s-6.9,3.3-6.5,6.3,4.1,4.9,8.2,4.4h0ZM485.6,523.9c4.1-.5,7-3.3,6.5-6.3s-4.2-4.9-8.2-4.4c-4.1.5-7,3.3-6.5,6.3.5,3,4.2,4.9,8.2,4.4ZM515.5,520.1c4.1-.5,7-3.4,6.5-6.3-.5-3-4.2-5-8.3-4.4s-7,3.4-6.5,6.3,4.2,5,8.3,4.4h0ZM545.6,516.3c4.1-.5,7.1-3.4,6.6-6.4s-4.3-5-8.4-4.4c-4.1.5-7.1,3.4-6.6,6.3s4.2,5,8.4,4.4h0ZM575.9,512.4c4.2-.5,7.1-3.4,6.6-6.4s-4.3-5-8.4-4.5c-4.1.5-7.1,3.4-6.6,6.4.5,3,4.3,5,8.4,4.5ZM606.3,508.5c4.2-.5,7.2-3.4,6.6-6.4s-4.3-5-8.5-4.5c-4.2.5-7.1,3.4-6.6,6.4.5,3,4.3,5,8.5,4.5h0ZM637,504.6c4.2-.5,7.2-3.4,6.7-6.4s-4.4-5-8.6-4.5-7.2,3.4-6.6,6.4,4.4,5,8.6,4.5h0ZM667.9,500.7c4.2-.5,7.2-3.4,6.7-6.4s-4.4-5-8.6-4.5-7.2,3.4-6.7,6.4,4.4,5,8.6,4.5h0ZM698.9,496.8c4.3-.5,7.3-3.4,6.7-6.5s-4.5-5-8.7-4.5-7.3,3.4-6.7,6.5c.5,3,4.4,5,8.7,4.5h0ZM730.2,492.8c4.3-.5,7.3-3.5,6.7-6.5s-4.5-5.1-8.8-4.5-7.3,3.5-6.7,6.5,4.5,5.1,8.8,4.5h0ZM761.7,488.8c4.3-.5,7.4-3.5,6.8-6.5-.6-3-4.5-5.1-8.9-4.5s-7.3,3.5-6.8,6.5c.6,3,4.5,5.1,8.8,4.5h0ZM793.4,484.8c4.4-.6,7.4-3.5,6.8-6.5s-4.6-5.1-8.9-4.5-7.4,3.5-6.8,6.5c.6,3.1,4.6,5.1,8.9,4.5h0ZM825.3,480.7c4.4-.6,7.4-3.5,6.8-6.5s-4.6-5.1-9-4.5c-4.4.6-7.4,3.5-6.8,6.5.6,3.1,4.6,5.1,9,4.5ZM371.2,560.3c4-.5,6.8-3.3,6.4-6.2s-4-4.9-8-4.4-6.8,3.3-6.4,6.2,4,4.9,8,4.4h0ZM400.4,556.7c4-.5,6.9-3.3,6.4-6.3s-4.1-4.9-8.1-4.4-6.9,3.3-6.4,6.2,4.1,4.9,8.1,4.4h0ZM429.8,553c4-.5,6.9-3.3,6.5-6.3s-4.1-5-8.1-4.4-6.9,3.3-6.5,6.3,4.1,5,8.1,4.4h0ZM459.4,549.3c4.1-.5,7-3.3,6.5-6.3s-4.1-5-8.2-4.5-7,3.3-6.5,6.3,4.1,5,8.2,4.5h0ZM489.1,545.6c4.1-.5,7-3.3,6.5-6.3s-4.2-5-8.3-4.5c-4.1.5-7,3.3-6.5,6.3s4.2,5,8.3,4.5h0ZM519.1,541.9c4.1-.5,7-3.3,6.6-6.3s-4.2-5-8.3-4.5c-4.1.5-7,3.3-6.5,6.3.5,3,4.2,5,8.3,4.5h0ZM549.2,538.1c4.1-.5,7.1-3.4,6.6-6.4s-4.3-5-8.4-4.5c-4.1.5-7.1,3.4-6.6,6.4s4.3,5,8.4,4.5h0ZM579.6,534.3c4.2-.5,7.1-3.4,6.6-6.4s-4.3-5-8.5-4.5c-4.2.5-7.1,3.4-6.6,6.4s4.3,5,8.5,4.5h0ZM610.1,530.5c4.2-.5,7.2-3.4,6.6-6.4-.5-3-4.4-5-8.5-4.5s-7.2,3.4-6.6,6.4c.5,3,4.3,5,8.5,4.5h0ZM640.9,526.7c4.2-.5,7.2-3.4,6.7-6.4-.5-3-4.4-5-8.6-4.5-4.2.5-7.2,3.4-6.7,6.4s4.4,5,8.6,4.5ZM671.8,522.9c4.2-.5,7.3-3.4,6.7-6.5-.5-3-4.4-5-8.7-4.5s-7.2,3.4-6.7,6.4,4.4,5.1,8.7,4.5h0ZM703,519c4.3-.5,7.3-3.4,6.7-6.5s-4.5-5.1-8.7-4.5c-4.3.5-7.3,3.4-6.7,6.5s4.5,5.1,8.7,4.5h0ZM734.3,515.1c4.3-.5,7.3-3.4,6.8-6.5s-4.5-5.1-8.8-4.5c-4.3.5-7.3,3.4-6.7,6.5s4.5,5.1,8.8,4.5ZM765.9,511.1c4.3-.5,7.4-3.5,6.8-6.5s-4.6-5.1-8.9-4.5-7.4,3.5-6.8,6.5c.6,3.1,4.5,5.1,8.9,4.6h0ZM797.7,507.2c4.4-.5,7.4-3.5,6.8-6.5s-4.6-5.1-9-4.6-7.4,3.5-6.8,6.5,4.6,5.1,8.9,4.6ZM829.7,503.2c4.4-.5,7.5-3.5,6.9-6.6s-4.6-5.1-9-4.6-7.5,3.5-6.9,6.6,4.6,5.1,9,4.6h0ZM259.2,596c3.9-.5,6.7-3.2,6.3-6.2s-3.9-4.9-7.8-4.4c-3.9.5-6.7,3.2-6.3,6.1s3.9,4.9,7.8,4.4h0ZM287.8,592.5c3.9-.5,6.7-3.2,6.3-6.2s-3.9-4.9-7.8-4.4-6.7,3.2-6.3,6.2,3.9,4.9,7.8,4.4h0ZM316.5,589c3.9-.5,6.8-3.3,6.4-6.2s-4-4.9-7.9-4.4c-3.9.5-6.8,3.3-6.4,6.2.4,2.9,4,4.9,7.9,4.5ZM345.4,585.4c4-.5,6.8-3.3,6.4-6.2s-4-4.9-8-4.5-6.8,3.3-6.4,6.2,4,4.9,8,4.5ZM374.5,581.9c4-.5,6.9-3.3,6.4-6.2s-4-5-8-4.5-6.8,3.3-6.4,6.2,4,5,8,4.5h0ZM403.7,578.3c4-.5,6.9-3.3,6.4-6.3-.5-3-4.1-5-8.1-4.5s-6.9,3.3-6.4,6.3,4.1,5,8.1,4.5h0ZM433.2,574.7c4-.5,6.9-3.3,6.5-6.3s-4.1-5-8.2-4.5-6.9,3.3-6.5,6.3c.5,3,4.1,5,8.1,4.5h0ZM462.8,571.1c4.1-.5,7-3.3,6.5-6.3-.5-3-4.2-5-8.2-4.5-4.1.5-7,3.3-6.5,6.3s4.1,5,8.2,4.5h0ZM492.7,567.5c4.1-.5,7-3.3,6.5-6.3-.5-3-4.2-5-8.3-4.5s-7,3.3-6.5,6.3,4.2,5,8.3,4.5ZM522.7,563.8c4.1-.5,7.1-3.3,6.6-6.3s-4.2-5-8.4-4.5-7,3.3-6.6,6.3c.5,3,4.2,5,8.3,4.5ZM552.9,560.1c4.1-.5,7.1-3.4,6.6-6.4s-4.3-5-8.4-4.5c-4.1.5-7.1,3.4-6.6,6.4.5,3,4.3,5,8.4,4.5h0ZM583.3,556.4c4.2-.5,7.1-3.4,6.6-6.4s-4.3-5-8.5-4.5-7.1,3.4-6.6,6.4,4.3,5,8.5,4.5h0ZM614,552.6c4.2-.5,7.2-3.4,6.7-6.4s-4.4-5.1-8.6-4.5c-4.2.5-7.2,3.4-6.6,6.4.5,3,4.3,5.1,8.5,4.5h0ZM644.8,548.9c4.2-.5,7.2-3.4,6.7-6.4s-4.4-5.1-8.6-4.5-7.2,3.4-6.7,6.4c.5,3,4.4,5.1,8.6,4.6ZM675.8,545.1c4.2-.5,7.3-3.4,6.7-6.5-.5-3-4.4-5.1-8.7-4.6s-7.3,3.4-6.7,6.5,4.4,5.1,8.7,4.6h0ZM707,541.3c4.3-.5,7.3-3.4,6.8-6.5s-4.5-5.1-8.8-4.6-7.3,3.4-6.7,6.5c.6,3.1,4.5,5.1,8.8,4.6h0ZM738.5,537.4c4.3-.5,7.4-3.4,6.8-6.5s-4.5-5.1-8.8-4.6c-4.3.5-7.3,3.4-6.8,6.5.6,3.1,4.5,5.1,8.8,4.6ZM770.1,533.6c4.3-.5,7.4-3.4,6.8-6.5s-4.6-5.1-8.9-4.6-7.4,3.4-6.8,6.5,4.5,5.1,8.9,4.6h0ZM802,529.7c4.4-.5,7.4-3.5,6.8-6.5s-4.6-5.1-9-4.6c-4.4.5-7.4,3.5-6.8,6.5s4.6,5.1,9,4.6ZM834,525.8c4.4-.5,7.5-3.5,6.9-6.6s-4.7-5.2-9-4.6-7.5,3.5-6.9,6.6,4.6,5.2,9,4.6h0ZM866.3,521.8c4.4-.5,7.5-3.5,6.9-6.6-.6-3.1-4.7-5.2-9.1-4.6-4.4.5-7.5,3.5-6.9,6.6s4.7,5.2,9.1,4.6ZM233.8,620.8c3.9-.5,6.7-3.2,6.3-6.1s-3.9-4.9-7.7-4.4-6.7,3.2-6.3,6.1c.4,2.9,3.9,4.9,7.7,4.5h0ZM262.2,617.4c3.9-.5,6.7-3.2,6.3-6.2s-3.9-4.9-7.8-4.5-6.7,3.2-6.3,6.2,3.9,4.9,7.8,4.5h0ZM290.8,614c3.9-.5,6.8-3.2,6.3-6.2s-3.9-4.9-7.9-4.5-6.7,3.2-6.3,6.2,3.9,4.9,7.9,4.5ZM319.6,610.5c3.9-.5,6.8-3.2,6.4-6.2-.4-2.9-4-5-7.9-4.5s-6.8,3.3-6.4,6.2,4,5,7.9,4.5h0ZM348.6,607.1c4-.5,6.8-3.3,6.4-6.2-.4-3-4-5-8-4.5s-6.8,3.3-6.4,6.2,4,5,8,4.5h0ZM377.7,603.6c4-.5,6.9-3.3,6.4-6.2s-4.1-5-8.1-4.5-6.9,3.3-6.4,6.2,4,5,8,4.5ZM407.1,600.1c4-.5,6.9-3.3,6.5-6.3-.5-3-4.1-5-8.1-4.5s-6.9,3.3-6.4,6.3,4.1,5,8.1,4.5h0ZM436.6,596.5c4-.5,7-3.3,6.5-6.3s-4.1-5-8.2-4.5c-4,.5-6.9,3.3-6.5,6.3s4.1,5,8.2,4.5ZM466.3,593c4.1-.5,7-3.3,6.5-6.3s-4.2-5-8.2-4.5-7,3.3-6.5,6.3c.5,3,4.2,5,8.2,4.5h0ZM496.2,589.4c4.1-.5,7-3.3,6.5-6.3-.5-3-4.2-5-8.3-4.5s-7,3.3-6.5,6.3,4.2,5,8.3,4.5ZM526.3,585.8c4.1-.5,7.1-3.3,6.6-6.4s-4.3-5-8.4-4.5c-4.1.5-7.1,3.3-6.6,6.3s4.2,5,8.4,4.6ZM556.6,582.2c4.2-.5,7.1-3.4,6.6-6.4-.5-3-4.3-5.1-8.4-4.6-4.1.5-7.1,3.4-6.6,6.4s4.3,5.1,8.4,4.6h0ZM587.1,578.5c4.2-.5,7.2-3.4,6.6-6.4s-4.3-5.1-8.5-4.6c-4.2.5-7.1,3.4-6.6,6.4.5,3,4.3,5.1,8.5,4.6ZM617.8,574.8c4.2-.5,7.2-3.4,6.7-6.4-.5-3-4.4-5.1-8.6-4.6-4.2.5-7.2,3.4-6.7,6.4s4.4,5.1,8.6,4.6h0ZM648.7,571.1c4.2-.5,7.2-3.4,6.7-6.4s-4.4-5.1-8.6-4.6-7.2,3.4-6.7,6.4,4.4,5.1,8.6,4.6h0ZM679.8,567.4c4.3-.5,7.3-3.4,6.7-6.5s-4.5-5.1-8.7-4.6-7.3,3.4-6.7,6.5,4.4,5.1,8.7,4.6h0ZM711.1,563.7c4.3-.5,7.3-3.4,6.8-6.5-.6-3.1-4.5-5.1-8.8-4.6-4.3.5-7.3,3.4-6.8,6.5s4.5,5.1,8.8,4.6h0ZM742.6,559.9c4.3-.5,7.4-3.4,6.8-6.5s-4.5-5.1-8.9-4.6-7.4,3.4-6.8,6.5,4.5,5.1,8.8,4.6h0ZM774.4,556.1c4.3-.5,7.4-3.4,6.8-6.5s-4.6-5.2-8.9-4.6c-4.3.5-7.4,3.4-6.8,6.5s4.6,5.2,8.9,4.6ZM806.3,552.3c4.4-.5,7.5-3.5,6.9-6.5s-4.6-5.2-9-4.6c-4.4.5-7.4,3.5-6.8,6.5.6,3.1,4.6,5.2,9,4.7ZM838.4,548.4c4.4-.5,7.5-3.5,6.9-6.6s-4.7-5.2-9.1-4.7-7.5,3.5-6.9,6.6,4.7,5.2,9.1,4.7h0ZM870.8,544.5c4.4-.5,7.5-3.5,6.9-6.6s-4.7-5.2-9.1-4.7-7.5,3.5-6.9,6.6c.6,3.1,4.7,5.2,9.1,4.7h0ZM903.4,540.6c4.5-.5,7.6-3.5,7-6.6s-4.8-5.2-9.2-4.7c-4.5.5-7.6,3.5-7,6.6s4.7,5.2,9.2,4.7h0ZM180.3,648.9c3.8-.5,6.6-3.2,6.2-6.1-.4-2.9-3.8-4.9-7.6-4.5-3.8.5-6.6,3.2-6.2,6.1s3.8,4.9,7.6,4.5h0ZM208.4,645.6c3.9-.5,6.7-3.2,6.3-6.1s-3.8-4.9-7.7-4.5-6.7,3.2-6.3,6.1c.4,2.9,3.8,4.9,7.7,4.5h0ZM236.7,642.3c3.9-.5,6.7-3.2,6.3-6.1s-3.9-4.9-7.8-4.5c-3.9.5-6.7,3.2-6.3,6.1s3.9,4.9,7.8,4.5h0ZM265.2,638.9c3.9-.5,6.7-3.2,6.3-6.2s-3.9-5-7.8-4.5c-3.9.5-6.7,3.2-6.3,6.2s3.9,5,7.8,4.5h0ZM293.9,635.6c3.9-.5,6.8-3.2,6.4-6.2s-4-5-7.9-4.5c-3.9.5-6.8,3.2-6.4,6.2s3.9,5,7.9,4.5h0ZM322.8,632.2c4-.5,6.8-3.2,6.4-6.2-.4-3-4-5-7.9-4.5s-6.8,3.2-6.4,6.2,4,5,7.9,4.5ZM351.8,628.8c4-.5,6.9-3.3,6.4-6.2s-4-5-8-4.5c-4,.5-6.8,3.3-6.4,6.2s4,5,8,4.5h0ZM381,625.3c4-.5,6.9-3.3,6.4-6.2s-4.1-5-8.1-4.5c-4,.5-6.9,3.3-6.4,6.2s4.1,5,8.1,4.5h0ZM410.4,621.9c4-.5,6.9-3.3,6.5-6.3-.5-3-4.1-5-8.1-4.5s-6.9,3.3-6.5,6.3,4.1,5,8.1,4.6h0ZM440,618.4c4.1-.5,7-3.3,6.5-6.3s-4.1-5-8.2-4.6c-4,.5-7,3.3-6.5,6.3.5,3,4.1,5,8.2,4.6h0ZM469.8,614.9c4.1-.5,7-3.3,6.5-6.3s-4.2-5-8.3-4.6-7,3.3-6.5,6.3,4.2,5.1,8.3,4.6h0ZM499.8,611.4c4.1-.5,7.1-3.3,6.6-6.3s-4.2-5.1-8.3-4.6-7,3.3-6.6,6.3,4.2,5.1,8.3,4.6h0ZM530,607.9c4.1-.5,7.1-3.3,6.6-6.4s-4.3-5.1-8.4-4.6c-4.1.5-7.1,3.3-6.6,6.4.5,3,4.3,5.1,8.4,4.6h0ZM560.3,604.3c4.2-.5,7.1-3.3,6.6-6.4s-4.3-5.1-8.5-4.6-7.1,3.3-6.6,6.4,4.3,5.1,8.4,4.6h0ZM590.9,600.7c4.2-.5,7.2-3.4,6.7-6.4s-4.3-5.1-8.5-4.6-7.2,3.4-6.6,6.4,4.3,5.1,8.5,4.6h0ZM621.7,597.1c4.2-.5,7.2-3.4,6.7-6.4-.5-3-4.4-5.1-8.6-4.6-4.2.5-7.2,3.4-6.7,6.4s4.4,5.1,8.6,4.6ZM652.6,593.5c4.2-.5,7.3-3.4,6.7-6.4-.5-3.1-4.4-5.1-8.7-4.6s-7.2,3.4-6.7,6.4c.5,3.1,4.4,5.1,8.7,4.6h0ZM683.8,589.8c4.3-.5,7.3-3.4,6.7-6.5s-4.5-5.1-8.7-4.6-7.3,3.4-6.7,6.5,4.4,5.1,8.7,4.6ZM715.2,586.1c4.3-.5,7.3-3.4,6.8-6.5-.6-3.1-4.5-5.2-8.8-4.6-4.3.5-7.3,3.4-6.8,6.5s4.5,5.2,8.8,4.7h0ZM746.8,582.4c4.3-.5,7.4-3.4,6.8-6.5s-4.5-5.2-8.9-4.7-7.4,3.4-6.8,6.5,4.5,5.2,8.9,4.7ZM778.6,578.7c4.4-.5,7.4-3.4,6.8-6.5s-4.6-5.2-8.9-4.7c-4.3.5-7.4,3.4-6.8,6.5s4.6,5.2,8.9,4.7h0ZM810.6,575c4.4-.5,7.5-3.5,6.9-6.6s-4.6-5.2-9-4.7c-4.4.5-7.5,3.4-6.9,6.5.6,3.1,4.6,5.2,9,4.7h0ZM842.9,571.2c4.4-.5,7.5-3.5,6.9-6.6s-4.7-5.2-9.1-4.7c-4.4.5-7.5,3.5-6.9,6.6s4.7,5.2,9.1,4.7h0ZM875.3,567.4c4.4-.5,7.6-3.5,6.9-6.6s-4.7-5.2-9.2-4.7c-4.4.5-7.6,3.5-6.9,6.6s4.7,5.2,9.2,4.7h0ZM908,563.5c4.5-.5,7.6-3.5,7-6.6s-4.8-5.2-9.2-4.7c-4.5.5-7.6,3.5-7,6.6s4.8,5.2,9.2,4.7h0ZM940.9,559.7c4.5-.5,7.7-3.5,7-6.7s-4.8-5.3-9.3-4.7c-4.5.5-7.6,3.5-7,6.6s4.8,5.3,9.3,4.7h0ZM183.1,670.3c3.8-.4,6.6-3.2,6.3-6.1s-3.8-4.9-7.7-4.5c-3.8.4-6.6,3.2-6.2,6.1s3.8,4.9,7.7,4.5h0ZM211.3,667.1c3.9-.4,6.7-3.2,6.3-6.1s-3.9-5-7.7-4.5c-3.9.5-6.7,3.2-6.3,6.1.4,2.9,3.8,5,7.7,4.5h0ZM239.7,663.8c3.9-.5,6.7-3.2,6.3-6.1s-3.9-5-7.8-4.5c-3.9.5-6.7,3.2-6.3,6.1s3.9,5,7.8,4.5h0ZM268.3,660.5c3.9-.5,6.8-3.2,6.3-6.2s-3.9-5-7.8-4.5c-3.9.5-6.7,3.2-6.3,6.2s3.9,5,7.8,4.5h0ZM297,657.2c3.9-.5,6.8-3.2,6.4-6.2s-4-5-7.9-4.5-6.8,3.2-6.4,6.2,4,5,7.9,4.6h0ZM325.9,653.9c4-.5,6.8-3.2,6.4-6.2-.4-3-4-5-8-4.6s-6.8,3.2-6.4,6.2,4,5,8,4.6ZM355,650.6c4-.5,6.9-3.2,6.4-6.2-.4-3-4-5-8-4.6-4,.5-6.9,3.2-6.4,6.2.4,3,4,5,8,4.6h0ZM384.3,647.2c4-.5,6.9-3.3,6.5-6.3s-4.1-5-8.1-4.6-6.9,3.3-6.4,6.2c.4,3,4.1,5,8.1,4.6h0ZM413.8,643.8c4-.5,6.9-3.3,6.5-6.3s-4.1-5.1-8.1-4.6-6.9,3.3-6.5,6.3,4.1,5.1,8.1,4.6ZM443.5,640.4c4.1-.5,7-3.3,6.5-6.3s-4.2-5.1-8.2-4.6c-4.1.5-7,3.3-6.5,6.3s4.1,5.1,8.2,4.6ZM473.3,637c4.1-.5,7-3.3,6.5-6.3s-4.2-5.1-8.3-4.6c-4.1.5-7,3.3-6.5,6.3s4.2,5.1,8.3,4.6h0ZM503.4,633.5c4.1-.5,7.1-3.3,6.6-6.3s-4.2-5.1-8.3-4.6c-4.1.5-7,3.3-6.6,6.3s4.2,5.1,8.3,4.6h0ZM533.6,630c4.1-.5,7.1-3.3,6.6-6.4-.5-3-4.3-5.1-8.4-4.6-4.1.5-7.1,3.3-6.6,6.4.5,3,4.3,5.1,8.4,4.6ZM564.1,626.5c4.2-.5,7.2-3.3,6.6-6.4s-4.3-5.1-8.5-4.6-7.1,3.3-6.6,6.4,4.3,5.1,8.5,4.6h0ZM594.7,623c4.2-.5,7.2-3.4,6.7-6.4s-4.3-5.1-8.5-4.6-7.2,3.4-6.7,6.4,4.3,5.1,8.5,4.7ZM625.6,619.5c4.2-.5,7.2-3.4,6.7-6.4s-4.4-5.1-8.6-4.7c-4.2.5-7.2,3.4-6.7,6.4s4.4,5.1,8.6,4.7h0ZM656.6,615.9c4.3-.5,7.3-3.4,6.7-6.5-.5-3.1-4.4-5.2-8.7-4.7s-7.3,3.4-6.7,6.4,4.4,5.2,8.7,4.7h0ZM687.9,612.3c4.3-.5,7.3-3.4,6.8-6.5s-4.5-5.2-8.8-4.7-7.3,3.4-6.8,6.5,4.5,5.2,8.7,4.7h0ZM719.3,608.7c4.3-.5,7.4-3.4,6.8-6.5s-4.5-5.2-8.8-4.7-7.3,3.4-6.8,6.5c.6,3.1,4.5,5.2,8.8,4.7h0ZM751,605.1c4.3-.5,7.4-3.4,6.8-6.5s-4.6-5.2-8.9-4.7-7.4,3.4-6.8,6.5,4.5,5.2,8.9,4.7ZM782.9,601.4c4.4-.5,7.5-3.4,6.9-6.5s-4.6-5.2-9-4.7-7.4,3.4-6.8,6.5,4.6,5.2,9,4.7h0ZM815,597.7c4.4-.5,7.5-3.4,6.9-6.6s-4.6-5.2-9-4.7-7.5,3.4-6.9,6.6,4.6,5.2,9,4.7h0ZM847.3,594c4.4-.5,7.5-3.5,6.9-6.6s-4.7-5.2-9.1-4.7c-4.4.5-7.5,3.5-6.9,6.6.6,3.1,4.7,5.2,9.1,4.7h0ZM879.8,590.3c4.5-.5,7.6-3.5,7-6.6s-4.7-5.3-9.2-4.7-7.6,3.5-7,6.6,4.7,5.3,9.2,4.7h0ZM912.6,586.5c4.5-.5,7.6-3.5,7-6.6s-4.8-5.3-9.3-4.8-7.6,3.5-7,6.6,4.8,5.3,9.3,4.8h0ZM945.6,582.7c4.5-.5,7.7-3.5,7-6.7s-4.8-5.3-9.3-4.8c-4.5.5-7.7,3.5-7,6.7s4.8,5.3,9.3,4.8h0ZM978.8,578.9c4.5-.5,7.7-3.5,7.1-6.7s-4.9-5.3-9.4-4.8-7.7,3.5-7.1,6.7c.7,3.2,4.9,5.3,9.4,4.8h0ZM186,691.8c3.8-.4,6.7-3.2,6.3-6.1s-3.8-5-7.7-4.5c-3.8.4-6.6,3.2-6.3,6.1s3.8,5,7.7,4.5h0ZM214.2,688.6c3.9-.4,6.7-3.2,6.3-6.1s-3.9-5-7.7-4.5-6.7,3.2-6.3,6.1,3.9,5,7.7,4.6ZM242.7,685.4c3.9-.4,6.7-3.2,6.3-6.2s-3.9-5-7.8-4.6c-3.9.4-6.7,3.2-6.3,6.1s3.9,5,7.8,4.6h0ZM271.3,682.2c3.9-.4,6.8-3.2,6.4-6.2s-3.9-5-7.9-4.6-6.8,3.2-6.3,6.2,3.9,5,7.9,4.6h0ZM300.1,679c3.9-.4,6.8-3.2,6.4-6.2s-4-5-7.9-4.6c-3.9.5-6.8,3.2-6.4,6.2.4,3,4,5,7.9,4.6h0ZM329.1,675.7c4-.4,6.8-3.2,6.4-6.2s-4-5-8-4.6c-4,.4-6.8,3.2-6.4,6.2.4,3,4,5,8,4.6h0ZM358.3,672.4c4-.4,6.9-3.2,6.4-6.2s-4.1-5.1-8-4.6c-4,.4-6.9,3.2-6.4,6.2s4,5.1,8,4.6h0ZM387.6,669.1c4-.4,6.9-3.3,6.5-6.3s-4.1-5.1-8.1-4.6c-4,.5-6.9,3.3-6.5,6.3s4.1,5.1,8.1,4.6h0ZM417.2,665.8c4-.5,7-3.3,6.5-6.3s-4.1-5.1-8.2-4.6c-4,.5-6.9,3.3-6.5,6.3s4.1,5.1,8.2,4.6h0ZM446.9,662.5c4.1-.5,7-3.3,6.5-6.3s-4.2-5.1-8.2-4.6c-4.1.5-7,3.3-6.5,6.3s4.2,5.1,8.2,4.6ZM476.8,659.1c4.1-.5,7-3.3,6.6-6.3s-4.2-5.1-8.3-4.6-7,3.3-6.6,6.3,4.2,5.1,8.3,4.6h0ZM507,655.7c4.1-.5,7.1-3.3,6.6-6.3-.5-3-4.2-5.1-8.4-4.6s-7.1,3.3-6.6,6.3c.5,3,4.2,5.1,8.4,4.7h0ZM537.3,652.3c4.2-.5,7.1-3.3,6.6-6.4s-4.3-5.1-8.4-4.7c-4.1.5-7.1,3.3-6.6,6.4s4.3,5.1,8.4,4.7ZM567.8,648.9c4.2-.5,7.2-3.3,6.7-6.4s-4.3-5.1-8.5-4.7c-4.2.5-7.2,3.3-6.6,6.4s4.3,5.1,8.5,4.7h0ZM598.5,645.4c4.2-.5,7.2-3.3,6.7-6.4-.5-3.1-4.4-5.2-8.6-4.7s-7.2,3.3-6.7,6.4c.5,3.1,4.3,5.2,8.6,4.7h0ZM629.4,641.9c4.2-.5,7.3-3.4,6.7-6.4-.5-3.1-4.4-5.2-8.6-4.7-4.2.5-7.2,3.4-6.7,6.4s4.4,5.2,8.6,4.7h0ZM660.6,638.4c4.3-.5,7.3-3.4,6.7-6.5s-4.4-5.2-8.7-4.7-7.3,3.4-6.7,6.5,4.4,5.2,8.7,4.7h0ZM691.9,634.9c4.3-.5,7.3-3.4,6.8-6.5s-4.5-5.2-8.8-4.7c-4.3.5-7.3,3.4-6.8,6.5s4.5,5.2,8.8,4.7h0ZM723.4,631.4c4.3-.5,7.4-3.4,6.8-6.5s-4.5-5.2-8.9-4.7-7.4,3.4-6.8,6.5,4.5,5.2,8.8,4.7h0ZM755.2,627.8c4.3-.5,7.4-3.4,6.8-6.5-.6-3.1-4.6-5.2-8.9-4.7s-7.4,3.4-6.8,6.5,4.6,5.2,8.9,4.7h0ZM787.2,624.2c4.4-.5,7.5-3.4,6.9-6.5s-4.6-5.2-9-4.8c-4.4.5-7.5,3.4-6.9,6.5.6,3.1,4.6,5.3,9,4.8h0ZM819.4,620.6c4.4-.5,7.5-3.4,6.9-6.6s-4.7-5.3-9.1-4.8-7.5,3.4-6.9,6.6c.6,3.1,4.6,5.3,9.1,4.8h0ZM851.8,616.9c4.4-.5,7.6-3.5,6.9-6.6s-4.7-5.3-9.1-4.8-7.5,3.5-6.9,6.6,4.7,5.3,9.1,4.8h0ZM884.4,613.3c4.5-.5,7.6-3.5,7-6.6s-4.8-5.3-9.2-4.8c-4.5.5-7.6,3.5-7,6.6.6,3.2,4.7,5.3,9.2,4.8h0ZM917.2,609.6c4.5-.5,7.6-3.5,7-6.6s-4.8-5.3-9.3-4.8c-4.5.5-7.6,3.5-7,6.6.6,3.2,4.8,5.3,9.3,4.8h0ZM950.3,605.9c4.5-.5,7.7-3.5,7-6.7s-4.8-5.3-9.4-4.8-7.7,3.5-7,6.7,4.8,5.3,9.4,4.8h0ZM983.6,602.1c4.6-.5,7.7-3.5,7.1-6.7s-4.9-5.3-9.5-4.8-7.7,3.5-7.1,6.7c.7,3.2,4.9,5.3,9.4,4.8h0ZM1017.1,598.4c4.6-.5,7.8-3.5,7.1-6.7-.7-3.2-4.9-5.3-9.5-4.8-4.6.5-7.8,3.5-7.1,6.7.7,3.2,4.9,5.3,9.5,4.8h0ZM188.8,713.4c3.9-.4,6.7-3.2,6.3-6.1-.4-3-3.8-5-7.7-4.6-3.9.4-6.7,3.2-6.3,6.1s3.8,5,7.7,4.6h0ZM217.2,710.3c3.9-.4,6.7-3.2,6.3-6.1-.4-3-3.9-5-7.7-4.6s-6.7,3.2-6.3,6.1,3.9,5,7.7,4.6h0ZM303.2,700.8c4-.4,6.8-3.2,6.4-6.2-.4-3-4-5.1-7.9-4.6-3.9.4-6.8,3.2-6.4,6.2s4,5.1,7.9,4.6h0ZM332.3,697.6c4-.4,6.9-3.2,6.4-6.2s-4-5.1-8-4.6c-4,.4-6.8,3.2-6.4,6.2.4,3,4,5.1,8,4.6h0ZM361.5,694.4c4-.4,6.9-3.2,6.5-6.2s-4.1-5.1-8.1-4.6c-4,.4-6.9,3.2-6.4,6.2.4,3,4.1,5.1,8.1,4.6h0ZM390.9,691.2c4-.4,6.9-3.2,6.5-6.3s-4.1-5.1-8.1-4.6-6.9,3.2-6.5,6.3,4.1,5.1,8.1,4.7h0ZM420.5,687.9c4.1-.4,7-3.3,6.5-6.3s-4.1-5.1-8.2-4.7c-4,.4-7,3.3-6.5,6.3s4.1,5.1,8.2,4.7h0ZM450.4,684.6c4.1-.4,7-3.3,6.5-6.3-.5-3-4.2-5.1-8.3-4.7s-7,3.3-6.5,6.3c.5,3,4.2,5.1,8.2,4.7ZM480.4,681.3c4.1-.5,7.1-3.3,6.6-6.3s-4.2-5.1-8.3-4.7c-4.1.5-7,3.3-6.6,6.3s4.2,5.1,8.3,4.7h0ZM510.6,678c4.1-.5,7.1-3.3,6.6-6.4s-4.3-5.1-8.4-4.7-7.1,3.3-6.6,6.3,4.2,5.2,8.4,4.7h0ZM541,674.7c4.2-.5,7.1-3.3,6.6-6.4s-4.3-5.2-8.5-4.7-7.1,3.3-6.6,6.4,4.3,5.2,8.4,4.7h0ZM571.6,671.3c4.2-.5,7.2-3.3,6.7-6.4s-4.3-5.2-8.5-4.7-7.2,3.3-6.7,6.4,4.3,5.2,8.5,4.7ZM602.3,667.9c4.2-.5,7.2-3.3,6.7-6.4s-4.4-5.2-8.6-4.7-7.2,3.3-6.7,6.4c.5,3.1,4.4,5.2,8.6,4.7h0ZM633.4,664.5c4.2-.5,7.3-3.4,6.7-6.4s-4.4-5.2-8.7-4.7-7.3,3.4-6.7,6.4,4.4,5.2,8.7,4.7h0ZM664.6,661.1c4.3-.5,7.3-3.4,6.8-6.5s-4.5-5.2-8.7-4.7c-4.3.5-7.3,3.4-6.7,6.5s4.4,5.2,8.7,4.8h0ZM696,657.6c4.3-.5,7.4-3.4,6.8-6.5s-4.5-5.2-8.8-4.8c-4.3.5-7.3,3.4-6.8,6.5s4.5,5.2,8.8,4.8ZM727.6,654.1c4.3-.5,7.4-3.4,6.8-6.5-.6-3.1-4.5-5.3-8.9-4.8-4.3.5-7.4,3.4-6.8,6.5s4.5,5.3,8.9,4.8h0ZM759.4,650.6c4.4-.5,7.4-3.4,6.9-6.5s-4.6-5.3-9-4.8-7.4,3.4-6.8,6.5,4.6,5.3,8.9,4.8h0ZM791.5,647.1c4.4-.5,7.5-3.4,6.9-6.6-.6-3.1-4.6-5.3-9-4.8s-7.5,3.4-6.9,6.5,4.6,5.3,9,4.8ZM823.7,643.6c4.4-.5,7.5-3.4,6.9-6.6s-4.7-5.3-9.1-4.8-7.5,3.4-6.9,6.6,4.7,5.3,9.1,4.8h0ZM856.2,640c4.4-.5,7.6-3.4,7-6.6-.6-3.2-4.7-5.3-9.2-4.8-4.4.5-7.6,3.4-6.9,6.6s4.7,5.3,9.2,4.8h0ZM888.9,636.4c4.5-.5,7.6-3.5,7-6.6s-4.8-5.3-9.2-4.8c-4.5.5-7.6,3.5-7,6.6.6,3.2,4.8,5.3,9.2,4.8ZM921.9,632.8c4.5-.5,7.7-3.5,7-6.6-.6-3.2-4.8-5.3-9.3-4.8s-7.7,3.5-7,6.6,4.8,5.3,9.3,4.8h0ZM955,629.1c4.5-.5,7.7-3.5,7.1-6.7s-4.9-5.3-9.4-4.8c-4.5.5-7.7,3.5-7,6.7s4.8,5.4,9.4,4.9h0ZM988.4,625.5c4.6-.5,7.8-3.5,7.1-6.7s-4.9-5.4-9.5-4.9c-4.6.5-7.7,3.5-7.1,6.7s4.9,5.4,9.5,4.9h0ZM1022,621.8c4.6-.5,7.8-3.5,7.1-6.7s-5-5.4-9.6-4.9c-4.6.5-7.8,3.5-7.1,6.7.7,3.2,4.9,5.4,9.5,4.9h0ZM1055.8,618c4.6-.5,7.9-3.5,7.2-6.7-.7-3.2-5-5.4-9.6-4.9-4.6.5-7.8,3.5-7.2,6.7.7,3.2,5,5.4,9.6,4.9h0ZM335.5,719.6c4-.4,6.9-3.2,6.4-6.2s-4-5.1-8-4.7c-4,.4-6.9,3.2-6.4,6.2s4,5.1,8,4.7h0ZM364.8,716.5c4-.4,6.9-3.2,6.5-6.3-.4-3-4.1-5.1-8.1-4.7s-6.9,3.2-6.5,6.2,4.1,5.1,8.1,4.7h0ZM394.3,713.3c4-.4,7-3.2,6.5-6.3-.5-3-4.1-5.1-8.1-4.7s-6.9,3.2-6.5,6.3c.5,3,4.1,5.1,8.1,4.7ZM424,710.1c4.1-.4,7-3.3,6.5-6.3s-4.1-5.1-8.2-4.7c-4.1.4-7,3.3-6.5,6.3s4.1,5.1,8.2,4.7h0ZM453.8,706.9c4.1-.4,7-3.3,6.6-6.3-.5-3-4.2-5.2-8.3-4.7-4.1.4-7,3.3-6.5,6.3s4.2,5.2,8.3,4.7h0ZM483.9,703.6c4.1-.4,7.1-3.3,6.6-6.3-.5-3.1-4.2-5.2-8.3-4.7s-7.1,3.3-6.6,6.3,4.2,5.2,8.3,4.7h0ZM514.2,700.4c4.1-.4,7.1-3.3,6.6-6.4-.5-3.1-4.3-5.2-8.4-4.7s-7.1,3.3-6.6,6.4,4.3,5.2,8.4,4.7ZM544.7,697.1c4.2-.4,7.2-3.3,6.7-6.4-.5-3.1-4.3-5.2-8.5-4.7-4.2.5-7.1,3.3-6.6,6.4s4.3,5.2,8.5,4.8h0ZM575.3,693.8c4.2-.5,7.2-3.3,6.7-6.4s-4.3-5.2-8.5-4.8-7.2,3.3-6.7,6.4c.5,3.1,4.3,5.2,8.5,4.8h0ZM606.2,690.5c4.2-.5,7.2-3.3,6.7-6.4-.5-3.1-4.4-5.2-8.6-4.8-4.2.5-7.2,3.3-6.7,6.4.5,3.1,4.4,5.2,8.6,4.8h0ZM637.3,687.2c4.3-.5,7.3-3.3,6.7-6.5s-4.4-5.2-8.7-4.8c-4.2.5-7.3,3.3-6.7,6.4s4.4,5.2,8.7,4.8h0ZM668.6,683.8c4.3-.5,7.3-3.4,6.8-6.5s-4.5-5.3-8.8-4.8-7.3,3.4-6.8,6.5,4.5,5.2,8.7,4.8h0ZM700.1,680.4c4.3-.5,7.4-3.4,6.8-6.5s-4.5-5.3-8.8-4.8c-4.3.5-7.4,3.4-6.8,6.5s4.5,5.3,8.8,4.8h0ZM731.8,677c4.3-.5,7.4-3.4,6.8-6.5s-4.6-5.3-8.9-4.8-7.4,3.4-6.8,6.5c.6,3.1,4.5,5.3,8.9,4.8h0ZM763.7,673.6c4.4-.5,7.5-3.4,6.9-6.5-.6-3.1-4.6-5.3-9-4.8-4.4.5-7.4,3.4-6.9,6.5s4.6,5.3,9,4.8h0ZM795.8,670.1c4.4-.5,7.5-3.4,6.9-6.6-.6-3.2-4.6-5.3-9-4.8s-7.5,3.4-6.9,6.6,4.6,5.3,9,4.8h0ZM828.1,666.6c4.4-.5,7.5-3.4,6.9-6.6s-4.7-5.3-9.1-4.8c-4.4.5-7.5,3.4-6.9,6.6s4.7,5.3,9.1,4.9ZM860.7,663.1c4.5-.5,7.6-3.4,7-6.6s-4.7-5.3-9.2-4.9-7.6,3.4-7,6.6,4.7,5.3,9.2,4.9h0ZM893.5,659.6c4.5-.5,7.6-3.5,7-6.6s-4.8-5.4-9.3-4.9-7.6,3.5-7,6.6,4.8,5.4,9.3,4.9ZM926.5,656.1c4.5-.5,7.7-3.5,7-6.7s-4.8-5.4-9.4-4.9-7.7,3.5-7,6.6c.6,3.2,4.8,5.4,9.3,4.9h0ZM959.8,652.5c4.6-.5,7.7-3.5,7.1-6.7s-4.9-5.4-9.4-4.9c-4.5.5-7.7,3.5-7.1,6.7.6,3.2,4.9,5.4,9.4,4.9h0ZM993.2,648.9c4.6-.5,7.8-3.5,7.1-6.7s-4.9-5.4-9.5-4.9-7.8,3.5-7.1,6.7,4.9,5.4,9.5,4.9ZM1026.9,645.2c4.6-.5,7.8-3.5,7.2-6.7s-5-5.4-9.6-4.9c-4.6.5-7.8,3.5-7.1,6.7.7,3.2,5,5.4,9.6,4.9h0ZM1060.8,641.6c4.7-.5,7.9-3.5,7.2-6.8s-5-5.4-9.7-4.9c-4.6.5-7.9,3.5-7.2,6.7s5,5.4,9.7,4.9h0ZM1095,637.9c4.7-.5,7.9-3.5,7.2-6.8s-5.1-5.4-9.8-4.9c-4.7.5-7.9,3.5-7.2,6.8s5.1,5.5,9.7,4.9h0ZM397.6,735.5c4.1-.4,7-3.2,6.5-6.3s-4.1-5.2-8.2-4.7-7,3.2-6.5,6.3c.5,3,4.1,5.2,8.2,4.7h0ZM427.4,732.4c4.1-.4,7-3.3,6.5-6.3s-4.2-5.2-8.2-4.7c-4.1.4-7,3.2-6.5,6.3s4.1,5.2,8.2,4.7h0ZM457.3,729.2c4.1-.4,7.1-3.3,6.6-6.3s-4.2-5.2-8.3-4.7c-4.1.4-7,3.3-6.6,6.3s4.2,5.2,8.3,4.7h0ZM487.5,726.1c4.1-.4,7.1-3.3,6.6-6.3-.5-3.1-4.2-5.2-8.4-4.8s-7.1,3.3-6.6,6.3,4.2,5.2,8.4,4.8h0ZM517.8,722.9c4.2-.4,7.1-3.3,6.6-6.4s-4.3-5.2-8.4-4.8c-4.2.4-7.1,3.3-6.6,6.4s4.3,5.2,8.4,4.8ZM548.4,719.7c4.2-.4,7.2-3.3,6.7-6.4s-4.3-5.2-8.5-4.8c-4.2.4-7.2,3.3-6.7,6.4s4.3,5.2,8.5,4.8h0ZM579.1,716.4c4.2-.4,7.2-3.3,6.7-6.4s-4.4-5.2-8.6-4.8-7.2,3.3-6.7,6.4,4.3,5.2,8.6,4.8h0ZM610.1,713.2c4.2-.4,7.3-3.3,6.7-6.4s-4.4-5.3-8.6-4.8c-4.2.5-7.2,3.3-6.7,6.4.5,3.1,4.4,5.3,8.6,4.8h0ZM641.2,709.9c4.3-.4,7.3-3.3,6.8-6.5s-4.4-5.3-8.7-4.8-7.3,3.3-6.7,6.5c.5,3.1,4.4,5.3,8.7,4.8h0ZM672.6,706.6c4.3-.5,7.3-3.4,6.8-6.5-.6-3.1-4.5-5.3-8.8-4.8s-7.3,3.4-6.8,6.5c.5,3.1,4.5,5.3,8.8,4.8h0ZM704.1,703.3c4.3-.5,7.4-3.4,6.8-6.5s-4.5-5.3-8.9-4.8-7.4,3.4-6.8,6.5,4.5,5.3,8.8,4.8ZM735.9,699.9c4.4-.5,7.4-3.4,6.9-6.5s-4.6-5.3-8.9-4.8c-4.4.5-7.4,3.4-6.8,6.5s4.6,5.3,8.9,4.9h0ZM767.9,696.6c4.4-.5,7.5-3.4,6.9-6.5s-4.6-5.3-9-4.9c-4.4.5-7.5,3.4-6.9,6.5s4.6,5.3,9,4.9h0ZM800.1,693.2c4.4-.5,7.5-3.4,6.9-6.6s-4.7-5.3-9.1-4.9-7.5,3.4-6.9,6.6,4.6,5.3,9.1,4.9h0ZM832.6,689.8c4.4-.5,7.6-3.4,7-6.6s-4.7-5.4-9.2-4.9c-4.4.5-7.6,3.4-6.9,6.6s4.7,5.4,9.1,4.9h0ZM865.2,686.4c4.5-.5,7.6-3.4,7-6.6s-4.8-5.4-9.2-4.9c-4.5.5-7.6,3.4-7,6.6s4.7,5.4,9.2,4.9h0ZM898.1,682.9c4.5-.5,7.7-3.4,7-6.6-.6-3.2-4.8-5.4-9.3-4.9s-7.6,3.4-7,6.6,4.8,5.4,9.3,4.9h0ZM931.2,679.4c4.5-.5,7.7-3.5,7.1-6.7s-4.8-5.4-9.4-4.9-7.7,3.5-7,6.7,4.8,5.4,9.4,4.9h0ZM964.5,675.9c4.6-.5,7.8-3.5,7.1-6.7s-4.9-5.4-9.5-4.9c-4.6.5-7.7,3.5-7.1,6.7.7,3.2,4.9,5.4,9.5,4.9h0ZM998.1,672.4c4.6-.5,7.8-3.5,7.1-6.7s-4.9-5.4-9.5-4.9-7.8,3.5-7.1,6.7,4.9,5.4,9.5,4.9h0ZM1031.9,668.9c4.6-.5,7.9-3.5,7.2-6.7s-5-5.4-9.6-5c-4.6.5-7.8,3.5-7.2,6.7.7,3.2,5,5.4,9.6,5h0ZM1065.9,665.3c4.7-.5,7.9-3.5,7.2-6.8-.7-3.2-5-5.5-9.7-5-4.7.5-7.9,3.5-7.2,6.8.7,3.2,5,5.5,9.7,5h0ZM1100.1,661.7c4.7-.5,7.9-3.5,7.2-6.8s-5.1-5.5-9.8-5-7.9,3.5-7.2,6.8c.7,3.2,5.1,5.5,9.8,5h0ZM1134.6,658c4.7-.5,8-3.5,7.3-6.8s-5.1-5.5-9.9-5-8,3.5-7.3,6.8,5.1,5.5,9.8,5h0ZM401,757.8c4.1-.4,7-3.2,6.5-6.3-.5-3-4.1-5.2-8.2-4.8s-7,3.2-6.5,6.3,4.1,5.2,8.2,4.8h0ZM430.8,754.7c4.1-.4,7-3.2,6.6-6.3s-4.2-5.2-8.3-4.8-7,3.2-6.5,6.3c.5,3.1,4.2,5.2,8.2,4.8ZM460.8,751.7c4.1-.4,7.1-3.3,6.6-6.3s-4.2-5.2-8.3-4.8-7,3.3-6.6,6.3,4.2,5.2,8.3,4.8h0ZM491.1,748.6c4.1-.4,7.1-3.3,6.6-6.4-.5-3.1-4.2-5.2-8.4-4.8s-7.1,3.3-6.6,6.3,4.2,5.2,8.4,4.8h0ZM521.5,745.4c4.2-.4,7.1-3.3,6.7-6.4-.5-3.1-4.3-5.2-8.5-4.8-4.2.4-7.1,3.3-6.6,6.4s4.3,5.2,8.4,4.8h0ZM552.1,742.3c4.2-.4,7.2-3.3,6.7-6.4s-4.3-5.3-8.5-4.8-7.2,3.3-6.7,6.4,4.3,5.3,8.5,4.8ZM582.9,739.1c4.2-.4,7.2-3.3,6.7-6.4s-4.4-5.3-8.6-4.8c-4.2.4-7.2,3.3-6.7,6.4s4.4,5.3,8.6,4.8h0ZM613.9,735.9c4.3-.4,7.3-3.3,6.7-6.4-.5-3.1-4.4-5.3-8.7-4.8s-7.3,3.3-6.7,6.4,4.4,5.3,8.7,4.9ZM645.2,732.7c4.3-.4,7.3-3.3,6.8-6.5s-4.5-5.3-8.7-4.9c-4.3.4-7.3,3.3-6.8,6.5s4.4,5.3,8.7,4.9h0ZM676.6,729.5c4.3-.4,7.4-3.3,6.8-6.5s-4.5-5.3-8.8-4.9c-4.3.4-7.3,3.4-6.8,6.5.6,3.1,4.5,5.3,8.8,4.9h0ZM708.3,726.3c4.3-.4,7.4-3.4,6.8-6.5s-4.5-5.3-8.9-4.9-7.4,3.4-6.8,6.5,4.5,5.3,8.9,4.9h0ZM740.1,723c4.4-.5,7.5-3.4,6.9-6.5s-4.6-5.3-9-4.9-7.4,3.4-6.9,6.5,4.6,5.3,8.9,4.9h0ZM772.2,719.7c4.4-.5,7.5-3.4,6.9-6.5s-4.6-5.4-9-4.9-7.5,3.4-6.9,6.5c.6,3.2,4.6,5.4,9,4.9h0ZM804.5,716.4c4.4-.5,7.5-3.4,6.9-6.6s-4.7-5.4-9.1-4.9-7.5,3.4-6.9,6.6,4.7,5.4,9.1,4.9h0ZM837,713.1c4.5-.5,7.6-3.4,7-6.6s-4.7-5.4-9.2-4.9-7.6,3.4-7,6.6c.6,3.2,4.7,5.4,9.2,4.9h0ZM869.8,709.7c4.5-.5,7.6-3.4,7-6.6-.6-3.2-4.8-5.4-9.3-4.9-4.5.5-7.6,3.4-7,6.6.6,3.2,4.8,5.4,9.2,4.9ZM902.7,706.3c4.5-.5,7.7-3.4,7-6.6s-4.8-5.4-9.3-4.9-7.7,3.4-7,6.6c.6,3.2,4.8,5.4,9.3,5h0ZM935.9,702.9c4.5-.5,7.7-3.5,7.1-6.7-.6-3.2-4.9-5.4-9.4-5-4.5.5-7.7,3.5-7.1,6.7.6,3.2,4.8,5.4,9.4,5h0ZM969.3,699.5c4.6-.5,7.8-3.5,7.1-6.7s-4.9-5.4-9.5-5-7.8,3.5-7.1,6.7c.7,3.2,4.9,5.5,9.5,5h0ZM1003,696c4.6-.5,7.8-3.5,7.2-6.7s-5-5.5-9.6-5-7.8,3.5-7.1,6.7,4.9,5.5,9.6,5ZM1036.8,692.5c4.7-.5,7.9-3.5,7.2-6.7-.7-3.2-5-5.5-9.7-5-4.6.5-7.8,3.5-7.2,6.7s5,5.5,9.6,5h0ZM1070.9,689c4.7-.5,7.9-3.5,7.2-6.8s-5.1-5.5-9.7-5c-4.7.5-7.9,3.5-7.2,6.8s5,5.5,9.7,5h0ZM1105.3,685.5c4.7-.5,8-3.5,7.3-6.8s-5.1-5.5-9.8-5c-4.7.5-7.9,3.5-7.2,6.8s5.1,5.5,9.8,5ZM1139.9,682c4.7-.5,8-3.5,7.3-6.8s-5.2-5.5-9.9-5-8,3.5-7.3,6.8,5.1,5.5,9.9,5h0ZM1174.7,678.4c4.8-.5,8.1-3.6,7.3-6.8-.7-3.3-5.2-5.5-10-5s-8,3.6-7.3,6.8,5.2,5.6,10,5.1h0ZM434.3,777.2c4.1-.4,7-3.2,6.6-6.3-.5-3.1-4.2-5.2-8.3-4.8-4.1.4-7,3.2-6.6,6.3.5,3.1,4.2,5.2,8.3,4.8ZM464.4,774.2c4.1-.4,7.1-3.3,6.6-6.3s-4.2-5.2-8.3-4.8c-4.1.4-7.1,3.2-6.6,6.3s4.2,5.2,8.3,4.8ZM494.7,771.1c4.2-.4,7.1-3.3,6.6-6.4s-4.3-5.3-8.4-4.8c-4.1.4-7.1,3.3-6.6,6.4s4.2,5.3,8.4,4.8ZM525.1,768.1c4.2-.4,7.2-3.3,6.7-6.4-.5-3.1-4.3-5.3-8.5-4.9-4.2.4-7.1,3.3-6.7,6.4s4.3,5.3,8.5,4.9h0ZM555.8,765c4.2-.4,7.2-3.3,6.7-6.4-.5-3.1-4.3-5.3-8.6-4.9-4.2.4-7.2,3.3-6.7,6.4s4.3,5.3,8.5,4.9h0ZM586.7,761.9c4.2-.4,7.2-3.3,6.7-6.4s-4.4-5.3-8.6-4.9-7.2,3.3-6.7,6.4c.5,3.1,4.4,5.3,8.6,4.9h0ZM617.8,758.8c4.3-.4,7.3-3.3,6.8-6.5-.5-3.1-4.4-5.3-8.7-4.9s-7.3,3.3-6.7,6.4,4.4,5.3,8.7,4.9ZM649.2,755.7c4.3-.4,7.3-3.3,6.8-6.5s-4.5-5.3-8.8-4.9c-4.3.4-7.3,3.3-6.8,6.5.5,3.1,4.5,5.3,8.7,4.9h0ZM680.7,752.5c4.3-.4,7.4-3.3,6.8-6.5s-4.5-5.3-8.8-4.9-7.4,3.3-6.8,6.5c.6,3.2,4.5,5.4,8.8,4.9h0ZM712.4,749.3c4.3-.4,7.4-3.3,6.9-6.5s-4.6-5.4-8.9-4.9c-4.3.4-7.4,3.3-6.8,6.5s4.5,5.4,8.9,4.9h0ZM744.3,746.1c4.4-.4,7.5-3.4,6.9-6.5-.6-3.2-4.6-5.4-9-4.9-4.4.4-7.5,3.4-6.9,6.5s4.6,5.4,9,4.9h0ZM776.5,742.9c4.4-.4,7.5-3.4,6.9-6.6s-4.6-5.4-9.1-4.9c-4.4.4-7.5,3.4-6.9,6.5s4.6,5.4,9,5h0ZM808.9,739.7c4.4-.4,7.6-3.4,7-6.6s-4.7-5.4-9.1-5c-4.4.5-7.5,3.4-6.9,6.6.6,3.2,4.7,5.4,9.1,5ZM841.5,736.4c4.5-.5,7.6-3.4,7-6.6s-4.7-5.4-9.2-5c-4.5.5-7.6,3.4-7,6.6.6,3.2,4.7,5.4,9.2,5h0ZM874.3,733.1c4.5-.5,7.7-3.4,7-6.6-.6-3.2-4.8-5.4-9.3-5-4.5.5-7.6,3.4-7,6.6.6,3.2,4.8,5.4,9.3,5ZM907.3,729.8c4.5-.4,7.7-3.4,7.1-6.7s-4.8-5.5-9.4-5c-4.5.5-7.7,3.4-7,6.6s4.8,5.5,9.4,5h0ZM940.6,726.5c4.6-.5,7.7-3.4,7.1-6.7s-4.9-5.5-9.4-5-7.7,3.4-7.1,6.7,4.9,5.5,9.4,5h0ZM974.1,723.1c4.6-.5,7.8-3.5,7.1-6.7s-4.9-5.5-9.5-5c-4.6.5-7.8,3.5-7.1,6.7s4.9,5.5,9.5,5ZM1007.9,719.8c4.6-.5,7.8-3.5,7.2-6.7s-5-5.5-9.6-5c-4.6.5-7.8,3.5-7.2,6.7s5,5.5,9.6,5h0ZM1041.8,716.3c4.7-.5,7.9-3.5,7.2-6.8s-5-5.5-9.7-5c-4.6.5-7.9,3.5-7.2,6.7.7,3.3,5,5.5,9.7,5.1h0ZM1076,712.9c4.7-.5,7.9-3.5,7.2-6.8s-5.1-5.5-9.8-5.1c-4.7.5-7.9,3.5-7.2,6.8s5.1,5.5,9.7,5.1ZM1110.5,709.5c4.7-.5,8-3.5,7.3-6.8s-5.1-5.5-9.8-5.1c-4.7.5-8,3.5-7.3,6.8s5.1,5.6,9.8,5.1ZM1145.1,706c4.8-.5,8-3.5,7.3-6.8s-5.2-5.6-9.9-5.1c-4.7.5-8,3.5-7.3,6.8.7,3.3,5.2,5.6,9.9,5.1h0ZM1180.1,702.5c4.8-.5,8.1-3.5,7.4-6.9-.7-3.3-5.2-5.6-10-5.1-4.8.5-8.1,3.5-7.3,6.8.7,3.3,5.2,5.6,10,5.1ZM1215.2,699c4.8-.5,8.1-3.6,7.4-6.9s-5.3-5.6-10.1-5.1c-4.8.5-8.1,3.6-7.4,6.9.7,3.3,5.3,5.6,10.1,5.1h0ZM467.9,796.8c4.1-.4,7.1-3.2,6.6-6.3s-4.2-5.3-8.4-4.9c-4.1.4-7.1,3.2-6.6,6.3.5,3.1,4.2,5.3,8.4,4.9h0ZM498.2,793.8c4.2-.4,7.1-3.3,6.6-6.4s-4.3-5.3-8.4-4.9-7.1,3.3-6.6,6.4c.5,3.1,4.3,5.3,8.4,4.9h0ZM528.8,790.8c4.2-.4,7.2-3.3,6.7-6.4s-4.3-5.3-8.5-4.9-7.2,3.3-6.7,6.4,4.3,5.3,8.5,4.9h0ZM559.6,787.8c4.2-.4,7.2-3.3,6.7-6.4-.5-3.1-4.4-5.3-8.6-4.9-4.2.4-7.2,3.3-6.7,6.4.5,3.1,4.3,5.3,8.6,4.9h0ZM590.6,784.8c4.2-.4,7.3-3.3,6.7-6.4s-4.4-5.3-8.6-4.9c-4.2.4-7.2,3.3-6.7,6.4s4.4,5.3,8.6,4.9ZM621.8,781.8c4.3-.4,7.3-3.3,6.8-6.5s-4.4-5.3-8.7-4.9c-4.3.4-7.3,3.3-6.8,6.4s4.4,5.3,8.7,4.9h0ZM653.1,778.7c4.3-.4,7.4-3.3,6.8-6.5s-4.5-5.4-8.8-4.9-7.3,3.3-6.8,6.5,4.5,5.4,8.8,4.9ZM684.7,775.6c4.3-.4,7.4-3.3,6.8-6.5-.6-3.2-4.5-5.4-8.9-4.9-4.3.4-7.4,3.3-6.8,6.5.6,3.2,4.5,5.4,8.8,5h0ZM716.6,772.5c4.4-.4,7.4-3.3,6.9-6.5s-4.6-5.4-8.9-5c-4.4.4-7.4,3.3-6.9,6.5.6,3.2,4.6,5.4,8.9,5ZM748.6,769.4c4.4-.4,7.5-3.4,6.9-6.5s-4.6-5.4-9-5-7.5,3.4-6.9,6.5c.6,3.2,4.6,5.4,9,5h0ZM780.8,766.2c4.4-.4,7.5-3.4,6.9-6.6-.6-3.2-4.7-5.4-9.1-5-4.4.4-7.5,3.4-6.9,6.6s4.6,5.4,9.1,5h0ZM813.3,763.1c4.4-.4,7.6-3.4,7-6.6s-4.7-5.4-9.2-5c-4.4.4-7.6,3.4-7,6.6s4.7,5.4,9.1,5h0ZM846,759.9c4.5-.4,7.6-3.4,7-6.6s-4.7-5.5-9.2-5-7.6,3.4-7,6.6c.6,3.2,4.7,5.5,9.2,5h0ZM878.9,756.7c4.5-.4,7.7-3.4,7-6.6-.6-3.2-4.8-5.5-9.3-5s-7.7,3.4-7,6.6c.6,3.2,4.8,5.5,9.3,5ZM912,753.4c4.5-.4,7.7-3.4,7.1-6.7s-4.8-5.5-9.4-5c-4.5.4-7.7,3.4-7.1,6.7.6,3.2,4.8,5.5,9.4,5h0ZM945.4,750.2c4.6-.4,7.8-3.4,7.1-6.7s-4.9-5.5-9.5-5c-4.6.4-7.8,3.4-7.1,6.7.7,3.2,4.9,5.5,9.5,5.1h0ZM979,746.9c4.6-.4,7.8-3.5,7.1-6.7-.7-3.3-4.9-5.5-9.5-5.1s-7.8,3.5-7.1,6.7c.7,3.3,4.9,5.5,9.5,5.1h0ZM1012.8,743.6c4.6-.5,7.9-3.5,7.2-6.7s-5-5.5-9.6-5.1-7.8,3.5-7.2,6.7c.7,3.3,5,5.5,9.6,5.1h0ZM1046.8,740.3c4.7-.5,7.9-3.5,7.2-6.8-.7-3.3-5-5.6-9.7-5.1-4.7.5-7.9,3.5-7.2,6.8s5,5.5,9.7,5.1h0ZM1081.1,736.9c4.7-.5,8-3.5,7.3-6.8-.7-3.3-5.1-5.6-9.8-5.1-4.7.5-7.9,3.5-7.2,6.8.7,3.3,5.1,5.6,9.8,5.1h0ZM1115.7,733.5c4.7-.5,8-3.5,7.3-6.8s-5.1-5.6-9.9-5.1-8,3.5-7.3,6.8c.7,3.3,5.1,5.6,9.9,5.1h0ZM1150.4,730.1c4.8-.5,8.1-3.5,7.3-6.8s-5.2-5.6-10-5.1c-4.8.5-8,3.5-7.3,6.8.7,3.3,5.2,5.6,9.9,5.1ZM1185.5,726.7c4.8-.5,8.1-3.5,7.4-6.9-.7-3.3-5.2-5.6-10-5.1-4.8.5-8.1,3.5-7.4,6.9s5.2,5.6,10,5.1h0ZM1220.7,723.3c4.8-.5,8.2-3.6,7.4-6.9s-5.3-5.6-10.1-5.2c-4.8.5-8.1,3.6-7.4,6.9s5.3,5.6,10.1,5.2h0ZM501.9,816.6c4.2-.4,7.2-3.3,6.7-6.4s-4.3-5.3-8.5-4.9c-4.2.4-7.1,3.3-6.7,6.4s4.3,5.3,8.4,4.9h0ZM532.5,813.7c4.2-.4,7.2-3.3,6.7-6.4s-4.3-5.3-8.5-4.9-7.2,3.3-6.7,6.4,4.3,5.3,8.5,4.9h0ZM563.4,810.8c4.2-.4,7.2-3.3,6.7-6.4-.5-3.1-4.4-5.3-8.6-4.9-4.2.4-7.2,3.3-6.7,6.4s4.4,5.3,8.6,4.9ZM594.4,807.8c4.3-.4,7.3-3.3,6.8-6.4s-4.4-5.4-8.7-5-7.3,3.3-6.7,6.4,4.4,5.4,8.7,5ZM625.7,804.8c4.3-.4,7.3-3.3,6.8-6.5-.5-3.2-4.5-5.4-8.7-5s-7.3,3.3-6.8,6.5,4.4,5.4,8.7,5ZM657.2,801.8c4.3-.4,7.4-3.3,6.8-6.5s-4.5-5.4-8.8-5c-4.3.4-7.4,3.3-6.8,6.5.5,3.2,4.5,5.4,8.8,5h0ZM688.8,798.8c4.3-.4,7.4-3.3,6.9-6.5s-4.5-5.4-8.9-5c-4.3.4-7.4,3.3-6.8,6.5s4.5,5.4,8.9,5h0ZM720.7,795.8c4.4-.4,7.5-3.3,6.9-6.5-.6-3.2-4.6-5.4-9-5s-7.4,3.3-6.9,6.5,4.6,5.4,8.9,5h0ZM752.8,792.7c4.4-.4,7.5-3.4,6.9-6.5s-4.6-5.4-9-5-7.5,3.3-6.9,6.5,4.6,5.4,9,5h0ZM785.2,789.6c4.4-.4,7.6-3.4,7-6.6-.6-3.2-4.7-5.5-9.1-5s-7.5,3.4-6.9,6.6c.6,3.2,4.7,5.5,9.1,5h0ZM817.7,786.6c4.5-.4,7.6-3.4,7-6.6s-4.7-5.5-9.2-5c-4.5.4-7.6,3.4-7,6.6s4.7,5.5,9.2,5.1h0ZM850.5,783.4c4.5-.4,7.6-3.4,7-6.6-.6-3.2-4.8-5.5-9.3-5.1s-7.6,3.4-7,6.6c.6,3.2,4.7,5.5,9.2,5.1h0ZM883.5,780.3c4.5-.4,7.7-3.4,7.1-6.6s-4.8-5.5-9.3-5.1c-4.5.4-7.7,3.4-7,6.6.6,3.2,4.8,5.5,9.3,5.1h0ZM916.7,777.1c4.6-.4,7.7-3.4,7.1-6.7s-4.9-5.5-9.4-5.1-7.7,3.4-7.1,6.7,4.8,5.5,9.4,5.1h0ZM950.1,773.9c4.6-.4,7.8-3.4,7.1-6.7s-4.9-5.5-9.5-5.1c-4.6.4-7.8,3.4-7.1,6.7s4.9,5.5,9.5,5.1h0ZM983.8,770.7c4.6-.4,7.8-3.5,7.2-6.7s-5-5.5-9.6-5.1c-4.6.4-7.8,3.5-7.2,6.7s4.9,5.6,9.6,5.1h0ZM1017.7,767.5c4.6-.4,7.9-3.5,7.2-6.7s-5-5.6-9.7-5.1-7.9,3.5-7.2,6.7c.7,3.3,5,5.6,9.6,5.1ZM1051.9,764.3c4.7-.4,7.9-3.5,7.2-6.8s-5.1-5.6-9.7-5.1c-4.7.4-7.9,3.5-7.2,6.8.7,3.3,5,5.6,9.7,5.1h0ZM1086.3,761c4.7-.4,8-3.5,7.3-6.8-.7-3.3-5.1-5.6-9.8-5.1-4.7.5-8,3.5-7.3,6.8.7,3.3,5.1,5.6,9.8,5.2ZM1120.9,757.7c4.7-.5,8-3.5,7.3-6.8s-5.2-5.6-9.9-5.2c-4.7.5-8,3.5-7.3,6.8s5.1,5.6,9.9,5.2h0ZM1155.8,754.4c4.8-.5,8.1-3.5,7.4-6.8s-5.2-5.6-10-5.2c-4.8.5-8.1,3.5-7.3,6.8s5.2,5.6,10,5.2h0ZM1190.9,751c4.8-.5,8.1-3.5,7.4-6.9-.7-3.3-5.3-5.7-10.1-5.2-4.8.5-8.1,3.5-7.4,6.9s5.2,5.7,10,5.2ZM1226.2,747.7c4.9-.5,8.2-3.5,7.4-6.9s-5.3-5.7-10.1-5.2c-4.8.5-8.2,3.5-7.4,6.9s5.3,5.7,10.1,5.2h0ZM444.7,845.1c4.1-.4,7.1-3.2,6.6-6.3-.5-3.1-4.2-5.3-8.3-4.9-4.1.4-7.1,3.2-6.6,6.3s4.2,5.3,8.3,4.9h0ZM475,842.3c4.2-.4,7.1-3.2,6.6-6.4s-4.3-5.3-8.4-4.9-7.1,3.2-6.6,6.3c.5,3.1,4.2,5.3,8.4,4.9h0ZM505.5,839.5c4.2-.4,7.2-3.2,6.7-6.4s-4.3-5.3-8.5-5c-4.2.4-7.2,3.2-6.7,6.4s4.3,5.3,8.5,5ZM536.2,836.6c4.2-.4,7.2-3.3,6.7-6.4s-4.3-5.4-8.6-5-7.2,3.3-6.7,6.4,4.3,5.4,8.5,5h0ZM567.2,833.8c4.2-.4,7.3-3.3,6.7-6.4-.5-3.1-4.4-5.4-8.6-5-4.2.4-7.2,3.3-6.7,6.4.5,3.1,4.4,5.4,8.6,5h0ZM598.3,830.9c4.3-.4,7.3-3.3,6.8-6.4s-4.4-5.4-8.7-5-7.3,3.3-6.8,6.4,4.4,5.4,8.7,5h0ZM629.6,828c4.3-.4,7.3-3.3,6.8-6.5s-4.5-5.4-8.8-5c-4.3.4-7.3,3.3-6.8,6.5.5,3.2,4.5,5.4,8.8,5h0ZM661.2,825c4.3-.4,7.4-3.3,6.8-6.5s-4.5-5.4-8.8-5c-4.3.4-7.4,3.3-6.8,6.5.5,3.2,4.5,5.4,8.8,5h0ZM692.9,822.1c4.4-.4,7.4-3.3,6.9-6.5s-4.6-5.4-8.9-5c-4.3.4-7.4,3.3-6.9,6.5.6,3.2,4.5,5.4,8.9,5ZM724.9,819.1c4.4-.4,7.5-3.3,6.9-6.5s-4.6-5.5-9-5.1c-4.4.4-7.5,3.3-6.9,6.5s4.6,5.5,9,5h0ZM757.1,816.2c4.4-.4,7.5-3.3,6.9-6.6s-4.6-5.5-9.1-5.1-7.5,3.3-6.9,6.5c.6,3.2,4.6,5.5,9,5.1h0ZM789.5,813.2c4.4-.4,7.6-3.4,7-6.6-.6-3.2-4.7-5.5-9.1-5.1-4.4.4-7.6,3.4-7,6.6s4.7,5.5,9.1,5.1h0ZM822.1,810.1c4.5-.4,7.6-3.4,7-6.6-.6-3.2-4.7-5.5-9.2-5.1-4.5.4-7.6,3.4-7,6.6s4.7,5.5,9.2,5.1h0ZM855,807.1c4.5-.4,7.7-3.4,7-6.6s-4.8-5.5-9.3-5.1c-4.5.4-7.6,3.4-7,6.6.6,3.2,4.8,5.5,9.3,5.1ZM888.1,804c4.5-.4,7.7-3.4,7.1-6.6-.6-3.3-4.8-5.5-9.4-5.1-4.5.4-7.7,3.4-7.1,6.6.6,3.2,4.8,5.5,9.4,5.1h0ZM921.4,800.9c4.6-.4,7.8-3.4,7.1-6.7s-4.9-5.6-9.4-5.1c-4.6.4-7.7,3.4-7.1,6.7s4.9,5.6,9.4,5.1h0ZM954.9,797.8c4.6-.4,7.8-3.4,7.1-6.7s-4.9-5.6-9.5-5.1c-4.6.4-7.8,3.4-7.1,6.7.7,3.3,4.9,5.6,9.5,5.1h0ZM988.7,794.7c4.6-.4,7.9-3.4,7.2-6.7s-5-5.6-9.6-5.2-7.8,3.4-7.2,6.7,5,5.6,9.6,5.2h0ZM1022.7,791.5c4.7-.4,7.9-3.5,7.2-6.7-.7-3.3-5-5.6-9.7-5.2s-7.9,3.5-7.2,6.7c.7,3.3,5,5.6,9.7,5.2h0ZM1056.9,788.4c4.7-.4,8-3.5,7.3-6.8s-5.1-5.6-9.8-5.2-7.9,3.5-7.2,6.8c.7,3.3,5.1,5.6,9.7,5.2ZM1091.4,785.2c4.7-.4,8-3.5,7.3-6.8s-5.1-5.6-9.8-5.2-8,3.5-7.3,6.8,5.1,5.6,9.8,5.2h0ZM1126.1,782c4.8-.4,8.1-3.5,7.3-6.8s-5.2-5.7-9.9-5.2-8,3.5-7.3,6.8c.7,3.3,5.2,5.7,9.9,5.2h0ZM1161.1,778.7c4.8-.4,8.1-3.5,7.4-6.9-.7-3.3-5.2-5.7-10-5.2s-8.1,3.5-7.4,6.8c.7,3.3,5.2,5.7,10,5.2ZM1196.3,775.5c4.8-.4,8.2-3.5,7.4-6.9s-5.3-5.7-10.1-5.2-8.1,3.5-7.4,6.9c.7,3.3,5.2,5.7,10.1,5.2h0ZM1231.8,772.2c4.9-.5,8.2-3.5,7.4-6.9s-5.3-5.7-10.2-5.3c-4.8.5-8.2,3.5-7.4,6.9.8,3.4,5.3,5.7,10.2,5.3h0ZM388,873.4c4.1-.4,7-3.2,6.6-6.3-.5-3.1-4.1-5.3-8.2-4.9-4.1.4-7,3.2-6.6,6.3s4.1,5.3,8.2,5h0ZM418,870.7c4.1-.4,7.1-3.2,6.6-6.3-.5-3.1-4.2-5.3-8.3-5s-7.1,3.2-6.6,6.3c.5,3.1,4.2,5.3,8.3,5h0ZM448.2,867.9c4.1-.4,7.1-3.2,6.6-6.3-.5-3.1-4.2-5.3-8.4-5s-7.1,3.2-6.6,6.3,4.2,5.4,8.4,5h0ZM478.6,865.2c4.2-.4,7.2-3.2,6.7-6.4s-4.3-5.4-8.4-5-7.1,3.2-6.7,6.4c.5,3.1,4.3,5.4,8.4,5ZM509.2,862.4c4.2-.4,7.2-3.2,6.7-6.4s-4.3-5.4-8.5-5c-4.2.4-7.2,3.2-6.7,6.4s4.3,5.4,8.5,5h0ZM540,859.7c4.2-.4,7.2-3.3,6.7-6.4s-4.4-5.4-8.6-5-7.2,3.3-6.7,6.4,4.3,5.4,8.6,5h0ZM571,856.9c4.3-.4,7.3-3.3,6.8-6.4-.5-3.2-4.4-5.4-8.6-5s-7.3,3.3-6.7,6.4c.5,3.2,4.4,5.4,8.6,5ZM602.2,854.1c4.3-.4,7.3-3.3,6.8-6.5s-4.4-5.4-8.7-5c-4.3.4-7.3,3.3-6.8,6.4s4.4,5.4,8.7,5ZM633.6,851.2c4.3-.4,7.4-3.3,6.8-6.5s-4.5-5.4-8.8-5c-4.3.4-7.3,3.3-6.8,6.5.5,3.2,4.5,5.4,8.8,5.1ZM665.2,848.4c4.3-.4,7.4-3.3,6.9-6.5s-4.5-5.5-8.9-5.1c-4.3.4-7.4,3.3-6.8,6.5.6,3.2,4.5,5.5,8.8,5.1h0ZM697.1,845.5c4.4-.4,7.4-3.3,6.9-6.5s-4.6-5.5-8.9-5.1-7.4,3.3-6.9,6.5c.6,3.2,4.5,5.5,8.9,5.1h0ZM729.1,842.6c4.4-.4,7.5-3.3,6.9-6.5-.6-3.2-4.6-5.5-9-5.1s-7.5,3.3-6.9,6.5c.6,3.2,4.6,5.5,9,5.1h0ZM761.4,839.7c4.4-.4,7.5-3.3,7-6.6s-4.7-5.5-9.1-5.1c-4.4.4-7.5,3.3-6.9,6.6s4.6,5.5,9.1,5.1h0ZM793.9,836.8c4.5-.4,7.6-3.4,7-6.6-.6-3.2-4.7-5.5-9.2-5.1s-7.6,3.3-7,6.6c.6,3.2,4.7,5.5,9.1,5.1h0ZM826.6,833.8c4.5-.4,7.6-3.4,7-6.6s-4.8-5.5-9.2-5.1-7.6,3.4-7,6.6,4.7,5.5,9.2,5.1h0ZM859.5,830.8c4.5-.4,7.7-3.4,7.1-6.6-.6-3.3-4.8-5.6-9.3-5.1s-7.7,3.4-7,6.6,4.8,5.6,9.3,5.1h0ZM892.7,827.9c4.5-.4,7.7-3.4,7.1-6.7s-4.8-5.6-9.4-5.2-7.7,3.4-7.1,6.6,4.8,5.6,9.4,5.2h0ZM926.1,824.8c4.6-.4,7.8-3.4,7.1-6.7s-4.9-5.6-9.5-5.2-7.8,3.4-7.1,6.7,4.9,5.6,9.5,5.2h0ZM959.7,821.8c4.6-.4,7.8-3.4,7.2-6.7s-4.9-5.6-9.5-5.2c-4.6.4-7.8,3.4-7.1,6.7.7,3.3,4.9,5.6,9.5,5.2ZM993.6,818.8c4.6-.4,7.9-3.4,7.2-6.7-.7-3.3-5-5.6-9.6-5.2s-7.9,3.4-7.2,6.7,5,5.6,9.6,5.2h0ZM1027.7,815.7c4.7-.4,7.9-3.5,7.2-6.8s-5-5.6-9.7-5.2-7.9,3.5-7.2,6.7,5,5.6,9.7,5.2h0ZM1062,812.6c4.7-.4,8-3.5,7.3-6.8s-5.1-5.7-9.8-5.2c-4.7.4-7.9,3.5-7.3,6.8.7,3.3,5.1,5.7,9.8,5.2h0ZM1096.6,809.5c4.7-.4,8-3.5,7.3-6.8s-5.1-5.7-9.9-5.2c-4.7.4-8,3.5-7.3,6.8s5.1,5.7,9.9,5.2h0ZM1131.4,806.3c4.8-.4,8.1-3.5,7.4-6.8-.7-3.3-5.2-5.7-10-5.2s-8.1,3.5-7.3,6.8,5.2,5.7,9.9,5.3ZM1166.5,803.2c4.8-.4,8.1-3.5,7.4-6.9s-5.2-5.7-10-5.3c-4.8.4-8.1,3.5-7.4,6.9.7,3.3,5.2,5.7,10,5.3ZM1201.8,800c4.8-.4,8.2-3.5,7.4-6.9s-5.3-5.7-10.1-5.3-8.1,3.5-7.4,6.9c.7,3.4,5.3,5.7,10.1,5.3ZM1237.3,796.8c4.9-.4,8.2-3.5,7.5-6.9-.8-3.4-5.3-5.7-10.2-5.3-4.9.4-8.2,3.5-7.4,6.9s5.3,5.7,10.2,5.3h0ZM361.5,898.8c4.1-.4,7-3.2,6.6-6.3-.5-3.1-4.1-5.3-8.2-5s-7,3.2-6.5,6.3c.4,3.1,4.1,5.3,8.2,5h0ZM391.4,896.2c4.1-.4,7-3.2,6.6-6.3s-4.2-5.4-8.3-5-7,3.2-6.6,6.3c.5,3.1,4.1,5.4,8.2,5h0ZM421.4,893.5c4.1-.4,7.1-3.2,6.6-6.3s-4.2-5.4-8.3-5c-4.1.4-7.1,3.2-6.6,6.3s4.2,5.4,8.3,5ZM451.7,890.9c4.2-.4,7.1-3.2,6.6-6.3s-4.2-5.4-8.4-5c-4.1.4-7.1,3.2-6.6,6.3.5,3.1,4.2,5.4,8.4,5h0ZM482.2,888.2c4.2-.4,7.2-3.2,6.7-6.4s-4.3-5.4-8.5-5c-4.2.4-7.1,3.2-6.7,6.4.5,3.1,4.3,5.4,8.4,5h0ZM512.8,885.5c4.2-.4,7.2-3.2,6.7-6.4s-4.3-5.4-8.5-5-7.2,3.2-6.7,6.4,4.3,5.4,8.5,5h0ZM543.7,882.8c4.2-.4,7.3-3.2,6.7-6.4-.5-3.2-4.4-5.4-8.6-5.1-4.2.4-7.2,3.2-6.7,6.4s4.4,5.4,8.6,5.1h0ZM574.8,880.1c4.3-.4,7.3-3.3,6.8-6.4s-4.4-5.4-8.7-5.1-7.3,3.3-6.8,6.4c.5,3.2,4.4,5.4,8.7,5.1h0ZM606.1,877.3c4.3-.4,7.3-3.3,6.8-6.5-.5-3.2-4.4-5.5-8.7-5.1s-7.3,3.3-6.8,6.5,4.4,5.5,8.7,5.1h0ZM637.6,874.6c4.3-.4,7.4-3.3,6.8-6.5-.5-3.2-4.5-5.5-8.8-5.1-4.3.4-7.4,3.3-6.8,6.5s4.5,5.5,8.8,5.1h0ZM669.3,871.8c4.3-.4,7.4-3.3,6.9-6.5-.6-3.2-4.5-5.5-8.9-5.1s-7.4,3.3-6.9,6.5,4.5,5.5,8.9,5.1h0ZM701.2,869c4.4-.4,7.5-3.3,6.9-6.5-.6-3.2-4.6-5.5-9-5.1-4.4.4-7.4,3.3-6.9,6.5s4.6,5.5,8.9,5.1h0ZM733.3,866.2c4.4-.4,7.5-3.3,6.9-6.5s-4.6-5.5-9-5.1-7.5,3.3-6.9,6.5c.6,3.2,4.6,5.5,9,5.1h0ZM765.7,863.3c4.4-.4,7.6-3.3,7-6.6-.6-3.2-4.7-5.5-9.1-5.1-4.4.4-7.5,3.3-7,6.6s4.7,5.5,9.1,5.2h0ZM798.3,860.5c4.5-.4,7.6-3.3,7-6.6s-4.7-5.6-9.2-5.2c-4.5.4-7.6,3.3-7,6.6s4.7,5.6,9.2,5.2h0ZM831.1,857.6c4.5-.4,7.7-3.4,7-6.6-.6-3.3-4.8-5.6-9.2-5.2-4.5.4-7.6,3.4-7,6.6s4.7,5.6,9.2,5.2h0ZM864.1,854.7c4.5-.4,7.7-3.4,7.1-6.6s-4.8-5.6-9.3-5.2-7.7,3.4-7.1,6.6,4.8,5.6,9.3,5.2h0ZM897.3,851.8c4.6-.4,7.7-3.4,7.1-6.7s-4.9-5.6-9.4-5.2-7.7,3.4-7.1,6.7,4.8,5.6,9.4,5.2ZM930.8,848.9c4.6-.4,7.8-3.4,7.1-6.7-.7-3.3-4.9-5.6-9.5-5.2-4.6.4-7.8,3.4-7.1,6.7.6,3.3,4.9,5.6,9.5,5.2h0ZM964.5,845.9c4.6-.4,7.8-3.4,7.2-6.7s-5-5.6-9.6-5.2-7.8,3.4-7.2,6.7,4.9,5.6,9.6,5.2h0ZM998.5,842.9c4.7-.4,7.9-3.4,7.2-6.7s-5-5.7-9.6-5.2-7.9,3.4-7.2,6.7,5,5.7,9.6,5.3h0ZM1032.7,839.9c4.7-.4,7.9-3.4,7.3-6.8s-5.1-5.7-9.7-5.3c-4.7.4-7.9,3.4-7.2,6.8s5,5.7,9.7,5.3h0ZM1067.1,836.9c4.7-.4,8-3.5,7.3-6.8s-5.1-5.7-9.8-5.3c-4.7.4-8,3.4-7.3,6.8.7,3.3,5.1,5.7,9.8,5.3h0ZM1101.8,833.9c4.8-.4,8-3.5,7.3-6.8s-5.1-5.7-9.9-5.3c-4.7.4-8,3.5-7.3,6.8s5.1,5.7,9.9,5.3h0ZM1136.7,830.8c4.8-.4,8.1-3.5,7.4-6.8-.7-3.4-5.2-5.7-10-5.3-4.8.4-8.1,3.5-7.4,6.8s5.2,5.7,10,5.3h0ZM1171.8,827.7c4.8-.4,8.1-3.5,7.4-6.9s-5.2-5.7-10.1-5.3c-4.8.4-8.1,3.5-7.4,6.9.7,3.4,5.2,5.7,10.1,5.3ZM1207.3,824.6c4.9-.4,8.2-3.5,7.4-6.9-.8-3.4-5.3-5.8-10.2-5.3-4.8.4-8.2,3.5-7.4,6.9s5.3,5.8,10.1,5.3h0ZM1242.9,821.5c4.9-.4,8.2-3.5,7.5-6.9-.8-3.4-5.3-5.8-10.2-5.3-4.9.4-8.2,3.5-7.5,6.9.8,3.4,5.3,5.8,10.2,5.4h0ZM1278.8,818.4c4.9-.4,8.3-3.5,7.5-6.9s-5.4-5.8-10.3-5.4c-4.9.4-8.3,3.5-7.5,6.9s5.4,5.8,10.3,5.4h0ZM364.8,921.6c4.1-.3,7-3.2,6.6-6.3s-4.1-5.4-8.2-5c-4.1.3-7,3.2-6.6,6.3s4.1,5.4,8.2,5h0ZM394.8,919c4.1-.3,7.1-3.2,6.6-6.3-.5-3.1-4.2-5.4-8.3-5s-7,3.2-6.6,6.3,4.2,5.4,8.3,5h0ZM424.9,916.5c4.1-.4,7.1-3.2,6.6-6.3s-4.2-5.4-8.3-5-7.1,3.2-6.6,6.3,4.2,5.4,8.3,5ZM455.2,913.9c4.2-.4,7.1-3.2,6.7-6.4s-4.3-5.4-8.4-5.1-7.1,3.2-6.6,6.3,4.2,5.4,8.4,5.1h0ZM485.8,911.3c4.2-.4,7.2-3.2,6.7-6.4s-4.3-5.4-8.5-5.1c-4.2.4-7.2,3.2-6.7,6.4s4.3,5.4,8.5,5.1ZM516.5,908.7c4.2-.4,7.2-3.2,6.7-6.4-.5-3.2-4.3-5.4-8.6-5.1s-7.2,3.2-6.7,6.4,4.3,5.4,8.5,5.1ZM547.5,906c4.2-.4,7.3-3.2,6.8-6.4s-4.4-5.5-8.6-5.1c-4.2.4-7.3,3.2-6.7,6.4.5,3.2,4.4,5.5,8.6,5.1h0ZM578.6,903.4c4.3-.4,7.3-3.3,6.8-6.4s-4.4-5.5-8.7-5.1-7.3,3.3-6.8,6.4c.5,3.2,4.4,5.5,8.7,5.1ZM610,900.7c4.3-.4,7.4-3.3,6.8-6.5-.5-3.2-4.5-5.5-8.8-5.1-4.3.4-7.3,3.3-6.8,6.5.5,3.2,4.5,5.5,8.8,5.1h0ZM641.6,898c4.3-.4,7.4-3.3,6.8-6.5s-4.5-5.5-8.8-5.1-7.4,3.3-6.8,6.5,4.5,5.5,8.8,5.1h0ZM673.3,895.3c4.4-.4,7.4-3.3,6.9-6.5s-4.6-5.5-8.9-5.1c-4.3.4-7.4,3.3-6.9,6.5.6,3.2,4.5,5.5,8.9,5.2h0ZM705.4,892.6c4.4-.4,7.5-3.3,6.9-6.5s-4.6-5.5-9-5.2-7.5,3.3-6.9,6.5,4.6,5.5,9,5.2ZM737.6,889.8c4.4-.4,7.5-3.3,6.9-6.6s-4.6-5.6-9-5.2c-4.4.4-7.5,3.3-6.9,6.5s4.6,5.6,9,5.2ZM770,887.1c4.4-.4,7.6-3.3,7-6.6s-4.7-5.6-9.1-5.2-7.6,3.3-7,6.6,4.7,5.6,9.1,5.2h0ZM802.7,884.3c4.5-.4,7.6-3.3,7-6.6s-4.7-5.6-9.2-5.2-7.6,3.3-7,6.6,4.7,5.6,9.2,5.2h0ZM835.6,881.5c4.5-.4,7.7-3.4,7.1-6.6s-4.8-5.6-9.3-5.2c-4.5.4-7.7,3.4-7,6.6.6,3.3,4.8,5.6,9.3,5.2h0ZM868.7,878.7c4.5-.4,7.7-3.4,7.1-6.6s-4.8-5.6-9.4-5.2c-4.5.4-7.7,3.4-7.1,6.6s4.8,5.6,9.3,5.2h0ZM902,875.9c4.6-.4,7.8-3.4,7.1-6.7s-4.9-5.6-9.4-5.2c-4.6.4-7.8,3.4-7.1,6.7s4.9,5.6,9.4,5.2h0ZM935.6,873c4.6-.4,7.8-3.4,7.2-6.7s-4.9-5.7-9.5-5.3c-4.6.4-7.8,3.4-7.1,6.7.7,3.3,4.9,5.7,9.5,5.3h0ZM969.4,870.1c4.6-.4,7.9-3.4,7.2-6.7-.7-3.3-5-5.7-9.6-5.3s-7.9,3.4-7.2,6.7c.7,3.3,5,5.7,9.6,5.3h0ZM1003.4,867.2c4.7-.4,7.9-3.4,7.2-6.7s-5-5.7-9.7-5.3c-4.7.4-7.9,3.4-7.2,6.7s5,5.7,9.7,5.3ZM1037.7,864.3c4.7-.4,8-3.4,7.3-6.8-.7-3.3-5.1-5.7-9.8-5.3s-7.9,3.4-7.3,6.8,5,5.7,9.8,5.3h0ZM1072.2,861.4c4.7-.4,8-3.4,7.3-6.8s-5.1-5.7-9.8-5.3c-4.7.4-8,3.4-7.3,6.8.7,3.3,5.1,5.7,9.8,5.3ZM1107,858.4c4.8-.4,8.1-3.5,7.4-6.8s-5.2-5.7-9.9-5.3-8,3.5-7.3,6.8,5.1,5.7,9.9,5.3h0ZM1142,855.4c4.8-.4,8.1-3.5,7.4-6.8s-5.2-5.8-10-5.3c-4.8.4-8.1,3.5-7.4,6.8.7,3.4,5.2,5.8,10,5.3h0ZM1177.3,852.4c4.8-.4,8.2-3.5,7.4-6.9s-5.3-5.8-10.1-5.4c-4.8.4-8.1,3.5-7.4,6.9.7,3.4,5.2,5.8,10.1,5.4h0ZM1212.8,849.4c4.9-.4,8.2-3.5,7.5-6.9-.8-3.4-5.3-5.8-10.2-5.4s-8.2,3.5-7.4,6.9,5.3,5.8,10.2,5.4ZM1248.5,846.4c4.9-.4,8.3-3.5,7.5-6.9s-5.4-5.8-10.3-5.4-8.2,3.5-7.5,6.9c.8,3.4,5.4,5.8,10.3,5.4h0ZM1284.6,843.3c4.9-.4,8.3-3.5,7.5-6.9s-5.4-5.8-10.4-5.4c-4.9.4-8.3,3.5-7.5,6.9s5.4,5.8,10.3,5.4ZM1320.8,840.2c5-.4,8.4-3.5,7.6-7-.8-3.4-5.5-5.8-10.5-5.4-5,.4-8.3,3.5-7.6,7s5.5,5.8,10.4,5.4h0ZM368.1,944.5c4.1-.3,7-3.2,6.6-6.3-.5-3.1-4.1-5.4-8.2-5.1-4.1.3-7,3.2-6.6,6.3s4.1,5.4,8.2,5.1h0ZM398.1,942c4.1-.3,7.1-3.2,6.6-6.3s-4.2-5.4-8.3-5.1c-4.1.3-7.1,3.2-6.6,6.3s4.2,5.4,8.3,5.1h0ZM428.4,939.5c4.1-.3,7.1-3.2,6.6-6.3s-4.2-5.4-8.4-5.1-7.1,3.2-6.6,6.3,4.2,5.4,8.4,5.1ZM458.8,937c4.2-.3,7.2-3.2,6.7-6.4-.5-3.2-4.3-5.4-8.4-5.1s-7.1,3.2-6.7,6.4c.5,3.2,4.3,5.4,8.4,5.1ZM489.4,934.5c4.2-.3,7.2-3.2,6.7-6.4-.5-3.2-4.3-5.5-8.5-5.1s-7.2,3.2-6.7,6.4,4.3,5.5,8.5,5.1h0ZM520.2,931.9c4.2-.3,7.2-3.2,6.7-6.4s-4.3-5.5-8.6-5.1-7.2,3.2-6.7,6.4,4.3,5.5,8.6,5.1h0ZM551.2,929.4c4.3-.4,7.3-3.2,6.8-6.4s-4.4-5.5-8.6-5.1-7.3,3.2-6.8,6.4,4.4,5.5,8.6,5.1h0ZM582.5,926.8c4.3-.4,7.3-3.2,6.8-6.5-.5-3.2-4.4-5.5-8.7-5.1-4.3.4-7.3,3.2-6.8,6.4s4.4,5.5,8.7,5.2ZM613.9,924.2c4.3-.4,7.4-3.2,6.8-6.5s-4.5-5.5-8.8-5.2-7.4,3.2-6.8,6.5,4.5,5.5,8.8,5.2h0ZM645.6,921.6c4.3-.4,7.4-3.3,6.9-6.5s-4.5-5.5-8.8-5.2-7.4,3.3-6.9,6.5,4.5,5.5,8.8,5.2ZM677.4,918.9c4.4-.4,7.5-3.3,6.9-6.5-.6-3.2-4.6-5.6-8.9-5.2-4.4.4-7.4,3.3-6.9,6.5.6,3.2,4.6,5.6,8.9,5.2h0ZM709.5,916.3c4.4-.4,7.5-3.3,6.9-6.5s-4.6-5.6-9-5.2-7.5,3.3-6.9,6.5c.6,3.2,4.6,5.6,9,5.2h0ZM741.8,913.6c4.4-.4,7.5-3.3,7-6.6s-4.7-5.6-9.1-5.2-7.5,3.3-7,6.5c.6,3.3,4.6,5.6,9.1,5.2h0ZM774.4,910.9c4.5-.4,7.6-3.3,7-6.6s-4.7-5.6-9.2-5.2-7.6,3.3-7,6.6,4.7,5.6,9.1,5.2ZM807.1,908.2c4.5-.4,7.6-3.3,7-6.6-.6-3.3-4.7-5.6-9.2-5.2s-7.6,3.3-7,6.6,4.7,5.6,9.2,5.3h0ZM840.1,905.5c4.5-.4,7.7-3.3,7.1-6.6s-4.8-5.6-9.3-5.3c-4.5.4-7.7,3.3-7.1,6.6s4.8,5.6,9.3,5.3h0ZM873.3,902.8c4.6-.4,7.7-3.4,7.1-6.7-.6-3.3-4.8-5.7-9.4-5.3-4.5.4-7.7,3.4-7.1,6.6s4.8,5.7,9.4,5.3h0ZM906.7,900c4.6-.4,7.8-3.4,7.1-6.7s-4.9-5.7-9.5-5.3-7.8,3.4-7.1,6.7c.6,3.3,4.9,5.7,9.5,5.3ZM940.4,897.2c4.6-.4,7.8-3.4,7.2-6.7-.7-3.3-4.9-5.7-9.5-5.3-4.6.4-7.8,3.4-7.2,6.7s4.9,5.7,9.5,5.3ZM974.3,894.4c4.6-.4,7.9-3.4,7.2-6.7s-5-5.7-9.6-5.3-7.9,3.4-7.2,6.7,5,5.7,9.6,5.3h0ZM1008.4,891.6c4.7-.4,7.9-3.4,7.3-6.8s-5-5.7-9.7-5.3c-4.7.4-7.9,3.4-7.2,6.7s5,5.7,9.7,5.3ZM1042.8,888.8c4.7-.4,8-3.4,7.3-6.8s-5.1-5.7-9.8-5.3c-4.7.4-8,3.4-7.3,6.8s5.1,5.7,9.8,5.4h0ZM1077.4,885.9c4.8-.4,8-3.4,7.3-6.8-.7-3.4-5.1-5.8-9.9-5.4-4.7.4-8,3.4-7.3,6.8s5.1,5.8,9.9,5.4ZM1112.2,883c4.8-.4,8.1-3.5,7.4-6.8s-5.2-5.8-10-5.4c-4.8.4-8.1,3.4-7.3,6.8.7,3.4,5.2,5.8,9.9,5.4h0ZM1147.3,880.1c4.8-.4,8.1-3.5,7.4-6.8-.7-3.4-5.2-5.8-10-5.4s-8.1,3.5-7.4,6.8,5.2,5.8,10,5.4h0ZM1182.7,877.2c4.9-.4,8.2-3.5,7.4-6.9s-5.3-5.8-10.1-5.4c-4.8.4-8.2,3.5-7.4,6.9s5.3,5.8,10.1,5.4h0ZM1218.3,874.3c4.9-.4,8.2-3.5,7.5-6.9-.8-3.4-5.3-5.8-10.2-5.4s-8.2,3.5-7.5,6.9c.7,3.4,5.3,5.8,10.2,5.4h0ZM1254.2,871.3c4.9-.4,8.3-3.5,7.5-6.9s-5.4-5.8-10.3-5.4-8.3,3.5-7.5,6.9,5.4,5.8,10.3,5.4ZM1290.3,868.3c5-.4,8.3-3.5,7.6-7-.8-3.4-5.4-5.9-10.4-5.5-4.9.4-8.3,3.5-7.5,6.9s5.4,5.9,10.4,5.5ZM1326.7,865.3c5-.4,8.4-3.5,7.6-7s-5.5-5.9-10.5-5.5c-5,.4-8.4,3.5-7.6,7,.8,3.4,5.5,5.9,10.5,5.5h0ZM431.9,962.6c4.2-.3,7.1-3.2,6.7-6.3s-4.2-5.5-8.4-5.1c-4.1.3-7.1,3.2-6.6,6.3s4.2,5.5,8.4,5.1h0ZM462.3,960.2c4.2-.3,7.2-3.2,6.7-6.4-.5-3.2-4.3-5.5-8.5-5.1s-7.2,3.2-6.7,6.4,4.3,5.5,8.4,5.1h0ZM493,957.7c4.2-.3,7.2-3.2,6.7-6.4-.5-3.2-4.3-5.5-8.5-5.2-4.2.3-7.2,3.2-6.7,6.4s4.3,5.5,8.5,5.2h0ZM523.9,955.3c4.2-.3,7.3-3.2,6.8-6.4s-4.4-5.5-8.6-5.2-7.2,3.2-6.7,6.4,4.3,5.5,8.6,5.2ZM555,952.8c4.3-.3,7.3-3.2,6.8-6.4s-4.4-5.5-8.7-5.2-7.3,3.2-6.8,6.4,4.4,5.5,8.6,5.2ZM586.3,950.3c4.3-.3,7.3-3.2,6.8-6.5s-4.4-5.5-8.7-5.2c-4.3.3-7.3,3.2-6.8,6.4s4.4,5.5,8.7,5.2h0ZM617.9,947.8c4.3-.3,7.4-3.2,6.8-6.5s-4.5-5.6-8.8-5.2c-4.3.4-7.4,3.2-6.8,6.5.5,3.2,4.5,5.6,8.8,5.2h0ZM649.6,945.2c4.4-.4,7.4-3.3,6.9-6.5s-4.5-5.6-8.9-5.2-7.4,3.3-6.9,6.5,4.5,5.6,8.9,5.2h0ZM681.5,942.6c4.4-.4,7.5-3.3,6.9-6.5s-4.6-5.6-9-5.2c-4.4.4-7.5,3.3-6.9,6.5s4.6,5.6,8.9,5.2h0ZM713.7,940.1c4.4-.4,7.5-3.3,6.9-6.5s-4.6-5.6-9-5.3c-4.4.4-7.5,3.3-6.9,6.5s4.6,5.6,9,5.3h0ZM746.1,937.5c4.4-.4,7.6-3.3,7-6.6-.6-3.3-4.7-5.6-9.1-5.3-4.4.4-7.5,3.3-7,6.6s4.7,5.6,9.1,5.3h0ZM778.7,934.9c4.5-.4,7.6-3.3,7-6.6s-4.7-5.6-9.2-5.3-7.6,3.3-7,6.6,4.7,5.6,9.2,5.3ZM811.5,932.2c4.5-.4,7.7-3.3,7-6.6s-4.8-5.7-9.3-5.3-7.6,3.3-7,6.6c.6,3.3,4.7,5.7,9.2,5.3h0ZM844.6,929.6c4.5-.4,7.7-3.3,7.1-6.6-.6-3.3-4.8-5.7-9.3-5.3s-7.7,3.3-7.1,6.6c.6,3.3,4.8,5.7,9.3,5.3h0ZM877.9,926.9c4.6-.4,7.8-3.4,7.1-6.7s-4.8-5.7-9.4-5.3c-4.6.4-7.7,3.3-7.1,6.7s4.8,5.7,9.4,5.3ZM911.4,924.3c4.6-.4,7.8-3.4,7.2-6.7-.7-3.3-4.9-5.7-9.5-5.3-4.6.4-7.8,3.4-7.1,6.7.6,3.3,4.9,5.7,9.5,5.3h0ZM945.2,921.6c4.6-.4,7.9-3.4,7.2-6.7s-4.9-5.7-9.6-5.4-7.8,3.4-7.2,6.7,4.9,5.7,9.6,5.4ZM979.1,918.8c4.7-.4,7.9-3.4,7.2-6.7-.7-3.3-5-5.7-9.6-5.4-4.7.4-7.9,3.4-7.2,6.7s5,5.7,9.6,5.4h0ZM1013.4,916.1c4.7-.4,8-3.4,7.3-6.8s-5-5.8-9.7-5.4c-4.7.4-7.9,3.4-7.3,6.8s5,5.8,9.7,5.4h0ZM1047.8,913.3c4.7-.4,8-3.4,7.3-6.8s-5.1-5.8-9.8-5.4c-4.7.4-8,3.4-7.3,6.8.7,3.4,5.1,5.8,9.8,5.4h0ZM1082.5,910.5c4.8-.4,8.1-3.4,7.3-6.8s-5.1-5.8-9.9-5.4c-4.7.4-8,3.4-7.3,6.8.7,3.4,5.1,5.8,9.9,5.4ZM1117.5,907.8c4.8-.4,8.1-3.4,7.4-6.8s-5.2-5.8-10-5.4c-4.8.4-8.1,3.4-7.4,6.8s5.2,5.8,10,5.4ZM1152.7,904.9c4.8-.4,8.2-3.5,7.4-6.9s-5.3-5.8-10.1-5.4-8.1,3.5-7.4,6.8,5.2,5.8,10.1,5.4h0ZM1188.1,902.1c4.9-.4,8.2-3.5,7.5-6.9s-5.3-5.8-10.2-5.5c-4.8.4-8.2,3.5-7.4,6.9.7,3.4,5.3,5.9,10.1,5.5ZM1223.9,899.2c4.9-.4,8.3-3.5,7.5-6.9-.8-3.4-5.4-5.9-10.3-5.5-4.9.4-8.2,3.5-7.5,6.9s5.3,5.9,10.2,5.5h0ZM1259.8,896.4c4.9-.4,8.3-3.5,7.5-6.9-.8-3.4-5.4-5.9-10.3-5.5-4.9.4-8.3,3.5-7.5,6.9s5.4,5.9,10.3,5.5h0ZM1296,893.5c5-.4,8.4-3.5,7.6-7-.8-3.4-5.5-5.9-10.4-5.5-5,.4-8.3,3.5-7.6,6.9.8,3.4,5.4,5.9,10.4,5.5h0ZM1332.5,890.5c5-.4,8.4-3.5,7.6-7s-5.5-5.9-10.5-5.5c-5,.4-8.4,3.5-7.6,7s5.5,5.9,10.5,5.5ZM527.7,978.7c4.2-.3,7.3-3.2,6.8-6.4-.5-3.2-4.4-5.5-8.6-5.2-4.2.3-7.3,3.2-6.8,6.4s4.4,5.5,8.6,5.2h0ZM558.8,976.3c4.3-.3,7.3-3.2,6.8-6.4s-4.4-5.6-8.7-5.2c-4.3.3-7.3,3.2-6.8,6.4s4.4,5.6,8.7,5.2h0ZM590.2,973.9c4.3-.3,7.4-3.2,6.8-6.5s-4.5-5.6-8.8-5.2-7.3,3.2-6.8,6.4c.5,3.2,4.4,5.6,8.7,5.2ZM621.8,971.4c4.3-.3,7.4-3.2,6.9-6.5s-4.5-5.6-8.8-5.2-7.4,3.2-6.9,6.5c.5,3.2,4.5,5.6,8.8,5.3ZM653.6,969c4.4-.3,7.5-3.2,6.9-6.5-.6-3.3-4.5-5.6-8.9-5.3-4.4.3-7.4,3.2-6.9,6.5s4.5,5.6,8.9,5.3h0ZM685.7,966.5c4.4-.3,7.5-3.3,6.9-6.5s-4.6-5.6-9-5.3-7.5,3.3-6.9,6.5,4.6,5.6,9,5.3h0ZM717.9,964c4.4-.3,7.5-3.3,7-6.5s-4.6-5.6-9-5.3c-4.4.4-7.5,3.3-7,6.5s4.6,5.6,9,5.3h0ZM750.4,961.5c4.5-.3,7.6-3.3,7-6.6-.6-3.3-4.7-5.7-9.1-5.3s-7.6,3.3-7,6.6,4.7,5.7,9.1,5.3h0ZM783.1,958.9c4.5-.4,7.6-3.3,7-6.6s-4.7-5.7-9.2-5.3c-4.5.4-7.6,3.3-7,6.6s4.7,5.7,9.2,5.3h0ZM816,956.4c4.5-.3,7.7-3.3,7.1-6.6s-4.8-5.7-9.3-5.3-7.7,3.3-7,6.6,4.7,5.7,9.3,5.3h0ZM849.2,953.8c4.5-.3,7.7-3.3,7.1-6.6s-4.8-5.7-9.4-5.3-7.7,3.3-7.1,6.6,4.8,5.7,9.3,5.4ZM882.5,951.2c4.6-.4,7.8-3.3,7.1-6.7s-4.9-5.7-9.4-5.4c-4.6.4-7.8,3.3-7.1,6.7s4.8,5.7,9.4,5.4h0ZM916.1,948.6c4.6-.4,7.8-3.4,7.2-6.7-.7-3.3-4.9-5.7-9.5-5.4s-7.8,3.4-7.2,6.7,4.9,5.7,9.5,5.4h0ZM950,946c4.6-.4,7.9-3.4,7.2-6.7-.7-3.3-5-5.8-9.6-5.4s-7.9,3.4-7.2,6.7,4.9,5.8,9.6,5.4h0ZM984.1,943.3c4.7-.4,7.9-3.4,7.2-6.7s-5-5.8-9.7-5.4-7.9,3.4-7.2,6.7c.7,3.4,5,5.8,9.7,5.4ZM1018.4,940.7c4.7-.4,8-3.4,7.3-6.8-.7-3.4-5.1-5.8-9.8-5.4-4.7.4-8,3.4-7.3,6.8.7,3.4,5,5.8,9.8,5.4h0ZM1052.9,938c4.7-.4,8-3.4,7.3-6.8s-5.1-5.8-9.8-5.4c-4.7.4-8,3.4-7.3,6.8.7,3.4,5.1,5.8,9.8,5.4h0ZM1087.7,935.3c4.8-.4,8.1-3.4,7.4-6.8s-5.2-5.8-9.9-5.5c-4.8.4-8.1,3.4-7.3,6.8s5.1,5.8,9.9,5.5h0ZM1122.8,932.6c4.8-.4,8.1-3.4,7.4-6.8-.7-3.4-5.2-5.9-10-5.5-4.8.4-8.1,3.4-7.4,6.8s5.2,5.9,10,5.5h0ZM1158.1,929.9c4.8-.4,8.2-3.4,7.4-6.9s-5.3-5.9-10.1-5.5c-4.8.4-8.2,3.4-7.4,6.9.7,3.4,5.3,5.9,10.1,5.5h0ZM1193.6,927.1c4.9-.4,8.2-3.5,7.5-6.9-.7-3.4-5.3-5.9-10.2-5.5-4.9.4-8.2,3.5-7.5,6.9s5.3,5.9,10.2,5.5ZM1229.4,924.3c4.9-.4,8.3-3.5,7.5-6.9-.8-3.4-5.4-5.9-10.3-5.5-4.9.4-8.3,3.5-7.5,6.9s5.4,5.9,10.3,5.5ZM1265.5,921.5c5-.4,8.3-3.5,7.5-6.9-.8-3.4-5.4-5.9-10.4-5.5-4.9.4-8.3,3.5-7.5,6.9s5.4,5.9,10.4,5.5h0ZM1301.8,918.7c5-.4,8.4-3.5,7.6-7s-5.5-5.9-10.5-5.5-8.4,3.5-7.6,7,5.5,5.9,10.4,5.6h0ZM1338.4,915.9c5-.4,8.4-3.5,7.6-7s-5.5-6-10.6-5.6-8.4,3.5-7.6,7,5.5,6,10.5,5.6ZM531.4,1002.3c4.3-.3,7.3-3.2,6.8-6.4s-4.4-5.6-8.6-5.2-7.3,3.2-6.8,6.4,4.4,5.6,8.6,5.3ZM562.7,999.9c4.3-.3,7.3-3.2,6.8-6.4s-4.4-5.6-8.7-5.3-7.3,3.2-6.8,6.4,4.4,5.6,8.7,5.3h0ZM594.1,997.6c4.3-.3,7.4-3.2,6.8-6.5-.5-3.2-4.5-5.6-8.8-5.3-4.3.3-7.4,3.2-6.8,6.5s4.5,5.6,8.8,5.3h0ZM625.8,995.2c4.3-.3,7.4-3.2,6.9-6.5s-4.5-5.6-8.9-5.3c-4.3.3-7.4,3.2-6.9,6.5s4.5,5.6,8.8,5.3ZM657.7,992.8c4.4-.3,7.5-3.2,6.9-6.5s-4.6-5.6-8.9-5.3c-4.4.3-7.5,3.2-6.9,6.5s4.5,5.6,8.9,5.3h0ZM689.8,990.4c4.4-.3,7.5-3.3,6.9-6.5s-4.6-5.7-9-5.3c-4.4.3-7.5,3.3-6.9,6.5s4.6,5.7,9,5.3h0ZM722.2,988c4.4-.3,7.6-3.3,7-6.6s-4.7-5.7-9.1-5.3c-4.4.3-7.5,3.3-7,6.5s4.6,5.7,9.1,5.3ZM754.7,985.5c4.5-.3,7.6-3.3,7-6.6-.6-3.3-4.7-5.7-9.2-5.4s-7.6,3.3-7,6.6,4.7,5.7,9.1,5.4h0ZM787.5,983.1c4.5-.3,7.7-3.3,7.1-6.6s-4.7-5.7-9.2-5.4c-4.5.3-7.6,3.3-7,6.6s4.7,5.7,9.2,5.4ZM820.5,980.6c4.5-.3,7.7-3.3,7.1-6.6s-4.8-5.7-9.3-5.4-7.7,3.3-7.1,6.6,4.8,5.7,9.3,5.4h0ZM853.7,978.1c4.6-.3,7.8-3.3,7.1-6.7s-4.8-5.7-9.4-5.4-7.7,3.3-7.1,6.6,4.8,5.7,9.4,5.4ZM887.2,975.6c4.6-.3,7.8-3.3,7.2-6.7s-4.9-5.8-9.5-5.4-7.8,3.3-7.1,6.7,4.9,5.8,9.5,5.4h0ZM920.9,973.1c4.6-.3,7.8-3.4,7.2-6.7s-4.9-5.8-9.5-5.4-7.8,3.4-7.2,6.7,4.9,5.8,9.5,5.4h0ZM954.8,970.5c4.7-.3,7.9-3.4,7.2-6.7s-5-5.8-9.6-5.4-7.9,3.4-7.2,6.7,5,5.8,9.6,5.5h0ZM989,968c4.7-.3,7.9-3.4,7.3-6.7s-5-5.8-9.7-5.5c-4.7.4-7.9,3.4-7.3,6.7s5,5.8,9.7,5.5h0ZM1023.4,965.4c4.7-.4,8-3.4,7.3-6.8s-5.1-5.8-9.8-5.5-8,3.4-7.3,6.8,5.1,5.8,9.8,5.5ZM1058.1,962.8c4.8-.4,8-3.4,7.3-6.8s-5.1-5.9-9.9-5.5-8,3.4-7.3,6.8,5.1,5.9,9.9,5.5ZM1092.9,960.2c4.8-.4,8.1-3.4,7.4-6.8s-5.2-5.9-10-5.5c-4.8.4-8.1,3.4-7.4,6.8.7,3.4,5.2,5.9,9.9,5.5h0ZM1128.1,957.5c4.8-.4,8.2-3.4,7.4-6.8s-5.2-5.9-10.1-5.5c-4.8.4-8.1,3.4-7.4,6.8.7,3.4,5.2,5.9,10,5.5h0ZM1163.5,954.9c4.9-.4,8.2-3.4,7.5-6.9s-5.3-5.9-10.1-5.5-8.2,3.4-7.4,6.9c.7,3.4,5.3,5.9,10.1,5.5h0ZM1199.1,952.2c4.9-.4,8.3-3.5,7.5-6.9s-5.3-5.9-10.2-5.6-8.2,3.5-7.5,6.9c.7,3.4,5.3,5.9,10.2,5.6h0ZM1235.1,949.5c4.9-.4,8.3-3.5,7.5-6.9s-5.4-5.9-10.3-5.6c-4.9.4-8.3,3.5-7.5,6.9s5.4,5.9,10.3,5.6ZM1271.2,946.8c5-.4,8.4-3.5,7.6-6.9-.8-3.5-5.4-6-10.4-5.6s-8.3,3.5-7.6,6.9,5.4,6,10.4,5.6h0ZM1307.7,944.1c5-.4,8.4-3.5,7.6-7-.8-3.5-5.5-6-10.5-5.6s-8.4,3.5-7.6,7c.8,3.5,5.5,6,10.5,5.6h0ZM1344.3,941.3c5-.4,8.5-3.5,7.7-7s-5.6-6-10.6-5.6-8.4,3.5-7.6,7,5.5,6,10.6,5.6ZM1381.3,938.6c5.1-.4,8.5-3.5,7.7-7-.8-3.5-5.6-6-10.7-5.6s-8.5,3.5-7.7,7,5.6,6,10.7,5.6h0ZM535.2,1025.9c4.3-.3,7.3-3.2,6.8-6.4s-4.4-5.6-8.7-5.3-7.3,3.2-6.8,6.4,4.4,5.6,8.6,5.3h0ZM566.5,1023.6c4.3-.3,7.4-3.2,6.8-6.4s-4.4-5.6-8.7-5.3c-4.3.3-7.3,3.2-6.8,6.4s4.4,5.6,8.7,5.3h0ZM598,1021.4c4.3-.3,7.4-3.2,6.9-6.5-.5-3.3-4.5-5.6-8.8-5.3s-7.4,3.2-6.9,6.5c.5,3.3,4.5,5.6,8.8,5.3ZM629.8,1019.1c4.4-.3,7.4-3.2,6.9-6.5s-4.5-5.7-8.9-5.3-7.4,3.2-6.9,6.5,4.5,5.7,8.9,5.3h0ZM661.8,1016.8c4.4-.3,7.5-3.2,6.9-6.5s-4.6-5.7-9-5.3c-4.4.3-7.5,3.2-6.9,6.5s4.6,5.7,8.9,5.4h0ZM694,1014.4c4.4-.3,7.5-3.2,7-6.5-.6-3.3-4.6-5.7-9-5.4-4.4.3-7.5,3.2-6.9,6.5s4.6,5.7,9,5.4h0ZM726.4,1012.1c4.4-.3,7.6-3.3,7-6.6s-4.7-5.7-9.1-5.4c-4.4.3-7.6,3.3-7,6.6s4.6,5.7,9.1,5.4h0ZM759,1009.7c4.5-.3,7.6-3.3,7-6.6-.6-3.3-4.7-5.7-9.2-5.4-4.5.3-7.6,3.3-7,6.6s4.7,5.7,9.2,5.4h0ZM791.9,1007.3c4.5-.3,7.7-3.3,7.1-6.6s-4.8-5.7-9.3-5.4c-4.5.3-7.7,3.3-7.1,6.6s4.7,5.7,9.2,5.4h0ZM825,1004.9c4.5-.3,7.7-3.3,7.1-6.6s-4.8-5.8-9.3-5.4c-4.5.3-7.7,3.3-7.1,6.6s4.8,5.8,9.3,5.4h0ZM858.3,1002.5c4.6-.3,7.8-3.3,7.1-6.7s-4.8-5.8-9.4-5.4-7.7,3.3-7.1,6.6c.6,3.3,4.8,5.8,9.4,5.4h0ZM891.9,1000.1c4.6-.3,7.8-3.3,7.2-6.7s-4.9-5.8-9.5-5.5-7.8,3.3-7.2,6.7c.6,3.4,4.9,5.8,9.5,5.5h0ZM925.7,997.6c4.6-.3,7.9-3.3,7.2-6.7s-4.9-5.8-9.6-5.5-7.9,3.3-7.2,6.7c.7,3.4,4.9,5.8,9.6,5.5ZM959.7,995.2c4.7-.3,7.9-3.4,7.3-6.7-.7-3.4-5-5.8-9.7-5.5-4.7.3-7.9,3.4-7.2,6.7s5,5.8,9.6,5.5h0ZM993.9,992.7c4.7-.3,8-3.4,7.3-6.8s-5-5.9-9.7-5.5-8,3.4-7.3,6.7c.7,3.4,5,5.9,9.7,5.5h0ZM1028.4,990.2c4.7-.3,8-3.4,7.3-6.8s-5.1-5.9-9.8-5.5c-4.7.3-8,3.4-7.3,6.8s5.1,5.9,9.8,5.5ZM1063.2,987.7c4.8-.3,8.1-3.4,7.4-6.8-.7-3.4-5.1-5.9-9.9-5.5s-8.1,3.4-7.4,6.8c.7,3.4,5.1,5.9,9.9,5.5h0ZM1098.2,985.2c4.8-.3,8.1-3.4,7.4-6.8s-5.2-5.9-10-5.5c-4.8.4-8.1,3.4-7.4,6.8s5.2,5.9,10,5.6ZM1133.4,982.6c4.8-.4,8.2-3.4,7.4-6.8s-5.2-5.9-10.1-5.6c-4.8.4-8.1,3.4-7.4,6.8.7,3.4,5.2,5.9,10.1,5.6h0ZM1168.9,980c4.9-.4,8.2-3.4,7.5-6.9s-5.3-5.9-10.2-5.6c-4.9.4-8.2,3.4-7.5,6.9.7,3.4,5.3,5.9,10.2,5.6h0ZM1204.7,977.5c4.9-.4,8.3-3.4,7.5-6.9-.8-3.5-5.4-6-10.3-5.6-4.9.4-8.3,3.4-7.5,6.9s5.3,6,10.2,5.6h0ZM1240.7,974.8c4.9-.4,8.3-3.5,7.6-6.9s-5.4-6-10.3-5.6c-4.9.4-8.3,3.5-7.5,6.9s5.4,6,10.3,5.6h0ZM1277,972.2c5-.4,8.4-3.5,7.6-7s-5.5-6-10.4-5.6c-5,.4-8.4,3.5-7.6,6.9s5.4,6,10.4,5.6h0ZM1313.5,969.6c5-.4,8.4-3.5,7.6-7s-5.5-6-10.5-5.6c-5,.4-8.4,3.5-7.6,7,.8,3.5,5.5,6,10.5,5.7h0ZM1350.3,966.9c5.1-.4,8.5-3.5,7.7-7-.8-3.5-5.6-6-10.6-5.7-5,.4-8.5,3.5-7.7,7s5.6,6,10.6,5.7h0ZM1387.4,964.2c5.1-.4,8.5-3.5,7.7-7s-5.6-6.1-10.7-5.7c-5.1.4-8.5,3.5-7.7,7,.8,3.5,5.6,6.1,10.7,5.7h0ZM538.9,1049.7c4.3-.3,7.3-3.2,6.8-6.4s-4.4-5.6-8.7-5.3-7.3,3.2-6.8,6.4c.5,3.2,4.4,5.6,8.7,5.3h0ZM570.4,1047.5c4.3-.3,7.4-3.2,6.8-6.4s-4.5-5.7-8.8-5.3c-4.3.3-7.4,3.2-6.8,6.4s4.4,5.7,8.7,5.4h0ZM602,1045.3c4.3-.3,7.4-3.2,6.9-6.5s-4.5-5.7-8.8-5.4-7.4,3.2-6.9,6.5,4.5,5.7,8.8,5.4h0ZM633.8,1043c4.4-.3,7.5-3.2,6.9-6.5s-4.5-5.7-8.9-5.4c-4.4.3-7.4,3.2-6.9,6.5s4.5,5.7,8.9,5.4ZM665.9,1040.8c4.4-.3,7.5-3.2,6.9-6.5s-4.6-5.7-9-5.4c-4.4.3-7.5,3.2-6.9,6.5s4.6,5.7,9,5.4h0ZM698.2,1038.5c4.4-.3,7.6-3.2,7-6.5s-4.6-5.7-9.1-5.4-7.5,3.2-7,6.5,4.6,5.7,9,5.4h0ZM730.7,1036.3c4.5-.3,7.6-3.3,7-6.6s-4.7-5.7-9.1-5.4c-4.5.3-7.6,3.3-7,6.6s4.7,5.7,9.1,5.4h0ZM763.4,1034c4.5-.3,7.6-3.3,7-6.6s-4.7-5.8-9.2-5.4c-4.5.3-7.6,3.3-7,6.6.6,3.3,4.7,5.8,9.2,5.4ZM796.3,1031.7c4.5-.3,7.7-3.3,7.1-6.6s-4.8-5.8-9.3-5.5-7.7,3.3-7.1,6.6,4.7,5.8,9.3,5.5h0ZM829.5,1029.4c4.5-.3,7.7-3.3,7.1-6.6s-4.8-5.8-9.4-5.5c-4.5.3-7.7,3.3-7.1,6.6s4.8,5.8,9.3,5.5h0ZM862.9,1027c4.6-.3,7.8-3.3,7.2-6.7-.6-3.4-4.9-5.8-9.4-5.5s-7.8,3.3-7.1,6.7c.6,3.4,4.8,5.8,9.4,5.5ZM896.6,1024.7c4.6-.3,7.8-3.3,7.2-6.7s-4.9-5.8-9.5-5.5c-4.6.3-7.8,3.3-7.2,6.7s4.9,5.8,9.5,5.5h0ZM930.4,1022.3c4.6-.3,7.9-3.3,7.2-6.7s-5-5.8-9.6-5.5-7.9,3.3-7.2,6.7c.7,3.4,4.9,5.8,9.6,5.5h0ZM964.6,1020c4.7-.3,7.9-3.3,7.3-6.7s-5-5.9-9.7-5.5c-4.7.3-7.9,3.3-7.3,6.7.7,3.4,5,5.9,9.7,5.5h0ZM998.9,1017.6c4.7-.3,8-3.4,7.3-6.8s-5.1-5.9-9.8-5.6-8,3.4-7.3,6.8,5,5.9,9.8,5.6h0ZM1033.5,1015.1c4.7-.3,8-3.4,7.3-6.8-.7-3.4-5.1-5.9-9.9-5.6s-8,3.4-7.3,6.8,5.1,5.9,9.8,5.6h0ZM1068.4,1012.7c4.8-.3,8.1-3.4,7.4-6.8s-5.2-5.9-9.9-5.6-8.1,3.4-7.4,6.8c.7,3.4,5.1,5.9,9.9,5.6h0ZM1103.4,1010.3c4.8-.3,8.1-3.4,7.4-6.8-.7-3.4-5.2-5.9-10-5.6-4.8.3-8.1,3.4-7.4,6.8.7,3.4,5.2,5.9,10,5.6h0ZM1138.8,1007.8c4.9-.3,8.2-3.4,7.5-6.9s-5.3-6-10.1-5.6c-4.8.3-8.2,3.4-7.4,6.8s5.2,6,10.1,5.6h0ZM1174.4,1005.3c4.9-.3,8.2-3.4,7.5-6.9s-5.3-6-10.2-5.6c-4.9.3-8.2,3.4-7.5,6.9s5.3,6,10.2,5.6ZM1210.2,1002.8c4.9-.3,8.3-3.4,7.5-6.9s-5.4-6-10.3-5.7c-4.9.4-8.3,3.4-7.5,6.9s5.4,6,10.3,5.7ZM1246.3,1000.3c5-.3,8.4-3.5,7.6-6.9-.8-3.5-5.4-6-10.4-5.7-4.9.4-8.3,3.5-7.6,6.9s5.4,6,10.4,5.7h0ZM1282.7,997.7c5-.4,8.4-3.5,7.6-7-.8-3.5-5.5-6-10.5-5.7-5,.4-8.4,3.5-7.6,7,.8,3.5,5.5,6,10.5,5.7h0ZM1319.4,995.2c5-.4,8.5-3.5,7.6-7s-5.5-6.1-10.6-5.7-8.4,3.5-7.6,7,5.5,6.1,10.5,5.7h0ZM1356.3,992.6c5.1-.4,8.5-3.5,7.7-7-.8-3.5-5.6-6.1-10.7-5.7s-8.5,3.5-7.7,7c.8,3.5,5.6,6.1,10.6,5.7h0ZM1393.4,990c5.1-.4,8.6-3.5,7.7-7-.8-3.5-5.6-6.1-10.7-5.7s-8.5,3.5-7.7,7,5.6,6.1,10.7,5.7ZM1430.9,987.4c5.1-.4,8.6-3.5,7.8-7.1s-5.7-6.1-10.8-5.8c-5.1.4-8.6,3.5-7.8,7.1s5.7,6.1,10.8,5.8h0ZM542.7,1073.5c4.3-.3,7.3-3.2,6.8-6.4s-4.4-5.7-8.7-5.4c-4.3.3-7.3,3.2-6.8,6.4.5,3.3,4.4,5.7,8.7,5.4h0ZM574.2,1071.4c4.3-.3,7.4-3.2,6.9-6.5s-4.5-5.7-8.8-5.4-7.4,3.2-6.9,6.4,4.4,5.7,8.8,5.4h0ZM605.9,1069.3c4.3-.3,7.4-3.2,6.9-6.5s-4.5-5.7-8.9-5.4c-4.3.3-7.4,3.2-6.9,6.5.5,3.3,4.5,5.7,8.8,5.4h0ZM637.9,1067.1c4.4-.3,7.5-3.2,6.9-6.5-.6-3.3-4.5-5.7-8.9-5.4-4.4.3-7.5,3.2-6.9,6.5s4.5,5.7,8.9,5.4ZM670,1064.9c4.4-.3,7.5-3.2,7-6.5s-4.6-5.7-9-5.4c-4.4.3-7.5,3.2-6.9,6.5s4.6,5.7,9,5.5h0ZM702.4,1062.8c4.4-.3,7.6-3.2,7-6.5-.6-3.3-4.6-5.8-9.1-5.5-4.4.3-7.6,3.2-7,6.5s4.6,5.8,9.1,5.5h0ZM735,1060.6c4.5-.3,7.6-3.2,7-6.6s-4.7-5.8-9.2-5.5-7.6,3.2-7,6.6c.6,3.3,4.7,5.8,9.1,5.5h0ZM767.8,1058.4c4.5-.3,7.7-3.3,7.1-6.6s-4.7-5.8-9.2-5.5-7.6,3.3-7,6.6,4.7,5.8,9.2,5.5h0ZM800.8,1056.2c4.5-.3,7.7-3.3,7.1-6.6s-4.8-5.8-9.3-5.5c-4.5.3-7.7,3.3-7.1,6.6.6,3.3,4.8,5.8,9.3,5.5h0ZM834.1,1053.9c4.6-.3,7.8-3.3,7.1-6.6s-4.8-5.8-9.4-5.5-7.7,3.3-7.1,6.6c.6,3.4,4.8,5.8,9.4,5.5h0ZM867.6,1051.7c4.6-.3,7.8-3.3,7.2-6.7s-4.9-5.8-9.5-5.5c-4.6.3-7.8,3.3-7.2,6.7s4.9,5.8,9.5,5.5ZM901.3,1049.4c4.6-.3,7.9-3.3,7.2-6.7s-4.9-5.9-9.5-5.6c-4.6.3-7.8,3.3-7.2,6.7s4.9,5.9,9.5,5.6h0ZM935.3,1047.1c4.7-.3,7.9-3.3,7.2-6.7-.7-3.4-5-5.9-9.6-5.6-4.7.3-7.9,3.3-7.2,6.7.7,3.4,5,5.9,9.6,5.6h0ZM969.5,1044.8c4.7-.3,8-3.3,7.3-6.7s-5-5.9-9.7-5.6-7.9,3.3-7.3,6.7,5,5.9,9.7,5.6ZM1003.9,1042.5c4.7-.3,8-3.3,7.3-6.8s-5.1-5.9-9.8-5.6c-4.7.3-8,3.3-7.3,6.8s5.1,5.9,9.8,5.6h0ZM1038.6,1040.2c4.8-.3,8.1-3.4,7.4-6.8s-5.1-5.9-9.9-5.6-8,3.4-7.4,6.8,5.1,5.9,9.9,5.6h0ZM1073.5,1037.8c4.8-.3,8.1-3.4,7.4-6.8s-5.2-6-10-5.6c-4.8.3-8.1,3.4-7.4,6.8s5.2,6,10,5.6ZM1108.7,1035.5c4.8-.3,8.2-3.4,7.4-6.8-.7-3.5-5.2-6-10.1-5.6-4.8.3-8.1,3.4-7.4,6.8.7,3.4,5.2,6,10,5.7ZM1144.2,1033.1c4.9-.3,8.2-3.4,7.5-6.9s-5.3-6-10.1-5.7c-4.8.3-8.2,3.4-7.5,6.9.7,3.5,5.3,6,10.1,5.7ZM1179.9,1030.7c4.9-.3,8.3-3.4,7.5-6.9s-5.3-6-10.2-5.7-8.2,3.4-7.5,6.9c.7,3.5,5.3,6,10.2,5.7h0ZM1215.8,1028.3c4.9-.3,8.3-3.4,7.6-6.9s-5.4-6-10.3-5.7-8.3,3.4-7.5,6.9c.8,3.5,5.4,6,10.3,5.7ZM1252,1025.8c5-.3,8.4-3.4,7.6-6.9s-5.4-6.1-10.4-5.7-8.3,3.4-7.6,6.9,5.4,6.1,10.4,5.7h0ZM1288.5,1023.4c5-.3,8.4-3.5,7.6-7s-5.5-6.1-10.5-5.7c-5,.3-8.4,3.5-7.6,7s5.5,6.1,10.5,5.7ZM1325.3,1020.9c5-.3,8.5-3.5,7.7-7s-5.5-6.1-10.6-5.7c-5,.3-8.5,3.5-7.7,7,.8,3.5,5.5,6.1,10.6,5.8h0ZM1362.3,1018.4c5.1-.3,8.5-3.5,7.7-7-.8-3.5-5.6-6.1-10.7-5.8-5.1.4-8.5,3.5-7.7,7s5.6,6.1,10.7,5.8h0ZM1399.6,1015.9c5.1-.3,8.6-3.5,7.7-7s-5.7-6.1-10.8-5.8c-5.1.3-8.6,3.5-7.7,7s5.7,6.1,10.8,5.8h0ZM1437.1,1013.4c5.2-.3,8.6-3.5,7.8-7.1s-5.7-6.2-10.9-5.8-8.6,3.5-7.8,7.1c.8,3.6,5.7,6.2,10.9,5.8ZM609.9,1093.4c4.4-.3,7.5-3.2,6.9-6.5s-4.5-5.7-8.9-5.5-7.4,3.2-6.9,6.5,4.5,5.7,8.9,5.5h0ZM641.9,1091.3c4.4-.3,7.5-3.2,6.9-6.5s-4.6-5.8-9-5.5-7.5,3.2-6.9,6.5,4.5,5.8,8.9,5.5ZM674.1,1089.2c4.4-.3,7.5-3.2,7-6.5-.6-3.3-4.6-5.8-9-5.5s-7.5,3.2-7,6.5,4.6,5.8,9,5.5ZM706.6,1087.1c4.4-.3,7.6-3.2,7-6.6s-4.7-5.8-9.1-5.5-7.6,3.2-7,6.6c.6,3.3,4.6,5.8,9.1,5.5h0ZM739.3,1085c4.5-.3,7.6-3.2,7-6.6s-4.7-5.8-9.2-5.5c-4.5.3-7.6,3.2-7,6.6.6,3.3,4.7,5.8,9.2,5.5h0ZM772.1,1082.9c4.5-.3,7.7-3.2,7.1-6.6-.6-3.4-4.7-5.8-9.3-5.5-4.5.3-7.7,3.3-7.1,6.6s4.7,5.8,9.2,5.5h0ZM805.3,1080.7c4.5-.3,7.7-3.3,7.1-6.6-.6-3.4-4.8-5.8-9.3-5.5-4.5.3-7.7,3.3-7.1,6.6s4.8,5.8,9.3,5.6h0ZM838.6,1078.6c4.6-.3,7.8-3.3,7.1-6.7-.6-3.4-4.8-5.9-9.4-5.6s-7.8,3.3-7.1,6.6,4.8,5.9,9.4,5.6h0ZM872.2,1076.4c4.6-.3,7.8-3.3,7.2-6.7s-4.9-5.9-9.5-5.6c-4.6.3-7.8,3.3-7.2,6.7s4.9,5.9,9.5,5.6h0ZM906,1074.2c4.6-.3,7.9-3.3,7.2-6.7-.6-3.4-4.9-5.9-9.6-5.6s-7.9,3.3-7.2,6.7,4.9,5.9,9.6,5.6h0ZM940.1,1072c4.7-.3,7.9-3.3,7.3-6.7s-5-5.9-9.7-5.6c-4.7.3-7.9,3.3-7.3,6.7s5,5.9,9.7,5.6h0ZM974.4,1069.8c4.7-.3,8-3.3,7.3-6.8s-5-5.9-9.7-5.6-8,3.3-7.3,6.7,5,5.9,9.7,5.6h0ZM1008.9,1067.6c4.7-.3,8-3.3,7.3-6.8s-5.1-6-9.8-5.6c-4.7.3-8,3.3-7.3,6.8s5.1,6,9.8,5.7h0ZM1043.7,1065.3c4.8-.3,8.1-3.3,7.4-6.8-.7-3.4-5.1-6-9.9-5.7s-8.1,3.4-7.4,6.8,5.1,6,9.9,5.7h0ZM1078.8,1063.1c4.8-.3,8.1-3.4,7.4-6.8-.7-3.5-5.2-6-10-5.7-4.8.3-8.1,3.4-7.4,6.8s5.2,6,10,5.7h0ZM1114,1060.8c4.8-.3,8.2-3.4,7.5-6.8-.7-3.5-5.2-6-10.1-5.7s-8.2,3.4-7.4,6.8,5.2,6,10.1,5.7h0ZM1149.6,1058.5c4.9-.3,8.2-3.4,7.5-6.9-.7-3.5-5.3-6-10.2-5.7s-8.2,3.4-7.5,6.9,5.3,6,10.2,5.7ZM1185.4,1056.2c4.9-.3,8.3-3.4,7.5-6.9s-5.4-6.1-10.3-5.7c-4.9.3-8.3,3.4-7.5,6.9s5.3,6.1,10.2,5.7h0ZM1221.4,1053.8c5-.3,8.3-3.4,7.6-6.9-.8-3.5-5.4-6.1-10.3-5.8-4.9.3-8.3,3.4-7.6,6.9.8,3.5,5.4,6.1,10.3,5.8h0ZM1257.7,1051.5c5-.3,8.4-3.4,7.6-6.9-.8-3.5-5.5-6.1-10.4-5.8-5,.3-8.4,3.4-7.6,6.9s5.4,6.1,10.4,5.8h0ZM1294.3,1049.1c5-.3,8.4-3.5,7.6-7s-5.5-6.1-10.5-5.8c-5,.3-8.4,3.5-7.6,7,.8,3.5,5.5,6.1,10.5,5.8h0ZM1331.2,1046.7c5.1-.3,8.5-3.5,7.7-7-.8-3.5-5.6-6.1-10.6-5.8-5,.3-8.5,3.5-7.7,7s5.6,6.1,10.6,5.8h0ZM1368.3,1044.3c5.1-.3,8.6-3.5,7.7-7s-5.6-6.2-10.7-5.8c-5.1.3-8.5,3.5-7.7,7s5.6,6.2,10.7,5.8h0ZM1405.7,1041.9c5.1-.3,8.6-3.5,7.8-7.1-.8-3.6-5.7-6.2-10.8-5.8-5.1.3-8.6,3.5-7.8,7.1.8,3.6,5.7,6.2,10.8,5.8h0ZM1443.4,1039.5c5.2-.3,8.7-3.5,7.8-7.1s-5.7-6.2-10.9-5.9-8.6,3.5-7.8,7.1c.8,3.6,5.7,6.2,10.9,5.9h0ZM646,1115.6c4.4-.3,7.5-3.2,7-6.5s-4.6-5.8-9-5.5-7.5,3.2-6.9,6.5c.6,3.3,4.6,5.8,9,5.5ZM678.3,1113.6c4.4-.3,7.6-3.2,7-6.5s-4.6-5.8-9.1-5.5c-4.4.3-7.5,3.2-7,6.5s4.6,5.8,9,5.5ZM710.8,1111.5c4.5-.3,7.6-3.2,7-6.6s-4.7-5.8-9.1-5.5c-4.5.3-7.6,3.2-7,6.6s4.7,5.8,9.1,5.6h0ZM743.6,1109.5c4.5-.3,7.7-3.2,7.1-6.6-.6-3.4-4.7-5.8-9.2-5.6s-7.6,3.2-7,6.6,4.7,5.8,9.2,5.6h0ZM776.5,1107.5c4.5-.3,7.7-3.2,7.1-6.6-.6-3.4-4.8-5.9-9.3-5.6s-7.7,3.2-7.1,6.6,4.7,5.9,9.3,5.6ZM809.8,1105.4c4.6-.3,7.8-3.3,7.1-6.6s-4.8-5.9-9.4-5.6c-4.5.3-7.7,3.3-7.1,6.6s4.8,5.9,9.4,5.6h0ZM843.2,1103.3c4.6-.3,7.8-3.3,7.2-6.7s-4.9-5.9-9.4-5.6c-4.6.3-7.8,3.3-7.1,6.7.6,3.4,4.8,5.9,9.4,5.6h0ZM876.9,1101.3c4.6-.3,7.8-3.3,7.2-6.7s-4.9-5.9-9.5-5.6-7.8,3.3-7.2,6.7,4.9,5.9,9.5,5.6h0ZM910.8,1099.1c4.7-.3,7.9-3.3,7.2-6.7s-5-5.9-9.6-5.6-7.9,3.3-7.2,6.7c.6,3.4,4.9,5.9,9.6,5.7h0ZM945,1097c4.7-.3,7.9-3.3,7.3-6.7s-5-6-9.7-5.7-7.9,3.3-7.3,6.7,5,6,9.7,5.7h0ZM979.3,1094.9c4.7-.3,8-3.3,7.3-6.8s-5.1-6-9.8-5.7c-4.7.3-8,3.3-7.3,6.8.7,3.4,5,6,9.8,5.7ZM1014,1092.7c4.7-.3,8-3.3,7.4-6.8s-5.1-6-9.9-5.7c-4.7.3-8,3.3-7.3,6.8.7,3.4,5.1,6,9.8,5.7ZM1048.9,1090.6c4.8-.3,8.1-3.3,7.4-6.8-.7-3.5-5.2-6-9.9-5.7s-8.1,3.3-7.4,6.8,5.1,6,9.9,5.7ZM1084,1088.4c4.8-.3,8.2-3.4,7.4-6.8-.7-3.5-5.2-6-10-5.7s-8.1,3.4-7.4,6.8c.7,3.5,5.2,6,10,5.7h0ZM1119.4,1086.2c4.9-.3,8.2-3.4,7.5-6.9-.7-3.5-5.3-6.1-10.1-5.8-4.8.3-8.2,3.4-7.5,6.8s5.3,6.1,10.1,5.8h0ZM1155,1084c4.9-.3,8.3-3.4,7.5-6.9-.7-3.5-5.3-6.1-10.2-5.8-4.9.3-8.2,3.4-7.5,6.9s5.3,6.1,10.2,5.8h0ZM1190.9,1081.8c4.9-.3,8.3-3.4,7.6-6.9-.8-3.5-5.4-6.1-10.3-5.8s-8.3,3.4-7.5,6.9c.8,3.5,5.4,6.1,10.3,5.8h0ZM1227.1,1079.5c5-.3,8.4-3.4,7.6-6.9s-5.4-6.1-10.4-5.8c-4.9.3-8.3,3.4-7.6,6.9s5.4,6.1,10.4,5.8h0ZM1263.5,1077.3c5-.3,8.4-3.4,7.6-7s-5.5-6.1-10.5-5.8-8.4,3.4-7.6,7,5.5,6.1,10.4,5.8h0ZM1300.2,1075c5-.3,8.5-3.4,7.7-7s-5.5-6.2-10.6-5.8c-5,.3-8.4,3.4-7.6,7s5.5,6.1,10.5,5.8h0ZM1337.1,1072.7c5.1-.3,8.5-3.4,7.7-7-.8-3.6-5.6-6.2-10.7-5.9-5.1.3-8.5,3.5-7.7,7s5.6,6.2,10.6,5.9h0ZM1374.4,1070.4c5.1-.3,8.6-3.5,7.7-7s-5.6-6.2-10.7-5.9c-5.1.3-8.6,3.5-7.7,7,.8,3.6,5.6,6.2,10.7,5.9h0ZM1411.8,1068.1c5.1-.3,8.6-3.5,7.8-7.1-.8-3.6-5.7-6.2-10.8-5.9-5.1.3-8.6,3.5-7.8,7.1.8,3.6,5.7,6.2,10.8,5.9h0ZM1449.6,1065.7c5.2-.3,8.7-3.5,7.8-7.1s-5.8-6.2-10.9-5.9c-5.2.3-8.7,3.5-7.8,7.1s5.8,6.2,10.9,5.9ZM617.9,1141.9c4.4-.3,7.5-3.2,6.9-6.5s-4.5-5.8-8.9-5.5c-4.4.3-7.5,3.2-6.9,6.5.5,3.3,4.5,5.8,8.9,5.5h0ZM650.1,1140c4.4-.3,7.5-3.2,7-6.5s-4.6-5.8-9-5.6c-4.4.3-7.5,3.2-7,6.5s4.6,5.8,9,5.6h0ZM682.5,1138c4.4-.3,7.6-3.2,7-6.5s-4.6-5.8-9.1-5.6-7.6,3.2-7,6.5c.6,3.4,4.6,5.8,9.1,5.6h0ZM715.1,1136.1c4.5-.3,7.6-3.2,7-6.6-.6-3.4-4.7-5.9-9.2-5.6s-7.6,3.2-7,6.6c.6,3.4,4.7,5.9,9.1,5.6h0ZM747.9,1134.1c4.5-.3,7.7-3.2,7.1-6.6s-4.7-5.9-9.2-5.6c-4.5.3-7.7,3.2-7.1,6.6s4.7,5.9,9.2,5.6ZM781,1132.2c4.5-.3,7.7-3.2,7.1-6.6s-4.8-5.9-9.3-5.6c-4.5.3-7.7,3.2-7.1,6.6s4.8,5.9,9.3,5.6h0ZM814.3,1130.2c4.6-.3,7.8-3.2,7.2-6.6-.6-3.4-4.8-5.9-9.4-5.6-4.6.3-7.7,3.2-7.1,6.6s4.8,5.9,9.4,5.6h0ZM847.8,1128.2c4.6-.3,7.8-3.3,7.2-6.7s-4.9-5.9-9.5-5.7-7.8,3.3-7.2,6.7,4.9,5.9,9.5,5.7h0ZM881.6,1126.2c4.6-.3,7.9-3.3,7.2-6.7-.6-3.4-4.9-6-9.6-5.7s-7.8,3.3-7.2,6.7,4.9,6,9.5,5.7h0ZM915.6,1124.2c4.7-.3,7.9-3.3,7.3-6.7-.7-3.4-5-6-9.6-5.7s-7.9,3.3-7.3,6.7c.6,3.4,5,6,9.6,5.7ZM949.8,1122.1c4.7-.3,8-3.3,7.3-6.7s-5-6-9.7-5.7c-4.7.3-7.9,3.3-7.3,6.7s5,6,9.7,5.7h0ZM984.3,1120.1c4.7-.3,8-3.3,7.3-6.8s-5.1-6-9.8-5.7-8,3.3-7.3,6.8,5.1,6,9.8,5.7h0ZM1019,1118c4.8-.3,8.1-3.3,7.4-6.8-.7-3.5-5.1-6-9.9-5.7-4.8.3-8.1,3.3-7.4,6.8s5.1,6,9.9,5.7h0ZM1054,1116c4.8-.3,8.1-3.3,7.4-6.8s-5.2-6.1-10-5.8c-4.8.3-8.1,3.3-7.4,6.8s5.2,6.1,10,5.8h0ZM1089.2,1113.9c4.8-.3,8.2-3.3,7.5-6.8-.7-3.5-5.2-6.1-10-5.8s-8.2,3.4-7.4,6.8,5.2,6.1,10,5.8h0ZM1124.7,1111.8c4.9-.3,8.2-3.4,7.5-6.9s-5.3-6.1-10.1-5.8c-4.9.3-8.2,3.4-7.5,6.9s5.3,6.1,10.1,5.8ZM1160.5,1109.6c4.9-.3,8.3-3.4,7.5-6.9s-5.3-6.1-10.2-5.8c-4.9.3-8.3,3.4-7.5,6.9s5.3,6.1,10.2,5.8ZM1196.5,1107.5c4.9-.3,8.3-3.4,7.6-6.9-.8-3.5-5.4-6.1-10.3-5.8-4.9.3-8.3,3.4-7.6,6.9s5.4,6.1,10.3,5.8h0ZM1232.7,1105.3c5-.3,8.4-3.4,7.6-6.9s-5.4-6.2-10.4-5.9c-5,.3-8.4,3.4-7.6,6.9.8,3.5,5.4,6.2,10.4,5.9h0ZM1269.2,1103.2c5-.3,8.4-3.4,7.7-7s-5.5-6.2-10.5-5.9c-5,.3-8.4,3.4-7.6,7,.8,3.5,5.5,6.2,10.5,5.9h0ZM1306,1101c5.1-.3,8.5-3.4,7.7-7-.8-3.6-5.6-6.2-10.6-5.9s-8.5,3.4-7.7,7,5.5,6.2,10.6,5.9h0ZM1343.1,1098.8c5.1-.3,8.5-3.4,7.7-7-.8-3.6-5.6-6.2-10.7-5.9-5.1.3-8.5,3.4-7.7,7s5.6,6.2,10.7,5.9ZM1380.4,1096.6c5.1-.3,8.6-3.5,7.8-7s-5.7-6.2-10.8-5.9c-5.1.3-8.6,3.5-7.7,7,.8,3.6,5.7,6.2,10.8,5.9ZM1418,1094.3c5.2-.3,8.7-3.5,7.8-7.1s-5.7-6.3-10.9-5.9c-5.1.3-8.6,3.5-7.8,7.1s5.7,6.3,10.9,6ZM1455.9,1092.1c5.2-.3,8.7-3.5,7.8-7.1-.9-3.6-5.8-6.3-11-6-5.2.3-8.7,3.5-7.8,7.1s5.8,6.3,11,6h0ZM589.9,1168.1c4.4-.3,7.5-3.1,6.9-6.5s-4.5-5.8-8.9-5.6c-4.4.3-7.4,3.2-6.9,6.5.5,3.3,4.5,5.8,8.9,5.6h0ZM621.9,1166.3c4.4-.3,7.5-3.2,7-6.5s-4.6-5.8-9-5.6-7.5,3.2-6.9,6.5c.6,3.3,4.5,5.8,8.9,5.6h0ZM654.2,1164.4c4.4-.3,7.6-3.2,7-6.5s-4.6-5.9-9-5.6c-4.4.3-7.5,3.2-7,6.5s4.6,5.9,9,5.6ZM686.6,1162.6c4.5-.3,7.6-3.2,7-6.6-.6-3.4-4.7-5.9-9.1-5.6s-7.6,3.2-7,6.5,4.6,5.9,9.1,5.6h0ZM719.3,1160.7c4.5-.3,7.7-3.2,7.1-6.6s-4.7-5.9-9.2-5.6c-4.5.3-7.6,3.2-7,6.6s4.7,5.9,9.2,5.6h0ZM752.3,1158.9c4.5-.3,7.7-3.2,7.1-6.6s-4.7-5.9-9.3-5.7-7.7,3.2-7.1,6.6,4.7,5.9,9.2,5.7h0ZM785.4,1157c4.5-.3,7.7-3.2,7.1-6.6-.6-3.4-4.8-5.9-9.3-5.7-4.5.3-7.7,3.2-7.1,6.6s4.8,5.9,9.3,5.7ZM818.8,1155.1c4.6-.3,7.8-3.2,7.2-6.7s-4.8-6-9.4-5.7-7.8,3.2-7.2,6.6,4.8,6,9.4,5.7h0ZM852.4,1153.2c4.6-.3,7.8-3.3,7.2-6.7s-4.9-6-9.5-5.7c-4.6.3-7.8,3.3-7.2,6.7s4.9,6,9.5,5.7ZM886.3,1151.3c4.6-.3,7.9-3.3,7.2-6.7s-4.9-6-9.6-5.7-7.9,3.3-7.2,6.7c.6,3.4,4.9,6,9.6,5.7h0ZM920.4,1149.3c4.7-.3,7.9-3.3,7.3-6.7-.7-3.4-5-6-9.7-5.7-4.7.3-7.9,3.3-7.3,6.7.7,3.4,5,6,9.6,5.8h0ZM954.7,1147.4c4.7-.3,8-3.3,7.3-6.7s-5-6-9.7-5.8-8,3.3-7.3,6.7,5,6,9.7,5.8ZM989.3,1145.4c4.7-.3,8-3.3,7.4-6.8s-5.1-6.1-9.8-5.8c-4.7.3-8,3.3-7.3,6.8s5.1,6.1,9.8,5.8ZM1024.1,1143.4c4.8-.3,8.1-3.3,7.4-6.8-.7-3.5-5.1-6.1-9.9-5.8s-8.1,3.3-7.4,6.8,5.1,6.1,9.9,5.8h0ZM1059.2,1141.4c4.8-.3,8.1-3.3,7.4-6.8-.7-3.5-5.2-6.1-10-5.8-4.8.3-8.1,3.3-7.4,6.8.7,3.5,5.2,6.1,10,5.8h0ZM1094.5,1139.4c4.8-.3,8.2-3.3,7.5-6.8-.7-3.5-5.2-6.1-10.1-5.8-4.8.3-8.2,3.3-7.5,6.8s5.2,6.1,10.1,5.8ZM1130.1,1137.4c4.9-.3,8.3-3.4,7.5-6.9s-5.3-6.1-10.2-5.8c-4.9.3-8.2,3.4-7.5,6.9s5.3,6.1,10.2,5.9h0ZM1165.9,1135.4c4.9-.3,8.3-3.4,7.6-6.9s-5.4-6.1-10.3-5.9c-4.9.3-8.3,3.4-7.5,6.9s5.3,6.2,10.2,5.9h0ZM1202,1133.3c5-.3,8.4-3.4,7.6-6.9s-5.4-6.2-10.4-5.9c-4.9.3-8.3,3.4-7.6,6.9s5.4,6.2,10.3,5.9h0ZM1238.4,1131.3c5-.3,8.4-3.4,7.6-6.9-.8-3.5-5.5-6.2-10.4-5.9-5,.3-8.4,3.4-7.6,6.9s5.4,6.2,10.4,5.9h0ZM1275,1129.2c5-.3,8.5-3.4,7.7-7-.8-3.6-5.5-6.2-10.5-5.9-5,.3-8.4,3.4-7.6,7s5.5,6.2,10.5,5.9ZM1311.9,1127.1c5.1-.3,8.5-3.4,7.7-7s-5.6-6.2-10.6-5.9c-5,.3-8.5,3.4-7.7,7s5.6,6.2,10.6,5.9h0ZM1349.1,1125c5.1-.3,8.6-3.4,7.7-7s-5.6-6.3-10.7-6c-5.1.3-8.5,3.4-7.7,7,.8,3.6,5.6,6.3,10.7,6h0ZM1386.5,1122.9c5.1-.3,8.6-3.4,7.8-7.1s-5.7-6.3-10.8-6c-5.1.3-8.6,3.4-7.8,7s5.7,6.3,10.8,6h0ZM1424.3,1120.7c5.2-.3,8.7-3.5,7.8-7.1s-5.7-6.3-10.9-6c-5.2.3-8.7,3.5-7.8,7.1s5.7,6.3,10.9,6h0ZM1462.3,1118.5c5.2-.3,8.7-3.5,7.9-7.1s-5.8-6.3-11-6c-5.2.3-8.7,3.5-7.9,7.1.9,3.6,5.8,6.3,11,6h0ZM593.8,1192.5c4.4-.2,7.5-3.1,6.9-6.5s-4.5-5.9-8.9-5.6c-4.4.2-7.5,3.1-6.9,6.5s4.5,5.9,8.9,5.6h0ZM625.9,1190.8c4.4-.2,7.5-3.2,7-6.5s-4.6-5.9-9-5.6-7.5,3.2-7,6.5c.6,3.4,4.6,5.9,9,5.6h0ZM658.3,1189c4.4-.2,7.6-3.2,7-6.5s-4.6-5.9-9.1-5.7c-4.4.2-7.6,3.2-7,6.5s4.6,5.9,9,5.7ZM690.9,1187.3c4.5-.2,7.6-3.2,7-6.6-.6-3.4-4.7-5.9-9.1-5.7-4.5.3-7.6,3.2-7,6.6s4.7,5.9,9.1,5.7h0ZM723.6,1185.5c4.5-.2,7.7-3.2,7.1-6.6s-4.7-5.9-9.2-5.7-7.6,3.2-7.1,6.6c.6,3.4,4.7,5.9,9.2,5.7h0ZM756.6,1183.7c4.5-.2,7.7-3.2,7.1-6.6s-4.8-6-9.3-5.7c-4.5.2-7.7,3.2-7.1,6.6s4.7,6,9.3,5.7h0ZM789.9,1181.9c4.6-.2,7.8-3.2,7.1-6.6s-4.8-6-9.4-5.7c-4.6.2-7.7,3.2-7.1,6.6s4.8,6,9.3,5.7ZM823.4,1180.1c4.6-.2,7.8-3.2,7.2-6.7s-4.9-6-9.4-5.7-7.8,3.2-7.2,6.6c.6,3.4,4.8,6,9.4,5.7h0ZM857.1,1178.3c4.6-.2,7.9-3.2,7.2-6.7-.6-3.4-4.9-6-9.5-5.7s-7.8,3.2-7.2,6.7,4.9,6,9.5,5.8h0ZM891,1176.4c4.7-.2,7.9-3.3,7.3-6.7-.6-3.4-5-6-9.6-5.8-4.6.3-7.9,3.3-7.2,6.7.6,3.4,4.9,6,9.6,5.8h0ZM925.2,1174.6c4.7-.3,8-3.3,7.3-6.7s-5-6-9.7-5.8-7.9,3.3-7.3,6.7,5,6,9.7,5.8h0ZM959.6,1172.7c4.7-.3,8-3.3,7.3-6.8s-5.1-6.1-9.8-5.8-8,3.3-7.3,6.7c.7,3.5,5,6.1,9.8,5.8ZM994.3,1170.8c4.8-.3,8.1-3.3,7.4-6.8s-5.1-6.1-9.9-5.8c-4.7.3-8,3.3-7.4,6.8s5.1,6.1,9.8,5.8ZM1029.2,1168.9c4.8-.3,8.1-3.3,7.4-6.8-.7-3.5-5.2-6.1-9.9-5.8s-8.1,3.3-7.4,6.8,5.1,6.1,9.9,5.8h0ZM1064.4,1167c4.8-.3,8.2-3.3,7.4-6.8s-5.2-6.1-10-5.9-8.2,3.3-7.4,6.8,5.2,6.1,10,5.9h0ZM1099.8,1165.1c4.9-.3,8.2-3.3,7.5-6.8s-5.3-6.1-10.1-5.9c-4.8.3-8.2,3.3-7.5,6.8.7,3.5,5.3,6.2,10.1,5.9ZM1135.5,1163.2c4.9-.3,8.3-3.3,7.5-6.9-.7-3.5-5.3-6.2-10.2-5.9s-8.2,3.3-7.5,6.9,5.3,6.2,10.2,5.9h0ZM1171.5,1161.2c4.9-.3,8.3-3.4,7.6-6.9-.8-3.5-5.4-6.2-10.3-5.9-4.9.3-8.3,3.4-7.5,6.9s5.4,6.2,10.3,5.9h0ZM1207.7,1159.3c5-.3,8.4-3.4,7.6-6.9s-5.4-6.2-10.4-5.9-8.4,3.4-7.6,6.9c.8,3.6,5.4,6.2,10.4,5.9h0ZM1244.1,1157.3c5-.3,8.4-3.4,7.6-7s-5.5-6.2-10.5-6-8.4,3.4-7.6,6.9c.8,3.6,5.5,6.2,10.5,6h0ZM1280.8,1155.3c5-.3,8.5-3.4,7.7-7s-5.5-6.2-10.6-6c-5,.3-8.5,3.4-7.7,7s5.5,6.3,10.6,6ZM1317.9,1153.3c5.1-.3,8.5-3.4,7.7-7s-5.6-6.3-10.7-6-8.5,3.4-7.7,7,5.6,6.3,10.6,6h0ZM1355.1,1151.3c5.1-.3,8.6-3.4,7.8-7s-5.6-6.3-10.8-6c-5.1.3-8.6,3.4-7.7,7,.8,3.6,5.6,6.3,10.7,6ZM1392.7,1149.3c5.2-.3,8.7-3.4,7.8-7.1s-5.7-6.3-10.9-6c-5.1.3-8.6,3.4-7.8,7.1s5.7,6.3,10.8,6h0ZM1430.5,1147.2c5.2-.3,8.7-3.5,7.8-7.1-.9-3.6-5.8-6.3-10.9-6-5.2.3-8.7,3.5-7.8,7.1.9,3.6,5.7,6.3,10.9,6.1h0ZM1468.6,1145.2c5.2-.3,8.8-3.5,7.9-7.1s-5.8-6.4-11-6.1c-5.2.3-8.7,3.5-7.9,7.1s5.8,6.4,11,6.1h0ZM1507,1143.1c5.3-.3,8.8-3.5,7.9-7.1s-5.9-6.4-11.1-6.1-8.8,3.5-7.9,7.1,5.9,6.4,11.1,6.1ZM597.8,1217.1c4.4-.2,7.5-3.1,7-6.5s-4.5-5.9-8.9-5.7c-4.4.2-7.5,3.1-6.9,6.5s4.5,5.9,8.9,5.7h0ZM630,1215.4c4.4-.2,7.5-3.1,7-6.5s-4.6-5.9-9-5.7c-4.4.2-7.5,3.1-7,6.5.6,3.4,4.6,5.9,9,5.7h0ZM662.4,1213.7c4.4-.2,7.6-3.2,7-6.5s-4.6-5.9-9.1-5.7-7.6,3.2-7,6.5,4.6,5.9,9.1,5.7h0ZM695.1,1212.1c4.5-.2,7.6-3.2,7.1-6.6s-4.7-6-9.2-5.7-7.6,3.2-7,6.6c.6,3.4,4.7,6,9.1,5.7h0ZM727.9,1210.4c4.5-.2,7.7-3.2,7.1-6.6s-4.7-6-9.2-5.7c-4.5.2-7.7,3.2-7.1,6.6s4.7,6,9.2,5.7ZM761,1208.7c4.5-.2,7.7-3.2,7.1-6.6s-4.8-6-9.3-5.7-7.7,3.2-7.1,6.6,4.8,6,9.3,5.8h0ZM794.4,1206.9c4.6-.2,7.8-3.2,7.2-6.6-.6-3.4-4.8-6-9.4-5.8-4.6.2-7.8,3.2-7.2,6.6s4.8,6,9.4,5.8ZM827.9,1205.2c4.6-.2,7.8-3.2,7.2-6.7s-4.9-6-9.5-5.8-7.8,3.2-7.2,6.7,4.9,6,9.5,5.8h0ZM861.7,1203.5c4.6-.2,7.9-3.2,7.2-6.7s-4.9-6-9.5-5.8c-4.6.2-7.9,3.2-7.2,6.7s4.9,6,9.5,5.8h0ZM895.8,1201.7c4.7-.2,7.9-3.2,7.3-6.7s-5-6.1-9.6-5.8c-4.7.2-7.9,3.2-7.3,6.7.6,3.5,5,6.1,9.6,5.8h0ZM930.1,1199.9c4.7-.2,8-3.3,7.3-6.7s-5-6.1-9.7-5.8c-4.7.2-8,3.3-7.3,6.7s5,6.1,9.7,5.8h0ZM964.6,1198.2c4.7-.2,8-3.3,7.4-6.8-.7-3.5-5.1-6.1-9.8-5.9-4.7.2-8,3.3-7.3,6.8s5.1,6.1,9.8,5.9h0ZM999.3,1196.4c4.8-.2,8.1-3.3,7.4-6.8s-5.1-6.1-9.9-5.9c-4.8.3-8.1,3.3-7.4,6.8.7,3.5,5.1,6.1,9.9,5.9ZM1034.4,1194.6c4.8-.2,8.1-3.3,7.4-6.8-.7-3.5-5.2-6.1-10-5.9-4.8.3-8.1,3.3-7.4,6.8.7,3.5,5.2,6.2,10,5.9h0ZM1069.6,1192.8c4.8-.2,8.2-3.3,7.5-6.8s-5.2-6.2-10.1-5.9c-4.8.3-8.2,3.3-7.5,6.8s5.2,6.2,10,5.9ZM1105.2,1190.9c4.9-.3,8.2-3.3,7.5-6.9-.7-3.5-5.3-6.2-10.1-5.9s-8.2,3.3-7.5,6.8,5.3,6.2,10.1,5.9ZM1140.9,1189.1c4.9-.3,8.3-3.3,7.6-6.9s-5.3-6.2-10.2-5.9c-4.9.3-8.3,3.3-7.5,6.9.7,3.5,5.3,6.2,10.2,6h0ZM1177,1187.2c4.9-.3,8.4-3.4,7.6-6.9-.8-3.6-5.4-6.2-10.3-6s-8.3,3.4-7.6,6.9c.8,3.6,5.4,6.2,10.3,6ZM1213.3,1185.4c5-.3,8.4-3.4,7.6-6.9-.8-3.6-5.4-6.2-10.4-6-5,.3-8.4,3.4-7.6,6.9s5.4,6.2,10.4,6h0ZM1249.9,1183.5c5-.3,8.5-3.4,7.7-7s-5.5-6.3-10.5-6c-5,.3-8.4,3.4-7.6,7s5.5,6.3,10.5,6ZM1286.7,1181.6c5.1-.3,8.5-3.4,7.7-7s-5.5-6.3-10.6-6c-5,.3-8.5,3.4-7.7,7,.8,3.6,5.5,6.3,10.6,6h0ZM1323.8,1179.7c5.1-.3,8.6-3.4,7.7-7s-5.6-6.3-10.7-6c-5.1.3-8.5,3.4-7.7,7s5.6,6.3,10.7,6.1ZM1361.2,1177.7c5.1-.3,8.6-3.4,7.8-7-.8-3.6-5.7-6.3-10.8-6.1-5.1.3-8.6,3.4-7.8,7,.8,3.6,5.6,6.3,10.8,6.1h0ZM1398.9,1175.8c5.2-.3,8.7-3.4,7.8-7.1s-5.7-6.4-10.9-6.1c-5.2.3-8.7,3.4-7.8,7.1s5.7,6.4,10.9,6.1h0ZM1436.8,1173.8c5.2-.3,8.7-3.4,7.9-7.1s-5.8-6.4-11-6.1c-5.2.3-8.7,3.4-7.9,7.1.9,3.6,5.8,6.4,11,6.1h0ZM1475,1171.9c5.3-.3,8.8-3.5,7.9-7.1-.9-3.7-5.8-6.4-11.1-6.1s-8.8,3.5-7.9,7.1c.9,3.7,5.8,6.4,11.1,6.1h0ZM601.8,1241.7c4.4-.2,7.5-3.1,7-6.5s-4.6-5.9-9-5.7c-4.4.2-7.5,3.1-7,6.5s4.5,5.9,8.9,5.7ZM634.1,1240.1c4.4-.2,7.6-3.1,7-6.5s-4.6-5.9-9-5.7-7.5,3.1-7,6.5,4.6,6,9,5.7h0ZM666.6,1238.6c4.5-.2,7.6-3.2,7-6.5s-4.6-6-9.1-5.7-7.6,3.1-7,6.5c.6,3.4,4.6,6,9.1,5.8h0ZM699.3,1237c4.5-.2,7.7-3.2,7.1-6.6s-4.7-6-9.2-5.8c-4.5.2-7.6,3.2-7.1,6.6s4.7,6,9.2,5.8ZM732.3,1235.3c4.5-.2,7.7-3.2,7.1-6.6-.6-3.4-4.7-6-9.3-5.8s-7.7,3.2-7.1,6.6,4.7,6,9.2,5.8h0ZM765.5,1233.7c4.6-.2,7.8-3.2,7.1-6.6s-4.8-6-9.3-5.8c-4.5.2-7.7,3.2-7.1,6.6s4.8,6,9.3,5.8h0ZM798.9,1232.1c4.6-.2,7.8-3.2,7.2-6.6s-4.8-6-9.4-5.8c-4.6.2-7.8,3.2-7.2,6.6.6,3.4,4.8,6,9.4,5.8ZM832.5,1230.4c4.6-.2,7.9-3.2,7.2-6.7-.6-3.5-4.9-6.1-9.5-5.8-4.6.2-7.8,3.2-7.2,6.7s4.9,6.1,9.5,5.8ZM866.4,1228.8c4.6-.2,7.9-3.2,7.3-6.7-.6-3.5-4.9-6.1-9.6-5.9-4.6.2-7.9,3.2-7.2,6.7s4.9,6.1,9.6,5.9ZM900.6,1227.1c4.7-.2,7.9-3.2,7.3-6.7s-5-6.1-9.7-5.9c-4.7.2-7.9,3.2-7.3,6.7s5,6.1,9.6,5.9ZM934.9,1225.4c4.7-.2,8-3.2,7.3-6.7s-5-6.1-9.7-5.9c-4.7.2-8,3.2-7.3,6.7s5,6.1,9.7,5.9h0ZM969.5,1223.7c4.7-.2,8-3.3,7.4-6.8s-5.1-6.1-9.8-5.9c-4.7.2-8,3.3-7.4,6.8s5.1,6.2,9.8,5.9ZM1004.4,1222c4.8-.2,8.1-3.3,7.4-6.8s-5.1-6.2-9.9-5.9-8.1,3.3-7.4,6.8c.7,3.5,5.1,6.2,9.9,5.9h0ZM1039.5,1220.3c4.8-.2,8.1-3.3,7.4-6.8s-5.2-6.2-10-5.9c-4.8.2-8.1,3.3-7.4,6.8s5.2,6.2,10,5.9h0ZM1074.9,1218.6c4.9-.2,8.2-3.3,7.5-6.8-.7-3.5-5.2-6.2-10.1-6s-8.2,3.3-7.5,6.8,5.2,6.2,10.1,6h0ZM1110.5,1216.9c4.9-.2,8.3-3.3,7.5-6.9s-5.3-6.2-10.2-6-8.2,3.3-7.5,6.9,5.3,6.2,10.2,6ZM1146.4,1215.1c4.9-.2,8.3-3.3,7.6-6.9-.7-3.6-5.3-6.2-10.3-6s-8.3,3.3-7.5,6.9c.7,3.6,5.3,6.2,10.2,6h0ZM1182.5,1213.3c5-.2,8.4-3.3,7.6-6.9s-5.4-6.3-10.4-6c-4.9.3-8.3,3.3-7.6,6.9s5.4,6.3,10.3,6ZM1219,1211.6c5-.2,8.4-3.4,7.6-6.9s-5.5-6.3-10.5-6c-5,.3-8.4,3.4-7.6,6.9s5.4,6.3,10.4,6h0ZM1255.6,1209.8c5-.3,8.5-3.4,7.7-7s-5.5-6.3-10.5-6.1c-5,.3-8.5,3.4-7.7,7s5.5,6.3,10.5,6.1ZM1292.6,1208c5.1-.2,8.5-3.4,7.7-7s-5.6-6.3-10.6-6.1-8.5,3.4-7.7,7,5.6,6.3,10.6,6.1ZM1329.8,1206.1c5.1-.2,8.6-3.4,7.8-7s-5.6-6.4-10.7-6.1-8.6,3.4-7.7,7,5.6,6.4,10.7,6.1h0ZM1367.3,1204.3c5.2-.2,8.6-3.4,7.8-7.1s-5.7-6.4-10.8-6.1c-5.1.3-8.6,3.4-7.8,7s5.7,6.4,10.8,6.1h0ZM1405.1,1202.5c5.2-.3,8.7-3.4,7.8-7.1s-5.7-6.4-10.9-6.1c-5.2.3-8.7,3.4-7.8,7.1.8,3.6,5.7,6.4,10.9,6.1h0ZM1443.1,1200.6c5.2-.3,8.8-3.4,7.9-7.1s-5.8-6.4-11-6.2c-5.2.3-8.7,3.4-7.9,7.1s5.8,6.4,11,6.2ZM1481.4,1198.7c5.3-.3,8.8-3.5,7.9-7.1s-5.9-6.4-11.1-6.2c-5.2.3-8.8,3.4-7.9,7.1s5.8,6.4,11.1,6.2ZM605.8,1266.5c4.4-.2,7.5-3.1,7-6.5s-4.6-6-9-5.8-7.5,3.1-7,6.5,4.6,6,9,5.8ZM638.2,1265c4.4-.2,7.6-3.1,7-6.5s-4.6-6-9-5.8-7.6,3.1-7,6.5,4.6,6,9,5.8h0ZM670.8,1263.5c4.5-.2,7.6-3.1,7.1-6.6s-4.7-6-9.1-5.8-7.6,3.1-7,6.5c.6,3.4,4.6,6,9.1,5.8ZM703.6,1262c4.5-.2,7.7-3.2,7.1-6.6-.6-3.4-4.7-6-9.2-5.8-4.5.2-7.7,3.2-7.1,6.6.6,3.4,4.7,6,9.2,5.8ZM736.6,1260.4c4.5-.2,7.7-3.2,7.1-6.6-.6-3.4-4.8-6-9.3-5.8s-7.7,3.2-7.1,6.6c.6,3.4,4.7,6,9.3,5.8h0ZM769.9,1258.9c4.6-.2,7.8-3.2,7.2-6.6s-4.8-6.1-9.4-5.8c-4.6.2-7.8,3.2-7.1,6.6s4.8,6.1,9.3,5.9h0ZM803.4,1257.3c4.6-.2,7.8-3.2,7.2-6.7s-4.9-6.1-9.4-5.9c-4.6.2-7.8,3.2-7.2,6.6.6,3.5,4.8,6.1,9.4,5.9h0ZM837.1,1255.8c4.6-.2,7.9-3.2,7.2-6.7s-4.9-6.1-9.5-5.9-7.8,3.2-7.2,6.7c.6,3.5,4.9,6.1,9.5,5.9h0ZM871.1,1254.2c4.7-.2,7.9-3.2,7.3-6.7-.6-3.5-5-6.1-9.6-5.9s-7.9,3.2-7.3,6.7,4.9,6.1,9.6,5.9h0ZM905.3,1252.6c4.7-.2,8-3.2,7.3-6.7s-5-6.1-9.7-5.9-7.9,3.2-7.3,6.7c.7,3.5,5,6.1,9.7,5.9h0ZM939.8,1251c4.7-.2,8-3.2,7.4-6.8s-5.1-6.2-9.8-5.9c-4.7.2-8,3.2-7.3,6.7s5,6.2,9.8,5.9ZM974.5,1249.4c4.8-.2,8.1-3.3,7.4-6.8s-5.1-6.2-9.9-6-8.1,3.3-7.4,6.8c.7,3.5,5.1,6.2,9.8,6h0ZM1009.5,1247.8c4.8-.2,8.1-3.3,7.4-6.8s-5.2-6.2-9.9-6c-4.8.2-8.1,3.3-7.4,6.8s5.1,6.2,9.9,6h0ZM1044.7,1246.2c4.8-.2,8.2-3.3,7.5-6.8-.7-3.5-5.2-6.2-10-6s-8.2,3.3-7.5,6.8c.7,3.5,5.2,6.2,10,6h0ZM1080.2,1244.5c4.9-.2,8.2-3.3,7.5-6.8s-5.3-6.2-10.1-6-8.2,3.3-7.5,6.8,5.2,6.2,10.1,6ZM1115.9,1242.9c4.9-.2,8.3-3.3,7.5-6.9s-5.3-6.3-10.2-6c-4.9.2-8.3,3.3-7.5,6.9s5.3,6.3,10.2,6ZM1151.9,1241.2c4.9-.2,8.3-3.3,7.6-6.9-.8-3.6-5.4-6.3-10.3-6.1-4.9.2-8.3,3.3-7.6,6.9s5.3,6.3,10.3,6.1ZM1188.1,1239.6c5-.2,8.4-3.3,7.6-6.9-.8-3.6-5.4-6.3-10.4-6.1-5,.2-8.4,3.3-7.6,6.9s5.4,6.3,10.4,6.1h0ZM1224.6,1237.9c5-.2,8.5-3.3,7.7-7-.8-3.6-5.5-6.3-10.5-6.1-5,.2-8.4,3.3-7.6,6.9s5.5,6.3,10.5,6.1h0ZM1261.4,1236.2c5.1-.2,8.5-3.4,7.7-7s-5.5-6.3-10.6-6.1-8.5,3.4-7.7,7c.8,3.6,5.5,6.3,10.6,6.1h0ZM1298.5,1234.5c5.1-.2,8.6-3.4,7.7-7s-5.6-6.4-10.7-6.1c-5.1.2-8.5,3.4-7.7,7s5.6,6.4,10.7,6.1ZM1335.8,1232.7c5.1-.2,8.6-3.4,7.8-7s-5.6-6.4-10.8-6.2c-5.1.2-8.6,3.4-7.8,7,.8,3.6,5.6,6.4,10.7,6.2h0ZM1373.4,1231c5.2-.2,8.7-3.4,7.8-7.1s-5.7-6.4-10.9-6.2-8.6,3.4-7.8,7c.8,3.6,5.7,6.4,10.8,6.2h0ZM1411.3,1229.2c5.2-.2,8.7-3.4,7.9-7.1s-5.8-6.4-11-6.2-8.7,3.4-7.9,7.1c.8,3.7,5.7,6.4,10.9,6.2h0ZM1449.4,1227.5c5.2-.2,8.8-3.4,7.9-7.1-.9-3.7-5.8-6.5-11.1-6.2-5.2.2-8.8,3.4-7.9,7.1.9,3.7,5.8,6.5,11,6.2h0ZM609.8,1291.3c4.4-.2,7.6-3.1,7-6.5s-4.6-6-9-5.8-7.5,3.1-7,6.5,4.6,6,9,5.8h0ZM642.3,1289.9c4.5-.2,7.6-3.1,7-6.5s-4.6-6-9.1-5.8c-4.4.2-7.6,3.1-7,6.5s4.6,6,9.1,5.8h0ZM675,1288.5c4.5-.2,7.7-3.1,7.1-6.6-.6-3.4-4.7-6-9.2-5.8-4.5.2-7.6,3.1-7.1,6.6s4.7,6,9.1,5.8h0ZM707.9,1287.1c4.5-.2,7.7-3.1,7.1-6.6-.6-3.4-4.7-6.1-9.2-5.9s-7.7,3.1-7.1,6.6,4.7,6.1,9.2,5.9ZM741,1285.6c4.5-.2,7.7-3.2,7.1-6.6s-4.8-6.1-9.3-5.9c-4.5.2-7.7,3.2-7.1,6.6s4.8,6.1,9.3,5.9h0ZM774.3,1284.2c4.6-.2,7.8-3.2,7.2-6.6s-4.8-6.1-9.4-5.9-7.8,3.2-7.2,6.6c.6,3.5,4.8,6.1,9.4,5.9ZM807.9,1282.7c4.6-.2,7.8-3.2,7.2-6.7s-4.9-6.1-9.5-5.9c-4.6.2-7.8,3.2-7.2,6.6s4.9,6.1,9.5,5.9h0ZM841.8,1281.2c4.6-.2,7.9-3.2,7.3-6.7s-4.9-6.1-9.6-5.9c-4.6.2-7.9,3.2-7.2,6.7s4.9,6.1,9.5,5.9h0ZM875.8,1279.7c4.7-.2,7.9-3.2,7.3-6.7s-5-6.2-9.6-6-7.9,3.2-7.3,6.7,4.9,6.2,9.6,6h0ZM910.2,1278.2c4.7-.2,8-3.2,7.3-6.7s-5-6.2-9.7-6c-4.7.2-8,3.2-7.3,6.7s5,6.2,9.7,6ZM944.7,1276.7c4.7-.2,8-3.2,7.4-6.8-.7-3.5-5.1-6.2-9.8-6-4.7.2-8,3.2-7.4,6.7s5,6.2,9.8,6h0ZM979.5,1275.2c4.8-.2,8.1-3.2,7.4-6.8s-5.1-6.2-9.9-6-8.1,3.2-7.4,6.8,5.1,6.2,9.9,6h0ZM1014.6,1273.7c4.8-.2,8.1-3.3,7.4-6.8s-5.2-6.2-10-6c-4.8.2-8.1,3.3-7.4,6.8.7,3.5,5.2,6.2,10,6h0ZM1049.9,1272.2c4.8-.2,8.2-3.3,7.5-6.8-.7-3.6-5.2-6.3-10.1-6s-8.2,3.3-7.5,6.8c.7,3.6,5.2,6.3,10.1,6h0ZM1085.5,1270.6c4.9-.2,8.2-3.3,7.5-6.8s-5.3-6.3-10.1-6.1c-4.9.2-8.2,3.3-7.5,6.8s5.3,6.3,10.1,6.1h0ZM1121.3,1269c4.9-.2,8.3-3.3,7.6-6.9-.7-3.6-5.3-6.3-10.2-6.1s-8.3,3.3-7.6,6.9,5.3,6.3,10.2,6.1h0ZM1157.4,1267.5c5-.2,8.4-3.3,7.6-6.9-.8-3.6-5.4-6.3-10.3-6.1-4.9.2-8.3,3.3-7.6,6.9.7,3.6,5.4,6.3,10.3,6.1h0ZM1193.7,1265.9c5-.2,8.4-3.3,7.6-6.9-.8-3.6-5.4-6.3-10.4-6.1-5,.2-8.4,3.3-7.6,6.9s5.4,6.3,10.4,6.1ZM1230.3,1264.3c5-.2,8.5-3.3,7.7-7s-5.5-6.4-10.5-6.1-8.5,3.3-7.7,6.9c.8,3.6,5.5,6.4,10.5,6.1h0ZM1267.2,1262.7c5.1-.2,8.5-3.3,7.7-7s-5.5-6.4-10.6-6.2-8.5,3.3-7.7,7,5.5,6.4,10.6,6.2ZM1304.4,1261.1c5.1-.2,8.6-3.4,7.8-7s-5.6-6.4-10.7-6.2c-5.1.2-8.6,3.4-7.7,7s5.6,6.4,10.7,6.2h0ZM1341.8,1259.4c5.1-.2,8.6-3.4,7.8-7s-5.7-6.4-10.8-6.2c-5.1.2-8.6,3.4-7.8,7,.8,3.7,5.7,6.4,10.8,6.2h0ZM1379.5,1257.8c5.2-.2,8.7-3.4,7.8-7.1s-5.7-6.5-10.9-6.2c-5.2.2-8.7,3.4-7.8,7.1.8,3.7,5.7,6.5,10.9,6.2ZM1417.5,1256.1c5.2-.2,8.8-3.4,7.9-7.1s-5.8-6.5-11-6.2c-5.2.2-8.7,3.4-7.9,7.1s5.8,6.5,11,6.3h0ZM1455.8,1254.5c5.3-.2,8.8-3.4,7.9-7.1s-5.8-6.5-11.1-6.3-8.8,3.4-7.9,7.1c.9,3.7,5.8,6.5,11.1,6.3h0ZM613.9,1316.3c4.4-.2,7.6-3.1,7-6.5s-4.6-6-9-5.9c-4.4.2-7.6,3.1-7,6.5s4.6,6,9,5.9h0ZM646.4,1315c4.5-.2,7.6-3.1,7.1-6.5s-4.6-6.1-9.1-5.9c-4.5.2-7.6,3.1-7,6.5s4.6,6.1,9.1,5.9h0ZM679.2,1313.6c4.5-.2,7.7-3.1,7.1-6.6s-4.7-6.1-9.2-5.9c-4.5.2-7.7,3.1-7.1,6.6s4.7,6.1,9.2,5.9h0ZM712.1,1312.3c4.5-.2,7.7-3.1,7.1-6.6-.6-3.5-4.7-6.1-9.3-5.9-4.5.2-7.7,3.1-7.1,6.6.6,3.5,4.7,6.1,9.2,5.9ZM745.4,1310.9c4.6-.2,7.8-3.2,7.2-6.6s-4.8-6.1-9.3-5.9-7.7,3.2-7.1,6.6,4.8,6.1,9.3,5.9h0ZM778.8,1309.5c4.6-.2,7.8-3.2,7.2-6.6s-4.8-6.1-9.4-5.9c-4.6.2-7.8,3.2-7.2,6.6s4.8,6.1,9.4,5.9h0ZM812.5,1308.2c4.6-.2,7.9-3.2,7.2-6.7s-4.9-6.2-9.5-6c-4.6.2-7.8,3.2-7.2,6.7.6,3.5,4.9,6.2,9.5,6h0ZM846.4,1306.8c4.7-.2,7.9-3.2,7.3-6.7s-4.9-6.2-9.6-6c-4.6.2-7.9,3.2-7.3,6.7s4.9,6.2,9.6,6h0ZM880.6,1305.4c4.7-.2,8-3.2,7.3-6.7s-5-6.2-9.7-6-7.9,3.2-7.3,6.7c.6,3.5,5,6.2,9.6,6h0ZM915,1304c4.7-.2,8-3.2,7.4-6.7s-5-6.2-9.7-6c-4.7.2-8,3.2-7.3,6.7s5,6.2,9.7,6h0ZM949.7,1302.6c4.8-.2,8.1-3.2,7.4-6.8s-5.1-6.2-9.8-6c-4.7.2-8,3.2-7.4,6.8s5.1,6.2,9.8,6h0ZM984.6,1301.1c4.8-.2,8.1-3.2,7.4-6.8s-5.1-6.3-9.9-6.1c-4.8.2-8.1,3.2-7.4,6.8s5.1,6.3,9.9,6.1h0ZM1019.7,1299.7c4.8-.2,8.2-3.2,7.5-6.8s-5.2-6.3-10-6.1c-4.8.2-8.1,3.2-7.5,6.8s5.2,6.3,10,6.1h0ZM1055.1,1298.3c4.9-.2,8.2-3.3,7.5-6.8s-5.2-6.3-10.1-6.1c-4.9.2-8.2,3.3-7.5,6.8.7,3.6,5.2,6.3,10.1,6.1h0ZM1090.8,1296.8c4.9-.2,8.3-3.3,7.5-6.9-.7-3.6-5.3-6.3-10.2-6.1-4.9.2-8.3,3.3-7.5,6.8s5.3,6.3,10.2,6.1h0ZM1126.7,1295.3c4.9-.2,8.3-3.3,7.6-6.9-.7-3.6-5.3-6.3-10.3-6.1-4.9.2-8.3,3.3-7.6,6.9s5.3,6.3,10.3,6.1ZM1162.9,1293.8c5-.2,8.4-3.3,7.6-6.9-.8-3.6-5.4-6.4-10.4-6.2-4.9.2-8.4,3.3-7.6,6.9s5.4,6.4,10.3,6.2h0ZM1199.4,1292.4c5-.2,8.4-3.3,7.7-6.9s-5.5-6.4-10.5-6.2c-5,.2-8.4,3.3-7.6,6.9.8,3.6,5.4,6.4,10.4,6.2h0ZM1236.1,1290.9c5-.2,8.5-3.3,7.7-7s-5.5-6.4-10.6-6.2-8.5,3.3-7.7,7,5.5,6.4,10.5,6.2h0ZM1273.1,1289.3c5.1-.2,8.6-3.3,7.7-7s-5.6-6.4-10.6-6.2c-5.1.2-8.5,3.3-7.7,7s5.6,6.4,10.6,6.2h0ZM1310.3,1287.8c5.1-.2,8.6-3.3,7.8-7s-5.6-6.5-10.7-6.2c-5.1.2-8.6,3.3-7.8,7s5.6,6.5,10.7,6.2h0ZM1347.9,1286.3c5.2-.2,8.7-3.4,7.8-7s-5.7-6.5-10.8-6.3c-5.1.2-8.6,3.4-7.8,7,.8,3.7,5.7,6.5,10.8,6.3h0ZM1385.7,1284.7c5.2-.2,8.7-3.4,7.9-7.1-.8-3.7-5.7-6.5-10.9-6.3-5.2.2-8.7,3.4-7.8,7.1s5.7,6.5,10.9,6.3h0ZM1423.8,1283.2c5.2-.2,8.8-3.4,7.9-7.1-.9-3.7-5.8-6.5-11-6.3-5.2.2-8.8,3.4-7.9,7.1s5.8,6.5,11,6.3h0ZM617.9,1341.4c4.4-.2,7.6-3.1,7-6.5s-4.6-6.1-9-5.9c-4.4.2-7.6,3.1-7,6.5.5,3.4,4.6,6.1,9,5.9ZM650.5,1340.1c4.5-.2,7.6-3.1,7.1-6.6-.6-3.4-4.7-6.1-9.1-5.9-4.5.2-7.6,3.1-7.1,6.5s4.6,6.1,9.1,5.9ZM683.4,1338.9c4.5-.2,7.7-3.1,7.1-6.6-.6-3.5-4.7-6.1-9.2-5.9s-7.7,3.1-7.1,6.6,4.7,6.1,9.2,5.9ZM716.5,1337.6c4.5-.2,7.7-3.1,7.1-6.6s-4.8-6.1-9.3-6c-4.5.2-7.7,3.1-7.1,6.6.6,3.5,4.7,6.1,9.3,6ZM749.8,1336.3c4.6-.2,7.8-3.1,7.2-6.6s-4.8-6.1-9.4-6-7.8,3.1-7.2,6.6,4.8,6.2,9.3,6h0ZM783.3,1335c4.6-.2,7.8-3.2,7.2-6.6-.6-3.5-4.9-6.2-9.4-6s-7.8,3.2-7.2,6.6,4.8,6.2,9.4,6h0ZM817.1,1333.8c4.6-.2,7.9-3.2,7.2-6.7-.6-3.5-4.9-6.2-9.5-6s-7.9,3.2-7.2,6.7,4.9,6.2,9.5,6ZM851.1,1332.5c4.7-.2,7.9-3.2,7.3-6.7s-5-6.2-9.6-6-7.9,3.2-7.3,6.7c.6,3.5,4.9,6.2,9.6,6h0ZM885.4,1331.1c4.7-.2,8-3.2,7.3-6.7-.7-3.5-5-6.2-9.7-6.1-4.7.2-8,3.2-7.3,6.7s5,6.2,9.7,6.1h0ZM919.9,1329.8c4.7-.2,8-3.2,7.4-6.7s-5-6.3-9.8-6.1-8,3.2-7.4,6.7c.7,3.5,5,6.3,9.8,6.1ZM954.6,1328.5c4.8-.2,8.1-3.2,7.4-6.8-.7-3.6-5.1-6.3-9.9-6.1s-8.1,3.2-7.4,6.8,5.1,6.3,9.8,6.1h0ZM989.6,1327.2c4.8-.2,8.1-3.2,7.4-6.8s-5.1-6.3-9.9-6.1c-4.8.2-8.1,3.2-7.4,6.8.7,3.6,5.1,6.3,9.9,6.1h0ZM1024.9,1325.8c4.8-.2,8.2-3.2,7.5-6.8s-5.2-6.3-10-6.1c-4.8.2-8.2,3.2-7.5,6.8.7,3.6,5.2,6.3,10,6.1ZM1060.4,1324.5c4.9-.2,8.2-3.2,7.5-6.8s-5.3-6.3-10.1-6.2-8.2,3.3-7.5,6.8,5.2,6.3,10.1,6.2ZM1096.2,1323.1c4.9-.2,8.3-3.3,7.6-6.9-.7-3.6-5.3-6.4-10.2-6.2-4.9.2-8.3,3.3-7.6,6.9s5.3,6.4,10.2,6.2h0ZM1132.2,1321.7c4.9-.2,8.3-3.3,7.6-6.9s-5.4-6.4-10.3-6.2c-4.9.2-8.3,3.3-7.6,6.9s5.3,6.4,10.3,6.2h0ZM1168.5,1320.3c5-.2,8.4-3.3,7.6-6.9-.8-3.6-5.4-6.4-10.4-6.2-5,.2-8.4,3.3-7.6,6.9.8,3.6,5.4,6.4,10.4,6.2h0ZM1205,1318.9c5-.2,8.5-3.3,7.7-6.9s-5.5-6.4-10.5-6.2c-5,.2-8.4,3.3-7.7,6.9.8,3.6,5.5,6.4,10.5,6.2ZM1241.8,1317.5c5.1-.2,8.5-3.3,7.7-7s-5.5-6.4-10.6-6.2c-5,.2-8.5,3.3-7.7,7,.8,3.6,5.5,6.4,10.6,6.3h0ZM1278.9,1316.1c5.1-.2,8.6-3.3,7.8-7s-5.6-6.5-10.7-6.3c-5.1.2-8.5,3.3-7.7,7s5.6,6.5,10.7,6.3h0ZM1316.3,1314.7c5.1-.2,8.6-3.3,7.8-7s-5.6-6.5-10.8-6.3c-5.1.2-8.6,3.3-7.8,7s5.6,6.5,10.7,6.3ZM1354,1313.2c5.2-.2,8.7-3.4,7.8-7.1-.8-3.7-5.7-6.5-10.9-6.3-5.1.2-8.7,3.4-7.8,7s5.7,6.5,10.8,6.3h0ZM1391.9,1311.8c5.2-.2,8.7-3.4,7.9-7.1s-5.8-6.5-11-6.3c-5.2.2-8.7,3.4-7.9,7.1s5.7,6.5,10.9,6.3h0ZM622,1366.5c4.5-.2,7.6-3.1,7.1-6.5-.6-3.5-4.6-6.1-9.1-5.9s-7.6,3.1-7,6.5c.6,3.4,4.6,6.1,9.1,6ZM654.7,1365.4c4.5-.2,7.7-3.1,7.1-6.6s-4.7-6.1-9.2-6-7.6,3.1-7.1,6.5,4.7,6.1,9.1,6h0ZM687.6,1364.2c4.5-.2,7.7-3.1,7.1-6.6-.6-3.5-4.7-6.1-9.2-6-4.5.2-7.7,3.1-7.1,6.6s4.7,6.1,9.2,6h0ZM720.8,1363c4.6-.2,7.8-3.1,7.2-6.6s-4.8-6.2-9.3-6-7.7,3.1-7.1,6.6c.6,3.5,4.8,6.2,9.3,6ZM754.2,1361.9c4.6-.2,7.8-3.1,7.2-6.6s-4.8-6.2-9.4-6-7.8,3.1-7.2,6.6,4.8,6.2,9.4,6h0ZM787.8,1360.7c4.6-.2,7.9-3.1,7.2-6.7s-4.9-6.2-9.5-6-7.8,3.1-7.2,6.6c.6,3.5,4.8,6.2,9.5,6ZM821.7,1359.5c4.6-.2,7.9-3.2,7.3-6.7-.6-3.5-4.9-6.2-9.6-6.1-4.6.2-7.9,3.2-7.3,6.7s4.9,6.2,9.5,6.1h0ZM855.8,1358.2c4.7-.2,8-3.2,7.3-6.7-.6-3.5-5-6.2-9.6-6.1-4.7.2-7.9,3.2-7.3,6.7.6,3.5,4.9,6.2,9.6,6.1h0ZM890.2,1357c4.7-.2,8-3.2,7.4-6.7s-5-6.3-9.7-6.1c-4.7.2-8,3.2-7.3,6.7.7,3.5,5,6.3,9.7,6.1h0ZM924.8,1355.8c4.7-.2,8.1-3.2,7.4-6.8s-5.1-6.3-9.8-6.1c-4.7.2-8,3.2-7.4,6.7s5,6.3,9.8,6.1ZM959.6,1354.6c4.8-.2,8.1-3.2,7.4-6.8s-5.1-6.3-9.9-6.1c-4.8.2-8.1,3.2-7.4,6.8.7,3.6,5.1,6.3,9.9,6.1h0ZM994.7,1353.3c4.8-.2,8.2-3.2,7.5-6.8s-5.2-6.3-10-6.2-8.1,3.2-7.5,6.8,5.1,6.3,10,6.2h0ZM1030.1,1352.1c4.8-.2,8.2-3.2,7.5-6.8s-5.2-6.4-10.1-6.2-8.2,3.2-7.5,6.8,5.2,6.4,10.1,6.2h0ZM1065.7,1350.8c4.9-.2,8.3-3.2,7.5-6.8s-5.3-6.4-10.2-6.2-8.2,3.2-7.5,6.8c.7,3.6,5.3,6.4,10.1,6.2h0ZM1101.5,1349.5c4.9-.2,8.3-3.3,7.6-6.9s-5.3-6.4-10.2-6.2-8.3,3.3-7.6,6.9c.7,3.6,5.3,6.4,10.2,6.2h0ZM1137.7,1348.2c5-.2,8.4-3.3,7.6-6.9-.8-3.6-5.4-6.4-10.3-6.2-4.9.2-8.4,3.3-7.6,6.9s5.4,6.4,10.3,6.2h0ZM1174,1347c5-.2,8.4-3.3,7.7-6.9s-5.4-6.4-10.4-6.3-8.4,3.3-7.6,6.9c.8,3.6,5.4,6.4,10.4,6.3h0ZM1210.7,1345.7c5-.2,8.5-3.3,7.7-7-.8-3.7-5.5-6.5-10.5-6.3-5,.2-8.5,3.3-7.7,6.9s5.5,6.5,10.5,6.3h0ZM1247.6,1344.3c5.1-.2,8.5-3.3,7.7-7s-5.6-6.5-10.6-6.3c-5.1.2-8.5,3.3-7.7,7,.8,3.7,5.5,6.5,10.6,6.3ZM1284.9,1343c5.1-.2,8.6-3.3,7.8-7s-5.6-6.5-10.7-6.3c-5.1.2-8.6,3.3-7.8,7s5.6,6.5,10.7,6.3h0ZM1322.3,1341.7c5.1-.2,8.7-3.3,7.8-7s-5.7-6.5-10.8-6.3c-5.1.2-8.6,3.3-7.8,7,.8,3.7,5.6,6.5,10.8,6.4h0ZM1360.1,1340.3c5.2-.2,8.7-3.3,7.9-7.1s-5.7-6.6-10.9-6.4c-5.2.2-8.7,3.3-7.8,7.1s5.7,6.6,10.9,6.4h0ZM1398.1,1339c5.2-.2,8.8-3.4,7.9-7.1s-5.8-6.6-11-6.4c-5.2.2-8.7,3.4-7.9,7.1s5.8,6.6,11,6.4h0ZM658.9,1390.8c4.5-.2,7.7-3.1,7.1-6.6s-4.7-6.2-9.2-6-7.7,3.1-7.1,6.6,4.7,6.2,9.2,6h0ZM691.9,1389.7c4.5-.1,7.7-3.1,7.1-6.6-.6-3.5-4.7-6.2-9.3-6-4.5.1-7.7,3.1-7.1,6.6.6,3.5,4.7,6.2,9.2,6h0ZM725.2,1388.6c4.6-.1,7.8-3.1,7.2-6.6s-4.8-6.2-9.3-6-7.8,3.1-7.2,6.6,4.8,6.2,9.3,6.1ZM758.6,1387.5c4.6-.1,7.8-3.1,7.2-6.6-.6-3.5-4.8-6.2-9.4-6.1-4.6.2-7.8,3.1-7.2,6.6s4.8,6.2,9.4,6.1h0ZM792.4,1386.4c4.6-.1,7.9-3.1,7.2-6.7s-4.9-6.2-9.5-6.1c-4.6.2-7.9,3.1-7.2,6.7s4.9,6.2,9.5,6.1h0ZM826.3,1385.3c4.7-.2,7.9-3.1,7.3-6.7-.6-3.5-4.9-6.3-9.6-6.1-4.7.2-7.9,3.1-7.3,6.7s4.9,6.3,9.6,6.1h0ZM860.5,1384.1c4.7-.2,8-3.2,7.3-6.7s-5-6.3-9.7-6.1-8,3.2-7.3,6.7c.6,3.5,5,6.3,9.7,6.1h0ZM895,1383c4.7-.2,8-3.2,7.4-6.7-.7-3.6-5-6.3-9.7-6.2s-8,3.2-7.4,6.7c.7,3.6,5,6.3,9.7,6.2h0ZM929.7,1381.9c4.8-.2,8.1-3.2,7.4-6.7s-5.1-6.3-9.8-6.2-8.1,3.2-7.4,6.7c.7,3.6,5.1,6.3,9.8,6.2h0ZM964.6,1380.7c4.8-.2,8.1-3.2,7.4-6.8-.7-3.6-5.1-6.4-9.9-6.2s-8.1,3.2-7.4,6.8c.7,3.6,5.1,6.4,9.9,6.2h0ZM1071,1377.2c4.9-.2,8.3-3.2,7.6-6.9-.7-3.6-5.3-6.4-10.2-6.3s-8.3,3.2-7.6,6.8,5.3,6.4,10.2,6.3h0ZM1106.9,1376.1c4.9-.2,8.3-3.2,7.6-6.9s-5.3-6.4-10.3-6.3-8.3,3.2-7.6,6.9,5.3,6.4,10.3,6.3h0ZM1143.2,1374.9c5-.2,8.4-3.3,7.6-6.9-.8-3.6-5.4-6.5-10.4-6.3s-8.4,3.3-7.6,6.9c.7,3.6,5.4,6.5,10.3,6.3ZM1253.5,1371.3c5.1-.2,8.6-3.3,7.8-7-.8-3.7-5.6-6.5-10.6-6.4s-8.5,3.3-7.7,7,5.6,6.5,10.6,6.4ZM1328.4,1368.8c5.2-.2,8.7-3.3,7.8-7s-5.7-6.6-10.8-6.4-8.7,3.3-7.8,7,5.7,6.6,10.8,6.4h0ZM1366.2,1367.6c5.2-.2,8.7-3.3,7.9-7.1s-5.7-6.6-10.9-6.4c-5.2.2-8.7,3.3-7.9,7.1.8,3.7,5.7,6.6,10.9,6.4h0ZM663.1,1416.2c4.5-.1,7.7-3.1,7.1-6.6s-4.7-6.2-9.2-6.1-7.7,3.1-7.1,6.6,4.7,6.2,9.2,6.1ZM696.2,1415.3c4.5-.1,7.7-3.1,7.2-6.6s-4.8-6.2-9.3-6.1-7.7,3.1-7.1,6.6,4.7,6.2,9.3,6.1h0ZM729.5,1414.3c4.6-.1,7.8-3.1,7.2-6.6s-4.8-6.2-9.4-6.1c-4.6.1-7.8,3.1-7.2,6.6s4.8,6.2,9.4,6.1h0ZM763.1,1413.2c4.6-.1,7.8-3.1,7.2-6.6s-4.8-6.3-9.4-6.1c-4.6.1-7.8,3.1-7.2,6.6s4.8,6.3,9.4,6.1h0ZM796.9,1412.2c4.6-.1,7.9-3.1,7.3-6.7s-4.9-6.3-9.5-6.1-7.9,3.1-7.3,6.7,4.9,6.3,9.5,6.1h0ZM831,1411.2c4.7-.1,7.9-3.1,7.3-6.7-.6-3.6-4.9-6.3-9.6-6.2s-7.9,3.1-7.3,6.7,4.9,6.3,9.6,6.2h0ZM865.3,1410.2c4.7-.1,8-3.1,7.4-6.7-.6-3.6-5-6.3-9.7-6.2s-8,3.1-7.3,6.7c.6,3.6,5,6.3,9.7,6.2h0ZM899.8,1409.1c4.7-.1,8-3.2,7.4-6.7s-5-6.4-9.8-6.2c-4.7.1-8,3.2-7.4,6.7.7,3.6,5,6.4,9.8,6.2h0ZM934.6,1408.1c4.8-.1,8.1-3.2,7.4-6.8-.7-3.6-5.1-6.4-9.9-6.2s-8.1,3.2-7.4,6.8,5.1,6.4,9.9,6.2h0ZM1112.3,1402.7c4.9-.2,8.4-3.2,7.6-6.9s-5.4-6.5-10.3-6.3c-4.9.2-8.3,3.2-7.6,6.9.7,3.6,5.3,6.5,10.3,6.3h0ZM1148.7,1401.6c5-.2,8.4-3.2,7.7-6.9-.8-3.7-5.4-6.5-10.4-6.4s-8.4,3.3-7.6,6.9c.8,3.7,5.4,6.5,10.4,6.4h0ZM1646.5,1386.7c5.5-.2,9.2-3.4,8.2-7.3s-6.2-6.8-11.7-6.6c-5.5.2-9.2,3.4-8.2,7.3,1,3.8,6.2,6.8,11.7,6.6h0ZM733.9,1440c4.6-.1,7.8-3.1,7.2-6.6-.6-3.5-4.8-6.3-9.4-6.1-4.6.1-7.8,3.1-7.2,6.6s4.8,6.3,9.4,6.2h0ZM767.6,1439.1c4.6-.1,7.9-3.1,7.2-6.6s-4.9-6.3-9.5-6.2c-4.6.1-7.8,3.1-7.2,6.6s4.8,6.3,9.5,6.2h0ZM801.5,1438.2c4.7-.1,7.9-3.1,7.3-6.7s-4.9-6.3-9.6-6.2c-4.6.1-7.9,3.1-7.3,6.7s4.9,6.3,9.5,6.2h0ZM835.6,1437.2c4.7-.1,8-3.1,7.3-6.7-.6-3.6-5-6.3-9.6-6.2-4.7.1-7.9,3.1-7.3,6.7s4.9,6.3,9.6,6.2h0ZM870,1436.3c4.7-.1,8-3.1,7.4-6.7-.7-3.6-5-6.4-9.7-6.2s-8,3.1-7.4,6.7c.6,3.6,5,6.4,9.7,6.2h0ZM1613.4,1416c5.5-.2,9.1-3.4,8.2-7.2-1-3.8-6.1-6.8-11.6-6.7-5.5.2-9.1,3.4-8.2,7.2.9,3.8,6.1,6.8,11.6,6.7ZM1653.6,1414.9c5.5-.2,9.2-3.4,8.2-7.3-1-3.9-6.2-6.9-11.7-6.7-5.5.2-9.2,3.4-8.2,7.3,1,3.9,6.2,6.9,11.7,6.7h0ZM1694.1,1413.8c5.6-.2,9.3-3.4,8.3-7.3-1-3.9-6.3-6.9-11.8-6.7-5.5.2-9.2,3.4-8.3,7.3s6.3,6.9,11.8,6.7h0ZM704.8,1466.7c4.6-.1,7.8-3.1,7.2-6.6s-4.8-6.3-9.3-6.2c-4.6.1-7.8,3.1-7.2,6.6s4.8,6.3,9.3,6.2h0ZM738.3,1465.9c4.6-.1,7.8-3.1,7.2-6.6s-4.8-6.3-9.4-6.2-7.8,3.1-7.2,6.6,4.8,6.3,9.4,6.2h0ZM772.1,1465.1c4.6-.1,7.9-3.1,7.3-6.7s-4.9-6.3-9.5-6.2c-4.6.1-7.9,3.1-7.3,6.6s4.9,6.3,9.5,6.2h0ZM806.1,1464.3c4.7-.1,7.9-3.1,7.3-6.7s-4.9-6.4-9.6-6.2c-4.7.1-7.9,3.1-7.3,6.7s4.9,6.4,9.6,6.3h0ZM840.3,1463.4c4.7-.1,8-3.1,7.3-6.7s-5-6.4-9.7-6.3c-4.7.1-8,3.1-7.3,6.7s5,6.4,9.7,6.3h0ZM874.8,1462.6c4.7-.1,8-3.1,7.4-6.7s-5-6.4-9.8-6.3-8,3.1-7.4,6.7,5,6.4,9.7,6.3h0ZM1620.3,1444.2c5.5-.1,9.2-3.4,8.2-7.2s-6.2-6.9-11.7-6.7c-5.5.1-9.1,3.4-8.2,7.2s6.2,6.9,11.6,6.7h0ZM1660.6,1443.2c5.5-.1,9.2-3.4,8.3-7.3s-6.2-6.9-11.8-6.8c-5.5.1-9.2,3.4-8.2,7.3,1,3.9,6.2,6.9,11.8,6.8ZM1701.3,1442.2c5.6-.1,9.3-3.4,8.3-7.3-1-3.9-6.3-6.9-11.9-6.8-5.6.1-9.3,3.4-8.3,7.3,1,3.9,6.3,6.9,11.9,6.8h0ZM675.8,1493.4c4.5,0,7.8-3.1,7.2-6.6-.6-3.5-4.7-6.3-9.3-6.2-4.5.1-7.7,3.1-7.2,6.6s4.7,6.3,9.3,6.2ZM709.2,1492.7c4.6,0,7.8-3.1,7.2-6.6s-4.8-6.3-9.4-6.2c-4.6.1-7.8,3.1-7.2,6.6s4.8,6.3,9.4,6.2h0ZM776.6,1491.2c4.6,0,7.9-3.1,7.3-6.7s-4.9-6.4-9.5-6.3-7.9,3.1-7.3,6.7,4.9,6.4,9.5,6.3h0ZM810.7,1490.4c4.7-.1,8-3.1,7.3-6.7-.6-3.6-4.9-6.4-9.6-6.3-4.7.1-7.9,3.1-7.3,6.7s4.9,6.4,9.6,6.3h0ZM1627.3,1472.6c5.5-.1,9.2-3.4,8.2-7.3s-6.2-6.9-11.7-6.8c-5.5.1-9.2,3.4-8.2,7.3s6.2,6.9,11.7,6.8h0ZM1667.7,1471.7c5.6-.1,9.3-3.4,8.3-7.3s-6.3-7-11.8-6.8c-5.5.1-9.2,3.4-8.3,7.3s6.2,7,11.8,6.8h0ZM1708.5,1470.8c5.6-.1,9.3-3.4,8.3-7.3-1-3.9-6.3-7-11.9-6.9-5.6.1-9.3,3.4-8.3,7.3,1,3.9,6.3,7,11.9,6.9h0ZM646.8,1520c4.5,0,7.7-3,7.2-6.6-.6-3.5-4.7-6.3-9.2-6.2s-7.7,3-7.1,6.6,4.7,6.3,9.2,6.2h0ZM680,1519.3c4.6,0,7.8-3,7.2-6.6-.6-3.6-4.8-6.4-9.3-6.3s-7.8,3-7.2,6.6c.6,3.5,4.7,6.4,9.3,6.3h0ZM713.5,1518.7c4.6,0,7.8-3.1,7.2-6.6-.6-3.6-4.8-6.4-9.4-6.3-4.6,0-7.8,3.1-7.2,6.6s4.8,6.4,9.4,6.3ZM781.1,1517.4c4.7,0,7.9-3.1,7.3-6.7s-4.9-6.4-9.6-6.3c-4.6,0-7.9,3.1-7.3,6.7s4.9,6.4,9.5,6.3h0ZM815.3,1516.7c4.7,0,8-3.1,7.3-6.7s-5-6.4-9.6-6.4c-4.7,0-8,3.1-7.3,6.7s4.9,6.4,9.6,6.4h0ZM1634.3,1501.1c5.5-.1,9.2-3.4,8.3-7.3s-6.2-7-11.7-6.9c-5.5.1-9.2,3.4-8.2,7.3,1,3.9,6.2,7,11.7,6.9ZM1674.9,1500.3c5.6-.1,9.3-3.4,8.3-7.3-1-3.9-6.3-7-11.8-6.9s-9.3,3.4-8.3,7.3c1,3.9,6.3,7,11.8,6.9h0ZM684.3,1545.4c4.6,0,7.8-3,7.2-6.6s-4.8-6.4-9.3-6.3c-4.6,0-7.8,3-7.2,6.6s4.8,6.4,9.3,6.3ZM717.9,1544.8c4.6,0,7.8-3,7.2-6.6s-4.8-6.4-9.4-6.3c-4.6,0-7.8,3-7.2,6.6.6,3.6,4.8,6.4,9.4,6.3ZM1641.4,1529.7c5.5,0,9.3-3.3,8.3-7.3-1-3.9-6.2-7-11.8-6.9-5.5.1-9.2,3.3-8.3,7.3s6.2,7,11.8,6.9ZM1682.1,1529c5.6,0,9.3-3.4,8.3-7.3-1-3.9-6.3-7-11.9-7-5.6.1-9.3,3.4-8.3,7.3s6.3,7.1,11.9,7h0ZM1608,1559.1c5.5,0,9.2-3.3,8.3-7.3s-6.2-7-11.7-7c-5.5,0-9.2,3.3-8.2,7.2,1,3.9,6.2,7,11.7,7h0ZM1648.5,1558.5c5.6,0,9.3-3.3,8.3-7.3s-6.3-7.1-11.8-7c-5.6,0-9.3,3.3-8.3,7.3,1,3.9,6.2,7.1,11.8,7h0ZM1689.3,1557.9c5.6,0,9.3-3.4,8.4-7.3s-6.3-7.1-11.9-7c-5.6,0-9.3,3.3-8.3,7.3,1,3.9,6.3,7.1,11.9,7h0ZM1655.6,1587.4c5.6,0,9.3-3.3,8.3-7.3-1-4-6.3-7.1-11.9-7-5.6,0-9.3,3.3-8.3,7.3,1,4,6.3,7.1,11.8,7.1h0ZM853.2,1731.5c4.8,0,8.1-3,7.5-6.7s-5.1-6.8-9.9-6.8-8.1,3-7.5,6.7c.7,3.7,5.1,6.8,9.9,6.8ZM888.4,1731.6c4.8,0,8.2-3,7.5-6.8-.7-3.8-5.1-6.8-10-6.8s-8.2,3-7.5,6.8c.7,3.7,5.1,6.8,9.9,6.8h0ZM923.8,1731.7c4.9,0,8.3-3,7.6-6.8s-5.2-6.8-10.1-6.8-8.2,3-7.6,6.8,5.2,6.8,10,6.8h0ZM959.5,1731.8c4.9,0,8.3-3,7.6-6.8s-5.2-6.8-10.1-6.9-8.3,3-7.6,6.8,5.2,6.8,10.1,6.9ZM995.5,1732c4.9,0,8.4-3,7.6-6.8s-5.3-6.9-10.2-6.9-8.3,3-7.6,6.8,5.3,6.9,10.2,6.9h0ZM788.2,1758.5c4.7,0,8.1-3,7.4-6.7-.6-3.7-5-6.8-9.7-6.8-4.7,0-8,3-7.4,6.7s5,6.8,9.7,6.8h0ZM823,1758.7c4.8,0,8.1-3,7.5-6.7-.7-3.7-5.1-6.8-9.8-6.8s-8.1,3-7.5,6.7,5,6.8,9.8,6.8h0ZM858,1758.9c4.8,0,8.2-3,7.5-6.7s-5.1-6.8-9.9-6.8c-4.8,0-8.1,3-7.5,6.7.7,3.7,5.1,6.8,9.9,6.8ZM893.3,1759.1c4.8,0,8.2-3,7.5-6.8s-5.1-6.8-10-6.9c-4.8,0-8.2,3-7.5,6.8s5.1,6.8,10,6.9h0ZM928.8,1759.3c4.9,0,8.3-3,7.6-6.8s-5.2-6.9-10.1-6.9-8.3,3-7.6,6.8,5.2,6.9,10.1,6.9h0ZM964.6,1759.5c4.9,0,8.3-3,7.6-6.8-.7-3.8-5.3-6.9-10.2-6.9-4.9,0-8.3,3-7.6,6.8.7,3.8,5.2,6.9,10.1,6.9h0ZM1000.7,1759.8c5,0,8.4-3,7.7-6.8s-5.3-6.9-10.3-6.9-8.4,3-7.7,6.8,5.3,6.9,10.2,6.9h0ZM792.8,1785.8c4.7,0,8.1-3,7.5-6.7s-5-6.8-9.8-6.8c-4.7,0-8.1,3-7.4,6.7s5,6.8,9.7,6.8h0ZM827.7,1786.1c4.8,0,8.1-3,7.5-6.7-.7-3.8-5.1-6.8-9.8-6.9-4.8,0-8.1,3-7.5,6.7s5,6.8,9.8,6.9h0ZM862.8,1786.4c4.8,0,8.2-3,7.5-6.7-.7-3.8-5.1-6.9-9.9-6.9s-8.2,3-7.5,6.7,5.1,6.9,9.9,6.9h0ZM898.2,1786.7c4.8,0,8.2-3,7.6-6.8s-5.2-6.9-10-6.9-8.2,3-7.6,6.8,5.1,6.9,10,6.9h0ZM933.9,1787c4.9,0,8.3-3,7.6-6.8s-5.2-6.9-10.1-6.9-8.3,3-7.6,6.8,5.2,6.9,10.1,7h0ZM969.8,1787.4c4.9,0,8.4-3,7.6-6.8s-5.3-6.9-10.2-7c-4.9,0-8.3,3-7.6,6.8.7,3.8,5.2,6.9,10.2,7h0ZM1006,1787.7c5,0,8.4-3,7.7-6.9-.7-3.8-5.3-7-10.3-7-5,0-8.4,3-7.7,6.8.7,3.8,5.3,7,10.3,7h0ZM797.5,1813.2c4.8,0,8.1-2.9,7.5-6.7s-5-6.8-9.8-6.9-8.1,2.9-7.5,6.7c.6,3.8,5,6.8,9.8,6.9h0ZM832.5,1813.6c4.8,0,8.2-3,7.5-6.7s-5.1-6.9-9.9-6.9-8.1,3-7.5,6.7,5.1,6.9,9.9,6.9h0ZM867.7,1814.1c4.8,0,8.2-3,7.5-6.8s-5.1-6.9-10-6.9c-4.8,0-8.2,3-7.5,6.7s5.1,6.9,9.9,6.9h0ZM903.2,1814.5c4.9,0,8.3-3,7.6-6.8s-5.2-6.9-10-7c-4.9,0-8.2,3-7.6,6.8s5.2,6.9,10,7h0ZM939,1814.9c4.9,0,8.3-3,7.6-6.8s-5.2-6.9-10.1-7-8.3,3-7.6,6.8,5.2,6.9,10.1,7h0ZM975,1815.3c4.9,0,8.4-3,7.7-6.8s-5.3-7-10.2-7-8.4,3-7.6,6.8,5.3,7,10.2,7Z"/>
</svg>