<?xml version="1.0" encoding="UTF-8"?>
<svg id="Layer_1" data-name="Layer 1" xmlns="http://www.w3.org/2000/svg" version="1.1" viewBox="0 0 240 240">
  <defs>
    <style>
      .cls-1 {
        fill: #0faaa8;
        stroke-width: 0px;
      }
    </style>
  </defs>
  <path class="cls-1" d="M120,175.51h-.11c-14.12,0-28.17-5.42-39-16.21-10.83-10.83-16.18-24.92-16.21-39.11,0-14.2,5.38-28.28,16.21-39.11,10.83-10.83,24.92-16.18,39.11-16.21,14.2,0,28.28,5.38,39.11,16.21,10.76,10.8,16.14,24.81,16.21,38.93,0,4.67,3.81,8.41,8.44,8.41s8.41-3.81,8.41-8.44c-.04-18.38-7.14-36.8-21.14-50.81-14.08-14.08-32.58-21.14-51.03-21.14s-36.95,7.06-51.03,21.14c-14.08,14.08-21.14,32.58-21.14,51.03s7.06,36.95,21.14,51.03c14.01,14.05,32.46,21.14,50.88,21.14h.11c4.67,0,8.41-3.77,8.41-8.41s-3.77-8.41-8.41-8.41h0l.04-.04h0Z"/>
</svg>