<?xml version="1.0" encoding="UTF-8"?>
<svg xmlns="http://www.w3.org/2000/svg" version="1.1" viewBox="0 0 2000 2000">
  <defs>
    <style>
      .cls-1 {
        fill: #d88c1d;
      }

      .cls-1, .cls-2, .cls-3, .cls-4, .cls-5, .cls-6, .cls-7, .cls-8 {
        stroke-width: 0px;
      }

      .cls-2 {
        fill: #0055ca;
      }

      .cls-9 {
        opacity: .6;
      }

      .cls-3 {
        fill: #ffc440;
      }

      .cls-10 {
        isolation: isolate;
      }

      .cls-4 {
        fill: #e0dbe1;
      }

      .cls-5 {
        fill: #f4a9ff;
      }

      .cls-6 {
        fill: #0d3482;
        mix-blend-mode: multiply;
      }

      .cls-6, .cls-8 {
        opacity: .4;
      }

      .cls-7 {
        fill: #f0f2ff;
      }

      .cls-8 {
        fill: #3452a5;
      }
    </style>
  </defs>
  <g class="cls-10">
    <g id="Layer_2" data-name="Layer 2">
      <g>
        <path class="cls-6" d="M968.52,936.62c-5.91-.34-12.33.76-17.27,3.62l-281.29,162.75c-8.09,4.68-8.95,11.75-1.94,15.79l168.49,97.04c3.86,2.23,9.3,3.23,14.77,2.75l132.01-279.49c-3.86-2.23-9.3-2.94-14.77-2.47Z"/>
        <g>
          <g>
            <path class="cls-4" d="M1156.36,1043.39c-.04,3.05-2.26,6.26-6.62,8.78l-281.29,162.75c-8.09,4.68-20.33,5.19-27.35,1.15l-168.49-97.04c-3.46-1.99-4.99-4.72-4.68-7.53.17-1.58.21-2.96.43-4.84.34-2.84,2.54-5.76,6.57-8.09l281.29-162.75c8.09-4.68,20.33-5.19,27.35-1.15l168.49,97.04c3,1.73,4.54,4,4.7,6.41.13,1.93-.39,3.64-.41,5.28Z"/>
            <path class="cls-2" d="M956.23,935.81l-281.29,162.75c-8.09,4.68-8.95,11.75-1.94,15.79l168.49,97.04c7.02,4.04,19.27,3.53,27.35-1.15l281.29-162.75c8.09-4.68,8.95-11.75,1.94-15.79l-168.49-97.04c-7.02-4.04-19.27-3.53-27.35,1.15Z"/>
          </g>
          <path class="cls-7" d="M916.92,979.31c-2.42,1.4-3.88,3.19-4.1,5.04-.23,1.84.81,3.53,2.91,4.74l11.14,6.4c4.34,2.49,11.93,2.18,16.92-.7l40.36-23.35c2.42-1.4,3.88-3.19,4.1-5.03.22-1.85-.81-3.53-2.9-4.74l-11.15-6.41c-4.34-2.49-11.92-2.18-16.92.71l-40.36,23.35Z"/>
          <g>
            <path class="cls-8" d="M825.81,1170.9c-2.42,1.4-3.88,3.19-4.1,5.04-.23,1.84.81,3.53,2.91,4.74l21.38,12.32c4.34,2.49,11.93,2.18,16.92-.7l44.02-25.46c2.42-1.4,3.88-3.19,4.1-5.03.22-1.85-.81-3.53-2.9-4.74l-21.39-12.32c-4.34-2.49-11.92-2.18-16.92.71l-44.02,25.46Z"/>
            <path class="cls-3" d="M905.3,1167.24l-44.01,25.46c-4.13,2.39-10.39,2.65-13.97.59l-21.39-12.32c-3.59-2.06-3.14-5.68.99-8.07l44.01-25.46c4.13-2.39,10.39-2.65,13.97-.59l21.39,12.32c3.59,2.07,3.14,5.68-.99,8.07Z"/>
            <g class="cls-9">
              <path class="cls-1" d="M881.63,1152l-13.86,8.01c-4.4-1.83-11.06-1.37-15.6,1.25-4.54,2.62-5.32,6.47-2.14,9.01l-14.58,8.43-9.24-5.32c-.41.29-.78.58-1.1.89l33.8,19.46c.53-.18,1.05-.4,1.54-.64l-8.38-4.83,14.61-8.45c4.4,1.67,10.86,1.16,15.28-1.4,4.42-2.56,5.3-6.29,2.39-8.82l13.89-8.03,8.33,4.8c.38-.31.71-.63.99-.96l-33.46-19.27c-.57.16-1.12.35-1.66.57l9.19,5.29ZM865.41,1179.24l-14.48,8.38-14.32-8.25,14.46-8.36,14.11,8.12c.07.04.16.07.24.11ZM868.01,1179.06l15.02-8.69c2.3,2.16,1.48,5.26-2.21,7.4-3.69,2.14-9.06,2.61-12.81,1.29ZM866.46,1160.78l-15.1,8.73c-2.56-2.17-1.84-5.38,1.96-7.58,3.81-2.2,9.38-2.62,13.13-1.15ZM881.83,1169.49c.19.14-15.11,8.99-15.11,8.99-.24-.11-14.35-8.23-14.35-8.23l15.35-8.88,14.11,8.12ZM882.78,1152.66l14.32,8.25-13.76,7.96c-.19-.14-14.3-8.26-14.3-8.26l13.73-7.94Z"/>
            </g>
          </g>
          <g>
            <path class="cls-5" d="M768.83,1140l-2.7,1.56c-1.22.71-1.84,1.47-1.84,2.29s.62,1.59,1.86,2.31l9.37,5.41c1.26.73,2.6,1.09,4.01,1.08,1.41,0,2.73-.36,3.95-1.07l2.7-1.56c1.22-.71,1.84-1.47,1.85-2.28,0-.82-.62-1.59-1.88-2.32l-9.37-5.41c-1.24-.72-2.57-1.08-4-1.08s-2.75.35-3.97,1.06ZM784.15,1146.5c1.57.9,1.59,1.79.08,2.67l-2.22,1.28c-1.49.86-3.03.84-4.59-.06l-9.21-5.32c-1.57-.9-1.6-1.79-.11-2.65l2.22-1.28c1.51-.87,3.05-.86,4.62.05l9.21,5.32Z"/>
            <path class="cls-5" d="M782.61,1132.04l-2.7,1.56c-1.22.71-1.84,1.47-1.84,2.29s.62,1.59,1.86,2.31l9.37,5.41c1.26.73,2.6,1.09,4.01,1.08,1.41,0,2.73-.36,3.95-1.07l2.7-1.56c1.22-.71,1.84-1.47,1.85-2.28,0-.82-.62-1.59-1.88-2.32l-9.37-5.41c-1.24-.72-2.57-1.07-4-1.07s-2.75.35-3.97,1.06ZM797.92,1138.55c1.57.9,1.59,1.79.08,2.67l-2.22,1.28c-1.49.86-3.03.84-4.59-.06l-9.21-5.32c-1.57-.9-1.6-1.79-.11-2.65l2.22-1.28c1.51-.87,3.05-.86,4.62.05l9.21,5.32Z"/>
            <path class="cls-5" d="M796.38,1124.09l-2.7,1.56c-1.22.71-1.84,1.47-1.84,2.29s.62,1.59,1.86,2.31l9.37,5.41c1.26.73,2.6,1.09,4.01,1.08,1.41,0,2.73-.36,3.95-1.07l2.7-1.56c1.22-.71,1.84-1.47,1.85-2.28,0-.82-.62-1.59-1.88-2.32l-9.37-5.41c-1.24-.72-2.57-1.08-4-1.08s-2.75.35-3.97,1.06ZM811.7,1130.6c1.57.9,1.59,1.79.08,2.67l-2.22,1.28c-1.49.86-3.03.84-4.59-.06l-9.21-5.32c-1.57-.9-1.6-1.79-.11-2.65l2.22-1.28c1.51-.87,3.05-.86,4.62.05l9.21,5.32Z"/>
            <path class="cls-5" d="M810.15,1116.14l-2.7,1.56c-1.22.71-1.84,1.47-1.84,2.29s.62,1.59,1.86,2.31l9.37,5.41c1.26.73,2.6,1.09,4.01,1.08,1.41,0,2.73-.36,3.95-1.07l2.7-1.56c1.22-.71,1.84-1.47,1.85-2.28,0-.82-.62-1.59-1.88-2.32l-9.37-5.41c-1.24-.72-2.57-1.08-4-1.08s-2.75.35-3.97,1.06ZM825.47,1122.64c1.57.9,1.59,1.79.08,2.67l-2.22,1.28c-1.49.86-3.03.84-4.59-.06l-9.21-5.32c-1.57-.9-1.6-1.79-.11-2.65l2.22-1.28c1.51-.87,3.05-.86,4.62.05l9.21,5.32Z"/>
            <path class="cls-5" d="M843.7,1096.77l-2.7,1.56c-1.22.71-1.84,1.47-1.84,2.29s.62,1.59,1.86,2.31l9.37,5.41c1.26.73,2.6,1.09,4.01,1.08,1.41,0,2.73-.36,3.95-1.07l2.7-1.56c1.22-.71,1.84-1.47,1.85-2.28,0-.82-.62-1.59-1.88-2.32l-9.37-5.41c-1.24-.72-2.57-1.07-4-1.07s-2.75.35-3.97,1.06ZM859.02,1103.27c1.57.9,1.59,1.79.08,2.67l-2.22,1.28c-1.5.86-3.03.84-4.59-.06l-9.21-5.32c-1.56-.9-1.6-1.79-.11-2.65l2.22-1.28c1.51-.87,3.05-.86,4.62.05l9.21,5.32Z"/>
            <path class="cls-5" d="M857.48,1088.82l-2.7,1.56c-1.22.71-1.84,1.47-1.84,2.29s.62,1.59,1.86,2.31l9.37,5.41c1.26.73,2.6,1.09,4.01,1.08,1.41,0,2.73-.36,3.95-1.07l2.7-1.56c1.22-.71,1.84-1.47,1.85-2.28,0-.82-.62-1.59-1.88-2.32l-9.37-5.41c-1.24-.72-2.57-1.08-4-1.08s-2.75.35-3.97,1.06ZM872.79,1095.32c1.57.9,1.59,1.79.08,2.67l-2.22,1.28c-1.5.86-3.03.84-4.59-.06l-9.21-5.32c-1.56-.9-1.6-1.79-.11-2.65l2.22-1.28c1.51-.87,3.05-.86,4.62.05l9.21,5.32Z"/>
            <path class="cls-5" d="M871.25,1080.86l-2.7,1.56c-1.22.71-1.84,1.47-1.84,2.29s.62,1.59,1.86,2.31l9.37,5.41c1.26.73,2.6,1.09,4.01,1.08,1.41,0,2.73-.36,3.95-1.07l2.7-1.56c1.22-.71,1.84-1.47,1.85-2.28,0-.82-.62-1.59-1.88-2.32l-9.37-5.41c-1.24-.72-2.57-1.08-4-1.08s-2.75.35-3.97,1.06ZM886.57,1087.37c1.57.9,1.59,1.79.08,2.67l-2.22,1.28c-1.5.86-3.03.84-4.59-.06l-9.21-5.32c-1.56-.9-1.6-1.79-.11-2.65l2.21-1.28c1.51-.87,3.05-.86,4.62.05l9.21,5.32Z"/>
            <path class="cls-5" d="M885.03,1072.91l-2.7,1.56c-1.22.71-1.84,1.47-1.84,2.29s.62,1.59,1.86,2.31l9.37,5.41c1.26.73,2.6,1.09,4.01,1.08,1.41,0,2.73-.36,3.95-1.07l2.7-1.56c1.22-.71,1.84-1.47,1.85-2.28,0-.82-.62-1.59-1.88-2.32l-9.37-5.41c-1.24-.72-2.57-1.07-4-1.07s-2.75.35-3.97,1.06ZM900.34,1079.41c1.57.9,1.59,1.79.08,2.67l-2.22,1.28c-1.5.86-3.03.84-4.59-.06l-9.21-5.32c-1.56-.9-1.6-1.79-.11-2.65l2.22-1.28c1.51-.87,3.05-.86,4.62.05l9.21,5.32Z"/>
            <path class="cls-5" d="M918.57,1053.54l-2.7,1.56c-1.22.71-1.84,1.47-1.84,2.29s.62,1.59,1.86,2.31l9.37,5.41c1.26.73,2.6,1.09,4.01,1.08,1.41,0,2.73-.36,3.95-1.07l2.7-1.56c1.22-.71,1.84-1.47,1.85-2.28,0-.82-.62-1.59-1.88-2.32l-9.37-5.41c-1.24-.72-2.57-1.07-4-1.07s-2.75.35-3.97,1.06ZM933.89,1060.05c1.57.9,1.59,1.79.08,2.67l-2.22,1.28c-1.49.86-3.03.84-4.59-.06l-9.21-5.32c-1.57-.9-1.6-1.79-.11-2.65l2.22-1.28c1.51-.87,3.05-.86,4.62.05l9.21,5.32Z"/>
            <path class="cls-5" d="M932.35,1045.59l-2.7,1.56c-1.22.71-1.84,1.47-1.84,2.29s.62,1.59,1.86,2.31l9.37,5.41c1.26.73,2.6,1.09,4.01,1.08,1.41,0,2.73-.36,3.95-1.07l2.7-1.56c1.22-.71,1.84-1.47,1.85-2.28,0-.82-.62-1.59-1.88-2.32l-9.37-5.41c-1.24-.72-2.57-1.07-4-1.07s-2.75.35-3.97,1.06ZM947.67,1052.09c1.57.9,1.59,1.79.08,2.67l-2.22,1.28c-1.49.86-3.03.84-4.59-.06l-9.21-5.32c-1.57-.9-1.6-1.79-.11-2.65l2.22-1.28c1.51-.87,3.05-.86,4.62.05l9.21,5.32Z"/>
            <path class="cls-5" d="M946.12,1037.64l-2.7,1.56c-1.22.71-1.84,1.47-1.84,2.29s.62,1.59,1.86,2.31l9.37,5.41c1.26.73,2.6,1.09,4.01,1.08,1.41,0,2.73-.36,3.95-1.07l2.7-1.56c1.22-.71,1.84-1.47,1.85-2.28,0-.82-.62-1.59-1.88-2.32l-9.37-5.41c-1.24-.72-2.57-1.07-4-1.07s-2.75.35-3.97,1.06ZM961.44,1044.14c1.57.9,1.59,1.79.08,2.67l-2.22,1.28c-1.49.86-3.03.84-4.59-.06l-9.21-5.32c-1.57-.9-1.6-1.79-.11-2.65l2.22-1.28c1.51-.87,3.05-.86,4.62.05l9.21,5.32Z"/>
            <path class="cls-5" d="M959.9,1029.68l-2.7,1.56c-1.22.71-1.84,1.47-1.84,2.29s.62,1.59,1.86,2.31l9.37,5.41c1.26.73,2.6,1.09,4.01,1.08,1.41,0,2.73-.36,3.95-1.07l2.7-1.56c1.22-.71,1.84-1.47,1.85-2.28,0-.82-.62-1.59-1.88-2.32l-9.37-5.41c-1.24-.72-2.57-1.08-4-1.08s-2.75.35-3.97,1.06ZM975.22,1036.19c1.57.9,1.59,1.79.08,2.67l-2.22,1.28c-1.49.86-3.03.84-4.59-.06l-9.21-5.32c-1.57-.9-1.6-1.79-.11-2.65l2.22-1.28c1.51-.87,3.05-.86,4.62.05l9.21,5.32Z"/>
            <path class="cls-5" d="M993.45,1010.31l-2.7,1.56c-1.22.71-1.84,1.47-1.84,2.29s.62,1.59,1.86,2.31l9.37,5.41c1.26.73,2.6,1.09,4.01,1.08,1.41,0,2.73-.36,3.95-1.07l2.7-1.56c1.22-.71,1.84-1.47,1.85-2.28,0-.82-.62-1.59-1.88-2.32l-9.37-5.41c-1.24-.72-2.57-1.08-4-1.08s-2.75.35-3.97,1.06ZM1008.76,1016.82c1.56.9,1.59,1.79.08,2.67l-2.22,1.28c-1.5.86-3.03.84-4.59-.06l-9.21-5.32c-1.57-.9-1.6-1.79-.11-2.65l2.22-1.28c1.51-.87,3.05-.86,4.62.05l9.21,5.32Z"/>
            <path class="cls-5" d="M1007.22,1002.36l-2.7,1.56c-1.22.71-1.84,1.47-1.84,2.29s.62,1.59,1.86,2.31l9.37,5.41c1.26.73,2.6,1.09,4.01,1.08,1.41,0,2.73-.36,3.95-1.07l2.7-1.56c1.22-.71,1.84-1.47,1.85-2.28,0-.82-.62-1.59-1.88-2.32l-9.37-5.41c-1.24-.72-2.57-1.08-4-1.08s-2.75.35-3.97,1.06ZM1022.54,1008.86c1.56.9,1.59,1.79.08,2.67l-2.22,1.28c-1.5.86-3.03.84-4.59-.06l-9.21-5.32c-1.57-.9-1.6-1.79-.11-2.65l2.22-1.28c1.51-.87,3.05-.86,4.62.05l9.21,5.32Z"/>
            <path class="cls-5" d="M1021,994.41l-2.7,1.56c-1.22.71-1.84,1.47-1.84,2.29s.62,1.59,1.86,2.31l9.37,5.41c1.26.73,2.6,1.09,4.01,1.08,1.41,0,2.73-.36,3.95-1.07l2.7-1.56c1.22-.71,1.84-1.47,1.85-2.28,0-.82-.62-1.59-1.88-2.32l-9.37-5.41c-1.24-.72-2.57-1.08-4-1.08s-2.75.35-3.97,1.06ZM1036.31,1000.91c1.56.9,1.59,1.79.08,2.67l-2.22,1.28c-1.5.86-3.03.84-4.59-.06l-9.21-5.32c-1.57-.9-1.6-1.79-.11-2.65l2.22-1.28c1.51-.87,3.05-.86,4.62.05l9.21,5.32Z"/>
            <path class="cls-5" d="M1038.74,985.39c-1.42,0-2.75.35-3.97,1.06l-2.7,1.56c-1.22.71-1.84,1.47-1.84,2.29s.62,1.59,1.86,2.31l9.37,5.41c1.26.73,2.6,1.09,4.01,1.08,1.41,0,2.73-.36,3.95-1.07l2.7-1.56c1.22-.71,1.84-1.47,1.85-2.28,0-.82-.62-1.59-1.88-2.32l-9.37-5.41c-1.24-.72-2.57-1.07-4-1.07ZM1050.09,992.96c1.56.9,1.59,1.79.08,2.67l-2.22,1.28c-1.49.86-3.03.84-4.59-.06l-9.21-5.32c-1.57-.9-1.6-1.79-.11-2.65l2.22-1.28c1.51-.87,3.05-.86,4.62.05l9.21,5.32Z"/>
          </g>
          <g>
            <path class="cls-7" d="M1029.54,989.95c.02.84.68,1.63,1.97,2.37l9.72,5.61c1.31.76,2.68,1.14,4.13,1.15,1.44,0,2.78-.34,4-1.05l2.71-1.56c1.23-.71,1.83-1.48,1.82-2.31-.02-.83-.68-1.63-1.98-2.38l-9.72-5.61c-1.29-.74-2.66-1.12-4.11-1.14-1.45-.01-2.79.33-4.01,1.04l-2.71,1.56c-1.23.71-1.83,1.48-1.81,2.32ZM1033.54,991.25c-1.62-.94-1.68-1.84-.16-2.72l2.22-1.28c1.5-.86,3.06-.83,4.68.11l9.55,5.51c1.62.94,1.69,1.84.19,2.7l-2.22,1.28c-1.52.87-3.09.84-4.71-.09l-9.55-5.51Z"/>
            <path class="cls-7" d="M1015.73,997.93c.02.84.68,1.63,1.97,2.37l9.72,5.61c1.31.75,2.68,1.14,4.13,1.14,1.44,0,2.78-.34,4-1.05l2.71-1.56c1.23-.71,1.83-1.48,1.82-2.31-.02-.83-.67-1.63-1.98-2.38l-9.72-5.61c-1.29-.74-2.66-1.12-4.11-1.14-1.45-.01-2.79.33-4.01,1.04l-2.71,1.56c-1.23.71-1.83,1.48-1.81,2.32ZM1019.73,999.22c-1.62-.94-1.68-1.84-.16-2.72l2.22-1.28c1.5-.86,3.06-.83,4.68.11l9.55,5.51c1.62.94,1.69,1.84.19,2.7l-2.22,1.28c-1.52.87-3.09.84-4.71-.09l-9.55-5.51Z"/>
            <path class="cls-7" d="M1001.92,1005.9c.02.84.68,1.63,1.97,2.37l9.72,5.61c1.31.76,2.68,1.14,4.13,1.14,1.44,0,2.78-.34,4-1.05l2.71-1.56c1.23-.71,1.83-1.48,1.82-2.31-.02-.83-.67-1.63-1.98-2.38l-9.72-5.61c-1.29-.74-2.66-1.12-4.11-1.14-1.45-.01-2.79.33-4.01,1.04l-2.71,1.56c-1.23.71-1.83,1.48-1.81,2.32ZM1005.93,1007.19c-1.62-.94-1.68-1.84-.16-2.72l2.22-1.28c1.5-.86,3.06-.83,4.68.11l9.55,5.52c1.62.94,1.69,1.84.19,2.7l-2.22,1.28c-1.52.88-3.09.84-4.71-.09l-9.55-5.51Z"/>
            <path class="cls-7" d="M988.11,1013.87c.02.84.68,1.63,1.97,2.37l9.72,5.61c1.31.76,2.68,1.14,4.13,1.14,1.44,0,2.78-.34,4-1.05l2.71-1.56c1.23-.71,1.83-1.48,1.82-2.31-.02-.83-.68-1.63-1.98-2.38l-9.72-5.61c-1.29-.74-2.66-1.12-4.11-1.14-1.45-.01-2.79.33-4.01,1.04l-2.71,1.56c-1.23.71-1.83,1.48-1.81,2.32ZM992.12,1015.17c-1.62-.94-1.68-1.84-.16-2.72l2.22-1.28c1.5-.87,3.06-.83,4.68.11l9.55,5.52c1.62.94,1.69,1.84.19,2.7l-2.22,1.28c-1.52.88-3.09.84-4.71-.09l-9.55-5.52Z"/>
            <path class="cls-7" d="M954.48,1033.29c.02.84.68,1.63,1.97,2.37l9.72,5.61c1.31.76,2.68,1.14,4.13,1.15,1.44,0,2.78-.34,4-1.05l2.71-1.56c1.23-.71,1.83-1.48,1.82-2.31-.02-.83-.67-1.63-1.98-2.38l-9.72-5.61c-1.29-.74-2.66-1.12-4.11-1.14-1.45-.01-2.79.33-4.01,1.04l-2.71,1.56c-1.23.71-1.83,1.48-1.81,2.32ZM958.48,1034.58c-1.62-.94-1.68-1.84-.16-2.72l2.22-1.28c1.5-.87,3.06-.83,4.68.11l9.55,5.51c1.62.94,1.69,1.84.19,2.7l-2.22,1.28c-1.52.87-3.09.84-4.71-.09l-9.55-5.51Z"/>
            <path class="cls-7" d="M940.68,1041.26c.02.84.68,1.63,1.97,2.37l9.72,5.61c1.31.76,2.68,1.14,4.13,1.14,1.44,0,2.78-.34,4-1.05l2.71-1.56c1.23-.71,1.83-1.48,1.82-2.31-.02-.83-.68-1.63-1.98-2.38l-9.72-5.61c-1.29-.74-2.66-1.12-4.11-1.14-1.45-.01-2.79.33-4.01,1.04l-2.71,1.56c-1.23.71-1.83,1.48-1.81,2.32ZM944.68,1042.56c-1.62-.94-1.68-1.84-.16-2.72l2.22-1.28c1.5-.86,3.06-.83,4.68.11l9.55,5.51c1.62.94,1.69,1.84.19,2.7l-2.22,1.28c-1.52.88-3.09.84-4.71-.09l-9.55-5.51Z"/>
            <path class="cls-7" d="M926.87,1049.23c.02.84.68,1.63,1.97,2.37l9.72,5.61c1.31.76,2.68,1.14,4.13,1.14,1.44,0,2.78-.34,4-1.05l2.71-1.56c1.23-.71,1.83-1.48,1.82-2.31-.02-.83-.68-1.63-1.98-2.38l-9.72-5.61c-1.29-.74-2.66-1.12-4.11-1.14-1.45-.01-2.79.33-4.01,1.04l-2.71,1.56c-1.23.71-1.83,1.48-1.81,2.32ZM930.87,1050.53c-1.62-.94-1.68-1.84-.16-2.72l2.22-1.28c1.5-.86,3.06-.83,4.68.11l9.55,5.52c1.62.94,1.69,1.84.19,2.7l-2.22,1.28c-1.52.88-3.09.84-4.71-.09l-9.55-5.51Z"/>
            <path class="cls-7" d="M913.06,1057.21c.02.84.68,1.63,1.97,2.37l9.72,5.61c1.31.76,2.68,1.14,4.13,1.14,1.44,0,2.78-.34,4-1.05l2.71-1.56c1.23-.71,1.83-1.48,1.82-2.31-.02-.83-.68-1.63-1.98-2.38l-9.72-5.61c-1.29-.74-2.66-1.12-4.11-1.14-1.45-.01-2.79.33-4.01,1.04l-2.71,1.56c-1.23.71-1.83,1.48-1.81,2.32ZM917.06,1058.5c-1.62-.94-1.68-1.84-.16-2.72l2.22-1.28c1.5-.87,3.06-.83,4.68.11l9.55,5.52c1.62.94,1.69,1.84.19,2.7l-2.22,1.28c-1.52.88-3.09.84-4.71-.09l-9.55-5.52Z"/>
            <path class="cls-7" d="M879.43,1076.62c.02.84.68,1.63,1.97,2.37l9.72,5.61c1.31.75,2.68,1.14,4.13,1.14,1.44,0,2.78-.34,4-1.05l2.71-1.56c1.23-.71,1.83-1.48,1.82-2.31-.02-.83-.68-1.63-1.98-2.38l-9.72-5.61c-1.29-.74-2.66-1.12-4.11-1.14-1.45-.01-2.79.33-4.01,1.04l-2.71,1.56c-1.23.71-1.83,1.48-1.81,2.32ZM883.43,1077.92c-1.62-.94-1.68-1.84-.16-2.72l2.22-1.28c1.5-.86,3.06-.83,4.68.11l9.55,5.51c1.62.94,1.69,1.84.19,2.7l-2.22,1.28c-1.52.87-3.09.84-4.71-.09l-9.55-5.51Z"/>
            <path class="cls-7" d="M865.62,1084.59c.02.84.68,1.63,1.97,2.37l9.72,5.61c1.31.75,2.68,1.14,4.13,1.14,1.44,0,2.78-.34,4-1.05l2.71-1.56c1.23-.71,1.83-1.48,1.82-2.31-.02-.83-.68-1.63-1.98-2.38l-9.72-5.61c-1.29-.74-2.66-1.12-4.11-1.14-1.45-.01-2.79.33-4.01,1.04l-2.71,1.56c-1.23.71-1.83,1.48-1.81,2.32ZM869.62,1085.89c-1.62-.94-1.68-1.84-.16-2.72l2.22-1.28c1.5-.86,3.06-.83,4.68.11l9.55,5.51c1.62.94,1.69,1.84.19,2.7l-2.22,1.28c-1.52.87-3.09.84-4.71-.09l-9.55-5.51Z"/>
            <path class="cls-7" d="M851.81,1092.57c.02.84.68,1.63,1.97,2.37l9.72,5.61c1.31.76,2.68,1.14,4.12,1.14,1.44,0,2.78-.34,4-1.05l2.71-1.56c1.23-.71,1.83-1.48,1.82-2.31-.02-.83-.68-1.63-1.98-2.38l-9.72-5.61c-1.29-.74-2.66-1.12-4.11-1.14-1.45-.01-2.79.33-4.01,1.04l-2.71,1.56c-1.23.71-1.83,1.48-1.81,2.32ZM855.81,1093.86c-1.62-.94-1.68-1.84-.16-2.72l2.22-1.28c1.5-.86,3.06-.83,4.68.11l9.55,5.52c1.62.94,1.69,1.84.19,2.7l-2.22,1.28c-1.52.88-3.09.84-4.71-.09l-9.55-5.51Z"/>
            <path class="cls-7" d="M838,1100.54c.02.84.68,1.63,1.97,2.37l9.72,5.61c1.31.76,2.68,1.14,4.12,1.14,1.44,0,2.78-.34,4-1.05l2.71-1.56c1.23-.71,1.83-1.48,1.82-2.31-.02-.83-.68-1.63-1.98-2.38l-9.72-5.61c-1.29-.74-2.66-1.12-4.11-1.14-1.45-.01-2.79.33-4.01,1.04l-2.71,1.56c-1.23.71-1.83,1.48-1.81,2.32ZM842,1101.84c-1.62-.94-1.68-1.84-.16-2.72l2.22-1.28c1.5-.86,3.06-.83,4.68.11l9.55,5.52c1.62.94,1.69,1.84.19,2.7l-2.22,1.28c-1.52.88-3.09.84-4.71-.09l-9.55-5.51Z"/>
            <path class="cls-7" d="M804.37,1119.96c.02.84.68,1.63,1.97,2.37l9.72,5.61c1.31.76,2.68,1.14,4.12,1.15,1.44,0,2.78-.34,4-1.05l2.71-1.56c1.23-.71,1.83-1.48,1.82-2.31-.02-.83-.68-1.63-1.98-2.38l-9.72-5.61c-1.29-.74-2.66-1.12-4.11-1.14-1.45-.01-2.79.33-4.01,1.04l-2.71,1.56c-1.23.71-1.83,1.48-1.81,2.32ZM808.37,1121.25c-1.62-.94-1.68-1.84-.16-2.72l2.22-1.28c1.5-.86,3.06-.83,4.68.11l9.55,5.51c1.62.94,1.69,1.84.19,2.7l-2.22,1.28c-1.52.87-3.09.84-4.71-.09l-9.55-5.51Z"/>
            <path class="cls-7" d="M790.56,1127.93c.02.84.68,1.63,1.97,2.37l9.72,5.61c1.31.75,2.68,1.14,4.12,1.14,1.44,0,2.78-.34,4-1.05l2.71-1.56c1.23-.71,1.83-1.48,1.82-2.31-.02-.83-.68-1.63-1.98-2.38l-9.72-5.61c-1.29-.74-2.66-1.12-4.11-1.14-1.45-.01-2.79.33-4.01,1.04l-2.71,1.56c-1.23.71-1.83,1.48-1.81,2.32ZM794.56,1129.22c-1.62-.94-1.68-1.84-.16-2.72l2.22-1.28c1.5-.86,3.06-.83,4.68.11l9.55,5.51c1.62.94,1.69,1.84.19,2.7l-2.22,1.28c-1.52.87-3.09.84-4.71-.09l-9.55-5.51Z"/>
            <path class="cls-7" d="M776.75,1135.9c.02.84.68,1.63,1.97,2.37l9.72,5.61c1.31.76,2.68,1.14,4.12,1.14,1.44,0,2.78-.34,4-1.05l2.71-1.56c1.23-.71,1.83-1.48,1.82-2.31-.02-.83-.68-1.63-1.98-2.38l-9.72-5.61c-1.29-.74-2.66-1.12-4.11-1.14-1.45-.01-2.79.33-4.01,1.04l-2.71,1.56c-1.23.71-1.83,1.48-1.81,2.32ZM780.75,1137.2c-1.62-.94-1.68-1.84-.16-2.72l2.22-1.28c1.5-.86,3.06-.83,4.68.11l9.55,5.51c1.62.94,1.69,1.84.19,2.7l-2.22,1.28c-1.52.87-3.09.84-4.71-.09l-9.55-5.51Z"/>
            <path class="cls-7" d="M764.91,1146.25l9.72,5.61c1.31.76,2.68,1.14,4.12,1.14,1.44,0,2.78-.34,4-1.05l2.71-1.56c1.23-.71,1.83-1.48,1.82-2.31-.02-.83-.68-1.63-1.98-2.38l-9.72-5.61c-1.29-.74-2.66-1.12-4.11-1.14-1.45-.01-2.79.33-4.01,1.04l-2.71,1.56c-1.23.71-1.83,1.48-1.81,2.32.02.84.68,1.63,1.97,2.37ZM766.95,1145.17c-1.62-.94-1.68-1.84-.16-2.72l2.22-1.28c1.5-.87,3.06-.83,4.68.11l9.55,5.52c1.62.94,1.69,1.84.19,2.7l-2.22,1.28c-1.52.88-3.09.84-4.71-.09l-9.55-5.52Z"/>
          </g>
          <g>
            <path class="cls-7" d="M723.19,1115.19l-2.64,1.52c-1.13.65-2.31.96-3.57.95-1.26-.02-2.46-.36-3.61-1.02l-7.84-4.53c-1.16-.67-1.76-1.37-1.78-2.09-.02-.72.53-1.41,1.65-2.06l2.64-1.52c1.11-.64,2.29-.96,3.55-.95,1.26,0,2.47.35,3.63,1.02l1.13.65c.28.16.28.32.01.48l-1.43.83c-.26.15-.53.14-.81-.02l-1.04-.6c-1.16-.67-2.29-.69-3.38-.06l-1.98,1.14c-1.09.63-1.06,1.28.1,1.95l7.66,4.42c1.16.67,2.29.69,3.38.06l1.98-1.14c1.09-.63,1.06-1.28-.1-1.95l-1.03-.6c-.28-.16-.3-.32-.04-.47l1.43-.83c.27-.16.55-.15.84,0l1.13.65c1.15.66,1.73,1.36,1.75,2.09.02.73-.52,1.42-1.63,2.06Z"/>
            <path class="cls-7" d="M731.37,1110.46l-1.43.83c-.26.15-.52.15-.79,0l-14.35-8.28c-.27-.15-.27-.31-.01-.45l5.33-3.08c1.11-.64,2.3-.95,3.59-.94,1.28.01,2.5.35,3.64,1.01l1.98,1.14c1.81,1.04,2.22,2.12,1.25,3.22.09.05,8.13,1.78,8.13,1.78.48.09.54.23.18.44l-1.41.82c-.36.21-.73.27-1.11.18l-7.85-1.72-2.3,1.33c-.18.1-.19.2-.04.29l5.18,2.99c.27.15.27.31.01.46ZM724.3,1105.65l2.89-1.67c1.12-.65,1.11-1.3-.03-1.97l-1.98-1.14c-1.16-.67-2.3-.68-3.43-.03l-2.89,1.67c-.17.1-.17.19-.02.28l4.97,2.87c.16.09.32.09.49,0Z"/>
            <path class="cls-7" d="M749.57,1099.96l-7.29,4.21c-.26.15-.52.15-.79,0l-14.35-8.28c-.27-.16-.27-.31-.01-.46l7.29-4.21c.24-.14.5-.13.77.02l1.2.69c.27.15.28.3.04.44l-5.19,3c-.18.1-.2.2-.04.29l3.98,2.3c.16.09.33.08.51-.02l4.4-2.54c.27-.16.54-.16.81,0l1.2.69c.26.15.26.31-.01.47l-4.4,2.54c-.18.1-.19.2-.04.29l4.19,2.42c.17.1.35.1.53,0l5.19-3c.24-.14.5-.13.76.02l1.2.69c.27.15.28.3.04.44Z"/>
            <path class="cls-7" d="M752.42,1097.85l-14.35-8.28c-.27-.15-.27-.31-.01-.46l5.6-3.23c1.11-.64,2.29-.96,3.56-.96,1.27,0,2.48.34,3.64,1.01l7.84,4.53c1.15.66,1.73,1.36,1.74,2.1s-.53,1.42-1.64,2.06l-5.6,3.24c-.26.15-.52.15-.79,0ZM753.28,1095.5l3.21-1.85c1.09-.63,1.06-1.28-.11-1.95l-7.66-4.42c-1.16-.67-2.29-.69-3.38-.06l-3.21,1.85c-.17.1-.17.19-.02.28l10.65,6.15c.17.1.34.1.51,0Z"/>
            <path class="cls-7" d="M753.04,1080.92l14.35,8.28c.27.15.27.31.02.45l-1.44.83c-.26.15-.52.15-.79,0l-14.35-8.28c-.27-.15-.27-.31-.01-.46l1.44-.83c.26-.15.52-.15.79,0Z"/>
            <path class="cls-7" d="M775.23,1085.14l-1.43.83c-.27.16-.55.16-.81,0l-12.51-7.22c-.16-.09-.31-.09-.46,0l-2.87,1.66c-.27.16-.54.16-.81,0l-1.2-.69c-.27-.15-.26-.31,0-.47l8.45-4.88c.27-.16.54-.16.81,0l1.2.69c.27.15.27.31,0,.47l-2.87,1.66c-.17.1-.17.19-.02.28l12.51,7.22c.27.15.27.31.01.46Z"/>
            <path class="cls-7" d="M792.47,1075.19l-2.64,1.53c-1.13.65-2.31.96-3.57.95-1.26-.02-2.46-.35-3.61-1.02l-7.84-4.53c-1.16-.67-1.76-1.37-1.78-2.09-.02-.72.53-1.41,1.65-2.06l2.64-1.52c1.11-.64,2.29-.96,3.55-.95,1.26,0,2.47.35,3.63,1.02l1.13.65c.28.16.28.32.01.48l-1.43.83c-.26.15-.53.14-.81-.02l-1.04-.6c-1.16-.67-2.29-.69-3.38-.06l-1.98,1.14c-1.09.63-1.06,1.28.1,1.95l7.66,4.42c1.16.67,2.29.69,3.39.06l1.98-1.14c1.09-.63,1.06-1.28-.1-1.95l-1.04-.6c-.28-.16-.3-.32-.04-.47l1.44-.83c.27-.16.55-.15.83,0l1.13.65c1.15.66,1.73,1.36,1.75,2.09.02.73-.52,1.42-1.63,2.06Z"/>
            <path class="cls-7" d="M799.63,1071.06l-1.64.95c-.21.12-.42.09-.63-.1l-10.38-10.57c-.19-.2-.14-.38.15-.55l2.28-1.31c.3-.18.62-.2.95-.08l18.31,5.99c.33.12.38.24.15.38l-1.62.93c-.14.08-.26.12-.37.12-.11,0-.26-.04-.44-.11l-3.93-1.27-5.01,2.89,2.2,2.27c.2.19.2.35,0,.47ZM790.47,1061.46l5.54,5.51,4.12-2.38-9.57-3.18-.09.05Z"/>
            <path class="cls-7" d="M813.13,1063.26l-1.43.83c-.26.15-.52.15-.79,0l-14.35-8.28c-.27-.15-.27-.31-.01-.45l5.33-3.08c1.11-.64,2.3-.95,3.59-.94,1.28.01,2.5.35,3.64,1.01l1.98,1.14c1.81,1.04,2.22,2.12,1.25,3.22.09.05,8.13,1.78,8.13,1.78.48.09.54.23.18.44l-1.41.82c-.36.21-.73.27-1.11.18l-7.85-1.72-2.3,1.33c-.18.1-.19.2-.04.29l5.18,2.99c.27.15.27.31.01.46ZM806.07,1058.44l2.89-1.67c1.12-.65,1.11-1.3-.03-1.97l-1.98-1.14c-1.16-.67-2.3-.68-3.43-.03l-2.89,1.67c-.17.1-.17.19-.02.28l4.97,2.87c.16.09.32.09.49,0Z"/>
            <path class="cls-7" d="M823.25,1056.95l-14.35-8.28c-.27-.16-.27-.31-.01-.46l5.6-3.24c1.11-.64,2.29-.96,3.56-.96s2.48.34,3.64,1.01l7.84,4.53c1.15.66,1.72,1.36,1.74,2.09.01.74-.53,1.42-1.64,2.06l-5.6,3.23c-.26.15-.52.15-.79,0ZM824.11,1054.61l3.21-1.85c1.09-.63,1.06-1.28-.11-1.95l-7.66-4.42c-1.16-.67-2.29-.69-3.38-.06l-3.21,1.85c-.17.1-.17.19-.02.28l10.65,6.15c.17.1.34.1.51,0Z"/>
          </g>
        </g>
      </g>
    </g>
  </g>
</svg>