<?xml version="1.0" encoding="UTF-8"?>
<svg xmlns="http://www.w3.org/2000/svg" version="1.1" xmlns:xlink="http://www.w3.org/1999/xlink" viewBox="0 0 2000 2000">
  <defs>
    <style>
      .cls-1 {
        fill: url(#linear-gradient);
      }

      .cls-1, .cls-2, .cls-3, .cls-4, .cls-5, .cls-6, .cls-7, .cls-8, .cls-9, .cls-10, .cls-11 {
        stroke-width: 0px;
      }

      .cls-2 {
        fill: url(#linear-gradient-6);
      }

      .cls-3 {
        fill: #808182;
      }

      .cls-12 {
        isolation: isolate;
      }

      .cls-4 {
        fill: url(#linear-gradient-5);
      }

      .cls-5 {
        fill: #1c4b5f;
        mix-blend-mode: multiply;
        opacity: .2;
      }

      .cls-6 {
        fill: url(#linear-gradient-2);
      }

      .cls-7 {
        fill: url(#linear-gradient-7);
      }

      .cls-8 {
        fill: url(#linear-gradient-3);
      }

      .cls-9 {
        fill: url(#linear-gradient-8);
      }

      .cls-10 {
        fill: #4aa4f3;
      }

      .cls-11 {
        fill: url(#linear-gradient-4);
      }
    </style>
    <linearGradient id="linear-gradient" x1="974.17" y1="950.26" x2="995.13" y2="950.26" gradientTransform="translate(-392.58)" gradientUnits="userSpaceOnUse">
      <stop offset="0" stop-color="#c9d6e2"/>
      <stop offset=".27" stop-color="#ccd8e4"/>
      <stop offset=".54" stop-color="#d8e1ea"/>
      <stop offset=".81" stop-color="#ecf0f4"/>
      <stop offset=".99" stop-color="#fff"/>
    </linearGradient>
    <linearGradient id="linear-gradient-2" x1="951.55" y1="1030.8" x2="977.46" y2="937.69" gradientTransform="translate(-392.58)" gradientUnits="userSpaceOnUse">
      <stop offset="0" stop-color="#4568dc"/>
      <stop offset=".29" stop-color="#426fdd"/>
      <stop offset=".72" stop-color="#3a82e2"/>
      <stop offset="1" stop-color="#3494e6"/>
    </linearGradient>
    <linearGradient id="linear-gradient-3" x1="962.34" y1="1036.81" x2="980.28" y2="953.66" gradientTransform="translate(-392.58)" gradientUnits="userSpaceOnUse">
      <stop offset="0" stop-color="#3854b3"/>
      <stop offset=".33" stop-color="#355bb4"/>
      <stop offset=".81" stop-color="#2e6eba"/>
      <stop offset="1" stop-color="#2b79bd"/>
    </linearGradient>
    <linearGradient id="linear-gradient-4" x1="992.87" y1="976.63" x2="989.46" y2="932.78" xlink:href="#linear-gradient-3"/>
    <linearGradient id="linear-gradient-5" x1="1000.08" y1="1018.42" x2="993.53" y2="944.1" xlink:href="#linear-gradient-2"/>
    <linearGradient id="linear-gradient-6" x1="989.5" y1="959.35" x2="1010.46" y2="959.35" xlink:href="#linear-gradient"/>
    <linearGradient id="linear-gradient-7" x1="988.98" y1="975.17" x2="992.44" y2="975.17" xlink:href="#linear-gradient-3"/>
    <linearGradient id="linear-gradient-8" x1="1007.61" y1="964.18" x2="1011.07" y2="964.18" xlink:href="#linear-gradient-3"/>
  </defs>
  <g class="cls-12">
    <g id="Layer_1" data-name="Layer 1">
      <g>
        <path class="cls-5" d="M559.23,1023.91v10.22l36.74,19.9,43.02-24.88-8.2-7.32s41.85-24.29,40.68-24.29-69.07-24.58-69.07-24.58l-43.18,50.95Z"/>
        <g>
          <path class="cls-1" d="M583.84,965.69v-16.18c0-3.19,2.24-7.08,5-8.67l6.44-3.72c2.76-1.6,5-.3,5,2.89v16.18l2.25-1.3v-16.18c0-4.62-3.26-6.5-7.26-4.19l-6.44,3.72c-4,2.31-7.26,7.95-7.26,12.57v16.18l2.25-1.3Z"/>
          <g class="cls-12">
            <polygon class="cls-3" points="576.63 1039.3 559.23 1029.19 567.95 963.13 585.35 973.24 576.63 1039.3"/>
            <g>
              <polygon class="cls-6" points="567.95 963.13 559.23 1029.19 567.87 1034.21 577.09 968.44 567.95 963.13"/>
              <polygon class="cls-8" points="585.35 973.24 577.09 968.44 567.87 1034.21 576.63 1039.3 585.35 973.24"/>
            </g>
            <g>
              <polygon class="cls-10" points="585.35 973.24 567.95 963.13 612.42 937.45 629.82 947.56 585.35 973.24"/>
              <polygon class="cls-11" points="570.8 963.05 612.16 939.17 626.45 947.47 585.09 971.35 570.8 963.05"/>
            </g>
            <polygon class="cls-4" points="629.82 947.56 638.89 1003.36 576.63 1039.3 585.35 973.24 629.82 947.56"/>
          </g>
          <path class="cls-2" d="M599.17,974.78v-16.18c0-3.19,2.25-7.08,5.01-8.68l6.44-3.72c2.76-1.6,5.01-.3,5.01,2.89v16.18l2.25-1.3v-16.18c0-4.62-3.25-6.5-7.25-4.19l-6.44,3.72c-4,2.31-7.26,7.95-7.26,12.57v16.18l2.25-1.3Z"/>
          <path class="cls-7" d="M599.85,974.18c0-1.1-.77-1.55-1.73-1-.95.55-1.73,1.89-1.73,2.99s.77,1.55,1.73,1c.95-.55,1.73-1.89,1.73-2.99Z"/>
          <path class="cls-9" d="M618.48,963.18c0-1.1-.77-1.55-1.73-1-.95.55-1.72,1.89-1.72,2.99s.77,1.55,1.72,1c.96-.55,1.73-1.89,1.73-2.99Z"/>
        </g>
      </g>
    </g>
  </g>
</svg>