<?xml version="1.0" encoding="UTF-8"?>
<svg xmlns="http://www.w3.org/2000/svg" version="1.1" viewBox="0 0 2000 2000">
  <defs>
    <style>
      .cls-1 {
        fill: #a57514;
      }

      .cls-1, .cls-2, .cls-3, .cls-4, .cls-5, .cls-6, .cls-7, .cls-8, .cls-9, .cls-10 {
        stroke-width: 0px;
      }

      .cls-2 {
        fill: #b0a7c2;
      }

      .cls-2, .cls-11 {
        mix-blend-mode: multiply;
      }

      .cls-12 {
        isolation: isolate;
      }

      .cls-3 {
        fill: #014207;
      }

      .cls-4 {
        fill: #02580a;
      }

      .cls-5 {
        fill: #f6ba28;
      }

      .cls-6 {
        fill: #7a002e;
      }

      .cls-7 {
        fill: #679b6c;
      }

      .cls-8 {
        fill: #357a3b;
      }

      .cls-9 {
        fill: #f2a305;
      }

      .cls-10 {
        fill: #ff2044;
      }
    </style>
  </defs>
  <g class="cls-12">
    <g id="Layer_2" data-name="Layer 2">
      <g>
        <g>
          <path class="cls-10" d="M1294.12,1148.24c-10.06-1.56-9.77-1.43-10.06-1.67-.19-.16-.27-.41-.33-.65-.34-1.25-.36-1.72-.36-3.14,0-5.01,1.45-10.83,2.47-12.82.16-.32.35-.62.59-.93.2-.26.39-.46.72-.42h0c11.43,1.76,9.85,1.51,10,1.54,4.5.7,7.77,4.57,7.77,9.06,0,5.94-5.52,10.09-10.8,9.03Z"/>
          <path class="cls-6" d="M1277.36,1127.08c3.26.51,6.52,1.01,9.78,1.52h0c-.33-.03-.52.17-.72.43-.23.31-.42.61-.59.93-1.03,1.99-2.47,7.81-2.47,12.82,0,1.41.02,1.89.36,3.14.07.24.14.49.33.65.08.07.18.12.29.14,0,.03-9.97-1.53-10-1.53-4.53-.7-7.77-4.6-7.77-9.06,0-5.76,5.23-10.04,10.79-9.04Z"/>
          <path class="cls-2" d="M1303.43,1134.28c1.47,1.58,1.82,4.5,1.33,6.96.27.11.56.25.86.33,5.32,1.34,8.32,4.95,3.76,8.01-1.52,1.02-3.25,1.5-5.03,1.82-2.62.47-5.22.3-7.83-.14-5.71-.96-15.1-2.24-20.97-3.4-1.74-.34-3.32-1.11-4.57-2.44-.2-.21-.46-.42-.54-.68-.32-1.11-1-1.97-1.75-2.88.34.05.69.13,1.03.14.58.02,1.21.15,1.75-.02,1.64-.52,3.23-.07,4.82.16,15.38,2.26,16.57,2.84,17.76,2.41,3.39-1.24,6.15-3.32,8.21-6.29.78-1.12,1.25-2.35,1.16-3.96Z"/>
        </g>
        <g>
          <path class="cls-6" d="M1277.58,1168.96c-10.37-5.98-6.52-3.78-7.41-4.28-1.46-.9-1.91-2.89-1.79-4.74.43-6.44,6.99-13.29,10.98-11.14.04.02.08.05.12.07,2.36,1.36,4.71,2.72,7.07,4.09,2.87,1.54,4.79,4.62,4.79,8.06,0,7.03-7.63,11.48-13.76,7.95Z"/>
          <path class="cls-10" d="M1262.95,1160.51c-2.74-1.59-4.59-4.57-4.59-7.95,0-7.07,7.75-11.62,14.03-7.79,2.32,1.34,4.65,2.68,6.98,4.02-.84-.45-1.83-.49-2.83-.22-3.8,1-7.82,6.39-8.15,11.36-.12,1.85.33,3.84,1.79,4.74-2.41-1.39-4.82-2.78-7.23-4.17Z"/>
          <path class="cls-2" d="M1260.99,1158.53c.28.12.58.22.84.37,4.28,2.46,8.59,4.86,12.81,7.42,1.57.95,3.09,1.08,4.74.63,3.78-1.04,6.8-3.19,9.14-6.32.86-1.15,1.34-2.47,1.5-4.08.24.3.42.44.5.63,1.8,4.1-.04,4.98,1.45,5.79,3.73,2.03,7.87,4.22,5.18,7.44-.88,1.05-2.05,1.71-3.3,2.15-4.47,1.56-8.94,1.58-13.36-.2-.92-.37-1.77-.9-2.63-1.39-14.42-8.29-12.98-7.46-14.73-8.78-1.01-.76-.89-2.64-2.45-3.33.11-.11.22-.22.33-.33Z"/>
        </g>
      </g>
      <g>
        <g>
          <path class="cls-3" d="M1359.48,1100.69c.05.65-.11,2.05,0,2.76.08.48.22.3.49-.04.27-.35.61-.58.79-.95.18-.38.14-.83.14-2.07-.01-.98.01-3.87,0-4.14-.05-.68.18-3.04-.15-3.06-.1,0-.23.19-.34.34-1.13,1.38-.92-.22-.92,7.16ZM1351.37,1099.37c.01.29-.01.57-.03.86-.01.57.03,1.15.03,1.71.03.31-.04,5.27-.01,5.42.14.73.92.19,1.82-.03.3-.07.56-.11.76-.35.23-.27.19-.52.16-.82-.01-.3.01-.57.03-.86.03-.57-.01-1.17-.03-1.73,0-.14.01-3.8.01-3.94.03-.83.11-1.62-.16-1.79-.3-.2-.96.18-1.64.34-.16.04-.33.07-.48.14-.24.12-.41.33-.46.56-.03.15-.01.33,0,.49ZM1349.03,1099.06c-.3-.29-1.01-.07-1.32-.05-.25.03-1.28-.1-1.51.43-.1.16-.05.22-.07,1.35,0,.05-.01,7.22,0,7.27.14.71.9.41,1.48.37.27-.01.56.03.86-.03.27-.05.56-.18.65-.39.12-.27.03-6.68.07-7.12.03-.86.11-1.58-.16-1.82ZM1355.96,1105.79c.1.6.48.22,1.11-.14.67-.37,1.03-.49,1.1-1.28.04-.37-.01-.72-.03-1.07-.04-.63,0-1.28.01-1.9.03-1.11-.04-2.87-.01-3.83.01-.57.11-1.62-.16-1.74-.18-.08-.54.2-.95.43-1,.52-1.21.61-1.07,2.35.05.82-.05,1.32-.01,3.78.04,2.42-.07,2.95.01,3.4ZM1341.92,1098.96c-.2-.03-.41-.08-.63-.05-.16.03-.34.11-.42.24-.11.16-.08,0-.08,5.11.01,2.89-.05,3.17.01,3.51.14.8.99.53,1.94.69.2.04.39.1.61.05.16-.03.35-.11.43-.24.1-.16.07,0,.07-5.11-.01-3.21.03-2.41.01-3.08,0-1.33-.82-.91-1.96-1.11ZM1335.91,1101.15c.01.24-.05,5.18-.03,5.39.12.87,1.02.72,1.78,1.05.2.08.41.2.61.16.15-.03.3-.15.35-.3.05-.15.01-.33,0-.49-.03-.3.01-.57.04-.84.04-.57-.03-1.17-.05-1.74-.03-.67.01-1.3.03-1.96.01-.67-.01-1.35,0-1.97.03-1.28.16-1.83-.49-2.15-.29-.14-.86-.19-1.29-.38-.19-.08-.41-.19-.6-.16-.16.03-.31.15-.37.3-.05.15-.01.33.01.49.03.3-.03.57-.04.86-.04.56.03,1.15.04,1.74ZM1332.63,1096.07c-.29-.19-.61-.42-.76-.1-.03.07-.03,8.45-.01,8.55.08.83.73.87,1.4,1.32.29.18.63.43.76.1.04-.1.03-.19.03-.3-.01-.16,0-6.67,0-6.81,0-1.2.04-1.48-.08-1.78-.23-.53-.75-.58-1.33-.98ZM1329.14,1093.71c.04.23-.01.37-.03.54-.03.19.01,6.54.01,6.88-.04,1.05-.04,1.21.52,1.85.36.46.36.38.5.56.04.07.08.14.15.18.07.03.16.01.2-.03.08-.1.01-.3-.01-.46-.04-.23.01-.37.03-.54.03-.18-.01-6.55,0-6.86.04-1.3-.1-1.36-.53-1.86-.1-.11-.19-.24-.3-.34-.07-.07-.14-.14-.19-.22-.05-.05-.1-.14-.15-.16-.07-.04-.16-.03-.22.03-.08.08-.01.29.01.45ZM1327.96,1099.06c.07.52.27,1.73.35,1.75.1.05.07-1.16.07-1.89.03-1.62-.03-1.05-.05-1.79-.03-.8.06-3.15.08-4.12.01-.76.03-.63-.18-1.79-.14-.82-.23-1.25-.29-.82v-2.36h.07c0,2.46,1.47,4.31,3.42,5.79,6.4,4.84,18.79,5.07,25.6.98,3.26-1.88,5-4.4,5-6.96v2.35s-.07.04-.1.08c-.04.07-.01.07,0,.1.01.05-.04.15-.07.23-.04.1-.05.18-.07.26-.05.27-.16.46-.2.99-.02.21-.04,8.92,0,8.99.03.01.08-.05.1-.1.04-.05.01-.07.01-.1-.01-.04.03-.15.07-.23.04-.1.04-.18.05-.26.05-.24.15-.41.2-.8,0,.95.05,1.74-.45,2.91-.94,2.23-2.43,3.57-4.55,4.8-9.04,5.22-23.79,2.91-27.91-3.36-1.25-1.9-1.18-3.31-1.18-4.67Z"/>
          <path class="cls-8" d="M1357.05,1094.82c-6.81,4.09-19.2,3.86-25.6-.98-1.96-1.48-3.42-3.33-3.42-5.79,0-1.25.37-2.54.99-3.61.91-1.55,2.38-2.66,3.94-3.53,7.83-4.4,19.66-3.49,25.59.99,5.35,4.06,4.37,9.55-1.49,12.92Z"/>
          <path class="cls-8" d="M1362.05,1099.39c-.05.39-.15.56-.2.8-.01.08-.01.16-.05.26-.04.08-.08.19-.07.23,0,.03.03.04-.01.1-.01.04-.07.11-.1.1-.04-.07-.02-8.76,0-8.99.04-.53.15-.72.2-.99.01-.08.03-.16.07-.26.03-.08.08-.18.07-.23-.01-.03-.04-.03,0-.1.14-.21.1-.95.1,9.09Z"/>
          <path class="cls-8" d="M1359.48,1103.45c-.11-.71.05-2.11,0-2.76,0-7.37-.2-5.78.92-7.16.11-.15.24-.34.34-.34.33.01.1,2.38.15,3.06.01.27-.01,3.17,0,4.14,0,1.24.04,1.68-.14,2.07-.18.37-.52.6-.79.95-.27.34-.41.52-.49.04Z"/>
          <path class="cls-8" d="M1357.07,1105.65c-.64.35-1.02.73-1.11.14-.08-.45.03-.98-.01-3.4-.04-2.46.07-2.96.01-3.78-.13-1.74.08-1.83,1.07-2.35.41-.23.77-.52.95-.43.27.12.18,1.17.16,1.74-.03.96.04,2.72.01,3.83-.01.63-.05,1.28-.01,1.9.01.35.07.71.03,1.07-.07.79-.43.91-1.1,1.28Z"/>
          <path class="cls-8" d="M1351.34,1100.23c.01-.29.04-.57.03-.86-.01-.16-.03-.34,0-.49.05-.23.22-.43.46-.56.15-.07.31-.1.48-.14.68-.16,1.35-.54,1.64-.34.27.18.19.96.16,1.79,0,.14-.01,3.8-.01,3.94.01.56.05,1.15.03,1.73-.01.29-.04.56-.03.86.03.3.07.54-.16.82-.2.24-.46.29-.76.35-.9.22-1.68.76-1.82.03-.03-.16.05-5.06.01-5.42,0-.56-.04-1.14-.03-1.71Z"/>
          <path class="cls-8" d="M1347.62,1108.42c-.58.04-1.35.34-1.48-.37-.01-.05,0-7.22,0-7.27.01-1.13-.03-1.18.07-1.35.24-.54,1.32-.42,1.51-.43.31-.01,1.02-.23,1.32.05.27.24.19.96.16,1.82-.03.4.05,6.86-.07,7.12-.1.22-.38.34-.65.39-.3.05-.58.01-.86.03Z"/>
          <path class="cls-7" d="M1344.86,1132.72v18.89c-8.42-.01-18.94-2.41-24.76-8.47-2.11-2.17-3.56-4.86-3.59-7.89v-18.9c.01,1.4.33,2.79.95,4.13,3.11,6.81,12.31,10.38,19.66,11.6,2.42.39,5.03.63,7.73.64Z"/>
          <path class="cls-8" d="M1340.88,1099.16c.08-.14.26-.22.42-.24.22-.03.42.03.63.05,1.14.2,1.96-.22,1.96,1.11.01.68-.03-.12-.01,3.08,0,5.11.03,4.95-.07,5.11-.08.14-.27.22-.43.24-.22.04-.41-.01-.61-.05-.95-.16-1.81.11-1.94-.69-.07-.34,0-.61-.01-3.51,0-5.11-.03-4.95.08-5.11Z"/>
          <path class="cls-8" d="M1337.66,1107.59c-.76-.33-1.66-.18-1.78-1.05-.02-.21.04-5.15.03-5.39-.01-.58-.08-1.18-.04-1.74.01-.29.07-.56.04-.86-.03-.16-.07-.34-.01-.49.05-.15.2-.27.37-.3.19-.03.41.08.6.16.43.19,1.01.24,1.29.38.65.31.52.87.49,2.15-.01.62.01,1.3,0,1.97-.01.65-.05,1.29-.03,1.96.03.57.1,1.17.05,1.74-.03.27-.07.54-.04.84.01.16.05.34,0,.49-.05.15-.2.27-.35.3-.2.04-.41-.08-.61-.16Z"/>
          <path class="cls-8" d="M1331.87,1095.98c.15-.33.48-.1.76.1.58.39,1.1.45,1.33.98.12.3.08.58.08,1.78,0,.14-.01,6.64,0,6.81,0,.11.01.2-.03.3-.14.34-.48.08-.76-.1-.67-.45-1.32-.49-1.4-1.32-.01-.1-.01-8.48.01-8.55Z"/>
          <path class="cls-8" d="M1329.11,1094.25c.01-.18.07-.31.03-.54-.03-.16-.1-.37-.01-.45.05-.05.15-.07.22-.03.05.03.1.11.15.16.05.08.12.15.19.22.11.1.2.23.3.34.43.5.57.56.53,1.86-.01.31.03,6.69,0,6.86-.01.18-.07.31-.03.54.03.16.1.37.01.46-.04.04-.14.05-.2.03-.07-.04-.11-.11-.15-.18-.15-.17-.15-.11-.5-.56-.56-.64-.56-.8-.52-1.85,0-.34-.04-6.69-.01-6.88Z"/>
          <path class="cls-8" d="M1328.31,1100.81c-.08-.03-.29-1.24-.35-1.75v-8.64c.05-.43.15,0,.29.82.2,1.17.19,1.03.18,1.79-.15,5.22,0,4.07-.04,5.9,0,.72.02,1.94-.07,1.89Z"/>
          <path class="cls-4" d="M1316.52,1107.88c0-7.34,4.95-13.21,11.45-16.58-.01.23,0,1.52,0,3.12,0,1.92-.01,3.96,0,4.65.03,1.33-.08,2.76,1.18,4.67,4.12,6.26,18.87,8.57,27.91,3.36,2.12-1.22,3.61-2.57,4.55-4.8.68-1.6.41-2.15.48-10.99,6.33,3.18,11.14,9.02,11.39,16.01.99,13.81-27.54,22.67-47.18,12.94-2.84-1.4-5.49-3.21-7.38-5.77-1.41-1.92-2.39-4.25-2.39-6.59Z"/>
          <path class="cls-8" d="M1320.1,1143.14c5.82,6.06,16.33,8.45,24.76,8.47v-18.89c-2.7-.01-5.31-.24-7.73-.64-7.35-1.22-16.55-4.8-19.66-11.6-.62-1.35-.94-2.73-.95-4.13v-8.47c0,2.34.98,4.67,2.39,6.59,1.89,2.57,4.54,4.38,7.38,5.77,18.91,9.38,47.19,1.49,47.19-12.34v35.65c0,6.62-3.64,13.21-10.97,17.43-14.28,8.25-37.98,4.78-44.47-10.16-1.01-2.31-1.52-4.78-1.52-7.27v-8.32c.03,3.03,1.48,5.72,3.59,7.89Z"/>
        </g>
        <path class="cls-2" d="M1373.5,1136.9c3.72.26,6.91.41,10.09.71,4.65.43,9.09,1.66,13.39,3.53,4.53,1.97,7.79,5.37,10.71,9.17,1.86,2.41,1.5,4.96-.49,7.6-4.65,6.13-10.92,9.64-18.32,11.02-4.42.83-8.97,1.24-13.47,1.36-7.74.21-15.49.18-23.24.02-6.09-.12-12.12-.92-17.82-3.22-4.13-1.66-8.06-3.68-10.67-7.52-.33-.48-.49-1.08-.99-2.21,6.15,2.34,11.87,3.69,18.27,2.25v-35.58c9.5-1.42,18.2-4.09,25.32-10.35.01-.01.03-.03.04-.04,2.06-1.83.42-5.26-2.32-4.96-1.05.11-2.08.24-3.1.27-5.52.18-11.03,1.26-16.55,1.36-.4,0-.81-.25-1.39-.44,0-3.86.07-8.16.07-12.2,6.27.58,18.28-1.9,18.99-9.51l.06,3.14s1.64.94,2.3,1.32c5.76,3.56,9.23,9.49,9.11,15.94.09,8.13.02,14.37.02,28.34Z"/>
      </g>
      <g>
        <path class="cls-2" d="M1339.16,1179.26c7.83,4.52,7.83,11.86,0,16.38-7.83,4.52-20.54,4.52-28.37,0-7.83-4.52-7.83-11.86,0-16.38,7.83-4.52,20.54-4.52,28.37,0Z"/>
        <g>
          <g>
            <path class="cls-1" d="M1342.72,1179.54c0-3.2,0,1.47,0,4.66,0,1.9-.96,3.59-2.33,4.93-3.86,3.79-10.83,5.08-16.32,4.74h0c1.93-1.6,3.61-3.58,4.77-5.85h0c4.04-.42,8.68-1.82,11.55-4.64.06-.06.11-.08.15-.07h0c.06,0,.1.09.1.22v.47c1.18-1.24,2.01-2.76,2.07-4.46Z"/>
            <path class="cls-1" d="M1329.23,1177.07c-.15-.28-.3-.57-.45-.85l13.95,2.16s0,1.12,0,1.17l-13.29-2.06c-.07-.14-.14-.28-.21-.42h0Z"/>
            <path class="cls-5" d="M1329.43,1177.49l13.29,2.06c-.06,1.7-.89,3.22-2.07,4.46v-.47c0-.13-.04-.21-.1-.22-.09,0,1.07.17-10.15-1.57-.03-1.52-.36-2.95-.97-4.26Z"/>
            <path class="cls-9" d="M1330.4,1181.74c3.38.52,6.76,1.05,10.15,1.57-.04,0-.09.02-.15.07-2.87,2.82-7.51,4.23-11.55,4.64h0c.99-1.94,1.59-4.09,1.55-6.29Z"/>
            <path class="cls-1" d="M1301.51,1193.03c8.17,4.61,21.02-.19,25.4-9.33,1.46-3.05,1.91-6.51.66-9.66-.15-.36-.02-.1.17.25-.09-.2-.18-.4-.29-.59h0c1.68,3.2.99,1.87,1.77,3.37h0c2.64,4.96.6,10.95-3.32,15.1-7.94,8.43-22.07,9.01-26.51.61-.57-1.09-1.15-2.18-1.72-3.27.9,1.66,2.23,2.98,3.79,3.93-.06-.11-.12-.22-.17-.33-.04-.07-.04-.11-.01-.13,0,0,0,0,0,0,.04-.02.12,0,.22.06Z"/>
            <path class="cls-5" d="M1301.29,1192.97c27.64-20.15,26.13-19.11,26.22-19.11,0,0,.02.07.06.18,1.26,3.15.81,6.62-.66,9.66-4.41,9.19-17.27,13.93-25.4,9.33-.1-.06-.18-.08-.22-.06Z"/>
            <path class="cls-9" d="M1301.3,1193.1c.06.11.12.22.17.33-1.96-1.2-3.34-2.82-4.14-4.64l26.26-19.15c1.91,1.17,3.32,2.78,4.14,4.64-.06-.11-.12-.22-.17-.33-.03-.07-.05-.1-.06-.1-.09,0-26.11,19.07-26.22,19.11-.02.02-.02.06.01.13Z"/>
            <path class="cls-5" d="M1337.58,1171.45c2.67,1.49,5.1,3.88,5.14,6.92l-13.95-2.16c-.44-.84-.88-1.68-1.33-2.52h0c-.89-1.7-2.24-3.06-3.85-4.05-.16-.3-.25-.54-.61-.78h0c4.88-.49,10.42.26,14.6,2.59Z"/>
            <path class="cls-1" d="M1322.92,1168.83c.41.24.53.53.68.82l-26.26,19.15c-.16-.3-.34-.64-.47-.97l26.06-19Z"/>
            <path class="cls-5" d="M1322.92,1168.83l-26.06,19c-1.26-3.15-.81-6.62.66-9.66,4.41-9.18,17.27-13.93,25.4-9.33Z"/>
          </g>
          <g class="cls-11">
            <path class="cls-9" d="M1298.91,1191.56c.7.73,1.04.96,1.72,1.51.43.34.66.46.65.41-.01-.04.04-.19,0-.3.15.05.44.18.54.23,1.63.86,3.76,1.44,5.37,1.53,3.21.18,4.64,0,7.54-.89,8.46-2.6,15.42-11.13,13.14-18.91-.02-.06-.44-1.16-.42-1.23,1.82,3.46,2.35,4.2,2.76,6.18.99.75,1.93,1.48,2.91,2.22.01,0,.02.02.04.03.72.27.94.96,1.28,1.55.1.17.21.35.31.52.04.07.1.13.12.2.17.57.3,1.16.21,1.76-.02.15.02.25,0,.46,2.08-.77,3.7-1.67,5.32-3.23.37-.28.22.27.25.63.13-.11.29-.33.37-.42,1.48-1.73,1.56-3.13,1.69-3.52,0-.01-.01-.5.02-.54,0,5.53.06,5.56-.41,6.77-1.63,4.21-7.33,6.57-11.84,7.26-.91.14-1.83.28-2.75.34-.89.05-3.01.04-3.21.02-.98-.1-.87.72-4.17,2.44-2.84,1.48-5.43,2.19-8.36,2.42-2.54.2-4.97-.21-7.31-1.22-1.48-.63-2.7-1.52-3.79-2.7-.28-.3-.99-1.16-1.18-1.53-.39-.77-1.55-2.95-1.95-3.71.02-.02,1.14,1.76,1.17,1.74Z"/>
            <path class="cls-1" d="M1323.43,1169.17c.11.2.2.35.32.55-8.75,6.38-17.49,12.75-26.23,19.12-.23-.1-.27-.31-.37-.48.25-.27,25.66-18.84,26.28-19.2Z"/>
          </g>
        </g>
      </g>
    </g>
  </g>
</svg>