<?xml version="1.0" encoding="UTF-8"?>
<svg xmlns="http://www.w3.org/2000/svg" version="1.1" viewBox="0 0 2000 2000">
  <defs>
    <style>
      .cls-1 {
        fill: #687a51;
      }

      .cls-1, .cls-2, .cls-3, .cls-4, .cls-5, .cls-6, .cls-7, .cls-8, .cls-9, .cls-10 {
        stroke-width: 0px;
      }

      .cls-2 {
        fill: #e5e2d8;
      }

      .cls-11 {
        isolation: isolate;
      }

      .cls-3 {
        fill: #c4bea3;
      }

      .cls-4 {
        fill: #576fd3;
      }

      .cls-5 {
        fill: #d8d2b8;
      }

      .cls-6 {
        fill: #0d3482;
        mix-blend-mode: multiply;
        opacity: .4;
      }

      .cls-7 {
        fill: #fff9e1;
      }

      .cls-8 {
        fill: #a5aa9f;
      }

      .cls-9 {
        fill: #f9f8f2;
      }

      .cls-10 {
        fill: #6c88ff;
      }
    </style>
  </defs>
  <g class="cls-11">
    <g id="Layer_2" data-name="Layer 2">
      <polygon class="cls-6" points="978.03 1067.79 890.01 1118.72 958.15 1158.06 1004.01 1158.06 978.03 1067.79"/>
      <g>
        <g id="Axonometric_Cube" data-name="Axonometric Cube">
          <polygon id="Cube_face_-_left" data-name="Cube face - left" class="cls-5" points="1003.97 1158.05 1167.38 1063.7 1167.38 1038.97 1003.97 1076.8 1003.97 1158.05"/>
          <polygon id="Cube_face_-_right" data-name="Cube face - right" class="cls-3" points="923.21 1111.43 1003.97 1158.05 1003.97 1076.8 923.21 1086.7 923.21 1111.43"/>
        </g>
        <g>
          <polygon class="cls-7" points="1167.38 1038.97 1003.99 1133.3 923.27 1086.7 1086.66 992.37 1167.38 1038.97"/>
          <path class="cls-1" d="M929.35,1087.64l72.67,41.96,158.94-91.76-72.67-41.96-158.94,91.76ZM1145.44,1031.25c3.42,1.98,3.37,5.21-.11,7.22l-142.2,82.1c-3.49,2.01-9.09,2.04-12.51.06l-45.41-26.22c-3.42-1.98-3.37-5.21.11-7.22l142.2-82.1c3.49-2.01,9.09-2.04,12.51-.06l45.41,26.22Z"/>
          <path class="cls-8" d="M1009.05,1041.89c-15.81,9.13-12.48,25.91,7.43,37.41,19.91,11.5,48.98,13.42,64.79,4.29,15.81-9.13,12.48-25.91-7.43-37.41-19.91-11.5-48.98-13.42-64.79-4.29ZM1080.87,1083.35c-15.59,9-44.29,7.07-63.97-4.3-19.69-11.37-23.03-27.94-7.44-36.93,15.59-9,44.28-7.07,63.97,4.3,19.69,11.37,23.03,27.94,7.44,36.93Z"/>
          <path class="cls-8" d="M1072.6,1046.89c19.27,11.13,22.61,27.24,7.46,35.99-15.16,8.75-43.07,6.82-62.34-4.3-19.27-11.13-22.61-27.24-7.46-35.99,15.16-8.75,43.07-6.82,62.34,4.3Z"/>
          <path class="cls-7" d="M1068.6,1049.2c16.46,9.51,19.32,23.27,6.37,30.75-12.95,7.48-36.79,5.83-53.26-3.68-16.47-9.51-19.32-23.27-6.37-30.75,12.95-7.48,36.79-5.83,53.26,3.68Z"/>
          <g>
            <polygon class="cls-1" points="1096.48 1044.63 1091.02 1047.78 1093.15 1049 1098.6 1045.85 1096.48 1044.63"/>
            <polygon class="cls-1" points="1099.36 1042.97 1101.48 1044.19 1124.94 1030.65 1122.82 1029.42 1099.36 1042.97"/>
          </g>
          <g>
            <polygon class="cls-1" points="991.29 1105.36 985.83 1108.51 987.96 1109.73 993.41 1106.59 991.29 1105.36"/>
            <polygon class="cls-1" points="994.17 1103.7 996.29 1104.92 1019.75 1091.38 1017.63 1090.15 994.17 1103.7"/>
          </g>
          <polygon class="cls-1" points="949.57 1090.58 952.49 1092.27 980.83 1075.91 977.91 1074.22 949.57 1090.58"/>
          <polygon class="cls-8" points="1064.24 1024.38 1067.16 1026.06 1095.5 1009.7 1092.58 1008.02 1064.24 1024.38"/>
          <g>
            <path class="cls-1" d="M1128.33,1043.01l-6.37-3.68h-.19s-2.22,1.78-2.22,1.78l.34.19.83-.31c.34-.13.54-.14.93.09l5.02,2.9c.35.2.3.31.06.48l-.69.47.41.24,3.95-2.28-.41-.24-.82.4c-.29.14-.49.17-.83-.03Z"/>
            <path class="cls-1" d="M1127.22,1036.19c-2.07,1.19-.98,2.61,1,3.76,1.99,1.15,4.44,1.77,6.51.58,2.07-1.19.98-2.61-1-3.76-1.99-1.15-4.44-1.77-6.51-.58ZM1134.24,1040.24c-.91.52-3.03-.59-4.26-1.3-1.24-.71-3.16-1.94-2.25-2.46.91-.52,3.03.59,4.26,1.3,1.24.71,3.16,1.94,2.25,2.46Z"/>
            <path class="cls-1" d="M1133.42,1032.61c-2.07,1.19-.98,2.61,1,3.76,1.99,1.15,4.44,1.77,6.51.58,2.07-1.19.98-2.61-1-3.76-1.99-1.15-4.44-1.77-6.51-.58ZM1140.43,1036.66c-.91.52-3.03-.59-4.26-1.3-1.24-.71-3.16-1.94-2.25-2.46.91-.52,3.02.59,4.26,1.3,1.24.71,3.16,1.94,2.25,2.46Z"/>
          </g>
          <g>
            <path class="cls-7" d="M1074.15,1010.73l-4.27-2.46c-.12,0-1.61,1.19-1.61,1.19l.22.13.55-.21c.23-.09.36-.09.62.06l3.36,1.94c.23.13.2.21.04.32l-.46.32.28.16,2.64-1.53-.28-.16-.55.27c-.19.09-.32.11-.56-.02Z"/>
            <path class="cls-7" d="M1073.41,1006.16c-1.38.8-.66,1.75.67,2.52,1.33.77,2.97,1.19,4.36.39,1.38-.8.66-1.75-.67-2.52-1.33-.77-2.98-1.19-4.36-.39ZM1078.1,1008.87c-.61.35-2.03-.39-2.86-.87-.83-.48-2.11-1.3-1.51-1.65.61-.35,2.03.39,2.85.87.83.48,2.11,1.3,1.51,1.65Z"/>
            <path class="cls-7" d="M1077.55,1003.77c-1.38.8-.66,1.75.67,2.52,1.33.77,2.97,1.19,4.36.39,1.38-.8.66-1.75-.67-2.52-1.33-.77-2.97-1.19-4.36-.39ZM1082.25,1006.48c-.61.35-2.03-.39-2.85-.87-.83-.48-2.11-1.3-1.51-1.65.61-.35,2.03.39,2.85.87.83.48,2.11,1.3,1.51,1.65Z"/>
          </g>
          <g>
            <path class="cls-7" d="M949.9,1082.46l-4.27-2.46c-.12,0-1.61,1.19-1.61,1.19l.22.13.55-.21c.23-.09.36-.09.62.06l3.36,1.94c.23.13.2.21.04.32l-.46.32.28.16,2.64-1.53-.28-.16-.55.27c-.19.09-.32.11-.56-.02Z"/>
            <path class="cls-7" d="M949.16,1077.9c-1.38.8-.66,1.75.67,2.52,1.33.77,2.97,1.19,4.36.39,1.38-.8.66-1.75-.67-2.52-1.33-.77-2.98-1.19-4.36-.39ZM953.85,1080.61c-.61.35-2.03-.39-2.86-.87-.83-.48-2.11-1.3-1.51-1.65.61-.35,2.03.39,2.85.87.83.48,2.11,1.3,1.51,1.65Z"/>
            <path class="cls-7" d="M953.3,1075.5c-1.38.8-.66,1.75.67,2.52,1.33.77,2.97,1.19,4.36.39,1.38-.8.66-1.75-.67-2.52-1.33-.77-2.97-1.19-4.36-.39ZM958,1078.21c-.61.35-2.03-.39-2.85-.87-.83-.48-2.11-1.3-1.51-1.65.61-.35,2.03.39,2.85.87.83.48,2.11,1.3,1.51,1.65Z"/>
          </g>
          <g>
            <path class="cls-7" d="M1009.26,1119.44l.55.32c.45.26.44.68-.01.94l-5.3,3.06c-.45.26-1.18.27-1.63,0l-.55-.32c-.42-.24-.44-.63-.05-.9l.71-.48-6.51-3.76-.95.36c-.46.17-1.06.14-1.44-.08l-.45-.26c-.4-.23-.44-.59-.11-.86l2.98-2.38c.32-.2.58-.27.87-.28h.25c.33-.02.65.04.89.18l8.37,4.83.85-.41c.46-.22,1.14-.21,1.56.03ZM1022.62,1106.74c3.72,2.15,4.21,4.33,1.33,5.99-2.1,1.21-4.68,1.38-7.37.55,1.44,1.55,1.15,3.04-.95,4.26-2.87,1.66-6.65,1.38-10.37-.77-3.72-2.15-4.21-4.33-1.33-5.99,2.1-1.21,4.68-1.38,7.37-.55-1.44-1.55-1.15-3.04.95-4.26,2.87-1.66,6.65-1.38,10.37.77Z"/>
            <path class="cls-8" d="M1006.23,1120.4l-8.56-4.94h-.25s-2.98,2.39-2.98,2.39l.45.26,1.11-.42c.46-.18.72-.18,1.25.12l6.74,3.89c.47.27.41.42.08.65l-.92.63.55.32,5.3-3.06-.55-.32-1.1.53c-.39.19-.65.22-1.12-.05Z"/>
            <path class="cls-8" d="M1004.74,1111.24c-2.78,1.6-1.32,3.51,1.35,5.05,2.67,1.54,5.96,2.38,8.74.78,2.78-1.6,1.32-3.51-1.35-5.05-2.67-1.54-5.97-2.38-8.74-.78ZM1014.16,1116.68c-1.22.7-4.06-.79-5.73-1.75-1.66-.96-4.24-2.6-3.02-3.31,1.22-.7,4.06.79,5.72,1.75,1.66.96,4.24,2.6,3.02,3.31Z"/>
            <path class="cls-8" d="M1013.06,1106.44c-2.78,1.6-1.32,3.51,1.35,5.05,2.67,1.54,5.96,2.38,8.74.78,2.78-1.6,1.32-3.51-1.35-5.05-2.67-1.54-5.97-2.38-8.74-.78ZM1022.48,1111.88c-1.22.7-4.06-.79-5.73-1.75-1.66-.96-4.24-2.6-3.02-3.31,1.22-.7,4.06.79,5.72,1.75,1.66.96,4.24,2.6,3.02,3.31Z"/>
          </g>
          <path class="cls-8" d="M1085.34,1025.58c-4.97,2.87-5.04,7.48-.16,10.3s12.87,2.78,17.84-.09c4.97-2.87,5.04-7.48.16-10.3-4.88-2.82-12.87-2.78-17.84.09ZM1102.06,1035.24c-4.43,2.56-11.55,2.6-15.9.08-4.35-2.51-4.29-6.62.14-9.18,4.43-2.56,11.55-2.6,15.9-.08,4.35,2.51,4.29,6.62-.14,9.18Z"/>
          <path class="cls-8" d="M980.13,1086.33c-4.97,2.87-5.04,7.48-.16,10.3,4.88,2.82,12.87,2.78,17.84-.09,4.97-2.87,5.04-7.48.16-10.3-4.88-2.82-12.87-2.78-17.84.09ZM996.85,1095.98c-4.43,2.56-11.55,2.59-15.9.08-4.35-2.51-4.29-6.62.14-9.18,4.43-2.56,11.55-2.6,15.9-.08,4.35,2.51,4.29,6.62-.14,9.18Z"/>
          <path class="cls-1" d="M1093.17,1026.58c-.23.56-.93.97-1.83,1.09l-.47.06c-.9.12-1.6.53-1.81,1.04l-.11.27c-.21.52-.91.92-1.81,1.04-.89.12-1.18.7-.61,1.03,0,0,4.58,2.65,4.58,2.65.44.25,1.04.39,1.66.39l7.09-.04.26-.15.06-4.09c0-.36-.24-.71-.68-.96l-4.59-2.65c-.58-.33-1.58-.16-1.76.3Z"/>
          <path class="cls-1" d="M987.91,1087.35c-.23.56-.93.97-1.83,1.09l-.47.06c-.9.12-1.6.53-1.81,1.04l-.11.27c-.21.52-.91.92-1.81,1.04-.89.12-1.18.7-.61,1.03l4.58,2.65c.44.25,1.04.39,1.66.39l7.09-.04.26-.15.06-4.09c0-.36-.24-.71-.68-.96l-4.59-2.65c-.58-.33-1.58-.16-1.76.3Z"/>
          <path class="cls-1" d="M1044.51,1057.85l-3.55.96-11.45-6.61c1.75-.69,4.55-.9,9.97.53,1.4.35,2.41.34,3.65-.37,1.08-.62,3.46-2.83.8-4.37-2.33-1.35-9.34-1.47-16.98,2.74l-4.45-2.57-3.17,1.83,4.45,2.57c-6.28,3.88-8.27,8.88-1.27,12.92,5.17,2.98,11.79,2.43,18.78.58l4-1.09,13.06,7.54c-1.36.53-4.51,1.12-11.77-.65-1.73-.41-2.91-.37-4.27.41-1.47.85-2.46,3.28-.07,4.66,1.89,1.09,8.82,2.35,18.66-2.95l5.78,3.34,3.17-1.83-5.78-3.34c5.21-3.01,9.44-8.85,1.5-13.51-6.17-3.5-12.85-2.98-21.07-.8ZM1036.57,1059.93c-3.5,1.18-7.37,1.43-10.04-.11-2.78-1.6-2.91-4.03-.19-5.79l10.22,5.9ZM1061.52,1070.68l-12.01-6.93c4.22-1.09,8.6-.98,11.99.97,3.28,1.89,3.02,4.23.02,5.96Z"/>
          <polygon class="cls-8" points="1112.52 1053.23 1098.62 1061.25 1097.79 1060.77 1111.69 1052.75 1112.52 1053.23"/>
          <polygon class="cls-8" points="1042.09 1093.89 1028.19 1101.91 1027.36 1101.44 1041.26 1093.41 1042.09 1093.89"/>
        </g>
        <g>
          <polygon class="cls-9" points="1022.83 1029.17 988.06 1049.25 1068.85 1095.89 1103.62 1075.81 1022.83 1029.17"/>
          <polygon class="cls-2" points="1103.62 1100.73 1068.84 1120.79 1068.84 1095.88 1103.62 1075.81 1103.62 1100.73"/>
          <polygon class="cls-10" points="1099.79 1078.02 1019 1031.38 1023.36 1028.86 1104.15 1075.51 1104.15 1100.43 1099.79 1102.94 1099.79 1078.02"/>
          <polygon class="cls-10" points="1068.14 1096.3 987.35 1049.65 991.71 1047.14 1072.5 1093.78 1072.5 1118.7 1068.14 1121.21 1068.14 1096.3"/>
          <polygon class="cls-4" points="1099.79 1078.02 1104.15 1075.51 1104.15 1100.43 1099.79 1102.94 1099.79 1078.02"/>
          <polygon class="cls-4" points="1068.14 1096.3 1072.5 1093.78 1072.5 1118.7 1068.14 1121.21 1068.14 1096.3"/>
        </g>
      </g>
    </g>
  </g>
</svg>