<?xml version="1.0" encoding="UTF-8"?>
<svg id="Layer_1" data-name="Layer 1" xmlns="http://www.w3.org/2000/svg" version="1.1" viewBox="0 0 2000 2000">
  <defs>
    <style>
      .cls-1 {
        fill: #ffc522;
      }

      .cls-1, .cls-2, .cls-3, .cls-4 {
        stroke-width: 0px;
      }

      .cls-5 {
        isolation: isolate;
      }

      .cls-2 {
        fill: #d88223;
      }

      .cls-3 {
        fill: #505b60;
      }

      .cls-4 {
        fill: #f4b728;
      }
    </style>
  </defs>
  <g class="cls-5">
    <g id="Layer_2" data-name="Layer 2">
      <g>
        <g id="_1" data-name=" 1">
          <g class="cls-5">
            <g class="cls-5">
              <g class="cls-5">
                <path class="cls-3" d="M1042.8,964.2l-1.8-1c0,0,1.7,1,1.7,1h0c0,0,0,0,0,0Z"/>
              </g>
            </g>
            <path class="cls-2" d="M1042.5,964.7c-.1,0-.2-.2-.3-.3l-3-5.2-1.8-1,3,5.2c0,0,0,.1.1.2s0,0,.2.1c0,0,.2,0,.3.2l.4.3c.4.2.8.5,1.1.6h0Z"/>
            <path class="cls-1" d="M1051,910.1c-2,2.7-4.5,5-7.1,6.5-2.3,1.3-4.5,1.9-6.3,1.8v4.2c0,.2,0,.4.2.5l2,1.3c.2.2.4.5.4.9,0,1.8-.2,6.7,0,7.7,0,.4.6,1.8.9,2.6.1.4.1.9,0,1.4-.3,1.1-.8,2.9-1.1,4,0,.3,0,.6,0,.8.2.3.4.8.5,1,.3.5-.7,4-.6,4.5.1.6.9,2.8,1.3,3.8.1.3,0,.8,0,1.2-.4,1.3-1.4,4.2-1.8,5.3,0,.3-.2.6-.2.8s0,.5.2.7l3,5.2c.3.5.8.5,1.4.2.2-.2.5-.4.7-.6v-39.7s2.5-4.8,2.5-4.8v39.5s1.4-2.8,1.4-2.8c.3-.7.5-1.3.5-2v-33.5c0-1.2.4-2.6,1.1-3.9l.4-.7c.4-.8.7-1.6.7-2.3v-3.6h0Z"/>
            <path class="cls-4" d="M1046.9,919.4v39.5s-2.1,4.3-2.1,4.3c-.1.3-.3.5-.5.7v-39.7s2.5-4.8,2.5-4.8h0Z"/>
            <path class="cls-4" d="M1043.2,924.2v39.9c0,0-2.9-5.2-2.9-5.2,0-.2-.2-.4-.2-.7,0-.3,0-.5.2-.8.4-1.1,1.3-3.9,1.8-5.3.2-.5.2-.9,0-1.2-.4-1-1.2-3.2-1.3-3.8-.1-.6.8-4.1.6-4.5-.2-.3-.4-.7-.5-1,0-.2,0-.5,0-.8.3-1.1.8-3,1.1-4,.1-.5.1-1,0-1.4-.3-.8-.9-2.2-.9-2.6,0-.5,0-2.5,0-4.5l2.1-4h0Z"/>
            <path class="cls-2" d="M1041,952.5c.2-.5.2-.9,0-1.2-.4-1-1.2-3.2-1.3-3.8-.1-.6.8-4.1.6-4.5-.2-.3-.4-.7-.5-1,0-.2,0-.5,0-.8.3-1.1.8-3,1.1-4,.1-.5.1-1,0-1.4-.3-.8-.9-2.2-.9-2.6,0-.9,0-5.8,0-7.7,0-.4-.1-.8-.4-.9l-2-1.3-1.8-1,2,1.3c.2.2.4.5.4.9,0,1.8-.2,6.7,0,7.7,0,.4.6,1.8.9,2.6.1.4.1.9,0,1.4-.3,1.1-.8,2.9-1.1,4,0,.3,0,.6,0,.8.2.3.4.8.5,1,.3.5-.7,4-.6,4.5.1.6.9,2.8,1.3,3.8.1.3,0,.8,0,1.2-.4,1.3-1.4,4.2-1.8,5.3,0,.3-.2.6-.2.8s0,.5.2.7l1.8,1c0-.2-.2-.4-.2-.7s0-.5.2-.8c.4-1.1,1.3-3.9,1.8-5.3Z"/>
            <path class="cls-2" d="M1037.6,922.6v-4.2l-1.8-1v4.2c0,.2,0,.4.2.5l1.8,1c-.1,0-.2-.3-.2-.5h0Z"/>
            <path class="cls-2" d="M1047.2,892.7c0-1.1-.4-1.8-1-2.2l-1.8-1c.6.3,1,1.1,1,2.2s-.7,3.1-1.7,4.4c-.5.6-1,1.1-1.6,1.4-.3.2-.7.3-1,.4-.5.1-1,0-1.4-.2l1.8,1c.4.2.8.3,1.4.2.3,0,.7-.2,1-.4.6-.3,1.2-.8,1.6-1.4,1-1.2,1.7-2.9,1.7-4.4h0Z"/>
            <path class="cls-2" d="M1051.4,884.4c-4.7-2.7-11.3,1.1-15.7,6.5-7.5,9.2-9,21.9-2.9,25.5l1.8,1c-9.6-8.8,7.5-34.8,18.6-32l-1.8-1Z"/>
            <path class="cls-1" d="M1043.8,886.4c-7.2,4.2-13.1,14.3-13.1,22.6,0,5.7,2.8,9.1,6.8,9.3,1.9.1,4.1-.5,6.4-1.8,2.6-1.5,5-3.8,7.1-6.5,3.6-4.8,6-10.8,6-16.2,0-8.3-5.9-11.7-13.2-7.5h0ZM1043.9,890.8c1.8-1.1,3.4-.2,3.4,1.9s-1.5,4.7-3.3,5.8c-1.8,1.1-3.4.2-3.4-1.9s1.5-4.7,3.3-5.8Z"/>
          </g>
        </g>
        <path class="cls-2" d="M1043.2,924.2v39.9c0,0-.6-1.2-.6-1.2v-37.5c0,0,.6-1.2.6-1.2Z"/>
        <polygon class="cls-2" points="1046.3 960.2 1046.9 958.9 1046.9 919.4 1046.2 920.5 1046.3 960.2"/>
      </g>
    </g>
  </g>
</svg>