<?xml version="1.0" encoding="UTF-8"?>
<svg id="Layer_1" data-name="Layer 1" xmlns="http://www.w3.org/2000/svg" version="1.1" xmlns:xlink="http://www.w3.org/1999/xlink" viewBox="0 0 2000 2000">
  <defs>
    <style>
      .cls-1 {
        fill: url(#linear-gradient);
      }

      .cls-1, .cls-2, .cls-3, .cls-4, .cls-5, .cls-6, .cls-7, .cls-8 {
        stroke-width: 0px;
      }

      .cls-2 {
        fill: url(#linear-gradient-6);
      }

      .cls-9 {
        isolation: isolate;
      }

      .cls-3 {
        fill: url(#linear-gradient-5);
      }

      .cls-4 {
        fill: url(#linear-gradient-2);
      }

      .cls-5 {
        fill: url(#linear-gradient-7);
      }

      .cls-6 {
        fill: url(#linear-gradient-3);
      }

      .cls-7 {
        fill: url(#linear-gradient-4);
      }

      .cls-8 {
        fill: #fafbfd;
      }
    </style>
    <linearGradient id="linear-gradient" x1="1036.72" y1="1024.28" x2="991.28" y2="984.33" gradientTransform="translate(-392.58)" gradientUnits="userSpaceOnUse">
      <stop offset="0" stop-color="#0093c4"/>
      <stop offset=".15" stop-color="#00a7c3"/>
      <stop offset=".54" stop-color="#00d6c0"/>
      <stop offset=".83" stop-color="#00f4bf"/>
      <stop offset="1" stop-color="#00ffbf"/>
    </linearGradient>
    <linearGradient id="linear-gradient-2" x1="1001.92" y1="1013.07" x2="997.43" y2="980.38" gradientTransform="translate(-392.58)" gradientUnits="userSpaceOnUse">
      <stop offset="0" stop-color="#007196"/>
      <stop offset=".17" stop-color="#007896"/>
      <stop offset=".42" stop-color="#008c97"/>
      <stop offset=".72" stop-color="#00ac9a"/>
      <stop offset="1" stop-color="#00d19d"/>
    </linearGradient>
    <linearGradient id="linear-gradient-3" x1="1005.35" y1="1043.73" x2="1002.65" y2="968.94" gradientTransform="translate(-392.58)" gradientUnits="userSpaceOnUse">
      <stop offset="0" stop-color="#0093c4"/>
      <stop offset=".16" stop-color="#009ac3"/>
      <stop offset=".39" stop-color="#00aec2"/>
      <stop offset=".67" stop-color="#00cec1"/>
      <stop offset=".98" stop-color="#00fbbf"/>
      <stop offset="1" stop-color="#00ffbf"/>
    </linearGradient>
    <linearGradient id="linear-gradient-4" x1="980.96" y1="1041.64" x2="982.48" y2="983.72" xlink:href="#linear-gradient-3"/>
    <linearGradient id="linear-gradient-5" x1="987.29" y1="1038.52" x2="985.49" y2="961.21" xlink:href="#linear-gradient-2"/>
    <linearGradient id="linear-gradient-6" x1="996.95" y1="1000.77" x2="999.24" y2="1000.77" xlink:href="#linear-gradient-2"/>
    <linearGradient id="linear-gradient-7" x1="1010.53" y1="992.47" x2="1012.82" y2="992.47" xlink:href="#linear-gradient-2"/>
  </defs>
  <g>
    <path class="cls-8" d="M603.5,978.22c3.46-2,6.28,2.03,6.28,6.79l1.33-.76c0-5.6-3.41-9.98-7.61-7.55-4.19,2.42-7.61,10.73-7.61,16.34l1.33-.77c0-4.76,2.81-12.04,6.28-14.04Z"/>
    <g class="cls-9">
      <g>
        <polygon class="cls-1" points="597.32 1002.5 586.45 996.19 615.3 979.53 626.17 985.85 597.32 1002.5"/>
        <polygon class="cls-4" points="587.87 996.19 615.3 980.35 624.75 985.84 597.32 1001.68 587.87 996.19"/>
      </g>
      <polygon class="cls-6" points="626.17 985.85 626.3 1031.86 597.45 1048.52 597.32 1002.5 626.17 985.85"/>
    </g>
    <g>
      <polygon class="cls-7" points="586.45 996.19 586.58 1042.2 591.41 1045 591.41 999.07 586.45 996.19"/>
      <polygon class="cls-3" points="597.32 1002.5 591.41 999.07 591.41 1045 597.45 1048.52 597.32 1002.5"/>
    </g>
    <path class="cls-8" d="M612.16,984.57c3.47-2,6.28,3.72,6.28,8.48l1.33-.77c0-5.61-3.41-11.66-7.61-9.24-4.19,2.42-7.61,12.42-7.61,18.02l1.33-.77c0-4.75,2.81-13.73,6.28-15.73Z"/>
  </g>
  <path class="cls-2" d="M606.66,1000.11c0-.73-.51-1.02-1.14-.66-.63.37-1.15,1.25-1.15,1.98s.51,1.02,1.15.66c.63-.36,1.14-1.25,1.14-1.98Z"/>
  <path class="cls-5" d="M620.24,991.81c0-.73-.51-1.03-1.14-.66-.63.37-1.15,1.25-1.15,1.98s.51,1.03,1.15.66c.63-.37,1.14-1.25,1.14-1.98Z"/>
</svg>