<?xml version="1.0" encoding="UTF-8"?>
<svg id="Layer_2" data-name="Layer 2" xmlns="http://www.w3.org/2000/svg" version="1.1" xmlns:xlink="http://www.w3.org/1999/xlink" viewBox="0 0 2000 2000">
  <defs>
    <style>
      .cls-1 {
        fill: url(#Degradado_sin_nombre_14);
      }

      .cls-1, .cls-2, .cls-3 {
        stroke-width: 0px;
      }

      .cls-2 {
        fill: #eaf2ff;
      }

      .cls-3 {
        fill: url(#Degradado_sin_nombre_2);
      }
    </style>
    <linearGradient id="Degradado_sin_nombre_14" data-name="Degradado sin nombre 14" x1="1495.37" y1="1273.59" x2="1587.01" y2="1273.59" gradientUnits="userSpaceOnUse">
      <stop offset=".07" stop-color="#fff"/>
      <stop offset=".39" stop-color="#eef4ff"/>
      <stop offset="1" stop-color="#c4daff"/>
    </linearGradient>
    <linearGradient id="Degradado_sin_nombre_2" data-name="Degradado sin nombre 2" x1="-895.39" y1="1269.7" x2="-925.92" y2="1308.34" gradientTransform="translate(645.92) rotate(-180) scale(1 -1)" gradientUnits="userSpaceOnUse">
      <stop offset=".07" stop-color="#b8d0f6"/>
      <stop offset=".62" stop-color="#a7c1ea"/>
      <stop offset="1" stop-color="#99b6e0"/>
    </linearGradient>
  </defs>
  <path class="cls-1" d="M1585.1,1276.56l-38.77,22.39c-2.83,1.63-7.81,1.43-11.08-.46l-37.18-21.47c-3.26-1.88-3.62-4.76-.8-6.39l38.77-22.39c2.83-1.63,7.81-1.43,11.08.46l37.18,21.47c3.26,1.88,3.62,4.76.8,6.39Z"/>
  <g>
    <path class="cls-3" d="M1586.96,1296v-21.7h0c-.17.85-.79,1.65-1.85,2.26l-38.77,22.39c-1.36.78-3.22,1.13-5.14,1.09v22.7c1.92.05,3.78-.3,5.14-1.09l38.77-22.39c1.48-.85,2.08-2.05,1.85-3.26Z"/>
    <path class="cls-2" d="M1535.25,1298.49l-37.18-21.47c-1.56-.9-2.44-2.02-2.65-3.13v21.7c-.29,1.4.62,2.96,2.65,4.13l37.18,21.47c1.7.98,3.85,1.49,5.93,1.55v-22.7c-2.08-.05-4.24-.57-5.93-1.54Z"/>
  </g>
</svg>