<?xml version="1.0" encoding="UTF-8"?>
<svg xmlns="http://www.w3.org/2000/svg" version="1.1" xmlns:xlink="http://www.w3.org/1999/xlink" viewBox="0 0 2000 2000">
  <defs>
    <style>
      .cls-1 {
        isolation: isolate;
      }

      .cls-2 {
        fill: #eda722;
      }

      .cls-2, .cls-3, .cls-4, .cls-5, .cls-6, .cls-7, .cls-8 {
        stroke-width: 0px;
      }

      .cls-3 {
        fill: #d88223;
      }

      .cls-4 {
        fill: url(#_Áåçûìÿííûé_ãðàäèåíò_939);
      }

      .cls-5 {
        fill: #f1edf2;
      }

      .cls-6 {
        fill: url(#_Áåçûìÿííûé_ãðàäèåíò_860);
      }

      .cls-7 {
        fill: #fff;
        mix-blend-mode: screen;
      }

      .cls-8 {
        fill: url(#_Áåçûìÿííûé_ãðàäèåíò_1031);
      }
    </style>
    <linearGradient id="_Áåçûìÿííûé_ãðàäèåíò_939" data-name="Áåçûìÿííûé ãðàäèåíò 939" x1="962.46" y1="958.34" x2="986.88" y2="958.34" gradientUnits="userSpaceOnUse">
      <stop offset="0" stop-color="#d88223"/>
      <stop offset=".42" stop-color="#e79b22"/>
      <stop offset="1" stop-color="#ffc522"/>
    </linearGradient>
    <linearGradient id="_Áåçûìÿííûé_ãðàäèåíò_1031" data-name="Áåçûìÿííûé ãðàäèåíò 1031" x1="974.92" y1="945.4" x2="993.67" y2="945.4" gradientUnits="userSpaceOnUse">
      <stop offset="0" stop-color="#f3b022"/>
      <stop offset="1" stop-color="#ffc522"/>
    </linearGradient>
    <linearGradient id="_Áåçûìÿííûé_ãðàäèåíò_860" data-name="Áåçûìÿííûé ãðàäèåíò 860" x1="995.13" y1="935.69" x2="1009.93" y2="843.77" gradientUnits="userSpaceOnUse">
      <stop offset="0" stop-color="#c0b9c8"/>
      <stop offset="1" stop-color="#e0dbe1"/>
    </linearGradient>
  </defs>
  <g class="cls-1">
    <g id="Layer_2" data-name="Layer 2">
      <g>
        <g class="cls-1">
          <path class="cls-4" d="M969.37,931.74l-2.91-1.68c-2.69-1.55-4.03-3.59-4.02-5.62l-.15,58.2c0,2.03,1.34,4.07,4.02,5.62l2.91,1.68c5.34,3.08,13.96,3.08,19.26,0l.15-58.2c-5.3,3.08-13.92,3.08-19.26,0Z"/>
          <path class="cls-8" d="M1036.18,904.1l-47.56,27.64c-2.59,1.5-5.97,2.26-9.38,2.3v58.19c3.35-.06,6.67-.81,9.23-2.29l47.56-27.64c2.63-1.53,3.94-3.53,3.95-5.53l.15-58.2c0,2-1.32,4-3.95,5.53Z"/>
          <path class="cls-5" d="M1036.11,892.95l-2.91-1.68c-5.34-3.08-13.96-3.08-19.25,0l-47.56,27.64c-5.3,3.08-5.27,8.07.06,11.16l2.91,1.68c5.34,3.08,13.96,3.08,19.26,0l47.56-27.64c5.29-3.07,5.26-8.07-.08-11.15Z"/>
        </g>
        <path class="cls-6" d="M973.79,922.47v-25.83c0-14.18,10.91-31.59,24.85-39.64,8.21-4.74,16.37-5.47,22.38-2,5.32,3.07,8.24,8.85,8.24,16.28v26.14c0,4.89-11.55,5.07-11.55,0v-26.14c0-1.81-.32-5.04-2.47-6.27-2.27-1.31-6.42-.55-10.83,2-10.34,5.97-19.07,19.54-19.07,29.63v25.83c0,5.13-11.55,5.64-11.55,0Z"/>
        <path class="cls-7" d="M1005.3,857.68c.58.93,2.78-.08,3.55-.23,4.04-.78,8.23-1.41,12.09,2.46,1.96,1.96,3.53.44,2.67-.82-5.73-8.35-20.26-4.54-18.3-1.4Z"/>
        <path class="cls-2" d="M1011.66,960.56c-7.72,4.46-14,1.8-14-5.91s6.28-17.62,14-22.08c7.72-4.46,13.99-1.8,13.99,5.92s-6.28,17.62-13.99,22.08ZM1011.66,932.95c-7.51,4.33-13.61,13.96-13.61,21.47s6.11,10.08,13.61,5.75c7.5-4.33,13.61-13.96,13.61-21.46s-6.11-10.08-13.61-5.75Z"/>
        <path class="cls-3" d="M1010.97,938.07l2.51-1.45c.32-.19.58-.07.58.25v2.08c0,.3-.17.68-.44.98l-.2.23c-.2.23-.31.51-.29.72l.11,1.13c0,.09.04.16.09.21l.6.59c.06.06.09.15.09.26l.02,2.94c0,.15-.05.32-.16.49l-.85,1.39c-.1.17-.16.34-.16.49v6.02c0,.32-.26.73-.58.92l-1.39.8c-.32.19-.58.08-.58-.25v-5.93c0-.13.04-.27.12-.41l.93-1.78c.08-.14.12-.29.12-.42v-2.83c0-.11-.04-.21-.11-.26l-.6-.54c-.06-.05-.09-.13-.1-.23l-.32-4.44c-.02-.32.24-.76.58-.96Z"/>
      </g>
    </g>
  </g>
</svg>