<?xml version="1.0" encoding="UTF-8"?>
<svg id="Layer_1" data-name="Layer 1" xmlns="http://www.w3.org/2000/svg" version="1.1" xmlns:xlink="http://www.w3.org/1999/xlink" viewBox="0 0 240 240">
  <defs>
    <style>
      .cls-1 {
        fill: #3c5ca9;
        filter: url(#outer-glow-1);
        stroke-width: 0px;
      }
    </style>
    <filter id="outer-glow-1">
      <feOffset dx="0" dy="0"/>
      <feGaussianBlur result="blur" stdDeviation="5"/>
      <feFlood flood-color="#00dbff" flood-opacity="1"/>
      <feComposite in2="blur" operator="in"/>
      <feComposite in="SourceGraphic"/>
    </filter>
  </defs>
  <path class="cls-1" d="M87.12,44.69c10.05-4.41,21.18-6.84,32.88-6.84,22.71,0,43.19,9.19,58.09,24.06,14.87,14.91,24.06,35.38,24.06,58.09s-9.19,43.19-24.06,58.09c-14.91,14.87-35.38,24.06-58.09,24.06s-43.19-9.19-58.09-24.06c-14.87-14.91-24.06-35.38-24.06-58.09,0-24.4,10.57-46.21,27.46-61.31,3.47-3.1,3.77-8.41.67-11.88s-8.41-3.77-11.88-.67c-20.29,18.12-33.1,44.53-33.1,73.86,0,54.69,44.31,99,99,99s99-44.31,99-99S174.69,21,120,21c-14.08,0-27.5,2.95-39.64,8.26-4.26,1.87-6.2,6.84-4.33,11.1s6.84,6.2,11.1,4.33h0Z"/>
</svg>