<?xml version="1.0" encoding="UTF-8"?>
<svg id="Layer_1" data-name="Layer 1" xmlns="http://www.w3.org/2000/svg" version="1.1" xmlns:xlink="http://www.w3.org/1999/xlink" viewBox="0 0 128 128">
  <defs>
    <style>
      .cls-1 {
        fill: url(#linear-gradient);
      }

      .cls-1, .cls-2 {
        stroke-width: 0px;
      }

      .cls-2 {
        fill: #fff;
        isolation: isolate;
        opacity: .3;
      }
    </style>
    <linearGradient id="linear-gradient" x1="27.8" y1="101.9" x2="99.5" y2="30.2" gradientTransform="translate(0 130) scale(1 -1)" gradientUnits="userSpaceOnUse">
      <stop offset="0" stop-color="#78ffff"/>
      <stop offset="1" stop-color="#0000a7"/>
    </linearGradient>
  </defs>
  <path class="cls-2" d="M88.5,97.3c-4.6-1-9.2,2-10.2,6.6,0,.6-.2,1.2-.2,1.8h-27c0-2.4-1.2-4.8-3.3-6.3-1-.7-2-1-3.1-1.2v-29.1c.8-.4,1.6-1,2.2-1.9,1.7-2.5,1.1-6-1.5-7.7-2.5-1.7-6-1.1-7.7,1.5-1.7,2.5-1.1,6,1.5,7.7,1,.7,2,1,3.1,1v28.5c-2,.3-3.9,1.4-5.1,3.2-2.4,3.5-1.5,8.2,2,10.6s8.2,1.4,10.5-2c.4-.6.7-1.2.9-1.9h27.7c.9,2.9,3.2,5.3,6.4,6,4.6,1,9.2-2,10.2-6.6s-2-9.2-6.6-10.2c0,0,.2,0,.2,0Z"/>
  <path class="cls-2" d="M38.4,31.4c4.6,1,9.2-2,10.2-6.6,0-.6.2-1.2.2-1.8h27.2c-.6,2.9.5,6.1,3.2,7.9.9.7,2,1,3.1,1.2v27.5c-.8.4-1.6,1-2.2,1.9-1.7,2.5-1.1,6,1.5,7.7,2.5,1.7,6,1.1,7.7-1.5,1.7-2.5,1.1-6-1.5-7.7-.9-.7-2-1-3.1-1v-27c2-.3,3.9-1.4,5.1-3.2,2.4-3.5,1.4-8.2-2-10.5-3.5-2.4-8.2-1.5-10.6,2,0,0,0,.2-.2.3h-28.5c-.9-2.9-3.2-5.3-6.5-6-4.6-1-9.2,2-10.2,6.6s2,9.2,6.6,10.2h0Z"/>
  <path class="cls-2" d="M56.7,14.4c1.7.1,3.1-1.2,3.2-2.8s-1.2-3.1-2.8-3.2-3.1,1.2-3.2,2.8,1.2,3.1,2.8,3.2Z"/>
  <path class="cls-2" d="M70.1,121c1.7,0,3.1-1.2,3.2-2.8s-1.2-3.1-2.8-3.2-3.1,1.2-3.2,2.8,1.2,3.1,2.8,3.2Z"/>
  <path class="cls-1" d="M7.3,61.4c-1.8,0-3.3,1.5-3.3,3.3s1.5,3.3,3.3,3.3,3.3-1.5,3.3-3.3-1.5-3.3-3.3-3.3ZM123,62.1c-1.2-1.1-3.1-1-4.2.2s-1,3.1.2,4.2,3.1,1,4.2-.2,1-3.1-.2-4.2ZM32.3,87.5c-1,4.6-5.6,7.6-10.2,6.6s-7.6-5.6-6.6-10.2c.7-3.2,3.1-5.6,6-6.4v-27.7c-.6-.2-1.3-.5-1.9-.9-3.5-2.4-4.4-7.1-2-10.5,2.4-3.5,7.1-4.4,10.6-2,1.8,1.2,2.9,3.1,3.2,5.1h27.8c0-.8.4-1.6.9-2.3,1.7-2.5,5.2-3.2,7.7-1.5s3.2,5.2,1.5,7.7-5.2,3.2-7.7,1.5c-1.1-.7-1.8-1.8-2.2-3h-28c-.2,1.1-.6,2.1-1.2,3.1-1.5,2.2-3.9,3.3-6.3,3.3v27c.6,0,1.2,0,1.8.2,4.6,1,7.6,5.6,6.6,10.2h0s0-.2,0-.2ZM105.9,34.5c-4.6-1-9.2,2-10.2,6.6s2,9.2,6.6,10.2c.6,0,1.2.2,1.8.2v27.2c-1.6-.3-3.2-.2-4.8.5-2.4,1.1-3.9,3.3-4.3,5.7h-27.5c-.4-.8-1-1.6-1.9-2.2-2.5-1.7-6-1.1-7.7,1.5-1.7,2.5-1.1,6,1.5,7.7,2.5,1.7,6,1.1,7.7-1.5.7-.9,1-2,1-3.1h26.9c0,.7.3,1.3.6,2,1.8,3.8,6.3,5.4,10.1,3.7,3.8-1.8,5.4-6.3,3.7-10.1-.7-1.4-1.7-2.5-2.9-3.2v-28.5c2.9-.9,5.3-3.2,6-6.5,1-4.6-2-9.2-6.6-10.2h0Z"/>
</svg>