<?xml version="1.0" encoding="utf-8"?>
<!-- Generator: Adobe Illustrator 16.0.3, SVG Export Plug-In . SVG Version: 6.00 Build 0)  -->
<!DOCTYPE svg PUBLIC "-//W3C//DTD SVG 1.1//EN" "http://www.w3.org/Graphics/SVG/1.1/DTD/svg11.dtd">
<svg version="1.1" id="Layer_1" xmlns="http://www.w3.org/2000/svg" xmlns:xlink="http://www.w3.org/1999/xlink" x="0px" y="0px"
	 width="600px" height="250px" viewBox="0 0 600 250" enable-background="new 0 0 600 250" xml:space="preserve">
<g>
	<linearGradient id="SVGID_1_" gradientUnits="userSpaceOnUse" x1="169.6592" y1="-15.2686" x2="430.516" y2="245.5883">
		<stop  offset="0" style="stop-color:#00E0A7"/>
		<stop  offset="0.0695" style="stop-color:#00CAA3"/>
		<stop  offset="0.2315" style="stop-color:#009B99"/>
		<stop  offset="0.3936" style="stop-color:#007492"/>
		<stop  offset="0.553" style="stop-color:#00568C"/>
		<stop  offset="0.709" style="stop-color:#004087"/>
		<stop  offset="0.8599" style="stop-color:#003385"/>
		<stop  offset="1" style="stop-color:#002F84"/>
	</linearGradient>
	<path fill="url(#SVGID_1_)" d="M540,104.927V94.39h-50.943v10.538H540z M520.493,155.609V95.697h-11.931v59.913H520.493z
		 M486.009,104.84V94.39h-32.308v10.451H486.009z M484.528,130.529v-10.537h-30.827v10.537H484.528z M456.836,155.609V94.39h-11.844
		v61.22H456.836z M424.877,144.202v-9.928h-32.918v9.928H424.877z M391.264,155.609l19.245-50.247h-4.354l18.983,50.247h12.626
		l-24.557-61.22h-9.666l-24.645,61.22H391.264z M378.635,155.609l-23.687-29.869l-10.885,3.396l20.201,26.473H378.635z
		 M342.669,155.609V94.39h-11.844v61.22H342.669z M354.6,130.008c4.006,0,7.518-0.741,10.536-2.221
		c3.019-1.481,5.357-3.541,7.011-6.184c1.655-2.641,2.481-5.761,2.481-9.361c0-3.483-0.826-6.56-2.481-9.231
		c-1.653-2.669-3.977-4.774-6.967-6.313c-2.989-1.538-6.458-2.309-10.406-2.309h-15.239v9.667h14.194
		c2.903,0,5.152,0.799,6.75,2.395c1.596,1.598,2.394,3.585,2.394,5.965c0,2.612-0.798,4.659-2.394,6.14
		c-1.598,1.48-3.847,2.22-6.75,2.22h-14.194v9.232H354.6z M284.324,155.609V94.39h-11.843v61.22H284.324z M324.558,155.609
		l-29.783-34.92v5.486L323.6,94.39h-14.804l-25.864,29.26l26.56,31.959H324.558z M265.775,155.609l-23.686-29.869l-10.885,3.396
		l20.202,26.473H265.775z M229.811,155.609V94.39h-11.843v61.22H229.811z M241.741,130.008c4.006,0,7.518-0.741,10.537-2.221
		c3.018-1.481,5.355-3.541,7.01-6.184c1.654-2.641,2.482-5.761,2.482-9.361c0-3.483-0.828-6.56-2.482-9.231
		c-1.655-2.669-3.978-4.774-6.967-6.313c-2.99-1.538-6.458-2.309-10.406-2.309h-15.24v9.667h14.195c2.902,0,5.151,0.799,6.749,2.395
		c1.597,1.598,2.396,3.585,2.396,5.965c0,2.612-0.798,4.659-2.396,6.14s-3.846,2.22-6.749,2.22h-14.195v9.232H241.741z
		 M168.896,144.027c-2.409-0.986-4.471-2.379-6.183-4.18c-1.713-1.8-3.048-3.976-4.006-6.531c-0.958-2.554-1.437-5.37-1.437-8.447
		c0-4.063,0.827-7.633,2.481-10.711c1.654-3.077,3.947-5.472,6.879-7.185c2.931-1.712,6.313-2.569,10.146-2.569
		c2.961,0,5.63,0.494,8.012,1.48c2.379,0.989,4.441,2.396,6.183,4.224c1.742,1.829,3.077,3.992,4.005,6.488
		c0.929,2.497,1.394,5.254,1.394,8.272c0,4.123-0.827,7.722-2.482,10.798c-1.654,3.079-3.933,5.487-6.835,7.229
		c-2.904,1.741-6.328,2.611-10.275,2.611C173.933,145.507,171.305,145.016,168.896,144.027z M189.361,154.13
		c3.803-1.625,7.141-3.876,10.015-6.75c2.874-2.873,5.123-6.226,6.749-10.059c1.625-3.83,2.438-7.952,2.438-12.365
		c0-4.411-0.813-8.534-2.438-12.366c-1.626-3.832-3.875-7.185-6.749-10.058c-2.874-2.875-6.226-5.108-10.058-6.706
		c-3.832-1.596-8.012-2.395-12.54-2.395c-4.471,0-8.622,0.799-12.453,2.395c-3.832,1.598-7.185,3.831-10.058,6.706
		c-2.874,2.874-5.109,6.212-6.705,10.015c-1.598,3.803-2.396,7.911-2.396,12.322c0,4.413,0.813,8.549,2.439,12.41
		c1.625,3.861,3.875,7.228,6.749,10.101c2.874,2.874,6.24,5.125,10.102,6.75c3.861,1.623,8.025,2.438,12.497,2.438
		C181.421,156.568,185.558,155.753,189.361,154.13z M88.738,155.609l14.456-47.024h-3.832l14.542,47.024h8.795l19.942-61.22h-11.669
		l-14.804,47.112h4.006L105.718,94.39h-8.795l-14.456,47.112h3.919L71.669,94.39H60l19.855,61.22H88.738z"/>
</g>
</svg>
