<?xml version="1.0" encoding="utf-8"?>
<!-- Generator: Adobe Illustrator 27.8.1, SVG Export Plug-In . SVG Version: 6.00 Build 0)  -->
<svg version="1.1" id="Layer_1" xmlns="http://www.w3.org/2000/svg" xmlns:xlink="http://www.w3.org/1999/xlink" x="0px" y="0px"
	 viewBox="0 0 100 100" style="enable-background:new 0 0 100 100;" xml:space="preserve">
<style type="text/css">
	.st0{enable-background:new    ;}
	.st1{fill:#FFFFFF;}
</style>
<g>
	<g class="st0">
		<g>
			<path class="st1" d="M79.68,44.33c0,0,2.23-7.69,3.24-14.44c0.68-4.45-0.2-7.69-4.12-10.79c-3.91-3.1-11.94-1.49-16.06,0.81
				c-4.11,2.29-33.93,17.27-33.93,17.27s23.27-19.7,31.71-24.42c8.5-4.72,16.6-3.98,22.53,0.07c5.94,4.12,8.23,12.21,6.34,21.18
				c-1.89,8.97-3.98,16.73-3.98,16.73l-5.67-6.48L79.68,44.33z"/>
		</g>
	</g>
	<g class="st0">
		<g>
			<path class="st1" d="M44.74,20.45c0,0-7.69-2.23-14.44-3.24c-4.45-0.67-7.69,0.2-10.79,4.11s-1.48,11.94,0.81,16.06
				c2.29,4.12,17.27,33.93,17.27,33.93s-19.7-23.27-24.42-31.71c-4.72-8.43-3.98-16.6,0.07-22.53c4.18-6,12.28-8.23,21.25-6.34
				c8.97,1.89,16.73,3.98,16.73,3.98L44.74,20.45z"/>
		</g>
	</g>
	<g class="st0">
		<g>
			<path class="st1" d="M20.32,55.67c0,0-2.23,7.69-3.24,14.44c-0.67,4.45,0.2,7.69,4.12,10.79c3.91,3.1,11.94,1.49,16.06-0.81
				c4.11-2.29,33.93-17.27,33.93-17.27s-23.27,19.7-31.71,24.42c-8.43,4.72-16.6,3.98-22.53-0.07c-6-4.12-8.16-12.21-6.34-21.18
				c1.82-8.97,3.98-16.73,3.98-16.73l5.67,6.48L20.32,55.67z"/>
		</g>
	</g>
	<g class="st0">
		<g>
			<path class="st1" d="M55.26,79.55c0,0,7.69,2.23,14.44,3.24c4.45,0.67,7.69-0.2,10.79-4.12s1.48-11.94-0.81-16.06
				c-2.29-4.12-17.27-33.93-17.27-33.93s19.7,23.27,24.42,31.71c4.72,8.5,3.98,16.6-0.07,22.53c-4.12,5.94-12.21,8.23-21.18,6.34
				c-8.97-1.89-16.73-3.98-16.73-3.98l6.48-5.67L55.26,79.55z"/>
		</g>
	</g>
</g>
<g>
	<defs>
		<path id="SVGID_1_" d="M44.2,50c0,3.24,2.56,5.8,5.8,5.8c3.24,0,5.8-2.63,5.8-5.8c0-3.24-2.56-5.8-5.8-5.8
			C46.76,44.2,44.2,46.76,44.2,50"/>
	</defs>
	
		<linearGradient id="SVGID_00000046339531630937615980000002734804854849811887_" gradientUnits="userSpaceOnUse" x1="47.0914" y1="44.9624" x2="52.902" y2="55.0267">
		<stop  offset="0" style="stop-color:#78FFFF"/>
		<stop  offset="1" style="stop-color:#0000A7"/>
	</linearGradient>
	<use xlink:href="#SVGID_1_"  style="overflow:visible;fill:url(#SVGID_00000046339531630937615980000002734804854849811887_);"/>
	<clipPath id="SVGID_00000179633962186141939640000014324445258766985120_">
		<use xlink:href="#SVGID_1_"  style="overflow:visible;"/>
	</clipPath>
</g>
</svg>
