<?xml version="1.0" encoding="UTF-8"?>
<svg id="Layer_1" data-name="Layer 1" xmlns="http://www.w3.org/2000/svg" version="1.1" xmlns:xlink="http://www.w3.org/1999/xlink" viewBox="0 0 128 128">
  <defs>
    <style>
      .cls-1 {
        fill: url(#linear-gradient);
      }

      .cls-1, .cls-2 {
        stroke-width: 0px;
      }

      .cls-2 {
        fill: #fff;
      }
    </style>
    <linearGradient id="linear-gradient" x1="48.4" y1="109.4" x2="90" y2="37.4" gradientTransform="translate(0 130) scale(1 -1)" gradientUnits="userSpaceOnUse">
      <stop offset="0" stop-color="#78ffff"/>
      <stop offset="1" stop-color="#0000a7"/>
    </linearGradient>
  </defs>
  <g>
    <g>
      <path class="cls-2" d="M18.2,32.1c0-1.2.7-2.2,1.6-2.7.8-.4,1.4-1.2,1.4-2.1v-6c0-1.6-1.5-2.8-3-2.5-6.1,1.4-10.6,6.8-10.6,13.2v26.5c0,1-.6,1.7-1.3,2.2-1.5,1-2.5,2.7-2.5,4.5v3.3c0,1.8,1,3.3,2.5,4.2.7.4,1.2,1.2,1.2,2.4v26.5c0,6.5,4.5,11.9,10.6,13.2,1.5.3,3-.9,3-2.4v-6c0-.9-.6-1.7-1.4-2.1-1-.5-1.6-1.5-1.6-2.7v-26.5c0-3.1-1.1-6-2.9-8.3,1.8-2.3,2.9-5.2,2.9-8.3v-26.5h.1Z"/>
      <path class="cls-2" d="M19.9,104.5c-1-.5-1.6-1.5-1.6-2.7v-26.5c0-3.1-1-5.9-2.8-8.2H4v1.5c0,1.8,1,3.3,2.5,4.2.7.4,1.2,1.2,1.2,2.4v26.5c0,6.5,4.5,11.9,10.6,13.2,1.5.3,3-.9,3-2.4v-6c0-.9-.6-1.7-1.4-2.1h0Z"/>
    </g>
    <g>
      <path class="cls-2" d="M109.8,32.1c0-1.2-.7-2.2-1.7-2.7-.8-.4-1.4-1.2-1.4-2.1v-6c0-1.6,1.4-2.8,3-2.5,6.1,1.4,10.6,6.8,10.6,13.2v26.5c0,1,.6,1.7,1.3,2.2,1.5,1,2.5,2.7,2.5,4.5v3.3c0,1.8-1,3.3-2.5,4.2-.7.4-1.2,1.2-1.2,2.4v26.5c0,6.5-4.5,11.9-10.6,13.2-1.5.3-3-.9-3-2.4v-6c0-.9.6-1.7,1.4-2.1s1.7-1.5,1.7-2.7v-26.5c0-3.1,1.1-6,2.9-8.3-1.8-2.3-2.9-5.2-2.9-8.3v-26.5h-.1Z"/>
      <path class="cls-2" d="M108.1,104.5c1-.5,1.7-1.5,1.7-2.7v-26.5c0-3.1,1-5.9,2.8-8.2h11.5v1.5c0,1.8-1,3.3-2.5,4.2-.7.4-1.2,1.2-1.2,2.4v26.5c0,6.5-4.5,11.9-10.6,13.2-1.5.3-3-.9-3-2.4v-6c0-.9.6-1.7,1.4-2.1h-.1Z"/>
    </g>
  </g>
  <path class="cls-1" d="M63.1,55.8v23.3c0,1.6-1.3,2.8-2.8,2.8h-23.3c-1.6,0-2.8-1.3-2.8-2.8v-23.3c0-1.6,1.3-2.8,2.8-2.8h23.3c1.6,0,2.8,1.3,2.8,2.8ZM79.2,86.9h-9.6c-.7,0-1.2.5-1.2,1.2v9.6c0,.7.5,1.2,1.2,1.2h9.6c.7,0,1.2-.5,1.2-1.2v-9.6c0-.7-.5-1.2-1.2-1.2h0ZM90.5,12.9h-27.8c-1.9,0-3.4,1.5-3.4,3.4v27.8c0,1.9,1.5,3.4,3.4,3.4h27.8c1.9,0,3.4-1.5,3.4-3.4v-27.8c0-1.9-1.5-3.4-3.4-3.4Z"/>
</svg>