<?xml version="1.0" encoding="UTF-8"?>
<svg id="Layer_1" data-name="Layer 1" xmlns="http://www.w3.org/2000/svg" version="1.1" xmlns:xlink="http://www.w3.org/1999/xlink" viewBox="0 0 600 250">
  <defs>
    <style>
      .cls-1 {
        fill: url(#linear-gradient);
      }

      .cls-1, .cls-2 {
        stroke-width: 0px;
      }

      .cls-2 {
        fill: url(#linear-gradient-2);
      }
    </style>
    <linearGradient id="linear-gradient" x1="261.1" y1="190.7" x2="333.4" y2="65.5" gradientTransform="translate(0 252) scale(1 -1)" gradientUnits="userSpaceOnUse">
      <stop offset="0" stop-color="#00e1ff"/>
      <stop offset=".1" stop-color="#00dbfa"/>
      <stop offset=".3" stop-color="#00cced"/>
      <stop offset=".5" stop-color="#00b2d9"/>
      <stop offset=".7" stop-color="#008fbb"/>
      <stop offset=".9" stop-color="#006196"/>
      <stop offset="1" stop-color="#003c78"/>
    </linearGradient>
    <linearGradient id="linear-gradient-2" x1="184.9" y1="-74.3" x2="415.1" y2="324.3" gradientUnits="userSpaceOnUse">
      <stop offset="0" stop-color="#00e0a7"/>
      <stop offset="0" stop-color="#00caa3"/>
      <stop offset=".2" stop-color="#009b99"/>
      <stop offset=".4" stop-color="#007492"/>
      <stop offset=".6" stop-color="#00568c"/>
      <stop offset=".7" stop-color="#004087"/>
      <stop offset=".9" stop-color="#003385"/>
      <stop offset="1" stop-color="#002f84"/>
    </linearGradient>
  </defs>
  <path class="cls-1" d="M393.4,151.6c4.1-3.3,6.2-7.9,6.2-13.7s-.5-5.8-1.6-8c-1-2.2-2.4-3.9-4.1-5.3-1.7-1.4-3.6-2.6-5.6-3.5-2-.9-4-1.7-6.1-2.4-2-.7-3.9-1.4-5.6-2.1-1.7-.7-3.1-1.5-4.1-2.5-1-1-1.6-2.2-1.6-3.8s.7-2.9,2.1-3.8c1.4-.9,3.2-1.3,5.6-1.3s4.5.5,6.3,1.4c1.9.9,3.7,2.3,5.6,4.2l8.8-8.7c-2.3-2.6-5.2-4.6-8.8-6.1-3.5-1.5-7.4-2.2-11.7-2.2s-7.9.7-11.1,2.1c-3.2,1.4-5.7,3.5-7.5,6.2-1.8,2.7-2.7,5.9-2.7,9.7s.5,5.7,1.6,7.7c1,2,2.4,3.7,4.1,5.1,1.7,1.4,3.6,2.5,5.6,3.4,2,.9,4,1.7,6.1,2.4,2,.7,3.9,1.4,5.6,2.2,1.7.7,3.1,1.6,4.1,2.7,1,1,1.6,2.4,1.6,4.1s-.8,3.3-2.4,4.3c-1.6,1-3.8,1.6-6.7,1.6s-5.9-.6-8.3-1.9c-2.4-1.2-4.6-3-6.5-5.2l-8.8,8.7c3,3.3,6.3,5.8,9.9,7.5,3.6,1.6,7.9,2.5,12.9,2.5,7.3,0,13-1.7,17.2-5ZM298.6,155.6v-38l-2.3.6,15.5,24.3h9l15.6-24.3-2.4-.6v38h13.5v-60.9h-9.7l-23.9,37.3h4.9l-24-37.3h-9.7v60.9h13.5ZM262.3,153.4c3.8-2.1,6.8-5.1,8.9-8.8,2.1-3.7,3.2-8,3.2-12.9v-37h-13.6v37.8c0,2.4-.5,4.5-1.5,6.3-1,1.8-2.4,3.1-4.1,4.1-1.7.9-3.7,1.4-6,1.4s-4.2-.5-6-1.4c-1.8-.9-3.2-2.3-4.3-4.1-1-1.8-1.6-3.9-1.6-6.3v-37.7h-13.6v36.9c0,4.8,1.1,9.1,3.2,12.9,2.2,3.8,5.1,6.7,9,8.8,3.8,2.1,8.2,3.2,13.2,3.2,5,0,9.4-1.1,13.2-3.2ZM212.6,105.8c1.3-1.4,2-3.1,2-5.1s-.7-3.8-2-5.2c-1.3-1.4-3-2.1-5.1-2.1s-3.8.7-5.1,2.1c-1.4,1.4-2,3.1-2,5.2s.7,3.7,2,5.1c1.4,1.4,3.1,2.1,5.1,2.1s3.8-.7,5.1-2.1ZM214.1,155.6v-41.9h-13.2v41.9h13.2Z"/>
  <path class="cls-2" d="M546,11c9.9,0,18,8.1,18,18v192c0,9.9-8.1,18-18,18H54c-9.9,0-18-8.1-18-18V29c0-9.9,8.1-18,18-18h492M546,5H54c-13.3,0-24,10.7-24,24v192c0,13.3,10.7,24,24,24h492c13.3,0,24-10.7,24-24V29c0-13.3-10.7-24-24-24h0Z"/>
</svg>