<?xml version="1.0" encoding="UTF-8"?>
<svg id="Layer_1" data-name="Layer 1" xmlns="http://www.w3.org/2000/svg" version="1.1" xmlns:xlink="http://www.w3.org/1999/xlink" viewBox="0 0 600 250">
  <defs>
    <style>
      .cls-1 {
        fill: url(#linear-gradient);
      }

      .cls-1, .cls-2 {
        stroke-width: 0px;
      }

      .cls-2 {
        fill: url(#linear-gradient-2);
      }
    </style>
    <linearGradient id="linear-gradient" x1="169.7" y1="267.3" x2="430.5" y2="6.4" gradientTransform="translate(0 252) scale(1 -1)" gradientUnits="userSpaceOnUse">
      <stop offset="0" stop-color="#00e1ff"/>
      <stop offset=".1" stop-color="#00dbfa"/>
      <stop offset=".3" stop-color="#00cced"/>
      <stop offset=".5" stop-color="#00b2d9"/>
      <stop offset=".7" stop-color="#008fbb"/>
      <stop offset=".9" stop-color="#006196"/>
      <stop offset="1" stop-color="#003c78"/>
    </linearGradient>
    <linearGradient id="linear-gradient-2" x1="184.9" y1="-74.3" x2="415.1" y2="324.3" gradientUnits="userSpaceOnUse">
      <stop offset="0" stop-color="#00e0a7"/>
      <stop offset="0" stop-color="#00caa3"/>
      <stop offset=".2" stop-color="#009b99"/>
      <stop offset=".4" stop-color="#007492"/>
      <stop offset=".6" stop-color="#00568c"/>
      <stop offset=".7" stop-color="#004087"/>
      <stop offset=".9" stop-color="#003385"/>
      <stop offset="1" stop-color="#002f84"/>
    </linearGradient>
  </defs>
  <path class="cls-1" d="M540,104.9v-10.5h-50.9v10.5h50.9ZM520.5,155.6v-59.9h-11.9v59.9h11.9ZM486,104.8v-10.4h-32.3v10.5h32.3ZM484.5,130.5v-10.5h-30.8v10.5h30.8ZM456.8,155.6v-61.2h-11.8v61.2h11.8ZM424.9,144.2v-9.9h-32.9v9.9h32.9ZM391.3,155.6l19.2-50.2h-4.4l19,50.2h12.6l-24.6-61.2h-9.7l-24.6,61.2h12.4ZM378.6,155.6l-23.7-29.9-10.9,3.4,20.2,26.5h14.4ZM342.7,155.6v-61.2h-11.8v61.2h11.8ZM354.6,130c4,0,7.5-.7,10.5-2.2,3-1.5,5.4-3.5,7-6.2,1.7-2.6,2.5-5.8,2.5-9.4s-.8-6.6-2.5-9.2c-1.7-2.7-4-4.8-7-6.3-3-1.5-6.5-2.3-10.4-2.3h-15.2v9.7h14.2c2.9,0,5.2.8,6.8,2.4,1.6,1.6,2.4,3.6,2.4,6s-.8,4.7-2.4,6.1c-1.6,1.5-3.8,2.2-6.8,2.2h-14.2v9.2h15.1ZM284.3,155.6v-61.2h-11.8v61.2h11.8ZM324.6,155.6l-29.8-34.9v5.5l28.8-31.8h-14.8l-25.9,29.3,26.6,32h15.1ZM265.8,155.6l-23.7-29.9-10.9,3.4,20.2,26.5h14.4ZM229.8,155.6v-61.2h-11.8v61.2h11.8ZM241.7,130c4,0,7.5-.7,10.5-2.2,3-1.5,5.4-3.5,7-6.2,1.7-2.6,2.5-5.8,2.5-9.4s-.8-6.6-2.5-9.2c-1.7-2.7-4-4.8-7-6.3-3-1.5-6.5-2.3-10.4-2.3h-15.2v9.7h14.2c2.9,0,5.2.8,6.7,2.4,1.6,1.6,2.4,3.6,2.4,6s-.8,4.7-2.4,6.1-3.8,2.2-6.7,2.2h-14.2v9.2h15.1ZM168.9,144c-2.4-1-4.5-2.4-6.2-4.2-1.7-1.8-3-4-4-6.5-1-2.6-1.4-5.4-1.4-8.4s.8-7.6,2.5-10.7c1.7-3.1,3.9-5.5,6.9-7.2,2.9-1.7,6.3-2.6,10.1-2.6s5.6.5,8,1.5c2.4,1,4.4,2.4,6.2,4.2,1.7,1.8,3.1,4,4,6.5.9,2.5,1.4,5.3,1.4,8.3s-.8,7.7-2.5,10.8c-1.7,3.1-3.9,5.5-6.8,7.2-2.9,1.7-6.3,2.6-10.3,2.6-2.8,0-5.5-.5-7.9-1.5ZM189.4,154.1c3.8-1.6,7.1-3.9,10-6.8,2.9-2.9,5.1-6.2,6.7-10.1,1.6-3.8,2.4-8,2.4-12.4s-.8-8.5-2.4-12.4c-1.6-3.8-3.9-7.2-6.7-10.1-2.9-2.9-6.2-5.1-10.1-6.7-3.8-1.6-8-2.4-12.5-2.4s-8.6.8-12.5,2.4c-3.8,1.6-7.2,3.8-10.1,6.7-2.9,2.9-5.1,6.2-6.7,10-1.6,3.8-2.4,7.9-2.4,12.3s.8,8.5,2.4,12.4c1.6,3.9,3.9,7.2,6.7,10.1,2.9,2.9,6.2,5.1,10.1,6.8,3.9,1.6,8,2.4,12.5,2.4,4.5,0,8.6-.8,12.4-2.4ZM88.7,155.6l14.5-47h-3.8l14.5,47h8.8l19.9-61.2h-11.7l-14.8,47.1h4l-14.5-47.1h-8.8l-14.5,47.1h3.9l-14.7-47.1h-11.7l19.9,61.2h8.9Z"/>
  <path class="cls-2" d="M546,11c9.9,0,18,8.1,18,18v192c0,9.9-8.1,18-18,18H54c-9.9,0-18-8.1-18-18V29c0-9.9,8.1-18,18-18h492M546,5H54c-13.3,0-24,10.7-24,24v192c0,13.3,10.7,24,24,24h492c13.3,0,24-10.7,24-24V29c0-13.3-10.7-24-24-24h0Z"/>
</svg>