<?xml version="1.0" encoding="utf-8"?>
<!-- Generator: Adobe Illustrator 27.8.1, SVG Export Plug-In . SVG Version: 6.00 Build 0)  -->
<svg version="1.1" id="Layer_1" xmlns="http://www.w3.org/2000/svg" xmlns:xlink="http://www.w3.org/1999/xlink" x="0px" y="0px"
	 viewBox="0 0 100 100" style="enable-background:new 0 0 100 100;" xml:space="preserve">
<style type="text/css">
	.st0{fill:url(#SVGID_1_);}
	.st1{fill:#FFFFFF;}
</style>
<linearGradient id="SVGID_1_" gradientUnits="userSpaceOnUse" x1="-252.7228" y1="81.1408" x2="-218.9846" y2="81.1408">
	<stop  offset="0" style="stop-color:#78FFFF"/>
	<stop  offset="1" style="stop-color:#0000A7"/>
</linearGradient>
<circle class="st0" cx="-235.85" cy="81.14" r="16.87"/>
<g>
	<defs>
		<path id="SVGID_00000150819620698996493260000018310768068530942337_" d="M54.41,74.61c-0.56,0-0.95,0.4-0.95,0.95v7.62
			c0,0.56,0.4,0.95,0.95,0.95h7.62c0.56,0,0.95-0.4,0.95-0.95v-7.62c0-0.56-0.4-0.95-0.95-0.95H54.41z M28.53,47.7
			c-1.19,0-2.22,0.95-2.22,2.22v18.5c0,1.19,0.95,2.22,2.22,2.22h18.49c1.19,0,2.22-0.95,2.22-2.22v-18.5
			c0-1.19-0.95-2.22-2.22-2.22H28.53z M48.93,15.87c-1.51,0-2.7,1.19-2.7,2.7v22.06c0,1.51,1.19,2.7,2.7,2.7h22.07
			c1.51,0,2.7-1.19,2.7-2.7V18.57c0-1.51-1.19-2.7-2.7-2.7H48.93z"/>
	</defs>
	
		<linearGradient id="SVGID_00000096751981942073349910000009261460703980113340_" gradientUnits="userSpaceOnUse" x1="37.6173" y1="21.973" x2="70.7048" y2="79.2823">
		<stop  offset="0" style="stop-color:#78FFFF"/>
		<stop  offset="1" style="stop-color:#0000A7"/>
	</linearGradient>
	
		<use xlink:href="#SVGID_00000150819620698996493260000018310768068530942337_"  style="overflow:visible;fill:url(#SVGID_00000096751981942073349910000009261460703980113340_);"/>
	<clipPath id="SVGID_00000000197190511420600310000006165126529614855591_">
		<use xlink:href="#SVGID_00000150819620698996493260000018310768068530942337_"  style="overflow:visible;"/>
	</clipPath>
</g>
<g>
	<path class="st1" d="M12.74,22.46c0-0.95,0.56-1.75,1.27-2.14c0.64-0.32,1.11-0.95,1.11-1.67v-4.76c0-1.27-1.19-2.22-2.38-1.98
		c-4.84,1.11-8.41,5.4-8.41,10.48v21.03c0,0.79-0.48,1.35-1.03,1.75c-1.19,0.79-1.98,2.14-1.98,3.57v2.62
		c0,1.43,0.79,2.62,1.98,3.33c0.56,0.32,0.95,0.95,0.95,1.9v21.03c0,5.16,3.57,9.45,8.41,10.48c1.19,0.24,2.38-0.71,2.38-1.9v-4.76
		c0-0.71-0.48-1.35-1.11-1.67c-0.79-0.4-1.27-1.19-1.27-2.14V56.59c0-2.46-0.87-4.76-2.3-6.59c1.43-1.83,2.3-4.13,2.3-6.59V22.38
		h0.08V22.46z"/>
	<path class="st1" d="M87.34,22.46c0-0.95-0.56-1.75-1.35-2.14c-0.63-0.32-1.11-0.95-1.11-1.67v-4.76c0-1.27,1.11-2.22,2.38-1.98
		c4.84,1.11,8.41,5.4,8.41,10.48v21.03c0,0.79,0.48,1.35,1.03,1.75c1.19,0.79,1.98,2.14,1.98,3.57v2.62c0,1.43-0.79,2.62-1.98,3.33
		c-0.56,0.32-0.95,0.95-0.95,1.9v21.03c0,5.16-3.57,9.45-8.41,10.48c-1.19,0.24-2.38-0.71-2.38-1.9v-4.76
		c0-0.71,0.48-1.35,1.11-1.67c0.64-0.32,1.35-1.19,1.35-2.14V56.59c0-2.46,0.87-4.76,2.3-6.59c-1.43-1.83-2.3-4.13-2.3-6.59V22.38
		h-0.08V22.46z"/>
</g>
</svg>
