<?xml version="1.0" encoding="utf-8"?>
<!-- Generator: Adobe Illustrator 27.8.1, SVG Export Plug-In . SVG Version: 6.00 Build 0)  -->
<svg version="1.1" id="Layer_1" xmlns="http://www.w3.org/2000/svg" xmlns:xlink="http://www.w3.org/1999/xlink" x="0px" y="0px"
	 viewBox="0 0 1000 300" style="enable-background:new 0 0 1000 300;" xml:space="preserve">
<style type="text/css">
	.st0{opacity:0.33;enable-background:new    ;}
	.st1{fill:#FFFFFF;}
	.st2{fill:url(#SVGID_1_);}
	.st3{fill:url(#SVGID_00000100384943180285361450000002451795850033055621_);}
</style>
<g>
	<path class="st0" d="M432.8,292.7H29.1c-10.6,0-19.1-8.6-19.1-19.1v-98.3c0-10.6,8.6-19.1,19.1-19.1h403.7
		c10.6,0,19.1,8.6,19.1,19.1v98.3C452,284.2,443.4,292.7,432.8,292.7z"/>
	<g>
		<path class="st1" d="M978.3,176c-7.8-7.8-17.2-11.7-28.1-11.7h-59.8l19.9,20.1h40c5.4,0,10,1.9,13.9,5.8c4,3.9,6,8.7,6,14.1
			c0,5.5-2.1,10.2-6,14.1c-3.9,3.9-8.5,5.8-13.9,5.8h-40h-19.9V284h19.9v-39.8h40c10.9,0,20.3-3.9,28.1-11.7
			c7.9-7.8,11.7-17.4,11.7-28.3C990,193.3,986.1,183.9,978.3,176z"/>
		<polygon class="st1" points="726.6,192.1 786.6,252.4 826.7,212.5 826.7,284 846.5,284 846.5,164.3 786.6,224.2 726.6,164.3 		"/>
		<path class="st1" d="M673,234.2c0,8.1-3.1,15.1-9,20.9c-5.8,5.8-12.9,8.8-21.1,8.8s-15.4-2.8-21.2-8.8c-5.7-5.7-8.5-12.7-8.5-20.9
			v-69.9h-19.9v69.9c0,13.6,4.8,25.6,14.5,35.3s21.5,14.5,35.2,14.5s25.6-4.8,35.3-14.5c9.9-9.7,14.7-21.6,14.7-35.3H673z"/>
		<polygon class="st1" points="537.5,267.1 537.5,267.1 543,272.5 		"/>
		<path class="st1" d="M500.8,258.1l-14.4,14.4c7.8,7.6,17.2,11.5,28.3,11.5v-20C509.4,264,504.7,262,500.8,258.1z"/>
		<path class="st1" d="M543,272.5L543,272.5c7.8-7.9,11.8-17.4,11.8-28.3v-79.9h-20.2v79.9c0,5.5-1.9,10.2-6,14.1l8.8,8.8L543,272.5
			z"/>
	</g>
	<g>
		<g>
			<rect x="75.3" y="7.3" class="st1" width="20.9" height="81.8"/>
			<polygon class="st1" points="757.9,7.3 757.9,28.2 757.9,28.2 820.8,28.2 820.4,7.3 			"/>
			<path class="st1" d="M383.5,127.3c7.5,3.3,15.6,5,24.2,5s16.7-1.6,24.2-4.8l-24.2-16.1c-5.8,0-11.1-1.1-16.2-3.1
				c-5-2.2-9.4-5.2-13.1-9.1c-3.9-3.8-6.9-8.1-9.1-13.1c-2.2-5.2-3.3-10.5-3.3-16.2s1.1-11.1,3.3-16.2c2.2-5,5.2-9.4,8.9-13.1
				c3.8-3.9,8.1-6.9,13.3-9.1c5-2,10.5-3.1,16.2-3.1c11.2,0,21.1,3.9,29.4,12L452,25.7c-5.8-5.8-12.5-10.3-20-13.6
				c-7.5-3.3-15.6-4.8-24.2-4.8s-16.7,1.7-24.2,5c-7.7,3.3-14.2,7.7-20,13.4c-5.6,5.6-10.2,12.2-13.4,19.7c-3.3,7.7-5,15.8-5,24.4
				c0,8.4,1.7,16.4,5,24.1s7.8,14.2,13.4,20C369.3,119.5,375.9,124,383.5,127.3z"/>
			<path class="st1" d="M256.8,28.2c11.4,0,21.3,4.1,29.4,12.2c8.1,8.1,12.2,18,12.2,29.4s-3.9,21.3-12.2,29.5
				c-8.1,8.1-18,12-29.4,12s-21.4-3.9-29.5-12c-8.1-8.1-12-18.1-12-29.5s3.9-21.3,12-29.4C235.5,32.1,245.3,28.2,256.8,28.2z
				 M256.8,7.3c-17.4,0-32,6.3-44.1,18.4c-12.2,12.2-18.4,26.9-18.4,44.1c0,17.3,6.2,31.9,18.4,44.1s26.7,18.4,44.1,18.4
				s31.9-6.2,44.1-18.4c12.4-12,18.6-26.7,18.6-44.1c0-17.2-6.2-31.9-18.6-44.1C288.6,13.5,274.1,7.3,256.8,7.3z"/>
			<g>
				
					<image style="overflow:visible;opacity:0.25;" width="157" height="186" xlink:href="E07284C9.png"  transform="matrix(1 0 0 1 45 -23)">
				</image>
				<g>
					<g>
						<g>
							<path class="st1" d="M164.4,72.4c5-7,7.4-14.8,7.4-23.6c0-11.4-4.1-21.1-12.2-29.4c-8.1-8.1-18-12.2-29.4-12.2H75.3
								l10.8,18.6l2.3,2.3h41.7c5.6,0,10.5,2,14.5,6.1c4.2,4.1,6.2,8.9,6.2,14.5c0,5.8-2,10.8-6.2,14.8c-4.1,4.1-8.9,6.1-14.5,6.1
								l-18.6-0.2l36.3,62.7h23.9l-25.6-44.9C153.4,84.5,159.5,79.5,164.4,72.4z"/>
						</g>
					</g>
				</g>
			</g>
			<rect x="757.9" y="59.5" class="st1" width="20.9" height="72.8"/>
		</g>
	</g>
	<path class="st1" d="M269.2,195.2h-2.4v18.1h2.4v-10.1c0-2.1,0.5-3.6,1.6-4.6s2.5-1.4,4.1-1.4v-2.3c-2.7,0-4.6,1.1-5.7,3.3V195.2z
		 M259.4,204.7c0,2.3-0.5,4-1.6,5.1s-2.5,1.6-4.2,1.6c-1.6,0-2.8-0.4-3.6-1.3s-1.3-2.1-1.3-3.8v-11.1h-2.4v11.1
		c0,2.3,0.6,4.1,1.9,5.4c1.3,1.3,3,2,5.2,2c2.7,0,4.7-1.1,6.1-3.3v2.8h2.4v-18.1h-2.4V204.7z M225.9,204.3c0-2,0.7-3.7,2.1-5.1
		s3.1-2.1,5.1-2.1s3.7,0.7,5.1,2.1s2.1,3.1,2.1,5.1c0,2-0.7,3.7-2.1,5.1s-3.1,2.1-5.1,2.1s-3.7-0.7-5.1-2.1
		C226.6,208,225.9,206.3,225.9,204.3z M242.6,204.3c0-2.7-0.9-4.9-2.8-6.8s-4.1-2.7-6.8-2.7s-4.9,0.9-6.8,2.7s-2.8,4.1-2.8,6.8
		c0,2.7,0.9,4.9,2.8,6.8s4.1,2.7,6.8,2.7s4.9-0.9,6.8-2.7C241.7,209.2,242.6,207,242.6,204.3z M214,210.3l-6.8-15.1h-2.5l8.1,18.2
		l-0.5,1.2c-1.1,2.8-2.8,4-5,3.8v2.2c1.6,0.1,3-0.3,4.3-1.4c1.3-1,2.3-2.4,3-4.2l7.8-19.8h-2.5L214,210.3z M177.1,204.3
		c0-2,0.7-3.7,2.1-5.1s3.1-2.1,5.1-2.1s3.7,0.7,5.1,2.1s2.1,3.1,2.1,5.1c0,2-0.7,3.7-2.1,5.1s-3.1,2.1-5.1,2.1s-3.7-0.7-5.1-2.1
		C177.8,208,177.1,206.3,177.1,204.3z M177.1,198.8v-3.6h-2.4v25.4h2.4v-10.8c1.7,2.7,4.1,4,7.3,4c2.6,0,4.8-0.9,6.6-2.8
		c1.8-1.8,2.7-4.1,2.7-6.8s-0.9-4.9-2.7-6.8s-4-2.8-6.6-2.8C181.2,194.8,178.8,196.1,177.1,198.8z M167.2,204.7c0,2.3-0.5,4-1.6,5.1
		c-1.1,1.1-2.5,1.6-4.2,1.6c-1.6,0-2.8-0.4-3.6-1.3s-1.3-2.1-1.3-3.8v-11.1H154v11.1c0,2.3,0.6,4.1,1.9,5.4c1.3,1.3,3,2,5.2,2
		c2.7,0,4.7-1.1,6.1-3.3v2.8h2.4v-18.1h-2.4V204.7z M124.7,204.3c0-2,0.7-3.7,2.1-5.1c1.4-1.4,3.1-2.1,5.1-2.1s3.7,0.7,5.1,2.1
		s2.1,3.1,2.1,5.1c0,2-0.7,3.7-2.1,5.1s-3.1,2.1-5.1,2.1s-3.7-0.7-5.1-2.1C125.4,208,124.7,206.3,124.7,204.3z M124.7,198.8v-3.6
		h-2.4v25.4h2.4v-10.8c1.7,2.7,4.1,4,7.3,4c2.6,0,4.8-0.9,6.6-2.8c1.8-1.8,2.7-4.1,2.7-6.8s-0.9-4.9-2.7-6.8s-4-2.8-6.6-2.8
		C128.8,194.8,126.3,196.1,124.7,198.8z M105,198.1c-1.1-2.2-2.9-3.3-5.5-3.3c-2.4,0-4.2,1-5.6,3.1v-2.6h-2.4v18.1h2.4v-10
		c0-2.1,0.5-3.7,1.5-4.7c1-1,2.2-1.5,3.7-1.5c1.3,0,2.3,0.4,3.1,1.3s1.1,2.1,1.1,3.7v11.3h2.4v-10.1c0-2.1,0.5-3.7,1.4-4.7
		c0.9-1,2.2-1.5,3.7-1.5c1.3,0,2.4,0.4,3.2,1.3s1.2,2.1,1.2,3.6v11.3h2.4V202c0-2.2-0.6-4-1.9-5.3s-2.9-2-4.9-2
		C108.2,194.8,106.3,195.9,105,198.1z M84.1,204.7c0,2.3-0.5,4-1.6,5.1s-2.5,1.6-4.2,1.6c-1.6,0-2.8-0.4-3.7-1.3s-1.3-2.1-1.3-3.8
		v-11.1h-2.4v11.1c0,2.3,0.6,4.1,1.9,5.4c1.3,1.3,3,2,5.2,2c2.7,0,4.7-1.1,6.1-3.3v2.8h2.4v-18.1h-2.4V204.7z M52.8,201.5v-11.2h6.5
		c1.6,0,2.9,0.5,3.9,1.6s1.5,2.4,1.5,4s-0.5,3-1.5,4c-1,1.1-2.3,1.6-3.9,1.6L52.8,201.5L52.8,201.5z M50.2,187.9v25.4h2.5v-9.4h6.5
		c2.3,0,4.2-0.8,5.7-2.3c1.5-1.5,2.3-3.4,2.3-5.7c0-2.3-0.8-4.2-2.3-5.7c-1.5-1.5-3.4-2.3-5.7-2.3L50.2,187.9L50.2,187.9z
		 M384.9,197.6c-1.1-1.9-2.8-2.9-5.1-2.9c-2.3,0-4,0.9-5.2,2.6v-2.2h-3.9v18.1h3.9v-10.2c0-1.6,0.4-2.8,1.1-3.6
		c0.8-0.8,1.7-1.2,2.9-1.2c1.1,0,1.9,0.3,2.5,1s0.9,1.7,0.9,2.9v11h3.9v-10.2c0-1.6,0.4-2.8,1.1-3.6c0.7-0.8,1.7-1.2,2.9-1.2
		c1.1,0,2,0.3,2.6,1c0.6,0.7,0.9,1.7,0.9,2.9v11h3.9v-11.2c0-2.2-0.6-4-1.9-5.4s-2.9-2-5-2C388,194.7,386.1,195.7,384.9,197.6z
		 M354.5,199.5c1-0.8,2.2-1.2,3.6-1.2c1.3,0,2.4,0.4,3.4,1.1c1,0.8,1.6,1.9,1.8,3.3h-10.7C352.9,201.4,353.5,200.3,354.5,199.5z
		 M367.1,205.9c0.1-0.7,0.1-1.2,0.1-1.6c0-2.7-0.9-4.9-2.6-6.8s-3.9-2.8-6.5-2.8c-2.8,0-5.1,0.9-6.9,2.7s-2.7,4.1-2.7,6.8
		c0,2.8,0.9,5,2.7,6.8s4.2,2.7,7.1,2.7c3.5,0,6.2-1.3,8-3.9l-3.2-1.9c-1,1.5-2.6,2.2-4.7,2.2c-1.5,0-2.8-0.4-3.8-1.1s-1.7-1.8-2-3.2
		L367.1,205.9L367.1,205.9z M346.7,195.2h-4.5v-5.1l-3.9,1.2v3.9H335v3.8h3.3v8.7c0,2.4,0.6,4,2,4.9s3.5,1.1,6.5,0.8v-3.5
		c-1,0.1-1.8,0.1-2.5,0c-0.7,0-1.2-0.2-1.5-0.5c-0.3-0.3-0.5-0.9-0.5-1.6V199h4.5L346.7,195.2L346.7,195.2z M324.9,198.8
		c0.5-0.3,1.1-0.5,1.9-0.5c1.6,0,2.8,0.7,3.4,2.1l3.3-1.9c-0.6-1.2-1.5-2.1-2.7-2.8c-1.2-0.7-2.5-1-4-1c-1.9,0-3.5,0.5-4.7,1.5
		c-1.3,1-1.9,2.4-1.9,4c0,1.2,0.3,2.2,1,3c0.7,0.8,1.5,1.3,2.5,1.6s2,0.6,2.9,0.9c0.9,0.3,1.7,0.6,2.4,1c0.7,0.4,1,0.8,1,1.4
		c0,1.4-1,2-3.1,2c-2.1,0-3.4-0.9-4-2.6l-3.4,2c0.6,1.3,1.5,2.4,2.8,3.1s2.8,1.1,4.6,1.1c2,0,3.7-0.5,5.1-1.5s2-2.4,2-4.1
		c0-1.2-0.3-2.3-1-3.1s-1.5-1.4-2.5-1.7c-1-0.3-2-0.6-2.9-0.9c-0.9-0.3-1.7-0.6-2.4-0.9c-0.7-0.4-1-0.8-1-1.4
		C324.1,199.6,324.4,199.1,324.9,198.8z M310.4,208.4l-5.4-13.2h-4.3l7.7,17.8l-0.2,0.4c-0.5,1.3-1.1,2.2-1.9,2.8
		c-0.8,0.6-1.7,0.9-3,0.8v3.7c4.2,0.2,7.1-2,8.9-6.7l7-18.7h-4.2L310.4,208.4z M291.3,198.8c0.5-0.3,1.1-0.5,1.9-0.5
		c1.6,0,2.8,0.7,3.4,2.1l3.3-1.9c-0.6-1.2-1.5-2.1-2.7-2.8c-1.2-0.7-2.5-1-4-1c-1.9,0-3.5,0.5-4.7,1.5c-1.3,1-1.9,2.4-1.9,4
		c0,1.2,0.3,2.2,1,3c0.7,0.8,1.5,1.3,2.5,1.6s2,0.6,2.9,0.9c0.9,0.3,1.7,0.6,2.4,1c0.7,0.4,1,0.8,1,1.4c0,1.4-1,2-3.1,2
		c-2.1,0-3.4-0.9-4-2.6l-3.4,2c0.6,1.3,1.5,2.4,2.8,3.1s2.8,1.1,4.6,1.1c2,0,3.7-0.5,5.1-1.5s2-2.4,2-4.1c0-1.2-0.3-2.3-1-3.1
		s-1.5-1.4-2.5-1.7c-1-0.3-2-0.6-2.9-0.9c-0.9-0.3-1.7-0.6-2.4-0.9c-0.7-0.4-1-0.8-1-1.4C290.6,199.6,290.8,199.1,291.3,198.8z
		 M257,255.3c0-0.6-0.2-1-0.6-1.4c-0.4-0.4-0.9-0.6-1.4-0.6c-0.6,0-1,0.2-1.4,0.6s-0.6,0.9-0.6,1.4s0.2,1,0.6,1.4
		c0.4,0.4,0.9,0.6,1.4,0.6s1-0.2,1.4-0.6C256.8,256.3,257,255.8,257,255.3z M255.9,250l0.5-11.2v-7.3h-2.9v7.3l0.5,11.2H255.9z
		 M239.9,241.4c0.8-0.5,1.6-0.7,2.7-0.7c2.2,0,3.6,0.9,4.4,2.5l2-1.2c-0.5-1.1-1.4-2-2.5-2.7c-1.1-0.7-2.4-1-3.9-1
		c-1.8,0-3.3,0.5-4.4,1.5s-1.8,2.2-1.8,3.7c0,1.2,0.4,2.2,1.1,3c0.7,0.8,1.6,1.3,2.6,1.6s2.1,0.6,3.1,0.9s1.9,0.7,2.6,1.2
		s1.1,1.1,1.1,2c0,1-0.4,1.7-1.2,2.2s-1.8,0.7-3,0.7c-1.2,0-2.3-0.3-3.1-0.8c-0.9-0.5-1.5-1.3-1.8-2.2l-2,1.2c0.5,1.2,1.3,2.2,2.6,3
		c1.2,0.8,2.7,1.2,4.4,1.2c1.9,0,3.5-0.5,4.7-1.4c1.2-1,1.8-2.2,1.8-3.8c0-1.3-0.4-2.3-1.1-3.1c-0.7-0.8-1.6-1.3-2.6-1.6
		c-1-0.3-2.1-0.6-3.1-0.9s-1.9-0.7-2.7-1.2c-0.7-0.5-1.1-1.1-1.1-1.9C238.8,242.6,239.2,241.9,239.9,241.4z M216.6,247.8
		c0-2,0.7-3.7,2.1-5.1s3.1-2.1,5.1-2.1s3.7,0.7,5.1,2.1s2.1,3.1,2.1,5.1c0,2-0.7,3.7-2.1,5.1s-3.1,2.1-5.1,2.1s-3.7-0.7-5.1-2.1
		C217.3,251.5,216.6,249.8,216.6,247.8z M216.6,242.3v-10.8h-2.4v25.4h2.4v-3.6c1.7,2.7,4.1,4,7.3,4c2.6,0,4.8-0.9,6.6-2.8
		c1.8-1.8,2.7-4.1,2.7-6.8s-0.9-4.9-2.7-6.8s-4-2.8-6.6-2.8C220.7,238.3,218.3,239.6,216.6,242.3z M192.4,247.8c0-2,0.7-3.7,2.1-5.1
		s3.1-2.1,5.1-2.1s3.7,0.7,5.1,2.1s2.1,3.1,2.1,5.1c0,2-0.7,3.7-2.1,5.1s-3.1,2.1-5.1,2.1s-3.7-0.7-5.1-2.1
		C193.1,251.5,192.4,249.8,192.4,247.8z M206.7,242.3c-1.7-2.7-4.1-4-7.3-4c-2.6,0-4.8,0.9-6.6,2.8c-1.8,1.8-2.7,4.1-2.7,6.8
		s0.9,4.9,2.7,6.8c1.8,1.8,4,2.8,6.6,2.8c3.2,0,5.7-1.3,7.3-4v3.6h2.4v-18.1h-2.4V242.3z M186,256.9v-26.5h-2.4v26.5L186,256.9
		L186,256.9z M178.6,256.9v-18.1h-2.4v18.1H178.6z M179.1,233.2c0-0.5-0.2-0.9-0.5-1.2s-0.8-0.5-1.2-0.5s-0.9,0.2-1.2,0.5
		c-0.3,0.3-0.5,0.8-0.5,1.2s0.2,0.9,0.5,1.2c0.3,0.3,0.8,0.5,1.2,0.5s0.9-0.2,1.2-0.5S179.1,233.6,179.1,233.2z M158.3,241.6v-2.8
		h-2.4v18.1h2.4v-9.5c0-2.3,0.5-4,1.6-5.1c1.1-1.1,2.5-1.6,4.2-1.6c1.6,0,2.8,0.4,3.6,1.3c0.9,0.9,1.3,2.1,1.3,3.8v11.1h2.4v-11.1
		c0-2.3-0.6-4.1-1.9-5.4c-1.3-1.3-3-2-5.2-2C161.7,238.3,159.7,239.4,158.3,241.6z M138.1,241.6v-2.8h-2.4v18.1h2.4v-9.5
		c0-2.3,0.5-4,1.6-5.1c1.1-1.1,2.5-1.6,4.2-1.6c1.6,0,2.8,0.4,3.6,1.3c0.9,0.9,1.3,2.1,1.3,3.8v11.1h2.4v-11.1
		c0-2.3-0.6-4.1-1.9-5.4c-1.3-1.3-3-2-5.2-2C141.5,238.3,139.4,239.4,138.1,241.6z M130.6,256.9v-18.1h-2.4v18.1H130.6z
		 M131.1,233.2c0-0.5-0.2-0.9-0.5-1.2s-0.8-0.5-1.2-0.5s-0.9,0.2-1.2,0.5c-0.3,0.3-0.5,0.8-0.5,1.2s0.2,0.9,0.5,1.2
		c0.3,0.3,0.8,0.5,1.2,0.5s0.9-0.2,1.2-0.5S131.1,233.6,131.1,233.2z M101.3,241.6v-10.1h-2.4v25.4h2.4v-9.5c0-2.3,0.5-4,1.6-5.1
		s2.5-1.6,4.2-1.6c1.6,0,2.8,0.4,3.7,1.3c0.9,0.9,1.3,2.1,1.3,3.8v11.1h2.4v-11.1c0-2.3-0.6-4.1-1.9-5.4c-1.3-1.3-3-2-5.2-2
		C104.7,238.3,102.6,239.4,101.3,241.6z M94.9,238.8h-5.2v-5.1l-2.4,0.7v4.4h-3.8v2.3h3.8v11c0,2.1,0.6,3.5,1.9,4.3
		c1.3,0.8,3.2,0.9,5.7,0.5v-2.1c-1.2,0.1-2.1,0.1-2.9,0.1c-0.8,0-1.3-0.2-1.7-0.6s-0.6-1.1-0.6-2.1v-11h5.2V238.8z M80.2,256.9
		v-18.1h-2.4v18.1H80.2z M80.8,233.2c0-0.5-0.2-0.9-0.5-1.2c-0.3-0.3-0.8-0.5-1.2-0.5s-0.9,0.2-1.2,0.5c-0.3,0.3-0.5,0.8-0.5,1.2
		s0.2,0.9,0.5,1.2c0.3,0.3,0.8,0.5,1.2,0.5s0.9-0.2,1.2-0.5S80.8,233.6,80.8,233.2z M67.3,253.6l-4.7-14.9h-2.5l-4.8,15.1l-4.5-15.1
		h-2.4l5.5,18.1h2.6l4.7-14.8l4.7,14.8h2.6l5.4-18.1h-2.3L67.3,253.6z"/>
	<g>
		<image style="overflow:visible;" width="36" height="73" xlink:href="E07284CB.png"  transform="matrix(1 0 0 1 -5 164)">
		</image>
		<g>
			<g>
				<g>
					
						<linearGradient id="SVGID_1_" gradientUnits="userSpaceOnUse" x1="12.725" y1="122.56" x2="12.725" y2="80.12" gradientTransform="matrix(1 0 0 -1 0 302)">
						<stop  offset="0" style="stop-color:#FFDC00"/>
						<stop  offset="5.960000e-02" style="stop-color:#FFD400"/>
						<stop  offset="0.2873" style="stop-color:#FFB900"/>
						<stop  offset="0.5188" style="stop-color:#FFA500"/>
						<stop  offset="0.7544" style="stop-color:#FF9A00"/>
						<stop  offset="1" style="stop-color:#FF9600"/>
					</linearGradient>
					<path class="st2" d="M12.8,221.9h-0.2c-1.4,0-2.6-1.2-2.6-2.6v-37.2c0-1.4,1.2-2.6,2.6-2.6h0.2c1.4,0,2.6,1.2,2.6,2.6v37.2
						C15.5,220.7,14.3,221.9,12.8,221.9z"/>
				</g>
			</g>
		</g>
	</g>
	
		<linearGradient id="SVGID_00000125590286645550398950000007833300508953446059_" gradientUnits="userSpaceOnUse" x1="442.51" y1="145.83" x2="442.51" y2="126.92" gradientTransform="matrix(1 0 0 -1 0 302)">
		<stop  offset="0" style="stop-color:#FFDC00"/>
		<stop  offset="5.960000e-02" style="stop-color:#FFD400"/>
		<stop  offset="0.2873" style="stop-color:#FFB900"/>
		<stop  offset="0.5188" style="stop-color:#FFA500"/>
		<stop  offset="0.7544" style="stop-color:#FF9A00"/>
		<stop  offset="1" style="stop-color:#FF9600"/>
	</linearGradient>
	<polygon style="fill:url(#SVGID_00000125590286645550398950000007833300508953446059_);" points="452,175.1 433.1,156.2 452,156.2 
			"/>
</g>
</svg>
