<?xml version="1.0" encoding="UTF-8"?>
<svg id="Layer_1" data-name="Layer 1" xmlns="http://www.w3.org/2000/svg" version="1.1" viewBox="0 0 128 128">
  <defs>
    <style>
      .cls-1 {
        opacity: .33;
      }

      .cls-2 {
        fill: #fff;
        stroke-width: 0px;
      }
    </style>
  </defs>
  <g class="cls-1">
    <g id="B246_Cloud_Center_Data_Server" data-name="B246 ,Cloud ,Center ,Data ,Server">
      <path class="cls-2" d="M101.79,14.29h-16.75c-1.07-4.51-5.15-8.16-10.09-8.16h-21.9c-4.94,0-9.02,3.44-10.09,8.16h-16.75c-5.8,0-10.52,4.72-10.52,10.52v59.7c0,5.8,4.72,10.52,10.52,10.52h1.72c-3.01,2.79-4.94,6.87-4.94,11.17,0,8.37,6.66,15.03,15.03,15.03,28.78.64,25.55.64,25.77.64h0s-1.07,0,19.11,0c12.88,0,22.55-14.17,16.96-26.84h1.93c5.8,0,10.52-4.72,10.52-10.52V24.81c0-5.8-4.72-10.52-10.52-10.52ZM47.89,16.65c0-2.79,2.36-5.15,5.15-5.15h22.12c2.79,0,5.15,2.36,5.15,5.15v56.48c-3.44-3.22-8.16-5.15-13.1-5.15-7.3,0-13.96,4.29-16.96,10.74-.43,0-1.5-.22-1.72-.22-.43-.64-.64-1.5-.64-2.36V16.65h0ZM21.05,84.29V24.81c0-2.79,2.36-5.15,5.15-5.15h16.32v5.37h-13.53c-1.5,0-2.79,1.29-2.79,2.79s1.29,2.79,2.79,2.79h13.53v2.79h-13.53c-1.5,0-2.79,1.29-2.79,2.79s1.29,2.79,2.79,2.79h13.53v2.15h-13.53c-1.5,0-2.79,1.29-2.79,2.79s1.29,2.79,2.79,2.79h13.53v2.79h-13.53c-1.5,0-2.79,1.29-2.79,2.79s1.29,2.79,2.79,2.79h13.53v2.79h-13.53c-1.5,0-2.79,1.29-2.79,2.79s1.29,2.79,2.79,2.79h13.53v2.79h-13.53c-1.5,0-2.79,1.29-2.79,2.79s1.29,2.79,2.79,2.79h13.53c0,5.37-.21,6.66.43,8.59-4.72,1.5-8.37,5.37-9.88,10.09h-7.09c-2.58-1.07-4.94-3.44-4.94-6.23ZM82.9,116.29h-1.07c7.3-6.44,7.09-14.17,7.09-14.6,0-1.5-1.29-2.58-2.79-2.58s-2.58,1.29-2.58,2.79c0,0,.21,9.45-11.6,14.39h-8.16l-25.55-.64h-.22c-5.37,0-9.66-4.3-9.66-9.66,0-4.51,3.22-8.59,7.52-9.45,2.58-.22,5.15.43,7.3,2.15,1.07,1.07,2.79.86,3.86-.22.86-1.07.86-2.79-.21-3.86-2.36-1.93-5.15-3.22-8.16-3.44,1.07-3.65,4.08-6.66,7.94-7.09,2.79-.43,4.51.43,5.15.64h.64c1.07,0,2.15-.86,2.58-1.93,1.72-5.8,7.3-9.88,13.96-9.45,5.8.43,10.74,4.51,11.81,10.31-8.8,1.29-15.46,8.8-15.46,18.04,0,1.5,1.29,2.79,2.79,2.79s2.79-1.29,2.79-2.79c0-7.73,6.87-13.96,15.03-12.67,6.23.86,11.38,6.66,11.38,13.53-1.07,7.51-7.09,13.74-14.39,13.74ZM106.95,84.29c0,2.79-2.36,5.15-5.15,5.15h-5.37c-2.79-3.01-6.66-5.15-10.95-5.8-.22-1.07-.43-2.36-.86-3.44,1.07-2.79.64-3.22.86-9.66h13.53c1.5,0,2.79-1.29,2.79-2.79s-1.29-2.79-2.79-2.79h-13.53v-2.36h13.53c1.5,0,2.79-1.29,2.79-2.79s-1.29-2.79-2.79-2.79h-13.53v-2.79h13.53c1.5,0,2.79-1.29,2.79-2.79s-1.29-2.79-2.79-2.79h-13.53v-2.79h13.53c1.5,0,2.79-1.29,2.79-2.79s-1.29-2.79-2.79-2.79h-13.53v-2.79h13.53c1.5,0,2.79-1.29,2.79-2.79s-1.29-2.79-2.79-2.79h-13.53v-1.5h13.53c1.5,0,2.79-1.29,2.79-2.79s-1.29-2.79-2.79-2.79h-13.53v-5.15h16.32c2.79,0,5.15,2.36,5.15,5.15v59.48Z"/>
    </g>
  </g>
</svg>