<?xml version="1.0" encoding="UTF-8"?>
<svg id="Layer_1" data-name="Layer 1" xmlns="http://www.w3.org/2000/svg" version="1.1" viewBox="0 0 128 128">
  <defs>
    <style>
      .cls-1, .cls-2 {
        fill: #fff;
        stroke-width: 0px;
      }

      .cls-2 {
        opacity: .33;
      }
    </style>
  </defs>
  <path class="cls-2" d="M34.58,110.5c-3.73,0-6.75,3.02-6.75,6.75s3.02,6.75,6.75,6.75,6.75-3.02,6.75-6.75-3.02-6.75-6.75-6.75Z"/>
  <path class="cls-2" d="M17.29,78.61c-3.73,0-6.75,3.02-6.75,6.75s3.02,6.75,6.75,6.75,6.75-3.02,6.75-6.75-3.02-6.75-6.75-6.75Z"/>
  <circle class="cls-2" cx="69.52" cy="109.76" r="6.75"/>
  <circle class="cls-2" cx="26.44" cy="58.46" r="8.59"/>
  <circle class="cls-2" cx="84.41" cy="89.42" r="8.59"/>
  <circle class="cls-2" cx="46.22" cy="92.47" r="8.59"/>
  <path class="cls-1" d="M25.93,26.37c0-7.58,6.15-13.73,13.73-13.73s13.73,6.15,13.73,13.73-6.15,13.73-13.73,13.73-13.73-6.15-13.73-13.73ZM64.07,73.66c7.58,0,13.73-6.15,13.73-13.73s-6.15-13.73-13.73-13.73-13.73,6.15-13.73,13.73,6.15,13.73,13.73,13.73ZM103.73,42.14c-7.58,0-13.73,6.15-13.73,13.73s6.15,13.73,13.73,13.73,13.73-6.15,13.73-13.73-6.15-13.73-13.73-13.73ZM80.85,39.59c9.83,0,17.8-7.97,17.8-17.8s-7.97-17.8-17.8-17.8-17.8,7.97-17.8,17.8,7.97,17.8,17.8,17.8Z"/>
</svg>