<?xml version="1.0" encoding="UTF-8"?>
<svg id="Layer_1" data-name="Layer 1" xmlns="http://www.w3.org/2000/svg" version="1.1" xmlns:xlink="http://www.w3.org/1999/xlink" viewBox="0 0 128 128">
  <defs>
    <style>
      .cls-1 {
        fill: url(#linear-gradient);
      }

      .cls-1, .cls-2 {
        stroke-width: 0px;
      }

      .cls-2 {
        fill: #000;
        isolation: isolate;
        opacity: .3;
      }
    </style>
    <linearGradient id="linear-gradient" x1="36" y1="47.6" x2="92" y2="47.6" gradientUnits="userSpaceOnUse">
      <stop offset="0" stop-color="#78ffff"/>
      <stop offset="1" stop-color="#0000a7"/>
    </linearGradient>
  </defs>
  <path class="cls-1" d="M50,71.5c0,3.9-3.1,7-7,7s-7-3.1-7-7,3.1-7,7-7,7,3.1,7,7ZM71,71.5c0,3.9-3.1,7-7,7s-7-3.1-7-7,3.1-7,7-7,7,3.1,7,7ZM92,71.5c0,3.9-3.1,7-7,7s-7-3.1-7-7,3.1-7,7-7,7,3.1,7,7ZM45.2,34.5h9.1v9.2h-9.1v-9.2ZM62.7,16.7h14v14.2h-14v-14.2Z"/>
  <path class="cls-2" d="M29.5,43.7h0c-2.5,0-4.1.5-5,1.5-.9.9-1.4,2.3-1.4,4.2v12.2c-.1,5.1-3,8.1-8.6,9.1v.5c2.8.5,5,1.4,6.4,2.9,1.5,1.5,2.2,3.3,2.2,5.7v12.7c0,1.9.5,3.4,1.4,4.3s2.6,1.4,5,1.5h10.8v9.2h-10.8c-4.1,0-7.3-.4-9.6-1.1-2.3-.7-4-1.9-5-3.4s-1.5-3.8-1.5-6.9v-12.9c0-2.6-.8-4.5-2.4-5.6-1.6-1.1-3.9-1.7-7-1.7v-9.8c3.3,0,5.6-.6,7.1-1.7s2.3-2.9,2.3-5.2v-13.4c0-3,.5-5.3,1.5-6.8,1-1.6,2.6-2.7,5-3.4s5.5-1.1,9.6-1.1h10.8v9.2h-10.8ZM116.8,64.4c-1.5-1.1-2.3-2.9-2.3-5.2v-13.4c0-3-.5-5.3-1.5-6.8-1-1.6-2.7-2.7-5-3.4s-5.5-1.1-9.6-1.1h-10.8v9.2h10.8c2.4,0,4.1.5,5,1.5.9.9,1.4,2.3,1.4,4.2v12.2c.2,5.1,3,8.1,8.6,9.1v.5c-2.8.5-4.9,1.4-6.4,2.9-1.4,1.5-2.2,3.3-2.2,5.7v12.7c0,1.9-.5,3.4-1.4,4.3s-2.6,1.4-5,1.5h-10.8v9.2h10.8c4.1,0,7.3-.4,9.6-1.1,2.3-.7,4-1.9,5-3.4s1.5-3.8,1.5-6.9v-12.9c0-2.6.8-4.5,2.4-5.6,1.6-1.1,3.9-1.7,7-1.7v-9.8c-3.3,0-5.6-.6-7.2-1.7h0Z"/>
</svg>