<?xml version="1.0" encoding="utf-8"?>
<!-- Generator: Adobe Illustrator 16.0.3, SVG Export Plug-In . SVG Version: 6.00 Build 0)  -->
<!DOCTYPE svg PUBLIC "-//W3C//DTD SVG 1.1//EN" "http://www.w3.org/Graphics/SVG/1.1/DTD/svg11.dtd">
<svg version="1.1" id="Layer_1" xmlns="http://www.w3.org/2000/svg" xmlns:xlink="http://www.w3.org/1999/xlink" x="0px" y="0px"
	 width="600px" height="250px" viewBox="0 0 600 250" enable-background="new 0 0 600 250" xml:space="preserve">
<g>
	<linearGradient id="SVGID_1_" gradientUnits="userSpaceOnUse" x1="193.0298" y1="-27.8521" x2="408.6145" y2="187.7327">
		<stop  offset="0" style="stop-color:#00E0A7"/>
		<stop  offset="0.0695" style="stop-color:#00CAA3"/>
		<stop  offset="0.2315" style="stop-color:#009B99"/>
		<stop  offset="0.3936" style="stop-color:#007492"/>
		<stop  offset="0.553" style="stop-color:#00568C"/>
		<stop  offset="0.709" style="stop-color:#004087"/>
		<stop  offset="0.8599" style="stop-color:#003385"/>
		<stop  offset="1" style="stop-color:#002F84"/>
	</linearGradient>
	<path fill="url(#SVGID_1_)" d="M490,106.346V52.5h-10.42v53.846H490z M443.351,106.346V52.5h-10.42v53.846H443.351z M454.15,86.354
		c3.42,0,6.499-0.692,9.229-2.069c2.734-1.377,4.891-3.328,6.475-5.859c1.583-2.524,2.375-5.529,2.375-9.001
		c0-3.472-0.792-6.47-2.375-9.001c-1.584-2.524-3.74-4.481-6.475-5.86c-2.729-1.377-5.809-2.063-9.229-2.063h-13.558v8.502h12.486
		c1.633,0,3.113,0.33,4.44,0.991c1.328,0.667,2.375,1.64,3.142,2.911c0.768,1.278,1.15,2.786,1.15,4.52
		c0,1.789-0.383,3.31-1.15,4.557c-0.767,1.253-1.813,2.213-3.142,2.873c-1.327,0.667-2.808,0.998-4.44,0.998h-12.486v8.502H454.15z
		 M415.24,96.309v-8.733h-28.955v8.733H415.24z M385.672,106.346l16.931-44.197h-3.831l16.696,44.197h11.108L404.974,52.5h-8.499
		l-21.678,53.846H385.672z M367.062,104.008c2.605-2.119,3.905-4.987,3.905-8.615c0-2.25-0.445-4.083-1.341-5.516
		c-0.892-1.428-2.041-2.575-3.446-3.448c-1.403-0.867-2.884-1.546-4.442-2.032c-1.559-0.479-3.052-0.916-4.481-1.296
		c-1.431-0.387-2.59-0.83-3.485-1.34c-0.894-0.512-1.339-1.229-1.339-2.151c0-0.81,0.396-1.453,1.188-1.914
		c0.791-0.455,1.926-0.686,3.409-0.686c1.633,0,3.15,0.306,4.557,0.916c1.403,0.61,2.668,1.608,3.79,2.985l6.053-6.046
		c-1.637-2.145-3.689-3.752-6.166-4.832c-2.477-1.072-5.248-1.608-8.313-1.608c-2.91,0-5.438,0.486-7.582,1.459
		c-2.145,0.972-3.79,2.324-4.94,4.058c-1.15,1.739-1.724,3.783-1.724,6.127c0,2.25,0.446,4.077,1.341,5.479
		c0.892,1.403,2.053,2.5,3.484,3.291c1.431,0.792,2.924,1.434,4.481,1.914c1.556,0.487,3.052,0.923,4.482,1.304
		c1.428,0.386,2.59,0.86,3.484,1.42c0.892,0.561,1.341,1.353,1.341,2.375c0,0.917-0.422,1.609-1.267,2.064
		c-0.841,0.461-2.078,0.692-3.714,0.692c-2.042,0-3.905-0.356-5.593-1.073c-1.683-0.716-3.166-1.788-4.44-3.216l-5.976,6.052
		c1.226,1.428,2.681,2.637,4.366,3.634c1.688,0.997,3.534,1.776,5.555,2.338c2.017,0.561,4.07,0.841,6.165,0.841
		C360.908,107.187,364.458,106.127,367.062,104.008z M312.598,96.578c-1.431-0.842-2.539-2.014-3.331-3.522
		c-0.792-1.509-1.188-3.254-1.188-5.249c0-1.938,0.396-3.659,1.188-5.167c0.792-1.509,1.889-2.681,3.294-3.523
		c1.403-0.847,3.027-1.265,4.865-1.265c1.836,0,3.472,0.418,4.9,1.265c1.43,0.842,2.54,2.014,3.331,3.523
		c0.792,1.508,1.188,3.229,1.188,5.167c0,1.995-0.396,3.74-1.188,5.249c-0.791,1.508-1.889,2.68-3.291,3.522
		c-1.405,0.841-3.027,1.265-4.865,1.265C315.662,97.843,314.029,97.419,312.598,96.578z M308.614,106.346v-9.955l-1.607-9.039
		l1.686-8.889V50.967h-10.036v55.379H308.614z M328.378,104.582c2.706-1.683,4.838-3.984,6.396-6.895
		c1.559-2.905,2.337-6.178,2.337-9.799c0-3.678-0.778-6.976-2.337-9.886c-1.559-2.912-3.69-5.205-6.396-6.888
		c-2.708-1.689-5.771-2.532-9.19-2.532c-2.606,0-4.981,0.537-7.125,1.609c-2.145,1.072-3.868,2.567-5.171,4.481
		c-1.301,1.914-2.005,4.07-2.107,6.47v13.178c0.103,2.399,0.792,4.569,2.069,6.507c1.275,1.945,2.989,3.472,5.134,4.601
		c2.145,1.122,4.544,1.683,7.2,1.683C322.606,107.112,325.67,106.271,328.378,104.582z M289.771,106.346V69.349h-9.958v9.114
		l1.608,8.889l-1.608,9.039v9.955H289.771z M266.064,96.578c-1.406-0.842-2.503-2.014-3.295-3.522
		c-0.792-1.509-1.188-3.254-1.188-5.249c0-1.938,0.396-3.659,1.188-5.167c0.792-1.509,1.889-2.681,3.295-3.523
		c1.402-0.847,3.026-1.265,4.865-1.265c1.889,0,3.535,0.418,4.94,1.265c1.403,0.842,2.5,2.014,3.294,3.523
		c0.789,1.508,1.185,3.229,1.185,5.167c0,2.968-0.867,5.38-2.603,7.244c-1.736,1.864-4.012,2.792-6.816,2.792
		C269.091,97.843,267.467,97.419,266.064,96.578z M276.212,105.466c2.095-1.097,3.765-2.593,5.018-4.481
		c1.25-1.889,1.926-4.058,2.029-6.514V81.143c-0.103-2.4-0.779-4.557-2.029-6.47c-1.253-1.914-2.923-3.41-5.018-4.481
		c-2.094-1.073-4.469-1.609-7.122-1.609c-3.373,0-6.411,0.842-9.117,2.532c-2.706,1.683-4.825,3.977-6.358,6.888
		c-1.53,2.91-2.297,6.208-2.297,9.886c0,3.622,0.767,6.894,2.297,9.799c1.534,2.911,3.653,5.211,6.358,6.895
		c2.706,1.688,5.744,2.53,9.117,2.53C271.743,107.112,274.118,106.563,276.212,105.466z M244.733,106.346V50.967h-10.036v55.379
		H244.733z M224.857,61.726c1.047-1.098,1.571-2.463,1.571-4.096c0-1.583-0.524-2.936-1.571-4.058
		c-1.047-1.128-2.412-1.689-4.098-1.689c-1.633,0-2.986,0.562-4.058,1.689c-1.072,1.122-1.609,2.474-1.609,4.058
		c0,1.633,0.537,2.999,1.609,4.096c1.072,1.096,2.425,1.645,4.058,1.645C222.445,63.371,223.81,62.822,224.857,61.726z
		 M225.814,106.346V69.349h-10.111v36.997H225.814z M182.69,106.346V69.349h-10.037v36.997H182.69z M207.584,106.346V82.907
		c0-2.5-0.614-4.837-1.839-7.006c-1.225-2.175-2.911-3.934-5.055-5.287c-2.144-1.353-4.569-2.032-7.274-2.032
		c-2.812,0-5.327,0.612-7.546,1.84c-2.222,1.227-3.958,2.923-5.208,5.093c-1.253,2.169-1.879,4.712-1.879,7.624l3.909,1.989
		c0-1.478,0.317-2.781,0.957-3.903c0.639-1.128,1.518-1.995,2.643-2.605c1.122-0.617,2.399-0.922,3.831-0.922
		c2.194,0,3.983,0.692,5.361,2.069c1.377,1.377,2.069,3.167,2.069,5.361v21.219H207.584z M139.644,106.346V69.349h-10.036v36.997
		H139.644z M164.538,106.346V82.907c0-2.5-0.614-4.837-1.839-7.006c-1.225-2.175-2.911-3.934-5.056-5.287
		c-2.145-1.353-4.569-2.032-7.274-2.032c-2.812,0-5.326,0.612-7.545,1.84c-2.223,1.227-3.958,2.923-5.208,5.093
		c-1.253,2.169-1.879,4.712-1.879,7.624l3.908,1.989c0-1.478,0.318-2.781,0.957-3.903c0.639-1.128,1.518-1.995,2.643-2.605
		c1.122-0.617,2.4-0.922,3.831-0.922c2.194,0,3.983,0.692,5.361,2.069c1.377,1.377,2.069,3.167,2.069,5.361v21.219H164.538z
		 M119.765,61.726c1.047-1.098,1.571-2.463,1.571-4.096c0-1.583-0.524-2.936-1.571-4.058c-1.047-1.128-2.413-1.689-4.099-1.689
		c-1.633,0-2.985,0.562-4.058,1.689C110.536,54.694,110,56.046,110,57.63c0,1.633,0.536,2.999,1.608,4.096
		c1.073,1.096,2.425,1.645,4.058,1.645C117.353,63.371,118.718,62.822,119.765,61.726z M120.722,106.346V69.349h-10.111v36.997
		H120.722z"/>
	<linearGradient id="SVGID_2_" gradientUnits="userSpaceOnUse" x1="207.0977" y1="78.7666" x2="392.9797" y2="264.6487">
		<stop  offset="0" style="stop-color:#00E0A7"/>
		<stop  offset="0.0695" style="stop-color:#00CAA3"/>
		<stop  offset="0.2315" style="stop-color:#009B99"/>
		<stop  offset="0.3936" style="stop-color:#007492"/>
		<stop  offset="0.553" style="stop-color:#00568C"/>
		<stop  offset="0.709" style="stop-color:#004087"/>
		<stop  offset="0.8599" style="stop-color:#003385"/>
		<stop  offset="1" style="stop-color:#002F84"/>
	</linearGradient>
	<path fill="url(#SVGID_2_)" d="M461.392,171.649c1.352-1.354,3.101-2.032,5.248-2.032c1.02,0,1.926,0.155,2.718,0.461
		c0.792,0.305,1.469,0.766,2.028,1.378l6.284-7.2c-1.179-1.328-2.478-2.281-3.909-2.874c-1.43-0.586-3.038-0.879-4.824-0.879
		c-4.136,0-7.302,1.315-9.5,3.946c-2.194,2.63-3.521,6.215-3.982,10.759l3.907,2.605
		C459.361,175.059,460.039,173.001,461.392,171.649z M459.361,198.267V161.27h-10.036v36.997H459.361z M433.97,197.424
		c2.577-1.071,4.759-2.654,6.549-4.75l-5.9-5.896c-1.122,1.277-2.45,2.231-3.983,2.874c-1.53,0.636-3.242,0.953-5.131,0.953
		c-2.094,0-3.933-0.442-5.516-1.34c-1.584-0.892-2.797-2.169-3.638-3.827c-0.843-1.658-1.263-3.616-1.263-5.859
		c0-2.194,0.393-4.103,1.185-5.71c0.792-1.608,1.929-2.855,3.41-3.753c1.479-0.892,3.216-1.34,5.207-1.34
		c1.89,0,3.485,0.398,4.788,1.19s2.3,1.927,2.989,3.403c0.688,1.483,1.084,3.322,1.188,5.517l4.058-3.142l-26.428,0.081v7.506
		l31.1-0.075c0.206-0.873,0.347-1.652,0.424-2.338c0.075-0.692,0.112-1.365,0.112-2.032c0-3.522-0.779-6.677-2.334-9.456
		c-1.559-2.787-3.703-4.98-6.437-6.589c-2.73-1.608-5.885-2.413-9.46-2.413c-3.624,0-6.919,0.854-9.88,2.563
		c-2.961,1.714-5.299,4.014-7.01,6.895c-1.711,2.886-2.565,6.164-2.565,9.843c0,3.728,0.883,7.05,2.644,9.961
		c1.762,2.911,4.148,5.193,7.162,6.857c3.012,1.657,6.458,2.487,10.339,2.487C428.593,199.033,431.389,198.497,433.97,197.424z
		 M399.002,198.267v-55.38h-10.036v55.38H399.002z M380.083,198.267v-55.38h-10.036v55.38H380.083z M338.876,188.424
		c-1.431-0.843-2.557-2.021-3.373-3.522c-0.816-1.509-1.225-3.229-1.225-5.174c0-1.938,0.408-3.646,1.225-5.131
		c0.816-1.478,1.942-2.643,3.373-3.483c1.428-0.843,3.063-1.267,4.902-1.267c1.89,0,3.547,0.424,4.979,1.267
		c1.43,0.841,2.552,2.006,3.368,3.483c0.816,1.484,1.229,3.192,1.229,5.131c0,1.944-0.399,3.665-1.188,5.174
		c-0.795,1.502-1.917,2.68-3.372,3.522c-1.456,0.841-3.126,1.265-5.016,1.265C341.939,189.688,340.304,189.265,338.876,188.424z
		 M353.927,196.465c2.985-1.708,5.349-4.033,7.085-6.97c1.736-2.936,2.605-6.215,2.605-9.843s-0.869-6.882-2.605-9.768
		c-1.736-2.881-4.1-5.181-7.085-6.895c-2.989-1.708-6.37-2.563-10.148-2.563c-3.677,0-7.022,0.854-10.035,2.563
		c-3.015,1.714-5.39,4.014-7.122,6.895c-1.74,2.886-2.606,6.14-2.606,9.768s0.882,6.907,2.644,9.843
		c1.761,2.937,4.136,5.262,7.122,6.97c2.988,1.714,6.346,2.568,10.073,2.568S350.938,198.179,353.927,196.465z M307.661,171.649
		c1.353-1.354,3.101-2.032,5.249-2.032c1.019,0,1.926,0.155,2.718,0.461c0.791,0.305,1.467,0.766,2.029,1.378l6.283-7.2
		c-1.179-1.328-2.478-2.281-3.908-2.874c-1.432-0.586-3.04-0.879-4.825-0.879c-4.136,0-7.303,1.315-9.5,3.946
		c-2.194,2.63-3.521,6.215-3.983,10.759l3.908,2.605C305.632,175.059,306.309,173.001,307.661,171.649z M305.632,198.267V161.27
		h-10.036v36.997H305.632z M289.93,170.078v-8.809h-27.347v8.809H289.93z M281.274,198.267v-52.395h-10.036v52.395H281.274z
		 M233.247,198.267V161.27h-10.036v36.997H233.247z M258.142,198.267v-23.438c0-2.5-0.614-4.838-1.839-7.007
		c-1.225-2.176-2.911-3.934-5.055-5.286s-4.569-2.032-7.275-2.032c-2.811,0-5.326,0.61-7.545,1.839
		c-2.223,1.229-3.958,2.924-5.208,5.093c-1.253,2.169-1.879,4.713-1.879,7.624l3.908,1.988c0-1.478,0.318-2.779,0.957-3.902
		c0.639-1.128,1.518-1.994,2.643-2.605c1.123-0.617,2.4-0.922,3.831-0.922c2.194,0,3.983,0.691,5.361,2.069
		c1.377,1.377,2.069,3.166,2.069,5.36v21.22H258.142z M192.037,188.424c-1.43-0.843-2.556-2.021-3.372-3.522
		c-0.816-1.509-1.225-3.229-1.225-5.174c0-1.938,0.408-3.646,1.225-5.131c0.816-1.478,1.942-2.643,3.372-3.483
		c1.428-0.843,3.064-1.267,4.903-1.267c1.888,0,3.546,0.424,4.977,1.267c1.431,0.841,2.553,2.006,3.369,3.483
		c0.817,1.484,1.228,3.192,1.228,5.131c0,1.944-0.399,3.665-1.188,5.174c-0.794,1.502-1.917,2.68-3.372,3.522
		c-1.456,0.841-3.126,1.265-5.015,1.265C195.101,189.688,193.465,189.265,192.037,188.424z M207.088,196.465
		c2.986-1.708,5.349-4.033,7.084-6.97c1.736-2.936,2.605-6.215,2.605-9.843s-0.87-6.882-2.605-9.768
		c-1.736-2.881-4.099-5.181-7.084-6.895c-2.989-1.708-6.371-2.563-10.148-2.563c-3.679,0-7.023,0.854-10.037,2.563
		c-3.014,1.714-5.389,4.014-7.122,6.895c-1.74,2.886-2.606,6.14-2.606,9.768s0.882,6.907,2.643,9.843
		c1.761,2.937,4.136,5.262,7.122,6.97c2.989,1.714,6.346,2.568,10.073,2.568C200.743,199.033,204.099,198.179,207.088,196.465z
		 M165.61,196.963c3.319-1.377,6.23-3.315,8.733-5.821l-7.047-7.045c-1.48,1.684-3.307,2.986-5.476,3.902
		c-2.172,0.923-4.763,1.384-7.776,1.384c-2.503,0-4.788-0.437-6.854-1.302c-2.07-0.873-3.868-2.107-5.402-3.716
		c-1.53-1.608-2.708-3.51-3.522-5.71c-0.82-2.194-1.228-4.645-1.228-7.35c0-2.655,0.408-5.1,1.228-7.317
		c0.813-2.22,1.992-4.134,3.522-5.742c1.534-1.614,3.332-2.836,5.402-3.678c2.066-0.841,4.351-1.266,6.854-1.266
		c2.861,0,5.364,0.462,7.508,1.378c2.145,0.923,3.955,2.194,5.439,3.834l7.047-7.051c-2.503-2.449-5.389-4.376-8.659-5.784
		c-3.266-1.403-7.043-2.107-11.335-2.107c-3.983,0-7.649,0.717-10.99,2.145c-3.348,1.434-6.284,3.397-8.811,5.903
		c-2.528,2.499-4.47,5.436-5.819,8.808c-1.355,3.366-2.032,6.994-2.032,10.878c0,3.878,0.677,7.506,2.032,10.878
		c1.35,3.365,3.292,6.315,5.819,8.846c2.527,2.524,5.479,4.494,8.848,5.896c3.37,1.402,7.019,2.107,10.953,2.107
		C158.435,199.033,162.291,198.342,165.61,196.963z"/>
</g>
</svg>
