<?xml version="1.0" encoding="UTF-8"?>
<svg id="Layer_1" data-name="Layer 1" xmlns="http://www.w3.org/2000/svg" version="1.1" xmlns:xlink="http://www.w3.org/1999/xlink" viewBox="0 0 128 128">
  <defs>
    <style>
      .cls-1 {
        fill: url(#linear-gradient);
      }

      .cls-1, .cls-2 {
        stroke-width: 0px;
      }

      .cls-2 {
        fill: #fff;
        isolation: isolate;
        opacity: .3;
      }
    </style>
    <linearGradient id="linear-gradient" x1="11.5" y1="16.4" x2="71.8" y2="120.9" gradientUnits="userSpaceOnUse">
      <stop offset="0" stop-color="#78ffff"/>
      <stop offset="1" stop-color="#0000a7"/>
    </linearGradient>
  </defs>
  <path class="cls-1" d="M30.2,6.1h25.5c1.9,0,3.4,1.5,3.4,3.4v25.5c0,1.9-1.5,3.4-3.4,3.4h-25.5c-1.9,0-3.4-1.5-3.4-3.4V9.5c0-1.9,1.5-3.4,3.4-3.4ZM23.9,65.4h44.6c3.3,0,5.9,2.7,5.9,5.9v44.6c0,3.3-2.7,5.9-5.9,5.9H23.9c-3.3,0-5.9-2.7-5.9-5.9v-44.6c0-3.3,2.7-5.9,5.9-5.9Z"/>
  <path class="cls-2" d="M103.1,24.1h-41.4v13c0,2.2-1.8,4-4,4h-13.6v21.5h26.6c3.6,0,6.6,2.9,6.6,6.6v21h25.8c3.8,0,6.9-3.1,6.9-6.9V31c0-3.8-3.1-6.9-6.9-6.9h0Z"/>
</svg>