<?xml version="1.0" encoding="UTF-8"?>
<svg id="Layer_1" data-name="Layer 1" xmlns="http://www.w3.org/2000/svg" version="1.1" xmlns:xlink="http://www.w3.org/1999/xlink" viewBox="0 0 128 128">
  <defs>
    <style>
      .cls-1 {
        fill: url(#linear-gradient);
      }

      .cls-1, .cls-2 {
        stroke-width: 0px;
      }

      .cls-2 {
        fill: #fff;
        isolation: isolate;
        opacity: .3;
      }
    </style>
    <linearGradient id="linear-gradient" x1="58.6" y1="55.4" x2="67.2" y2="70.3" gradientUnits="userSpaceOnUse">
      <stop offset="0" stop-color="#78ffff"/>
      <stop offset="1" stop-color="#0000a7"/>
    </linearGradient>
  </defs>
  <path class="cls-2" d="M108,55.6s3.3-11.4,4.8-21.4c1-6.6-.3-11.4-6.1-16-5.8-4.6-17.7-2.2-23.8,1.2-6.1,3.4-50.3,25.6-50.3,25.6,0,0,34.5-29.2,47-36.2,12.6-7,24.6-5.9,33.4.1,8.8,6.1,12.2,18.1,9.4,31.4-2.8,13.3-5.9,24.8-5.9,24.8l-8.4-9.6h0Z"/>
  <path class="cls-2" d="M56.2,20.2s-11.4-3.3-21.4-4.8c-6.6-1-11.4.3-16,6.1-4.6,5.8-2.2,17.7,1.2,23.8,3.4,6.1,25.6,50.3,25.6,50.3,0,0-29.2-34.5-36.2-47-7-12.5-5.9-24.6.1-33.4C15.7,6.3,27.7,3,41,5.8c13.3,2.8,24.8,5.9,24.8,5.9l-9.6,8.5h0Z"/>
  <path class="cls-2" d="M20,72.4s-3.3,11.4-4.8,21.4c-1,6.6.3,11.4,6.1,16,5.8,4.6,17.7,2.2,23.8-1.2,6.1-3.4,50.3-25.6,50.3-25.6,0,0-34.5,29.2-47,36.2-12.5,7-24.6,5.9-33.4-.1-8.9-6.1-12.1-18.1-9.4-31.4s5.9-24.8,5.9-24.8l8.4,9.6h0Z"/>
  <path class="cls-2" d="M71.8,107.8s11.4,3.3,21.4,4.8c6.6,1,11.4-.3,16-6.1,4.6-5.8,2.2-17.7-1.2-23.8-3.4-6.1-25.6-50.3-25.6-50.3,0,0,29.2,34.5,36.2,47,7,12.6,5.9,24.6-.1,33.4-6.1,8.8-18.1,12.2-31.4,9.4-13.3-2.8-24.8-5.9-24.8-5.9l9.6-8.4h0Z"/>
  <path class="cls-1" d="M71.5,62.8c0,4.7-3.8,8.6-8.6,8.6s-8.6-3.8-8.6-8.6,3.8-8.6,8.6-8.6,8.6,3.8,8.6,8.6Z"/>
</svg>