<?xml version="1.0" encoding="UTF-8"?>
<svg id="Layer_1" data-name="Layer 1" xmlns="http://www.w3.org/2000/svg" version="1.1" viewBox="0 0 128 128">
  <defs>
    <style>
      .cls-1, .cls-2 {
        fill: #000;
        stroke-width: 0px;
      }

      .cls-2 {
        opacity: .33;
      }
    </style>
  </defs>
  <g id="B226_Data_Network_Secure_Security" data-name="B226 ,Data ,Network ,Secure ,Security">
    <g>
      <path class="cls-1" d="M97.72,60.13c-3.79,0-6.82,3.03-6.82,6.82s3.03,6.82,6.82,6.82,6.82-3.03,6.82-6.82-3.03-6.82-6.82-6.82ZM97.72,69.22c-1.14,0-2.08-.95-2.08-2.08s.95-2.08,2.08-2.08,2.08.95,2.08,2.08c.19,1.14-.76,2.08-2.08,2.08Z"/>
      <path class="cls-1" d="M81.99,60.13c-3.79,0-6.82,3.03-6.82,6.82s3.03,6.82,6.82,6.82,6.82-3.03,6.82-6.82-3.03-6.82-6.82-6.82ZM81.99,69.22c-1.14,0-2.08-.95-2.08-2.08s.95-2.08,2.08-2.08,2.08.95,2.08,2.08-.95,2.08-2.08,2.08Z"/>
      <path class="cls-1" d="M97.72,112.42c3.79,0,6.82-3.03,6.82-6.82s-3.03-6.82-6.82-6.82-6.82,3.03-6.82,6.82,3.03,6.82,6.82,6.82ZM97.72,103.33c1.14,0,2.08.95,2.08,2.08s-.95,2.08-2.08,2.08-2.08-.95-2.08-2.08.95-2.08,2.08-2.08Z"/>
      <path class="cls-1" d="M81.99,112.42c3.79,0,6.82-3.03,6.82-6.82s-3.03-6.82-6.82-6.82-6.82,3.03-6.82,6.82c-.19,3.6,3.03,6.82,6.82,6.82ZM81.99,103.33c1.14,0,2.08.95,2.08,2.08s-.95,2.08-2.08,2.08-2.08-.95-2.08-2.08c-.19-1.14.76-2.08,2.08-2.08Z"/>
      <path class="cls-2" d="M120.83,12.38c0-1.52-1.33-2.46-2.65-2.27-6.25.95-13.07.76-17.81-3.41-.76-.76-1.9-.76-2.84-.19-5.49,3.6-11.56,4.74-18,3.6-1.52-.19-2.84.76-2.84,2.27v.19H9.62c-1.33,0-2.46,1.14-2.46,2.46v28.42c0,1.32,1.14,2.46,2.46,2.46h42.82v5.31H9.62c-1.33,0-2.46,1.14-2.46,2.46v27.09c0,1.33,1.14,2.27,2.46,2.27h42.82v6.63H9.62c-1.33,0-2.46,1.14-2.46,2.46v27.28c0,1.32,1.14,2.46,2.46,2.46h101.74c1.32,0,2.46-1.14,2.46-2.46v-27.47c0-1.33-1.14-2.46-2.46-2.46h-45.85v-6.63h45.85c1.32,0,2.46-.95,2.46-2.27v-27.09c0-1.33-1.14-2.46-2.46-2.46h-.19c5.12-5.3,7.58-8.34,8.72-13.83,1.14-5.12.95-11.75.95-24.82ZM81.61,45.73c1.14,1.7,2.65,3.22,4.55,5.3h-20.84v-5.3h16.29ZM11.89,17.31h64.79c0,11.75,0,18.38,2.08,23.68H11.89v-23.68ZM57.17,45.73h3.6v5.3h-3.6v-5.3ZM109.09,116.78H11.89v-22.55h97.19v22.55ZM60.77,89.49h-3.6v-6.63h3.6v6.63ZM109.09,78.13H11.89v-22.36h42.25c.38.19.95.19,1.32,0h6.82c.38.19.95.19,1.33,0h27.09c.38.38.76.76,1.14,1.14.38.38,1.14.76,1.7.76h10.23c.57,0,1.33-.19,1.7-.76.38-.38.76-.76,1.14-1.14h2.27v22.36h.19ZM115.34,36.07c-1.14,5.31-3.98,7.77-11.18,15.35-.38.38-.76.76-1.33,1.33h-8.15c-.57-.57-.95-1.14-1.32-1.52-3.03-3.03-6.25-6.25-8.15-8.91-.19-.38-.38-.57-.57-.76-1.14-1.7-1.71-3.22-2.27-5.49-.95-4.55-.76-12.31-.76-21.03,6.25.57,11.94-.57,17.24-3.79,5.11,3.6,11.37,4.17,17.43,3.6-.19,10.42,0,17.05-.95,21.22Z"/>
      <path class="cls-2" d="M107.19,22.24c-1.14.38-1.89,1.89-1.32,3.03,0,0,3.6,9.47-4.17,16.29-.95.95-.95,2.46-.19,3.41.95.95,2.46.95,3.41.19,4.17-3.79,6.44-8.71,6.44-14.21,0-4.17-1.14-7.2-1.14-7.39-.57-1.14-1.89-1.89-3.03-1.32Z"/>
      <path class="cls-1" d="M16.63,22.05h4.74v14.21h-4.74v-14.21ZM23.83,36.26h4.74v-14.21h-4.74v14.21ZM30.84,36.26h4.74v-14.21h-4.74v14.21ZM38.04,36.26h4.74v-14.21h-4.74v14.21ZM45.05,36.26h4.74v-14.21h-4.74v14.21ZM52.25,36.26h4.74v-14.21h-4.74v14.21ZM16.63,74.15h4.74v-14.21h-4.74v14.21ZM23.83,74.15h4.74v-14.21h-4.74v14.21ZM30.84,74.15h4.74v-14.21h-4.74v14.21ZM38.04,74.15h4.74v-14.21h-4.74v14.21ZM45.05,74.15h4.74v-14.21h-4.74v14.21ZM52.25,74.15h4.74v-14.21h-4.74v14.21ZM16.63,112.04h4.74v-14.21h-4.74v14.21ZM23.83,112.04h4.74v-14.21h-4.74v14.21ZM30.84,112.04h4.74v-14.21h-4.74v14.21ZM38.04,112.04h4.74v-14.21h-4.74v14.21ZM45.05,112.04h4.74v-14.21h-4.74v14.21ZM52.25,112.04h4.74v-14.21h-4.74v14.21Z"/>
    </g>
  </g>
</svg>