<?xml version="1.0" encoding="UTF-8"?>
<svg id="Layer_1" data-name="Layer 1" xmlns="http://www.w3.org/2000/svg" version="1.1" viewBox="0 0 128 128">
  <defs>
    <style>
      .cls-1, .cls-2 {
        fill: #000;
        stroke-width: 0px;
      }

      .cls-2 {
        opacity: .33;
      }
    </style>
  </defs>
  <path class="cls-2" d="M108.02,55.61s3.3-11.36,4.77-21.38c.97-6.61-.28-11.38-6.09-16-5.81-4.62-17.7-2.25-23.78,1.19-6.08,3.43-50.33,25.63-50.33,25.63,0,0,34.48-29.19,47.03-36.2,12.55-7,24.57-5.94,33.42.13,8.85,6.08,12.15,18.1,9.38,31.44-2.77,13.34-5.94,24.83-5.94,24.83l-8.45-9.64Z"/>
  <path class="cls-2" d="M56.24,20.22s-11.36-3.3-21.38-4.77c-6.61-.97-11.38.28-16,6.09-4.62,5.81-2.25,17.7,1.19,23.78,3.43,6.08,25.63,50.33,25.63,50.33,0,0-29.19-34.48-36.19-47.03-7-12.55-5.94-24.57.13-33.42C15.68,6.35,27.7,3.05,41.04,5.83c13.34,2.77,24.83,5.94,24.83,5.94l-9.64,8.45Z"/>
  <path class="cls-2" d="M19.98,72.39s-3.3,11.36-4.77,21.38c-.97,6.61.28,11.38,6.09,16,5.81,4.62,17.7,2.25,23.78-1.19,6.08-3.43,50.33-25.63,50.33-25.63,0,0-34.48,29.19-47.03,36.2-12.55,7-24.57,5.94-33.42-.13-8.85-6.08-12.15-18.1-9.38-31.44,2.77-13.34,5.94-24.83,5.94-24.83l8.45,9.64Z"/>
  <path class="cls-2" d="M71.76,107.78s11.36,3.3,21.38,4.77c6.61.97,11.38-.28,16-6.09,4.62-5.81,2.25-17.7-1.19-23.78-3.43-6.08-25.63-50.33-25.63-50.33,0,0,29.19,34.48,36.2,47.03,7,12.55,5.94,24.57-.13,33.42-6.08,8.85-18.1,12.15-31.44,9.38-13.34-2.77-24.83-5.94-24.83-5.94l9.64-8.45Z"/>
  <path class="cls-1" d="M71.49,62.84c0,4.75-3.85,8.6-8.6,8.6s-8.6-3.85-8.6-8.6,3.85-8.6,8.6-8.6,8.6,3.85,8.6,8.6Z"/>
</svg>