<?xml version="1.0" encoding="UTF-8"?>
<svg id="Layer_1" data-name="Layer 1" xmlns="http://www.w3.org/2000/svg" version="1.1" viewBox="0 0 128 128">
  <defs>
    <style>
      .cls-1, .cls-2 {
        fill: #000;
        stroke-width: 0px;
      }

      .cls-2 {
        opacity: .33;
      }
    </style>
  </defs>
  <g>
    <g>
      <path class="cls-1" d="M50.01,71.53c0,3.86-3.13,6.99-6.99,6.99s-6.99-3.13-6.99-6.99,3.13-6.99,6.99-6.99,6.99,3.13,6.99,6.99Z"/>
      <path class="cls-1" d="M70.99,71.53c0,3.86-3.13,6.99-6.99,6.99s-6.99-3.13-6.99-6.99,3.13-6.99,6.99-6.99,6.99,3.13,6.99,6.99Z"/>
      <path class="cls-1" d="M91.97,71.53c0,3.86-3.13,6.99-6.99,6.99s-6.99-3.13-6.99-6.99,3.13-6.99,6.99-6.99,6.99,3.13,6.99,6.99Z"/>
    </g>
    <g>
      <rect class="cls-1" x="45.25" y="34.49" width="9.09" height="9.23"/>
      <rect class="cls-1" x="62.69" y="16.74" width="13.99" height="14.21"/>
    </g>
  </g>
  <path class="cls-2" d="M29.51,43.72v-.04c-2.45.08-4.13.58-5.04,1.51-.91.93-1.36,2.34-1.36,4.25v12.21c-.15,5.12-3,8.14-8.57,9.07v.49c2.82.46,4.95,1.42,6.4,2.88,1.45,1.46,2.17,3.35,2.17,5.7v12.66c0,1.93.46,3.36,1.38,4.29.92.93,2.59,1.42,5.02,1.47h10.82v9.23h-10.82c-4.09,0-7.3-.36-9.61-1.08-2.32-.72-3.98-1.86-4.98-3.41-1-1.55-1.5-3.85-1.5-6.9v-12.86c0-2.64-.8-4.52-2.41-5.63-1.61-1.12-3.94-1.68-7-1.68v-9.76c3.26,0,5.64-.57,7.15-1.71,1.51-1.14,2.26-2.86,2.26-5.15v-13.39c0-2.99.5-5.28,1.49-6.84.99-1.57,2.65-2.71,4.98-3.43,2.33-.72,5.54-1.08,9.63-1.08h10.82v9.23h-10.82ZM116.85,64.39c-1.51-1.14-2.26-2.86-2.26-5.15v-13.39c0-2.99-.5-5.28-1.49-6.84-.99-1.57-2.65-2.71-4.98-3.43-2.33-.72-5.54-1.08-9.63-1.08h-10.83v9.23h10.83v-.04c2.45.08,4.13.58,5.03,1.51.91.93,1.36,2.34,1.36,4.25v12.21c.15,5.12,3,8.14,8.57,9.07v.49c-2.82.46-4.95,1.42-6.4,2.88-1.45,1.46-2.17,3.35-2.17,5.7v12.66c0,1.93-.46,3.36-1.38,4.29-.92.93-2.59,1.42-5.02,1.47h-10.83v9.23h10.83c4.09,0,7.3-.36,9.61-1.08,2.32-.72,3.98-1.86,4.98-3.41,1-1.55,1.5-3.85,1.5-6.9v-12.86c0-2.64.8-4.52,2.41-5.63,1.61-1.12,3.94-1.68,7-1.68v-9.76c-3.26,0-5.64-.57-7.15-1.71Z"/>
</svg>